<?xml version="1.0" encoding="UTF-8" standalone="no"?>
<!-- Created with Inkscape (http://www.inkscape.org/) -->

<svg
   xmlns:dc="http://purl.org/dc/elements/1.1/"
   xmlns:cc="http://creativecommons.org/ns#"
   xmlns:rdf="http://www.w3.org/1999/02/22-rdf-syntax-ns#"
   xmlns:svg="http://www.w3.org/2000/svg"
   xmlns="http://www.w3.org/2000/svg"
   xmlns:xlink="http://www.w3.org/1999/xlink"
   xmlns:sodipodi="http://sodipodi.sourceforge.net/DTD/sodipodi-0.dtd"
   xmlns:inkscape="http://www.inkscape.org/namespaces/inkscape"
   width="210mm"
   height="297mm"
   viewBox="0 0 210 297"
   version="1.1"
   id="svg1088"
   sodipodi:docname="WalkToGroups.svg"
   inkscape:version="0.92.4 (unknown)">
  <defs
     id="defs1082">
    <linearGradient
       id="linearGradient2022"
       inkscape:collect="always">
      <stop
         id="stop2018"
         offset="0"
         style="stop-color:#000000;stop-opacity:1;" />
      <stop
         style="stop-color:#a1a1a1;stop-opacity:1;"
         offset="0.72049797"
         id="stop2024" />
      <stop
         id="stop2020"
         offset="1"
         style="stop-color:#000000;stop-opacity:1" />
    </linearGradient>
    <linearGradient
       inkscape:collect="always"
       id="linearGradient1940">
      <stop
         style="stop-color:#000000;stop-opacity:1;"
         offset="0"
         id="stop1936" />
      <stop
         style="stop-color:#ececec;stop-opacity:1"
         offset="1"
         id="stop1938" />
    </linearGradient>
    <linearGradient
       inkscape:collect="always"
       xlink:href="#linearGradient1940"
       id="linearGradient1942"
       x1="38.762978"
       y1="153.61552"
       x2="38.762978"
       y2="135.65932"
       gradientUnits="userSpaceOnUse" />
    <linearGradient
       inkscape:collect="always"
       xlink:href="#linearGradient1940"
       id="linearGradient1950"
       x1="30.23315"
       y1="153.23216"
       x2="30.23315"
       y2="139.0491"
       gradientUnits="userSpaceOnUse" />
    <linearGradient
       inkscape:collect="always"
       xlink:href="#linearGradient2022"
       id="linearGradient1966"
       gradientUnits="userSpaceOnUse"
       x1="37.801918"
       y1="151.87642"
       x2="37.801918"
       y2="141.49699"
       gradientTransform="matrix(5.5420024,0,0,5.539806,-17.355462,-558.84615)" />
    <linearGradient
       inkscape:collect="always"
       xlink:href="#linearGradient1940"
       id="linearGradient1982"
       gradientUnits="userSpaceOnUse"
       x1="35.08952"
       y1="152.27724"
       x2="35.08952"
       y2="140.2861" />
  </defs>
  <sodipodi:namedview
     id="base"
     pagecolor="#797979"
     bordercolor="#666666"
     borderopacity="1.0"
     inkscape:pageopacity="0"
     inkscape:pageshadow="2"
     inkscape:zoom="0.7"
     inkscape:cx="413.35596"
     inkscape:cy="729.53493"
     inkscape:document-units="mm"
     inkscape:current-layer="layer1"
     showgrid="false"
     inkscape:window-width="1920"
     inkscape:window-height="1055"
     inkscape:window-x="0"
     inkscape:window-y="0"
     inkscape:window-maximized="1" />
  <metadata
     id="metadata1085">
    <rdf:RDF>
      <cc:Work
         rdf:about="">
        <dc:format>image/svg+xml</dc:format>
        <dc:type
           rdf:resource="http://purl.org/dc/dcmitype/StillImage" />
        <dc:title></dc:title>
      </cc:Work>
    </rdf:RDF>
  </metadata>
  <g
     inkscape:label="Layer 1"
     inkscape:groupmode="layer"
     id="layer1">
    <path
       style="opacity:1;vector-effect:none;fill:#000000;fill-opacity:1;stroke:#ffffff;stroke-width:0.89999992;stroke-linecap:round;stroke-linejoin:round;stroke-miterlimit:4;stroke-dasharray:none;stroke-dashoffset:90.48194885;stroke-opacity:1"
       d="m 81.037495,59.22461 c -0.805996,0 -1.454865,0.648604 -1.454865,1.454293 v 1.798155 c 0,0.805688 0.648869,1.454293 1.454865,1.454293 0.805996,0 1.454867,-0.648605 1.454867,-1.454293 v -1.798155 c 0,-0.805689 -0.648871,-1.454293 -1.454867,-1.454293 z m 4.641175,0 c -0.805996,0 -1.454867,0.648604 -1.454867,1.454293 v 1.798155 c 0,0.805688 0.648871,1.454293 1.454867,1.454293 0.805994,0 1.454865,-0.648605 1.454865,-1.454293 v -1.798155 c 0,-0.805689 -0.648871,-1.454293 -1.454865,-1.454293 z"
       id="path1743"
       inkscape:connector-curvature="0"
       inkscape:export-filename="/home/vit/ProjectG70/care-up/care-up/Assets/_Textures/walkToGroups_labels.png"
       inkscape:export-xdpi="96"
       inkscape:export-ydpi="96" />
    <rect
       style="opacity:0;vector-effect:none;fill:#000000;fill-opacity:1;stroke:none;stroke-width:0.89999998;stroke-linecap:round;stroke-linejoin:round;stroke-miterlimit:4;stroke-dasharray:none;stroke-dashoffset:90.48194885;stroke-opacity:1"
       id="rect1798"
       width="135.46666"
       height="135.46666"
       x="14.699823"
       y="-11.924583"
       ry="0"
       inkscape:export-filename="/home/vit/ProjectG70/care-up/care-up/Assets/_Textures/walkToGroups_labels.png"
       inkscape:export-xdpi="96"
       inkscape:export-ydpi="96" />
    <g
       id="g1759"
       transform="matrix(1.4663215,0,0,1.4657403,-5.0219944,-26.622299)"
       style="stroke-width:0.68211389"
       inkscape:export-filename="/home/vit/ProjectG70/care-up/care-up/Assets/_Textures/walkToGroups_labels.png"
       inkscape:export-xdpi="96"
       inkscape:export-ydpi="96">
      <g
         transform="translate(0,-105.73241)"
         style="fill:#000000;stroke-width:0.68211389"
         id="g1656">
        <path
           inkscape:connector-curvature="0"
           id="text1650"
           d="m 33.947389,144.84022 c -3.836037,0 -6.67906,2.94696 -6.67906,6.67348 0,3.89622 3.029898,6.67149 6.920356,6.67149 0.600081,0 1.167415,-0.0485 1.656253,-0.16402 a 0.64248952,0.65772977 0 0 0 0.498034,-0.64225 v -2.96621 a 0.64248952,0.65772977 0 0 0 -0.640881,-0.65608 h -0.113892 a 0.64248952,0.65772977 0 0 0 -0.600343,0.42685 c 0.05162,-0.14092 0.132862,-0.13094 -0.01158,-0.087 -0.144444,0.044 -0.445561,0.087 -0.884107,0.087 -1.534518,0 -2.658112,-1.08631 -2.658111,-2.63816 0,-1.64854 1.145175,-2.75279 2.577035,-2.75279 0.425785,0 0.738843,0.0639 0.903411,0.12647 0.164568,0.0625 0.09872,0.13063 0.04826,-0.0889 a 0.64248952,0.65772977 0 0 0 0.625438,0.50589 h 0.113892 a 0.64248952,0.65772977 0 0 0 0.640881,-0.65607 v -3.06502 a 0.64248952,0.65772977 0 0 0 -0.548223,-0.65213 c -0.587459,-0.0884 -1.19764,-0.12253 -1.84736,-0.12253 z m 8.358479,0 c -1.690863,0 -3.248923,0.65934 -4.410883,1.7568 -1.301012,1.22241 -2.107958,2.96912 -2.107958,4.91668 0,3.68237 2.921791,6.67149 6.518841,6.67149 3.597049,0 6.516911,-2.98912 6.516911,-6.67149 0,-3.68237 -2.919862,-6.67348 -6.516911,-6.67348 z m 34.74463,0.1166 c -3.459984,0 -5.959591,2.26732 -6.555518,5.28423 v -0.35965 a 0.64248952,0.65772977 0 0 0 -0.507686,-0.64226 0.64248952,0.65772977 0 0 0 0.507686,-0.64225 v -2.85158 a 0.64248952,0.65772977 0 0 0 -0.642811,-0.65609 h -6.437766 a 0.64248952,0.65772977 0 0 0 -0.642811,0.65609 v 0.0988 a 0.64248952,0.65772977 0 0 0 0.252878,0.52171 c 0.0014,0.0162 0.0039,0.0292 0.0039,0.0395 v 7.50148 a 0.64248952,0.65772977 0 0 0 -0.249017,-0.0514 h -0.09652 a 0.64248952,0.65772977 0 0 0 -0.513477,0.26283 h -1.982484 v -7.71293 c 0,-0.01 0.0025,-0.0223 0.0039,-0.0375 a 0.64248952,0.65772977 0 0 0 0.252877,-0.52368 v -0.0988 a 0.64248952,0.65772977 0 0 0 -0.642811,-0.65609 h -3.461144 a 0.64248952,0.65772977 0 0 0 -0.64088,0.65609 v 0.0988 a 0.64248952,0.65772977 0 0 0 0.252877,0.52171 c 0.0014,0.0162 0.0039,0.0292 0.0039,0.0395 v 7.50148 a 0.64248952,0.65772977 0 0 0 -0.250948,-0.0514 h -0.09652 a 0.64248952,0.65772977 0 0 0 -0.511546,0.26283 h -1.984415 v -7.71293 c 0,-0.01 0.0026,-0.0223 0.0039,-0.0375 a 0.64248952,0.65772977 0 0 0 0.254808,-0.52368 v -0.0988 a 0.64248952,0.65772977 0 0 0 -0.642812,-0.65609 h -3.461143 a 0.64248952,0.65772977 0 0 0 -0.642811,0.65609 v 0.0988 a 0.64248952,0.65772977 0 0 0 0.254808,0.52368 c 0.0013,0.0153 0.0039,0.0278 0.0039,0.0375 v 10.21672 c 0,0.01 -0.0025,0.022 -0.0039,0.0375 a 0.64248952,0.65772977 0 0 0 -0.254808,0.52171 v 0.0988 a 0.64248952,0.65772977 0 0 0 0.642811,0.65806 h 6.437765 a 0.64248952,0.65772977 0 0 0 0.318511,-0.087 0.64248952,0.65772977 0 0 0 0.316579,0.087 h 6.439696 a 0.64248952,0.65772977 0 0 0 0.31658,-0.087 0.64248952,0.65772977 0 0 0 0.31851,0.087 h 6.437766 a 0.64248952,0.65772977 0 0 0 0.642811,-0.65806 v -2.7686 a 0.64248952,0.65772977 0 0 0 -0.642811,-0.65608 h -0.09652 a 0.64248952,0.65772977 0 0 0 -0.513477,0.26283 H 67.25984 v -0.94263 h 1.982485 a 0.64248952,0.65772977 0 0 0 0.513477,0.2648 h 0.09652 a 0.64248952,0.65772977 0 0 0 0.642811,-0.65806 v -0.0316 c 0.601796,3.14046 3.245382,5.3692 6.66941,5.3692 0.978718,0 1.910226,-0.0603 2.503682,-0.17785 a 0.64248952,0.65772977 0 0 0 0.01544,-0.004 h 3.304784 a 0.64248952,0.65772977 0 0 0 0.642812,-0.65806 v -0.0988 a 0.64248952,0.65772977 0 0 0 -0.154429,-0.42686 l 0.384141,-1.23905 h 3.142634 l 0.374491,1.23708 a 0.64248952,0.65772977 0 0 0 -0.154429,0.42883 v 0.0988 a 0.64248952,0.65772977 0 0 0 0.642811,0.65806 h 3.507472 a 0.64248952,0.65772977 0 0 0 0.642811,-0.65806 v -0.0988 a 0.64248952,0.65772977 0 0 0 -0.355186,-0.58692 c -0.02181,-0.0424 -0.04919,-0.097 -0.05984,-0.13241 a 0.64248952,0.65772977 0 0 0 0,-0.002 l -3.090514,-10.19893 v -0.002 c -0.0048,-0.0164 -0.0057,-0.0329 -0.0097,-0.0573 a 0.64248952,0.65772977 0 0 0 0.10231,-0.35769 v -0.0988 a 0.64248952,0.65772977 0 0 0 -0.640882,-0.65609 H 82.9247 a 0.64248952,0.65772977 0 0 0 -0.642811,0.65609 v 0.0988 a 0.64248952,0.65772977 0 0 0 0.102309,0.3557 c -0.0042,0.0259 -0.0046,0.0444 -0.0097,0.0613 l -2.266248,7.47777 v -1.20348 c 0,-0.01 0.0026,-0.0223 0.0039,-0.0376 a 0.64248952,0.65772977 0 0 0 0.252878,-0.52369 v -0.0988 a 0.64248952,0.65772977 0 0 0 -0.640882,-0.65806 h -3.461143 a 0.64248952,0.65772977 0 0 0 -0.642811,0.65806 v 0.0988 a 0.64248952,0.65772977 0 0 0 0.252877,0.52171 c 0.0014,0.0162 0.0039,0.0293 0.0039,0.0395 v 1.31414 c -0.862443,-0.32618 -1.499893,-1.05581 -1.499893,-2.1876 0,-1.52058 1.091098,-2.75278 2.818333,-2.75278 0.488088,0 0.83511,0.0641 1.01344,0.12844 0.178332,0.0644 0.102584,0.12668 0.05212,-0.0929 a 0.64248952,0.65772977 0 0 0 0.625437,0.50788 h 0.111962 a 0.64248952,0.65772977 0 0 0 0.642811,-0.65806 v -3.06502 a 0.64248952,0.65772977 0 0 0 -0.548223,-0.65015 c -0.587458,-0.0884 -1.204619,-0.12252 -2.042326,-0.12252 z m -43.103109,1.19952 c 0.405748,0 0.752879,0.0407 1.11189,0.0731 v 1.41097 c -0.312291,-0.0838 -0.628658,-0.16204 -1.048188,-0.16204 -2.109327,0 -3.862659,1.76072 -3.862659,4.06693 0,2.23811 1.776102,3.95428 3.943735,3.95428 0.395212,0 0.680551,-0.052 0.967112,-0.11067 v 1.39714 c -0.279399,0.0357 -0.535555,0.085 -0.870594,0.085 -3.320688,0 -5.636664,-2.13503 -5.636664,-5.35735 0,-3.06247 2.181223,-5.35736 5.395368,-5.35736 z m 8.358479,0 c 2.905859,0 5.233217,2.38257 5.233217,5.35736 0,2.97479 -2.327358,5.35735 -5.233217,5.35735 -2.905859,0 -5.233218,-2.38256 -5.233218,-5.35735 0,-1.57877 0.64195,-2.9627 1.690999,-3.94836 a 0.64248952,0.65772977 0 0 0 0.0019,-0.002 c 0.930434,-0.87923 2.173437,-1.40701 3.540289,-1.40702 z m 34.74463,0.11462 c 0.566491,0 0.920817,0.041 1.306857,0.0771 v 1.409 c -0.335509,-0.089 -0.685686,-0.16402 -1.162079,-0.16402 -2.361229,0 -4.102025,1.86543 -4.102025,4.0689 0,1.80789 1.170358,3.23674 2.725675,3.61833 0.240037,0.0651 0.457046,0.0845 0.648602,0.10079 a 0.64248952,0.65772977 0 0 0 0.694931,-0.65411 v -2.19155 c 0,-4.6e-4 0,-0.002 0,-0.002 h 1.660113 c 0,4.6e-4 0,0.002 0,0.002 v 4.0195 c 0,0.0498 0.01357,0.0882 0.01544,0.13634 -0.476247,0.0532 -0.991986,0.11265 -1.673625,0.11265 -3.301394,0 -5.634734,-2.1603 -5.634734,-5.29016 0,-2.98998 2.161307,-5.24274 5.520842,-5.24274 z m -26.884187,0.13241 h 1.662045 c 0,4.5e-4 0,0.002 0,0.002 v 8.37099 a 0.64248952,0.65772977 0 0 0 0.640881,0.65806 h 2.59441 v 1.18767 h -4.897336 v -10.21672 c 0,-4.6e-4 10e-7,-0.002 0,-0.002 z m 7.074787,0 h 1.660113 c 0,4.5e-4 0,0.002 0,0.002 v 8.37099 a 0.64248952,0.65772977 0 0 0 0.642812,0.65806 h 2.592479 v 1.18767 h -4.895404 v -10.21672 c 0,-4.6e-4 0,-0.002 0,-0.002 z m 7.072856,0 h 4.895404 v 1.27264 h -2.59248 a 0.64248952,0.65772977 0 0 0 -0.642812,0.65608 v 1.8141 a 0.64248952,0.65772977 0 0 0 0.642812,0.65609 h 2.59248 v 1.05922 h -2.59248 a 0.64248952,0.65772977 0 0 0 -0.642812,0.65608 v 2.25875 a 0.64248952,0.65772977 0 0 0 0.642812,0.65806 h 2.59248 v 1.18767 h -4.895404 v -10.21672 c 0,-4.6e-4 0,-0.002 0,-0.002 z m 19.322948,0 h 3.613642 c 0.01415,0.0786 0.01099,0.17242 0.03282,0.24503 l 3.021021,9.97366 h -1.662044 c -0.01133,-0.0497 0.01013,-0.10903 -0.0058,-0.1581 l -0.544364,-1.80027 a 0.64248952,0.65772977 0 0 0 -0.613855,-0.46242 H 83.38981 a 0.64248952,0.65772977 0 0 0 -0.611926,0.45846 l -0.559805,1.80225 c -3.99e-4,10e-4 3.96e-4,0.003 0,0.004 -0.01568,0.0485 0.0035,0.10698 -0.0077,0.15612 h -1.629228 l 3.02102,-9.97366 c 0.02184,-0.0727 0.02059,-0.16637 0.03475,-0.24503 z m 1.766283,0.84381 a 0.64248952,0.65772977 0 0 0 -0.63316,0.54344 c -0.213901,1.23564 -0.587367,2.27213 -0.932365,3.43258 l -0.272182,0.90311 a 0.64248952,0.65772977 0 0 0 0.613856,0.85171 h 2.526847 a 0.64248952,0.65772977 0 0 0 0.613856,-0.85369 l -0.258669,-0.84185 c -0.353164,-1.15035 -0.714295,-2.36576 -0.930436,-3.50372 a 0.64248952,0.65772977 0 0 0 -0.631229,-0.53158 z m -43.097317,0.55925 c -1.990329,0 -3.621364,1.66972 -3.621364,3.70727 0,2.05056 1.631035,3.72307 3.621364,3.72307 2.003041,0 3.619433,-1.67677 3.619433,-3.72307 0,-2.03324 -1.616392,-3.70727 -3.619433,-3.70727 z m 24.953821,1.18372 h 1.982485 a 0.64248952,0.65772977 0 0 0 0.378351,0.24899 0.64248952,0.65772977 0 0 0 -0.378351,0.24899 h -1.982485 z m -24.953821,0.1324 c 1.312798,0 2.335741,1.06285 2.335741,2.39115 0,1.34819 -1.022943,2.40695 -2.335741,2.40695 -1.293318,0 -2.335741,-1.06302 -2.335741,-2.40695 0,-1.324 1.042423,-2.39115 2.335741,-2.39115 z m 43.139785,1.08293 c 0.138465,0.48655 0.244066,0.99577 0.386073,1.4584 h -0.781798 l 0.01737,-0.0553 a 0.64248952,0.65772977 0 0 0 0,-0.002 c 0.129332,-0.43502 0.241849,-0.95246 0.378352,-1.40109 z"
           style="color:#000000;font-style:normal;font-variant:normal;font-weight:normal;font-stretch:normal;font-size:16.28609657px;line-height:19.08526611px;font-family:sans-serif;-inkscape-font-specification:sans-serif;font-variant-ligatures:normal;font-variant-position:normal;font-variant-caps:normal;font-variant-numeric:normal;font-variant-alternates:normal;font-feature-settings:normal;text-indent:0;text-align:center;text-decoration:none;text-decoration-line:none;text-decoration-style:solid;text-decoration-color:#000000;letter-spacing:0px;word-spacing:0px;text-transform:none;writing-mode:lr-tb;direction:ltr;text-orientation:mixed;dominant-baseline:auto;baseline-shift:baseline;text-anchor:middle;white-space:normal;shape-padding:0;clip-rule:nonzero;display:inline;overflow:visible;visibility:visible;opacity:1;isolation:auto;mix-blend-mode:normal;color-interpolation:sRGB;color-interpolation-filters:linearRGB;solid-color:#000000;solid-opacity:1;vector-effect:none;fill:#ffffff;fill-opacity:1;fill-rule:nonzero;stroke:none;stroke-width:0.88674802;stroke-linecap:round;stroke-linejoin:round;stroke-miterlimit:4;stroke-dasharray:none;stroke-dashoffset:0;stroke-opacity:1;color-rendering:auto;image-rendering:auto;shape-rendering:auto;text-rendering:auto;enable-background:accumulate" />
        <text
           xml:space="preserve"
           style="font-style:normal;font-variant:normal;font-weight:normal;font-stretch:normal;font-size:16.09630775px;line-height:18.86285782px;font-family:sans-serif;-inkscape-font-specification:sans-serif;font-variant-ligatures:normal;font-variant-position:normal;font-variant-caps:normal;font-variant-numeric:normal;font-variant-alternates:normal;font-feature-settings:normal;text-indent:0;text-align:center;text-decoration:none;text-decoration-line:none;text-decoration-style:solid;text-decoration-color:#000000;letter-spacing:0px;word-spacing:0px;text-transform:none;writing-mode:lr-tb;direction:ltr;text-orientation:mixed;dominant-baseline:auto;baseline-shift:baseline;text-anchor:middle;white-space:normal;shape-padding:0;opacity:1;vector-effect:none;fill:url(#linearGradient1950);fill-opacity:1.0;stroke:none;stroke-width:0.18047595px;stroke-linecap:butt;stroke-linejoin:miter;stroke-miterlimit:4;stroke-dasharray:none;stroke-dashoffset:0;stroke-opacity:1"
           x="59.199253"
           y="156.75145"
           id="text1646"><tspan
             sodipodi:role="line"
             id="tspan1644"
             x="59.199253"
             y="156.75145"
             style="font-style:normal;font-variant:normal;font-weight:bold;font-stretch:normal;font-family:'Solpera Medium';-inkscape-font-specification:'Solpera Medium, ';fill:url(#linearGradient1950);fill-opacity:1.0;stroke-width:0.18047595px">COLLEGA</tspan></text>
      </g>
    </g>
    <g
       id="text1668"
       style="font-style:normal;font-variant:normal;font-weight:normal;font-stretch:normal;font-size:16.28609657px;line-height:19.08526611px;font-family:sans-serif;-inkscape-font-specification:sans-serif;font-variant-ligatures:normal;font-variant-position:normal;font-variant-caps:normal;font-variant-numeric:normal;font-variant-alternates:normal;font-feature-settings:normal;text-indent:0;text-align:center;text-decoration:none;text-decoration-line:none;text-decoration-style:solid;text-decoration-color:#000000;letter-spacing:0px;word-spacing:0px;text-transform:none;writing-mode:lr-tb;direction:ltr;text-orientation:mixed;dominant-baseline:auto;baseline-shift:baseline;text-anchor:middle;white-space:normal;shape-padding:0;opacity:1;vector-effect:none;fill:#000000;fill-opacity:1;stroke:#ffffff;stroke-width:0.88674802;stroke-linecap:round;stroke-linejoin:round;stroke-miterlimit:4;stroke-dasharray:none;stroke-dashoffset:0;stroke-opacity:1"
       transform="matrix(1.4492339,0,0,1.4830226,-4.3824838,-212.34876)"
       aria-label="WERKVELD"
       inkscape:export-filename="/home/vit/ProjectG70/care-up/care-up/Assets/_Textures/walkToGroups_labels.png"
       inkscape:export-xdpi="96"
       inkscape:export-ydpi="96">
      <path
         inkscape:connector-curvature="0"
         id="path1676"
         style="font-style:normal;font-variant:normal;font-weight:bold;font-stretch:normal;font-family:'Solpera Medium';-inkscape-font-specification:'Solpera Medium, ';fill:#ffffff;stroke:#ffffff;stroke-width:0.88674802;stroke-linecap:round;stroke-linejoin:round;stroke-miterlimit:4;stroke-dasharray:none"
         d="m 27.27239,147.93988 h 0.06514 c 0.03257,0.48858 0.146575,1.02602 0.260577,1.44946 l 1.449463,5.40699 c 0.04886,0.16286 0.130289,0.55372 -0.09772,0.55372 v 0.0977 h 4.071524 v -0.0977 c -0.228005,0 -0.195433,-0.39086 -0.162861,-0.55372 l 1.693754,-10.09738 c 0.03257,-0.16287 0.114003,-0.55373 0.342008,-0.55373 v -0.0977 H 31.57192 v 0.0977 c 0.228005,0 0.211719,0.39086 0.179147,0.55373 l -0.895735,5.58613 c -0.03257,0.228 -0.09772,0.66773 -0.130289,1.14002 h -0.06515 c -0.06514,-0.47229 -0.162861,-0.89573 -0.293149,-1.33546 l -1.579752,-5.6187 c -0.03257,-0.114 -0.04886,-0.30944 -0.04886,-0.42344 h -2.915211 c -0.01629,0.13029 -0.04886,0.32572 -0.08143,0.42344 l -1.514607,5.56985 c -0.114002,0.43972 -0.195433,0.91202 -0.260577,1.38431 h -0.06515 c -0.03257,-0.47229 -0.09772,-0.91202 -0.130288,-1.14002 l -0.87945,-5.58613 c -0.03257,-0.16287 -0.04886,-0.55373 0.179147,-0.55373 v -0.0977 h -3.387508 v 0.0977 c 0.228006,0 0.309436,0.39086 0.342008,0.55373 l 1.579752,10.09738 c 0.03257,0.16286 0.06514,0.55372 -0.162861,0.55372 v 0.0977 h 4.152954 v -0.0977 c -0.228005,0 -0.146575,-0.39086 -0.09772,-0.55372 l 1.514607,-5.48842 c 0.114002,-0.42344 0.195433,-0.86316 0.260577,-1.36803 z" />
      <path
         inkscape:connector-curvature="0"
         id="path1678"
         style="font-style:normal;font-variant:normal;font-weight:bold;font-stretch:normal;font-family:'Solpera Medium';-inkscape-font-specification:'Solpera Medium, ';fill:#ffffff;stroke:#ffffff;stroke-width:0.88674802;stroke-linecap:round;stroke-linejoin:round;stroke-miterlimit:4;stroke-dasharray:none"
         d="m 39.220023,152.97228 v -2.23119 h 2.784923 c 0.162861,0 0.390866,0.0326 0.390866,0.26057 h 0.09772 v -2.86635 h -0.09772 c 0,0.22801 -0.228005,0.26058 -0.390866,0.26058 h -2.784923 v -1.79147 h 2.784923 c 0.162861,0 0.390866,0.0326 0.390866,0.26058 h 0.09772 v -2.8175 H 35.97909 v 0.0977 c 0.228006,0 0.260578,0.39086 0.260578,0.55373 v 10.09738 c 0,0.16286 -0.03257,0.55372 -0.260578,0.55372 v 0.0977 h 6.514439 v -2.73607 h -0.09772 c 0,0.22801 -0.228005,0.26058 -0.390866,0.26058 z" />
      <path
         inkscape:connector-curvature="0"
         id="path1680"
         style="font-style:normal;font-variant:normal;font-weight:bold;font-stretch:normal;font-family:'Solpera Medium';-inkscape-font-specification:'Solpera Medium, ';fill:#ffffff;stroke:#ffffff;stroke-width:0.88674802;stroke-linecap:round;stroke-linejoin:round;stroke-miterlimit:4;stroke-dasharray:none"
         d="m 47.594894,148.98219 h -0.456011 v -2.36149 h 0.553727 c 0.830591,0 1.25403,0.57002 1.25403,1.1726 0,0.65145 -0.390867,1.18889 -1.351746,1.18889 z m 1.986904,6.46558 h 3.485224 v -0.0977 c -0.195433,-0.0326 -0.29315,-0.228 -0.423438,-0.48858 l -1.221458,-2.54063 c -0.439724,-0.89574 -0.846877,-1.38432 -1.302887,-1.62861 v -0.0489 c 0.960879,-0.16286 1.872901,-1.54718 1.872901,-2.86635 0,-1.74261 -1.286602,-3.72952 -3.990094,-3.72952 h -4.038952 v 0.0977 c 0.228006,0 0.260578,0.39086 0.260578,0.55373 v 10.09738 c 0,0.16286 -0.03257,0.55372 -0.260578,0.55372 v 0.0977 h 3.436367 v -0.0977 c -0.228006,0 -0.260578,-0.39086 -0.260578,-0.55372 v -3.43637 h 0.244292 c 0.228005,0 0.423438,0.13029 0.586299,0.4723 l 1.498321,3.12693 c 0.04886,0.114 0.09772,0.26057 0.114003,0.48858 z" />
      <path
         inkscape:connector-curvature="0"
         id="path1682"
         style="font-style:normal;font-variant:normal;font-weight:bold;font-stretch:normal;font-family:'Solpera Medium';-inkscape-font-specification:'Solpera Medium, ';fill:#ffffff;stroke:#ffffff;stroke-width:0.88674802;stroke-linecap:round;stroke-linejoin:round;stroke-miterlimit:4;stroke-dasharray:none"
         d="m 57.209036,149.3242 c 0.146575,0.114 0.325722,0.29315 0.570013,0.79802 l 2.263768,4.67411 c 0.114002,0.24429 0.195433,0.55372 0,0.55372 v 0.0977 h 3.876091 v -0.0977 c -0.228006,0 -0.521156,-0.39086 -0.602586,-0.55372 l -2.768636,-5.65128 c -0.03257,-0.0651 -0.09772,-0.16286 -0.146575,-0.21172 0.06514,-0.0651 0.130288,-0.14657 0.162861,-0.21172 l 2.394056,-4.02266 c 0.09772,-0.16287 0.37458,-0.55373 0.602585,-0.55373 v -0.0977 h -3.924949 v 0.0977 c 0.260578,0 0.211719,0.24429 0.04886,0.55373 z m 0.211719,6.12357 v -0.0977 c -0.228005,0 -0.260577,-0.39086 -0.260577,-0.55372 v -10.09738 c 0,-0.16287 0.03257,-0.55373 0.260577,-0.55373 v -0.0977 h -3.501511 v 0.0977 c 0.228006,0 0.260578,0.39086 0.260578,0.55373 v 10.09738 c 0,0.16286 -0.03257,0.55372 -0.260578,0.55372 v 0.0977 z" />
      <path
         inkscape:connector-curvature="0"
         id="path1684"
         style="font-style:normal;font-variant:normal;font-weight:bold;font-stretch:normal;font-family:'Solpera Medium';-inkscape-font-specification:'Solpera Medium, ';fill:#ffffff;stroke:#ffffff;stroke-width:0.88674802;stroke-linecap:round;stroke-linejoin:round;stroke-miterlimit:4;stroke-dasharray:none"
         d="m 68.888455,152.63027 h -0.08143 c -0.195433,-1.17259 -0.570013,-2.39405 -0.912021,-3.53408 l -1.319174,-4.4461 c -0.06514,-0.24429 -0.03257,-0.50487 0.162861,-0.50487 v -0.0977 h -3.599227 v 0.0977 c 0.162861,0 0.325722,0.30943 0.390866,0.52115 l 3.126931,10.0811 c 0.06514,0.21172 0.09772,0.55372 -0.06514,0.60258 v 0.0977 h 4.462391 v -0.0977 c -0.162861,-0.0489 -0.130289,-0.39086 -0.06515,-0.60258 l 3.25722,-10.0811 c 0.09772,-0.30943 0.276863,-0.52115 0.390866,-0.52115 v -0.0977 h -3.648086 v 0.0977 c 0.195434,0 0.228006,0.26058 0.162861,0.50487 l -1.33546,4.46239 c -0.342008,1.12374 -0.716588,2.23119 -0.928307,3.51779 z" />
      <path
         inkscape:connector-curvature="0"
         id="path1686"
         style="font-style:normal;font-variant:normal;font-weight:bold;font-stretch:normal;font-family:'Solpera Medium';-inkscape-font-specification:'Solpera Medium, ';fill:#ffffff;stroke:#ffffff;stroke-width:0.88674802;stroke-linecap:round;stroke-linejoin:round;stroke-miterlimit:4;stroke-dasharray:none"
         d="m 78.535677,152.97228 v -2.23119 H 81.3206 c 0.162861,0 0.390866,0.0326 0.390866,0.26057 h 0.09772 v -2.86635 h -0.09772 c 0,0.22801 -0.228005,0.26058 -0.390866,0.26058 h -2.784923 v -1.79147 H 81.3206 c 0.162861,0 0.390866,0.0326 0.390866,0.26058 h 0.09772 v -2.8175 h -6.514439 v 0.0977 c 0.228005,0 0.260578,0.39086 0.260578,0.55373 v 10.09738 c 0,0.16286 -0.03257,0.55372 -0.260578,0.55372 v 0.0977 h 6.514439 v -2.73607 h -0.09772 c 0,0.22801 -0.228005,0.26058 -0.390866,0.26058 z" />
      <path
         inkscape:connector-curvature="0"
         id="path1688"
         style="font-style:normal;font-variant:normal;font-weight:bold;font-stretch:normal;font-family:'Solpera Medium';-inkscape-font-specification:'Solpera Medium, ';fill:#ffffff;stroke:#ffffff;stroke-width:0.88674802;stroke-linecap:round;stroke-linejoin:round;stroke-miterlimit:4;stroke-dasharray:none"
         d="m 86.519682,152.97228 v -8.27333 c 0,-0.16287 0.03257,-0.55373 0.260578,-0.55373 v -0.0977 h -3.501511 v 0.0977 c 0.228005,0 0.260578,0.39086 0.260578,0.55373 v 10.09738 c 0,0.16286 -0.03257,0.55372 -0.260578,0.55372 v 0.0977 h 6.514439 v -2.73607 h -0.09772 c 0,0.22801 -0.228005,0.26058 -0.390866,0.26058 z" />
      <path
         inkscape:connector-curvature="0"
         id="path1690"
         style="font-style:normal;font-variant:normal;font-weight:bold;font-stretch:normal;font-family:'Solpera Medium';-inkscape-font-specification:'Solpera Medium, ';fill:#ffffff;stroke:#ffffff;stroke-width:0.88674802;stroke-linecap:round;stroke-linejoin:round;stroke-miterlimit:4;stroke-dasharray:none"
         d="m 90.435724,155.44777 h 3.175789 c 3.810946,0 6.514437,-2.08462 6.514437,-5.79785 0,-2.99664 -1.921758,-5.60242 -6.205002,-5.60242 h -3.485224 v 0.0977 c 0.228005,0 0.260577,0.39086 0.260577,0.55373 v 10.09738 c 0,0.16286 -0.03257,0.55372 -0.260577,0.55372 z m 3.648085,-2.62206 h -0.407152 v -6.22129 h 0.309436 c 2.296339,0 3.192075,1.44946 3.192075,3.14322 0,1.75889 -1.33546,3.07807 -3.094359,3.07807 z" />
    </g>
    <g
       id="text1672"
       style="font-style:normal;font-variant:normal;font-weight:normal;font-stretch:normal;font-size:16.09630775px;line-height:18.86285782px;font-family:sans-serif;-inkscape-font-specification:sans-serif;font-variant-ligatures:normal;font-variant-position:normal;font-variant-caps:normal;font-variant-numeric:normal;font-variant-alternates:normal;font-feature-settings:normal;text-indent:0;text-align:center;text-decoration:none;text-decoration-line:none;text-decoration-style:solid;text-decoration-color:#000000;letter-spacing:0px;word-spacing:0px;text-transform:none;writing-mode:lr-tb;direction:ltr;text-orientation:mixed;dominant-baseline:auto;baseline-shift:baseline;text-anchor:middle;white-space:normal;shape-padding:0;opacity:1;vector-effect:none;fill:url(#linearGradient1942);fill-opacity:1;stroke:none;stroke-width:0.18047595px;stroke-linecap:butt;stroke-linejoin:miter;stroke-miterlimit:4;stroke-dasharray:none;stroke-dashoffset:0;stroke-opacity:1"
       aria-label="WERKVELD"
       transform="matrix(1.4663215,0,0,1.4657403,-4.3824838,-212.34876)"
       inkscape:export-filename="/home/vit/ProjectG70/care-up/care-up/Assets/_Textures/walkToGroups_labels.png"
       inkscape:export-xdpi="96"
       inkscape:export-ydpi="96">
      <path
         inkscape:connector-curvature="0"
         id="path1693"
         style="font-style:normal;font-variant:normal;font-weight:bold;font-stretch:normal;font-family:'Solpera Medium';-inkscape-font-specification:'Solpera Medium, ';fill:url(#linearGradient1942);fill-opacity:1.0;stroke-width:0.18047595px"
         d="m 26.954576,149.33105 h 0.06439 c 0.03219,0.48289 0.144867,1.01407 0.257541,1.43257 l 1.432572,5.34398 c 0.04829,0.16096 0.12877,0.54727 -0.09658,0.54727 v 0.0966 h 4.024077 v -0.0966 c -0.225349,0 -0.193156,-0.38631 -0.160963,-0.54727 l 1.674016,-9.97971 c 0.03219,-0.16097 0.112674,-0.54728 0.338022,-0.54728 v -0.0966 h -3.283647 v 0.0966 c 0.225349,0 0.209252,0.38631 0.17706,0.54728 l -0.885297,5.52103 c -0.03219,0.22535 -0.09658,0.65995 -0.128771,1.12674 h -0.06439 c -0.06438,-0.46679 -0.160963,-0.8853 -0.289733,-1.3199 l -1.561342,-5.55322 c -0.03219,-0.11268 -0.04829,-0.30583 -0.04829,-0.41851 h -2.881239 c -0.0161,0.12877 -0.04829,0.32193 -0.08048,0.41851 l -1.496956,5.50494 c -0.112675,0.4346 -0.193156,0.90139 -0.257541,1.36818 h -0.06439 c -0.03219,-0.46679 -0.09658,-0.90139 -0.12877,-1.12674 l -0.869201,-5.52103 c -0.03219,-0.16097 -0.04829,-0.54728 0.17706,-0.54728 v -0.0966 h -3.348032 v 0.0966 c 0.225348,0 0.30583,0.38631 0.338022,0.54728 l 1.561342,9.97971 c 0.03219,0.16096 0.06439,0.54727 -0.160963,0.54727 v 0.0966 h 4.104558 v -0.0966 c -0.225348,0 -0.144866,-0.38631 -0.09658,-0.54727 l 1.496956,-5.42446 c 0.112674,-0.4185 0.193156,-0.8531 0.257541,-1.35209 z" />
      <path
         inkscape:connector-curvature="0"
         id="path1695"
         style="font-style:normal;font-variant:normal;font-weight:bold;font-stretch:normal;font-family:'Solpera Medium';-inkscape-font-specification:'Solpera Medium, ';fill:url(#linearGradient1942);fill-opacity:1.0;stroke-width:0.18047595px"
         d="m 38.762978,154.30481 v -2.20519 h 2.752469 c 0.160963,0 0.386311,0.0322 0.386311,0.25754 h 0.09658 v -2.83295 h -0.09658 c 0,0.22535 -0.225348,0.25754 -0.386311,0.25754 h -2.752469 v -1.7706 h 2.752469 c 0.160963,0 0.386311,0.0322 0.386311,0.25755 h 0.09658 v -2.78467 h -6.438523 v 0.0966 c 0.225349,0 0.257541,0.38631 0.257541,0.54728 v 9.97971 c 0,0.16096 -0.03219,0.54727 -0.257541,0.54727 v 0.0966 h 6.438523 v -2.70418 h -0.09658 c 0,0.22535 -0.225348,0.25754 -0.386311,0.25754 z" />
      <path
         inkscape:connector-curvature="0"
         id="path1697"
         style="font-style:normal;font-variant:normal;font-weight:bold;font-stretch:normal;font-family:'Solpera Medium';-inkscape-font-specification:'Solpera Medium, ';fill:url(#linearGradient1942);fill-opacity:1.0;stroke-width:0.18047595px"
         d="m 47.040252,150.36122 h -0.450696 v -2.33397 h 0.547274 c 0.820912,0 1.239416,0.56337 1.239416,1.15893 0,0.64386 -0.386311,1.17504 -1.335994,1.17504 z m 1.96375,6.39023 h 3.44461 v -0.0966 c -0.193156,-0.0322 -0.289734,-0.22535 -0.418504,-0.48289 l -1.207223,-2.51102 c -0.434601,-0.8853 -0.837008,-1.36819 -1.287705,-1.60963 v -0.0483 c 0.949682,-0.16096 1.851076,-1.52915 1.851076,-2.83295 0,-1.72231 -1.271609,-3.68606 -3.943596,-3.68606 h -3.991884 v 0.0966 c 0.225348,0 0.257541,0.38631 0.257541,0.54728 v 9.97971 c 0,0.16096 -0.03219,0.54727 -0.257541,0.54727 v 0.0966 h 3.396321 v -0.0966 c -0.225349,0 -0.257541,-0.38631 -0.257541,-0.54727 v -3.39632 H 46.831 c 0.225349,0 0.418504,0.12877 0.579468,0.46679 l 1.48086,3.09049 c 0.04829,0.11267 0.09658,0.25754 0.112674,0.48289 z" />
      <path
         inkscape:connector-curvature="0"
         id="path1699"
         style="font-style:normal;font-variant:normal;font-weight:bold;font-stretch:normal;font-family:'Solpera Medium';-inkscape-font-specification:'Solpera Medium, ';fill:url(#linearGradient1942);fill-opacity:1.0;stroke-width:0.18047595px"
         d="m 56.542356,150.69924 c 0.144867,0.11267 0.321926,0.28973 0.563371,0.78872 l 2.237387,4.61964 c 0.112674,0.24144 0.193155,0.54727 0,0.54727 v 0.0966 h 3.830921 v -0.0966 c -0.225349,0 -0.515082,-0.38631 -0.595564,-0.54727 l -2.736372,-5.58542 c -0.03219,-0.0644 -0.09658,-0.16096 -0.144867,-0.20925 0.06439,-0.0644 0.128771,-0.14487 0.160963,-0.20926 l 2.366158,-3.97578 c 0.09658,-0.16097 0.370215,-0.54728 0.595563,-0.54728 v -0.0966 h -3.87921 v 0.0966 c 0.257541,0 0.209252,0.24145 0.04829,0.54728 z m 0.209252,6.05221 v -0.0966 c -0.225348,0 -0.257541,-0.38631 -0.257541,-0.54727 v -9.97971 c 0,-0.16097 0.03219,-0.54728 0.257541,-0.54728 v -0.0966 h -3.460706 v 0.0966 c 0.225348,0 0.257541,0.38631 0.257541,0.54728 v 9.97971 c 0,0.16096 -0.03219,0.54727 -0.257541,0.54727 v 0.0966 z" />
      <path
         inkscape:connector-curvature="0"
         id="path1701"
         style="font-style:normal;font-variant:normal;font-weight:bold;font-stretch:normal;font-family:'Solpera Medium';-inkscape-font-specification:'Solpera Medium, ';fill:url(#linearGradient1942);fill-opacity:1.0;stroke-width:0.18047595px"
         d="m 68.085676,153.96679 h -0.08048 c -0.193156,-1.15894 -0.563371,-2.36616 -0.901393,-3.4929 L 65.8,146.0796 c -0.06439,-0.24145 -0.03219,-0.49899 0.160963,-0.49899 v -0.0966 h -3.557284 v 0.0966 c 0.160963,0 0.321926,0.30583 0.386311,0.51508 l 3.090491,9.96362 c 0.06439,0.20925 0.09658,0.54727 -0.06439,0.59556 v 0.0966 h 4.410388 v -0.0966 c -0.160963,-0.0483 -0.12877,-0.38631 -0.06439,-0.59556 l 3.219262,-9.96362 c 0.09658,-0.30583 0.273637,-0.51508 0.386311,-0.51508 v -0.0966 h -3.605573 v 0.0966 c 0.193156,0 0.225349,0.25754 0.160963,0.49899 l -1.319897,4.41039 c -0.338022,1.11064 -0.708237,2.20519 -0.917489,3.4768 z" />
      <path
         inkscape:connector-curvature="0"
         id="path1703"
         style="font-style:normal;font-variant:normal;font-weight:bold;font-stretch:normal;font-family:'Solpera Medium';-inkscape-font-specification:'Solpera Medium, ';fill:url(#linearGradient1942);fill-opacity:1.0;stroke-width:0.18047595px"
         d="m 77.620471,154.30481 v -2.20519 h 2.752469 c 0.160963,0 0.386311,0.0322 0.386311,0.25754 h 0.09658 v -2.83295 h -0.09658 c 0,0.22535 -0.225348,0.25754 -0.386311,0.25754 h -2.752469 v -1.7706 h 2.752469 c 0.160963,0 0.386311,0.0322 0.386311,0.25755 h 0.09658 v -2.78467 h -6.438523 v 0.0966 c 0.225348,0 0.257541,0.38631 0.257541,0.54728 v 9.97971 c 0,0.16096 -0.03219,0.54727 -0.257541,0.54727 v 0.0966 h 6.438523 v -2.70418 h -0.09658 c 0,0.22535 -0.225348,0.25754 -0.386311,0.25754 z" />
      <path
         inkscape:connector-curvature="0"
         id="path1705"
         style="font-style:normal;font-variant:normal;font-weight:bold;font-stretch:normal;font-family:'Solpera Medium';-inkscape-font-specification:'Solpera Medium, ';fill:url(#linearGradient1942);fill-opacity:1.0;stroke-width:0.18047595px"
         d="m 85.511435,154.30481 v -8.17692 c 0,-0.16097 0.03219,-0.54728 0.257541,-0.54728 v -0.0966 H 82.30827 v 0.0966 c 0.225348,0 0.257541,0.38631 0.257541,0.54728 v 9.97971 c 0,0.16096 -0.03219,0.54727 -0.257541,0.54727 v 0.0966 h 6.438523 v -2.70418 h -0.09658 c 0,0.22535 -0.225348,0.25754 -0.386311,0.25754 z" />
      <path
         inkscape:connector-curvature="0"
         id="path1707"
         style="font-style:normal;font-variant:normal;font-weight:bold;font-stretch:normal;font-family:'Solpera Medium';-inkscape-font-specification:'Solpera Medium, ';fill:url(#linearGradient1942);fill-opacity:1.0;stroke-width:0.18047595px"
         d="m 89.381844,156.75145 h 3.13878 c 3.766536,0 6.438523,-2.06033 6.438523,-5.73029 0,-2.96172 -1.899364,-5.53713 -6.132693,-5.53713 h -3.44461 v 0.0966 c 0.225349,0 0.257541,0.38631 0.257541,0.54728 v 9.97971 c 0,0.16096 -0.03219,0.54727 -0.257541,0.54727 z m 3.605573,-2.59151 h -0.402408 v -6.14879 h 0.30583 c 2.26958,0 3.154877,1.43258 3.154877,3.10659 0,1.7384 -1.319898,3.0422 -3.058299,3.0422 z" />
    </g>
    <g
       transform="translate(30.468726,15.852743)"
       style="fill:#000000"
       id="g1718">
      <text
         id="text1712"
         y="155.44777"
         x="59.897259"
         style="font-style:normal;font-variant:normal;font-weight:normal;font-stretch:normal;font-size:16.28609657px;line-height:19.08526611px;font-family:sans-serif;-inkscape-font-specification:sans-serif;font-variant-ligatures:normal;font-variant-position:normal;font-variant-caps:normal;font-variant-numeric:normal;font-variant-alternates:normal;font-feature-settings:normal;text-indent:0;text-align:center;text-decoration:none;text-decoration-line:none;text-decoration-style:solid;text-decoration-color:#000000;letter-spacing:0px;word-spacing:0px;text-transform:none;writing-mode:lr-tb;direction:ltr;text-orientation:mixed;dominant-baseline:auto;baseline-shift:baseline;text-anchor:middle;white-space:normal;shape-padding:0;opacity:1;vector-effect:none;fill:#000000;fill-opacity:1;stroke:#ffffff;stroke-width:1.29999995;stroke-linecap:round;stroke-linejoin:round;stroke-miterlimit:4;stroke-dasharray:none;stroke-dashoffset:0;stroke-opacity:1"
         xml:space="preserve"
         transform="scale(0.98834661,1.0117908)"><tspan
           style="font-style:normal;font-variant:normal;font-weight:bold;font-stretch:normal;font-family:'Solpera Medium';-inkscape-font-specification:'Solpera Medium, ';fill:#000000;stroke:#ffffff;stroke-width:1.29999995;stroke-linecap:round;stroke-linejoin:round;stroke-miterlimit:4;stroke-dasharray:none"
           y="155.44777"
           x="59.897259"
           id="tspan1710"
           sodipodi:role="line">WERKVELD</tspan></text>
      <text
         xml:space="preserve"
         style="font-style:normal;font-variant:normal;font-weight:normal;font-stretch:normal;font-size:16.09630775px;line-height:18.86285782px;font-family:sans-serif;-inkscape-font-specification:sans-serif;font-variant-ligatures:normal;font-variant-position:normal;font-variant-caps:normal;font-variant-numeric:normal;font-variant-alternates:normal;font-feature-settings:normal;text-indent:0;text-align:center;text-decoration:none;text-decoration-line:none;text-decoration-style:solid;text-decoration-color:#000000;letter-spacing:0px;word-spacing:0px;text-transform:none;writing-mode:lr-tb;direction:ltr;text-orientation:mixed;dominant-baseline:auto;baseline-shift:baseline;text-anchor:middle;white-space:normal;shape-padding:0;opacity:1;vector-effect:none;fill:#000000;fill-opacity:1;stroke:none;stroke-width:0.26458332px;stroke-linecap:butt;stroke-linejoin:miter;stroke-miterlimit:4;stroke-dasharray:none;stroke-dashoffset:0;stroke-opacity:1"
         x="59.199253"
         y="156.75145"
         id="text1716"><tspan
           sodipodi:role="line"
           id="tspan1714"
           x="59.199253"
           y="156.75145"
           style="font-style:normal;font-variant:normal;font-weight:bold;font-stretch:normal;font-family:'Solpera Medium';-inkscape-font-specification:'Solpera Medium, ';fill:#000000;fill-opacity:1;stroke-width:0.26458332px">WERKVELD</tspan></text>
    </g>
    <text
       id="text1730"
       y="81.723969"
       x="83.166046"
       style="font-style:normal;font-variant:normal;font-weight:normal;font-stretch:normal;font-size:23.87592125px;line-height:27.97958946px;font-family:sans-serif;-inkscape-font-specification:sans-serif;font-variant-ligatures:normal;font-variant-position:normal;font-variant-caps:normal;font-variant-numeric:normal;font-variant-alternates:normal;font-feature-settings:normal;text-indent:0;text-align:center;text-decoration:none;text-decoration-line:none;text-decoration-style:solid;text-decoration-color:#000000;letter-spacing:0px;word-spacing:0px;text-transform:none;writing-mode:lr-tb;direction:ltr;text-orientation:mixed;dominant-baseline:auto;baseline-shift:baseline;text-anchor:middle;white-space:normal;shape-padding:0;opacity:1;vector-effect:none;fill:#ffffff;fill-opacity:1;stroke:#ffffff;stroke-width:1.29999995;stroke-linecap:round;stroke-linejoin:round;stroke-miterlimit:4;stroke-dasharray:none;stroke-dashoffset:0;stroke-opacity:1"
       xml:space="preserve"
       transform="scale(0.98854253,1.0115903)"
       inkscape:export-filename="/home/vit/ProjectG70/care-up/care-up/Assets/_Textures/walkToGroups_labels.png"
       inkscape:export-xdpi="96"
       inkscape:export-ydpi="96"><tspan
         style="font-style:normal;font-variant:normal;font-weight:bold;font-stretch:normal;font-family:'Solpera Medium';-inkscape-font-specification:'Solpera Medium, ';fill:#ffffff;stroke:#ffffff;stroke-width:1.29999995;stroke-linecap:round;stroke-linejoin:round;stroke-miterlimit:4;stroke-dasharray:none"
         y="81.723969"
         x="83.166046"
         id="tspan1728"
         sodipodi:role="line">CLIENT</tspan></text>
    <path
       style="font-style:normal;font-variant:normal;font-weight:normal;font-stretch:normal;font-size:23.59768486px;line-height:27.65353203px;font-family:sans-serif;-inkscape-font-specification:sans-serif;font-variant-ligatures:normal;font-variant-position:normal;font-variant-caps:normal;font-variant-numeric:normal;font-variant-alternates:normal;font-feature-settings:normal;text-indent:0;text-align:center;text-decoration:none;text-decoration-line:none;text-decoration-style:solid;text-decoration-color:#000000;letter-spacing:0px;word-spacing:0px;text-transform:none;writing-mode:lr-tb;direction:ltr;text-orientation:mixed;dominant-baseline:auto;baseline-shift:baseline;text-anchor:middle;white-space:normal;shape-padding:0;opacity:1;vector-effect:none;fill:url(#linearGradient1966);fill-opacity:1;stroke:none;stroke-width:0.99999994px;stroke-linecap:butt;stroke-linejoin:miter;stroke-miterlimit:4;stroke-dasharray:none;stroke-dashoffset:0;stroke-opacity:1"
       d="M 306.2832 223.8418 C 303.23692 223.8418 300.78516 226.29277 300.78516 229.33789 L 300.78516 236.13281 C 300.78516 239.17793 303.23692 241.63086 306.2832 241.63086 C 309.32949 241.63086 311.78125 239.17793 311.78125 236.13281 L 311.78125 229.33789 C 311.78125 226.29277 309.32949 223.8418 306.2832 223.8418 z M 323.82422 223.8418 C 320.77793 223.8418 318.32617 226.29277 318.32617 229.33789 L 318.32617 236.13281 C 318.32617 239.17793 320.77793 241.63086 323.82422 241.63086 C 326.8705 241.63086 329.32422 239.17793 329.32422 236.13281 L 329.32422 229.33789 C 329.32422 226.29277 326.8705 223.8418 323.82422 223.8418 z M 214.16016 245.76953 C 194.62409 245.76953 180.70898 259.9473 180.70898 278.31641 C 180.70898 297.57722 195.51595 310.86328 215.49805 310.86328 C 218.62025 310.86328 221.56346 310.59557 223.88281 310.06055 L 223.88281 294.01172 L 223.25977 294.01172 C 222.72453 295.43845 220.22603 296.33008 214.96289 296.33008 C 204.70423 296.33008 196.67578 288.75069 196.67578 278.49609 C 196.67578 267.79564 204.70494 260.03711 214.51758 260.03711 C 219.86992 260.03711 222.90294 261.46262 223.25977 262.97852 L 223.88281 262.97852 L 223.88281 246.39453 C 220.84982 245.94868 217.63918 245.76953 214.16016 245.76953 z M 230.24414 247.10742 L 230.24414 247.64258 C 231.49302 247.64258 231.67188 249.78212 231.67188 250.67383 L 231.67188 305.95898 C 231.67188 306.85069 231.49302 308.99219 230.24414 308.99219 L 230.24414 309.52734 L 265.92578 309.52734 L 265.92578 294.54492 L 265.39062 294.54492 C 265.39062 295.79331 264.14206 295.97266 263.25 295.97266 L 247.99609 295.97266 L 247.99609 250.67383 C 247.99609 249.78212 248.17495 247.64258 249.42383 247.64258 L 249.42383 247.10742 L 230.24414 247.10742 z M 269.44531 247.10742 L 269.44531 247.64258 C 270.69419 247.64258 270.87305 249.78212 270.87305 250.67383 L 270.87305 305.95898 C 270.87305 306.85069 270.69419 308.99219 269.44531 308.99219 L 269.44531 309.52734 L 288.625 309.52734 L 288.625 308.99219 C 287.37612 308.99219 287.19727 306.85069 287.19727 305.95898 L 287.19727 250.67383 C 287.19727 249.78212 287.37612 247.64258 288.625 247.64258 L 288.625 247.10742 L 269.44531 247.10742 z M 296.97461 247.10742 L 296.97461 247.64258 C 298.22349 247.64258 298.40039 249.78212 298.40039 250.67383 L 298.40039 305.95898 C 298.40039 306.85069 298.22349 308.99219 296.97461 308.99219 L 296.97461 309.52734 L 332.65625 309.52734 L 332.65625 294.54492 L 332.12109 294.54492 C 332.12109 295.79331 330.87253 295.97266 329.98047 295.97266 L 314.72656 295.97266 L 314.72656 283.75586 L 329.98047 283.75586 C 330.87253 283.75586 332.12109 283.93521 332.12109 285.18359 L 332.65625 285.18359 L 332.65625 269.48828 L 332.12109 269.48828 C 332.12109 270.73667 330.87253 270.91602 329.98047 270.91602 L 314.72656 270.91602 L 314.72656 261.10742 L 329.98047 261.10742 C 330.87253 261.10742 332.12109 261.28482 332.12109 262.5332 L 332.65625 262.5332 L 332.65625 247.10742 L 296.97461 247.10742 z M 340.70508 247.10742 L 340.70508 247.64258 C 341.95396 247.64258 342.13281 249.78212 342.13281 250.67383 L 342.13281 305.95898 C 342.13281 306.85069 341.95396 308.99219 340.70508 308.99219 L 340.70508 309.52734 L 359.34961 309.52734 L 359.34961 308.99219 C 358.10073 308.99219 357.92187 306.85069 357.92188 305.95898 L 357.92188 273.94727 C 357.92188 271.98552 357.92191 267.97306 357.6543 266.99219 L 358.10156 266.99219 C 358.726 268.95394 359.43922 270.47009 361.04492 273.23438 L 381.11523 307.29688 C 381.56126 308.09941 381.83008 308.81398 381.83008 309.52734 L 397.61914 309.52734 L 397.61914 250.67383 C 397.61914 249.78212 397.79799 247.64258 399.04688 247.64258 L 399.04688 247.10742 L 380.66992 247.10742 L 380.66992 247.64258 C 381.9188 247.64258 382.09766 249.78212 382.09766 250.67383 L 382.09766 275.73047 C 382.09766 277.87056 382.45372 283.04216 382.81055 285.00391 L 382.45312 285.00391 C 382.0963 283.2205 380.04595 277.33615 377.45898 272.9668 L 365.05859 251.56641 C 363.6313 249.06963 363.45241 248.08708 363.89844 247.46289 L 363.89844 247.10742 L 340.70508 247.10742 z M 403.42578 247.10742 L 403.42578 262.5332 L 403.96094 262.5332 C 403.96094 261.28482 405.2095 261.10742 406.10156 261.10742 L 414.75391 261.10742 L 414.75391 305.95898 C 414.75391 306.85069 414.57701 308.99219 413.32812 308.99219 L 413.32812 309.52734 L 432.50586 309.52734 L 432.50586 308.99219 C 431.25698 308.99219 431.08008 306.85069 431.08008 305.95898 L 431.08008 261.10742 L 439.73242 261.10742 C 440.62448 261.10742 441.87305 261.28482 441.87305 262.5332 L 442.4082 262.5332 L 442.4082 247.10742 L 403.42578 247.10742 z "
       id="text1734"
       transform="scale(0.26458333)"
       inkscape:export-filename="/home/vit/ProjectG70/care-up/care-up/Assets/_Textures/walkToGroups_labels.png"
       inkscape:export-xdpi="96"
       inkscape:export-ydpi="96" />
    <g
       id="g1775"
       transform="matrix(1.4663215,0,0,1.4657403,-4.394479,-69.833251)"
       style="stroke-width:0.68211389"
       inkscape:export-filename="/home/vit/ProjectG70/care-up/care-up/Assets/_Textures/walkToGroups_labels.png"
       inkscape:export-xdpi="96"
       inkscape:export-ydpi="96">
      <g
         transform="translate(0,-34.294908)"
         style="fill:#000000;stroke-width:0.68211389"
         id="g1753">
        <text
           id="text1747"
           y="155.44777"
           x="59.897259"
           style="font-style:normal;font-variant:normal;font-weight:normal;font-stretch:normal;font-size:16.28609657px;line-height:19.08526611px;font-family:sans-serif;-inkscape-font-specification:sans-serif;font-variant-ligatures:normal;font-variant-position:normal;font-variant-caps:normal;font-variant-numeric:normal;font-variant-alternates:normal;font-feature-settings:normal;text-indent:0;text-align:center;text-decoration:none;text-decoration-line:none;text-decoration-style:solid;text-decoration-color:#000000;letter-spacing:0px;word-spacing:0px;text-transform:none;writing-mode:lr-tb;direction:ltr;text-orientation:mixed;dominant-baseline:auto;baseline-shift:baseline;text-anchor:middle;white-space:normal;shape-padding:0;opacity:1;vector-effect:none;fill:#ffffff;fill-opacity:1;stroke:#ffffff;stroke-width:0.88674802;stroke-linecap:round;stroke-linejoin:round;stroke-miterlimit:4;stroke-dasharray:none;stroke-dashoffset:0;stroke-opacity:1"
           xml:space="preserve"
           transform="scale(0.98834661,1.0117908)"><tspan
             style="font-style:normal;font-variant:normal;font-weight:bold;font-stretch:normal;font-family:'Solpera Medium';-inkscape-font-specification:'Solpera Medium, ';fill:#ffffff;stroke:#ffffff;stroke-width:0.88674802;stroke-linecap:round;stroke-linejoin:round;stroke-miterlimit:4;stroke-dasharray:none"
             y="155.44777"
             x="59.897259"
             id="tspan1745"
             sodipodi:role="line">KRAAN</tspan></text>
        <text
           xml:space="preserve"
           style="font-style:normal;font-variant:normal;font-weight:normal;font-stretch:normal;font-size:16.09630775px;line-height:18.86285782px;font-family:sans-serif;-inkscape-font-specification:sans-serif;font-variant-ligatures:normal;font-variant-position:normal;font-variant-caps:normal;font-variant-numeric:normal;font-variant-alternates:normal;font-feature-settings:normal;text-indent:0;text-align:center;text-decoration:none;text-decoration-line:none;text-decoration-style:solid;text-decoration-color:#000000;letter-spacing:0px;word-spacing:0px;text-transform:none;writing-mode:lr-tb;direction:ltr;text-orientation:mixed;dominant-baseline:auto;baseline-shift:baseline;text-anchor:middle;white-space:normal;shape-padding:0;opacity:1;vector-effect:none;fill:url(#linearGradient1982);fill-opacity:1;stroke:none;stroke-width:0.18047595px;stroke-linecap:butt;stroke-linejoin:miter;stroke-miterlimit:4;stroke-dasharray:none;stroke-dashoffset:0;stroke-opacity:1"
           x="59.199253"
           y="156.75145"
           id="text1751"><tspan
             sodipodi:role="line"
             id="tspan1749"
             x="59.199253"
             y="156.75145"
             style="font-style:normal;font-variant:normal;font-weight:bold;font-stretch:normal;font-family:'Solpera Medium';-inkscape-font-specification:'Solpera Medium, ';fill:url(#linearGradient1982);fill-opacity:1;stroke-width:0.18047595px">KRAAN</tspan></text>
      </g>
    </g>
  </g>
</svg>
