<?xml version="1.0" encoding="UTF-8" standalone="no"?>
<!-- Created with Inkscape (http://www.inkscape.org/) -->

<svg
   width="210mm"
   height="297mm"
   viewBox="0 0 210 297"
   version="1.1"
   id="svg1"
   xml:space="preserve"
   inkscape:version="1.3 (0e150ed6c4, 2023-07-21)"
   sodipodi:docname="cleaning.svg"
   xmlns:inkscape="http://www.inkscape.org/namespaces/inkscape"
   xmlns:sodipodi="http://sodipodi.sourceforge.net/DTD/sodipodi-0.dtd"
   xmlns:xlink="http://www.w3.org/1999/xlink"
   xmlns="http://www.w3.org/2000/svg"
   xmlns:svg="http://www.w3.org/2000/svg"><sodipodi:namedview
     id="namedview1"
     pagecolor="#ffffff"
     bordercolor="#000000"
     borderopacity="0.25"
     inkscape:showpageshadow="2"
     inkscape:pageopacity="0.0"
     inkscape:pagecheckerboard="0"
     inkscape:deskcolor="#d1d1d1"
     inkscape:document-units="mm"
     inkscape:zoom="0.35856832"
     inkscape:cx="3515.3691"
     inkscape:cy="1487.8615"
     inkscape:window-width="1920"
     inkscape:window-height="1003"
     inkscape:window-x="0"
     inkscape:window-y="0"
     inkscape:window-maximized="1"
     inkscape:current-layer="layer1" /><defs
     id="defs1"><inkscape:path-effect
       effect="fillet_chamfer"
       id="path-effect6"
       is_visible="true"
       lpeversion="1"
       nodesatellites_param="F,0,0,1,0,0,0,1 @ F,0,1,1,0,11.624586,0,1 @ F,0,0,1,0,11.624586,0,1 @ F,0,0,1,0,0,0,1"
       radius="0"
       unit="px"
       method="auto"
       mode="F"
       chamfer_steps="1"
       flexible="false"
       use_knot_distance="true"
       apply_no_radius="true"
       apply_with_radius="true"
       only_selected="false"
       hide_knots="false" /><inkscape:path-effect
       effect="fillet_chamfer"
       id="path-effect5"
       is_visible="true"
       lpeversion="1"
       nodesatellites_param="F,0,0,1,0,0,0,1 @ F,0,0,1,0,10.57333,0,1 @ F,0,0,1,0,0,0,1"
       radius="0"
       unit="px"
       method="auto"
       mode="F"
       chamfer_steps="1"
       flexible="false"
       use_knot_distance="true"
       apply_no_radius="true"
       apply_with_radius="true"
       only_selected="false"
       hide_knots="false" /><linearGradient
       id="linearGradient48"
       inkscape:collect="always"><stop
         style="stop-color:#a5a5a5;stop-opacity:1;"
         offset="0"
         id="stop48" /><stop
         style="stop-color:#8d8d8d;stop-opacity:1;"
         offset="1"
         id="stop49" /></linearGradient><clipPath
       clipPathUnits="userSpaceOnUse"
       id="clipPath82"><rect
         style="fill:url(#linearGradient83);fill-opacity:1;stroke:#000000;stroke-width:1.975;stroke-linecap:round;stroke-linejoin:round;stroke-dasharray:none;stroke-dashoffset:0;paint-order:stroke fill markers"
         id="rect83"
         width="157.29903"
         height="114.95933"
         x="6.0171514"
         y="6.0203362"
         ry="14.290921" /></clipPath><linearGradient
       inkscape:collect="always"
       xlink:href="#linearGradient48"
       id="linearGradient83"
       gradientUnits="userSpaceOnUse"
       gradientTransform="matrix(1.0262262,0,0,1,-5.5607201,4.5890683)"
       x1="85.59433"
       y1="13.155862"
       x2="86.335396"
       y2="116.01875" /><inkscape:path-effect
       effect="fillet_chamfer"
       id="path-effect614"
       is_visible="true"
       lpeversion="1"
       nodesatellites_param="F,0,0,1,0,0.52916667,0,1 @ F,0,0,1,0,0.52916667,0,1 @ F,0,0,1,0,0.52916667,0,1 @ F,0,0,1,0,0.52916667,0,1 | F,0,0,1,0,0.52916667,0,1 @ F,0,0,1,0,0.52916667,0,1 @ F,0,0,1,0,0.52916667,0,1 @ F,0,0,1,0,0.52916667,0,1 | F,0,0,1,0,0.52916667,0,1 @ F,0,0,1,0,0.52916667,0,1 @ F,0,0,1,0,0.52916667,0,1 @ F,0,0,1,0,0.52916667,0,1"
       radius="2"
       unit="px"
       method="auto"
       mode="F"
       chamfer_steps="1"
       flexible="false"
       use_knot_distance="true"
       apply_no_radius="true"
       apply_with_radius="true"
       only_selected="false"
       hide_knots="false" /><filter
       style="color-interpolation-filters:sRGB"
       id="filter22"
       inkscape:label="filter1"
       x="-0.2876432"
       y="-0.024400591"
       width="1.5754801"
       height="1.049003"><feGaussianBlur
         stdDeviation="5 0"
         id="feGaussianBlur22" /></filter></defs><g
     inkscape:label="Layer 1"
     inkscape:groupmode="layer"
     id="layer1"><g
       id="g36"><rect
         style="opacity:1;fill:#5cbfd8;stroke:#ffffff;stroke-width:8.97500031;stroke-linecap:round;stroke-linejoin:round;stroke-dasharray:none;paint-order:stroke fill markers;fill-opacity:1"
         id="rect33"
         width="253.91379"
         height="63.478447"
         x="442.61823"
         y="117.10827"
         ry="18.948919" /><rect
         style="opacity:1;fill:none;stroke:#333d6d;stroke-width:1.67499988;stroke-linecap:round;stroke-linejoin:round;stroke-dasharray:none;paint-order:stroke fill markers;fill-opacity:1;stroke-opacity:1"
         id="rect34"
         width="253.91379"
         height="63.478447"
         x="442.61823"
         y="117.10827"
         ry="18.948919" /></g><g
       id="g34"
       transform="matrix(0.98134433,0,0,0.98134433,10.625805,2.6203076)"><path
         style="opacity:0.338565;mix-blend-mode:normal;fill:#f9f9f9;fill-opacity:1;stroke:#f9f9f9;stroke-width:4.22201;stroke-linecap:round;stroke-linejoin:round;stroke-dasharray:none;stroke-opacity:1;paint-order:stroke fill markers"
         d="m 536.73652,141.38256 21.62112,35.27575 4.86463,1.29662 19.12929,-10.28292 8.67688,-2.32488 13.05636,8.05865 c 0.44484,-13.04633 13.24672,-7.89843 8.85193,-17.09066 l -13.94896,-7.37949 -4.38381,-8.56887 -6.7692,-8.67419 -9.13688,-14.84531 -5.28053,-0.36565 -10.44266,5.64877 -24.46416,12.64329 z"
         id="path33"
         sodipodi:nodetypes="ccccccccccccccc" /><path
         id="path1"
         style="color:#000000;opacity:1;fill:#333d6d;fill-opacity:1;stroke:#ffffff;stroke-width:4.222;stroke-linecap:round;stroke-linejoin:round;stroke-dasharray:none;stroke-opacity:1;paint-order:stroke fill markers"
         d="m 573.31744,114.45383 c -0.74327,0.16678 -1.47325,0.44579 -2.16602,0.84321 l -10.01095,5.74233 c -0.17051,0.0979 -0.31997,0.22874 -0.43998,0.38451 -0.12007,0.15571 -0.20855,0.33353 -0.25985,0.52334 -0.10394,0.38311 -0.0514,0.79181 0.14605,1.13619 0.41137,0.71698 1.32629,0.96457 2.04321,0.55305 l 10.01158,-5.74345 c 2.30507,-1.32235 5.20229,-0.55944 6.55804,1.72611 l 7.80012,13.14895 -8.44128,-4.87333 c -1.42392,-0.82211 -2.89521,-1.05946 -4.165,-0.77301 -1.2698,0.28646 -2.2808,1.05372 -2.94728,1.97355 -0.38679,0.53383 -0.63381,1.1297 -0.79622,1.74803 l -3.4179,-1.97307 c -1.21048,-0.69888 -2.60257,-0.74584 -3.71951,-0.33738 -1.11693,0.40847 -1.99406,1.1894 -2.60902,2.11135 -0.37428,0.5611 -0.61139,1.19658 -0.75997,1.8598 -2.26285,-1.08678 -4.48986,0.15509 -5.66947,2.06814 -1.23294,1.99971 -1.32416,4.65977 0.8792,5.93188 l 0.18253,0.10539 c -0.60716,0.47975 -1.14999,1.03596 -1.51638,1.69804 -0.52755,0.95334 -0.79427,2.10878 -0.53467,3.28112 0.25959,1.17233 1.08537,2.26949 2.32401,2.98462 8.1e-4,5.9e-4 0.003,0.002 0.006,0.003 l 15.69023,8.98834 c -1.04248,0.0408 -1.85497,0.0578 -3.11094,0.1287 -2.91306,0.16447 -4.82204,2.22546 -5.16034,4.37446 -0.33831,2.149 0.60761,4.51636 2.78765,5.45334 1.49658,0.64321 4.6825,1.53004 8.89857,1.75557 l -10.28277,5.90067 c -2.58376,1.48282 -5.83709,0.6042 -7.32226,-1.97821 l -17.65874,-30.70403 c -1.46291,-2.54372 -0.5537,-5.74637 2.02737,-7.14233 l 9.78594,-5.29271 c 0.72677,-0.39323 0.99748,-1.30106 0.60447,-2.02795 -0.39323,-0.72677 -1.30107,-0.99749 -2.02795,-0.60447 l -9.78623,5.29277 c -1.32174,0.71484 -2.3665,1.74622 -3.09275,2.94964 -0.10376,0.17192 -0.20104,0.34734 -0.29168,0.52587 -1.20835,2.38029 -1.24094,5.30998 0.186,7.79115 l 1.06784,1.85625 c -2.91194,2.71974 -5.08691,5.92058 -7.01957,9.19464 -0.42037,0.71199 -0.18376,1.63002 0.52847,2.05 0.71188,0.42032 1.6297,0.18393 2.04978,-0.5281 1.74387,-2.95424 3.62053,-5.71219 5.97897,-8.04308 l 9.85708,17.13874 c -1.40991,1.2837 -2.93527,2.9863 -4.5667,5.83402 -0.41096,0.71729 -0.16251,1.63185 0.55489,2.04261 0.71688,0.41091 1.63117,0.16319 2.04233,-0.55355 1.30465,-2.27734 2.40997,-3.61268 3.49914,-4.66294 l 3.66664,6.37514 c 2.2911,3.98375 7.41927,5.37026 11.40509,3.08276 l 15.19173,-8.71822 c 0.0379,-0.0217 0.0691,-0.0502 0.10431,-0.0747 2.7253,-0.39632 5.60118,-1.16074 8.46647,-2.49355 l 12.48427,7.20804 c 0.71572,0.41296 1.63063,0.16762 2.04382,-0.54795 0.41372,-0.71569 0.16883,-1.6312 -0.54722,-2.04466 l -13.11687,-7.57302 c -0.4368,-0.25198 -0.9711,-0.26699 -1.42142,-0.04 -4.7976,2.41399 -9.75459,2.99111 -13.82657,2.82546 -4.07198,-0.16564 -7.32942,-1.12565 -8.30121,-1.54332 -0.70976,-0.30504 -1.16358,-1.2852 -1.01336,-2.23937 0.1502,-0.95418 0.6194,-1.75133 2.37321,-1.85035 2.40746,-0.13591 4.49198,-0.20805 5.96715,-0.2472 3.6192,0 4.95869,-1.73421 2.30488,-3.26638 l -19.52849,-11.1867 c -0.65451,-0.37788 -0.8252,-0.70967 -0.89834,-1.03998 -0.0731,-0.33032 -0.008,-0.75139 0.23136,-1.1843 0.70939,-1.2628 1.85225,-1.44798 3.0343,-0.75971 l 11.87435,6.8559 c 0.71572,0.41296 1.63063,0.16763 2.04383,-0.54795 0.41289,-0.71561 0.16779,-1.63032 -0.54758,-2.04361 l -12.97392,-7.49049 c -5.8e-4,-8.1e-4 -0.002,-0.002 -0.003,-0.003 l -2.71392,-1.56663 c -1.38585,-0.80012 -0.36596,-4.10369 2.45325,-2.47601 4.73756,2.86823 10.00948,5.81945 14.81649,8.59362 0.0563,0.0345 0.11494,0.0652 0.17291,0.0966 0.70237,0.34899 1.5642,0.0952 1.96122,-0.59366 0.41291,-0.71561 0.16773,-1.63062 -0.54766,-2.04391 l -12.61034,-7.28071 c -0.0538,-0.0743 -0.11422,-0.1436 -0.1807,-0.20684 -0.37447,-0.2162 -0.41755,-0.35359 -0.44033,-0.68249 -0.0228,-0.32889 0.11326,-0.84896 0.41604,-1.30288 0.30278,-0.45391 0.74861,-0.816 1.14729,-0.96181 0.39867,-0.14578 0.71504,-0.159 1.19496,0.11808 4.08104,2.41122 8.19234,4.77787 12.30121,7.15013 0.7156,0.41289 1.63061,0.16771 2.04391,-0.54766 0.4139,-0.71572 0.16907,-1.63149 -0.54673,-2.04511 l -4.74195,-2.73777 c -0.94605,-0.54619 -1.56228,-1.3106 -0.83866,-2.49759 0.28341,-0.46492 1.27331,-1.35713 3.10861,-0.29751 l 11.93691,6.89154 c 4.01584,2.31854 7.50221,8.30237 8.60013,12.45246 0.10193,0.38496 0.35328,0.71309 0.69815,0.91221 l 13.29155,7.67389 c 0.71564,0.41309 1.63063,0.16811 2.04399,-0.54738 0.41315,-0.71572 0.16793,-1.63094 -0.54774,-2.0442 l -12.8205,-7.40192 c -1.21901,-4.1327 -3.89589,-9.12148 -7.78878,-12.26348 -0.17382,-0.37263 -0.43844,-0.84888 -0.91919,-1.57584 l -9.78275,-16.49253 c -1.76571,-2.9766 -5.23538,-4.35998 -8.4562,-3.63723 z m -17.40795,9.53418 c -0.38513,0.1032 -0.73091,0.35357 -0.94604,0.72614 -0.43018,0.74517 -0.17491,1.69785 0.57023,2.1281 0.74517,0.43018 1.69815,0.17483 2.12839,-0.5703 0.43018,-0.74518 0.17492,-1.69786 -0.57022,-2.12811 -0.37259,-0.21508 -0.79723,-0.25903 -1.18236,-0.15583 z m -27.03824,36.36674 c -0.30725,0.0932 -0.58442,0.28485 -0.78169,0.55998 -0.0761,0.1063 -0.13828,0.22235 -0.18434,0.34473 -1.48411,3.94272 -2.21525,7.48961 -2.57354,10.79978 -0.0884,0.82139 0.50559,1.55909 1.32694,1.64801 0.82156,0.089 1.5596,-0.50466 1.64882,-1.32622 0.3363,-3.10691 1.00794,-6.37369 2.39838,-10.06754 0.29084,-0.7733 -0.10013,-1.63605 -0.87329,-1.92731 -0.31686,-0.11921 -0.65404,-0.12462 -0.96128,-0.0315 z m 12.27336,-0.002 c -0.37711,0.067 -0.72866,0.27789 -0.96525,0.61676 -0.5793,0.82903 -1.1351,1.68592 -1.66235,2.57455 -0.17576,0.2962 -0.34827,0.59596 -0.51752,0.89939 -2.03089,3.64105 -3.5787,7.81078 -4.3223,12.75508 -0.1227,0.81717 0.44004,1.57909 1.25716,1.70204 0.81702,0.12262 1.57903,-0.43991 1.70212,-1.25687 0.92019,-6.11841 3.11578,-10.8371 5.99642,-14.95954 0.47409,-0.67773 0.30853,-1.61156 -0.36967,-2.08497 -0.33884,-0.23663 -0.74149,-0.31345 -1.11861,-0.24644 z m 2.39674,16.15008 c -0.30612,0.14022 -0.56502,0.38337 -0.7216,0.70418 -0.043,0.0881 -0.0774,0.18031 -0.10234,0.2751 -0.39171,1.48763 -0.68846,3.16958 -0.47339,5.09598 0.0917,0.82114 0.83159,1.41287 1.65278,1.32152 0.82168,-0.0915 1.4134,-0.83211 1.32158,-1.65375 -0.16103,-1.44261 0.0469,-2.68434 0.39385,-4.00219 0.20983,-0.79903 -0.26752,-1.61693 -1.0664,-1.8273 -0.34519,-0.091 -0.69836,-0.0537 -1.00448,0.0865 z" /></g><g
       id="g35"
       transform="matrix(0.98134433,0,0,0.98134433,10.625805,93.836103)"
       inkscape:export-filename="../../vr-care-up/Assets/Resources/Sprites/cleaningIcon.png"
       inkscape:export-xdpi="96"
       inkscape:export-ydpi="96"><path
         style="opacity:0.338565;mix-blend-mode:normal;fill:#f9f9f9;fill-opacity:1;stroke:#f9f9f9;stroke-width:4.22201;stroke-linecap:round;stroke-linejoin:round;stroke-dasharray:none;stroke-opacity:1;paint-order:stroke fill markers"
         d="m 536.73652,141.38256 21.62112,35.27575 4.86463,1.29662 19.12929,-10.28292 8.67688,-2.32488 13.05636,8.05865 c 0.44484,-13.04633 13.24672,-7.89843 8.85193,-17.09066 l -13.94896,-7.37949 -4.38381,-8.56887 -6.7692,-8.67419 -9.13688,-14.84531 -5.28053,-0.36565 -10.44266,5.64877 -24.46416,12.64329 z"
         id="path34"
         sodipodi:nodetypes="ccccccccccccccc" /><path
         id="path35"
         style="color:#000000;opacity:1;fill:#333d6d;fill-opacity:1;stroke:#ffffff;stroke-width:4.222;stroke-linecap:round;stroke-linejoin:round;stroke-dasharray:none;stroke-opacity:1;paint-order:stroke fill markers"
         d="m 573.31744,114.45383 c -0.74327,0.16678 -1.47325,0.44579 -2.16602,0.84321 l -10.01095,5.74233 c -0.17051,0.0979 -0.31997,0.22874 -0.43998,0.38451 -0.12007,0.15571 -0.20855,0.33353 -0.25985,0.52334 -0.10394,0.38311 -0.0514,0.79181 0.14605,1.13619 0.41137,0.71698 1.32629,0.96457 2.04321,0.55305 l 10.01158,-5.74345 c 2.30507,-1.32235 5.20229,-0.55944 6.55804,1.72611 l 7.80012,13.14895 -8.44128,-4.87333 c -1.42392,-0.82211 -2.89521,-1.05946 -4.165,-0.77301 -1.2698,0.28646 -2.2808,1.05372 -2.94728,1.97355 -0.38679,0.53383 -0.63381,1.1297 -0.79622,1.74803 l -3.4179,-1.97307 c -1.21048,-0.69888 -2.60257,-0.74584 -3.71951,-0.33738 -1.11693,0.40847 -1.99406,1.1894 -2.60902,2.11135 -0.37428,0.5611 -0.61139,1.19658 -0.75997,1.8598 -2.26285,-1.08678 -4.48986,0.15509 -5.66947,2.06814 -1.23294,1.99971 -1.32416,4.65977 0.8792,5.93188 l 0.18253,0.10539 c -0.60716,0.47975 -1.14999,1.03596 -1.51638,1.69804 -0.52755,0.95334 -0.79427,2.10878 -0.53467,3.28112 0.25959,1.17233 1.08537,2.26949 2.32401,2.98462 8.1e-4,5.9e-4 0.003,0.002 0.006,0.003 l 15.69023,8.98834 c -1.04248,0.0408 -1.85497,0.0578 -3.11094,0.1287 -2.91306,0.16447 -4.82204,2.22546 -5.16034,4.37446 -0.33831,2.149 0.60761,4.51636 2.78765,5.45334 1.49658,0.64321 4.6825,1.53004 8.89857,1.75557 l -10.28277,5.90067 c -2.58376,1.48282 -5.83709,0.6042 -7.32226,-1.97821 l -17.65874,-30.70403 c -1.46291,-2.54372 -0.5537,-5.74637 2.02737,-7.14233 l 9.78594,-5.29271 c 0.72677,-0.39323 0.99748,-1.30106 0.60447,-2.02795 -0.39323,-0.72677 -1.30107,-0.99749 -2.02795,-0.60447 l -9.78623,5.29277 c -1.32174,0.71484 -2.3665,1.74622 -3.09275,2.94964 -0.10376,0.17192 -0.20104,0.34734 -0.29168,0.52587 -1.20835,2.38029 -1.24094,5.30998 0.186,7.79115 l 1.06784,1.85625 c -2.91194,2.71974 -5.08691,5.92058 -7.01957,9.19464 -0.42037,0.71199 -0.18376,1.63002 0.52847,2.05 0.71188,0.42032 1.6297,0.18393 2.04978,-0.5281 1.74387,-2.95424 3.62053,-5.71219 5.97897,-8.04308 l 9.85708,17.13874 c -1.40991,1.2837 -2.93527,2.9863 -4.5667,5.83402 -0.41096,0.71729 -0.16251,1.63185 0.55489,2.04261 0.71688,0.41091 1.63117,0.16319 2.04233,-0.55355 1.30465,-2.27734 2.40997,-3.61268 3.49914,-4.66294 l 3.66664,6.37514 c 2.2911,3.98375 7.41927,5.37026 11.40509,3.08276 l 15.19173,-8.71822 c 0.0379,-0.0217 0.0691,-0.0502 0.10431,-0.0747 2.7253,-0.39632 5.60118,-1.16074 8.46647,-2.49355 l 12.48427,7.20804 c 0.71572,0.41296 1.63063,0.16762 2.04382,-0.54795 0.41372,-0.71569 0.16883,-1.6312 -0.54722,-2.04466 l -13.11687,-7.57302 c -0.4368,-0.25198 -0.9711,-0.26699 -1.42142,-0.04 -4.7976,2.41399 -9.75459,2.99111 -13.82657,2.82546 -4.07198,-0.16564 -7.32942,-1.12565 -8.30121,-1.54332 -0.70976,-0.30504 -1.16358,-1.2852 -1.01336,-2.23937 0.1502,-0.95418 0.6194,-1.75133 2.37321,-1.85035 2.40746,-0.13591 4.49198,-0.20805 5.96715,-0.2472 3.6192,0 4.95869,-1.73421 2.30488,-3.26638 l -19.52849,-11.1867 c -0.65451,-0.37788 -0.8252,-0.70967 -0.89834,-1.03998 -0.0731,-0.33032 -0.008,-0.75139 0.23136,-1.1843 0.70939,-1.2628 1.85225,-1.44798 3.0343,-0.75971 l 11.87435,6.8559 c 0.71572,0.41296 1.63063,0.16763 2.04383,-0.54795 0.41289,-0.71561 0.16779,-1.63032 -0.54758,-2.04361 l -12.97392,-7.49049 c -5.8e-4,-8.1e-4 -0.002,-0.002 -0.003,-0.003 l -2.71392,-1.56663 c -1.38585,-0.80012 -0.36596,-4.10369 2.45325,-2.47601 4.73756,2.86823 10.00948,5.81945 14.81649,8.59362 0.0563,0.0345 0.11494,0.0652 0.17291,0.0966 0.70237,0.34899 1.5642,0.0952 1.96122,-0.59366 0.41291,-0.71561 0.16773,-1.63062 -0.54766,-2.04391 l -12.61034,-7.28071 c -0.0538,-0.0743 -0.11422,-0.1436 -0.1807,-0.20684 -0.37447,-0.2162 -0.41755,-0.35359 -0.44033,-0.68249 -0.0228,-0.32889 0.11326,-0.84896 0.41604,-1.30288 0.30278,-0.45391 0.74861,-0.816 1.14729,-0.96181 0.39867,-0.14578 0.71504,-0.159 1.19496,0.11808 4.08104,2.41122 8.19234,4.77787 12.30121,7.15013 0.7156,0.41289 1.63061,0.16771 2.04391,-0.54766 0.4139,-0.71572 0.16907,-1.63149 -0.54673,-2.04511 l -4.74195,-2.73777 c -0.94605,-0.54619 -1.56228,-1.3106 -0.83866,-2.49759 0.28341,-0.46492 1.27331,-1.35713 3.10861,-0.29751 l 11.93691,6.89154 c 4.01584,2.31854 7.50221,8.30237 8.60013,12.45246 0.10193,0.38496 0.35328,0.71309 0.69815,0.91221 l 13.29155,7.67389 c 0.71564,0.41309 1.63063,0.16811 2.04399,-0.54738 0.41315,-0.71572 0.16793,-1.63094 -0.54774,-2.0442 l -12.8205,-7.40192 c -1.21901,-4.1327 -3.89589,-9.12148 -7.78878,-12.26348 -0.17382,-0.37263 -0.43844,-0.84888 -0.91919,-1.57584 l -9.78275,-16.49253 c -1.76571,-2.9766 -5.23538,-4.35998 -8.4562,-3.63723 z m -17.40795,9.53418 c -0.38513,0.1032 -0.73091,0.35357 -0.94604,0.72614 -0.43018,0.74517 -0.17491,1.69785 0.57023,2.1281 0.74517,0.43018 1.69815,0.17483 2.12839,-0.5703 0.43018,-0.74518 0.17492,-1.69786 -0.57022,-2.12811 -0.37259,-0.21508 -0.79723,-0.25903 -1.18236,-0.15583 z m -27.03824,36.36674 c -0.30725,0.0932 -0.58442,0.28485 -0.78169,0.55998 -0.0761,0.1063 -0.13828,0.22235 -0.18434,0.34473 -1.48411,3.94272 -2.21525,7.48961 -2.57354,10.79978 -0.0884,0.82139 0.50559,1.55909 1.32694,1.64801 0.82156,0.089 1.5596,-0.50466 1.64882,-1.32622 0.3363,-3.10691 1.00794,-6.37369 2.39838,-10.06754 0.29084,-0.7733 -0.10013,-1.63605 -0.87329,-1.92731 -0.31686,-0.11921 -0.65404,-0.12462 -0.96128,-0.0315 z m 12.27336,-0.002 c -0.37711,0.067 -0.72866,0.27789 -0.96525,0.61676 -0.5793,0.82903 -1.1351,1.68592 -1.66235,2.57455 -0.17576,0.2962 -0.34827,0.59596 -0.51752,0.89939 -2.03089,3.64105 -3.5787,7.81078 -4.3223,12.75508 -0.1227,0.81717 0.44004,1.57909 1.25716,1.70204 0.81702,0.12262 1.57903,-0.43991 1.70212,-1.25687 0.92019,-6.11841 3.11578,-10.8371 5.99642,-14.95954 0.47409,-0.67773 0.30853,-1.61156 -0.36967,-2.08497 -0.33884,-0.23663 -0.74149,-0.31345 -1.11861,-0.24644 z m 2.39674,16.15008 c -0.30612,0.14022 -0.56502,0.38337 -0.7216,0.70418 -0.043,0.0881 -0.0774,0.18031 -0.10234,0.2751 -0.39171,1.48763 -0.68846,3.16958 -0.47339,5.09598 0.0917,0.82114 0.83159,1.41287 1.65278,1.32152 0.82168,-0.0915 1.4134,-0.83211 1.32158,-1.65375 -0.16103,-1.44261 0.0469,-2.68434 0.39385,-4.00219 0.20983,-0.79903 -0.26752,-1.61693 -1.0664,-1.8273 -0.34519,-0.091 -0.69836,-0.0537 -1.00448,0.0865 z" /></g><g
       id="g37"
       transform="translate(0,179.6506)"
       inkscape:export-filename="../../vr-care-up/Assets/Resources/Sprites/cleanProgress.png"
       inkscape:export-xdpi="96"
       inkscape:export-ydpi="96"><rect
         style="opacity:1;fill:#5cbfd8;fill-opacity:1;stroke:#ffffff;stroke-width:8.975;stroke-linecap:round;stroke-linejoin:round;stroke-dasharray:none;paint-order:stroke fill markers"
         id="rect36"
         width="253.91379"
         height="63.478447"
         x="442.61823"
         y="117.10827"
         ry="18.948919" /><rect
         style="opacity:1;fill:none;fill-opacity:1;stroke:#333d6d;stroke-width:1.675;stroke-linecap:round;stroke-linejoin:round;stroke-dasharray:none;stroke-opacity:1;paint-order:stroke fill markers"
         id="rect37"
         width="253.91379"
         height="63.478447"
         x="442.61823"
         y="117.10827"
         ry="18.948919" /></g><g
       id="g39"
       transform="translate(0,288.12134)"
       inkscape:export-filename="../../vr-care-up/Assets/Resources/Sprites/cleanProgressPanel.png"
       inkscape:export-xdpi="96"
       inkscape:export-ydpi="96"
       style="fill:#f9f9f9;stroke:#ffffff"><rect
         style="opacity:1;fill:#f9f9f9;fill-opacity:1;stroke:#ffffff;stroke-width:8.975;stroke-linecap:round;stroke-linejoin:round;stroke-dasharray:none;paint-order:stroke fill markers"
         id="rect38"
         width="253.91379"
         height="63.478447"
         x="442.61823"
         y="117.10827"
         ry="18.948919" /><rect
         style="opacity:1;fill:#f9f9f9;fill-opacity:1;stroke:#ffffff;stroke-width:1.675;stroke-linecap:round;stroke-linejoin:round;stroke-dasharray:none;stroke-opacity:1;paint-order:stroke fill markers"
         id="rect39"
         width="253.91379"
         height="63.478447"
         x="442.61823"
         y="117.10827"
         ry="18.948919" /></g><g
       id="g2"
       transform="translate(292.40856)"><rect
         style="opacity:1;fill:#5cbfd8;fill-opacity:1;stroke:#ffffff;stroke-width:8.975;stroke-linecap:round;stroke-linejoin:round;stroke-dasharray:none;paint-order:stroke fill markers"
         id="rect1"
         width="253.91379"
         height="63.478447"
         x="442.61823"
         y="117.10827"
         ry="18.948919" /><rect
         style="opacity:1;fill:none;fill-opacity:1;stroke:#333d6d;stroke-width:1.675;stroke-linecap:round;stroke-linejoin:round;stroke-dasharray:none;stroke-opacity:1;paint-order:stroke fill markers"
         id="rect2"
         width="253.91379"
         height="63.478447"
         x="442.61823"
         y="117.10827"
         ry="18.948919" /></g><g
       id="g18"
       transform="matrix(0.72238635,0.11248874,-0.11248874,0.72238635,255.09938,-153.22705)"><g
         id="g27"><path
           id="path26"
           style="color:#000000;fill:#333d6d;stroke-linecap:round;stroke-linejoin:round;paint-order:stroke fill markers;stroke:#ffffff;stroke-width:4.28263377;stroke-dasharray:none"
           d="M 931.95014 240.15292 A 2.2288599 2.2288599 0 0 0 930.68734 240.70295 A 2.2288599 2.2288599 0 0 0 930.49781 243.84999 L 939.5267 254.0371 C 937.91881 253.98171 936.32 253.94638 934.73431 253.93925 C 890.32281 253.73963 854.52726 272.55343 827.55065 307.85188 A 2.2290828 2.2290828 0 0 0 829.967 311.33783 C 874.54491 297.8424 915.07306 288.94451 955.08393 298.04912 A 2.2288599 2.2288599 0 0 0 957.75201 296.37104 A 2.2288599 2.2288599 0 0 0 956.07254 293.70318 C 917.03161 284.81929 877.85439 292.64093 835.82251 304.98644 C 862.38246 273.25175 896.41689 257.05615 939.14167 258.48292 L 929.07811 267.40029 A 2.2288599 2.2288599 0 0 0 928.88847 270.54664 A 2.2288599 2.2288599 0 0 0 932.03514 270.73838 L 947.85771 256.71506 L 933.83369 240.89259 A 2.2288599 2.2288599 0 0 0 931.95014 240.15292 z " /><g
           id="g19"
           transform="matrix(1.0767281,0.11967263,-0.11967263,1.0767281,-21.531372,-119.03874)"><path
             style="opacity:1;fill:#ffffff;fill-opacity:1;stroke:none;stroke-width:3.25901;stroke-linecap:round;stroke-linejoin:round;stroke-dasharray:none;paint-order:stroke fill markers"
             d="m 865.76925,295.39213 5.67619,7.72033 c 0,0 3.80013,2.23038 4.21203,2.2956 0.41191,0.0652 5.67145,0.3025 5.67145,0.3025 l 4.44905,-2.15688 8.17684,-7.27017 1.50241,-5.44685 1.42674,-16.88957 -2.93798,-2.08817 c 0,0 -2.17781,0.32049 -2.54738,0.51298 -0.3696,0.19245 -1.86365,2.78566 -1.86365,2.78566 l -1.40899,4.69337 -4.14091,-4.47461 -4.10684,0.66545 -4.75832,3.83109 z"
             id="path18" /><path
             style="opacity:1;fill:#ffffff;fill-opacity:1;stroke:none;stroke-width:3.25901;stroke-linecap:round;stroke-linejoin:round;stroke-dasharray:none;paint-order:stroke fill markers"
             d="m 858.75544,288.85935 -4.67508,7.51401 3.15849,3.12526 4.91165,1.33559 4.60681,-7.6259 -4.56199,-0.82005 z"
             id="path17" /><path
             style="opacity:1;fill:#ffffff;fill-opacity:1;stroke:none;stroke-width:3.25901;stroke-linecap:round;stroke-linejoin:round;stroke-dasharray:none;paint-order:stroke fill markers"
             d="m 855.48051,285.22406 7.80314,7.60375 2.83327,-0.35647 0.64566,-3.25279 -0.32732,-2.28438 2.03256,-0.48663 c 0,0 1.27365,-1.2166 1.46225,-1.52331 0.18859,-0.3067 0.87675,-1.78924 0.87675,-1.78924 l -0.20776,-2.98966 2.65248,-0.50107 1.76757,-2.61398 -0.62835,-2.72857 -0.43437,-0.6786 3.03739,-1.53895 1.13445,-2.8453 -1.2088,-2.87316 -2.68182,-3.00685 c 0,0 -3.19598,-1.81795 -3.6894,-1.91512 -0.49339,-0.0972 -1.96032,-0.0972 -1.96032,-0.0972 l -2.14651,3.04041 0.3729,2.53246 -4.25635,-0.92435 -2.03465,2.82636 1.2201,2.53527 0.4717,1.57178 -2.22242,0.47908 -1.99218,1.57843 0.35065,2.28264 0.86921,2.03932 0.32978,1.38116 -3.29182,1.42867 c 0,0 0.65704,-0.0855 0.13044,0.42396 -0.52657,0.50946 -0.90823,2.6823 -0.90823,2.6823 z"
             id="path16" /><path
             id="path557"
             style="fill:#333d6d;fill-opacity:1;stroke:#ffffff;stroke-width:3.259;stroke-dasharray:none;paint-order:stroke fill markers"
             d="m 892.65067,240.41419 c -0.45104,-0.18267 -0.92772,-0.31064 -1.42768,-0.35962 -0.35175,-0.0339 -0.71727,0.14901 -0.90027,0.45132 l -1.64027,2.7006 -1.01678,0.27005 a 0.23947975,0.23947975 0 0 0 -0.12102,0.0768 c -0.0437,0.0518 -0.0709,0.11514 -0.10258,0.17508 -0.11541,0.0273 -0.23541,0.0457 -0.33278,0.11344 a 0.23947975,0.23947975 0 0 0 -0.0655,0.0692 l -12.08384,19.02334 c -0.10711,-0.0248 -0.21686,-0.0248 -0.32557,-0.0116 l -1.39326,-1.44888 c -0.41127,-0.42775 -0.89395,-0.75142 -1.41245,-0.96825 -1.55422,-0.64991 -3.423,-0.34742 -4.69712,0.88771 a 0.42515228,0.42515228 0 0 0 -0.003,0.001 l -0.0448,0.0457 c -0.97305,0.9433 -1.38443,2.24904 -1.27633,3.51942 -1.5613,-0.64241 -3.41448,-0.37639 -4.69086,0.86095 -1.70357,1.65148 -1.82264,4.43196 -0.16465,6.15634 l 0.15815,0.16427 c -1.09327,0.008 -2.18728,0.408 -3.02396,1.2191 -1.70255,1.65048 -1.81306,4.42932 -0.15761,6.15107 l 0.62721,0.65398 c -0.92525,0.0158 -1.84665,0.31538 -2.57287,0.99445 l -0.40986,0.38149 c -1.62242,1.51708 -1.46711,4.04634 0.0457,5.56493 l 1.97605,1.98332 -4.0699,6.41238 a 0.23947975,0.23947975 0 0 0 -0.006,0.009 l -0.0108,0.0206 -0.002,0.004 -0.001,0.001 -2.42178,3.88381 c -0.13647,0.21916 -0.17853,0.49517 -0.11141,0.74446 a 0.23947975,0.23947975 0 0 0 0.0233,0.0537 c 0,0 0.0319,0.0612 0.0683,0.12958 0.0207,0.0389 0.0287,0.0564 0.0446,0.0888 -0.33682,0.85617 -0.43751,1.77719 -0.0329,2.61709 0.45995,0.95482 1.34985,1.69512 2.61216,2.45998 1.10649,0.67049 2.12145,1.13406 3.19043,1.08566 0.95274,-0.0431 1.75866,-0.63272 2.38006,-1.47571 0.0615,-0.006 0.13173,-0.0117 0.2199,-0.0162 0.12044,-0.006 0.22625,-0.0115 0.22625,-0.0115 a 0.23947975,0.23947975 0 0 0 0.0496,-0.006 c 0.23622,-0.0581 0.44631,-0.21181 0.57492,-0.4183 l 2.16406,-3.4921 c 0.0366,-0.024 0.0754,-0.0453 0.10838,-0.0742 a 0.23947975,0.23947975 0 0 0 0.0445,-0.0511 l 2.66374,-4.21386 c 2.79756,3.53067 4.39747,5.49574 5.55263,6.68194 1.20828,1.24074 1.99016,1.67974 3.1633,2.24342 3.31905,1.59479 7.54901,1.49911 10.79769,-0.24472 0.32904,-0.17664 0.9727,-0.64566 1.85461,-1.31159 0.88191,-0.66593 1.96558,-1.51272 3.04195,-2.3817 3.11141,-2.51195 4.71461,-3.77948 5.68325,-5.96064 0.96864,-2.18116 1.28434,-5.17703 1.96186,-11.19792 0.31953,-2.83955 0.54669,-5.10377 0.67885,-6.74347 0.0661,-0.81984 0.10767,-1.48391 0.12524,-1.98833 0.0176,-0.50441 0.0186,-0.82749 -0.029,-1.06591 -0.32624,-1.63358 -1.57332,-3.3335 -2.95569,-3.93862 -1.48824,-0.65158 -2.99934,-0.48792 -4.37804,0.46368 -1.46917,1.01411 -2.14716,2.36785 -2.56759,5.01962 l -0.19276,1.20796 -5.87653,-7.45346 0.88264,-1.39662 a 0.23947975,0.23947975 0 0 0 0.002,-0.001 c 0.21632,-0.3446 0.15285,-0.82005 -0.11556,-1.12359 l 11.79777,-18.99132 a 0.23947975,0.23947975 0 0 0 0.003,-0.005 c 0.13189,-0.22336 0.15921,-0.50072 0.0856,-0.74912 -10e-4,-0.02 -0.003,-0.04 -0.006,-0.0597 a 0.23947975,0.23947975 0 0 0 -0.0104,-0.0437 l -0.33687,-1.00814 1.61791,-2.77956 a 0.23947975,0.23947975 0 0 0 0.002,-9.6e-4 c 0.20243,-0.34802 0.14751,-0.82599 -0.1275,-1.12005 -0.56055,-0.60157 -1.24548,-1.25698 -2.0398,-1.79119 -0.39705,-0.26704 -0.82172,-0.50387 -1.2728,-0.68653 z m -0.15119,2.06805 c 0.12382,0.0637 0.24439,0.13462 0.36567,0.21585 0.42822,0.28671 0.81677,0.66372 1.20015,1.03768 l -1.34355,2.30605 c -0.28327,-0.23788 -0.43635,-0.39441 -0.99452,-0.76159 -0.72379,-0.476 -1.12366,-0.62429 -1.59876,-0.81298 l 1.40996,-2.32231 c 0.32198,0.0844 0.64515,0.17469 0.96105,0.3373 z m -3.43004,3.49016 c 0.46816,0.21039 1.03173,0.49797 1.62165,0.88592 1.07772,0.70894 1.6499,1.21402 1.9966,1.52043 l -4.0134,6.46111 c 0.0888,-0.18017 0.0449,-0.38147 -0.11477,-0.50289 a 0.23947975,0.23947975 0 0 0 -0.0104,-0.0168 l -2.45368,-1.68494 c -0.18019,-0.12363 -0.39342,-0.0735 -0.50922,0.10268 a 0.23947975,0.23947975 0 0 0 -0.003,0.002 l -2.39552,3.79854 -0.002,9.6e-4 a 0.23947975,0.23947975 0 0 0 -10e-4,0.001 c -0.12158,0.19207 -0.0739,0.42729 0.11128,0.55661 l 2.5065,1.75248 c 0.13308,0.0929 0.28061,0.0612 0.39761,-0.0277 l -1.84917,2.97594 0.41303,-0.66593 c 0.12025,-0.19372 0.0726,-0.42604 -0.11613,-0.55602 l -2.45321,-1.68473 c -0.18089,-0.12415 -0.40042,-0.0796 -0.51843,0.10408 a 0.23947975,0.23947975 0 0 0 -0.001,0.001 l -2.05205,3.19704 c -0.12158,0.18981 -0.0731,0.42234 0.10997,0.55087 l 2.50394,1.75186 9.7e-4,0.002 a 0.23947975,0.23947975 0 0 0 10e-4,0.002 c 0.17007,0.11969 0.37965,0.0729 0.49435,-0.0965 l -0.0105,0.0151 -0.0348,0.0413 a 0.23947975,0.23947975 0 0 0 0.024,-0.0207 l -1.28667,2.07018 c -1.43603,-1.10702 -3.07902,-2.08081 -4.72523,-2.79033 l 11.49344,-18.09699 c 0.22109,0.0826 0.48701,0.17568 0.87563,0.35034 z m 0.51968,0.80675 c -0.17942,-0.12308 -0.39467,-0.0756 -0.50744,0.10864 l -1.92661,3.14852 c -0.11843,0.19403 -0.0687,0.43051 0.11692,0.5604 l 2.5049,1.75346 c 0.17228,0.12089 0.3872,0.0798 0.49639,-0.10698 a 0.23947975,0.23947975 0 0 0 3.8e-4,-0.003 l 6.3e-4,-0.003 1.89149,-3.21121 c 0.11712,-0.19771 0.067,-0.43248 -0.12442,-0.56391 z m 4.62681,26.59156 c 0.59854,0.26186 1.02893,0.79669 1.30109,1.64196 0.20961,0.65049 0.12202,2.25598 -0.7498,9.58299 -0.46103,3.87446 -0.73979,6.10141 -0.97297,7.4942 -0.23317,1.39279 -0.41198,1.92665 -0.68632,2.48672 -0.34194,0.69819 -0.95953,1.66574 -1.30512,2.06325 -0.14421,0.16593 -0.75614,0.72165 -1.55563,1.39575 -0.79949,0.6741 -1.80793,1.49506 -2.83003,2.29723 -1.99418,1.56525 -3.13934,2.42821 -4.04459,2.94314 -0.90525,0.51491 -1.57563,0.69619 -2.71652,0.91859 -0.65716,0.12815 -1.76742,0.0996 -2.85623,-0.0548 -1.0888,-0.15437 -2.17486,-0.43676 -2.79831,-0.74843 -0.96396,-0.48181 -1.66306,-0.94247 -2.5412,-1.799 -0.87815,-0.85651 -1.92951,-2.11276 -3.53713,-4.14827 -0.98026,-1.24128 -1.6569,-2.13319 -2.17951,-2.87302 l 8.46341,-13.38878 c 2.52469,-1.96449 3.96575,-3.04481 4.89828,-3.55325 1.00318,-0.54696 1.43239,-0.51276 2.39919,-0.40699 1.48906,0.16296 2.31353,0.64061 3.35018,1.9469 l 0.62003,0.78014 -0.69854,0.2936 c -0.73227,0.30917 -1.80934,1.00659 -2.83546,1.8119 -1.87293,1.46894 -2.73793,2.66765 -3.27296,4.55559 -0.54862,1.93594 0.0105,4.57965 1.32699,6.54021 l 0.44774,0.66918 a 0.33320397,0.33320397 0 0 0 0.46531,0.0885 l 0.76176,-0.52478 0.7634,-0.52458 a 0.33320397,0.33320397 0 0 0 0.0949,-0.44744 l -0.52616,-0.86113 c -1.15404,-1.88279 -1.19602,-4.18374 -0.1479,-5.8023 0.45287,-0.69932 1.39493,-1.54702 2.45682,-2.24611 1.0619,-0.6991 2.25102,-1.25889 3.16352,-1.44876 0.34645,-0.0721 0.64464,-0.1452 0.91441,-0.31343 0.26978,-0.16824 0.48366,-0.43186 0.63902,-0.78774 0.3107,-0.71175 0.47866,-1.82898 0.77893,-3.92308 0.23199,-1.61777 0.5559,-2.65576 0.97988,-3.21432 0.424,-0.55857 0.91644,-0.71718 1.77455,-0.61579 0.23727,0.0281 0.45542,0.0849 0.65493,0.17218 z m -23.3043,-10.70439 c 0.23309,0.0985 0.44948,0.24536 0.63822,0.4417 l 4.95748,5.15445 c 0.75388,0.78404 0.72457,2.02372 -0.0766,2.80038 a 0.42515228,0.42515228 0 0 0 -0.007,0.007 l -0.0447,0.0441 c -0.80082,0.77432 -2.02999,0.75831 -2.78334,-0.0252 l -4.95726,-5.15492 c -0.75387,-0.78406 -0.72456,-2.02375 0.0766,-2.80038 a 0.42515228,0.42515228 0 0 0 0.007,-0.007 l 0.0417,-0.0427 8.8e-4,-0.002 c 0.60035,-0.58108 1.44721,-0.71133 2.147,-0.4156 z m 7.16063,3.83098 c 1.08359,0.64053 2.14139,1.35904 2.90992,2.00713 l -4.89409,7.74395 c -0.11905,-0.80856 -0.46491,-1.58941 -1.04552,-2.23613 1.07498,-0.0128 2.14745,-0.41035 2.97127,-1.20898 l -0.006,0.008 0.0495,-0.0459 a 0.42515228,0.42515228 0 0 0 0.006,-0.008 c 1.69889,-1.64696 1.78138,-4.41671 0.13481,-6.12922 z m 2.56984,6.08732 c 0.43925,0.56486 0.89728,1.15297 1.19397,1.53928 0.0982,0.1278 0.14985,0.19838 0.22775,0.30074 -0.48362,-0.0459 -1.12087,0.0395 -1.82439,0.19352 -0.36284,0.0794 -0.72458,0.17434 -1.05975,0.28016 z m -15.71631,-5.51641 c 0.23464,0.0975 0.45098,0.24171 0.63832,0.4366 l 7.71367,8.02319 c 0.75112,0.7812 0.71473,2.03518 -0.1054,2.83023 -0.8202,0.79512 -2.06508,0.78786 -2.81605,0.007 l -7.71343,-8.02249 c -0.7511,-0.78121 -0.71473,-2.03521 0.1054,-2.83024 0.61523,-0.59641 1.47543,-0.73571 2.17749,-0.44411 z m -3.03702,7.54518 c 0.23328,0.0973 0.45083,0.24404 0.6391,0.43983 l 6.62842,6.89495 c 0.75193,0.78203 0.71833,2.03223 -0.0975,2.8231 -0.81595,0.79101 -2.05635,0.78157 -2.80814,-3.2e-4 l -6.63117,-6.89395 c -0.75167,-0.78176 -0.71688,-2.03399 0.0988,-2.82476 0.61182,-0.59311 1.46894,-0.73135 2.17044,-0.43885 z m 11.14853,6.46302 -1.0993,1.73968 c -0.0708,-0.53826 -0.23717,-1.06787 -0.50369,-1.55826 0.53926,0.0375 1.08264,-0.026 1.60299,-0.18142 z m -13.63989,1.54727 10e-4,6.6e-4 c 0.20676,0.0944 0.40646,0.23085 0.58042,0.40549 l 5.48233,5.50194 c 0.6967,0.69937 0.71062,1.68181 0.10425,2.2488 l -0.40962,0.38218 c -0.60651,0.56712 -1.65896,0.51677 -2.35575,-0.18269 l -5.48145,-5.50382 c -0.69701,-0.69969 -0.71191,-1.68046 -0.10538,-2.24762 l 0.41028,-0.38357 c 0.45472,-0.4252 1.15008,-0.50398 1.77351,-0.22137 z m 9.59689,4.85034 -0.82753,1.30944 c -0.10717,-0.38044 -0.2665,-0.75067 -0.47849,-1.09561 0.44175,-0.005 0.88201,-0.0787 1.30602,-0.21383 z m -1.83491,-0.57326 0.0319,0.0343 -0.003,0.007 c -0.0119,-0.0122 -0.0165,-0.0292 -0.0286,-0.0413 z m -8.19604,3.56263 2.13642,2.14406 c 1.02687,1.0308 2.53734,1.46989 3.9093,1.17253 l -3.67456,5.81466 c -0.8956,0.0555 -2.31181,-0.34249 -3.54668,-1.10364 -1.21182,-0.74698 -2.11499,-1.78841 -2.39356,-2.41006 z m -4.63032,7.31741 c 0.61878,0.86615 1.41757,1.67478 2.46432,2.31994 1.07653,0.66358 2.24563,1.03237 3.40051,1.20123 l -1.23016,1.98366 c -0.43148,0.0827 -2.00281,0.30494 -3.76648,-0.97435 -1.10619,-0.80247 -1.71839,-1.51266 -2.04891,-1.99464 -0.17971,-0.26202 -0.16389,-0.27631 -0.18564,-0.34435 z" /></g></g></g><g
       id="g33"
       transform="matrix(0.72238635,0.11248874,-0.11248874,0.72238635,255.09938,-51.278049)"
       inkscape:export-filename="../../vr-care-up/Assets/Resources/Sprites/swerveIcon.png"
       inkscape:export-xdpi="96"
       inkscape:export-ydpi="96"><g
         id="g32"><path
           id="path27"
           style="color:#000000;fill:#333d6d;stroke:#ffffff;stroke-width:4.28263;stroke-linecap:round;stroke-linejoin:round;stroke-dasharray:none;paint-order:stroke fill markers"
           d="m 931.95014,240.15292 a 2.2288599,2.2288599 0 0 0 -1.2628,0.55003 2.2288599,2.2288599 0 0 0 -0.18953,3.14704 l 9.02889,10.18711 c -1.60789,-0.0554 -3.2067,-0.0907 -4.79239,-0.0979 -44.4115,-0.19962 -80.20705,18.61418 -107.18366,53.91263 a 2.2290828,2.2290828 0 0 0 2.41635,3.48595 c 44.57791,-13.49543 85.10606,-22.39332 125.11693,-13.28871 a 2.2288599,2.2288599 0 0 0 2.66808,-1.67808 2.2288599,2.2288599 0 0 0 -1.67947,-2.66786 c -39.04093,-8.88389 -78.21815,-1.06225 -120.25003,11.28326 26.55995,-31.73469 60.59438,-47.93029 103.31916,-46.50352 l -10.06356,8.91737 a 2.2288599,2.2288599 0 0 0 -0.18964,3.14635 2.2288599,2.2288599 0 0 0 3.14667,0.19174 l 15.82257,-14.02332 -14.02402,-15.82247 a 2.2288599,2.2288599 0 0 0 -1.88355,-0.73967 z" /><g
           id="g31"
           transform="matrix(1.0767281,0.11967263,-0.11967263,1.0767281,-21.531372,-119.03874)"><path
             style="opacity:1;fill:#ffffff;fill-opacity:1;stroke:none;stroke-width:3.25901;stroke-linecap:round;stroke-linejoin:round;stroke-dasharray:none;paint-order:stroke fill markers"
             d="m 865.76925,295.39213 5.67619,7.72033 c 0,0 3.80013,2.23038 4.21203,2.2956 0.41191,0.0652 5.67145,0.3025 5.67145,0.3025 l 4.44905,-2.15688 8.17684,-7.27017 1.50241,-5.44685 1.42674,-16.88957 -2.93798,-2.08817 c 0,0 -2.17781,0.32049 -2.54738,0.51298 -0.3696,0.19245 -1.86365,2.78566 -1.86365,2.78566 l -1.40899,4.69337 -4.14091,-4.47461 -4.10684,0.66545 -4.75832,3.83109 z"
             id="path28" /><path
             style="opacity:1;fill:#ffffff;fill-opacity:1;stroke:none;stroke-width:3.25901;stroke-linecap:round;stroke-linejoin:round;stroke-dasharray:none;paint-order:stroke fill markers"
             d="m 858.75544,288.85935 -4.67508,7.51401 3.15849,3.12526 4.91165,1.33559 4.60681,-7.6259 -4.56199,-0.82005 z"
             id="path29" /><path
             style="opacity:1;fill:#ffffff;fill-opacity:1;stroke:none;stroke-width:3.25901;stroke-linecap:round;stroke-linejoin:round;stroke-dasharray:none;paint-order:stroke fill markers"
             d="m 855.48051,285.22406 7.80314,7.60375 2.83327,-0.35647 0.64566,-3.25279 -0.32732,-2.28438 2.03256,-0.48663 c 0,0 1.27365,-1.2166 1.46225,-1.52331 0.18859,-0.3067 0.87675,-1.78924 0.87675,-1.78924 l -0.20776,-2.98966 2.65248,-0.50107 1.76757,-2.61398 -0.62835,-2.72857 -0.43437,-0.6786 3.03739,-1.53895 1.13445,-2.8453 -1.2088,-2.87316 -2.68182,-3.00685 c 0,0 -3.19598,-1.81795 -3.6894,-1.91512 -0.49339,-0.0972 -1.96032,-0.0972 -1.96032,-0.0972 l -2.14651,3.04041 0.3729,2.53246 -4.25635,-0.92435 -2.03465,2.82636 1.2201,2.53527 0.4717,1.57178 -2.22242,0.47908 -1.99218,1.57843 0.35065,2.28264 0.86921,2.03932 0.32978,1.38116 -3.29182,1.42867 c 0,0 0.65704,-0.0855 0.13044,0.42396 -0.52657,0.50946 -0.90823,2.6823 -0.90823,2.6823 z"
             id="path30" /><path
             id="path31"
             style="fill:#333d6d;fill-opacity:1;stroke:#ffffff;stroke-width:3.259;stroke-dasharray:none;paint-order:stroke fill markers"
             d="m 892.65067,240.41419 c -0.45104,-0.18267 -0.92772,-0.31064 -1.42768,-0.35962 -0.35175,-0.0339 -0.71727,0.14901 -0.90027,0.45132 l -1.64027,2.7006 -1.01678,0.27005 a 0.23947975,0.23947975 0 0 0 -0.12102,0.0768 c -0.0437,0.0518 -0.0709,0.11514 -0.10258,0.17508 -0.11541,0.0273 -0.23541,0.0457 -0.33278,0.11344 a 0.23947975,0.23947975 0 0 0 -0.0655,0.0692 l -12.08384,19.02334 c -0.10711,-0.0248 -0.21686,-0.0248 -0.32557,-0.0116 l -1.39326,-1.44888 c -0.41127,-0.42775 -0.89395,-0.75142 -1.41245,-0.96825 -1.55422,-0.64991 -3.423,-0.34742 -4.69712,0.88771 a 0.42515228,0.42515228 0 0 0 -0.003,0.001 l -0.0448,0.0457 c -0.97305,0.9433 -1.38443,2.24904 -1.27633,3.51942 -1.5613,-0.64241 -3.41448,-0.37639 -4.69086,0.86095 -1.70357,1.65148 -1.82264,4.43196 -0.16465,6.15634 l 0.15815,0.16427 c -1.09327,0.008 -2.18728,0.408 -3.02396,1.2191 -1.70255,1.65048 -1.81306,4.42932 -0.15761,6.15107 l 0.62721,0.65398 c -0.92525,0.0158 -1.84665,0.31538 -2.57287,0.99445 l -0.40986,0.38149 c -1.62242,1.51708 -1.46711,4.04634 0.0457,5.56493 l 1.97605,1.98332 -4.0699,6.41238 a 0.23947975,0.23947975 0 0 0 -0.006,0.009 l -0.0108,0.0206 -0.002,0.004 -0.001,0.001 -2.42178,3.88381 c -0.13647,0.21916 -0.17853,0.49517 -0.11141,0.74446 a 0.23947975,0.23947975 0 0 0 0.0233,0.0537 c 0,0 0.0319,0.0612 0.0683,0.12958 0.0207,0.0389 0.0287,0.0564 0.0446,0.0888 -0.33682,0.85617 -0.43751,1.77719 -0.0329,2.61709 0.45995,0.95482 1.34985,1.69512 2.61216,2.45998 1.10649,0.67049 2.12145,1.13406 3.19043,1.08566 0.95274,-0.0431 1.75866,-0.63272 2.38006,-1.47571 0.0615,-0.006 0.13173,-0.0117 0.2199,-0.0162 0.12044,-0.006 0.22625,-0.0115 0.22625,-0.0115 a 0.23947975,0.23947975 0 0 0 0.0496,-0.006 c 0.23622,-0.0581 0.44631,-0.21181 0.57492,-0.4183 l 2.16406,-3.4921 c 0.0366,-0.024 0.0754,-0.0453 0.10838,-0.0742 a 0.23947975,0.23947975 0 0 0 0.0445,-0.0511 l 2.66374,-4.21386 c 2.79756,3.53067 4.39747,5.49574 5.55263,6.68194 1.20828,1.24074 1.99016,1.67974 3.1633,2.24342 3.31905,1.59479 7.54901,1.49911 10.79769,-0.24472 0.32904,-0.17664 0.9727,-0.64566 1.85461,-1.31159 0.88191,-0.66593 1.96558,-1.51272 3.04195,-2.3817 3.11141,-2.51195 4.71461,-3.77948 5.68325,-5.96064 0.96864,-2.18116 1.28434,-5.17703 1.96186,-11.19792 0.31953,-2.83955 0.54669,-5.10377 0.67885,-6.74347 0.0661,-0.81984 0.10767,-1.48391 0.12524,-1.98833 0.0176,-0.50441 0.0186,-0.82749 -0.029,-1.06591 -0.32624,-1.63358 -1.57332,-3.3335 -2.95569,-3.93862 -1.48824,-0.65158 -2.99934,-0.48792 -4.37804,0.46368 -1.46917,1.01411 -2.14716,2.36785 -2.56759,5.01962 l -0.19276,1.20796 -5.87653,-7.45346 0.88264,-1.39662 a 0.23947975,0.23947975 0 0 0 0.002,-0.001 c 0.21632,-0.3446 0.15285,-0.82005 -0.11556,-1.12359 l 11.79777,-18.99132 a 0.23947975,0.23947975 0 0 0 0.003,-0.005 c 0.13189,-0.22336 0.15921,-0.50072 0.0856,-0.74912 -10e-4,-0.02 -0.003,-0.04 -0.006,-0.0597 a 0.23947975,0.23947975 0 0 0 -0.0104,-0.0437 l -0.33687,-1.00814 1.61791,-2.77956 a 0.23947975,0.23947975 0 0 0 0.002,-9.6e-4 c 0.20243,-0.34802 0.14751,-0.82599 -0.1275,-1.12005 -0.56055,-0.60157 -1.24548,-1.25698 -2.0398,-1.79119 -0.39705,-0.26704 -0.82172,-0.50387 -1.2728,-0.68653 z m -0.15119,2.06805 c 0.12382,0.0637 0.24439,0.13462 0.36567,0.21585 0.42822,0.28671 0.81677,0.66372 1.20015,1.03768 l -1.34355,2.30605 c -0.28327,-0.23788 -0.43635,-0.39441 -0.99452,-0.76159 -0.72379,-0.476 -1.12366,-0.62429 -1.59876,-0.81298 l 1.40996,-2.32231 c 0.32198,0.0844 0.64515,0.17469 0.96105,0.3373 z m -3.43004,3.49016 c 0.46816,0.21039 1.03173,0.49797 1.62165,0.88592 1.07772,0.70894 1.6499,1.21402 1.9966,1.52043 l -4.0134,6.46111 c 0.0888,-0.18017 0.0449,-0.38147 -0.11477,-0.50289 a 0.23947975,0.23947975 0 0 0 -0.0104,-0.0168 l -2.45368,-1.68494 c -0.18019,-0.12363 -0.39342,-0.0735 -0.50922,0.10268 a 0.23947975,0.23947975 0 0 0 -0.003,0.002 l -2.39552,3.79854 -0.002,9.6e-4 a 0.23947975,0.23947975 0 0 0 -10e-4,0.001 c -0.12158,0.19207 -0.0739,0.42729 0.11128,0.55661 l 2.5065,1.75248 c 0.13308,0.0929 0.28061,0.0612 0.39761,-0.0277 l -1.84917,2.97594 0.41303,-0.66593 c 0.12025,-0.19372 0.0726,-0.42604 -0.11613,-0.55602 l -2.45321,-1.68473 c -0.18089,-0.12415 -0.40042,-0.0796 -0.51843,0.10408 a 0.23947975,0.23947975 0 0 0 -0.001,0.001 l -2.05205,3.19704 c -0.12158,0.18981 -0.0731,0.42234 0.10997,0.55087 l 2.50394,1.75186 9.7e-4,0.002 a 0.23947975,0.23947975 0 0 0 10e-4,0.002 c 0.17007,0.11969 0.37965,0.0729 0.49435,-0.0965 l -0.0105,0.0151 -0.0348,0.0413 a 0.23947975,0.23947975 0 0 0 0.024,-0.0207 l -1.28667,2.07018 c -1.43603,-1.10702 -3.07902,-2.08081 -4.72523,-2.79033 l 11.49344,-18.09699 c 0.22109,0.0826 0.48701,0.17568 0.87563,0.35034 z m 0.51968,0.80675 c -0.17942,-0.12308 -0.39467,-0.0756 -0.50744,0.10864 l -1.92661,3.14852 c -0.11843,0.19403 -0.0687,0.43051 0.11692,0.5604 l 2.5049,1.75346 c 0.17228,0.12089 0.3872,0.0798 0.49639,-0.10698 a 0.23947975,0.23947975 0 0 0 3.8e-4,-0.003 l 6.3e-4,-0.003 1.89149,-3.21121 c 0.11712,-0.19771 0.067,-0.43248 -0.12442,-0.56391 z m 4.62681,26.59156 c 0.59854,0.26186 1.02893,0.79669 1.30109,1.64196 0.20961,0.65049 0.12202,2.25598 -0.7498,9.58299 -0.46103,3.87446 -0.73979,6.10141 -0.97297,7.4942 -0.23317,1.39279 -0.41198,1.92665 -0.68632,2.48672 -0.34194,0.69819 -0.95953,1.66574 -1.30512,2.06325 -0.14421,0.16593 -0.75614,0.72165 -1.55563,1.39575 -0.79949,0.6741 -1.80793,1.49506 -2.83003,2.29723 -1.99418,1.56525 -3.13934,2.42821 -4.04459,2.94314 -0.90525,0.51491 -1.57563,0.69619 -2.71652,0.91859 -0.65716,0.12815 -1.76742,0.0996 -2.85623,-0.0548 -1.0888,-0.15437 -2.17486,-0.43676 -2.79831,-0.74843 -0.96396,-0.48181 -1.66306,-0.94247 -2.5412,-1.799 -0.87815,-0.85651 -1.92951,-2.11276 -3.53713,-4.14827 -0.98026,-1.24128 -1.6569,-2.13319 -2.17951,-2.87302 l 8.46341,-13.38878 c 2.52469,-1.96449 3.96575,-3.04481 4.89828,-3.55325 1.00318,-0.54696 1.43239,-0.51276 2.39919,-0.40699 1.48906,0.16296 2.31353,0.64061 3.35018,1.9469 l 0.62003,0.78014 -0.69854,0.2936 c -0.73227,0.30917 -1.80934,1.00659 -2.83546,1.8119 -1.87293,1.46894 -2.73793,2.66765 -3.27296,4.55559 -0.54862,1.93594 0.0105,4.57965 1.32699,6.54021 l 0.44774,0.66918 a 0.33320397,0.33320397 0 0 0 0.46531,0.0885 l 0.76176,-0.52478 0.7634,-0.52458 a 0.33320397,0.33320397 0 0 0 0.0949,-0.44744 l -0.52616,-0.86113 c -1.15404,-1.88279 -1.19602,-4.18374 -0.1479,-5.8023 0.45287,-0.69932 1.39493,-1.54702 2.45682,-2.24611 1.0619,-0.6991 2.25102,-1.25889 3.16352,-1.44876 0.34645,-0.0721 0.64464,-0.1452 0.91441,-0.31343 0.26978,-0.16824 0.48366,-0.43186 0.63902,-0.78774 0.3107,-0.71175 0.47866,-1.82898 0.77893,-3.92308 0.23199,-1.61777 0.5559,-2.65576 0.97988,-3.21432 0.424,-0.55857 0.91644,-0.71718 1.77455,-0.61579 0.23727,0.0281 0.45542,0.0849 0.65493,0.17218 z m -23.3043,-10.70439 c 0.23309,0.0985 0.44948,0.24536 0.63822,0.4417 l 4.95748,5.15445 c 0.75388,0.78404 0.72457,2.02372 -0.0766,2.80038 a 0.42515228,0.42515228 0 0 0 -0.007,0.007 l -0.0447,0.0441 c -0.80082,0.77432 -2.02999,0.75831 -2.78334,-0.0252 l -4.95726,-5.15492 c -0.75387,-0.78406 -0.72456,-2.02375 0.0766,-2.80038 a 0.42515228,0.42515228 0 0 0 0.007,-0.007 l 0.0417,-0.0427 8.8e-4,-0.002 c 0.60035,-0.58108 1.44721,-0.71133 2.147,-0.4156 z m 7.16063,3.83098 c 1.08359,0.64053 2.14139,1.35904 2.90992,2.00713 l -4.89409,7.74395 c -0.11905,-0.80856 -0.46491,-1.58941 -1.04552,-2.23613 1.07498,-0.0128 2.14745,-0.41035 2.97127,-1.20898 l -0.006,0.008 0.0495,-0.0459 a 0.42515228,0.42515228 0 0 0 0.006,-0.008 c 1.69889,-1.64696 1.78138,-4.41671 0.13481,-6.12922 z m 2.56984,6.08732 c 0.43925,0.56486 0.89728,1.15297 1.19397,1.53928 0.0982,0.1278 0.14985,0.19838 0.22775,0.30074 -0.48362,-0.0459 -1.12087,0.0395 -1.82439,0.19352 -0.36284,0.0794 -0.72458,0.17434 -1.05975,0.28016 z m -15.71631,-5.51641 c 0.23464,0.0975 0.45098,0.24171 0.63832,0.4366 l 7.71367,8.02319 c 0.75112,0.7812 0.71473,2.03518 -0.1054,2.83023 -0.8202,0.79512 -2.06508,0.78786 -2.81605,0.007 l -7.71343,-8.02249 c -0.7511,-0.78121 -0.71473,-2.03521 0.1054,-2.83024 0.61523,-0.59641 1.47543,-0.73571 2.17749,-0.44411 z m -3.03702,7.54518 c 0.23328,0.0973 0.45083,0.24404 0.6391,0.43983 l 6.62842,6.89495 c 0.75193,0.78203 0.71833,2.03223 -0.0975,2.8231 -0.81595,0.79101 -2.05635,0.78157 -2.80814,-3.2e-4 l -6.63117,-6.89395 c -0.75167,-0.78176 -0.71688,-2.03399 0.0988,-2.82476 0.61182,-0.59311 1.46894,-0.73135 2.17044,-0.43885 z m 11.14853,6.46302 -1.0993,1.73968 c -0.0708,-0.53826 -0.23717,-1.06787 -0.50369,-1.55826 0.53926,0.0375 1.08264,-0.026 1.60299,-0.18142 z m -13.63989,1.54727 10e-4,6.6e-4 c 0.20676,0.0944 0.40646,0.23085 0.58042,0.40549 l 5.48233,5.50194 c 0.6967,0.69937 0.71062,1.68181 0.10425,2.2488 l -0.40962,0.38218 c -0.60651,0.56712 -1.65896,0.51677 -2.35575,-0.18269 l -5.48145,-5.50382 c -0.69701,-0.69969 -0.71191,-1.68046 -0.10538,-2.24762 l 0.41028,-0.38357 c 0.45472,-0.4252 1.15008,-0.50398 1.77351,-0.22137 z m 9.59689,4.85034 -0.82753,1.30944 c -0.10717,-0.38044 -0.2665,-0.75067 -0.47849,-1.09561 0.44175,-0.005 0.88201,-0.0787 1.30602,-0.21383 z m -1.83491,-0.57326 0.0319,0.0343 -0.003,0.007 c -0.0119,-0.0122 -0.0165,-0.0292 -0.0286,-0.0413 z m -8.19604,3.56263 2.13642,2.14406 c 1.02687,1.0308 2.53734,1.46989 3.9093,1.17253 l -3.67456,5.81466 c -0.8956,0.0555 -2.31181,-0.34249 -3.54668,-1.10364 -1.21182,-0.74698 -2.11499,-1.78841 -2.39356,-2.41006 z m -4.63032,7.31741 c 0.61878,0.86615 1.41757,1.67478 2.46432,2.31994 1.07653,0.66358 2.24563,1.03237 3.40051,1.20123 l -1.23016,1.98366 c -0.43148,0.0827 -2.00281,0.30494 -3.76648,-0.97435 -1.10619,-0.80247 -1.71839,-1.51266 -2.04891,-1.99464 -0.17971,-0.26202 -0.16389,-0.27631 -0.18564,-0.34435 z" /></g></g></g><g
       id="path37"
       inkscape:export-filename="../../vr-care-up/Assets/Resources_moved/Sprites/swArrow.png"
       inkscape:export-xdpi="96"
       inkscape:export-ydpi="96"><path
         id="path41"
         style="color:#000000;fill:#333d6d;stroke-linecap:round;stroke-linejoin:round;paint-order:stroke fill markers;fill-opacity:1;stroke:#ffffff;stroke-width:6.09999906;stroke-dasharray:none"
         d="M 1096.5584 384.95686 C 1093.6891 384.93086 1090.8234 385.09975 1087.9904 385.46071 A 2.8155 2.8155 0 0 0 1085.5549 388.60935 A 2.8155 2.8155 0 0 0 1088.7031 391.04693 C 1108.277 388.55295 1129.2477 395.9565 1141.1402 414.72559 L 1123.3025 409.76 A 2.8155 2.8155 0 0 0 1119.836 411.71699 A 2.8155 2.8155 0 0 0 1121.793 415.18344 L 1147.5196 422.34786 L 1154.6835 396.62127 A 2.8155 2.8155 0 0 0 1152.7265 393.1543 A 2.8155 2.8155 0 0 0 1149.258 395.11128 L 1145.0128 410.35738 C 1133.5369 393.32116 1114.9607 385.12375 1096.5584 384.95686 z " /></g></g></svg>
