<?xml version="1.0" encoding="UTF-8" standalone="no"?>
<!-- Created with Inkscape (http://www.inkscape.org/) -->

<svg
   width="210mm"
   height="297mm"
   viewBox="0 0 210 297"
   version="1.1"
   id="svg1"
   xml:space="preserve"
   inkscape:version="1.3 (0e150ed6c4, 2023-07-21)"
   sodipodi:docname="cleaning.svg"
   xmlns:inkscape="http://www.inkscape.org/namespaces/inkscape"
   xmlns:sodipodi="http://sodipodi.sourceforge.net/DTD/sodipodi-0.dtd"
   xmlns="http://www.w3.org/2000/svg"
   xmlns:svg="http://www.w3.org/2000/svg"><sodipodi:namedview
     id="namedview1"
     pagecolor="#ffffff"
     bordercolor="#000000"
     borderopacity="0.25"
     inkscape:showpageshadow="2"
     inkscape:pageopacity="0.0"
     inkscape:pagecheckerboard="0"
     inkscape:deskcolor="#d1d1d1"
     inkscape:document-units="mm"
     inkscape:zoom="0.71713664"
     inkscape:cx="2216.4535"
     inkscape:cy="1609.8745"
     inkscape:window-width="1920"
     inkscape:window-height="1003"
     inkscape:window-x="0"
     inkscape:window-y="0"
     inkscape:window-maximized="1"
     inkscape:current-layer="layer1" /><defs
     id="defs1"><inkscape:path-effect
       effect="fillet_chamfer"
       id="path-effect6"
       is_visible="true"
       lpeversion="1"
       nodesatellites_param="F,0,0,1,0,0,0,1 @ F,0,1,1,0,11.624586,0,1 @ F,0,0,1,0,11.624586,0,1 @ F,0,0,1,0,0,0,1"
       radius="0"
       unit="px"
       method="auto"
       mode="F"
       chamfer_steps="1"
       flexible="false"
       use_knot_distance="true"
       apply_no_radius="true"
       apply_with_radius="true"
       only_selected="false"
       hide_knots="false" /><inkscape:path-effect
       effect="fillet_chamfer"
       id="path-effect5"
       is_visible="true"
       lpeversion="1"
       nodesatellites_param="F,0,0,1,0,0,0,1 @ F,0,0,1,0,10.57333,0,1 @ F,0,0,1,0,0,0,1"
       radius="0"
       unit="px"
       method="auto"
       mode="F"
       chamfer_steps="1"
       flexible="false"
       use_knot_distance="true"
       apply_no_radius="true"
       apply_with_radius="true"
       only_selected="false"
       hide_knots="false" /></defs><g
     inkscape:label="Layer 1"
     inkscape:groupmode="layer"
     id="layer1"><g
       id="g36"><rect
         style="opacity:1;fill:#5cbfd8;stroke:#ffffff;stroke-width:8.97500031;stroke-linecap:round;stroke-linejoin:round;stroke-dasharray:none;paint-order:stroke fill markers;fill-opacity:1"
         id="rect33"
         width="253.91379"
         height="63.478447"
         x="442.61823"
         y="117.10827"
         ry="18.948919" /><rect
         style="opacity:1;fill:none;stroke:#333d6d;stroke-width:1.67499988;stroke-linecap:round;stroke-linejoin:round;stroke-dasharray:none;paint-order:stroke fill markers;fill-opacity:1;stroke-opacity:1"
         id="rect34"
         width="253.91379"
         height="63.478447"
         x="442.61823"
         y="117.10827"
         ry="18.948919" /></g><g
       id="g34"
       transform="matrix(0.98134433,0,0,0.98134433,10.625805,2.6203076)"><path
         style="opacity:0.338565;mix-blend-mode:normal;fill:#f9f9f9;fill-opacity:1;stroke:#f9f9f9;stroke-width:4.22201;stroke-linecap:round;stroke-linejoin:round;stroke-dasharray:none;stroke-opacity:1;paint-order:stroke fill markers"
         d="m 536.73652,141.38256 21.62112,35.27575 4.86463,1.29662 19.12929,-10.28292 8.67688,-2.32488 13.05636,8.05865 c 0.44484,-13.04633 13.24672,-7.89843 8.85193,-17.09066 l -13.94896,-7.37949 -4.38381,-8.56887 -6.7692,-8.67419 -9.13688,-14.84531 -5.28053,-0.36565 -10.44266,5.64877 -24.46416,12.64329 z"
         id="path33"
         sodipodi:nodetypes="ccccccccccccccc" /><path
         id="path1"
         style="color:#000000;opacity:1;fill:#333d6d;fill-opacity:1;stroke:#ffffff;stroke-width:4.222;stroke-linecap:round;stroke-linejoin:round;stroke-dasharray:none;stroke-opacity:1;paint-order:stroke fill markers"
         d="m 573.31744,114.45383 c -0.74327,0.16678 -1.47325,0.44579 -2.16602,0.84321 l -10.01095,5.74233 c -0.17051,0.0979 -0.31997,0.22874 -0.43998,0.38451 -0.12007,0.15571 -0.20855,0.33353 -0.25985,0.52334 -0.10394,0.38311 -0.0514,0.79181 0.14605,1.13619 0.41137,0.71698 1.32629,0.96457 2.04321,0.55305 l 10.01158,-5.74345 c 2.30507,-1.32235 5.20229,-0.55944 6.55804,1.72611 l 7.80012,13.14895 -8.44128,-4.87333 c -1.42392,-0.82211 -2.89521,-1.05946 -4.165,-0.77301 -1.2698,0.28646 -2.2808,1.05372 -2.94728,1.97355 -0.38679,0.53383 -0.63381,1.1297 -0.79622,1.74803 l -3.4179,-1.97307 c -1.21048,-0.69888 -2.60257,-0.74584 -3.71951,-0.33738 -1.11693,0.40847 -1.99406,1.1894 -2.60902,2.11135 -0.37428,0.5611 -0.61139,1.19658 -0.75997,1.8598 -2.26285,-1.08678 -4.48986,0.15509 -5.66947,2.06814 -1.23294,1.99971 -1.32416,4.65977 0.8792,5.93188 l 0.18253,0.10539 c -0.60716,0.47975 -1.14999,1.03596 -1.51638,1.69804 -0.52755,0.95334 -0.79427,2.10878 -0.53467,3.28112 0.25959,1.17233 1.08537,2.26949 2.32401,2.98462 8.1e-4,5.9e-4 0.003,0.002 0.006,0.003 l 15.69023,8.98834 c -1.04248,0.0408 -1.85497,0.0578 -3.11094,0.1287 -2.91306,0.16447 -4.82204,2.22546 -5.16034,4.37446 -0.33831,2.149 0.60761,4.51636 2.78765,5.45334 1.49658,0.64321 4.6825,1.53004 8.89857,1.75557 l -10.28277,5.90067 c -2.58376,1.48282 -5.83709,0.6042 -7.32226,-1.97821 l -17.65874,-30.70403 c -1.46291,-2.54372 -0.5537,-5.74637 2.02737,-7.14233 l 9.78594,-5.29271 c 0.72677,-0.39323 0.99748,-1.30106 0.60447,-2.02795 -0.39323,-0.72677 -1.30107,-0.99749 -2.02795,-0.60447 l -9.78623,5.29277 c -1.32174,0.71484 -2.3665,1.74622 -3.09275,2.94964 -0.10376,0.17192 -0.20104,0.34734 -0.29168,0.52587 -1.20835,2.38029 -1.24094,5.30998 0.186,7.79115 l 1.06784,1.85625 c -2.91194,2.71974 -5.08691,5.92058 -7.01957,9.19464 -0.42037,0.71199 -0.18376,1.63002 0.52847,2.05 0.71188,0.42032 1.6297,0.18393 2.04978,-0.5281 1.74387,-2.95424 3.62053,-5.71219 5.97897,-8.04308 l 9.85708,17.13874 c -1.40991,1.2837 -2.93527,2.9863 -4.5667,5.83402 -0.41096,0.71729 -0.16251,1.63185 0.55489,2.04261 0.71688,0.41091 1.63117,0.16319 2.04233,-0.55355 1.30465,-2.27734 2.40997,-3.61268 3.49914,-4.66294 l 3.66664,6.37514 c 2.2911,3.98375 7.41927,5.37026 11.40509,3.08276 l 15.19173,-8.71822 c 0.0379,-0.0217 0.0691,-0.0502 0.10431,-0.0747 2.7253,-0.39632 5.60118,-1.16074 8.46647,-2.49355 l 12.48427,7.20804 c 0.71572,0.41296 1.63063,0.16762 2.04382,-0.54795 0.41372,-0.71569 0.16883,-1.6312 -0.54722,-2.04466 l -13.11687,-7.57302 c -0.4368,-0.25198 -0.9711,-0.26699 -1.42142,-0.04 -4.7976,2.41399 -9.75459,2.99111 -13.82657,2.82546 -4.07198,-0.16564 -7.32942,-1.12565 -8.30121,-1.54332 -0.70976,-0.30504 -1.16358,-1.2852 -1.01336,-2.23937 0.1502,-0.95418 0.6194,-1.75133 2.37321,-1.85035 2.40746,-0.13591 4.49198,-0.20805 5.96715,-0.2472 3.6192,0 4.95869,-1.73421 2.30488,-3.26638 l -19.52849,-11.1867 c -0.65451,-0.37788 -0.8252,-0.70967 -0.89834,-1.03998 -0.0731,-0.33032 -0.008,-0.75139 0.23136,-1.1843 0.70939,-1.2628 1.85225,-1.44798 3.0343,-0.75971 l 11.87435,6.8559 c 0.71572,0.41296 1.63063,0.16763 2.04383,-0.54795 0.41289,-0.71561 0.16779,-1.63032 -0.54758,-2.04361 l -12.97392,-7.49049 c -5.8e-4,-8.1e-4 -0.002,-0.002 -0.003,-0.003 l -2.71392,-1.56663 c -1.38585,-0.80012 -0.36596,-4.10369 2.45325,-2.47601 4.73756,2.86823 10.00948,5.81945 14.81649,8.59362 0.0563,0.0345 0.11494,0.0652 0.17291,0.0966 0.70237,0.34899 1.5642,0.0952 1.96122,-0.59366 0.41291,-0.71561 0.16773,-1.63062 -0.54766,-2.04391 l -12.61034,-7.28071 c -0.0538,-0.0743 -0.11422,-0.1436 -0.1807,-0.20684 -0.37447,-0.2162 -0.41755,-0.35359 -0.44033,-0.68249 -0.0228,-0.32889 0.11326,-0.84896 0.41604,-1.30288 0.30278,-0.45391 0.74861,-0.816 1.14729,-0.96181 0.39867,-0.14578 0.71504,-0.159 1.19496,0.11808 4.08104,2.41122 8.19234,4.77787 12.30121,7.15013 0.7156,0.41289 1.63061,0.16771 2.04391,-0.54766 0.4139,-0.71572 0.16907,-1.63149 -0.54673,-2.04511 l -4.74195,-2.73777 c -0.94605,-0.54619 -1.56228,-1.3106 -0.83866,-2.49759 0.28341,-0.46492 1.27331,-1.35713 3.10861,-0.29751 l 11.93691,6.89154 c 4.01584,2.31854 7.50221,8.30237 8.60013,12.45246 0.10193,0.38496 0.35328,0.71309 0.69815,0.91221 l 13.29155,7.67389 c 0.71564,0.41309 1.63063,0.16811 2.04399,-0.54738 0.41315,-0.71572 0.16793,-1.63094 -0.54774,-2.0442 l -12.8205,-7.40192 c -1.21901,-4.1327 -3.89589,-9.12148 -7.78878,-12.26348 -0.17382,-0.37263 -0.43844,-0.84888 -0.91919,-1.57584 l -9.78275,-16.49253 c -1.76571,-2.9766 -5.23538,-4.35998 -8.4562,-3.63723 z m -17.40795,9.53418 c -0.38513,0.1032 -0.73091,0.35357 -0.94604,0.72614 -0.43018,0.74517 -0.17491,1.69785 0.57023,2.1281 0.74517,0.43018 1.69815,0.17483 2.12839,-0.5703 0.43018,-0.74518 0.17492,-1.69786 -0.57022,-2.12811 -0.37259,-0.21508 -0.79723,-0.25903 -1.18236,-0.15583 z m -27.03824,36.36674 c -0.30725,0.0932 -0.58442,0.28485 -0.78169,0.55998 -0.0761,0.1063 -0.13828,0.22235 -0.18434,0.34473 -1.48411,3.94272 -2.21525,7.48961 -2.57354,10.79978 -0.0884,0.82139 0.50559,1.55909 1.32694,1.64801 0.82156,0.089 1.5596,-0.50466 1.64882,-1.32622 0.3363,-3.10691 1.00794,-6.37369 2.39838,-10.06754 0.29084,-0.7733 -0.10013,-1.63605 -0.87329,-1.92731 -0.31686,-0.11921 -0.65404,-0.12462 -0.96128,-0.0315 z m 12.27336,-0.002 c -0.37711,0.067 -0.72866,0.27789 -0.96525,0.61676 -0.5793,0.82903 -1.1351,1.68592 -1.66235,2.57455 -0.17576,0.2962 -0.34827,0.59596 -0.51752,0.89939 -2.03089,3.64105 -3.5787,7.81078 -4.3223,12.75508 -0.1227,0.81717 0.44004,1.57909 1.25716,1.70204 0.81702,0.12262 1.57903,-0.43991 1.70212,-1.25687 0.92019,-6.11841 3.11578,-10.8371 5.99642,-14.95954 0.47409,-0.67773 0.30853,-1.61156 -0.36967,-2.08497 -0.33884,-0.23663 -0.74149,-0.31345 -1.11861,-0.24644 z m 2.39674,16.15008 c -0.30612,0.14022 -0.56502,0.38337 -0.7216,0.70418 -0.043,0.0881 -0.0774,0.18031 -0.10234,0.2751 -0.39171,1.48763 -0.68846,3.16958 -0.47339,5.09598 0.0917,0.82114 0.83159,1.41287 1.65278,1.32152 0.82168,-0.0915 1.4134,-0.83211 1.32158,-1.65375 -0.16103,-1.44261 0.0469,-2.68434 0.39385,-4.00219 0.20983,-0.79903 -0.26752,-1.61693 -1.0664,-1.8273 -0.34519,-0.091 -0.69836,-0.0537 -1.00448,0.0865 z" /></g><g
       id="g35"
       transform="matrix(0.98134433,0,0,0.98134433,10.625805,93.836103)"
       inkscape:export-filename="../../vr-care-up/Assets/Resources/Sprites/cleaningIcon.png"
       inkscape:export-xdpi="96"
       inkscape:export-ydpi="96"><path
         style="opacity:0.338565;mix-blend-mode:normal;fill:#f9f9f9;fill-opacity:1;stroke:#f9f9f9;stroke-width:4.22201;stroke-linecap:round;stroke-linejoin:round;stroke-dasharray:none;stroke-opacity:1;paint-order:stroke fill markers"
         d="m 536.73652,141.38256 21.62112,35.27575 4.86463,1.29662 19.12929,-10.28292 8.67688,-2.32488 13.05636,8.05865 c 0.44484,-13.04633 13.24672,-7.89843 8.85193,-17.09066 l -13.94896,-7.37949 -4.38381,-8.56887 -6.7692,-8.67419 -9.13688,-14.84531 -5.28053,-0.36565 -10.44266,5.64877 -24.46416,12.64329 z"
         id="path34"
         sodipodi:nodetypes="ccccccccccccccc" /><path
         id="path35"
         style="color:#000000;opacity:1;fill:#333d6d;fill-opacity:1;stroke:#ffffff;stroke-width:4.222;stroke-linecap:round;stroke-linejoin:round;stroke-dasharray:none;stroke-opacity:1;paint-order:stroke fill markers"
         d="m 573.31744,114.45383 c -0.74327,0.16678 -1.47325,0.44579 -2.16602,0.84321 l -10.01095,5.74233 c -0.17051,0.0979 -0.31997,0.22874 -0.43998,0.38451 -0.12007,0.15571 -0.20855,0.33353 -0.25985,0.52334 -0.10394,0.38311 -0.0514,0.79181 0.14605,1.13619 0.41137,0.71698 1.32629,0.96457 2.04321,0.55305 l 10.01158,-5.74345 c 2.30507,-1.32235 5.20229,-0.55944 6.55804,1.72611 l 7.80012,13.14895 -8.44128,-4.87333 c -1.42392,-0.82211 -2.89521,-1.05946 -4.165,-0.77301 -1.2698,0.28646 -2.2808,1.05372 -2.94728,1.97355 -0.38679,0.53383 -0.63381,1.1297 -0.79622,1.74803 l -3.4179,-1.97307 c -1.21048,-0.69888 -2.60257,-0.74584 -3.71951,-0.33738 -1.11693,0.40847 -1.99406,1.1894 -2.60902,2.11135 -0.37428,0.5611 -0.61139,1.19658 -0.75997,1.8598 -2.26285,-1.08678 -4.48986,0.15509 -5.66947,2.06814 -1.23294,1.99971 -1.32416,4.65977 0.8792,5.93188 l 0.18253,0.10539 c -0.60716,0.47975 -1.14999,1.03596 -1.51638,1.69804 -0.52755,0.95334 -0.79427,2.10878 -0.53467,3.28112 0.25959,1.17233 1.08537,2.26949 2.32401,2.98462 8.1e-4,5.9e-4 0.003,0.002 0.006,0.003 l 15.69023,8.98834 c -1.04248,0.0408 -1.85497,0.0578 -3.11094,0.1287 -2.91306,0.16447 -4.82204,2.22546 -5.16034,4.37446 -0.33831,2.149 0.60761,4.51636 2.78765,5.45334 1.49658,0.64321 4.6825,1.53004 8.89857,1.75557 l -10.28277,5.90067 c -2.58376,1.48282 -5.83709,0.6042 -7.32226,-1.97821 l -17.65874,-30.70403 c -1.46291,-2.54372 -0.5537,-5.74637 2.02737,-7.14233 l 9.78594,-5.29271 c 0.72677,-0.39323 0.99748,-1.30106 0.60447,-2.02795 -0.39323,-0.72677 -1.30107,-0.99749 -2.02795,-0.60447 l -9.78623,5.29277 c -1.32174,0.71484 -2.3665,1.74622 -3.09275,2.94964 -0.10376,0.17192 -0.20104,0.34734 -0.29168,0.52587 -1.20835,2.38029 -1.24094,5.30998 0.186,7.79115 l 1.06784,1.85625 c -2.91194,2.71974 -5.08691,5.92058 -7.01957,9.19464 -0.42037,0.71199 -0.18376,1.63002 0.52847,2.05 0.71188,0.42032 1.6297,0.18393 2.04978,-0.5281 1.74387,-2.95424 3.62053,-5.71219 5.97897,-8.04308 l 9.85708,17.13874 c -1.40991,1.2837 -2.93527,2.9863 -4.5667,5.83402 -0.41096,0.71729 -0.16251,1.63185 0.55489,2.04261 0.71688,0.41091 1.63117,0.16319 2.04233,-0.55355 1.30465,-2.27734 2.40997,-3.61268 3.49914,-4.66294 l 3.66664,6.37514 c 2.2911,3.98375 7.41927,5.37026 11.40509,3.08276 l 15.19173,-8.71822 c 0.0379,-0.0217 0.0691,-0.0502 0.10431,-0.0747 2.7253,-0.39632 5.60118,-1.16074 8.46647,-2.49355 l 12.48427,7.20804 c 0.71572,0.41296 1.63063,0.16762 2.04382,-0.54795 0.41372,-0.71569 0.16883,-1.6312 -0.54722,-2.04466 l -13.11687,-7.57302 c -0.4368,-0.25198 -0.9711,-0.26699 -1.42142,-0.04 -4.7976,2.41399 -9.75459,2.99111 -13.82657,2.82546 -4.07198,-0.16564 -7.32942,-1.12565 -8.30121,-1.54332 -0.70976,-0.30504 -1.16358,-1.2852 -1.01336,-2.23937 0.1502,-0.95418 0.6194,-1.75133 2.37321,-1.85035 2.40746,-0.13591 4.49198,-0.20805 5.96715,-0.2472 3.6192,0 4.95869,-1.73421 2.30488,-3.26638 l -19.52849,-11.1867 c -0.65451,-0.37788 -0.8252,-0.70967 -0.89834,-1.03998 -0.0731,-0.33032 -0.008,-0.75139 0.23136,-1.1843 0.70939,-1.2628 1.85225,-1.44798 3.0343,-0.75971 l 11.87435,6.8559 c 0.71572,0.41296 1.63063,0.16763 2.04383,-0.54795 0.41289,-0.71561 0.16779,-1.63032 -0.54758,-2.04361 l -12.97392,-7.49049 c -5.8e-4,-8.1e-4 -0.002,-0.002 -0.003,-0.003 l -2.71392,-1.56663 c -1.38585,-0.80012 -0.36596,-4.10369 2.45325,-2.47601 4.73756,2.86823 10.00948,5.81945 14.81649,8.59362 0.0563,0.0345 0.11494,0.0652 0.17291,0.0966 0.70237,0.34899 1.5642,0.0952 1.96122,-0.59366 0.41291,-0.71561 0.16773,-1.63062 -0.54766,-2.04391 l -12.61034,-7.28071 c -0.0538,-0.0743 -0.11422,-0.1436 -0.1807,-0.20684 -0.37447,-0.2162 -0.41755,-0.35359 -0.44033,-0.68249 -0.0228,-0.32889 0.11326,-0.84896 0.41604,-1.30288 0.30278,-0.45391 0.74861,-0.816 1.14729,-0.96181 0.39867,-0.14578 0.71504,-0.159 1.19496,0.11808 4.08104,2.41122 8.19234,4.77787 12.30121,7.15013 0.7156,0.41289 1.63061,0.16771 2.04391,-0.54766 0.4139,-0.71572 0.16907,-1.63149 -0.54673,-2.04511 l -4.74195,-2.73777 c -0.94605,-0.54619 -1.56228,-1.3106 -0.83866,-2.49759 0.28341,-0.46492 1.27331,-1.35713 3.10861,-0.29751 l 11.93691,6.89154 c 4.01584,2.31854 7.50221,8.30237 8.60013,12.45246 0.10193,0.38496 0.35328,0.71309 0.69815,0.91221 l 13.29155,7.67389 c 0.71564,0.41309 1.63063,0.16811 2.04399,-0.54738 0.41315,-0.71572 0.16793,-1.63094 -0.54774,-2.0442 l -12.8205,-7.40192 c -1.21901,-4.1327 -3.89589,-9.12148 -7.78878,-12.26348 -0.17382,-0.37263 -0.43844,-0.84888 -0.91919,-1.57584 l -9.78275,-16.49253 c -1.76571,-2.9766 -5.23538,-4.35998 -8.4562,-3.63723 z m -17.40795,9.53418 c -0.38513,0.1032 -0.73091,0.35357 -0.94604,0.72614 -0.43018,0.74517 -0.17491,1.69785 0.57023,2.1281 0.74517,0.43018 1.69815,0.17483 2.12839,-0.5703 0.43018,-0.74518 0.17492,-1.69786 -0.57022,-2.12811 -0.37259,-0.21508 -0.79723,-0.25903 -1.18236,-0.15583 z m -27.03824,36.36674 c -0.30725,0.0932 -0.58442,0.28485 -0.78169,0.55998 -0.0761,0.1063 -0.13828,0.22235 -0.18434,0.34473 -1.48411,3.94272 -2.21525,7.48961 -2.57354,10.79978 -0.0884,0.82139 0.50559,1.55909 1.32694,1.64801 0.82156,0.089 1.5596,-0.50466 1.64882,-1.32622 0.3363,-3.10691 1.00794,-6.37369 2.39838,-10.06754 0.29084,-0.7733 -0.10013,-1.63605 -0.87329,-1.92731 -0.31686,-0.11921 -0.65404,-0.12462 -0.96128,-0.0315 z m 12.27336,-0.002 c -0.37711,0.067 -0.72866,0.27789 -0.96525,0.61676 -0.5793,0.82903 -1.1351,1.68592 -1.66235,2.57455 -0.17576,0.2962 -0.34827,0.59596 -0.51752,0.89939 -2.03089,3.64105 -3.5787,7.81078 -4.3223,12.75508 -0.1227,0.81717 0.44004,1.57909 1.25716,1.70204 0.81702,0.12262 1.57903,-0.43991 1.70212,-1.25687 0.92019,-6.11841 3.11578,-10.8371 5.99642,-14.95954 0.47409,-0.67773 0.30853,-1.61156 -0.36967,-2.08497 -0.33884,-0.23663 -0.74149,-0.31345 -1.11861,-0.24644 z m 2.39674,16.15008 c -0.30612,0.14022 -0.56502,0.38337 -0.7216,0.70418 -0.043,0.0881 -0.0774,0.18031 -0.10234,0.2751 -0.39171,1.48763 -0.68846,3.16958 -0.47339,5.09598 0.0917,0.82114 0.83159,1.41287 1.65278,1.32152 0.82168,-0.0915 1.4134,-0.83211 1.32158,-1.65375 -0.16103,-1.44261 0.0469,-2.68434 0.39385,-4.00219 0.20983,-0.79903 -0.26752,-1.61693 -1.0664,-1.8273 -0.34519,-0.091 -0.69836,-0.0537 -1.00448,0.0865 z" /></g><g
       id="g37"
       transform="translate(0,179.6506)"
       inkscape:export-filename="../../vr-care-up/Assets/Resources/Sprites/cleanProgress.png"
       inkscape:export-xdpi="96"
       inkscape:export-ydpi="96"><rect
         style="opacity:1;fill:#5cbfd8;fill-opacity:1;stroke:#ffffff;stroke-width:8.975;stroke-linecap:round;stroke-linejoin:round;stroke-dasharray:none;paint-order:stroke fill markers"
         id="rect36"
         width="253.91379"
         height="63.478447"
         x="442.61823"
         y="117.10827"
         ry="18.948919" /><rect
         style="opacity:1;fill:none;fill-opacity:1;stroke:#333d6d;stroke-width:1.675;stroke-linecap:round;stroke-linejoin:round;stroke-dasharray:none;stroke-opacity:1;paint-order:stroke fill markers"
         id="rect37"
         width="253.91379"
         height="63.478447"
         x="442.61823"
         y="117.10827"
         ry="18.948919" /></g><g
       id="g39"
       transform="translate(0,288.12134)"
       inkscape:export-filename="../../vr-care-up/Assets/Resources/Sprites/cleanProgressPanel.png"
       inkscape:export-xdpi="96"
       inkscape:export-ydpi="96"
       style="fill:#f9f9f9;stroke:#ffffff"><rect
         style="opacity:1;fill:#f9f9f9;fill-opacity:1;stroke:#ffffff;stroke-width:8.975;stroke-linecap:round;stroke-linejoin:round;stroke-dasharray:none;paint-order:stroke fill markers"
         id="rect38"
         width="253.91379"
         height="63.478447"
         x="442.61823"
         y="117.10827"
         ry="18.948919" /><rect
         style="opacity:1;fill:#f9f9f9;fill-opacity:1;stroke:#ffffff;stroke-width:1.675;stroke-linecap:round;stroke-linejoin:round;stroke-dasharray:none;stroke-opacity:1;paint-order:stroke fill markers"
         id="rect39"
         width="253.91379"
         height="63.478447"
         x="442.61823"
         y="117.10827"
         ry="18.948919" /></g></g></svg>
