<?xml version="1.0" encoding="UTF-8" standalone="no"?>
<!-- Created with Inkscape (http://www.inkscape.org/) -->

<svg
   width="63.999996"
   height="63.999996"
   viewBox="0 0 16.933332 16.933332"
   version="1.1"
   id="svg1"
   inkscape:version="1.3 (0e150ed6c4, 2023-07-21)"
   sodipodi:docname="foot_walk.svg"
   xml:space="preserve"
   xmlns:inkscape="http://www.inkscape.org/namespaces/inkscape"
   xmlns:sodipodi="http://sodipodi.sourceforge.net/DTD/sodipodi-0.dtd"
   xmlns="http://www.w3.org/2000/svg"
   xmlns:svg="http://www.w3.org/2000/svg"><sodipodi:namedview
     id="namedview1"
     pagecolor="#4d4d4d"
     bordercolor="#000000"
     borderopacity="0.25"
     inkscape:showpageshadow="2"
     inkscape:pageopacity="0.0"
     inkscape:pagecheckerboard="0"
     inkscape:deskcolor="#d1d1d1"
     inkscape:document-units="mm"
     inkscape:zoom="4.0567375"
     inkscape:cx="27.238637"
     inkscape:cy="44.986889"
     inkscape:window-width="1920"
     inkscape:window-height="1003"
     inkscape:window-x="0"
     inkscape:window-y="0"
     inkscape:window-maximized="1"
     inkscape:current-layer="layer1"><inkscape:page
       x="0"
       y="0"
       width="16.933332"
       height="16.933332"
       id="page12"
       margin="0"
       bleed="0" /></sodipodi:namedview><defs
     id="defs1" /><g
     inkscape:label="Layer 1"
     inkscape:groupmode="layer"
     id="layer1"><g
       id="g15"
       inkscape:export-filename="../../vr-care-up/Assets/Resources_moved/Sprites/foot_walk1.png"
       inkscape:export-xdpi="192.00002"
       inkscape:export-ydpi="192.00002"><rect
         style="opacity:0;fill:#3e5489;fill-opacity:1;stroke:none;stroke-width:1.9;stroke-linecap:round;stroke-linejoin:round;stroke-opacity:1;paint-order:stroke fill markers"
         id="rect14"
         width="16.933332"
         height="16.933332"
         x="0"
         y="0"
         ry="0" /><g
         id="g12"
         transform="translate(0.02958532,-0.10004485)"
         style="fill:#3e5489;fill-opacity:1;stroke:#3e5489;stroke-opacity:1"><path
           id="path12"
           style="fill:#3e5489;fill-opacity:1;stroke:#3e5489;stroke-width:0.750424;stroke-dasharray:none;stroke-opacity:1;paint-order:stroke fill markers"
           d="m 10.149941,6.2633063 c -0.06039,-0.0023 -0.121361,0.01758 -0.201156,0.058988 -0.1799104,0.093363 -0.2987632,0.3585735 -0.2987632,0.6662759 0,0.284496 0.048672,0.4119378 0.2109167,0.5495716 0.1435295,0.1217569 0.4096885,0.1266359 0.5572105,0.010185 0.326827,-0.257984 0.284128,-0.9937737 -0.07044,-1.2107546 -0.07745,-0.047398 -0.137374,-0.071966 -0.197761,-0.074267 z m 1.064768,0.4116481 c -0.318505,0 -0.447573,0.4822406 -0.202004,0.7545469 0.04515,0.05007 0.126604,0.077662 0.230014,0.077662 0.135534,0 0.172807,-0.020851 0.244442,-0.1353771 0.175693,-0.2808706 0.01302,-0.6968313 -0.272452,-0.6968318 z M 11.961193,7.13286 c -0.118194,0 -0.26948,0.1793339 -0.26948,0.3195578 0,0.1383369 0.06393,0.3193044 0.196063,0.3586007 0.132128,0.039297 0.291514,-0.029698 0.328469,-0.2834855 0.02915,-0.2001868 -0.09872,-0.394673 -0.255052,-0.394673 z m 0.623414,0.4990704 c -0.03005,0 -0.09797,0.034849 -0.150655,0.077661 -0.109461,0.088947 -0.131611,0.3285054 -0.04074,0.4383841 0.131549,0.1590621 0.376,0.00117 0.376,-0.2427451 0,-0.1454167 -0.08624,-0.2733004 -0.184605,-0.2733 z M 10.648163,7.8165355 C 9.9968451,7.8121755 9.5156126,8.1629557 9.4628705,8.822315 c -0.025362,0.3170899 0.086493,0.7173285 0.2991875,1.0711341 0.207084,0.3444729 0.353131,0.5053619 0.760489,0.8377249 0.400962,0.327141 0.606375,0.573361 0.669671,0.802077 0.150866,0.545135 -0.08097,1.150829 -0.691739,1.806584 -0.8970583,0.963142 -0.9845853,1.11374 -0.9849854,1.697094 -2.159e-4,0.335162 0.014825,0.426478 0.1005779,0.601346 0.1886625,0.384718 0.4961535,0.652364 0.8712505,0.75879 0.238304,0.06761 0.617489,0.03764 0.854277,-0.06747 0.260078,-0.115449 0.578911,-0.432013 0.709563,-0.704895 0.104625,-0.218525 0.112489,-0.27413 0.118401,-0.8373 0.01009,-0.954542 0.179771,-1.784134 0.658637,-3.224012 0.33933,-1.020315 0.419356,-1.39984 0.378123,-1.786219 C 13.149628,9.2458975 12.811489,8.7893745 12.14113,8.3393711 11.619062,7.9889145 11.093801,7.8195163 10.648163,7.8165355 Z m 2.420661,0.278393 c -0.03153,0.0029 -0.06343,0.030369 -0.115431,0.090393 -0.10731,0.1238556 -0.128717,0.2737978 -0.05814,0.4061312 0.07297,0.1368229 0.237865,0.1029885 0.317861,-0.065355 0.07858,-0.1653436 0.04449,-0.3332935 -0.0836,-0.4116481 -0.02316,-0.014165 -0.04177,-0.021258 -0.06069,-0.019521 z" /><path
           id="path11"
           style="fill:#3e5489;fill-opacity:1;stroke:#3e5489;stroke-width:0.750424;stroke-dasharray:none;stroke-opacity:1;paint-order:stroke fill markers"
           d="m 6.7242149,0.69127539 c -0.060386,0.0023 -0.1198817,0.026869 -0.1973365,0.074266 C 6.1723049,0.98252309 6.1291844,1.7183124 6.4560069,1.9762967 6.6722957,2.1470289 7.0249553,2.0564595 7.1592039,1.7959354 7.3215865,1.4808177 7.1886863,0.88690799 6.9253708,0.75026419 6.8455759,0.70885509 6.7846009,0.68897569 6.7242149,0.69127539 Z M 5.6573247,1.1012261 c -0.1545423,0.00458 -0.310941,0.131775 -0.336533,0.3840635 -0.013467,0.1327426 0.00427,0.2152271 0.0679,0.3170114 0.077742,0.1244022 0.1023875,0.1362935 0.2571739,0.1247677 0.2242181,-0.0167 0.3382306,-0.1608097 0.3382306,-0.4273502 0,-0.2691511 -0.1622596,-0.4033709 -0.3267715,-0.3984924 z m -0.7439374,0.459603 c -0.1181938,0 -0.269481,0.1793329 -0.269481,0.3195578 0,0.1397725 0.108417,0.3363664 0.1960633,0.3552057 0.1840154,0.039549 0.3428987,-0.1247859 0.3428987,-0.3552057 0,-0.1402249 -0.1512877,-0.3195578 -0.269481,-0.3195578 z m -0.614926,0.5071336 c -0.043614,-4.901e-4 -0.088187,0.016749 -0.128587,0.057291 -0.092095,0.092417 -0.08174,0.3170044 0.019521,0.4260771 0.1110664,0.1196319 0.2292398,0.1151739 0.311919,-0.011458 C 4.6297358,2.3431888 4.4695604,2.0698851 4.2984613,2.0679627 Z M 6.2255689,2.2436558 C 5.7691085,2.2434122 5.2459082,2.4230504 4.733026,2.7673402 4.0626671,3.2173437 3.7245294,3.6738666 3.6678333,4.2051381 c -0.041484,0.3887331 0.038986,0.7635431 0.3976436,1.8485974 0.4597049,1.3907519 0.6266902,2.2155075 0.6399644,3.1616273 0.00974,0.6943579 0.060363,0.8621042 0.3560545,1.1840192 0.2079764,0.226425 0.4051211,0.353842 0.6582126,0.425652 0.23769,0.06744 0.617354,0.03779 0.8525786,-0.06663 C 6.8291959,10.644365 7.0963656,10.380148 7.2372898,10.101045 7.3466054,9.8845337 7.3588622,9.8199087 7.3586623,9.4648997 7.358428,9.1018238 7.3479827,9.0489248 7.2266802,8.8155968 7.0976929,8.5674858 6.949795,8.3859061 6.3741017,7.7678043 5.7633412,7.1120499 5.5310725,6.5063554 5.6819387,5.9612207 5.7452362,5.7325046 5.9506469,5.486285 6.3516096,5.1591433 6.758968,4.8267805 6.9054363,4.6658912 7.1125221,4.3214182 7.6132202,3.4885334 7.4803052,2.6559054 6.7993301,2.3569651 6.6265123,2.2811003 6.4330508,2.2437666 6.2255689,2.2436558 Z m -2.429573,0.2792418 c -0.015854,9.608e-4 -0.032051,0.00772 -0.051349,0.019521 -0.1281007,0.078354 -0.1621738,0.2463047 -0.083603,0.4116483 0.05179,0.1089901 0.095519,0.1459865 0.1722981,0.1459865 0.2004799,0 0.2534199,-0.2951645 0.087422,-0.4867633 -0.057202,-0.066026 -0.08989,-0.092513 -0.1247681,-0.090393 z" /></g></g></g></svg>
