<?xml version="1.0" encoding="UTF-8" standalone="no"?>
<!-- Created with Inkscape (http://www.inkscape.org/) -->

<svg
   width="247.10219mm"
   height="247.10219mm"
   viewBox="0 0 247.10219 247.10219"
   version="1.1"
   id="svg1"
   xml:space="preserve"
   inkscape:version="1.3 (0e150ed6c4, 2023-07-21)"
   sodipodi:docname="foot.svg"
   xmlns:inkscape="http://www.inkscape.org/namespaces/inkscape"
   xmlns:sodipodi="http://sodipodi.sourceforge.net/DTD/sodipodi-0.dtd"
   xmlns="http://www.w3.org/2000/svg"
   xmlns:svg="http://www.w3.org/2000/svg"><sodipodi:namedview
     id="namedview1"
     pagecolor="#636363"
     bordercolor="#000000"
     borderopacity="0.25"
     inkscape:showpageshadow="2"
     inkscape:pageopacity="0.0"
     inkscape:pagecheckerboard="0"
     inkscape:deskcolor="#d1d1d1"
     inkscape:document-units="mm"
     inkscape:zoom="0.35856832"
     inkscape:cx="313.74774"
     inkscape:cy="514.54629"
     inkscape:window-width="1920"
     inkscape:window-height="1003"
     inkscape:window-x="0"
     inkscape:window-y="0"
     inkscape:window-maximized="1"
     inkscape:current-layer="layer1" /><defs
     id="defs1" /><g
     inkscape:label="Layer 1"
     inkscape:groupmode="layer"
     id="layer1"
     transform="translate(-333.31966,-30.053548)"><g
       id="g3"><circle
         style="opacity:1;fill:#ffffff;fill-opacity:0.45445317;stroke:#ffffff;stroke-width:14.9;stroke-linecap:round;stroke-linejoin:round;stroke-dasharray:none;stroke-dashoffset:0;stroke-opacity:1;paint-order:stroke fill markers"
         id="circle2"
         cx="456.87076"
         cy="153.60464"
         r="108.04343" /><path
         style="fill:#5dceff;fill-opacity:1;stroke:#ffffff;stroke-width:8.9;stroke-dasharray:none;paint-order:stroke fill markers"
         d="m 429.01935,213.44205 c -3.26685,-0.92366 -5.81162,-2.56392 -8.49614,-5.47631 -3.81674,-4.14064 -4.46776,-6.29928 -4.5935,-15.23047 -0.17131,-12.16949 -2.32618,-22.77866 -8.25998,-40.66724 -4.62949,-13.95653 -5.67025,-18.77546 -5.13477,-23.77555 0.73181,-6.83349 5.09859,-12.70647 13.75146,-18.49465 9.62936,-6.44136 19.53363,-8.40168 26.67187,-5.27907 8.78989,3.84513 10.50183,14.55547 4.03891,25.26846 -2.67302,4.4308 -4.55921,6.50125 -9.81732,10.77626 -5.17555,4.20788 -7.82773,7.37222 -8.64477,10.31409 -1.94735,7.01181 1.04657,14.80213 8.93015,23.23679 7.43094,7.95035 9.34092,10.28991 11.00587,13.48125 1.56574,3.00118 1.7046,3.68019 1.70763,8.35024 0.002,4.56631 -0.15652,5.39877 -1.56756,8.18366 -1.81902,3.58996 -5.26975,6.9881 -8.58587,8.45499 -3.03624,1.34307 -7.93792,1.72498 -11.00598,0.85755 z m 47.08841,0 c -4.8417,-1.36891 -8.80789,-4.81212 -11.24311,-9.76057 -1.10689,-2.24925 -1.30468,-3.42459 -1.30189,-7.73563 0.005,-7.5034 1.13445,-9.44306 12.7135,-21.83149 7.88362,-8.43466 10.87751,-16.22498 8.93017,-23.23679 -0.81703,-2.94187 -3.46924,-6.10621 -8.64479,-10.31409 -5.25809,-4.27501 -7.14429,-6.34546 -9.81729,-10.77626 -2.74542,-4.55083 -4.1873,-9.69658 -3.85993,-13.77516 1.14659,-14.28382 17.983,-17.310237 34.5707,-6.21423 8.65287,5.78818 13.01966,11.66116 13.75146,18.49465 0.53223,4.9698 -0.50541,9.84914 -4.88542,22.97291 -6.18112,18.52045 -8.36805,29.19208 -8.49834,41.46988 -0.0769,7.24378 -0.17838,7.95876 -1.52888,10.76955 -1.68642,3.50995 -5.80095,7.58486 -9.15798,9.06984 -3.05641,1.35199 -7.95224,1.73706 -11.0282,0.86739 z M 402.4484,112.19835 c -1.01418,-2.12673 -0.57447,-4.28262 1.07902,-5.29046 0.79715,-0.48588 1.20017,-0.32445 2.27415,0.91084 2.14267,2.46444 1.45765,6.25753 -1.13011,6.25753 -0.99105,0 -1.55456,-0.47602 -2.22306,-1.87791 z m 104.74018,0.84287 c -0.91098,-1.70215 -0.63371,-3.6294 0.75139,-5.22249 1.07399,-1.23529 1.47702,-1.39672 2.27415,-0.91084 1.65347,1.00784 2.09319,3.16373 1.07901,5.29046 -1.03255,2.16531 -3.16269,2.60274 -4.10455,0.84287 z m -97.92046,-6.02212 c -1.30706,-1.40294 -1.4389,-4.29065 -0.25017,-5.47937 2.56726,-2.567264 6.35765,2.15976 4.27749,5.33447 -1.06722,1.62881 -2.59369,1.68374 -4.02732,0.145 z m 91.43897,0.31846 c -1.17295,-1.41332 -0.88401,-4.49338 0.52887,-5.63746 0.68008,-0.55067 1.55379,-1.00124 1.94163,-1.00124 1.26963,0 2.38687,1.64592 2.38687,3.51634 0,3.13742 -3.15937,5.1683 -4.85737,3.12236 z m -83.03934,-4.37747 c -1.13132,-0.2423 -2.53442,-2.77258 -2.53442,-4.570417 0,-1.803648 1.95249,-4.111957 3.47811,-4.111957 1.52562,0 3.47813,2.308309 3.47813,4.111957 0,2.963777 -2.04658,5.079127 -4.42182,4.570417 z m 76.51867,0.0441 c -1.70548,-0.50545 -2.53445,-2.83505 -2.53445,-4.614411 0,-1.80364 1.95251,-4.111957 3.47812,-4.111957 2.01793,0 3.6715,2.50303 3.29524,5.077937 -0.47704,3.264351 -2.53344,4.153891 -4.23891,3.648431 z m -55.66223,-3.381168 c -4.21856,-3.318329 -3.66364,-12.782265 0.91314,-15.573186 1.99954,-1.219304 3.08759,-1.260596 5.14755,-0.195345 3.39883,1.75759 5.11195,9.398472 3.01595,13.451677 -1.73286,3.350992 -6.28482,4.512912 -9.07664,2.316862 z m 29.50022,-0.130668 c -2.09423,-1.770316 -2.72589,-3.408017 -2.72589,-7.06736 0,-3.957826 1.53586,-7.369607 3.85812,-8.570496 2.05996,-1.065247 3.14805,-1.023957 5.14755,0.195344 4.5768,2.790921 5.13173,12.254867 0.91314,15.573188 -1.90421,1.49786 -5.34027,1.43544 -7.19292,-0.13066 z m -43.27818,-2.10747 c -0.82138,-1.309213 -1.04895,-2.369366 -0.87513,-4.076782 0.68199,-6.699487 8.56365,-6.530857 8.56365,0.183228 0,3.428383 -1.47415,5.284054 -4.36832,5.498853 -1.99795,0.148279 -2.31672,-0.0056 -3.3202,-1.605283 z m 58.14339,0.712349 c -3.16976,-3.502551 -1.50246,-9.705451 2.60875,-9.705451 3.68474,0 5.78312,5.350137 3.51532,8.962846 -0.9247,1.473093 -1.40753,1.739066 -3.15697,1.739066 -1.33481,0 -2.38428,-0.35245 -2.9671,-0.996461 z"
         id="path1"
         sodipodi:nodetypes="sssssssssssscssssscssssssssssssssssssssssssssssssssssssszssszssssssssssssssssssssssss" /><circle
         style="opacity:1;fill:none;stroke:#5dceff;stroke-width:14.9;stroke-linecap:round;stroke-linejoin:round;stroke-dasharray:none;stroke-dashoffset:0;stroke-opacity:1;paint-order:stroke fill markers"
         id="path2"
         cx="456.87076"
         cy="153.60464"
         r="116.1011" /></g></g></svg>
