<?xml version="1.0" encoding="UTF-8" standalone="no"?>
<!-- Created with Inkscape (http://www.inkscape.org/) -->

<svg
   width="247.10219mm"
   height="247.10219mm"
   viewBox="0 0 247.10219 247.10219"
   version="1.1"
   id="svg1"
   xml:space="preserve"
   inkscape:version="1.3 (0e150ed6c4, 2023-07-21)"
   sodipodi:docname="foot.svg"
   inkscape:export-filename="../../vr-care-up/Assets/Scripts/UI/foot.png"
   inkscape:export-xdpi="96"
   inkscape:export-ydpi="96"
   xmlns:inkscape="http://www.inkscape.org/namespaces/inkscape"
   xmlns:sodipodi="http://sodipodi.sourceforge.net/DTD/sodipodi-0.dtd"
   xmlns="http://www.w3.org/2000/svg"
   xmlns:svg="http://www.w3.org/2000/svg"><sodipodi:namedview
     id="namedview1"
     pagecolor="#636363"
     bordercolor="#000000"
     borderopacity="0.25"
     inkscape:showpageshadow="2"
     inkscape:pageopacity="0.0"
     inkscape:pagecheckerboard="0"
     inkscape:deskcolor="#d1d1d1"
     inkscape:document-units="mm"
     inkscape:zoom="0.50709218"
     inkscape:cx="235.65735"
     inkscape:cy="671.47554"
     inkscape:window-width="1920"
     inkscape:window-height="1003"
     inkscape:window-x="0"
     inkscape:window-y="-37"
     inkscape:window-maximized="1"
     inkscape:current-layer="layer1" /><defs
     id="defs1" /><g
     inkscape:label="Layer 1"
     inkscape:groupmode="layer"
     id="layer1"
     transform="translate(-333.31966,-30.053548)"><g
       id="g3"><circle
         style="opacity:1;fill:#ffffff;fill-opacity:0.45445317;stroke:#ffffff;stroke-width:14.9;stroke-linecap:round;stroke-linejoin:round;stroke-dasharray:none;stroke-dashoffset:0;stroke-opacity:1;paint-order:stroke fill markers"
         id="circle2"
         cx="456.87076"
         cy="153.60464"
         r="108.04343" /><path
         style="fill:#5dceff;fill-opacity:1;stroke:#ffffff;stroke-width:7.5;stroke-dasharray:none;paint-order:stroke fill markers"
         d="m 435.30575,198.97313 c -2.52949,-0.7177 -4.49987,-1.99221 -6.57846,-4.25518 -2.95526,-3.21733 -3.45933,-4.89463 -3.55669,-11.83429 -0.13265,-9.45587 -1.80114,-17.69935 -6.3956,-31.59903 -3.58456,-10.84443 -4.39041,-14.58881 -3.9758,-18.47395 0.56664,-5.30972 3.94778,-9.87311 10.64759,-14.37061 7.4559,-5.00503 15.12466,-6.52822 20.65171,-4.10191 6.80591,2.98772 8.13144,11.30981 3.12728,19.63396 -2.06969,3.44279 -3.53014,5.05156 -7.60143,8.37331 -4.00737,3.26958 -6.06092,5.72832 -6.69354,8.01419 -1.50781,5.44828 0.81034,11.50147 6.9145,18.05532 5.75369,6.17754 7.23256,7.99541 8.52171,10.47513 1.21234,2.33196 1.31986,2.85956 1.3222,6.48826 0.002,3.54809 -0.12119,4.19492 -1.21374,6.35882 -1.40845,2.78945 -4.0803,5.42985 -6.64794,6.56965 -2.35092,1.04358 -6.14623,1.34033 -8.52179,0.66633 z m 36.45998,0 c -3.74887,-1.06367 -6.81984,-3.73909 -8.7054,-7.58411 -0.85705,-1.7477 -1.0102,-2.66095 -1.00804,-6.01069 0.004,-5.83025 0.87839,-7.3374 9.84391,-16.96339 6.10419,-6.55385 8.42232,-12.60704 6.91452,-18.05532 -0.63261,-2.28587 -2.68619,-4.74461 -6.69355,-8.01419 -4.07128,-3.32175 -5.53174,-4.93052 -7.60141,-8.37331 -2.12575,-3.53606 -3.24218,-7.53439 -2.9887,-10.7035 0.88779,-11.09874 13.92402,-13.45031 26.76768,-4.82855 6.69981,4.4975 10.08096,9.06089 10.64758,14.37061 0.4121,3.86161 -0.39133,7.65293 -3.78272,17.85028 -4.78596,14.39066 -6.47928,22.68267 -6.58016,32.2227 -0.0595,5.62852 -0.13812,6.18407 -1.18379,8.3681 -1.30578,2.72728 -4.49161,5.89354 -7.09092,7.04739 -2.36654,1.05052 -6.15732,1.34972 -8.539,0.67398 z m -57.03355,-78.66782 c -0.78526,-1.6525 -0.4448,-3.32766 0.83547,-4.11076 0.61723,-0.37754 0.92928,-0.25211 1.76085,0.70773 1.65904,1.91491 1.12864,4.86219 -0.87503,4.86219 -0.76736,0 -1.20368,-0.36987 -1.72129,-1.45916 z m 81.09906,0.65492 c -0.70537,-1.32259 -0.49068,-2.82009 0.58179,-4.05795 0.83158,-0.95984 1.14364,-1.08527 1.76084,-0.70773 1.28027,0.7831 1.62074,2.45826 0.83547,4.11076 -0.79949,1.68248 -2.44883,2.02237 -3.1781,0.65492 z m -75.81863,-4.67927 c -1.01204,-1.09011 -1.11412,-3.3339 -0.1937,-4.25755 1.98779,-1.9948 4.92265,1.67816 3.312,4.14496 -0.82633,1.26561 -2.00826,1.30829 -3.1183,0.11267 z m 70.80009,0.24745 c -0.9082,-1.09817 -0.68448,-3.49142 0.40949,-4.38039 0.52658,-0.42788 1.20308,-0.77798 1.50338,-0.77798 0.98306,0 1.84813,1.2789 1.84813,2.73225 0,2.43782 -2.44626,4.01584 -3.761,2.42612 z m -64.29636,-3.40136 c -0.87597,-0.18827 -1.96237,-2.15434 -1.96237,-3.55128 0,-1.40146 1.51179,-3.19505 2.69306,-3.19505 1.18127,0 2.69307,1.79359 2.69307,3.19505 0,2.3029 -1.58464,3.94655 -3.42376,3.55128 z m 59.24748,0.0343 c -1.32053,-0.39275 -1.96239,-2.20288 -1.96239,-3.58547 0,-1.40145 1.5118,-3.19505 2.69306,-3.19505 1.56246,0 2.8428,1.94489 2.55147,3.94563 -0.36937,2.53645 -1.96161,3.22764 -3.28214,2.83489 z m -43.09859,-2.62722 c -3.26638,-2.57839 -2.83671,-9.932 0.70703,-12.100591 1.54822,-0.947416 2.39069,-0.979501 3.98569,-0.151785 2.63167,1.365672 3.95812,7.302746 2.33521,10.452146 -1.34173,2.60377 -4.86626,3.5066 -7.02793,1.80024 z m 22.84166,-0.10153 c -1.62153,-1.37556 -2.11062,-2.64808 -2.11062,-5.49144 0,-3.07529 1.1892,-5.726293 2.98729,-6.659401 1.59501,-0.827712 2.4375,-0.795629 3.98569,0.151785 3.54376,2.168586 3.97344,9.522206 0.70703,12.100596 -1.4744,1.16385 -4.1349,1.11535 -5.56939,-0.10153 z m -33.50977,-1.63754 c -0.63598,-1.01727 -0.81219,-1.84103 -0.6776,-3.16771 0.52806,-5.2056 6.63073,-5.07457 6.63073,0.14237 0,2.6639 -1.14142,4.10578 -3.38234,4.27268 -1.54699,0.11522 -1.79381,-0.004 -2.57079,-1.24732 z m 45.01972,0.55351 c -2.4543,-2.72153 -1.16333,-7.54128 2.01993,-7.54128 2.85305,0 4.4778,4.15714 2.72187,6.96426 -0.71599,1.14462 -1.08984,1.35128 -2.44441,1.35128 -1.03352,0 -1.84611,-0.27385 -2.29739,-0.77426 z"
         id="path1"
         sodipodi:nodetypes="sssssssssssscssssscssssssssssssssssssssssssssssssssssssszssszssssssssssssssssssssssss" /><circle
         style="opacity:1;fill:none;stroke:#5dceff;stroke-width:14.9;stroke-linecap:round;stroke-linejoin:round;stroke-dasharray:none;stroke-dashoffset:0;stroke-opacity:1;paint-order:stroke fill markers"
         id="path2"
         cx="456.87076"
         cy="153.60464"
         r="116.1011" /></g></g></svg>
