<?xml version="1.0" encoding="UTF-8" standalone="no"?>
<!-- Created with Inkscape (http://www.inkscape.org/) -->

<svg
   width="264.37024mm"
   height="126.48357mm"
   viewBox="0 0 264.37024 126.48357"
   version="1.1"
   id="svg5"
   inkscape:version="1.3 (0e150ed6c4, 2023-07-21)"
   sodipodi:docname="RobotDialogue.svg"
   xmlns:inkscape="http://www.inkscape.org/namespaces/inkscape"
   xmlns:sodipodi="http://sodipodi.sourceforge.net/DTD/sodipodi-0.dtd"
   xmlns="http://www.w3.org/2000/svg"
   xmlns:svg="http://www.w3.org/2000/svg">
  <sodipodi:namedview
     id="namedview7"
     pagecolor="#ffffff"
     bordercolor="#000000"
     borderopacity="0.25"
     inkscape:showpageshadow="2"
     inkscape:pageopacity="0.0"
     inkscape:pagecheckerboard="0"
     inkscape:deskcolor="#d1d1d1"
     inkscape:document-units="mm"
     showgrid="false"
     inkscape:zoom="0.37282198"
     inkscape:cx="830.15492"
     inkscape:cy="417.08914"
     inkscape:window-width="1920"
     inkscape:window-height="1003"
     inkscape:window-x="0"
     inkscape:window-y="0"
     inkscape:window-maximized="1"
     inkscape:current-layer="layer1" />
  <defs
     id="defs2" />
  <g
     inkscape:label="Layer 1"
     inkscape:groupmode="layer"
     id="layer1"
     transform="translate(422.53459,-64.706474)">
    <path
       id="rect234"
       style="fill:#000000;fill-opacity:0.719238;stroke:#3e5489;stroke-width:5.6;stroke-linecap:round;stroke-linejoin:round;stroke-dasharray:none;stroke-opacity:1;paint-order:normal"
       d="m -379.75356,67.506474 c -22.14929,0 -39.98103,17.831735 -39.98103,39.981026 v 40.92153 c 0,22.14929 17.83174,39.98102 39.98103,39.98102 h 168.98296 9.82576 39.9805 c -9.3721,-3.50813 -11.60372,-11.40301 -7.02189,-16.41011 5.72304,-6.25423 7.02189,-14.40072 7.02189,-23.57091 V 107.4875 c 0,-22.149291 -17.83121,-39.981026 -39.9805,-39.981026 z"
       sodipodi:nodetypes="sssscccsssss"
       inkscape:export-filename="../../vr-care-up/Assets/Resources/Sprites/RobotDialogue.png"
       inkscape:export-xdpi="95.360001"
       inkscape:export-ydpi="95.360001" />
    <path
       id="path3789"
       style="fill:none;fill-opacity:0.719238;stroke:#ffffff;stroke-width:2.3;stroke-linecap:round;stroke-linejoin:round;stroke-dasharray:none;stroke-opacity:1;paint-order:normal"
       sodipodi:type="inkscape:offset"
       inkscape:radius="-2.871532"
       inkscape:original="M -379.75391 67.505859 C -401.9032 67.505859 -419.73438 85.33899 -419.73438 107.48828 L -419.73438 148.4082 C -419.73438 170.55749 -401.9032 188.39062 -379.75391 188.39062 L -210.77148 188.39062 L -200.94531 188.39062 L -160.96484 188.39062 C -170.33694 184.8825 -172.56816 176.98757 -167.98633 171.98047 C -162.26329 165.72624 -160.96484 157.57839 -160.96484 148.4082 L -160.96484 107.48828 C -160.96484 85.33899 -178.79602 67.505859 -200.94531 67.505859 L -379.75391 67.505859 z "
       d="m -379.75391,70.376953 c -20.60795,0 -37.10937,16.503201 -37.10937,37.111327 v 40.91992 c 0,20.60813 16.50141,37.11133 37.10937,37.11133 h 168.98243 9.82617 30.8789 c -0.97695,-1.17337 -1.81506,-2.4074 -2.32617,-3.75 -1.51208,-3.97195 -0.66794,-8.49918 2.28711,-11.72851 5.03055,-5.49747 6.26953,-12.7337 6.26953,-21.63282 v -40.91992 c 0,-20.608126 -16.50141,-37.111327 -37.10937,-37.111327 z" />
  </g>
</svg>
