<?xml version="1.0" encoding="UTF-8" standalone="no"?>
<!-- Created with Inkscape (http://www.inkscape.org/) -->

<svg
   width="210mm"
   height="297mm"
   viewBox="0 0 210 297"
   version="1.1"
   id="svg1"
   inkscape:version="1.3 (0e150ed6c4, 2023-07-21)"
   sodipodi:docname="vrUI.svg"
   xmlns:inkscape="http://www.inkscape.org/namespaces/inkscape"
   xmlns:sodipodi="http://sodipodi.sourceforge.net/DTD/sodipodi-0.dtd"
   xmlns:xlink="http://www.w3.org/1999/xlink"
   xmlns="http://www.w3.org/2000/svg"
   xmlns:svg="http://www.w3.org/2000/svg">
  <sodipodi:namedview
     id="namedview1"
     pagecolor="#ffffff"
     bordercolor="#000000"
     borderopacity="0.25"
     inkscape:showpageshadow="2"
     inkscape:pageopacity="0.0"
     inkscape:pagecheckerboard="0"
     inkscape:deskcolor="#d1d1d1"
     inkscape:document-units="mm"
     inkscape:zoom="0.71713664"
     inkscape:cx="2855.1044"
     inkscape:cy="349.30582"
     inkscape:window-width="1920"
     inkscape:window-height="1003"
     inkscape:window-x="0"
     inkscape:window-y="0"
     inkscape:window-maximized="1"
     inkscape:current-layer="layer1" />
  <defs
     id="defs1">
    <clipPath
       id="clipPath98">
      <path
         id="path100"
         inkscape:connector-curvature="0"
         d="m 3175.4,1839.8 c 20.92,24.68 35.84,55.66 41.66,92.98 -5.8,-37.25 -20.66,-68.2 -41.53,-92.87 -0.04,-0.03 -0.09,-0.08 -0.13,-0.11" />
    </clipPath>
    <clipPath
       id="clipPath114">
      <path
         id="path116"
         inkscape:connector-curvature="0"
         d="m 3217.1,1932.8 c 19.99,128.64 -54.89,140.42 -95.98,231.75 -5.9,13.11 -7.38,25.56 -3.18,36.77 -1.62,-4.35 -2.39,-8.88 -2.39,-13.56 0.01,-7.4 1.97,-15.18 5.58,-23.21 36.39,-80.89 99.29,-99.38 99.3,-191.94 0,-11.94 -1.05,-25.11 -3.33,-39.81" />
    </clipPath>
    <clipPath
       id="clipPath178">
      <path
         id="path180"
         inkscape:connector-curvature="0"
         d="M 0,4505.7 V 0 h 4505.7 v 4505.7 z" />
    </clipPath>
    <clipPath
       id="clipPath204">
      <path
         id="path206"
         inkscape:connector-curvature="0"
         d="M 0,4505.7 V 0 h 4505.7 v 4505.7 z" />
    </clipPath>
    <clipPath
       id="clipPath680">
      <path
         id="path682"
         inkscape:connector-curvature="0"
         d="m 3752.3,753.38 h -13.46 v 12.73 l 13.46,-0.007 v -12.72" />
    </clipPath>
    <clipPath
       id="clipPath712">
      <path
         id="path714"
         inkscape:connector-curvature="0"
         d="m 3711.8,1621 c 1.65,2.4 3.19,5 4.64,7.76 h 0.61 c 1.34,0 2.67,0.06 3.99,0.19 -2.82,-3.21 -5.89,-5.89 -9.24,-7.95 m -582.76,582.77 c 2.06,3.35 4.74,6.42 7.95,9.24 -0.15,-1.52 -0.21,-3.05 -0.19,-4.6 -2.76,-1.45 -5.36,-2.99 -7.76,-4.64" />
    </clipPath>
    <clipPath
       id="clipPath1016">
      <path
         id="path1018"
         inkscape:connector-curvature="0"
         d="m 766.11,3738.8 h -12.726 v 13.47 h 12.726 v -13.47" />
    </clipPath>
    <linearGradient
       inkscape:collect="always"
       xlink:href="#linearGradient4947"
       id="linearGradient5986"
       gradientUnits="userSpaceOnUse"
       gradientTransform="matrix(1.2184929,0,0,1.0188387,359.858,-379.53663)"
       x1="-294.54562"
       y1="59.955536"
       x2="-166.74768"
       y2="95.394043" />
    <linearGradient
       id="linearGradient4947"
       inkscape:collect="always">
      <stop
         id="stop4941"
         offset="0"
         style="stop-color:#4253e8;stop-opacity:1;" />
      <stop
         style="stop-color:#ec58ec;stop-opacity:1;"
         offset="0.30087957"
         id="stop4943" />
      <stop
         id="stop4945"
         offset="1"
         style="stop-color:#7f09ec;stop-opacity:1;" />
    </linearGradient>
    <clipPath
       id="clipPath58">
      <path
         id="path58"
         inkscape:connector-curvature="0"
         d="m 3175.4,1839.8 c 20.92,24.68 35.84,55.66 41.66,92.98 -5.8,-37.25 -20.66,-68.2 -41.53,-92.87 -0.04,-0.03 -0.09,-0.08 -0.13,-0.11" />
    </clipPath>
    <clipPath
       id="clipPath60">
      <path
         id="path60"
         inkscape:connector-curvature="0"
         d="m 3217.1,1932.8 c 19.99,128.64 -54.89,140.42 -95.98,231.75 -5.9,13.11 -7.38,25.56 -3.18,36.77 -1.62,-4.35 -2.39,-8.88 -2.39,-13.56 0.01,-7.4 1.97,-15.18 5.58,-23.21 36.39,-80.89 99.29,-99.38 99.3,-191.94 0,-11.94 -1.05,-25.11 -3.33,-39.81" />
    </clipPath>
    <clipPath
       id="clipPath62">
      <path
         id="path62"
         inkscape:connector-curvature="0"
         d="M 0,4505.7 V 0 h 4505.7 v 4505.7 z" />
    </clipPath>
    <clipPath
       id="clipPath63">
      <path
         id="path63"
         inkscape:connector-curvature="0"
         d="M 0,4505.7 V 0 h 4505.7 v 4505.7 z" />
    </clipPath>
    <clipPath
       id="clipPath64">
      <path
         id="path64"
         inkscape:connector-curvature="0"
         d="m 3752.3,753.38 h -13.46 v 12.73 l 13.46,-0.007 v -12.72" />
    </clipPath>
    <clipPath
       id="clipPath65">
      <path
         id="path65"
         inkscape:connector-curvature="0"
         d="m 3711.8,1621 c 1.65,2.4 3.19,5 4.64,7.76 h 0.61 c 1.34,0 2.67,0.06 3.99,0.19 -2.82,-3.21 -5.89,-5.89 -9.24,-7.95 m -582.76,582.77 c 2.06,3.35 4.74,6.42 7.95,9.24 -0.15,-1.52 -0.21,-3.05 -0.19,-4.6 -2.76,-1.45 -5.36,-2.99 -7.76,-4.64" />
    </clipPath>
    <clipPath
       id="clipPath67">
      <path
         id="path67"
         inkscape:connector-curvature="0"
         d="m 766.11,3738.8 h -12.726 v 13.47 h 12.726 v -13.47" />
    </clipPath>
    <mask
       maskUnits="userSpaceOnUse"
       id="mask5251">
      <path
         id="path5253"
         d="m -1636.9277,-865.04297 c -2.7919,-0.0908 -5.6354,0.73479 -8.627,0.88477 l -0.027,0.002 c -1.1266,0.19 -2.2438,0.38023 -3.3477,0.60742 -0.054,0.0186 -0.1084,0.0409 -0.1621,0.0527 a 0.55512122,0.55512122 0 0 1 -0.1348,0.0117 c -1.1343,0.24282 -2.2558,0.5305 -3.3496,0.9375 -1.9035,0.70842 -3.7961,1.67054 -5.1504,3.04297 -1.9025,1.92806 -4.3972,3.83217 -4.6796,6.31836 -0.1198,1.05399 0.3989,1.7456 1.1914,2.13477 0.7924,0.38919 1.8437,0.38644 2.6367,-0.11328 6.4771,-4.0818 13.7781,-5.4164 22.998,-2.94141 a 0.55512122,0.55512122 0 0 1 0.2363,0.93945 c -1.021,0.96149 -2.3489,1.06189 -3.5761,0.97461 -1.2273,-0.0872 -2.4338,-0.33495 -3.3731,-0.25 a 0.55512122,0.55512122 0 0 1 -0.082,0 c -2.6867,-0.15302 -5.4322,-0.65182 -7.7227,0.36133 a 0.55512122,0.55512122 0 0 1 -0.029,0.0117 c -1.4462,0.54871 -2.0023,2.40746 -1.0585,3.63086 0.7728,0.9273 1.7847,1.31486 2.9785,1.49805 1.1977,0.18381 2.5444,0.13894 3.8261,0.23047 3.3486,0.23908 5.9549,0.76449 8.8399,1.67968 4.1964,1.3312 6.3675,2.41702 8.7461,2.92188 2.3786,0.50488 5.0557,0.47343 10.4043,-0.46094 1.123,-0.1962 1.8875,-0.37823 2.3183,-0.75586 0.4308,-0.37761 0.7071,-1.03121 0.7071,-2.54492 a 0.55512122,0.55512122 0 0 1 0,-0.008 c 0.027,-3.53809 0.012,-7.07712 0.016,-10.6211 -3.4409,-0.71599 -6.8918,-1.6755 -10.0254,-3.43945 l -0.023,-0.01 c -4.0582,-2.07723 -7.8772,-4.71294 -12.293,-4.99023 a 0.55512122,0.55512122 0 0 1 -0.041,-0.006 c -0.397,-0.055 -0.7945,-0.0866 -1.1933,-0.0996 z"
         style="opacity:1;fill:#676869;fill-opacity:1;fill-rule:evenodd;stroke:none;stroke-width:1.58249;stroke-linecap:round;stroke-linejoin:round;stroke-miterlimit:4;stroke-dasharray:none;stroke-opacity:1"
         inkscape:connector-curvature="0" />
    </mask>
  </defs>
  <g
     inkscape:label="Layer 1"
     inkscape:groupmode="layer"
     id="layer1">
    <g
       id="g20"
       inkscape:export-filename="../../vr-care-up/Assets/Resources/Sprites/gButton.png"
       inkscape:export-xdpi="96"
       inkscape:export-ydpi="96">
      <rect
         ry="15.495235"
         y="56.942181"
         x="-854.1958"
         height="30.990471"
         width="154.55246"
         id="rect19"
         style="fill:#f9f9f9;fill-opacity:1;fill-rule:evenodd;stroke:#f9f9f9;stroke-width:5.02500008;stroke-linecap:round;stroke-linejoin:round;stroke-miterlimit:4;stroke-dasharray:none;stroke-opacity:1;opacity:1"
         transform="scale(-1,1)" />
      <g
         id="g5991"
         inkscape:export-filename="C:\projects\care-up\care-up\Assets\Resources\Sprites\UseOn_.png"
         inkscape:export-xdpi="96"
         inkscape:export-ydpi="96"
         transform="matrix(-1.1855639,0,0,1.1855639,873.20924,433.91051)"
         style="stroke-width:0.84348">
        <rect
           ry="13.069928"
           y="-317.96542"
           x="16.037443"
           height="26.139856"
           width="130.36198"
           id="rect5976"
           style="opacity:1;fill:url(#linearGradient5986);fill-opacity:1;fill-rule:evenodd;stroke:none;stroke-width:0.611638;stroke-linecap:round;stroke-linejoin:round;stroke-miterlimit:4;stroke-dasharray:none;stroke-opacity:1" />
        <circle
           style="opacity:1;fill:#ffffff;fill-opacity:0.994413;fill-rule:evenodd;stroke:none;stroke-width:1.32522;stroke-linecap:round;stroke-linejoin:round;stroke-miterlimit:4;stroke-dasharray:none;stroke-opacity:1"
           id="circle5978"
           cx="29.706846"
           cy="-304.89383"
           r="10.267282" />
        <path
           id="path5980"
           d="m 29.69987,-312.03161 -6.18489,3.60013 0.0255,7.15626 6.21033,3.55612 6.18489,-3.60017 -0.026,-7.15625 z m 0.0255,3.698 a 3.4582892,3.4582892 0 0 1 3.45824,3.45825 3.4582892,3.4582892 0 0 1 -3.45824,3.45823 3.4582892,3.4582892 0 0 1 -3.45822,-3.45823 3.4582892,3.4582892 0 0 1 3.45822,-3.45825 z"
           style="opacity:1;fill:#676869;fill-opacity:1;fill-rule:evenodd;stroke:none;stroke-width:1.09652;stroke-linecap:round;stroke-linejoin:round;stroke-miterlimit:4;stroke-dasharray:none;stroke-opacity:1"
           inkscape:connector-curvature="0" />
      </g>
      <rect
         ry="15.495235"
         y="56.942181"
         x="-854.1958"
         height="30.990471"
         width="154.55246"
         id="rect20"
         style="fill:none;fill-opacity:1;fill-rule:evenodd;stroke:#9217ec;stroke-width:1.22499972;stroke-linecap:round;stroke-linejoin:round;stroke-miterlimit:4;stroke-dasharray:none;stroke-opacity:1;opacity:1"
         transform="scale(-1,1)" />
    </g>
  </g>
</svg>
