<svg width="139" height="60" viewBox="0 0 139 60" fill="none" xmlns="http://www.w3.org/2000/svg">
<path d="M107.363 6.33271L89.2657 13.8706C88.3689 14.2444 87.5433 14.77 86.8253 15.4243L77.8233 8.70996C75.8341 7.22788 73.4159 6.64286 71.0122 7.06174C68.6123 7.48109 66.5407 8.85069 65.1764 10.9183L63.2206 13.8824L57.8985 10.4693C53.6813 7.76395 47.7743 8.80033 44.733 12.7797C44.733 12.7797 44.174 13.5097 43.6791 14.1577L15.8623 10.866C13.3998 10.5742 11.0163 11.2731 9.14909 12.8333C7.28277 14.3935 6.17465 16.6136 6.02866 19.0859L5.36606 30.2964C5.07408 35.2283 8.53687 40.2685 13.25 41.7718L34.9969 48.704C39.4308 50.1183 44.4142 48.0263 46.6337 44.0168C49.4024 45.1209 66.5736 51.9647 66.5736 51.9647C69.5546 53.1512 72.8112 52.6589 75.2247 50.7913C75.2803 50.8506 75.4451 51.0328 75.4451 51.0328C78.8236 54.7359 84.797 55.2611 88.767 52.2038L100.401 43.2444C102.023 45.3002 106.66 51.1726 106.66 51.1726C108.194 53.1187 110.374 54.3071 112.799 54.5212C115.223 54.7363 117.58 53.9489 119.433 52.3045L127.839 44.8479C130.246 42.7131 131.56 39.4223 131.56 36.1748C131.56 34.431 131.181 32.699 130.389 31.1652L119.922 10.9051C117.623 6.45743 111.989 4.40586 107.363 6.33271Z" fill="white"/>
<path d="M34.279 29.42L44.4851 16.0695L15.6215 12.6536C11.587 12.1758 8.08979 15.0991 7.85056 19.1504L7.18654 30.3604C6.94777 34.4113 9.91891 38.7361 13.7891 39.9706L35.5359 46.9033C39.407 48.1373 43.8386 46.0778 45.3851 42.3253L45.678 41.6146L36.6591 38.0198C32.8836 36.5151 31.8137 32.6454 34.279 29.42Z" fill="#0090D4"/>
<path d="M60.5099 21.2651L63.7363 16.3755L56.8785 11.9772C53.4586 9.78448 48.6442 10.6293 46.1779 13.8547L44.4854 16.0696L48.3174 16.5228C52.3528 17.0005 54.3901 20.4621 52.8435 24.2151L45.6773 41.6146L67.2358 50.2063C70.2201 51.3957 73.4324 50.444 75.2832 48.094L61.4165 32.8845C58.6822 29.8827 58.2748 24.6538 60.5099 21.2651Z" fill="#97BE0D"/>
<path d="M48.3179 16.5228L44.4859 16.0696L34.2793 29.4201C31.8135 32.6459 32.884 36.5151 36.6585 38.0198L45.6774 41.6146L52.8436 24.2151C54.3902 20.4622 52.3529 17.0005 48.3179 16.5228Z" fill="#008C36"/>
<path d="M87.0663 17.8787L76.6934 10.1426C73.4322 7.71452 68.931 8.49957 66.6959 11.8883L63.7361 16.3754L76.0986 24.296C79.5223 26.4893 81.2704 31.4339 79.9895 35.2852L76.4401 45.9403C76.1823 46.7199 75.7908 47.4486 75.283 48.094L76.7909 49.7479C79.5285 52.7492 84.3979 53.1766 87.6163 50.6991L100.698 40.6243L87.7081 24.1633C86.0693 22.0863 85.9285 19.7124 87.0663 17.8787Z" fill="#E3004F"/>
<path d="M79.9896 35.2853C81.2711 31.434 79.522 26.4898 76.0988 24.2961L63.7362 16.3755L60.5098 21.2651C58.2748 24.6538 58.6821 29.8827 61.4164 32.884L75.2831 48.0941C75.7908 47.4487 76.1824 46.7199 76.4402 45.9404L79.9896 35.2853Z" fill="#A41D22"/>
<path d="M128.725 31.9672L118.258 11.7076C116.394 8.10098 111.802 6.42876 108.052 7.99038L89.9547 15.5288C88.6483 16.0724 87.6754 16.8989 87.0674 17.8787L103.075 29.8201C106.331 32.2482 106.361 36.2628 103.143 38.7418L100.699 40.6244L108.088 49.9865C110.602 53.1738 115.146 53.5762 118.184 50.8813L126.589 43.4252C129.627 40.7298 130.588 35.5743 128.725 31.9672Z" fill="#F29400"/>
<path d="M103.074 29.8206L87.067 17.8793C85.9293 19.7129 86.0691 22.0864 87.7089 24.1639L100.699 40.6249L103.143 38.7423C106.36 36.2634 106.33 32.2492 103.074 29.8206Z" fill="#CC071E"/>
<path d="M37.5292 30.8117C37.5292 29.0011 36.4889 27.6569 34.6494 27.6569C32.9366 27.6569 31.7697 28.8731 31.7697 31.0268C31.7697 33.7006 33.2668 34.4098 34.827 34.4098C36.0194 34.4098 36.6665 34.0427 37.338 33.3706L36.3368 32.395C35.9181 32.8129 35.5621 33.0153 34.8392 33.0153C33.9138 33.0153 33.3939 32.395 33.3939 31.5454H37.5292V30.8117ZM33.3939 30.4192C33.4062 30.1278 33.4438 29.9504 33.546 29.7099C33.7231 29.3164 34.0918 29.0251 34.6494 29.0251C35.207 29.0251 35.5753 29.3164 35.7524 29.7099C35.8541 29.9504 35.8922 30.1274 35.9045 30.4192H33.3939ZM55.1116 30.8117C55.1116 29.0011 54.0723 27.6569 52.2323 27.6569C50.52 27.6569 49.3525 28.8731 49.3525 31.0268C49.3525 33.7006 50.8501 34.4098 52.4103 34.4098C53.6018 34.4098 54.2488 34.0427 54.9213 33.3706L53.9192 32.395C53.5001 32.8129 53.145 33.0153 52.423 33.0153C51.4967 33.0153 50.9768 32.395 50.9768 31.5454H55.1111L55.1116 30.8117ZM50.9773 30.4192C50.9895 30.1278 51.0272 29.9504 51.1284 29.7099C51.3064 29.3164 51.6742 29.0251 52.2323 29.0251C52.7904 29.0251 53.1586 29.3164 53.3357 29.7099C53.437 29.9504 53.4751 30.1274 53.4878 30.4192H50.9773ZM70.0662 29.7099C69.8882 29.3164 69.5199 29.0251 68.9595 29.0251C68.4024 29.0251 68.035 29.3164 67.8565 29.7099C67.7558 29.9504 67.7181 30.1278 67.7054 30.4192H70.2188C70.206 30.1278 70.1674 29.9504 70.0662 29.7099ZM67.7049 31.5454C67.7049 32.395 68.2248 33.0153 69.1511 33.0153C69.875 33.0153 70.231 32.8129 70.6511 32.395L71.6551 33.3706C70.9817 34.0422 70.3332 34.4089 69.1384 34.4089C67.5777 34.4089 66.0816 33.6991 66.0816 31.0258C66.0816 28.8721 67.2481 27.656 68.9599 27.656C70.8032 27.656 71.8444 28.9997 71.8444 30.8108V31.5454H67.7049ZM87.7555 29.7099C87.5779 29.3164 87.2101 29.0251 86.6525 29.0251C86.0931 29.0251 85.7262 29.3164 85.5482 29.7099C85.4465 29.9504 85.4093 30.1278 85.3961 30.4192H87.9081C87.8953 30.1278 87.8567 29.9504 87.7555 29.7099ZM85.3966 31.5454C85.3966 32.395 85.9165 33.0153 86.8428 33.0153C87.5652 33.0153 87.9208 32.8129 88.339 32.395L89.3416 33.3706C88.6691 34.0422 88.0225 34.4089 86.8296 34.4089C85.2699 34.4089 83.7732 33.6991 83.7732 31.0258C83.7732 28.8721 84.9407 27.656 86.653 27.656C88.4916 27.656 89.5314 28.9997 89.5314 30.8108V31.5454H85.3966ZM108.128 29.4313C107.939 29.2411 107.685 29.1399 107.354 29.1399C107.024 29.1399 106.783 29.2416 106.594 29.4313C106.251 29.773 106.213 30.3429 106.213 31.0268C106.213 31.7106 106.251 32.2947 106.594 32.6359C106.783 32.8266 107.024 32.9277 107.354 32.9277C107.685 32.9277 107.938 32.8261 108.128 32.6359C108.471 32.2943 108.509 31.7106 108.509 31.0268C108.508 30.3429 108.471 29.7725 108.128 29.4313ZM109.411 33.5994C109.004 34.0295 108.332 34.4103 107.355 34.4103C106.377 34.4103 105.718 34.0295 105.312 33.5994C104.717 32.9781 104.565 32.2307 104.565 31.0268C104.565 29.837 104.717 29.0891 105.312 28.4679C105.718 28.0372 106.378 27.6569 107.355 27.6569C108.332 27.6569 109.004 28.0372 109.411 28.4679C110.006 29.0891 110.157 29.8365 110.157 31.0268C110.157 32.2293 110.005 32.9776 109.411 33.5994ZM18.3899 26.8846V34.3336H16.6272V26.8846H14.2668V25.3131H20.7493V26.8846H18.3899ZM27.3217 34.3336V30.0643C27.3217 28.6702 26.5611 27.6569 25.1144 27.6569C24.5314 27.6569 23.9733 27.8852 23.5283 28.3413V25.3131H21.8795V34.3336H23.5283V30.3043C23.5283 29.443 24.0746 29.1395 24.594 29.1395C25.1144 29.1395 25.6729 29.4308 25.6729 30.3043V34.3336H27.3217ZM28.8564 34.3341H30.5052V27.7336H28.8564V34.3341ZM28.831 26.606H30.5184V25.2627H28.831V26.606ZM48.1483 34.3336V30.1147C48.1483 29.3922 47.9581 28.7714 47.425 28.2401C47.0572 27.8725 46.461 27.6569 45.8017 27.6569C44.9766 27.6569 44.3809 27.9106 43.8233 28.4928C43.4046 27.9233 42.8084 27.6569 42.0728 27.6569C41.4634 27.6569 40.855 27.8984 40.4231 28.3413V27.7336H38.8125V34.3336H40.4617V30.3429C40.4617 29.4435 41.0452 29.1399 41.5651 29.1399C42.085 29.1399 42.6558 29.4435 42.6558 30.3429V34.3336H44.3046V30.3043C44.3046 29.443 44.9008 29.1395 45.4084 29.1395C45.9283 29.1395 46.4991 29.443 46.4991 30.3425V34.3331L48.1483 34.3336ZM64.6881 34.3336V25.3131H62.9494L60.6027 30.1904L58.2438 25.3131H56.5056V34.3336H58.2692V29.0759L60.007 32.4962H61.1989L62.9235 29.0759V34.3336H64.6881ZM78.5529 34.3336V27.7336H76.9018V31.7243C76.9018 32.6232 76.3169 32.9282 75.7961 32.9282C75.2747 32.9282 74.7035 32.6237 74.7035 31.7243V27.7336H73.0524V31.9521C73.0524 32.6736 73.1913 33.2949 73.7258 33.8267C74.0936 34.1943 74.6272 34.4098 75.2874 34.4098C75.8983 34.4098 76.5072 34.1816 76.9395 33.726V34.3336H78.5529ZM82.9689 34.3336V32.94H82.335C81.9168 32.94 81.751 32.7367 81.751 32.3441V25.3131H80.1028V32.4453C80.1028 33.3829 80.6731 34.3331 82.0312 34.3331L82.9689 34.3336ZM96.3072 34.3336V30.1147C96.3072 29.3922 96.1683 28.7714 95.6357 28.2401C95.2678 27.8725 94.7343 27.6569 94.0759 27.6569C93.466 27.6569 92.8571 27.8852 92.4258 28.3413V27.7336H90.8161V34.3336H92.4644V30.3429C92.4644 29.4435 93.0483 29.1399 93.5682 29.1399C94.0882 29.1399 94.6589 29.4435 94.6589 30.3429V34.3336H96.3072ZM103.293 34.3336V30.0643C103.293 28.6702 102.533 27.6569 101.086 27.6569C100.502 27.6569 99.9438 27.8852 99.4997 28.3413V25.3131H97.8509V34.3336H99.4997V30.3043C99.4997 29.443 100.046 29.1395 100.566 29.1395C101.086 29.1395 101.645 29.4308 101.645 30.3043V34.3336H103.293ZM114.598 29.1771V27.9233H113.38V27.2009C113.38 26.8206 113.559 26.6055 113.95 26.6055H114.598V25.2114H113.66C112.315 25.2114 111.732 26.1621 111.732 27.0992V27.9228H111.047V29.1767H111.732V34.3331H113.38V29.1771H114.598ZM119.052 29.1771V27.9233H117.834V27.2009C117.834 26.8206 118.012 26.6055 118.405 26.6055H119.052V25.2114H118.113C116.769 25.2114 116.185 26.1621 116.185 27.0992V27.9228H115.5V29.1767H116.185V34.3331H117.834V29.1771H119.052Z" fill="white"/>
</svg>
