<?xml version="1.0" encoding="UTF-8" standalone="no"?>
<!DOCTYPE svg PUBLIC "-//W3C//DTD SVG 1.1//EN" "http://www.w3.org/Graphics/SVG/1.1/DTD/svg11.dtd">
<svg width="100%" height="100%" viewBox="0 0 227 47" version="1.1" xmlns="http://www.w3.org/2000/svg" xmlns:xlink="http://www.w3.org/1999/xlink" xml:space="preserve" xmlns:serif="http://www.serif.com/" style="fill-rule:evenodd;clip-rule:evenodd;stroke-linejoin:round;stroke-miterlimit:2;">
    <g id="Group_105" transform="matrix(1,0,0,1,-16.704,-16.703)">
        <g id="Group_103" transform="matrix(1,0,0,1,16.704,31.97)">
            <g id="Path_122" transform="matrix(1,0,0,1,-16.704,-33.109)">
                <path d="M16.7,42.513L16.7,33.407L20.687,33.407L20.687,42.216C20.687,44.984 21.551,46.055 23.961,46.055C26.222,46.055 27.084,44.834 27.084,42.365L27.084,33.407L30.75,33.407L30.75,42.1C30.75,46.683 28.399,49.241 23.875,49.241C19.055,49.241 16.704,46.891 16.704,42.516" style="fill:white;fill-rule:nonzero;"/>
            </g>
            <g id="Path_123" transform="matrix(1,0,0,1,-17.898,-33.109)">
                <path d="M38.8,36.59L34.219,36.59L34.219,33.407L47.4,33.407L47.4,36.59L42.79,36.59L42.79,48.97L38.8,48.97L38.8,36.59Z" style="fill:white;fill-rule:nonzero;"/>
            </g>
            <g id="Path_124" transform="matrix(1,0,0,1,-19.033,-33.109)">
                <path d="M56.583,40.221C58.219,40.221 58.994,39.567 58.994,38.287C58.994,36.978 58.22,36.323 56.404,36.323L54.856,36.323L54.856,40.223L56.583,40.221ZM50.868,33.406L56.642,33.406C60.659,33.406 62.95,34.984 62.95,38.019C63.006,40.135 61.422,41.968 59.32,42.219L59.32,42.248C60.144,42.922 60.839,43.738 61.373,44.659L64.2,48.97L59.945,48.97L57.118,44.535C56.137,43.078 55.749,42.899 55.064,42.899L54.856,42.899L54.856,48.97L50.868,48.97L50.868,33.406Z" style="fill:white;fill-rule:nonzero;"/>
            </g>
            <g id="Path_125" transform="matrix(1,0,0,1,-20.178,-33.109)">
                <path d="M67.662,33.406L77.9,33.406L77.9,36.5L71.56,36.5L71.56,39.566L77.215,39.566L77.215,42.422L71.561,42.422L71.561,45.874L78.048,45.874L78.048,48.97L67.662,48.97L67.662,33.406Z" style="fill:white;fill-rule:nonzero;"/>
            </g>
            <g id="Path_126" transform="matrix(1,0,0,1,-21.107,-33.087)">
                <path d="M81.281,41.182C81.281,36.867 84.198,33.087 89.852,33.087C91.577,32.995 93.287,33.455 94.733,34.4L93.033,37.287C92.095,36.625 90.966,36.291 89.819,36.335C87.051,36.335 85.504,38.269 85.504,41.035C85.504,43.952 86.961,45.976 89.849,45.976C91.124,46.018 92.376,45.618 93.39,44.844L94.908,47.672C93.385,48.736 91.557,49.278 89.7,49.217C84.046,49.217 81.278,45.467 81.278,41.182" style="fill:white;fill-rule:nonzero;"/>
            </g>
            <g id="Path_127" transform="matrix(1,0,0,1,-22.289,-33.109)">
                <path d="M98.624,33.406L102.612,33.406L102.612,39.328L109.278,39.328L109.278,33.406L113.206,33.406L113.206,48.97L109.278,48.97L109.278,42.543L102.612,42.543L102.612,48.97L98.624,48.97L98.624,33.406Z" style="fill:white;fill-rule:nonzero;"/>
            </g>
            <g id="Path_128" transform="matrix(1,0,0,1,-23.528,-33.109)">
                <path d="M121.373,36.59L116.79,36.59L116.79,33.406L129.973,33.406L129.973,36.59L125.36,36.59L125.36,48.97L121.372,48.97L121.373,36.59Z" style="fill:white;fill-rule:nonzero;"/>
            </g>
            <g id="Path_129" transform="matrix(1,0,0,1,-24.624,-33.109)">
                <path d="M132.868,46.441L139.98,36.561L133.136,36.561L133.136,33.406L144.772,33.406L144.772,35.906L137.629,45.846L145.01,45.846L145.01,48.97L132.868,48.97L132.868,46.441Z" style="fill:white;fill-rule:nonzero;"/>
            </g>
            <g id="Path_130" transform="matrix(1,0,0,1,-25.642,-33.087)">
                <path d="M160.682,41.182C160.682,38.534 159.432,36.241 156.397,36.241C153.362,36.241 152.022,38.503 152.022,41.092C152.022,43.771 153.361,46.061 156.337,46.061C159.403,46.061 160.682,43.799 160.682,41.181M147.797,41.181C147.797,37.014 150.773,33.086 156.337,33.086C161.901,33.086 164.879,36.806 164.879,41.091C164.879,45.376 162.051,49.216 156.397,49.216C150.832,49.216 147.797,45.466 147.797,41.181" style="fill:white;fill-rule:nonzero;"/>
            </g>
            <g id="Path_131" transform="matrix(1,0,0,1,-27.119,-33.109)">
                <path d="M175.177,40.221C176.813,40.221 177.588,39.567 177.588,38.287C177.588,36.978 176.814,36.323 174.999,36.323L173.45,36.323L173.45,40.223L175.177,40.221ZM169.462,33.406L175.236,33.406C179.253,33.406 181.544,34.984 181.544,38.019C181.6,40.135 180.017,41.967 177.915,42.219L177.915,42.248C178.738,42.922 179.434,43.739 179.968,44.659L182.8,48.97L178.543,48.97L175.717,44.535C174.735,43.078 174.347,42.899 173.663,42.899L173.454,42.899L173.454,48.97L169.466,48.97L169.462,33.406Z" style="fill:white;fill-rule:nonzero;"/>
            </g>
            <g id="Path_132" transform="matrix(1,0,0,1,-28.181,-33.087)">
                <path d="M185.034,41.182C185.034,36.867 188.334,33.087 194.14,33.087C196.033,32.987 197.912,33.464 199.527,34.456L197.86,37.373C196.724,36.68 195.411,36.329 194.081,36.362C190.866,36.362 189.231,38.177 189.231,41.093C189.231,44.039 190.688,46.093 193.873,46.093C194.701,46.112 195.524,45.949 196.283,45.616L196.283,42.967L193.515,42.967L193.515,40.167L200.062,40.167L200.062,47.726C198.169,48.822 195.996,49.339 193.812,49.214C188.069,49.214 185.034,45.435 185.034,41.179" style="fill:white;fill-rule:nonzero;"/>
            </g>
        </g>
        <g id="Group_104" transform="matrix(1,0,0,1,196.364,16.703)">
            <g id="Path_133" transform="matrix(1,0,0,1,-210.648,-17.842)">
                <path d="M226.212,33.406L257.34,33.406L226.212,64.535L226.212,33.406Z" style="fill:white;fill-opacity:0.5;fill-rule:nonzero;"/>
            </g>
            <g id="Path_134" transform="matrix(1,0,0,1,-209.509,-16.703)">
                <path d="M240.638,47.832L209.509,47.832L240.638,16.7L240.638,47.832Z" style="fill:white;fill-rule:nonzero;"/>
            </g>
        </g>
    </g>
</svg>
