<svg xmlns="http://www.w3.org/2000/svg" viewBox="0 0 201.8 109.3"><path clip-rule="evenodd" d="M201.6 19.1c-.4-.9-1.4-1.7-9.6-4.9-.4-.1-.6-.3-.8-.3-.5-.2-2.5-1.6-4.2-2.8-.2-.2-2.3-2.1-6.9-6-3.2-2.8-5.3-3.8-7.3-3.8-.9 0-1.6.3-2.4.5-2.9.9-8.2 8.1-9.3 9.9-1 1.6-2.7 2.7-4.1 3.5-.7.4-1 .9-1.4 1.2-.8.6-1.5 1.5-2.2 2.3-.5.6-1 1.1-1.3 1.4-.3.3-.7.5-1.6 1.1h-.1c-1 .7-2.8 1.9-6.3 4.3-6.7 4.6-9.2 13.8-9.2 13.9-.1.2-.7 1.1-1.5 1.5h-.1-.4c-.6.2-1.4.5-1.5.5-.8.4-2.5 1.2-4.2 2.1l-.2.2s-.1 0-.2.1l-.1.1c-.7.4-3.2 1.8-5 2.1l-1.8.3c-1.8.3-3.7.7-5.7 1.4-2 .8-5.4 1.6-8.2 1.7h-1.2c-.4 0-.7-.1-1-.1h-1.5c-1.6.1-3.7.3-5.3 1.2-1.6.3-2.6.8-1.5 1.5-.1.1 1.1.9 1.2.9h.1c.2.1.4.2.7.2h.2c2.2.6 4.1.1 4.1.1 1.4-.2 3.7-.5 6.5-.3 1.9.1 3.5.3 4.8.5 0 0 1.1.1 2.1.1h2c2.2-.1 3.8-.2 4.9-.5 2.4-.5 6.8-1.9 9.5-3-.4 1-.2 2.2 0 3-.3.2-.9.9-.9 1.3s1.3 1.4 2 1.9l.1.1.3.3.1.5c.3 1.1 1 3.2 3.3 3.2H138.3c1.4-.1 3.4-.4 5-2.4 2-2.7 2.5-4.6 1.5-6.7-.2-.4-.3-.8-.5-1.1-.3-.7-.6-1.5-1.7-1.9-.2-.1-.4-.2-.6-.2.2-.3.5-.8.8-1.2.3-.3.7-.5 1.2-.9.9-.5 2-1.2 3.7-2.7 2.8-2.5 6.5-9.4 6.9-10.2l.1-.2c0-.1 1-3 4.1-3.5 4.4-.7 5.9-3.1 6.7-4.2.5-.7 1.1-2 1.5-3.1.3-.6.7-1.5.8-1.7.2-.3.5-.8 1.1-2 1-1.9 1.7-4.4 2.8-5.9.3-.4.7-1 1-1.5.5-.7.9-.4 1-.3.8.9 2.4 2 5.7 3.6.7.3 1.5.5 2.3.6 3.7.5 5 1.4 5.5 1.9.1.1.2.1.3.2.1.1.2.2.3.2.1.1.4.4.6.7.7.9 1.4 2.3 2.5 2.6.3.1.6.1.9.1.3 0 .5-.1.8-.1.2-.1.4-.1.6-.2.1 0 .2-.1.2-.1 1-.2 2.7-.5 4.8.3.2.1.3.1.5.2s.5.2.7.3c2 .7 2.2-.7 2.3-1 .1 0 .1-.3-.1-.8" fill="#c3c910" fill-rule="evenodd"></path><path clip-rule="evenodd" d="M50.1 72.8l-8.3 26.3-8.4-26.3h-5.7L39.6 109h4.3l12-36.2zM61.6 109h5.2V83.2h-5.2V109zm-.2-30.9h5.5v-5.5h-5.5v5.5zM83.2 109c-4.9 0-7.1-3.3-7.1-7.1V72.8h5.2v28.8c0 2 .7 3 2.8 3h2.3v4.4h-3.2zM107.3 109v-2.3c-1.9 1.9-3.7 2.6-6.9 2.6s-5.3-.8-6.9-2.3c-1.3-1.4-2-3.4-2-5.6 0-4.3 3-7.4 9-7.4h6.8v-1.8c0-3.3-1.6-4.8-5.7-4.8-2.8 0-4.2.7-5.7 2.5l-3.4-3.2c2.4-2.9 4.9-3.8 9.2-3.8 7.1 0 10.6 3.1 10.6 8.9V109h-5zm-.1-11.4h-6c-3.2 0-4.7 1.3-4.7 3.7 0 2.4 1.5 3.7 4.9 3.7 1.8 0 3.3-.2 4.7-1.5.8-.8 1.1-2 1.1-3.8v-2.1zM136.3 109V93.3c0-4-2.3-5.8-5.2-5.8-2.9 0-5.3 1.8-5.3 5.8V109h-5.2V83.2h5.1v2.6c1.8-1.9 4.3-2.9 6.9-2.9 2.6 0 4.8.9 6.4 2.3 2 1.9 2.6 4.4 2.6 7.3V109h-5.3zM158 109.3c-4.2 0-7.8-.7-10.8-3.7l3.4-3.4c2.1 2.1 4.9 2.7 7.4 2.7 3.2 0 5.7-1.1 5.7-3.6 0-1.8-1-2.8-3.5-3.1l-4.1-.4c-4.9-.5-7.6-2.6-7.6-7.1 0-5.1 4.3-7.9 9.7-7.9 3.9 0 7.2.8 9.6 2.9l-3.3 3.3c-1.6-1.4-3.9-1.9-6.4-1.9-3.2 0-4.7 1.3-4.7 3.3 0 1.8 1 2.7 3.6 3l3.6.3c5.3.5 8.1 2.8 8.1 7.3 0 5.5-4.5 8.3-10.7 8.3" fill="#613670" fill-rule="evenodd"></path><path clip-rule="evenodd" d="M97.3 53.7z" fill="none"></path><path clip-rule="evenodd" d="M100.4 48.6h-2c-.6 0-1.3.1-1.8.2h-.2c-.8.2-1.8.8-3.3.6-1.6-.2-6.3-2.6-6.3-2.6-.5-.2-.9-.4-1.2-.6-1.9-1-3.7-1.6-5.5-2.1l-1.8-.6c-1.7-.6-3.9-2.1-4.8-2.8l-.1-.1c-.1-.1-.2-.1-.2-.1l-.3-.3c-.2-.2-.3-.4-.4-.5h.6l.7-.1c1.6-.2 2.7-2.1 2.9-2.8.3 0 .7 0 .8-.1.3-.1.3-.9.3-1.7v-1-.2c0-.2 0-.3.1-.5l.1-.2c.1-.1.1-.3.2-.5.5-1.1 1.1-2.9-.6-4.2-.2-.2-.4-.3-.6-.5l-.6-.6c-.9-.8-2.2-1.7-4.2-1.7-.4 0-.8 0-1.2.1-3.3.6-5 1.7-5.6 3.9-.1.5-.3.8-.4 1.1-.3.7-.6 1.5 0 2.6l.3.6c-.3.1-.8.2-1.3.3h-.1c-.9 0-3.5 0-7.6.1h-.7c-3.5 0-5.9-.1-6.2-.2-.3-.1-2-1.3-2.9-2.2l-.4-.4-.3-.3c-1.2-1.3-2.2-2.2-3-2.6-.7-.4-2.1-1-3.4-1h-.5l-.4.1c-.5.1-1 .2-1.4.2h-.4c-.5-.3-5.8-3.9-6.5-4.5-.4-.4-.9-.8-1.4-1.3h-.1c-.6-.5-1.2-1-1.7-1.5-.7-.7-1.4-2-1.9-3.3-.5-1.4-1.8-3.6-3.9-5.3l-1.9-1.5c-.5-.5-.9-.8-1.3-1.1-1.9-1.5-3-4.4-3.3-5.1V4c-.1-.8-.1-2-1.1-2.8-.6-.5-1.4-.7-2.5-.5l-.2.1s-.1 0-.2.1c-.1 0-.3.1-.5.1-.1 0-.2 0-.3.1-.1 0-.3.1-.4.1h-.1c-3 .5-6.7-.9-6.7-.9S.8-.7.1.9c-.2.6-.1 1.4.5 1.9.8.9 5.1 3.3 6.6 3.7.1 0 .1.1.2.1l.3.2s3.1 1.8 5.7 5.9c.1.1.1.2.2.3l.1.1c1 1.9 2.4 4.2 3 5.1.4.6.8 1.5 1.1 2 0 0 .1.2.1.3.2.6.6 2.1.9 2.8l.1.1c.7 1.6 2.1 3.3 4.3 5.1 3.6 3 5.7 5.6 6.7 6.8l.1.1c.3.3.4.5.6.7.7.7 4.6 3.9 6.4 4.8l.6.3c2.5 1.3 9.2 4.6 14.7 5.5 1.2.2 2.5.3 3.7.2 2.8-.1 5.1-.8 6.3-1.3l.8-.3s.6-.3 1.2-.3c.3 0 .6.1.8.2l.1.1c.1.1.2.1.3.2 1.4 1.2 8 4.3 11.2 5.4 2.7.9 8.2 1.5 9.9 1.6 0 0 2.6.1 4.5.5.2 0 1.1.3 2.1.5 0 0 2.5.4 4.3-.1.5-.1 1-.3 1.3-.6 1.5-1.3 2.9-2.9 4-3 .3-.1.6-1-2.4-1.2" fill="#613670" fill-rule="evenodd"></path><path clip-rule="evenodd" d="M99.8 48.4c-.2-.2-1.2-.4-1.7-.4 0 0-1.2 0-2.1.8l-.7.7s-.2.2-.2.3c0 .1-.1.2 0 .3h.1c.4.2 1.1.3 1.9.1.9-.3 1.5-.9 1.9-1.4.2-.2.4-.3.4-.3.1 0 .2-.1.3-.1 0 .2.3.2.1 0" fill="#c3c910" fill-rule="evenodd"></path></svg>