<?xml version="1.0" encoding="UTF-8" standalone="no"?>
<svg
   viewBox="0 0 45 30"
   width="900"
   height="600"
   version="1.1"
   id="svg7"
   sodipodi:docname="Flag_of_the_United_Kingdom.svg"
   inkscape:export-filename="../../care-up/Assets/Resources/Sprites/Flag_of_the_United_Kingdom.png"
   inkscape:export-xdpi="32"
   inkscape:export-ydpi="32"
   inkscape:version="1.3.2 (091e20ef0f, 2023-11-25, custom)"
   xmlns:inkscape="http://www.inkscape.org/namespaces/inkscape"
   xmlns:sodipodi="http://sodipodi.sourceforge.net/DTD/sodipodi-0.dtd"
   xmlns="http://www.w3.org/2000/svg"
   xmlns:svg="http://www.w3.org/2000/svg">
  <defs
     id="defs7">
    <clipPath
       clipPathUnits="userSpaceOnUse"
       id="clipPath13">
      <rect
         style="fill:#ff0000;stroke:none;stroke-width:2.71871;stroke-linecap:round;stroke-linejoin:round;paint-order:stroke fill markers"
         id="rect14"
         width="60"
         height="30"
         x="0"
         y="0"
         ry="5.4277511" />
    </clipPath>
    <clipPath
       clipPathUnits="userSpaceOnUse"
       id="clipPath14">
      <rect
         style="fill:#ff0000;stroke:none;stroke-width:2.57845;stroke-linecap:round;stroke-linejoin:round;paint-order:stroke fill markers"
         id="rect15"
         width="56.904583"
         height="28.452291"
         x="1.5477095"
         y="0.77385455"
         ry="5.1477323" />
    </clipPath>
  </defs>
  <sodipodi:namedview
     id="namedview7"
     pagecolor="#ffffff"
     bordercolor="#000000"
     borderopacity="0.25"
     inkscape:showpageshadow="2"
     inkscape:pageopacity="0.0"
     inkscape:pagecheckerboard="0"
     inkscape:deskcolor="#d1d1d1"
     inkscape:zoom="0.3225"
     inkscape:cx="2049.6124"
     inkscape:cy="568.99225"
     inkscape:window-width="1920"
     inkscape:window-height="1003"
     inkscape:window-x="0"
     inkscape:window-y="0"
     inkscape:window-maximized="1"
     inkscape:current-layer="svg7" />
  <clipPath
     id="s">
    <path
       d="M 0,0 V 30 H 60 V 0 Z"
       id="path1" />
  </clipPath>
  <clipPath
     id="t">
    <path
       d="m 30,15 h 30 v 15 z m 0,0 V 30 H 0 Z m 0,0 H 0 V 0 Z m 0,0 V 0 h 30 z"
       id="path2" />
  </clipPath>
  <g
     clip-path="url(#clipPath13)"
     id="g7"
     transform="scale(0.75,1)"
     inkscape:export-filename="../../care-up/Assets/Resources/Sprites/Flag_of_the_United_Kingdom.png"
     inkscape:export-xdpi="32"
     inkscape:export-ydpi="32">
    <path
       d="M 0,0 V 30 H 60 V 0 Z"
       fill="#012169"
       id="path3" />
    <path
       d="M 0,0 60,30 M 60,0 0,30"
       stroke="#ffffff"
       stroke-width="6"
       id="path4" />
    <path
       d="M 0,0 60,30 M 60,0 0,30"
       clip-path="url(#t)"
       stroke="#c8102e"
       stroke-width="4"
       id="path5" />
    <path
       d="M 30,0 V 30 M 0,15 h 60"
       stroke="#ffffff"
       stroke-width="10"
       id="path6" />
    <path
       d="M 30,0 V 30 M 0,15 h 60"
       stroke="#c8102e"
       stroke-width="6"
       id="path7" />
  </g>
  <g
     id="g15"
     inkscape:export-filename="../../care-up/Assets/Resources/Sprites/Flag_of_the_United_Kingdom_s.png"
     inkscape:export-xdpi="32"
     inkscape:export-ydpi="32">
    <g
       clip-path="url(#clipPath14)"
       id="g12"
       transform="matrix(0.75,0,0,1,56.526901,0)">
      <path
         d="M 0,0 V 30 H 60 V 0 Z"
         fill="#012169"
         id="path8" />
      <path
         d="M 0,0 60,30 M 60,0 0,30"
         stroke="#ffffff"
         stroke-width="6"
         id="path9" />
      <path
         d="M 0,0 60,30 M 60,0 0,30"
         clip-path="url(#t)"
         stroke="#c8102e"
         stroke-width="4"
         id="path10" />
      <path
         d="M 30,0 V 30 M 0,15 h 60"
         stroke="#ffffff"
         stroke-width="10"
         id="path11" />
      <path
         d="M 30,0 V 30 M 0,15 h 60"
         stroke="#c8102e"
         stroke-width="6"
         id="path12" />
    </g>
    <rect
       style="fill:none;stroke:#ffff00;stroke-width:2.32156;stroke-linecap:round;stroke-linejoin:round;paint-order:stroke fill markers"
       id="rect12"
       width="42.67844"
       height="27.678444"
       x="57.687679"
       y="1.160778"
       ry="3.1599677" />
  </g>
  <g
     id="g20"
     inkscape:export-filename="../../care-up/Assets/Resources/Sprites/Flag_of_the_United_Kingdom_h.png"
     inkscape:export-xdpi="32"
     inkscape:export-ydpi="32"
     transform="translate(55.520672)">
    <g
       clip-path="url(#clipPath14)"
       id="g19"
       transform="matrix(0.75,0,0,1,56.526901,0)">
      <path
         d="M 0,0 V 30 H 60 V 0 Z"
         fill="#012169"
         id="path15" />
      <path
         d="M 0,0 60,30 M 60,0 0,30"
         stroke="#ffffff"
         stroke-width="6"
         id="path16" />
      <path
         d="M 0,0 60,30 M 60,0 0,30"
         clip-path="url(#t)"
         stroke="#c8102e"
         stroke-width="4"
         id="path17" />
      <path
         d="M 30,0 V 30 M 0,15 h 60"
         stroke="#ffffff"
         stroke-width="10"
         id="path18" />
      <path
         d="M 30,0 V 30 M 0,15 h 60"
         stroke="#c8102e"
         stroke-width="6"
         id="path19" />
    </g>
    <rect
       style="fill:none;stroke:#ffffff;stroke-width:2.32156;stroke-linecap:round;stroke-linejoin:round;paint-order:stroke fill markers"
       id="rect19"
       width="42.67844"
       height="27.678444"
       x="57.687679"
       y="1.160778"
       ry="3.1599677" />
  </g>
</svg>
