<svg class="svg--brand-logo" xmlns="http://www.w3.org/2000/svg" xmlns:xlink="http://www.w3.org/1999/xlink" width="94" height="32" viewBox="0 0 94 32"><defs><path id="logo-a" d="M0 .088v22.308h21.652V.088z"></path></defs><g fill="none" fill-rule="evenodd"><g transform="translate(0 4.015)"><mask id="logo-b" fill="#fff"><use xlink:href="#logo-a"></use></mask><path fill="#E23100" fill-rule="nonzero" d="M8.836 22.396L0 .088h4.308l5.003 13.36a62.839 62.839 0 011.515 4.495c.355-1.176.85-2.59 1.487-4.243L17.542.088h4.11l-8.915 22.308h-3.9z" mask="url(#logo-b)"></path></g><path fill="#E23100" fill-rule="nonzero" d="M58.707 26.41L49.87 4.104h4.31l5.003 13.36a63.103 63.103 0 011.514 4.495c.355-1.177.85-2.59 1.486-4.244l5.23-13.61h4.11L62.606 26.41h-3.9z"></path><path fill="#5D3297" fill-rule="nonzero" d="M74.394 26.41V4.104h3.641v3.17c1.73-2.441 4.226-3.662 7.493-3.662 1.418 0 2.723.241 3.914.724 1.189.484 2.079 1.117 2.67 1.9.591.784 1.006 1.716 1.242 2.792.147.701.22 1.925.22 3.674v13.71h-4.03V12.836c0-1.54-.156-2.692-.465-3.457-.309-.764-.857-1.372-1.646-1.828-.787-.455-1.713-.683-2.773-.683-1.696 0-3.16.51-4.39 1.534-1.23 1.023-1.845 2.962-1.845 5.82v12.189h-4.03z"></path><path fill="#E23100" fill-rule="nonzero" d="M37.508 2.615l-.03 3.845s2.028-1.93 2.855-2.45c1.412-.883 2.669-.907 3.576-.23.942.702 1.3 2.002.194 3.537-.21.289-.027.261-5.454 5.28-5.424 5.021-5.236 4.948-5.236 4.948l2.242 2.628s9.947-9.6 11.133-10.853c.886-.935 2.84-4.907-.23-7.822-3.034-2.883-6.469-.898-7.744.124 0 0-.83.578-1.306.993"></path><path fill="#5D3297" fill-rule="nonzero" d="M45.012 11.09a851.51 851.51 0 01-2.874 2.805c1.428 1.483 2.298 3.448 2.298 5.606 0 4.616-3.983 8.36-8.897 8.36s-8.897-3.744-8.897-8.36c0-2.298 1.144-4.186 2.58-5.888l1.514-1.819s-2.272-2.69-3.318-4.17c-.537-.759-1.126-2.305.218-3.582 1.252-1.186 2.664-.758 4.027.202.798.564 2.656 2.308 2.656 2.308l.006-3.844c-.476-.415-.442-.458-1.25-1.015-1.046-.72-4.523-3.139-7.954.157-2.744 2.637-1.66 6.283-.33 7.8 0 0 1.332 1.578 1.345 1.591-2.366 2.218-3.63 4.871-3.63 8.26 0 6.764 5.834 12.247 13.033 12.247S48.574 26.265 48.574 19.5c0-3.273-1.337-6.214-3.562-8.411"></path></g></svg>