<?xml version="1.0" encoding="UTF-8" standalone="no"?>
<!-- Created with Inkscape (http://www.inkscape.org/) -->

<svg
   width="1690.1888"
   height="239.22246"
   viewBox="0 0 447.19579 63.294275"
   version="1.1"
   id="svg5"
   xml:space="preserve"
   inkscape:version="1.2.2 (732a01da63, 2022-12-09)"
   sodipodi:docname="partners.svg"
   xmlns:inkscape="http://www.inkscape.org/namespaces/inkscape"
   xmlns:sodipodi="http://sodipodi.sourceforge.net/DTD/sodipodi-0.dtd"
   xmlns:xlink="http://www.w3.org/1999/xlink"
   xmlns="http://www.w3.org/2000/svg"
   xmlns:svg="http://www.w3.org/2000/svg"><sodipodi:namedview
     id="namedview7"
     pagecolor="#767676"
     bordercolor="#000000"
     borderopacity="0.25"
     inkscape:showpageshadow="2"
     inkscape:pageopacity="1"
     inkscape:pagecheckerboard="0"
     inkscape:deskcolor="#d1d1d1"
     inkscape:document-units="mm"
     showgrid="false"
     inkscape:zoom="0.74564394"
     inkscape:cx="863.01245"
     inkscape:cy="117.34823"
     inkscape:window-width="1920"
     inkscape:window-height="1017"
     inkscape:window-x="-8"
     inkscape:window-y="-8"
     inkscape:window-maximized="1"
     inkscape:current-layer="layer1"
     showguides="true" /><defs
     id="defs2"><linearGradient
       inkscape:collect="always"
       id="linearGradient34949"><stop
         style="stop-color:#ffffff;stop-opacity:0;"
         offset="0"
         id="stop34945" /><stop
         style="stop-color:#ffffff;stop-opacity:0.49238577;"
         offset="0.33817708"
         id="stop36484" /><stop
         style="stop-color:#ffffff;stop-opacity:0.50196078;"
         offset="0.49400756"
         id="stop36482" /><stop
         style="stop-color:#ffffff;stop-opacity:0;"
         offset="1"
         id="stop34947" /></linearGradient><linearGradient
       inkscape:collect="always"
       xlink:href="#linearGradient7714"
       id="linearGradient7716"
       x1="40.656204"
       y1="345.7446"
       x2="40.656204"
       y2="337.76752"
       gradientUnits="userSpaceOnUse" /><linearGradient
       inkscape:collect="always"
       id="linearGradient7714"><stop
         style="stop-color:#50bcb7;stop-opacity:1;"
         offset="0"
         id="stop7710" /><stop
         style="stop-color:#73d0d8;stop-opacity:1;"
         offset="1"
         id="stop7712" /></linearGradient><linearGradient
       inkscape:collect="always"
       xlink:href="#linearGradient34949"
       id="linearGradient34951"
       x1="195.68648"
       y1="207.47188"
       x2="195.68648"
       y2="165.79469"
       gradientUnits="userSpaceOnUse"
       gradientTransform="matrix(1,0,0,1.3681541,0,-76.322573)" /><filter
       inkscape:collect="always"
       style="color-interpolation-filters:sRGB"
       id="filter38071"
       x="-0.010701117"
       y="-0.08487593"
       width="1.0214022"
       height="1.1697519"><feGaussianBlur
         inkscape:collect="always"
         stdDeviation="1.9785449"
         id="feGaussianBlur38073" /></filter></defs><g
     inkscape:label="Layer 1"
     inkscape:groupmode="layer"
     id="layer1"
     transform="translate(-28.202606,-149.07521)"><rect
       style="opacity:0.959184;mix-blend-mode:normal;fill:url(#linearGradient34951);fill-opacity:1;stroke-width:0.323058px;-inkscape-stroke:none;paint-order:fill markers stroke;filter:url(#filter38071);stop-color:#000000"
       id="rect31171"
       width="443.73947"
       height="55.946461"
       x="29.930775"
       y="151.36502"
       ry="22.342085"
       transform="matrix(0.98614074,0,0,0.9240911,3.4897683,15.387562)" /><path
       id="text184"
       style="font-weight:bold;font-size:10.5461px;font-family:'Droid Sans';-inkscape-font-specification:'Droid Sans Bold';text-align:center;text-anchor:middle;fill:#363636;stroke:none;stroke-width:1.461;stroke-linecap:round;stroke-linejoin:round;stroke-dasharray:none;paint-order:stroke fill markers;fill-opacity:1"
       d="m 261.96301,152.80526 v 8.01243 h 1.57045 v -1.79162 l 0.61288,-0.4222 1.40044,2.21382 h 1.8128 l -2.21433,-3.25924 2.08049,-2.49752 h -1.77147 l -1.40611,1.7508 -0.57671,0.8754 h -0.0207 l 0.0827,-1.30793 v -3.57394 z m 7.00836,0 c -0.11672,0 -0.22844,0.0121 -0.33486,0.0362 -0.10299,0.024 -0.19389,0.0669 -0.27285,0.12867 -0.0755,0.0584 -0.13572,0.13713 -0.18035,0.23668 -0.0446,0.0961 -0.0667,0.21825 -0.0667,0.36587 0,0.14419 0.022,0.2658 0.0667,0.36535 0.0446,0.0996 0.10482,0.18057 0.18035,0.24237 0.079,0.0584 0.16986,0.10121 0.27285,0.12867 0.10642,0.024 0.21814,0.0362 0.33486,0.0362 0.11672,0 0.22619,-0.0121 0.32918,-0.0362 0.10299,-0.0275 0.19268,-0.0703 0.2682,-0.12867 0.079,-0.0618 0.14037,-0.14281 0.185,-0.24237 0.0481,-0.0995 0.0723,-0.22116 0.0723,-0.36535 0,-0.14762 -0.0243,-0.26974 -0.0723,-0.36587 -0.0446,-0.0996 -0.10604,-0.17831 -0.185,-0.23668 -0.0755,-0.0618 -0.16521,-0.10464 -0.2682,-0.12867 -0.10299,-0.024 -0.21246,-0.0362 -0.32918,-0.0362 z m -73.95672,0.4842 v 0.90641 l 0.91674,0.4222 v 4.87153 l -0.91674,0.4222 v 0.90589 h 3.42459 v -0.90589 l -0.91674,-0.4222 v -4.87153 l 0.91674,-0.4222 v -0.90641 z m 108.35514,0.54571 -0.4532,1.21543 -0.86507,0.52503 v 0.66456 h 0.7519 v 2.77554 c 0,0.37076 0.0446,0.67938 0.13384,0.92656 0.0927,0.24374 0.21777,0.43943 0.37569,0.58704 0.15791,0.14419 0.34492,0.2455 0.5612,0.30386 0.21628,0.0584 0.44961,0.0879 0.70022,0.0879 0.25747,0 0.49479,-0.026 0.71106,-0.0775 0.21971,-0.0481 0.40326,-0.10948 0.55088,-0.18501 v -1.16892 c -0.14419,0.0515 -0.28662,0.0943 -0.42737,0.12868 -0.13732,0.0343 -0.28321,0.0512 -0.4377,0.0512 -0.17851,0 -0.32267,-0.0533 -0.43253,-0.15968 -0.10985,-0.10643 -0.16485,-0.27089 -0.16485,-0.49403 v -2.77554 h 1.40043 v -1.17926 h -1.40043 v -1.22576 z m -87.12905,1.10742 c -0.38449,0 -0.75209,0.0463 -1.10226,0.13901 -0.35016,0.0927 -0.66919,0.21951 -0.95756,0.38086 l 0.51004,1.04025 c 0.23688,-0.12016 0.47195,-0.21627 0.70539,-0.28836 0.23687,-0.0721 0.47888,-0.108 0.72605,-0.108 0.24718,0 0.43939,0.0562 0.57671,0.1695 0.13732,0.11328 0.20567,0.28867 0.20567,0.52555 v 0.43253 l -0.91622,0.031 c -0.77928,0.0309 -1.36461,0.19189 -1.75597,0.48369 -0.39135,0.28837 -0.58704,0.73821 -0.58704,1.34928 0,0.3124 0.0411,0.58389 0.12351,0.8139 0.0824,0.22658 0.19533,0.41532 0.33951,0.56637 0.14762,0.14762 0.32127,0.25882 0.52038,0.33435 0.19912,0.0721 0.4151,0.10852 0.64854,0.10852 0.21971,0 0.41245,-0.0173 0.57723,-0.0517 0.16821,-0.0343 0.3188,-0.0876 0.45268,-0.15968 0.13389,-0.0721 0.25775,-0.16299 0.37104,-0.27285 0.11329,-0.11329 0.22674,-0.24704 0.34003,-0.40152 h 0.046 l 0.30386,0.78238 h 1.09709 v -3.83594 c 0,-0.6866 -0.19221,-1.19836 -0.57671,-1.53479 -0.38106,-0.33644 -0.93047,-0.50437 -1.64796,-0.50437 z m -13.51752,0.0103 c -0.16478,0 -0.32578,0.0168 -0.48369,0.0512 -0.15792,0.0309 -0.30728,0.0807 -0.44804,0.14934 -0.14075,0.0687 -0.27155,0.1561 -0.3917,0.26252 -0.11672,0.10642 -0.2163,0.23375 -0.29869,0.38137 h -0.0873 l -0.21135,-0.73639 H 199.603 v 5.75676 h 1.57044 v -2.70836 c 0,-0.30554 0.0173,-0.57652 0.0517,-0.81339 0.0343,-0.23688 0.0905,-0.43603 0.1695,-0.59738 0.0824,-0.16135 0.19238,-0.28348 0.32969,-0.36587 0.13732,-0.0824 0.30924,-0.12351 0.51522,-0.12351 0.27464,0 0.47327,0.10478 0.59686,0.3142 0.12702,0.20597 0.19069,0.51633 0.19069,0.93172 v 3.36259 h 1.57044 v -3.75378 c 0,-0.37076 -0.0446,-0.68806 -0.13384,-0.9524 -0.0893,-0.26777 -0.21607,-0.48774 -0.38085,-0.65939 -0.16479,-0.17164 -0.36221,-0.29673 -0.59222,-0.37568 -0.23,-0.0824 -0.48589,-0.12351 -0.76739,-0.12351 z m 8.07444,0 c -0.32613,0 -0.62313,0.0342 -0.8909,0.10284 -0.26434,0.0652 -0.49073,0.1648 -0.67954,0.29869 -0.18882,0.13388 -0.33471,0.30181 -0.4377,0.50436 -0.10299,0.19911 -0.15452,0.43296 -0.15452,0.70073 0,0.24374 0.029,0.45452 0.0873,0.63304 0.0584,0.17508 0.14579,0.33138 0.26251,0.4687 0.12016,0.13732 0.27126,0.2624 0.45321,0.37569 0.18538,0.10985 0.40361,0.22157 0.65422,0.33486 0.25747,0.11672 0.46183,0.2163 0.61288,0.29869 0.15449,0.079 0.27089,0.1513 0.34985,0.21653 0.079,0.0618 0.12875,0.12147 0.14935,0.17983 0.024,0.0549 0.0362,0.11859 0.0362,0.19069 0,0.0721 -0.0156,0.14096 -0.0465,0.20619 -0.0275,0.0618 -0.0738,0.11678 -0.13901,0.16484 -0.0618,0.0446 -0.14229,0.0805 -0.24184,0.10801 -0.0996,0.024 -0.21995,0.0362 -0.36071,0.0362 -0.12702,0 -0.26597,-0.0121 -0.41703,-0.0362 -0.14761,-0.024 -0.30045,-0.0565 -0.45837,-0.0977 -0.15791,-0.0446 -0.31717,-0.0961 -0.47852,-0.15451 -0.15792,-0.0584 -0.30902,-0.12377 -0.4532,-0.19586 v 1.2976 c 0.13732,0.0618 0.27281,0.11331 0.40669,0.15451 0.13389,0.0412 0.27285,0.0754 0.41703,0.10284 0.14419,0.0275 0.29702,0.0465 0.45837,0.0568 0.16135,0.0137 0.33622,0.0207 0.52503,0.0207 0.35703,0 0.68005,-0.0377 0.96842,-0.11317 0.28837,-0.0755 0.53384,-0.18898 0.73639,-0.34003 0.20254,-0.15105 0.35885,-0.3398 0.4687,-0.56638 0.10986,-0.22657 0.16434,-0.49113 0.16434,-0.79323 0,-0.25404 -0.0377,-0.47002 -0.11318,-0.64854 -0.0755,-0.17851 -0.18377,-0.33482 -0.32452,-0.4687 -0.14076,-0.13389 -0.30869,-0.25255 -0.50437,-0.35554 -0.19568,-0.10642 -0.41565,-0.21294 -0.65939,-0.31936 -0.20941,-0.0961 -0.37907,-0.17662 -0.50953,-0.24184 -0.13045,-0.0687 -0.23176,-0.13059 -0.30385,-0.18552 -0.0721,-0.0584 -0.12015,-0.11335 -0.14418,-0.16485 -0.024,-0.0549 -0.0362,-0.11634 -0.0362,-0.185 0,-0.13045 0.0463,-0.2335 0.13901,-0.30903 0.0961,-0.0755 0.2507,-0.11317 0.46354,-0.11317 0.23688,0 0.47368,0.0394 0.71055,0.11834 0.23688,0.079 0.48582,0.18027 0.74673,0.30386 l 0.47387,-1.11259 c -0.32613,-0.15792 -0.64395,-0.27606 -0.95291,-0.35502 -0.30897,-0.079 -0.63494,-0.11834 -0.97824,-0.11834 z m 12.36411,0 c -0.15792,0 -0.31423,0.0168 -0.46871,0.0512 -0.15448,0.0309 -0.30038,0.0807 -0.4377,0.14934 -0.13732,0.0687 -0.26465,0.1561 -0.38137,0.26252 -0.11329,0.10642 -0.21113,0.23375 -0.29352,0.38137 h -0.0873 l -0.21135,-0.73639 h -1.19941 v 5.75676 h 1.57044 v -2.70836 c 0,-0.30554 0.0174,-0.57652 0.0517,-0.81339 0.0343,-0.23688 0.0905,-0.43603 0.1695,-0.59738 0.079,-0.16135 0.18374,-0.28348 0.31419,-0.36587 0.13389,-0.0824 0.3006,-0.12351 0.49971,-0.12351 0.26434,0 0.45829,0.10478 0.58188,0.3142 0.12359,0.20597 0.18552,0.51633 0.18552,0.93172 v 3.36259 h 1.57044 v -2.88872 c 0,-0.5527 0.0788,-0.97652 0.23668,-1.27175 0.15792,-0.29867 0.42421,-0.44804 0.7984,-0.44804 0.26434,0 0.45829,0.10478 0.58188,0.3142 0.12359,0.20597 0.18552,0.51633 0.18552,0.93172 v 3.36259 h 1.57561 v -3.75378 c 0,-0.73809 -0.15804,-1.27362 -0.47387,-1.60662 -0.3124,-0.33643 -0.77733,-0.50436 -1.39526,-0.50436 -0.15792,0 -0.31596,0.0168 -0.47388,0.0512 -0.15448,0.0309 -0.30211,0.0807 -0.44286,0.14934 -0.14076,0.0687 -0.26982,0.1561 -0.38654,0.26252 -0.11672,0.10642 -0.21579,0.23375 -0.29818,0.38137 h -0.12919 c -0.14762,-0.2918 -0.36013,-0.50483 -0.6382,-0.63872 -0.27464,-0.13732 -0.60928,-0.20567 -1.00407,-0.20567 z m 9.17101,0 c -0.39136,0 -0.74855,0.0631 -1.07125,0.19017 -0.31927,0.12702 -0.59371,0.3175 -0.82372,0.57154 -0.22658,0.25061 -0.40318,0.56495 -0.5302,0.94258 -0.12702,0.37762 -0.19069,0.81878 -0.19069,1.32343 0,0.49778 0.0684,0.932 0.20567,1.30276 0.14075,0.36733 0.33644,0.673 0.58705,0.91674 0.2506,0.24031 0.54934,0.42039 0.89607,0.54054 0.34673,0.12015 0.72647,0.18035 1.13843,0.18035 0.21284,0 0.40853,-0.009 0.58704,-0.0258 0.17852,-0.0137 0.34471,-0.038 0.4992,-0.0723 0.15448,-0.0343 0.30038,-0.0754 0.4377,-0.12351 0.14075,-0.0515 0.27971,-0.11291 0.41703,-0.185 v -1.21543 c -0.15106,0.0755 -0.29869,0.14214 -0.44287,0.2005 -0.14419,0.0549 -0.29008,0.10177 -0.4377,0.13953 -0.14762,0.0378 -0.30045,0.0667 -0.45837,0.0873 -0.15448,0.0172 -0.31895,0.0258 -0.49403,0.0258 -0.20941,0 -0.39642,-0.033 -0.5612,-0.0982 -0.16135,-0.0652 -0.30083,-0.15786 -0.41755,-0.27801 -0.11329,-0.12359 -0.20246,-0.27296 -0.26768,-0.44804 -0.0618,-0.17851 -0.096,-0.37767 -0.10284,-0.59738 h 3.51193 v -0.76171 c 0,-0.41882 -0.0585,-0.78989 -0.17518,-1.11259 -0.11329,-0.32614 -0.27775,-0.60058 -0.49403,-0.82373 -0.21284,-0.22314 -0.47393,-0.39159 -0.7829,-0.50487 -0.30553,-0.11673 -0.64885,-0.17467 -1.02991,-0.17467 z m 6.93136,0 c -0.16478,0 -0.32629,0.0168 -0.48421,0.0512 -0.15791,0.0309 -0.30728,0.0807 -0.44803,0.14934 -0.14075,0.0687 -0.27104,0.1561 -0.39119,0.26252 -0.11672,0.10642 -0.2163,0.23375 -0.29869,0.38137 h -0.0879 l -0.21084,-0.73639 h -1.19993 v 5.75676 h 1.57045 v -2.70836 c 0,-0.30554 0.0173,-0.57652 0.0517,-0.81339 0.0343,-0.23688 0.091,-0.43603 0.17001,-0.59738 0.0824,-0.16135 0.19186,-0.28348 0.32918,-0.36587 0.13732,-0.0824 0.30924,-0.12351 0.51521,-0.12351 0.27464,0 0.4738,0.10478 0.59738,0.3142 0.12702,0.20597 0.19069,0.51633 0.19069,0.93172 v 3.36259 h 1.57045 v -3.75378 c 0,-0.37076 -0.0446,-0.68806 -0.13385,-0.9524 -0.0893,-0.26777 -0.21659,-0.48774 -0.38137,-0.65939 -0.16478,-0.17164 -0.3622,-0.29673 -0.59221,-0.37568 -0.23001,-0.0824 -0.48537,-0.12351 -0.76688,-0.12351 z m 14.31024,0 c -0.39136,0 -0.74855,0.0631 -1.07125,0.19017 -0.31927,0.12702 -0.59372,0.3175 -0.82373,0.57154 -0.22657,0.25061 -0.40369,0.56495 -0.53071,0.94258 -0.12702,0.37762 -0.19017,0.81878 -0.19017,1.32343 0,0.49778 0.0684,0.932 0.20567,1.30276 0.14075,0.36733 0.33644,0.673 0.58704,0.91674 0.25061,0.24031 0.54934,0.42039 0.89607,0.54054 0.34673,0.12015 0.72596,0.18035 1.13792,0.18035 0.21284,0 0.40853,-0.009 0.58704,-0.0258 0.17852,-0.0137 0.34523,-0.038 0.49971,-0.0723 0.15449,-0.0343 0.30039,-0.0754 0.4377,-0.12351 0.14076,-0.0515 0.27971,-0.11291 0.41703,-0.185 v -1.21543 c -0.15105,0.0755 -0.29868,0.14214 -0.44286,0.2005 -0.14419,0.0549 -0.29009,0.10177 -0.4377,0.13953 -0.14762,0.0378 -0.30046,0.0667 -0.45837,0.0873 -0.15449,0.0172 -0.31895,0.0258 -0.49403,0.0258 -0.20941,0 -0.39694,-0.033 -0.56172,-0.0982 -0.16135,-0.0652 -0.30031,-0.15786 -0.41703,-0.27801 -0.11329,-0.12359 -0.20246,-0.27296 -0.26769,-0.44804 -0.0618,-0.17851 -0.096,-0.37767 -0.10283,-0.59738 h 3.51193 v -0.76171 c 0,-0.41882 -0.0585,-0.78989 -0.17518,-1.11259 -0.11329,-0.32614 -0.27827,-0.60058 -0.49455,-0.82373 -0.21284,-0.22314 -0.47341,-0.39159 -0.78238,-0.50487 -0.30553,-0.11673 -0.64885,-0.17467 -1.02991,-0.17467 z m 6.8125,0 c -0.19224,0 -0.36364,0.0238 -0.51469,0.0718 -0.14762,0.0446 -0.28138,0.11003 -0.40153,0.19585 -0.11672,0.0824 -0.22324,0.18371 -0.31936,0.30386 -0.0961,0.12015 -0.18529,0.25391 -0.26768,0.40153 h -0.0775 l -0.23151,-0.86507 H 257.385 v 5.75676 h 1.57045 v -2.93006 c 0,-0.2712 0.0324,-0.49933 0.0977,-0.68471 0.0687,-0.18881 0.16304,-0.33991 0.28319,-0.4532 0.12359,-0.11672 0.26949,-0.20069 0.4377,-0.25218 0.17165,-0.0515 0.35918,-0.0775 0.56172,-0.0775 0.0343,0 0.0772,0.002 0.12868,0.005 0.0515,0 0.10302,0.003 0.15451,0.0103 0.0549,0.003 0.10645,0.009 0.15451,0.0155 0.0481,0.007 0.0857,0.0138 0.11317,0.0207 v -1.47278 c -0.0206,-0.007 -0.0513,-0.0121 -0.0925,-0.0155 -0.0378,-0.007 -0.0811,-0.0121 -0.12919,-0.0155 -0.0446,-0.007 -0.0927,-0.0103 -0.14417,-0.0103 -0.0481,-0.003 -0.0926,-0.005 -0.13385,-0.005 z m 14.13557,0 c -0.16478,0 -0.32629,0.0168 -0.4842,0.0512 -0.15792,0.0309 -0.30729,0.0807 -0.44804,0.14934 -0.14075,0.0687 -0.27103,0.1561 -0.39119,0.26252 -0.11672,0.10642 -0.2163,0.23375 -0.29869,0.38137 h -0.0879 l -0.21084,-0.73639 h -1.19993 v 5.75676 h 1.57045 v -2.70836 c 0,-0.30554 0.0174,-0.57652 0.0517,-0.81339 0.0343,-0.23688 0.0911,-0.43603 0.17001,-0.59738 0.0824,-0.16135 0.19238,-0.28348 0.3297,-0.36587 0.13732,-0.0824 0.30872,-0.12351 0.5147,-0.12351 0.27463,0 0.47379,0.10478 0.59738,0.3142 0.12702,0.20597 0.19068,0.51633 0.19068,0.93172 v 3.36259 h 1.57045 v -3.75378 c 0,-0.37076 -0.0446,-0.68806 -0.13384,-0.9524 -0.0893,-0.26777 -0.21659,-0.48774 -0.38138,-0.65939 -0.16478,-0.17164 -0.3622,-0.29673 -0.59221,-0.37568 -0.23001,-0.0824 -0.48537,-0.12351 -0.76688,-0.12351 z m 5.40691,0 c -0.35703,0 -0.67311,0.0446 -0.94775,0.13384 -0.27463,0.0893 -0.5045,0.21954 -0.68988,0.39119 -0.18538,0.16822 -0.32607,0.37431 -0.42219,0.61805 -0.0961,0.24374 -0.14418,0.51992 -0.14418,0.82889 0,0.39136 0.0874,0.73121 0.26252,1.01958 0.17851,0.28837 0.41878,0.49793 0.72088,0.62838 -0.11672,0.0721 -0.2215,0.14218 -0.31419,0.21084 -0.0927,0.0687 -0.16972,0.14274 -0.23151,0.2217 -0.0618,0.0755 -0.10985,0.15775 -0.14418,0.24701 -0.0309,0.0893 -0.0465,0.18883 -0.0465,0.29869 0,0.0961 0.0173,0.18876 0.0517,0.27802 0.0378,0.0858 0.0841,0.1651 0.13901,0.23719 0.0584,0.0721 0.12203,0.13524 0.19069,0.19017 0.0721,0.0549 0.14391,0.0978 0.216,0.12868 -0.16135,0.0378 -0.31939,0.091 -0.47387,0.15968 -0.15105,0.0687 -0.28654,0.15782 -0.40669,0.26768 -0.12016,0.10986 -0.21627,0.24239 -0.28836,0.39687 -0.0721,0.15449 -0.108,0.3363 -0.108,0.54571 0,0.24717 0.0481,0.46888 0.14418,0.66456 0.0996,0.19568 0.24718,0.36187 0.44286,0.49919 0.19568,0.14075 0.43942,0.24727 0.73122,0.31936 0.29181,0.0755 0.63339,0.11317 1.02475,0.11317 0.50464,0 0.94927,-0.0498 1.33377,-0.14934 0.38449,-0.0961 0.70526,-0.23682 0.96273,-0.4222 0.2609,-0.18195 0.45659,-0.40487 0.58704,-0.66921 0.13046,-0.2609 0.19586,-0.55443 0.19586,-0.88056 0,-0.27808 -0.0411,-0.51661 -0.12351,-0.71572 -0.0824,-0.20255 -0.20105,-0.36926 -0.35553,-0.49971 -0.15106,-0.13046 -0.33633,-0.22657 -0.55604,-0.28836 -0.21971,-0.0652 -0.46866,-0.0977 -0.74673,-0.0977 h -0.89607 c -0.10299,0 -0.20256,-0.003 -0.29869,-0.0103 -0.0961,-0.0103 -0.18008,-0.0276 -0.25218,-0.0517 -0.0721,-0.0275 -0.13055,-0.0616 -0.17518,-0.10283 -0.0446,-0.0446 -0.0672,-0.1031 -0.0672,-0.17519 0,-0.0893 0.0191,-0.16506 0.0568,-0.22686 0.0412,-0.0652 0.0962,-0.12664 0.16485,-0.185 0.0446,0.0103 0.1135,0.0207 0.20619,0.031 0.0927,0.007 0.17839,0.01 0.25735,0.01 0.36389,0 0.68293,-0.0463 0.95756,-0.13901 0.27464,-0.0961 0.50329,-0.22988 0.68523,-0.40153 0.18195,-0.17165 0.31917,-0.37774 0.41186,-0.61805 0.0927,-0.24374 0.13901,-0.51125 0.13901,-0.80305 0,-0.14419 -0.0139,-0.27794 -0.0413,-0.40153 -0.0275,-0.12702 -0.0755,-0.24915 -0.14417,-0.36587 l 0.83922,-0.26251 v -0.85473 h -1.95647 c -0.0412,-0.0103 -0.0979,-0.0224 -0.17001,-0.0362 -0.0721,-0.0137 -0.15137,-0.0259 -0.2372,-0.0362 -0.0824,-0.0137 -0.16636,-0.0241 -0.25218,-0.031 -0.0858,-0.0103 -0.16285,-0.015 -0.23151,-0.015 z m 9.72189,0 c -0.15792,0 -0.31371,0.0168 -0.46819,0.0512 -0.15449,0.0309 -0.30038,0.0807 -0.4377,0.14934 -0.13732,0.0687 -0.26465,0.1561 -0.38137,0.26252 -0.11329,0.10642 -0.21113,0.23375 -0.29353,0.38137 h -0.0873 l -0.21135,-0.73639 h -1.19993 v 5.75676 h 1.57096 v -2.70836 c 0,-0.30554 0.0168,-0.57652 0.0512,-0.81339 0.0343,-0.23688 0.0911,-0.43603 0.17002,-0.59738 0.079,-0.16135 0.18374,-0.28348 0.31419,-0.36587 0.13389,-0.0824 0.3006,-0.12351 0.49971,-0.12351 0.26434,0 0.45829,0.10478 0.58188,0.3142 0.12358,0.20597 0.185,0.51633 0.185,0.93172 v 3.36259 h 1.57096 v -2.88872 c 0,-0.5527 0.0788,-0.97652 0.23668,-1.27175 0.15792,-0.29867 0.42421,-0.44804 0.7984,-0.44804 0.26434,0 0.45829,0.10478 0.58188,0.3142 0.12359,0.20597 0.185,0.51633 0.185,0.93172 v 3.36259 h 1.57613 v -3.75378 c 0,-0.73809 -0.15804,-1.27362 -0.47387,-1.60662 -0.3124,-0.33643 -0.77785,-0.50436 -1.39578,-0.50436 -0.15792,0 -0.31544,0.0168 -0.47336,0.0512 -0.15448,0.0309 -0.30211,0.0807 -0.44287,0.14934 -0.14075,0.0687 -0.26981,0.1561 -0.38654,0.26252 -0.11672,0.10642 -0.21629,0.23375 -0.29868,0.38137 h -0.12868 c -0.14762,-0.2918 -0.36065,-0.50483 -0.63872,-0.63872 -0.27464,-0.13732 -0.60928,-0.20567 -1.00407,-0.20567 z m 9.17153,0 c -0.39136,0 -0.74855,0.0631 -1.07125,0.19017 -0.31927,0.12702 -0.59372,0.3175 -0.82372,0.57154 -0.22658,0.25061 -0.4037,0.56495 -0.53072,0.94258 -0.12702,0.37762 -0.19017,0.81878 -0.19017,1.32343 0,0.49778 0.0683,0.932 0.20567,1.30276 0.14075,0.36733 0.33644,0.673 0.58705,0.91674 0.2506,0.24031 0.54933,0.42039 0.89606,0.54054 0.34674,0.12015 0.72596,0.18035 1.13792,0.18035 0.21284,0 0.40853,-0.009 0.58704,-0.0258 0.17852,-0.0137 0.34523,-0.038 0.49972,-0.0723 0.15448,-0.0343 0.30038,-0.0754 0.43769,-0.12351 0.14076,-0.0515 0.27971,-0.11291 0.41703,-0.185 v -1.21543 c -0.15105,0.0755 -0.29868,0.14214 -0.44286,0.2005 -0.14419,0.0549 -0.29009,0.10177 -0.4377,0.13953 -0.14762,0.0378 -0.30046,0.0667 -0.45837,0.0873 -0.15449,0.0172 -0.31895,0.0258 -0.49403,0.0258 -0.20941,0 -0.39694,-0.033 -0.56172,-0.0982 -0.16135,-0.0652 -0.30031,-0.15786 -0.41703,-0.27801 -0.11329,-0.12359 -0.20246,-0.27296 -0.26769,-0.44804 -0.0618,-0.17851 -0.096,-0.37767 -0.10283,-0.59738 h 3.51193 v -0.76171 c 0,-0.41882 -0.0585,-0.78989 -0.17518,-1.11259 -0.11329,-0.32614 -0.27827,-0.60058 -0.49455,-0.82373 -0.21284,-0.22314 -0.47341,-0.39159 -0.78238,-0.50487 -0.30553,-0.11673 -0.64885,-0.17467 -1.02991,-0.17467 z m 8.86199,0 c -0.12702,0 -0.24516,0.0151 -0.35502,0.046 -0.10985,0.0309 -0.20596,0.0807 -0.28835,0.14935 -0.0824,0.0687 -0.14779,0.15956 -0.19585,0.27285 -0.0446,0.10985 -0.0672,0.24586 -0.0672,0.40721 0,0.15448 0.0226,0.28824 0.0672,0.40152 0.0481,0.10986 0.11346,0.20076 0.19585,0.27286 0.0824,0.0686 0.1785,0.12018 0.28835,0.15451 0.10986,0.0309 0.228,0.0465 0.35502,0.0465 0.12016,0 0.23361,-0.0156 0.34003,-0.0465 0.10986,-0.0343 0.20597,-0.0859 0.28836,-0.15451 0.0824,-0.0721 0.14779,-0.163 0.19585,-0.27286 0.0481,-0.11328 0.0718,-0.24704 0.0718,-0.40152 0,-0.16135 -0.0238,-0.29736 -0.0718,-0.40721 -0.0481,-0.11329 -0.11346,-0.20419 -0.19585,-0.27285 -0.0824,-0.0687 -0.1785,-0.11845 -0.28836,-0.14935 -0.10642,-0.0309 -0.21987,-0.046 -0.34003,-0.046 z m -65.75361,0.108 1.5503,5.75676 h 1.68878 l 0.46354,-1.99265 c 0.0137,-0.0618 0.0311,-0.14749 0.0517,-0.25734 0.024,-0.10986 0.0495,-0.23199 0.077,-0.36587 0.0275,-0.13732 0.0552,-0.28322 0.0827,-0.4377 0.0309,-0.15449 0.0599,-0.30732 0.0873,-0.45837 0.0652,-0.35703 0.13756,-0.73973 0.21652,-1.14825 h 0.0305 c 0.0824,0.40852 0.1582,0.78948 0.22686,1.14308 0.0309,0.15105 0.0599,0.30389 0.0873,0.45837 0.0309,0.15105 0.0604,0.29521 0.0879,0.43253 0.0275,0.13389 0.0512,0.25602 0.0718,0.36587 0.024,0.10642 0.0431,0.18865 0.0568,0.24701 l 0.44287,2.01332 h 1.70945 l 1.57045,-5.75676 h -1.53944 l -0.60255,2.54868 c -0.0309,0.13389 -0.0651,0.29713 -0.10284,0.48938 -0.0343,0.19225 -0.0673,0.3862 -0.0982,0.58188 -0.0309,0.19224 -0.0599,0.37232 -0.0873,0.54053 -0.024,0.16822 -0.0414,0.29555 -0.0517,0.38137 h -0.031 c -0.003,-0.0961 -0.0151,-0.22865 -0.0357,-0.39687 -0.0206,-0.17165 -0.0466,-0.34652 -0.0775,-0.52503 -0.0275,-0.18195 -0.0547,-0.35162 -0.0822,-0.50953 -0.0275,-0.15792 -0.05,-0.27484 -0.0672,-0.35037 l -0.60255,-2.76004 h -1.73013 l -0.62838,2.76004 c -0.0103,0.0343 -0.0237,0.0945 -0.0408,0.18035 -0.0137,0.0824 -0.0311,0.1785 -0.0517,0.28836 -0.0172,0.10985 -0.0357,0.22799 -0.0563,0.35501 -0.0172,0.12359 -0.0345,0.24572 -0.0517,0.36587 -0.0172,0.12016 -0.0328,0.23309 -0.0465,0.33952 -0.0103,0.10299 -0.0172,0.18747 -0.0207,0.25269 h -0.0305 c -0.0137,-0.0995 -0.0328,-0.23382 -0.0568,-0.40204 -0.024,-0.17165 -0.0518,-0.35172 -0.0827,-0.54053 -0.0275,-0.19225 -0.0582,-0.381 -0.0925,-0.56638 -0.0309,-0.18881 -0.0616,-0.35032 -0.0925,-0.48421 l -0.58188,-2.54868 z m 26.25215,0 v 5.75676 h 1.57044 v -5.75676 z m 11.74605,0.8754 c 0.25061,0 0.42895,0.0909 0.53537,0.27285 0.10985,0.18195 0.16485,0.42743 0.16485,0.73639 0,0.3124 -0.055,0.55441 -0.16485,0.72606 -0.10986,0.17164 -0.2882,0.25734 -0.53537,0.25734 -0.23688,0 -0.414,-0.0857 -0.53072,-0.25734 -0.11672,-0.17165 -0.17466,-0.41366 -0.17466,-0.72606 0,-0.67286 0.23506,-1.00924 0.70538,-1.00924 z m -47.58624,0.13384 c 0.16478,0 0.30894,0.0307 0.43253,0.0925 0.12359,0.0618 0.22663,0.1475 0.30902,0.25735 0.0824,0.10643 0.14433,0.23376 0.18552,0.38138 0.0412,0.14761 0.0632,0.30912 0.0667,0.4842 h -2.00297 c 0.0275,-0.41882 0.13224,-0.72622 0.31419,-0.9219 0.18538,-0.19568 0.41698,-0.29353 0.69505,-0.29353 z m 21.24159,0 c 0.16479,0 0.30895,0.0307 0.43254,0.0925 0.12358,0.0618 0.22663,0.1475 0.30902,0.25735 0.0824,0.10643 0.14381,0.23376 0.185,0.38138 0.0412,0.14761 0.0637,0.30912 0.0672,0.4842 h -2.00298 c 0.0275,-0.41882 0.13225,-0.72622 0.3142,-0.9219 0.18538,-0.19568 0.41697,-0.29353 0.69504,-0.29353 z m 45.24841,0 c 0.16478,0 0.30894,0.0307 0.43253,0.0925 0.12358,0.0618 0.22663,0.1475 0.30902,0.25735 0.0824,0.10643 0.14381,0.23376 0.185,0.38138 0.0412,0.14761 0.0637,0.30912 0.0672,0.4842 h -2.00298 c 0.0275,-0.41882 0.13173,-0.72622 0.31368,-0.9219 0.18538,-0.19568 0.41749,-0.29353 0.69557,-0.29353 z m -81.92834,2.0805 v 0.47335 c 0,0.18538 -0.0255,0.35036 -0.077,0.49455 -0.0515,0.14075 -0.12384,0.26114 -0.21653,0.3607 -0.0893,0.0961 -0.19526,0.16968 -0.31884,0.22117 -0.12359,0.0481 -0.25786,0.0724 -0.40205,0.0724 -0.18881,0 -0.34164,-0.0498 -0.45837,-0.14934 -0.11672,-0.10299 -0.17466,-0.27491 -0.17466,-0.51522 0,-0.13732 0.0186,-0.26066 0.0563,-0.37052 0.0412,-0.11329 0.10486,-0.20939 0.19068,-0.28835 0.0893,-0.0824 0.20618,-0.1478 0.35037,-0.19586 0.14418,-0.0481 0.32079,-0.0753 0.5302,-0.0822 z m 90.77999,1.05523 c -0.12702,0 -0.24516,0.0156 -0.35502,0.0465 -0.10985,0.0309 -0.20596,0.0807 -0.28835,0.14934 -0.0824,0.0687 -0.14779,0.15957 -0.19585,0.27285 -0.0446,0.10986 -0.0672,0.24535 -0.0672,0.4067 0,0.15448 0.0226,0.28702 0.0672,0.39687 0.0481,0.10986 0.11346,0.20076 0.19585,0.27285 0.0824,0.0721 0.1785,0.12362 0.28835,0.15452 0.10986,0.0343 0.228,0.0517 0.35502,0.0517 0.12016,0 0.23361,-0.0173 0.34003,-0.0517 0.10986,-0.0309 0.20597,-0.0824 0.28836,-0.15452 0.0824,-0.0721 0.14779,-0.16299 0.19585,-0.27285 0.0481,-0.10985 0.0718,-0.24239 0.0718,-0.39687 0,-0.16135 -0.0238,-0.29684 -0.0718,-0.4067 -0.0481,-0.11328 -0.11346,-0.20419 -0.19585,-0.27285 -0.0824,-0.0687 -0.1785,-0.11844 -0.28836,-0.14934 -0.10642,-0.0309 -0.21987,-0.0465 -0.34003,-0.0465 z m -28.12128,1.71514 h 0.72605 c 0.3536,0 0.61469,0.0359 0.7829,0.108 0.16822,0.0721 0.25218,0.21626 0.25218,0.43254 0,0.25404 -0.13549,0.45666 -0.40669,0.60771 -0.2712,0.15105 -0.67472,0.22634 -1.21026,0.22634 -0.19568,0 -0.36014,-0.0186 -0.49403,-0.0563 -0.13388,-0.0343 -0.24214,-0.0824 -0.32453,-0.14418 -0.0824,-0.0618 -0.14258,-0.13413 -0.18035,-0.21653 -0.0343,-0.0789 -0.0517,-0.16118 -0.0517,-0.24701 0,-0.13732 0.0295,-0.25251 0.0879,-0.3452 0.0618,-0.0893 0.13708,-0.16108 0.22634,-0.216 0.0893,-0.0549 0.1871,-0.0943 0.29352,-0.11834 0.10642,-0.0206 0.206,-0.031 0.29869,-0.031 z" /><rect
       style="opacity:0;fill:#e13201;fill-opacity:1;stroke:none;stroke-width:0.551941;stroke-linecap:round;stroke-linejoin:round;stroke-dasharray:none"
       id="rect11336"
       width="447.1958"
       height="63.294273"
       x="28.202606"
       y="149.07521" /><g
       id="g42249"
       transform="translate(-4.9856461)"><path
         id="path337"
         style="fill:#242570;fill-opacity:1;stroke-width:0.149513"
         d="m 76.976789,170.56118 c -2.558076,0.002 -5.125703,0.0992 -6.383196,0.29172 -0.945664,0.14478 -1.954874,0.29539 -2.242684,0.33494 -1.297788,0.17832 -5.585239,1.19435 -6.018474,1.42621 -0.269104,0.14404 -0.270051,0.16778 -0.02222,0.54607 0.142541,0.21754 0.551384,0.75419 0.908464,1.1926 0.357087,0.4384 0.82379,1.1471 1.03725,1.57484 0.21346,0.42775 0.633418,1.03322 0.933284,1.34562 l 0.545197,0.56826 -0.05346,1.3681 c -0.03141,0.80253 -0.136398,1.495 -0.253762,1.67472 -0.189697,0.29045 -0.169705,0.3069 0.384881,0.31362 0.423105,0.005 0.741632,0.13376 1.150837,0.46519 l 0.565635,0.45817 0.04177,-1.92819 c 0.04745,-2.19108 -0.06361,-2.7545 -0.747569,-3.79563 -0.550398,-0.83784 -2.145758,-2.50002 -3.017407,-3.14386 l -0.583153,-0.43101 0.65791,-0.19098 c 5.030877,-1.46057 13.07725,-2.01213 18.524956,-1.26969 6.473422,0.88222 11.439766,2.61535 15.869068,5.53781 1.165957,0.7693 1.635372,1.00533 1.757064,0.88364 0.3418,-0.3418 0.12738,-0.58852 -1.335391,-1.53776 -4.259356,-2.76403 -8.854971,-4.37638 -15.393666,-5.40085 -1.218777,-0.19094 -3.767303,-0.28517 -6.325374,-0.28354 z m -15.231016,1.5874 c -0.273119,0.002 -0.787492,0.13507 -1.142947,0.29639 -0.505101,0.22922 -0.627265,0.35352 -0.558924,0.56885 0.07379,0.23248 -0.140591,0.36504 -1.372183,0.84918 -2.108797,0.82899 -5.870125,2.75463 -5.870125,3.00515 0,0.28132 -0.0073,0.28333 0.998111,-0.28501 2.445881,-1.38249 6.56111,-3.06873 6.83086,-2.79898 0.217274,0.21731 0.882992,0.19334 1.206904,-0.0435 0.221975,-0.16231 0.240948,-0.25631 0.103375,-0.51337 -0.224414,-0.41932 -0.21268,-0.56788 0.06659,-0.84714 0.213588,-0.21358 0.189798,-0.2344 -0.261658,-0.23157 z m -9.273276,4.04063 c -0.383366,0.007 -1.315542,0.65437 -1.315542,0.97855 0,0.24648 1.614645,1.32181 2.84074,1.89198 0.748404,0.34802 2.340974,0.86427 3.292787,1.06732 0.276427,0.059 0.487275,0.30516 0.789324,0.92102 0.580698,1.18403 1.424725,2.2795 2.41964,3.14092 1.690365,1.46356 1.851076,1.64956 2.025727,2.34316 0.211021,0.83807 1.057231,1.70419 2.301085,2.3551 0.487341,0.25504 0.984835,0.4443 1.105284,0.42051 0.258595,-0.0511 0.498179,-0.78481 1.002205,-3.06851 0.448454,-2.03193 0.454546,-2.23582 0.07037,-2.35775 -0.220838,-0.0701 -0.511833,0.0856 -1.100021,0.58813 -1.232037,1.05255 -1.511733,0.99494 -3.029681,-0.62171 -1.20681,-1.28528 -1.225978,-1.29809 -1.275814,-0.85969 -0.08715,0.76681 -0.563306,0.65814 -1.485202,-0.33933 -0.858278,-0.92863 -1.53505,-2.1433 -1.708002,-3.06558 -0.09601,-0.51197 -0.076,-0.56068 0.228936,-0.56068 0.293746,0 0.309261,-0.0297 0.12878,-0.24734 -0.370758,-0.44707 -1.149229,-0.65112 -3.305334,-0.867 -1.176721,-0.11781 -2.150397,-0.28401 -2.179611,-0.37173 -0.02907,-0.0872 -0.173676,-0.15857 -0.321217,-0.15857 -0.443476,0 -0.69682,-0.41493 -0.47249,-0.77413 0.103553,-0.1658 0.155104,-0.33461 0.114474,-0.37524 -0.02801,-0.028 -0.07168,-0.0403 -0.126441,-0.0395 z m 9.905497,0.74085 c -1.156061,0.001 -2.153594,0.90487 -2.343726,2.12383 -0.07018,0.44995 0.01944,0.59121 1.047173,1.65078 l 1.123968,1.15872 h 0.904962 c 0.951494,0 1.070378,-0.0699 0.645948,-0.38021 -0.245091,-0.17919 -0.244718,-0.21859 0.0065,-0.74522 0.32634,-0.68437 0.241894,-0.79972 -0.283266,-0.38663 -0.58718,0.46188 -1.17862,0.41194 -1.58185,-0.13346 -0.229648,-0.31064 -0.415687,-0.42283 -0.602428,-0.36356 -0.318159,0.10098 -0.362838,-0.22988 -0.09783,-0.72507 0.09487,-0.17727 0.164126,-0.54509 0.153896,-0.81736 -0.01531,-0.40679 0.06714,-0.54717 0.462844,-0.78845 0.588762,-0.35898 0.970156,-0.37256 1.329553,-0.0473 0.225561,0.20414 0.273331,0.20925 0.273331,0.0298 0,-0.38618 -0.343125,-0.57641 -1.038998,-0.57585 z m 0.980881,1.0974 c -0.05363,-0.009 -0.0914,0.024 -0.0914,0.0894 0,0.0871 0.06728,0.15826 0.149518,0.15826 0.08223,0 0.149513,-0.0294 0.149513,-0.0657 0,-0.0363 -0.06728,-0.10776 -0.149513,-0.15856 -0.02055,-0.0127 -0.04026,-0.0204 -0.05812,-0.0233 z m 32.632584,0.19506 c -0.924954,4.9e-4 -1.88155,0.22738 -2.800439,0.72801 -3.165906,1.7248 -3.671864,6.46262 -0.952564,8.91935 0.727872,0.65759 1.051083,0.83951 2.127637,1.19844 1.211511,0.40393 2.845831,0.28762 4.07422,-0.28998 1.689227,-0.79429 2.763627,-2.20608 3.102957,-4.07742 0.65247,-3.59813 -2.248416,-6.48071 -5.551811,-6.4784 z m -9.623412,0.0546 c -0.95683,-0.003 -1.957632,0.17218 -2.641292,0.49935 -4.388081,2.09992 -3.959089,8.78663 0.65762,10.2492 1.18972,0.37692 2.318928,0.38795 3.592681,0.0347 1.117374,-0.30984 2.202689,-0.9496 2.202689,-1.29831 0,-0.23966 -0.704978,-1.71238 -0.819691,-1.71238 -0.03692,0 -0.380515,0.19896 -0.763925,0.44211 -2.552145,1.61852 -5.297129,0.43642 -5.553569,-2.39162 -0.139851,-1.54234 0.715336,-3.10813 1.951544,-3.57341 0.527276,-0.19845 1.7537,-0.20525 2.260504,-0.0125 0.324002,0.12319 0.383422,0.23919 0.383422,0.74756 0,0.57802 0.01899,0.60155 0.481244,0.60155 0.379512,0 0.648109,-0.16466 1.270857,-0.77968 0.434299,-0.4289 0.789614,-0.86066 0.789614,-0.95928 0,-0.37166 -1.392766,-1.40591 -2.214951,-1.64493 -0.464426,-0.13501 -1.022648,-0.2007 -1.596747,-0.20236 z m -15.587557,0.006 c -0.146266,-0.006 -0.186897,1.17911 -0.186897,5.44932 v 5.45721 h 1.046583 1.046594 l 0.01871,-2.76598 c 0.0103,-1.52129 0.03547,-2.83327 0.05606,-2.9155 0.02055,-0.0822 0.04578,-0.18861 0.05606,-0.23653 0.0103,-0.0479 1.448415,1.29749 3.195833,2.98996 h 2.95e-4 c 1.747429,1.69247 3.228617,3.06021 3.291617,3.03931 0.063,-0.0209 0.116896,-2.45963 0.11972,-5.41954 l 0.005,-5.38186 -1.65223,-0.042 -1.652519,-0.0423 v 0.47657 c 0,0.36209 0.14474,0.61412 0.602428,1.0495 l 0.602427,0.57324 -0.04177,1.94249 -0.04177,1.94279 -3.139766,-3.05449 c -1.726875,-1.67994 -3.223867,-3.05757 -3.326657,-3.0621 z m -7.893219,0.0447 c -0.230339,-0.0166 -0.66638,0.22783 -0.66638,0.40649 0,0.094 0.09718,0.0998 0.261641,0.0152 0.143911,-0.074 0.345748,-0.10459 0.448544,-0.0678 0.219903,0.0789 0.254001,-0.19778 0.0406,-0.32968 -0.02267,-0.014 -0.05146,-0.0219 -0.08439,-0.0242 z m 38.804939,0.0969 v 0.49409 c 0,0.36825 0.13319,0.62292 0.52329,1.00103 l 0.5233,0.50724 v 4.28155 c 0,2.35489 0.0477,4.32917 0.1057,4.38725 0.0581,0.0583 0.57952,0.0863 1.15873,0.0625 l 1.05301,-0.0435 0.0395,-5.34507 0.0392,-5.34508 h -1.72115 z m -38.034894,0.29902 c -0.0323,0 -0.09748,0.10093 -0.144835,0.22427 -0.04739,0.12335 -0.02094,0.22427 0.0587,0.22427 0.07965,0 0.144835,-0.10092 0.144835,-0.22427 0,-0.12334 -0.02634,-0.22427 -0.0587,-0.22427 z m 32.394882,1.588 c 1.110363,0.006 2.227843,0.59178 2.831981,1.75325 0.244005,0.46913 0.321334,0.87677 0.31625,1.66742 -0.01036,1.6216 -0.605107,2.63923 -1.880882,3.21832 -1.129297,0.5126 -2.547601,0.28457 -3.435872,-0.5525 -1.066498,-1.00503 -1.339255,-2.92365 -0.620533,-4.36594 0.575391,-1.15464 1.678688,-1.72699 2.789056,-1.72055 z m -34.065795,7.93496 -0.244417,0.37291 c -0.40078,0.61164 -0.570702,1.47712 -0.420215,2.1399 0.131664,0.57991 0.625605,1.15695 1.497165,1.74888 l 0.373781,0.25406 -0.377863,0.008 c -0.207841,0.004 -0.534833,-0.10225 -0.726541,-0.23653 -0.428869,-0.30039 -0.529064,-0.17785 -0.784941,0.95694 -0.13034,0.57793 -0.136098,1.05525 -0.02127,1.79415 l 0.156229,1.00657 -0.489129,0.5233 c -0.681907,0.72922 -0.951088,1.32823 -1.05243,2.34198 l -0.08731,0.87255 0.987887,-1.03317 c 1.030222,-1.0774 2.201675,-2.74076 3.142105,-4.46142 0.303363,-0.55506 0.638012,-1.00921 0.743475,-1.00921 0.105458,0 0.47768,0.10092 0.827282,0.22426 1.011688,0.35696 1.535189,0.29631 1.918549,-0.22222 0.181556,-0.24556 0.580987,-0.57888 0.887731,-0.74085 l 0.557755,-0.29435 -0.529136,-0.007 c -0.705831,-0.009 -2.105011,-0.382 -2.841615,-0.75779 -0.777646,-0.39672 -3.146576,-2.57442 -3.354985,-3.08428 z m 20.955995,3.51471 c -0.364632,0 -0.651188,0.12303 -0.859408,0.36882 -0.207195,0.2458 -0.310709,0.58514 -0.310709,1.01826 0,0.43194 0.103514,0.77072 0.310709,1.01652 0.20822,0.24578 0.494776,0.36882 0.859408,0.36882 0.365646,0 0.651913,-0.12304 0.859113,-0.36882 0.207201,-0.2458 0.310703,-0.58458 0.310703,-1.01652 0,-0.43312 -0.103502,-0.77246 -0.310703,-1.01826 -0.2072,-0.24579 -0.493467,-0.36882 -0.859113,-0.36882 z m 16.676497,0 c -0.392059,0 -0.700802,0.12358 -0.926285,0.37057 -0.225477,0.24699 -0.338447,0.58577 -0.338447,1.01651 0,0.42597 0.110898,0.76363 0.332321,1.01301 0.221413,0.24818 0.521435,0.37233 0.900284,0.37233 0.167589,0 0.330233,-0.021 0.487662,-0.0628 0.15743,-0.0418 0.3093,-0.10424 0.45555,-0.18776 v -1.28516 h -0.914304 v 0.46167 h 0.358016 v 0.51921 c -0.04165,0.0191 -0.08881,0.0334 -0.141633,0.0429 -0.05185,0.008 -0.10813,0.0125 -0.169076,0.0125 -0.224464,0 -0.397616,-0.0771 -0.519496,-0.23098 -0.12188,-0.15392 -0.182803,-0.37221 -0.182803,-0.65499 0,-0.28517 0.06299,-0.50402 0.18894,-0.65674 0.126953,-0.15393 0.3072,-0.23099 0.540808,-0.23099 0.125945,0 0.251484,0.021 0.376408,0.0628 0.12595,0.0418 0.25238,0.10479 0.37933,0.18951 v -0.55308 c -0.1229,-0.0656 -0.2539,-0.11494 -0.39305,-0.14835 -0.138135,-0.0334 -0.282892,-0.0502 -0.434225,-0.0502 z m -15.063105,0.0485 v 2.67195 h 0.586368 v -0.92714 h 0.386918 c 0.289475,0 0.511416,-0.0751 0.665801,-0.22544 0.155405,-0.15154 0.233324,-0.36759 0.233324,-0.64799 0,-0.27921 -0.07792,-0.49385 -0.233324,-0.64419 -0.154385,-0.15154 -0.376326,-0.22719 -0.665801,-0.22719 z m 2.286779,0 v 2.67195 h 1.616316 v -0.52066 h -1.029938 v -2.15129 z m 1.988048,0 v 2.67195 h 1.616611 v -0.52066 h -1.029949 v -0.61236 h 0.936793 v -0.52067 h -0.936793 v -0.49759 h 0.996369 v -0.52067 z m 2.131441,0 v 2.67195 h 0.586662 v -2.67195 z m 1.161051,0 v 2.67195 h 0.618499 c 0.341265,0 0.59707,-0.0286 0.767706,-0.0858 0.170641,-0.0585 0.317024,-0.15682 0.438904,-0.29522 0.106649,-0.12052 0.185899,-0.25951 0.237706,-0.417 0.05185,-0.1587 0.07767,-0.33888 0.07767,-0.54053 0,-0.19926 -0.0259,-0.37776 -0.07767,-0.53527 -0.05185,-0.15749 -0.131057,-0.29649 -0.237706,-0.417 -0.120867,-0.1384 -0.266069,-0.2362 -0.435685,-0.29348 -0.168609,-0.0585 -0.4256,-0.0876 -0.770925,-0.0876 z m 2.589902,0 v 2.67195 h 0.586657 v -2.67195 z m 1.161056,0 v 2.67195 h 0.556 v -1.83269 l 0.827282,1.83269 h 0.654998 v -2.67195 h -0.556001 v 1.83269 l -0.827287,-1.83269 z m 5.172203,0 v 2.67195 h 1.61661 v -0.52066 h -1.02995 v -0.61236 h 0.93679 v -0.52067 h -0.93679 v -0.49759 h 0.99636 v -0.52067 z m 2.13142,0 v 2.67195 h 0.55601 v -1.83269 l 0.82729,1.83269 h 0.65527 v -2.67195 h -0.55599 v 1.83269 l -0.82729,-1.83269 z m -20.235292,0.45088 c 0.179774,0 0.318773,0.0776 0.417286,0.23273 0.09852,0.15511 0.147769,0.3734 0.147769,0.65499 0,0.2804 -0.04923,0.49814 -0.147769,0.65325 -0.09851,0.15511 -0.237512,0.23273 -0.417286,0.23273 -0.17876,0 -0.317608,-0.0776 -0.416127,-0.23273 -0.09852,-0.15511 -0.147764,-0.37285 -0.147764,-0.65325 0,-0.28159 0.04923,-0.49988 0.147764,-0.65499 0.09852,-0.15511 0.237367,-0.23273 0.416127,-0.23273 z m 2.19976,0.0485 h 0.324725 c 0.113755,0 0.201437,0.0319 0.263401,0.0964 0.06195,0.0644 0.09286,0.15636 0.09286,0.27567 0,0.11932 -0.03091,0.21179 -0.09286,0.27742 -0.06196,0.0644 -0.149646,0.0967 -0.263401,0.0967 h -0.324725 z m 7.567323,0.0213 h 0.210252 c 0.24072,0 0.424219,0.0692 0.550159,0.20763 0.125951,0.13841 0.188934,0.34018 0.188934,0.60506 0,0.26608 -0.06343,0.46867 -0.190388,0.60827 -0.12595,0.1396 -0.309004,0.20967 -0.548705,0.20967 h -0.210252 z m -21.68517,0.29786 c -1.03016,0 -2.068613,1.04098 -3.110847,3.11786 -0.860148,1.71406 -1.577033,2.56362 -2.162971,2.56362 -0.286117,0 -0.436983,-0.10454 -0.539349,-0.37378 -0.16025,-0.42148 -0.609835,-0.49556 -0.898246,-0.14805 -0.12937,0.15587 -0.151818,0.42185 -0.07271,0.85969 0.063,0.3487 0.127009,0.97038 0.142212,1.38154 0.047,1.27121 0.07072,1.3655 0.447953,1.77254 0.632388,0.68235 0.791267,0.53759 0.850938,-0.77472 0.06332,-1.39276 0.13089,-1.50703 2.278024,-3.85696 1.618014,-1.77084 2.376893,-2.74672 2.980613,-3.83155 0.38517,-0.69217 0.387331,-0.71019 0.08438,-0.71019 z" /><path
         style="fill:#2e3192;fill-opacity:1;stroke-width:0.0256183"
         d="m 165.9553,201.79933 c -0.0423,-0.028 -0.12873,-0.0684 -0.19214,-0.0899 -0.17765,-0.06 -0.44854,-0.27371 -0.55202,-0.43547 -0.0972,-0.15189 -0.14641,-0.17105 -0.25567,-0.0995 -0.13011,0.0853 -0.53043,-0.24536 -0.7294,-0.60239 -0.16627,-0.29833 -0.30743,-0.35767 -0.30743,-0.12923 0,0.12603 -0.1554,0.0527 -0.33192,-0.15665 -0.0609,-0.0722 -0.21576,-0.20899 -0.34413,-0.3039 -0.33964,-0.2511 -0.5885,-0.53346 -0.69514,-0.7887 -0.0331,-0.0791 -0.0429,-0.0842 -0.16165,-0.0842 -0.18485,0 -0.24705,-0.1382 -0.34869,-0.77468 -0.1278,-0.80039 -0.0307,-0.99851 0.41136,-0.83912 0.083,0.0299 0.22,0.075 0.30454,0.10008 0.0845,0.0252 0.32845,0.11662 0.54202,0.2033 0.21357,0.0867 0.3959,0.15759 0.40519,0.15759 0.009,0 0.0536,0.0273 0.0985,0.0607 0.0449,0.0334 0.16922,0.10719 0.27639,0.16398 1.1748,0.62257 2.285,1.79224 2.80188,2.95196 0.0659,0.14795 0.14781,0.3288 0.18194,0.4019 0.13906,0.29786 0.1099,0.31546 -0.5226,0.31524 -0.46009,-2.5e-4 -0.51084,-0.004 -0.58098,-0.0511 z m -46.71492,-2.30562 c -0.0503,-0.0503 -0.0512,-0.0854 -0.0512,-2.04946 0,-2.35131 -0.042,-2.10078 0.35225,-2.10055 0.43813,2.5e-4 0.36754,-0.0539 1.0356,0.79402 0.17208,0.21839 0.44166,0.55848 0.59907,0.75573 0.15742,0.19727 0.31736,0.40477 0.35542,0.46113 0.14674,0.21727 0.23993,0.28831 0.28419,0.21669 0.009,-0.0147 0.015,-0.48724 0.0133,-1.05014 -0.004,-1.26146 -0.0394,-1.17758 0.4984,-1.17758 0.55211,0 0.49956,-0.22186 0.49956,2.10899 0,2.32883 0.0476,2.07538 -0.39191,2.08814 -0.3738,0.0109 -0.39457,2.8e-4 -0.65936,-0.33563 -0.11364,-0.14418 -0.26298,-0.3313 -0.33186,-0.41584 -0.35964,-0.44143 -0.84436,-1.05198 -0.99965,-1.25916 -0.29921,-0.3992 -0.28526,-0.4404 -0.28238,0.83335 0.003,1.29857 0.0522,1.18155 -0.49753,1.18155 -0.33848,0 -0.37733,-0.005 -0.42387,-0.0512 z m 5.05265,0.0197 c -0.0942,-0.0454 -0.0955,-0.0751 -0.0955,-2.10342 0,-1.9428 0,-1.9428 0.0719,-2.00463 0.0719,-0.0618 0.0719,-0.0618 1.29845,-0.0618 1.54042,0 1.47247,-0.0232 1.2551,0.42854 -0.0697,0.14485 -0.13392,0.29202 -0.14271,0.32703 -0.0205,0.0817 -0.17478,0.21764 -0.24842,0.21887 -0.0312,4.9e-4 -0.29308,2.5e-4 -0.58192,-4.9e-4 -0.66522,-0.002 -0.64046,-0.0145 -0.64046,0.31962 0,0.18411 0.009,0.24949 0.0403,0.28036 0.0463,0.0463 0.0371,0.0458 0.61418,0.0405 0.62291,-0.006 0.62648,-0.003 0.62648,0.48894 0,0.49936 0.0207,0.48428 -0.66248,0.48428 -0.64104,0 -0.61844,-0.0118 -0.61844,0.32022 0,0.34195 -0.0601,0.32023 0.8867,0.32023 0.97858,0 0.89378,-0.0462 0.89378,0.48675 0,0.54427 0.16254,0.48714 -1.37983,0.48501 -0.85601,-0.001 -1.27748,-0.0107 -1.31706,-0.0298 z m 3.96142,-0.0174 c -0.0939,-0.076 -0.096,-3.9874 -0.002,-4.08127 0.1586,-0.1587 1.92378,-0.0839 2.34675,0.0994 1.73344,0.75131 1.74641,3.0708 0.0216,3.85289 -0.38929,0.17651 -2.18647,0.27449 -2.36614,0.129 z m 1.79446,-0.96398 c 1.10987,-0.26161 1.17706,-1.80317 0.0939,-2.15545 -0.20228,-0.0658 -0.87218,-0.0797 -0.93871,-0.0195 -0.0692,0.0626 -0.0779,2.10545 -0.009,2.17413 0.0551,0.0551 0.6215,0.0556 0.854,0.001 z m 3.00042,0.96241 c -0.0903,-0.0903 -0.0798,-3.99722 0.0109,-4.08798 0.0629,-0.0629 0.0629,-0.0629 1.28802,-0.0629 1.48636,0 1.44491,-0.0121 1.26472,0.36832 -0.0409,0.0863 -0.1089,0.23353 -0.15119,0.32725 -0.13236,0.29339 -0.088,0.27792 -0.79741,0.27792 -0.74129,0 -0.69353,-0.0228 -0.69353,0.33173 0,0.33855 -0.03,0.32187 0.5622,0.31218 0.70001,-0.0115 0.6931,-0.0164 0.6931,0.49549 0,0.47738 0.004,0.47455 -0.67872,0.47455 -0.60563,0 -0.57658,-0.0161 -0.57658,0.32023 0,0.34569 -0.0675,0.32023 0.84892,0.32023 0.82704,0 0.84885,0.003 0.88895,0.1343 0.0442,0.14428 0.0212,0.73067 -0.0307,0.78255 -0.0745,0.0746 -2.55456,0.0803 -2.62878,0.006 z m 4.08068,0.0248 c -0.11058,-0.0445 -0.11055,-0.0439 -0.11055,-2.0749 0,-2.07273 -0.003,-2.02555 0.13137,-2.07239 0.1247,-0.0434 1.69351,-0.0375 1.97063,0.007 0.86954,0.14115 1.56867,1.14277 1.31999,1.89113 -0.02,0.0604 -0.0498,0.1606 -0.0661,0.22274 -0.0594,0.22606 -0.24662,0.48058 -0.54425,0.7397 -0.14732,0.12825 -0.14167,0.13772 0.40369,0.67699 0.51323,0.50749 0.52769,0.52622 0.4591,0.59482 -0.0476,0.0476 -1.03151,0.0601 -1.15099,0.0147 -0.0371,-0.014 -0.27036,-0.22265 -0.51848,-0.46345 -0.50093,-0.48619 -0.49817,-0.48443 -0.76014,-0.48443 -0.2684,0 -0.27129,0.005 -0.27129,0.45871 0,0.50488 -0.01,0.51547 -0.47837,0.51316 -0.18074,-0.001 -0.35379,-0.0118 -0.38458,-0.0242 z m 2.01153,-1.99214 c 0.48137,-0.2385 0.45188,-0.95951 -0.047,-1.14911 -0.17869,-0.0679 -0.98233,-0.084 -1.0519,-0.021 -0.0619,0.056 -0.0781,1.16053 -0.0177,1.20957 0.0996,0.0808 0.93323,0.0514 1.11656,-0.0395 z m 2.84787,2.00016 c -0.10337,-0.0369 -0.10248,-0.0188 -0.10248,-2.07617 0,-2.36779 -0.0596,-2.10745 0.48275,-2.10745 0.53599,0 0.47663,-0.19975 0.48466,1.63089 0.006,1.40054 0.0105,1.53574 0.0497,1.56499 0.0322,0.024 0.23794,0.032 0.81764,0.032 0.67005,0 0.78007,0.006 0.81489,0.0403 0.0555,0.0555 0.0504,0.18642 -0.0115,0.29319 -0.0284,0.0491 -0.0695,0.12961 -0.0913,0.17892 -0.22318,0.50532 -0.0941,0.46153 -1.3527,0.45911 -0.57931,-0.001 -1.07059,-0.008 -1.09171,-0.0158 z m 3.55498,-0.0119 c -0.12151,-0.0444 -0.12729,-0.11917 -0.11524,-1.49226 0.0124,-1.40978 0.0106,-1.39445 0.19935,-1.75724 0.69108,-1.3285 2.87204,-1.25998 3.29026,0.10336 0.0106,0.0347 0.0491,0.13232 0.0854,0.21687 0.0883,0.2056 0.10895,2.81413 0.0229,2.90027 -0.0402,0.0403 -0.096,0.0458 -0.45679,0.0458 -0.5186,0 -0.48377,0.0359 -0.48377,-0.49933 0,-0.51257 0.0929,-0.46136 -0.83712,-0.46136 -0.93739,0 -0.8633,-0.0375 -0.84363,0.42675 0.0151,0.35591 -0.008,0.47471 -0.10078,0.51695 -0.08,0.0365 -0.66093,0.0367 -0.76063,2.6e-4 z m 2.50349,-1.94277 c 0.0651,-0.054 0.054,-0.59736 -0.0161,-0.787 -0.29182,-0.78995 -1.49165,-0.67879 -1.61135,0.14928 -0.041,0.28338 -0.0315,0.57945 0.0202,0.63111 0.0576,0.0576 1.53849,0.0637 1.60729,0.007 z m 2.43398,1.93748 c -0.0589,-0.0434 -0.10758,-3.87246 -0.0511,-4.01276 0.0494,-0.12254 0.13342,-0.0973 0.38023,0.11414 0.26868,0.23019 0.31806,0.24013 0.4832,0.0972 0.90677,-0.78473 2.36606,-0.45006 2.74714,0.63005 0.0188,0.0532 0.0573,0.14798 0.0855,0.21052 0.0846,0.18718 0.10801,0.56734 0.10801,1.75144 0,1.37541 0.061,1.23152 -0.52219,1.23152 -0.5934,0 -0.53154,0.13523 -0.52904,-1.15659 0.002,-1.22828 -0.0241,-1.46536 -0.19232,-1.71912 -0.29473,-0.44466 -0.93948,-0.48584 -1.30035,-0.0831 -0.21027,0.23471 -0.20672,0.20876 -0.22209,1.61933 -0.0125,1.15256 -0.0171,1.25151 -0.0593,1.29372 -0.0636,0.0636 -0.84652,0.0835 -0.92782,0.0236 z m 5.13646,-0.0163 c -0.0932,-0.0932 -0.0776,-4.02321 0.0163,-4.09707 0.0872,-0.0686 1.49643,-0.0801 1.87949,-0.0154 2.3853,0.40302 2.34373,3.75935 -0.0512,4.13707 -0.33918,0.0535 -1.78572,0.0343 -1.84452,-0.0246 z m 1.74352,-0.94816 c 1.16633,-0.22119 1.2738,-1.86792 0.14115,-2.16294 -0.20793,-0.0542 -0.85179,-0.0591 -0.90396,-0.007 -0.0631,0.0631 -0.055,2.11622 0.009,2.16268 0.0555,0.0406 0.55314,0.0453 0.75421,0.007 z m 14.92117,-0.77034 c -0.0564,-0.0113 -0.48867,-0.0141 -0.96068,-0.006 -0.90043,0.0149 -1.53841,-0.0117 -1.87014,-0.0781 -0.10568,-0.0212 -0.26264,-0.0497 -0.34882,-0.0635 -0.18934,-0.0303 -0.65531,-0.24432 -0.81285,-0.3734 -0.17005,-0.13935 -0.29983,-0.10329 -0.2099,0.0583 0.26112,0.46927 0.18333,0.53219 -0.33205,0.26859 -0.12537,-0.0641 -0.52455,-0.19249 -0.7173,-0.23066 -0.0986,-0.0196 -0.33497,-0.0645 -0.52518,-0.0998 -0.55915,-0.10398 -0.78234,-0.24857 -1.01533,-0.65775 -0.13199,-0.23182 -0.19023,-0.24703 -0.22157,-0.0579 -0.0405,0.24472 -0.14336,0.24991 -0.28639,0.0145 -0.0498,-0.0821 -0.0907,-0.15989 -0.0907,-0.1729 0,-0.013 -0.0343,-0.0778 -0.0763,-0.14395 -0.12783,-0.20157 -0.24495,-0.14694 -0.2378,0.11091 0.009,0.33405 -0.47986,0.14709 -1.07713,-0.41172 -0.73567,-0.6883 -0.63676,-0.97297 0.38221,-1.1 0.22383,-0.0279 0.51649,-0.0646 0.65035,-0.0816 0.42756,-0.0542 1.67329,-0.0381 2.22879,0.029 0.26067,0.0315 0.56617,0.0671 0.67889,0.0792 0.11271,0.0121 0.26835,0.0398 0.34584,0.0615 0.0775,0.0217 0.21584,0.0516 0.30742,0.0665 0.0916,0.0149 0.25298,0.054 0.35866,0.0871 0.10567,0.0331 0.23824,0.0722 0.29461,0.0868 1.30296,0.33873 2.60365,1.11921 3.53206,2.1194 0.38209,0.41165 0.38315,0.57173 0.003,0.49569 z m -6.57539,-4.03283 c -0.007,-0.007 -0.138,-0.0181 -0.29099,-0.0244 -0.15299,-0.006 -0.45174,-0.029 -0.66391,-0.0502 -0.21216,-0.0213 -0.54167,-0.0507 -0.73224,-0.0653 -0.19056,-0.0147 -0.43266,-0.0427 -0.53798,-0.0622 -0.10532,-0.0196 -0.34713,-0.0499 -0.53735,-0.0676 -0.45134,-0.0418 -0.51823,-0.0678 -0.50755,-0.19681 0.0101,-0.12191 0.0665,-0.15141 0.3498,-0.18311 0.2706,-0.0303 0.32498,-0.0669 0.37599,-0.25338 0.0221,-0.0809 0.0743,-0.21822 0.11595,-0.30508 0.0417,-0.0868 0.0757,-0.16444 0.0757,-0.17242 0,-0.21488 0.36458,-0.40965 0.42399,-0.22652 0.0573,0.1767 0.12325,0.16765 0.25801,-0.0354 0.25187,-0.37945 0.82815,-0.78053 1.57737,-1.09782 0.42653,-0.18064 0.56873,-0.10068 0.3443,0.1936 -0.24201,0.31734 0.0165,0.40376 0.38085,0.12731 0.18336,-0.13914 0.46262,-0.17207 1.2553,-0.14805 0.42047,0.0128 1.02412,-0.20573 1.53529,-0.5557 0.30324,-0.20761 0.42698,-0.14737 0.25865,0.12592 -0.0729,0.1184 -0.0822,0.20557 -0.0242,0.22782 0.0665,0.0255 0.0735,0.0216 0.23143,-0.13259 0.16293,-0.15894 0.42436,-0.31719 0.60369,-0.36543 0.0609,-0.0164 0.14193,-0.046 0.18015,-0.0657 0.22854,-0.11808 2.23663,-0.28143 2.536,-0.2063 0.16157,0.0405 0.0923,0.20907 -0.12553,0.30547 -0.61429,0.27181 -0.70739,0.57722 -0.11565,0.37941 0.16706,-0.0558 0.39514,-0.11332 0.50682,-0.12772 0.11169,-0.0144 0.24334,-0.038 0.29256,-0.0526 0.11161,-0.033 0.77131,-0.0337 0.90962,-0.001 0.0564,0.0133 0.1911,0.0365 0.29942,0.0516 0.25218,0.0351 0.91743,0.26879 1.03913,0.36502 0.0901,0.0712 0.037,0.14403 -0.19213,0.26341 -0.12329,0.0642 -0.32215,0.17418 -0.44191,0.24432 -0.23783,0.13929 -1.35708,0.69716 -1.46025,0.72784 -0.0352,0.0105 -0.10439,0.0402 -0.15371,0.0661 -0.16315,0.0856 -0.8718,0.34619 -1.14771,0.42211 -0.0747,0.0205 -0.16714,0.0536 -0.20546,0.0734 -0.0383,0.0198 -0.13544,0.0482 -0.21583,0.0631 -0.0804,0.0149 -0.18057,0.0448 -0.22264,0.0666 -0.0421,0.0218 -0.15476,0.0563 -0.25042,0.0768 -0.0957,0.0205 -0.23992,0.0608 -0.32058,0.0895 -0.0807,0.0287 -0.17225,0.0523 -0.20352,0.0523 -0.0589,0 -0.60995,0.10498 -0.87949,0.16754 -0.0845,0.0196 -0.26323,0.0482 -0.39709,0.0637 -0.13386,0.0154 -0.32407,0.0437 -0.4227,0.0629 -0.0986,0.0192 -0.28308,0.0419 -0.40989,0.0504 -0.12681,0.009 -0.41501,0.0319 -0.64046,0.0521 -0.92239,0.0825 -1.07901,0.0906 -1.74418,0.0904 -0.3816,0 -0.6996,-0.006 -0.70666,-0.013 z m -33.36308,-0.4035 c -0.064,-0.0555 -0.1112,-3.88969 -0.0498,-4.04958 0.0328,-0.0855 0.42171,-0.12107 0.53315,-0.0487 0.0316,0.0205 0.3697,0.37674 0.78438,0.82644 0.78962,0.85631 0.777,0.84805 0.96891,0.634 0.0659,-0.0735 0.22362,-0.2394 0.35043,-0.36861 0.12681,-0.12922 0.40348,-0.4223 0.61484,-0.6513 0.41647,-0.45126 0.4665,-0.48598 0.70022,-0.48598 0.31102,0 0.28608,-0.18186 0.28608,2.0863 0,2.38966 0.0631,2.1151 -0.48577,2.1151 -0.55526,0 -0.4978,0.13095 -0.51335,-1.16975 -0.0158,-1.31914 0.035,-1.25539 -0.51286,-0.64431 -0.62714,0.69956 -0.61899,0.69392 -0.76145,0.52745 -0.0389,-0.0454 -0.12252,-0.13551 -0.18592,-0.20022 -0.17156,-0.17509 -0.5175,-0.56219 -0.59812,-0.66928 -0.21935,-0.29137 -0.23337,-0.23251 -0.22466,0.94339 0.008,1.09017 0.004,1.12935 -0.11632,1.18428 -0.12749,0.0581 -0.71406,0.0364 -0.78972,-0.0292 z m 5.69965,0.0395 c -0.11998,-0.0441 -0.12809,-0.0739 -0.12809,-0.47068 0,-0.47234 0.009,-0.48464 0.34441,-0.48464 0.33012,0 0.30163,0.10674 0.30105,-1.12756 -4.9e-4,-1.23655 0.0298,-1.12685 -0.31242,-1.12685 -0.32256,0 -0.31743,0.007 -0.33318,-0.43977 -0.0203,-0.5752 -0.10927,-0.53372 1.1448,-0.53372 1.26014,0 1.17126,-0.041 1.15667,0.53461 -0.0111,0.43681 -0.023,0.45231 -0.34209,0.44513 -0.34656,-0.008 -0.32052,-0.10215 -0.31207,1.1307 0.008,1.2164 -0.0186,1.11746 0.30412,1.11746 0.3387,0 0.35436,0.0203 0.35436,0.45876 0,0.3582 -0.0204,0.44121 -0.11932,0.48629 -0.0644,0.0293 -1.98032,0.0389 -2.05824,0.0102 z m 3.62227,-0.0417 c -0.08,-0.0688 -0.13565,-3.83399 -0.0594,-4.01811 0.10206,-0.24638 2.02186,-0.16418 2.56682,0.10992 0.9067,0.45604 1.43746,1.6905 1.07457,2.49932 -0.0453,0.10099 -0.0826,0.19898 -0.0829,0.21775 -0.005,0.30699 -0.82647,1.00536 -1.38286,1.17541 -0.31673,0.0968 -2.00735,0.10936 -2.11622,0.0157 z m 1.96612,-0.99339 c 1.01735,-0.39234 0.95612,-1.79055 -0.0933,-2.12985 -0.0963,-0.0311 -0.86182,-0.0486 -0.90697,-0.0207 -0.0471,0.0291 -0.049,2.13582 -0.002,2.19251 0.0672,0.081 0.75835,0.0521 1.00219,-0.042 z m 2.89729,1.02672 c -0.10626,-0.0427 -0.10851,-0.0862 -0.10851,-2.09859 0,-1.87487 0.002,-1.94459 0.049,-2.00296 0.0952,-0.11747 1.84727,-0.0889 2.21842,0.0362 2.04998,0.69083 1.94256,3.52186 -0.1529,4.02954 -0.2733,0.0662 -1.85986,0.0945 -2.00603,0.0359 z m 1.86363,-0.99802 c 1.00604,-0.3389 1.08787,-1.62275 0.13349,-2.09444 -0.20378,-0.10071 -0.97286,-0.15032 -1.05512,-0.068 -0.0219,0.0219 -0.0456,1.84285 -0.0278,2.13114 0.006,0.0968 0.68828,0.11933 0.94943,0.0313 z m 2.90698,0.96169 c -0.0924,-0.0924 -0.10103,-3.99357 -0.009,-4.0769 0.0852,-0.0771 2.54469,-0.0895 2.63873,-0.0133 0.07,0.0567 0.0833,0.006 -0.1313,0.50248 -0.19967,0.46213 -0.13491,0.42958 -0.845,0.42468 -0.74988,-0.005 -0.71723,-0.0195 -0.71723,0.31488 0,0.33903 -0.0296,0.3236 0.62141,0.3236 0.67051,0 0.63389,-0.0288 0.63389,0.49904 0,0.48981 0.0371,0.46024 -0.58556,0.46628 -0.26268,0.002 -0.50271,0.006 -0.53341,0.006 -0.10884,0.003 -0.13633,0.0652 -0.13633,0.30613 0,0.34831 -0.0715,0.32102 0.88087,0.33611 0.98819,0.0157 0.89645,-0.031 0.90795,0.46201 0.0129,0.55549 0.13372,0.51148 -1.40374,0.51148 -1.25842,0 -1.25842,0 -1.32131,-0.0629 z m 3.97068,-2.5e-4 c -0.063,-0.063 -0.063,-0.063 -0.0565,-2.05587 0.008,-2.31983 -0.025,-2.1694 0.39467,-1.81937 0.31614,0.26369 0.31265,0.26326 0.54696,0.0681 1.04116,-0.86715 2.6173,-0.24976 2.8496,1.1162 0.0384,0.22577 0.0553,2.53997 0.0191,2.62717 -0.0448,0.10823 -0.1221,0.1268 -0.52754,0.1268 -0.56305,0 -0.5195,0.10981 -0.51814,-1.30654 0.002,-1.35779 -0.0133,-1.44611 -0.28035,-1.6959 -0.36097,-0.33764 -0.80841,-0.32988 -1.17438,0.0204 -0.25324,0.24237 -0.25217,0.23551 -0.25829,1.64626 -0.004,1.05242 -0.0106,1.22136 -0.0454,1.27451 -0.0635,0.0969 -0.85254,0.0954 -0.94973,-0.002 z m 6.47506,-2.06831 c -0.0823,-0.0823 -0.0196,-0.13831 0.43287,-0.38689 0.2359,-0.12961 0.24489,-0.14363 0.20565,-0.32096 -0.06,-0.27118 -0.062,-0.34319 -0.0167,-0.59019 0.14033,-0.76349 0.69941,-1.57919 1.48554,-2.16743 0.42419,-0.31741 0.49858,-0.2773 0.46894,0.25279 -0.0195,0.34845 0.059,0.42535 0.16618,0.16283 0.39453,-0.96632 1.38546,-1.97868 2.55531,-2.61058 0.13386,-0.0723 0.27398,-0.15287 0.31138,-0.17905 0.17452,-0.12214 0.27171,-0.0408 0.226,0.1892 -0.037,0.18621 -0.0143,0.33186 0.0959,0.61399 0.0928,0.23764 0.18627,0.21975 0.18662,-0.0357 0,-0.0608 0.0122,-0.17973 0.0271,-0.26427 0.0149,-0.0845 0.0419,-0.26954 0.0602,-0.41112 0.0357,-0.2761 0.0539,-0.32709 0.14714,-0.41216 0.0729,-0.0665 1.11855,-0.76268 1.29303,-0.86087 0.0686,-0.0387 0.20542,-0.11771 0.30405,-0.17579 0.18858,-0.11103 0.51084,-0.28468 0.89665,-0.48314 0.23932,-0.1231 0.87438,-0.39568 0.9863,-0.42333 0.0352,-0.009 0.11592,-0.0371 0.17933,-0.063 1.03813,-0.42483 2.39176,-0.52962 3.22184,-0.24943 0.40258,0.1359 0.50721,0.24144 0.39899,0.40243 -0.65061,0.9679 -1.69127,1.93733 -3.48051,3.24229 -0.3439,0.25082 -1.69353,1.13174 -2.10954,1.37692 -0.0756,0.0446 -0.19668,0.11667 -0.26899,0.16022 -0.31718,0.19101 -0.66241,0.39162 -1.04093,0.60487 -0.18358,0.10343 -1.00216,0.5314 -1.48586,0.77685 -0.27506,0.13957 -0.96949,0.47328 -0.98487,0.47328 -0.008,0 -0.13572,0.0578 -0.28407,0.12849 -0.14835,0.0707 -0.3126,0.14439 -0.36501,0.16383 -0.0524,0.0194 -0.25092,0.10061 -0.44113,0.18038 -0.36205,0.15181 -0.52884,0.21523 -0.77645,0.29522 -0.0818,0.0264 -0.16253,0.0594 -0.17933,0.0732 -0.0168,0.0138 -0.0997,0.0444 -0.18423,0.0679 -0.0845,0.0236 -0.21135,0.0644 -0.2818,0.0908 -0.17413,0.0652 -0.61382,0.18974 -0.90945,0.25751 -0.13386,0.0307 -0.31664,0.0773 -0.40619,0.1037 -0.18532,0.0545 -0.38868,0.0626 -0.43409,0.0172 z m -0.92169,-3.03209 c -0.0903,-0.0633 -0.0688,-0.17889 0.0592,-0.31878 0.0322,-0.0352 0.14569,-0.19662 0.25212,-0.35865 0.10643,-0.16203 0.23428,-0.35082 0.2841,-0.41954 0.10676,-0.1472 0.11474,-0.23815 0.0366,-0.41733 -0.22507,-0.51634 -0.32462,-1.23176 -0.25052,-1.80048 0.11759,-0.90254 0.34573,-1.23099 0.45941,-0.6614 0.0717,0.35909 0.11106,0.29152 0.1305,-0.22377 0.009,-0.23952 0.0339,-0.5162 0.0551,-0.61483 0.0213,-0.0986 0.0466,-0.24274 0.0562,-0.32023 0.0151,-0.12165 0.11885,-0.53681 0.23053,-0.92226 0.0337,-0.11622 0.12105,-0.34362 0.26319,-0.68502 0.10562,-0.25367 0.44597,-0.87507 0.60534,-1.10523 0.072,-0.104 0.1479,-0.21352 0.16862,-0.24337 0.43046,-0.62033 1.07698,-1.2627 1.203,-1.19526 0.0569,0.0305 0.0605,0.0427 0.10225,0.34683 0.0577,0.42043 0.29812,0.91606 0.42146,0.86873 0.0652,-0.0251 0.0724,-0.10097 0.0244,-0.25864 -0.0772,-0.25362 -0.0678,-1.52425 0.0137,-1.85258 0.12308,-0.49595 0.28664,-0.99556 0.39336,-1.20147 0.0604,-0.11659 0.13466,-0.25982 0.16498,-0.31829 0.10675,-0.20583 0.28995,-0.30889 0.22487,-0.12651 -0.0189,0.053 -0.0349,0.13288 -0.0355,0.1775 -4.9e-4,0.0447 -0.0251,0.13685 -0.0542,0.20495 -0.11572,0.26962 -0.18549,1.72274 -0.10495,2.18608 0.0184,0.10567 0.0367,0.23249 0.0408,0.2818 0.0125,0.15135 0.0141,0.15719 0.039,0.14183 0.0133,-0.008 0.023,-0.0752 0.0216,-0.14882 -0.003,-0.16388 0.077,-1.16772 0.0956,-1.19778 0.007,-0.0119 0.0248,-0.14052 0.0387,-0.28585 0.0546,-0.5688 0.24152,-1.27709 0.46531,-1.7629 0.49514,-1.07484 1.17632,-1.78515 0.93359,-0.97349 -0.0586,0.19593 -0.0818,0.48891 -0.0443,0.55899 0.0638,0.11918 0.23303,0.0204 0.23303,-0.13603 0,-0.0567 0.22339,-0.64831 0.28041,-0.74265 0.0257,-0.0426 0.0554,-0.10622 0.0658,-0.14144 0.0933,-0.31395 0.75628,-1.41947 1.09853,-1.83171 0.0585,-0.0704 0.14042,-0.17421 0.18206,-0.23057 0.38487,-0.52087 1.73535,-1.63729 1.92346,-1.59008 0.17024,0.0427 0.38196,1.1264 0.33159,1.69721 -0.0109,0.12426 -0.0239,0.28845 -0.0287,0.36488 -0.005,0.0764 -0.0212,0.2263 -0.0363,0.33304 -0.0151,0.10673 -0.0379,0.30935 -0.0506,0.45025 -0.0128,0.1409 -0.0413,0.30723 -0.0634,0.36963 -0.0221,0.0624 -0.0525,0.19497 -0.0674,0.29461 -0.0149,0.0996 -0.055,0.2711 -0.0892,0.38103 -0.0341,0.10992 -0.0619,0.21944 -0.0617,0.24337 4.9e-4,0.0823 -0.31221,1.10971 -0.46566,1.52937 -0.0567,0.15499 -0.12499,0.34521 -0.15182,0.4227 -0.0268,0.0775 -0.0705,0.18125 -0.0971,0.23056 -0.0266,0.0493 -0.0568,0.11849 -0.067,0.15371 -0.0103,0.0352 -0.0503,0.13898 -0.0891,0.23057 -0.0388,0.0916 -0.11436,0.27027 -0.16795,0.39708 -0.0898,0.21252 -0.8622,1.76054 -0.90755,1.8189 -0.0109,0.0141 -0.0565,0.0922 -0.10131,0.17363 -0.0448,0.0814 -0.1126,0.1995 -0.1507,0.26242 -0.0381,0.0629 -0.16123,0.26724 -0.2736,0.45402 -1.20553,2.00385 -3.18715,4.32444 -4.91935,5.76087 -0.12681,0.10517 -0.33477,0.27772 -0.46214,0.38346 -1.12857,0.93694 -1.99153,1.48356 -2.15803,1.36694 z m -22.17831,-0.91027 c -2.21276,-0.33188 -2.64513,-3.39272 -0.58922,-4.17119 0.0845,-0.032 0.19883,-0.075 0.25397,-0.0956 0.135,-0.0504 0.71554,-0.0737 0.9888,-0.0396 1.16098,0.14451 2.14397,1.57786 1.78661,2.60513 -0.0245,0.0704 -0.0598,0.1868 -0.0783,0.25855 -0.10813,0.41772 -0.62464,0.98386 -1.14141,1.25109 -0.27203,0.14068 -0.90145,0.23954 -1.22042,0.1917 z m 0.67221,-1.05968 c 0.82138,-0.25367 1.02873,-1.49959 0.33767,-2.02894 -0.82153,-0.62928 -1.94124,-0.044 -1.88739,0.98644 0.0415,0.79397 0.76925,1.28353 1.54972,1.0425 z m 4.65165,1.06179 c -2.34133,-0.34279 -2.58582,-3.51995 -0.3283,-4.2662 0.65426,-0.21626 1.88584,0.10434 2.16857,0.56452 0.0716,0.11652 0.0676,0.12373 -0.23219,0.42052 -0.35646,0.35291 -0.36918,0.35688 -0.5887,0.18414 -0.89228,-0.70215 -2.14523,0.17233 -1.83154,1.27829 0.23833,0.84026 1.30218,1.09563 1.96142,0.47084 0.21496,-0.20372 0.23676,-0.1986 0.56922,0.13387 0.39443,0.39442 0.3771,0.45944 -0.23261,0.8732 -0.37718,0.25597 -1.03494,0.40683 -1.48587,0.34082 z m -11.57945,-0.0769 c -0.11319,-0.0456 -0.11272,-0.0369 -0.11184,-2.10211 0.001,-2.05848 0.001,-2.05957 0.11319,-2.08774 0.18669,-0.0469 1.92614,0.005 2.14251,0.0637 1.23465,0.33572 1.61846,1.83288 0.69159,2.69777 -0.26264,0.24507 -0.2752,0.2829 -0.13439,0.40502 0.0528,0.0458 0.27764,0.2594 0.49956,0.47461 0.57358,0.55627 0.56789,0.57466 -0.17765,0.57444 -0.6663,-2e-4 -0.60619,0.0261 -1.11919,-0.49048 -0.48325,-0.48666 -0.47725,-0.48288 -0.76509,-0.48288 -0.29889,0 -0.30157,0.004 -0.2837,0.39313 0.0179,0.39045 -0.01,0.51235 -0.12431,0.55237 -0.0949,0.0331 -0.64991,0.0347 -0.73068,0.002 z m 1.97754,-1.987 c 0.50494,-0.25981 0.50977,-0.89913 0.009,-1.15303 -0.22836,-0.11572 -0.95532,-0.16178 -1.07129,-0.0679 -0.0667,0.054 -0.0894,1.17237 -0.0253,1.24959 0.0621,0.0748 0.9313,0.0519 1.08789,-0.0287 z"
         id="path1764" /><g
         id="g2591"
         transform="matrix(0.10213602,0,0,0.10213602,95.087759,177.61009)"><path
           id="path2116"
           style="fill:#2768d1;stroke-width:0.264583"
           d="m 1317.5873,60.778202 c -6.7695,-9.86e-4 -13.7443,1.507861 -18.9756,6.002218 -10.8431,9.315537 -10.945,27.877327 -0.3907,37.48867 4.1327,3.76341 9.532,5.30562 14.8844,6.23528 0.832,0.14451 1.6658,0.31192 2.5099,0.31936 7.663,0.0675 15.9389,-1.91147 21.2824,-7.74888 7.5433,-8.240467 8.4963,-21.681197 2.7409,-31.207919 -4.5371,-7.510259 -13.5006,-11.087483 -22.0513,-11.088729 z m 111.2728,0.02532 c -0.4023,-0.0035 -0.7839,0.0052 -1.1405,0.0279 -9.2095,-0.265788 -18.8139,4.250636 -23.4818,12.377022 -3.2675,4.793131 -3.4005,10.742794 -3.1337,16.310633 1.0364,7.463509 5.6826,14.342573 12.4024,17.844383 8.911,4.6437 23.9482,4.00759 33.6103,-1.00459 V 83.39801 h -19.05 v 4.149618 c -0.7728,2.890476 1.3473,3.474978 3.9791,2.806547 5.5044,-1.418726 5.1745,4.594679 4.9077,8.210868 -1.2313,4.287157 -7.4085,3.151017 -10.9259,3.169317 -5.6485,0.23552 -10.1897,-4.223611 -12.144,-9.177736 -1.3171,-4.564419 -1.4947,-9.812151 0.2749,-14.308687 2.3401,-5.988274 8.9893,-8.380396 15.2384,-8.479586 4.3249,-0.06865 11.5471,2.316655 11.5471,2.316655 l 4.6085,-8.408789 c 0,0 -10.6582,-2.819599 -16.6925,-2.872693 z m -309.0359,0.03979 c -14.8574,-0.120885 -26.3349,7.401189 -26.7741,24.388692 -0.4389,16.979376 13.0097,27.909246 30.5041,25.045506 4.4427,-0.72726 7.3735,-1.27492 10.8179,-4.03438 -0.2883,-1.62915 -2.6736,-5.81456 -3.9558,-7.532362 l -0.3917,-0.149862 c -2.3868,1.661284 -4.2552,2.341214 -6.7335,2.603464 -6.5764,0.69591 -18.4011,-1.05474 -18.5218,-17.502813 -0.072,-9.78503 13.8101,-18.544869 24.1721,-11.508858 h 0.2057 0.2057 c 1.5783,-2.573307 3.0312,-5.214089 4.5806,-7.805209 -3.424,-2.646256 -10.1779,-3.472188 -14.1092,-3.504178 z m 245.6408,0.246496 c -3.2662,-0.0065 -6.5172,0.07126 -9.5447,0.0801 l -0.9172,1.059883 c 0,0 -0.3043,31.874217 -0.1158,47.382639 v 0 l 0.1101,0.11007 h 11.005 l 0.1111,-13.728361 c -2e-4,-5.92551 2.805,-5.42706 4.7863,-4.480347 4.2109,4.669777 12.0282,18.160138 12.0282,18.160138 l 11.8783,0.0811 -13.2571,-21.167188 c 6.8971,-2.813481 9.7858,-5.44602 9.9974,-13.750582 0.1189,-4.668531 -2.4802,-8.885597 -6.5252,-10.85205 -5.111,-2.459181 -12.3698,-2.881122 -19.5554,-2.895431 z m -83.9778,0.465088 -17.198,0.07286 -17.1979,0.07286 -0.076,3.704166 -0.076,3.704167 0.1468,0.595312 0.1477,0.595313 h 9.9958 9.9963 l 0.3178,0.31781 0.3173,0.317293 v 0.572575 l -20.8923,29.616278 -0.7865,1.05834 -0.022,3.57187 -0.022,3.57188 0.014,0.19843 v 0 l 0.014,0.19844 h 18.373 18.373 l 0.082,-0.19844 0.082,-0.19843 -0.1323,-4.0442 -0.1323,-4.04368 -11.1125,-0.0574 -11.1125,-0.0568 20.1305,-29.990415 1.0806,-1.499133 0.3385,-0.63252 0.339,-0.63252 0.036,-3.279386 0.036,-3.279903 -0.5292,-0.127641 z m -337.64714,5.17e-4 -4.74286,0.07235 -4.74286,0.07235 -0.14625,15.08125 -0.14572,15.08125 c 0,6.353869 -3.1329,9.817757 -10.61848,9.850557 -6.20474,0.17683 -10.88254,-2.812952 -10.88254,-8.146785 l -0.23823,-1.968355 -0.0501,-0.661459 -0.0506,-0.661458 -0.12558,-14.353646 -0.12557,-14.353646 h -5.35833 -5.35833 l -0.25115,0.251148 -0.25115,0.251147 0.15607,15.425415 0.15606,15.425415 c 0,11.280934 6.59373,17.739484 22.04465,17.739484 15.19492,0 21.15426,-6.22199 21.15426,-18.295522 l 0.0191,-15.174268 0.0191,-15.173751 -0.23099,-0.230993 z m 211.83824,0.0021 -5.4901,0.07183 -5.4901,0.07131 -0.1323,23.900866 -0.1323,23.900871 0.1101,0.11007 0.11,0.11007 h 5.5124 5.5118 v -9.789586 -9.789583 l 0.5384,-0.537952 0.538,-0.537951 10.3332,0.07493 10.3338,0.07493 0.5147,0.63562 0.5141,0.635621 -0.028,9.550831 -0.028,9.55084 h 5.5092 5.5093 l 0.068,-23.795959 0.068,-23.795963 -0.3323,-0.21084 -0.3323,-0.21084 -5.0772,-0.0041 -5.0777,-0.0041 -0.1618,0.261999 -0.1617,0.261483 0.02,8.542114 0.02,8.542631 -0.3819,0.522449 -0.3819,0.522449 -10.5776,0.07493 -10.5772,0.07493 -0.4242,-0.424781 -0.4243,-0.424263 V 70.53988 Z m -102.7534,0.0067 -0.2181,0.218074 -0.2186,0.218075 v 23.728784 23.728784 0.13229 0.13229 h 15.5949 15.5949 l 0.082,-0.19844 0.082,-0.19843 -0.1323,-4.04834 -0.1323,-4.04833 -9.585,0.0196 -9.5849,0.0196 -0.5354,-0.53537 -0.5354,-0.53537 v -5.129916 -5.130436 l 0.4631,-0.559139 0.463,-0.559656 8.4667,-0.06511 8.4666,-0.06511 V 84.98396 81.279793 l -8.6749,-0.132291 -8.6749,-0.132292 -0.2507,-0.396875 -0.2506,-0.396875 v -4.505151 -4.505152 l 0.4119,-0.588078 0.4118,-0.588077 9.3116,-0.0041 9.3116,-0.0041 0.338,-0.214457 0.3384,-0.214457 -0.073,-3.948596 -0.074,-3.948596 -15.1981,-0.06821 z m -100.19546,10e-4 0.0724,4.37286 0.0729,4.37286 6.93601,0.06046 6.93602,0.06046 0.47232,0.472839 0.47232,0.472323 0.0636,19.106844 0.0636,19.106331 0.003,0.0662 h -5.2e-4 l 0.003,0.0661 h 5.42396 5.42396 l 0.004,-19.116148 0.004,-19.116146 0.19482,-0.290938 0.1943,-0.290939 0.59273,-0.312125 0.59273,-0.312126 6.52467,0.02532 6.52466,0.02481 0.22428,-0.347782 0.22479,-0.348299 -0.0661,-3.96875 -0.0656,-3.96875 -20.44578,-0.0677 z m 245.28476,0.0031 v 4.431771 4.431771 h 7.0022 7.0016 l 0.4728,0.472322 0.4724,0.47284 0.063,19.106327 0.063,19.106846 v 0.0713 l 0.01,5.2e-4 v 0.0713 l 5.5635,-0.0713 5.5634,-0.0718 -0.011,-18.862417 -0.011,-18.862414 0.3075,-0.584461 0.3075,-0.58446 0.2914,-0.198438 0.291,-0.198954 6.5753,0.01757 6.5758,0.01705 0.093,-0.0925 0.093,-0.09302 0.038,-4.009058 0.038,-4.009057 -0.1736,-0.28112 -0.1731,-0.280603 h -20.2252 z m -195.2873,0.132292 0.01,23.944791 0.01,23.944794 v 0.0662 0 0.0661 h 5.424 5.4239 v -9.24129 -9.241303 l 0.4155,-0.415995 0.416,-0.415996 h 1.0258 1.0263 c 1.8769,0.890665 3.3582,2.273457 4.5413,4.101042 3.1477,4.862422 6.32,9.728262 9.4728,14.568622 l 0.5612,0.64492 h 5.9547 5.9546 v -0.20567 -0.20567 l -0.5033,-0.4315 -0.5038,-0.43098 c -5.046,-6.99664 -9.867,-13.900254 -13.2804,-19.115633 v -0.783932 l 1.4387,-0.658358 c 9.4581,-1.92865 14.3877,-24.426308 -4.4808,-26.12657 l -11.451,-0.03152 z m 314.417,7.680151 c 1.315,0.0089 2.625,0.156817 3.8819,0.420646 7.0354,1.476694 10.3182,9.197831 10.4087,15.874483 0.09,6.638353 -3.3101,13.941038 -10.079,15.735475 -1.4018,0.37163 -2.8546,0.32583 -4.2886,0.44545 -5.895,0.49177 -11.6921,-3.301022 -13.4679,-8.842871 -2.0257,-6.321458 -1.7831,-14.062308 2.8866,-19.351274 2.7247,-3.086044 6.7133,-4.308661 10.6583,-4.281909 z m 53.8014,0.257865 c 2.4773,0.02297 5.2923,0.25116 6.6435,1.070736 4.8577,2.65088 4.1729,11.17835 -1.3979,12.095903 -2.4784,0.876987 -6.875,1.280786 -9.9394,0.559139 l 0.077,-13.566614 c 0,0 2.1394,-0.182137 4.6168,-0.159164 z m -356.5168,0.131775 h 4.4612 4.4613 c 7.5989,1.128815 6.9189,13.514421 -0.9328,13.514421 l -3.4184,0.05581 -3.4184,0.05581 -0.5932,-0.08423 -0.5928,-0.08423 -0.3994,-0.569991 -0.399,-0.569991 v -5.742802 -5.743319 l 0.4155,-0.415478 z" /><path
           style="fill:#8ab2e8;fill-opacity:1;stroke-width:0.264583"
           d="m 1523.0053,158.88166 97.8447,-97.844643 -97.7711,0.71232 z"
           id="path2287"
           sodipodi:nodetypes="cccc" /><path
           d="m 1498.7612,109.72465 -24.0263,-0.13439 48.2586,-48.352597 48.2587,-48.35262 0.1093,2.7e-4 0.1093,2.6e-4 0.099,48.55068 0.099,48.550657 -24.4403,-0.064 -24.4403,-0.0641 -24.0262,-0.13439 z"
           style="fill:#2768d1;stroke-width:0.264583"
           id="path2148" /><path
           style="fill:#2e3192;fill-opacity:1;stroke-width:0.264583"
           d="m 1620.8672,61.356189 h -96.4396"
           id="path2231" /></g><g
         id="g9394"
         transform="matrix(0.41829092,0,0,0.41829092,92.597234,45.38164)"><path
           id="path3407"
           style="color:#000000;fill:#e13201;fill-opacity:1;stroke-width:0.785181;stroke-linejoin:round;-inkscape-stroke:none"
           d="m 421.88071,319.66214 c -0.27302,8.5e-4 -0.46185,0.27319 -0.3669,0.52917 l 12.02148,32.05851 c 0.0573,0.15411 0.20455,0.2562 0.36897,0.2558 h 7.15616 c 0.16385,-2.5e-4 0.31032,-0.10222 0.36742,-0.2558 l 12.02148,-32.05851 c 0.095,-0.25618 -0.0942,-0.52867 -0.36741,-0.52917 h -5.58209 c -0.16314,1.4e-4 -0.3092,0.10114 -0.36691,0.25373 l -9.65264,25.91987 -9.65005,-25.91987 c -0.0578,-0.15276 -0.20409,-0.25381 -0.36742,-0.25373 z m 73.60946,0 c -0.27302,8.5e-4 -0.46185,0.27319 -0.3669,0.52917 l 12.02149,32.05851 c 0.057,0.1534 0.20324,0.25533 0.3669,0.2558 h 7.15615 c 0.16385,-2.5e-4 0.31032,-0.10222 0.36742,-0.2558 l 12.02355,-32.05851 c 0.0953,-0.25701 -0.0954,-0.53012 -0.36948,-0.52917 h -5.58002 c -0.16389,-7.2e-4 -0.31099,0.10043 -0.36897,0.25373 l -9.65058,25.91987 -9.65005,-25.91987 c -0.0578,-0.15276 -0.20409,-0.25381 -0.36742,-0.25373 z"
           sodipodi:nodetypes="cccccccccccccccccccccccccccc" /><path
           d="m 547.90301,318.88855 c -2.28857,0 -4.33632,0.4913 -6.11694,1.48053 -6.9e-4,0 -10e-4,0 -0.002,0 -1.45977,0.82009 -2.71683,2.06765 -3.85144,3.56464 v -3.87884 c 6e-5,-0.21693 -0.17581,-0.3928 -0.39274,-0.39274 h -5.29477 c -0.21693,-6e-5 -0.3928,0.17581 -0.39274,0.39274 v 32.05851 c 2.2e-4,0.21673 0.17601,0.39229 0.39274,0.39223 h 5.29477 c 0.21673,6e-5 0.39252,-0.1755 0.39274,-0.39223 v -18.11931 c 0,-3.06096 0.79541,-5.42095 2.36109,-7.15046 1.56543,-1.72925 3.67594,-2.58951 6.43579,-2.58951 2.28287,0 3.91106,0.70345 5.01571,2.11098 1.10415,1.40691 1.6893,3.58752 1.6893,6.57066 v 19.17764 c 2.2e-4,0.21673 0.17601,0.39229 0.39274,0.39223 h 5.26738 c 0.21673,6e-5 0.39252,-0.1755 0.39274,-0.39223 v -19.34972 c 0,-4.48224 -0.95511,-7.9298 -2.92385,-10.29705 -1.9689,-2.38655 -4.89612,-3.57807 -8.66045,-3.57807 z"
           style="color:#000000;fill:#5d3297;fill-opacity:1;stroke-width:0.785181;stroke-linejoin:round;-inkscape-stroke:none"
           id="path3422" /><path
           id="path7101"
           style="color:#000000;fill:#5d3297;fill-opacity:1;stroke:none;stroke-width:0.5;stroke-linecap:round;stroke-linejoin:round;stroke-dasharray:none"
           d="m 464.24763,314.05887 c -0.24031,-0.001 -0.48479,0.004 -0.7338,0.015 -5.90138,0.39658 -8.56109,8.52756 -4.59662,12.96304 1.39992,1.94336 5.00232,3.37854 2.70217,4.49852 -4.47924,3.18142 -5.53008,8.19505 -5.58107,11.64054 0,10.51474 7.12745,16.81348 17.55707,16.9385 4.56198,0 9.76597,-0.96116 13.29738,-3.74757 6.68042,-5.27107 7.83687,-15.94971 3.05821,-22.89628 -1.43606,-2.03276 -3.11092,-2.91972 -3.11092,-2.91972 -0.88349,-0.44489 -1.96068,-0.0903 -2.40657,0.79272 -0.44621,0.88397 -0.0908,1.9622 0.79323,2.40812 0,0 0.68836,0.84023 1.70584,2.28048 2.27568,5.35118 1.41359,12.54783 -3.17293,16.18868 -2.7532,2.18553 -6.09768,3.33571 -10.07897,3.33571 -7.84998,-0.60424 -12.96246,-6.08459 -13.04365,-12.6106 0.25451,-3.87995 0.65181,-6.0713 4.76715,-9.73687 2.69942,-1.6011 1.00041,-3.8139 0.13281,-4.87981 -1.02985,-1.23832 -2.15756,-2.6667 -2.83394,-3.283 -3.19208,-2.90852 -0.21912,-6.72008 2.51199,-6.55051 2.29628,0.14258 4.78674,1.77709 6.13555,3.16105 1.1387,1.17476 1.09066,0.66979 1.10536,-0.27388 0.0176,-0.64345 0.0202,-1.41265 -0.0274,-2.10943 -0.23101,-2.58256 -3.29455,-5.18693 -8.1809,-5.21467 z"
           sodipodi:nodetypes="scccccscccccsccccsscccss" /><path
           style="fill:#5d3297;fill-opacity:1;stroke:none;stroke-width:0.499999;stroke-linecap:round;stroke-linejoin:round;stroke-dasharray:none"
           d="m 477.4484,322.46424 9.83207,-2.79688"
           id="path7723" /><path
           style="fill:#e13201;fill-opacity:1;stroke:none;stroke-width:0.499999;stroke-linecap:round;stroke-linejoin:round;stroke-dasharray:none"
           d="m 478.08147,321.65711 c 1.34881,-1.38396 3.8393,-3.01867 6.13558,-3.16125 2.73112,-0.16958 5.60763,3.54409 2.41554,6.45261 -3.19207,2.90851 -13.76482,12.91423 -14.62479,13.86289 -0.86,0.94869 -0.33118,1.62822 0.15237,2.0977 0.48355,0.46945 1.20415,1.29556 1.7345,1.69619 0.53039,0.40063 1.21267,0.60772 1.97943,-0.23069 0.76679,-0.83839 13.27485,-13.68664 14.64111,-15.33793 3.79235,-4.58351 1.30459,-12.56633 -4.59679,-12.96291 -5.31225,-0.24338 -8.67221,2.49008 -8.91458,5.19965 -0.0476,0.69679 -0.0453,1.46604 -0.0277,2.10949 0.0147,0.94367 -0.0334,1.44901 1.1053,0.27425 z"
           id="path7779"
           sodipodi:nodetypes="csssssssccccc" /></g><g
         id="g11198"
         transform="matrix(0.2452771,0,0,0.2452771,118.16066,131.28067)"><g
           id="g11263"><path
             style="fill:#c0c60e;stroke-width:0.264583"
             d="m 1029.3533,237.81654 -0.7035,-0.40046 -0.5231,-0.86412 -0.5232,-0.86412 -0.1963,-0.66146 -0.1962,-0.66145 -1.3467,-1.21541 -1.3467,-1.2154 0.4545,-0.69352 0.4544,-0.69351 v -1.46452 -1.46452 h -0.215 -0.2149 l -2.3648,0.80755 -2.3647,0.80755 -2.9104,0.75084 -2.9104,0.75085 -2.7792,0.18242 -2.7792,0.18242 -4.4968,-0.4469 -4.49693,-0.4469 -2.24896,0.16053 -2.24896,0.16053 -2.11667,0.13289 -2.11666,0.13291 0.97691,-0.33058 0.97691,-0.33057 1.63988,-1.45521 1.63989,-1.4552 0.69049,-0.37848 0.6905,-0.37848 0.92604,0.0583 0.92604,0.0583 2.24892,-0.39874 2.249,-0.39874 2.5135,-0.8255 2.5136,-0.8255 3.7042,-0.75609 3.7041,-0.75608 4.3656,-2.23778 4.3657,-2.23778 1.0957,-0.32361 1.0957,-0.3236 0.6944,-0.56206 0.6944,-0.56205 0.6566,-1.82292 0.6566,-1.82291 0.9143,-1.88125 0.9143,-1.88125 1.1223,-1.7198 1.1222,-1.71979 1.999,-1.98499 1.9991,-1.98499 4.6714,-3.11666 4.6714,-3.11666 0.3891,-0.58689 0.389,-0.58689 1.6374,-1.64647 1.6374,-1.64647 1.1575,-0.78118 1.1575,-0.78118 0.7903,-0.58429 0.7903,-0.5843 0.8628,-1.22139 0.8629,-1.22139 1.4487,-1.98437 1.4487,-1.98438 2.4042,-2.40692 2.4043,-2.40693 0.926,-0.49719 0.9261,-0.49719 2.1166,-0.006 2.1167,-0.006 1.2637,0.62228 1.2637,0.62229 2.1759,1.74876 2.1759,1.74875 3.4099,2.98993 3.41,2.98992 1.5592,1.01877 1.5591,1.01876 4.2913,1.8038 4.2913,1.80379 1.2263,0.75011 1.2263,0.75011 0.3321,0.80173 0.3321,0.80172 -0.3122,0.68514 -0.3122,0.68514 -1.3404,-0.15875 -1.3403,-0.15875 -0.359,-0.29792 -0.359,-0.29793 -1.6177,-0.14669 -1.6178,-0.14669 -1.8146,0.34238 -1.8145,0.34238 -0.7832,-0.32441 -0.7832,-0.32441 -0.8215,-1.02219 -0.8214,-1.0222 v -0.1605 -0.16049 l -0.7276,-0.64047 -0.7276,-0.64047 -1.1644,-0.55757 -1.1644,-0.55757 -2.5782,-0.49129 -2.5783,-0.49128 -1.6813,-0.84595 -1.6813,-0.84595 -1.1871,-0.82547 -1.1871,-0.82548 -0.3532,-0.33073 -0.3532,-0.33073 -0.4441,0.01 -0.4441,0.01 -0.7929,1.11444 -0.7929,1.11444 -0.5937,1.19062 -0.5938,1.19063 v 0.24051 0.24052 l -2.6314,5.33626 -2.6313,5.33627 -1.1066,1.10651 -1.1065,1.10651 -1.6577,0.79119 -1.6578,0.79118 -0.6237,0.003 -0.6236,0.003 -1.3539,0.6304 -1.3538,0.6304 -0.6552,0.88837 -0.6552,0.88836 -1.2657,2.38125 -1.2657,2.38125 -1.7523,2.64335 -1.7524,2.64334 -1.5493,1.52863 -1.5493,1.52864 -1.8346,1.08992 -1.8346,1.08992 -0.3864,0.5517 -0.3864,0.5517 1.0262,0.93328 1.0263,0.93327 0.5613,1.37197 0.5612,1.37196 v 1.35056 1.35055 l -0.5633,1.10428 -0.5634,1.10427 -0.8257,1.11763 -0.8257,1.11763 -1.2911,0.71315 -1.291,0.71314 -2.2808,0.10493 -2.2809,0.10493 -0.7034,-0.40046 z m -41.91945,-10.82944 -0.16659,-0.43412 0.34106,-0.41095 0.34106,-0.41095 0.73373,-0.37943 0.73374,-0.37943 0.74074,0.004 0.74074,0.004 0.56942,0.15276 0.56941,0.15277 -1.0346,0.9347 -1.0346,0.9347 -1.18376,0.13343 -1.18376,0.13342 -0.16659,-0.43412 z"
             id="path11202" /><path
             id="path11200"
             style="fill:#5b356b;stroke-width:0.264583"
             d="m 891.35361,174.39814 -0.89555,0.0853 -0.89504,0.0858 -0.0868,0.75964 -0.0868,0.75965 0.14211,0.56585 0.14211,0.56638 1.73995,1.14411 1.74046,1.14412 2.46445,1.15187 2.46496,1.15186 1.51102,1.3808 1.51102,1.38131 1.1312,1.4795 1.1312,1.47949 1.53995,2.64584 1.54048,2.64583 1.00924,1.85208 1.00924,1.85209 0.007,0.42736 0.007,0.42736 0.92449,1.84847 0.9245,1.84795 2.06654,1.9575 2.06602,1.95802 1.5074,1.32292 1.50689,1.32292 2.41484,2.73781 2.41484,2.73834 2.66081,1.98076 2.66134,1.98024 3.45664,1.66139 3.45715,1.66192 2.91042,1.06763 2.91041,1.06764 1.85209,0.48989 1.85208,0.48938 3.70417,-0.0176 3.70416,-0.0181 1.7198,-0.56689 1.71979,-0.56689 1.11466,-0.40308 1.11518,-0.40256 0.47232,0.17209 0.47284,0.17208 1.05833,0.71468 1.05833,0.7152 2.38125,1.18443 2.38125,1.18442 3.04271,1.21905 3.04271,1.21956 3.04271,0.53072 3.04271,0.53072 3.30729,0.28939 3.30729,0.28938 1.98438,0.37517 1.98437,0.37466 1.19063,0.0935 1.19062,0.0935 0.52917,0.0258 0.52916,0.0258 0.97669,-0.31057 0.9772,-0.31006 1.63969,-1.45521 1.6397,-1.45521 0.62476,-0.33951 0.62426,-0.339 v -0.21342 -0.21394 l -0.67386,-0.30696 -0.67387,-0.30696 h -2.29029 -2.28979 l -0.85007,0.82372 -0.85008,0.82373 -1.22835,0.13849 -1.22887,0.13849 -0.13539,-0.51935 -0.13591,-0.51883 -0.97307,-0.33589 -0.97358,-0.3359 -4.49792,-2.06551 -4.49791,-2.06499 -3.04271,-0.9555 -3.04271,-0.95601 -2.23811,-1.51774 -2.23862,-1.51825 0.0439,-0.26458 0.0439,-0.26459 0.95033,-0.15916 0.95033,-0.15865 0.91157,-0.88315 0.91106,-0.88366 0.14676,-0.46251 0.14676,-0.46199 0.58291,-0.0832 0.58291,-0.0827 0.0749,-1.5875 0.0754,-1.5875 0.55552,-1.35702 0.55552,-1.35702 -0.18965,-1.02423 -0.19017,-1.02423 -1.36684,-1.27796 -1.36684,-1.27847 -0.92604,-0.47594 -0.92605,-0.47594 -1.08107,-0.18035 -1.08107,-0.17983 -1.77353,0.41134 -1.77405,0.41186 -0.76895,0.39739 -0.76895,0.39791 -0.62011,0.59583 -0.62064,0.59583 -0.74672,1.78645 -0.74673,1.78646 0.14367,0.72709 0.14314,0.72708 0.0847,0.52917 0.0853,0.52917 -3.96875,0.2129 -3.96875,0.21291 -4.32686,-0.12971 -4.32687,-0.12971 -1.07487,-0.74465 -1.07487,-0.74466 -2.29702,-2.14871 -2.29702,-2.1487 -1.56011,-0.58395 -1.56011,-0.58342 -1.81487,0.18241 -1.8154,0.18191 -2.97708,-2.00763 -2.97708,-2.00815 -2.41432,-2.1332 -2.41484,-2.13372 -0.94723,-2.03967 -0.94671,-2.03967 -0.28164,-0.52917 -0.28215,-0.52916 -0.9586,-1.2852 -0.9586,-1.28467 -2.46083,-1.9358 -2.46083,-1.93528 -0.8723,-1.14515 -0.87281,-1.14515 -0.56948,-1.29036 -0.56895,-1.29036 -0.0129,-0.69402 -0.0129,-0.69401 -0.4501,-0.91881 -0.45011,-0.91881 -0.66145,-0.34571 -0.66146,-0.34624 -1.19063,0.14728 -1.19062,0.14676 -2.2717,0.15038 -2.27169,0.14986 -2.12494,-0.57309 z m 66.04248,76.25995 -2.82825,0.0977 -2.82773,0.0977 -0.0388,2.58744 -0.0388,2.58744 0.10697,0.2806 0.10749,0.28112 2.84169,-0.0811 2.8422,-0.0806 -0.0827,-2.8851 z m 9.80302,0.22479 0.076,16.61914 0.0754,16.61966 c 0.68244,2.54689 3.38386,5.13663 6.08542,5.13663 l 2.24896,-0.062 2.24896,-0.0625 0.076,-2.27996 0.076,-2.27945 -2.01487,-0.12919 -2.01435,-0.12971 c -0.64319,-0.14571 -0.98199,-0.56918 -1.1498,-1.14928 l -0.13229,-16.0662 -0.13229,-16.06621 -2.7218,-0.0754 z m -50.78088,0.001 v 0.30076 0.30024 l 0.75706,2.28771 0.75758,2.28824 2.26498,6.87916 2.26497,6.87917 2.80604,8.59896 2.80603,8.59896 0.41134,1.12448 0.41083,1.12447 h 2.0624 2.06241 l 0.25942,-0.33072 0.25941,-0.33073 5.35471,-16.27188 5.35472,-16.27187 0.76842,-2.20349 0.76843,-2.204 v -0.37568 -0.37621 l -2.97656,10e-4 -2.97656,0.001 -2.07016,6.5474 -2.06964,6.54741 -0.47904,1.5875 -0.47904,1.5875 -1.79317,5.62343 -1.79318,5.62394 -0.12092,-0.1204 -0.12041,-0.12041 -4.28914,-13.57333 -4.28966,-13.57282 -2.95538,-0.0749 z m 77.91308,10.67584 c -3.28956,0.0286 -6.90396,0.80697 -9.43405,3.49229 -0.1635,0.22438 -0.25731,0.48173 -0.22221,0.79943 l 2.5616,2.32906 c 0.49836,0.64957 1.0017,0.7722 1.51257,-0.016 2.50944,-2.78328 9.17763,-2.71553 10.8815,1.17977 0.52498,1.20013 0.53898,2.88643 0.26355,3.91449 -3.21158,0.0841 -6.0884,0.25218 -9.63507,0.25218 -3.88716,0 -6.7728,3.61971 -6.8063,6.91379 -0.52212,4.15192 2.16468,8.82561 8.81703,8.84081 1.35245,0.003 2.98286,-0.0106 4.17184,-0.38447 1.0965,-0.34482 1.79599,-0.51225 2.63137,-1.34049 1.13476,-1.60997 1.02506,0.67159 1.08006,1.59422 1.7198,0.0505 3.4395,0.10091 5.1593,0.15141 v -19.6448 c 0,-5.451 -5.65029,-8.12797 -10.98119,-8.08167 z m 59.58859,0.0181 c -0.131,9.9e-4 -0.2634,0.003 -0.3979,0.006 -1.9519,0.0463 -3.9939,0.26 -5.7242,1.26608 -1.9203,0.96715 -3.5806,2.63143 -4.224,4.7134 -0.2621,1.33473 -0.2135,2.72817 -0.1039,4.07934 0.3929,2.13841 1.9211,4.08639 3.9419,4.92011 3.1753,1.4476 6.784,0.64056 10.0666,1.60559 1.8295,0.54539 2.2824,2.94892 1.466,4.48293 -0.8867,1.31887 -2.5869,1.85272 -4.0618,2.19418 -4.1622,0.12129 -5.3313,-0.32985 -8.7891,-2.5461 -0.5037,-0.32284 -0.9135,-0.0283 -1.1963,0.15038 -0.9942,0.62794 -2.0572,1.76856 -2.7414,2.70423 -0.1239,0.36609 -0.028,0.72671 0.1953,1.04231 h 5e-4 c 2.8166,3.40376 8.8912,2.92224 12.5962,2.92024 3.2582,-0.007 6.6475,-1.09736 8.7715,-4.08451 0.9754,-1.37228 0.9307,-3.07221 0.9307,-4.65449 0,-3.20526 -1.7714,-5.36344 -4.331,-6.26732 -2.2291,-1.06346 -4.7262,-0.9976 -7.1236,-1.24747 -3.1972,-0.54994 -4.4793,-1.69463 -4.4793,-3.6127 0,-1.95977 2.1625,-2.98135 3.8856,-3.12125 2.157,0.0551 4.926,0.0656 6.782,1.68361 0.2763,0.30914 0.7921,0.15027 1.1493,0.0331 0.5922,-0.52118 2.1329,-1.8753 2.7042,-3.00757 0.1106,-0.2197 0,-0.45147 -0.096,-0.601 -2.7389,-1.66875 -5.1595,-2.68985 -9.2212,-2.65927 z m -26.9136,0.0171 c -2.6929,-0.039 -5.4315,0.90932 -7.3696,2.80034 h -0.1478 -0.1478 v -1.19062 -1.19063 h -2.6458 -2.6458 v 13.63534 13.63535 l 2.712,-0.0754 2.7119,-0.0754 0.1323,-9.525 0.1323,-9.525 0.4377,-0.79375 c 1.7024,-2.83225 8.2919,-3.66083 10.1457,0.79375 l 0.1322,9.525 0.1323,9.525 h 2.6459 2.6458 v -10.45104 -10.45104 c -1.0974,-4.41367 -4.9355,-6.57975 -8.8713,-6.6368 z m -75.1339,0.41909 v 13.44931 13.44982 l 0.185,0.18552 0.18552,0.185 2.52646,-0.0749 2.52698,-0.0749 0.0682,-13.55989 0.0687,-13.5599 h -2.78071 z m 47.78365,15.02957 c 0.43365,1.61829 0.31061,2.29518 0.17104,3.58997 -0.42727,3.96383 -4.0648,4.02554 -6.93497,4.11654 -1.29254,0.0582 -2.67029,-0.32687 -3.46232,-1.3317 -0.89979,-1.26064 -1.08292,-3.20123 -0.20464,-4.36201 1.55606,-2.05659 7.70838,-1.87734 10.43089,-2.0128 z" /></g></g><g
         id="g27169"
         transform="matrix(0.86122366,0,0,0.86122366,361.0605,-108.49758)"><path
           id="path1541"
           style="fill:#a953a4;fill-opacity:1;stroke:none;stroke-width:0.264583px;stroke-linecap:butt;stroke-linejoin:miter;stroke-opacity:1"
           d="m 55.86429,337.70807 v 9.39891 h 1.828829 v -4.60127 l 2.182813,4.60127 h 1.435571 l 2.162659,-4.69946 v 4.69946 h 1.828829 v -9.39891 H 63.72996 l -3.093868,6.85849 -3.15898,-6.85849 z m 11.64115,0 v 9.39891 h 6.48901 V 345.628 h -4.679818 v -2.47737 h 4.522205 v -1.53376 h -4.541842 v -2.43809 h 4.660181 v -1.47071 z m 8.1995,0 v 9.39891 h 4.857068 c 0,0 3.77548,-0.22012 3.77548,-4.80178 0,-4.58161 -4.483447,-4.59713 -4.483447,-4.59713 z m 10.244852,0 v 9.39891 h 2.045354 v -9.39891 z m 3.028239,0 4.365625,9.39891 h 1.730127 l 4.247286,-9.39891 h -2.162658 l -3.008602,6.79958 -3.067513,-6.79958 z m 11.247379,0 v 6.52415 c 0,0.29278 0.0372,2.94446 4.09019,2.87476 4.06973,-0.07 4.09019,-2.75694 4.09019,-2.75694 v -6.64197 h -1.98593 v 5.91437 c 0,0 0.0981,2.06499 -2.14354,2.06499 -2.24166,0 -2.24172,-1.90738 -2.24172,-1.90738 l -0.0196,-6.07198 z m 13.64671,0 c -3.22272,0 -3.97712,1.50232 -3.77548,3.04374 0.39507,3.02013 5.99556,2.25976 5.47563,3.99511 -0.37237,1.24284 -3.62987,0.81413 -5.00331,0.0946 l -0.59014,1.45521 c 1.87431,1.13042 6.29325,1.38169 7.3148,-0.56999 0.83657,-1.59828 0.35113,-3.15949 -1.57303,-3.67729 -2.89572,-0.77925 -3.7981,-1.0836 -3.60237,-1.98696 0.20924,-0.96575 2.1757,-1.35624 4.44314,-0.11938 l 0.25011,0.11783 0.6594,-1.53118 c -0.67212,-0.38805 -2.05539,-0.82169 -3.59875,-0.82169 z m -36.240166,1.526 2.389518,0.004 c 0,0 2.290816,0.23558 2.290816,3.34243 0,3.10678 -2.418973,3.08767 -2.418973,3.08767 h -2.261361 z"
           sodipodi:nodetypes="ccccccccccccccccccccccccccccccsccccccccccccccccssccccscccsssccssscccscscccc" /><path
           style="fill:#a953a4;fill-opacity:1;stroke:none;stroke-width:0.264583px;stroke-linecap:butt;stroke-linejoin:miter;stroke-opacity:1"
           d="m 44.577528,342.81634 2.497286,-5.11255 c 0,0 2.831568,0 3.519797,2.163 0.688226,2.16299 0.865201,4.46365 0.452263,5.62379 -0.412938,1.16018 -2.595602,1.69109 -2.595602,1.69109 l -0.688229,-4.85693 -1.730404,3.85409 z"
           id="path6920"
           sodipodi:nodetypes="ccsscccc" /><path
           style="fill:url(#linearGradient7716);fill-opacity:1;stroke:none;stroke-width:0.264583px;stroke-linecap:butt;stroke-linejoin:miter;stroke-opacity:1"
           d="m 43.594345,346.17883 h 2.438294 l -3.401814,-8.51438 c 0,0 -1.67141,-0.2163 -2.615266,0.96353 -0.943856,1.1798 -1.474774,3.63778 -1.592757,5.25021 3.58e-4,1.35607 0.549979,3.21742 2.851232,3.12651 l 0.727554,-4.75862 z"
           id="path6922"
           sodipodi:nodetypes="cccscccc" /></g></g></g></svg>
