<?xml version="1.0" encoding="UTF-8" standalone="no"?>
<!-- Created with Inkscape (http://www.inkscape.org/) -->

<svg
   width="1690.1888"
   height="239.22246"
   viewBox="0 0 447.19579 63.294275"
   version="1.1"
   id="svg5"
   xml:space="preserve"
   inkscape:version="1.2.2 (b0a8486541, 2022-12-01)"
   sodipodi:docname="partners.svg"
   xmlns:inkscape="http://www.inkscape.org/namespaces/inkscape"
   xmlns:sodipodi="http://sodipodi.sourceforge.net/DTD/sodipodi-0.dtd"
   xmlns="http://www.w3.org/2000/svg"
   xmlns:svg="http://www.w3.org/2000/svg"><sodipodi:namedview
     id="namedview7"
     pagecolor="#ffffff"
     bordercolor="#000000"
     borderopacity="0.25"
     inkscape:showpageshadow="2"
     inkscape:pageopacity="0.0"
     inkscape:pagecheckerboard="0"
     inkscape:deskcolor="#d1d1d1"
     inkscape:document-units="mm"
     showgrid="false"
     inkscape:zoom="0.74564394"
     inkscape:cx="769.13386"
     inkscape:cy="169.65202"
     inkscape:window-width="1920"
     inkscape:window-height="1012"
     inkscape:window-x="0"
     inkscape:window-y="0"
     inkscape:window-maximized="1"
     inkscape:current-layer="layer1"
     showguides="true" /><defs
     id="defs2" /><g
     inkscape:label="Layer 1"
     inkscape:groupmode="layer"
     id="layer1"
     transform="translate(-28.202606,-149.07521)"><path
       id="text184"
       style="font-weight:bold;font-size:10.5461px;font-family:'Droid Sans';-inkscape-font-specification:'Droid Sans Bold';text-align:center;text-anchor:middle;fill:#4d4d4d;stroke-width:1.6608;stroke-linecap:round;stroke-linejoin:round"
       d="M 261.96301 152.30344 L 261.96301 160.31587 L 263.53346 160.31587 L 263.53346 158.52425 L 264.14634 158.10205 L 265.54678 160.31587 L 267.35958 160.31587 L 265.14525 157.05663 L 267.22574 154.55911 L 265.45427 154.55911 L 264.04816 156.30991 L 263.47145 157.18531 L 263.45078 157.18531 L 263.53346 155.87738 L 263.53346 152.30344 L 261.96301 152.30344 z M 268.97137 152.30344 C 268.85465 152.30344 268.74293 152.31558 268.63651 152.33961 C 268.53352 152.36364 268.44262 152.40649 268.36366 152.46828 C 268.28813 152.52665 268.22794 152.60541 268.18331 152.70496 C 268.13868 152.80109 268.11664 152.92321 268.11664 153.07083 C 268.11664 153.21502 268.13868 153.33663 268.18331 153.43618 C 268.22794 153.53574 268.28813 153.61675 268.36366 153.67855 C 268.44262 153.73691 268.53352 153.77976 268.63651 153.80722 C 268.74293 153.83125 268.85465 153.84339 268.97137 153.84339 C 269.08809 153.84339 269.19756 153.83125 269.30055 153.80722 C 269.40354 153.77976 269.49323 153.73691 269.56875 153.67855 C 269.64771 153.61675 269.70912 153.53574 269.75375 153.43618 C 269.80182 153.33663 269.8261 153.21502 269.8261 153.07083 C 269.8261 152.92321 269.80182 152.80109 269.75375 152.70496 C 269.70912 152.60541 269.64771 152.52665 269.56875 152.46828 C 269.49323 152.40649 269.40354 152.36364 269.30055 152.33961 C 269.19756 152.31558 269.08809 152.30344 268.97137 152.30344 z M 195.01465 152.78764 L 195.01465 153.69405 L 195.93139 154.11625 L 195.93139 158.98778 L 195.01465 159.40998 L 195.01465 160.31587 L 198.43924 160.31587 L 198.43924 159.40998 L 197.5225 158.98778 L 197.5225 154.11625 L 198.43924 153.69405 L 198.43924 152.78764 L 195.01465 152.78764 z M 303.36979 153.33335 L 302.91659 154.54878 L 302.05152 155.07381 L 302.05152 155.73837 L 302.80342 155.73837 L 302.80342 158.51391 C 302.80342 158.88467 302.848 159.19329 302.93726 159.44047 C 303.02995 159.68421 303.15503 159.8799 303.31295 160.02751 C 303.47086 160.1717 303.65787 160.27301 303.87415 160.33137 C 304.09043 160.38973 304.32376 160.41922 304.57437 160.41922 C 304.83184 160.41922 305.06916 160.3932 305.28543 160.34171 C 305.50514 160.29364 305.68869 160.23223 305.83631 160.1567 L 305.83631 158.98778 C 305.69212 159.03928 305.54969 159.08213 305.40894 159.11646 C 305.27162 159.15079 305.12573 159.16762 304.97124 159.16762 C 304.79273 159.16762 304.64857 159.11436 304.53871 159.00794 C 304.42886 158.90151 304.37386 158.73705 304.37386 158.51391 L 304.37386 155.73837 L 305.77429 155.73837 L 305.77429 154.55911 L 304.37386 154.55911 L 304.37386 153.33335 L 303.36979 153.33335 z M 216.24074 154.44077 C 215.85625 154.44077 215.48865 154.48709 215.13848 154.57978 C 214.78832 154.67247 214.46929 154.79929 214.18092 154.96064 L 214.69096 156.00089 C 214.92784 155.88073 215.16291 155.78462 215.39635 155.71253 C 215.63322 155.64044 215.87523 155.60453 216.1224 155.60453 C 216.36958 155.60453 216.56179 155.66074 216.69911 155.77403 C 216.83643 155.88731 216.90478 156.0627 216.90478 156.29958 L 216.90478 156.73211 L 215.98856 156.76311 C 215.20928 156.79401 214.62395 156.955 214.23259 157.2468 C 213.84124 157.53517 213.64555 157.98501 213.64555 158.59608 C 213.64555 158.90848 213.68667 159.17997 213.76906 159.40998 C 213.85145 159.63656 213.96439 159.8253 214.10857 159.97635 C 214.25619 160.12397 214.42984 160.23517 214.62895 160.3107 C 214.82807 160.38279 215.04405 160.41922 215.27749 160.41922 C 215.4972 160.41922 215.68994 160.40187 215.85472 160.36754 C 216.02293 160.33321 216.17352 160.27996 216.3074 160.20786 C 216.44129 160.13577 216.56515 160.04487 216.67844 159.93501 C 216.79173 159.82172 216.90518 159.68797 217.01847 159.53349 L 217.06446 159.53349 L 217.36832 160.31587 L 218.46541 160.31587 L 218.46541 156.47993 C 218.46541 155.79333 218.2732 155.28157 217.8887 154.94514 C 217.50764 154.6087 216.95823 154.44077 216.24074 154.44077 z M 202.72322 154.45111 C 202.55844 154.45111 202.39744 154.46794 202.23953 154.50227 C 202.08161 154.53317 201.93225 154.58295 201.79149 154.65161 C 201.65074 154.72027 201.51994 154.80771 201.39979 154.91413 C 201.28307 155.02055 201.18349 155.14788 201.1011 155.2955 L 201.01376 155.2955 L 200.80241 154.55911 L 199.603 154.55911 L 199.603 160.31587 L 201.17344 160.31587 L 201.17344 157.60751 C 201.17344 157.30197 201.19079 157.03099 201.22512 156.79412 C 201.25945 156.55724 201.31566 156.35809 201.39462 156.19674 C 201.47701 156.03539 201.587 155.91326 201.72431 155.83087 C 201.86163 155.74848 202.03355 155.70736 202.23953 155.70736 C 202.51417 155.70736 202.7128 155.81214 202.83639 156.02156 C 202.96341 156.22753 203.02708 156.53789 203.02708 156.95328 L 203.02708 160.31587 L 204.59752 160.31587 L 204.59752 156.56209 C 204.59752 156.19133 204.55294 155.87403 204.46368 155.60969 C 204.37442 155.34192 204.24761 155.12195 204.08283 154.9503 C 203.91804 154.77866 203.72062 154.65357 203.49061 154.57462 C 203.26061 154.49222 203.00472 154.45111 202.72322 154.45111 z M 210.79766 154.45111 C 210.47153 154.45111 210.17453 154.48529 209.90676 154.55395 C 209.64242 154.61917 209.41603 154.71875 209.22722 154.85264 C 209.0384 154.98652 208.89251 155.15445 208.78952 155.357 C 208.68653 155.55611 208.635 155.78996 208.635 156.05773 C 208.635 156.30147 208.66398 156.51225 208.72234 156.69077 C 208.7807 156.86585 208.86813 157.02215 208.98485 157.15947 C 209.10501 157.29679 209.25611 157.42187 209.43806 157.53516 C 209.62344 157.64501 209.84167 157.75673 210.09228 157.87002 C 210.34975 157.98674 210.55411 158.08632 210.70516 158.16871 C 210.85965 158.24767 210.97605 158.32001 211.05501 158.38524 C 211.13397 158.44703 211.18376 158.50671 211.20436 158.56507 C 211.22839 158.62 211.24053 158.68366 211.24053 158.75576 C 211.24053 158.82785 211.22492 158.89672 211.19402 158.96195 C 211.16656 159.02374 211.12024 159.07873 211.05501 159.12679 C 210.99322 159.17142 210.91272 159.20733 210.81317 159.2348 C 210.71361 159.25883 210.59322 159.27097 210.45246 159.27097 C 210.32544 159.27097 210.18649 159.25883 210.03543 159.2348 C 209.88782 159.21077 209.73498 159.17832 209.57706 159.13713 C 209.41915 159.0925 209.25989 159.04098 209.09854 158.98262 C 208.94062 158.92426 208.78952 158.85885 208.64534 158.78676 L 208.64534 160.08436 C 208.78266 160.14615 208.91815 160.19767 209.05203 160.23887 C 209.18592 160.28007 209.32488 160.31424 209.46906 160.34171 C 209.61325 160.36917 209.76608 160.38825 209.92743 160.39855 C 210.08878 160.41228 210.26365 160.41922 210.45246 160.41922 C 210.80949 160.41922 211.13251 160.38157 211.42088 160.30605 C 211.70925 160.23052 211.95472 160.11707 212.15727 159.96602 C 212.35981 159.81497 212.51612 159.62622 212.62597 159.39964 C 212.73583 159.17307 212.79031 158.90851 212.79031 158.60641 C 212.79031 158.35237 212.75266 158.13639 212.67713 157.95787 C 212.60161 157.77936 212.49336 157.62305 212.35261 157.48917 C 212.21185 157.35528 212.04392 157.23662 211.84824 157.13363 C 211.65256 157.02721 211.43259 156.92069 211.18885 156.81427 C 210.97944 156.71815 210.80978 156.63765 210.67932 156.57243 C 210.54887 156.50377 210.44756 156.44184 210.37547 156.38691 C 210.30337 156.32855 210.25532 156.27356 210.23129 156.22206 C 210.20726 156.16713 210.19511 156.10572 210.19511 156.03706 C 210.19511 155.90661 210.24143 155.80356 210.33412 155.72803 C 210.43025 155.65251 210.58482 155.61486 210.79766 155.61486 C 211.03454 155.61486 211.27134 155.65424 211.50821 155.7332 C 211.74509 155.81216 211.99403 155.91347 212.25494 156.03706 L 212.72881 154.92447 C 212.40268 154.76655 212.08486 154.64841 211.7759 154.56945 C 211.46693 154.49049 211.14096 154.45111 210.79766 154.45111 z M 223.16177 154.45111 C 223.00385 154.45111 222.84754 154.46794 222.69306 154.50227 C 222.53858 154.53317 222.39268 154.58295 222.25536 154.65161 C 222.11804 154.72027 221.99071 154.80771 221.87399 154.91413 C 221.7607 155.02055 221.66286 155.14788 221.58047 155.2955 L 221.49313 155.2955 L 221.28178 154.55911 L 220.08237 154.55911 L 220.08237 160.31587 L 221.65281 160.31587 L 221.65281 157.60751 C 221.65281 157.30197 221.67016 157.03099 221.70449 156.79412 C 221.73882 156.55724 221.79503 156.35809 221.87399 156.19674 C 221.95295 156.03539 222.05773 155.91326 222.18818 155.83087 C 222.32207 155.74848 222.48878 155.70736 222.68789 155.70736 C 222.95223 155.70736 223.14618 155.81214 223.26977 156.02156 C 223.39336 156.22753 223.45529 156.53789 223.45529 156.95328 L 223.45529 160.31587 L 225.02573 160.31587 L 225.02573 157.42715 C 225.02573 156.87445 225.1045 156.45063 225.26241 156.1554 C 225.42033 155.85673 225.68662 155.70736 226.06081 155.70736 C 226.32515 155.70736 226.5191 155.81214 226.64269 156.02156 C 226.76628 156.22753 226.82821 156.53789 226.82821 156.95328 L 226.82821 160.31587 L 228.40382 160.31587 L 228.40382 156.56209 C 228.40382 155.824 228.24578 155.28847 227.92995 154.95547 C 227.61755 154.61904 227.15262 154.45111 226.53469 154.45111 C 226.37677 154.45111 226.21873 154.46794 226.06081 154.50227 C 225.90633 154.53317 225.7587 154.58295 225.61795 154.65161 C 225.47719 154.72027 225.34813 154.80771 225.23141 154.91413 C 225.11469 155.02055 225.01562 155.14788 224.93323 155.2955 L 224.80404 155.2955 C 224.65642 155.0037 224.44391 154.79067 224.16584 154.65678 C 223.8912 154.51946 223.55656 154.45111 223.16177 154.45111 z M 232.33278 154.45111 C 231.94142 154.45111 231.58423 154.51426 231.26153 154.64128 C 230.94226 154.7683 230.66782 154.95878 230.43781 155.21282 C 230.21123 155.46343 230.03463 155.77777 229.90761 156.1554 C 229.78059 156.53302 229.71692 156.97418 229.71692 157.47883 C 229.71692 157.97661 229.78527 158.41083 229.92259 158.78159 C 230.06334 159.14892 230.25903 159.45459 230.50964 159.69833 C 230.76024 159.93864 231.05898 160.11872 231.40571 160.23887 C 231.75244 160.35902 232.13218 160.41922 232.54414 160.41922 C 232.75698 160.41922 232.95267 160.41055 233.13118 160.39338 C 233.3097 160.37965 233.47589 160.35536 233.63038 160.32104 C 233.78486 160.28671 233.93076 160.24559 234.06808 160.19753 C 234.20883 160.14603 234.34779 160.08462 234.48511 160.01253 L 234.48511 158.7971 C 234.33405 158.87262 234.18642 158.93924 234.04224 158.9976 C 233.89805 159.05253 233.75216 159.09937 233.60454 159.13713 C 233.45692 159.17489 233.30409 159.20386 233.14617 159.22446 C 232.99169 159.24163 232.82722 159.2503 232.65214 159.2503 C 232.44273 159.2503 232.25572 159.21734 232.09094 159.15211 C 231.92959 159.08689 231.79011 158.99425 231.67339 158.8741 C 231.5601 158.75051 231.47093 158.60114 231.40571 158.42606 C 231.34391 158.24755 231.30974 158.04839 231.30287 157.82868 L 234.8148 157.82868 L 234.8148 157.06697 C 234.8148 156.64815 234.75634 156.27708 234.63962 155.95438 C 234.52633 155.62824 234.36187 155.3538 234.14559 155.13065 C 233.93275 154.90751 233.67166 154.73906 233.36269 154.62578 C 233.05716 154.50905 232.71384 154.45111 232.33278 154.45111 z M 239.26414 154.45111 C 239.09936 154.45111 238.93785 154.46794 238.77993 154.50227 C 238.62202 154.53317 238.47265 154.58295 238.3319 154.65161 C 238.19115 154.72027 238.06086 154.80771 237.94071 154.91413 C 237.82399 155.02055 237.72441 155.14788 237.64202 155.2955 L 237.55417 155.2955 L 237.34333 154.55911 L 236.1434 154.55911 L 236.1434 160.31587 L 237.71385 160.31587 L 237.71385 157.60751 C 237.71385 157.30197 237.7312 157.03099 237.76553 156.79412 C 237.79985 156.55724 237.85658 156.35809 237.93554 156.19674 C 238.01793 156.03539 238.1274 155.91326 238.26472 155.83087 C 238.40204 155.74848 238.57396 155.70736 238.77993 155.70736 C 239.05457 155.70736 239.25373 155.81214 239.37731 156.02156 C 239.50433 156.22753 239.568 156.53789 239.568 156.95328 L 239.568 160.31587 L 241.13845 160.31587 L 241.13845 156.56209 C 241.13845 156.19133 241.09386 155.87403 241.0046 155.60969 C 240.91535 155.34192 240.78801 155.12195 240.62323 154.9503 C 240.45845 154.77866 240.26103 154.65357 240.03102 154.57462 C 239.80101 154.49222 239.54565 154.45111 239.26414 154.45111 z M 253.57438 154.45111 C 253.18302 154.45111 252.82583 154.51426 252.50313 154.64128 C 252.18386 154.7683 251.90941 154.95878 251.6794 155.21282 C 251.45283 155.46343 251.27571 155.77777 251.14869 156.1554 C 251.02167 156.53302 250.95852 156.97418 250.95852 157.47883 C 250.95852 157.97661 251.02687 158.41083 251.16419 158.78159 C 251.30494 159.14892 251.50063 159.45459 251.75123 159.69833 C 252.00184 159.93864 252.30057 160.11872 252.6473 160.23887 C 252.99403 160.35902 253.37326 160.41922 253.78522 160.41922 C 253.99806 160.41922 254.19375 160.41055 254.37226 160.39338 C 254.55078 160.37965 254.71749 160.35536 254.87197 160.32104 C 255.02646 160.28671 255.17236 160.24559 255.30967 160.19753 C 255.45043 160.14603 255.58938 160.08462 255.7267 160.01253 L 255.7267 158.7971 C 255.57565 158.87262 255.42802 158.93924 255.28384 158.9976 C 255.13965 159.05253 254.99375 159.09937 254.84614 159.13713 C 254.69852 159.17489 254.54568 159.20386 254.38777 159.22446 C 254.23328 159.24163 254.06882 159.2503 253.89374 159.2503 C 253.68433 159.2503 253.4968 159.21734 253.33202 159.15211 C 253.17067 159.08689 253.03171 158.99425 252.91499 158.8741 C 252.8017 158.75051 252.71253 158.60114 252.6473 158.42606 C 252.58551 158.24755 252.55133 158.04839 252.54447 157.82868 L 256.0564 157.82868 L 256.0564 157.06697 C 256.0564 156.64815 255.99794 156.27708 255.88122 155.95438 C 255.76793 155.62824 255.60295 155.3538 255.38667 155.13065 C 255.17383 154.90751 254.91326 154.73906 254.60429 154.62578 C 254.29876 154.50905 253.95544 154.45111 253.57438 154.45111 z M 260.38688 154.45111 C 260.19464 154.45111 260.02324 154.47488 259.87219 154.52294 C 259.72457 154.56757 259.59081 154.63297 259.47066 154.71879 C 259.35394 154.80118 259.24742 154.9025 259.1513 155.02265 C 259.05518 155.1428 258.96601 155.27656 258.88362 155.42418 L 258.8061 155.42418 L 258.57459 154.55911 L 257.385 154.55911 L 257.385 160.31587 L 258.95545 160.31587 L 258.95545 157.38581 C 258.95545 157.11461 258.98789 156.88648 259.05311 156.7011 C 259.12177 156.51229 259.21615 156.36119 259.3363 156.2479 C 259.45989 156.13118 259.60579 156.04721 259.774 155.99572 C 259.94565 155.94422 260.13318 155.9182 260.33572 155.9182 C 260.37005 155.9182 260.4129 155.91994 260.4644 155.92337 C 260.51589 155.92337 260.56742 155.92684 260.61891 155.93371 C 260.67384 155.93714 260.72536 155.94234 260.77342 155.94921 C 260.82148 155.95607 260.85913 155.96301 260.88659 155.96988 L 260.88659 154.4971 C 260.866 154.49024 260.83529 154.48503 260.79409 154.4816 C 260.75633 154.47473 260.71296 154.46953 260.6649 154.4661 C 260.62027 154.45923 260.57222 154.45576 260.52073 154.45576 C 260.47266 154.45233 260.42808 154.45111 260.38688 154.45111 z M 274.52245 154.45111 C 274.35767 154.45111 274.19616 154.46794 274.03825 154.50227 C 273.88033 154.53317 273.73096 154.58295 273.59021 154.65161 C 273.44946 154.72027 273.31918 154.80771 273.19902 154.91413 C 273.0823 155.02055 272.98272 155.14788 272.90033 155.2955 L 272.81248 155.2955 L 272.60164 154.55911 L 271.40171 154.55911 L 271.40171 160.31587 L 272.97216 160.31587 L 272.97216 157.60751 C 272.97216 157.30197 272.98951 157.03099 273.02384 156.79412 C 273.05817 156.55724 273.1149 156.35809 273.19385 156.19674 C 273.27624 156.03539 273.38623 155.91326 273.52355 155.83087 C 273.66087 155.74848 273.83227 155.70736 274.03825 155.70736 C 274.31288 155.70736 274.51204 155.81214 274.63563 156.02156 C 274.76265 156.22753 274.82631 156.53789 274.82631 156.95328 L 274.82631 160.31587 L 276.39676 160.31587 L 276.39676 156.56209 C 276.39676 156.19133 276.35217 155.87403 276.26292 155.60969 C 276.17366 155.34192 276.04633 155.12195 275.88154 154.9503 C 275.71676 154.77866 275.51934 154.65357 275.28933 154.57462 C 275.05932 154.49222 274.80396 154.45111 274.52245 154.45111 z M 279.92936 154.45111 C 279.57233 154.45111 279.25625 154.49569 278.98161 154.58495 C 278.70698 154.67421 278.47711 154.80449 278.29173 154.97614 C 278.10635 155.14436 277.96566 155.35045 277.86954 155.59419 C 277.77341 155.83793 277.72536 156.11411 277.72536 156.42308 C 277.72536 156.81444 277.81279 157.15429 277.98788 157.44266 C 278.16639 157.73103 278.40666 157.94059 278.70876 158.07104 C 278.59204 158.14314 278.48726 158.21322 278.39457 158.28188 C 278.30188 158.35054 278.22485 158.42462 278.16306 158.50358 C 278.10127 158.5791 278.05321 158.66133 278.01888 158.75059 C 277.98799 158.83985 277.97237 158.93942 277.97237 159.04928 C 277.97237 159.1454 277.98972 159.23804 278.02405 159.3273 C 278.06181 159.41312 278.10813 159.4924 278.16306 159.56449 C 278.22142 159.63658 278.28509 159.69973 278.35375 159.75466 C 278.42584 159.80959 278.49766 159.85244 278.56975 159.88334 C 278.4084 159.9211 278.25036 159.97436 278.09588 160.04302 C 277.94483 160.11168 277.80934 160.20084 277.68919 160.3107 C 277.56903 160.42056 277.47292 160.55309 277.40083 160.70757 C 277.32874 160.86206 277.29283 161.04387 277.29283 161.25328 C 277.29283 161.50045 277.34088 161.72216 277.43701 161.91784 C 277.53656 162.11352 277.68419 162.27971 277.87987 162.41703 C 278.07555 162.55778 278.31929 162.6643 278.61109 162.73639 C 278.9029 162.81192 279.24448 162.84956 279.63584 162.84956 C 280.14048 162.84956 280.58511 162.79977 280.96961 162.70022 C 281.3541 162.60409 281.67487 162.4634 281.93234 162.27802 C 282.19324 162.09607 282.38893 161.87315 282.51938 161.60881 C 282.64984 161.34791 282.71524 161.05438 282.71524 160.72825 C 282.71524 160.45017 282.67412 160.21164 282.59173 160.01253 C 282.50934 159.80998 282.39068 159.64327 282.2362 159.51282 C 282.08514 159.38236 281.89987 159.28625 281.68016 159.22446 C 281.46045 159.15923 281.2115 159.12679 280.93343 159.12679 L 280.03736 159.12679 C 279.93437 159.12679 279.8348 159.12332 279.73867 159.11646 C 279.64255 159.10616 279.55859 159.08881 279.48649 159.06478 C 279.4144 159.03732 279.35594 159.00314 279.31131 158.96195 C 279.26668 158.91732 279.24413 158.85885 279.24413 158.78676 C 279.24413 158.6975 279.26321 158.6217 279.30097 158.5599 C 279.34217 158.49468 279.39716 158.43326 279.46582 158.3749 C 279.51045 158.3852 279.57932 158.39561 279.67201 158.40591 C 279.7647 158.41277 279.8504 158.41573 279.92936 158.41573 C 280.29325 158.41573 280.61229 158.36941 280.88692 158.27672 C 281.16156 158.18059 281.39021 158.04684 281.57215 157.87519 C 281.7541 157.70354 281.89132 157.49745 281.98401 157.25714 C 282.0767 157.0134 282.12302 156.74589 282.12302 156.45409 C 282.12302 156.3099 282.10915 156.17615 282.08168 156.05256 C 282.05422 155.92554 282.00617 155.80341 281.93751 155.68669 L 282.77673 155.42418 L 282.77673 154.56945 L 280.82026 154.56945 C 280.77907 154.55915 280.72234 154.54701 280.65025 154.53327 C 280.57815 154.51954 280.49888 154.5074 280.41305 154.4971 C 280.33066 154.48337 280.24669 154.47296 280.16087 154.4661 C 280.07505 154.4558 279.99802 154.45111 279.92936 154.45111 z M 289.65125 154.45111 C 289.49333 154.45111 289.33754 154.46794 289.18306 154.50227 C 289.02857 154.53317 288.88268 154.58295 288.74536 154.65161 C 288.60804 154.72027 288.48071 154.80771 288.36399 154.91413 C 288.2507 155.02055 288.15286 155.14788 288.07046 155.2955 L 287.98313 155.2955 L 287.77178 154.55911 L 286.57185 154.55911 L 286.57185 160.31587 L 288.14281 160.31587 L 288.14281 157.60751 C 288.14281 157.30197 288.15964 157.03099 288.19397 156.79412 C 288.2283 156.55724 288.28503 156.35809 288.36399 156.19674 C 288.44295 156.03539 288.54773 155.91326 288.67818 155.83087 C 288.81207 155.74848 288.97878 155.70736 289.17789 155.70736 C 289.44223 155.70736 289.63618 155.81214 289.75977 156.02156 C 289.88335 156.22753 289.94477 156.53789 289.94477 156.95328 L 289.94477 160.31587 L 291.51573 160.31587 L 291.51573 157.42715 C 291.51573 156.87445 291.59449 156.45063 291.75241 156.1554 C 291.91033 155.85673 292.17662 155.70736 292.55081 155.70736 C 292.81515 155.70736 293.0091 155.81214 293.13269 156.02156 C 293.25628 156.22753 293.31769 156.53789 293.31769 156.95328 L 293.31769 160.31587 L 294.89382 160.31587 L 294.89382 156.56209 C 294.89382 155.824 294.73578 155.28847 294.41995 154.95547 C 294.10755 154.61904 293.6421 154.45111 293.02417 154.45111 C 292.86625 154.45111 292.70873 154.46794 292.55081 154.50227 C 292.39633 154.53317 292.2487 154.58295 292.10794 154.65161 C 291.96719 154.72027 291.83813 154.80771 291.7214 154.91413 C 291.60468 155.02055 291.50511 155.14788 291.42272 155.2955 L 291.29404 155.2955 C 291.14642 155.0037 290.93339 154.79067 290.65532 154.65678 C 290.38068 154.51946 290.04604 154.45111 289.65125 154.45111 z M 298.82278 154.45111 C 298.43142 154.45111 298.07423 154.51426 297.75153 154.64128 C 297.43226 154.7683 297.15781 154.95878 296.92781 155.21282 C 296.70123 155.46343 296.52411 155.77777 296.39709 156.1554 C 296.27007 156.53302 296.20692 156.97418 296.20692 157.47883 C 296.20692 157.97661 296.27527 158.41083 296.41259 158.78159 C 296.55334 159.14892 296.74903 159.45459 296.99964 159.69833 C 297.25024 159.93864 297.54897 160.11872 297.8957 160.23887 C 298.24244 160.35902 298.62166 160.41922 299.03362 160.41922 C 299.24646 160.41922 299.44215 160.41055 299.62066 160.39338 C 299.79918 160.37965 299.96589 160.35536 300.12038 160.32104 C 300.27486 160.28671 300.42076 160.24559 300.55807 160.19753 C 300.69883 160.14603 300.83778 160.08462 300.9751 160.01253 L 300.9751 158.7971 C 300.82405 158.87262 300.67642 158.93924 300.53224 158.9976 C 300.38805 159.05253 300.24215 159.09937 300.09454 159.13713 C 299.94692 159.17489 299.79408 159.20386 299.63617 159.22446 C 299.48168 159.24163 299.31722 159.2503 299.14214 159.2503 C 298.93273 159.2503 298.7452 159.21734 298.58042 159.15211 C 298.41907 159.08689 298.28011 158.99425 298.16339 158.8741 C 298.0501 158.75051 297.96093 158.60114 297.8957 158.42606 C 297.83391 158.24755 297.79973 158.04839 297.79287 157.82868 L 301.3048 157.82868 L 301.3048 157.06697 C 301.3048 156.64815 301.24634 156.27708 301.12962 155.95438 C 301.01633 155.62824 300.85135 155.3538 300.63507 155.13065 C 300.42223 154.90751 300.16166 154.73906 299.85269 154.62578 C 299.54716 154.50905 299.20384 154.45111 298.82278 154.45111 z M 307.68477 154.45111 C 307.55775 154.45111 307.43961 154.4662 307.32975 154.4971 C 307.2199 154.528 307.12379 154.57779 307.0414 154.64645 C 306.95901 154.71511 306.89361 154.80601 306.84555 154.9193 C 306.80092 155.02915 306.77837 155.16516 306.77837 155.32651 C 306.77837 155.48099 306.80092 155.61475 306.84555 155.72803 C 306.89361 155.83789 306.95901 155.92879 307.0414 156.00089 C 307.12379 156.06954 307.2199 156.12107 307.32975 156.1554 C 307.43961 156.18629 307.55775 156.20191 307.68477 156.20191 C 307.80493 156.20191 307.91838 156.18629 308.0248 156.1554 C 308.13466 156.12107 308.23077 156.06954 308.31316 156.00089 C 308.39555 155.92879 308.46095 155.83789 308.50901 155.72803 C 308.55707 155.61475 308.58084 155.48099 308.58084 155.32651 C 308.58084 155.16516 308.55707 155.02915 308.50901 154.9193 C 308.46095 154.80601 308.39555 154.71511 308.31316 154.64645 C 308.23077 154.57779 308.13466 154.528 308.0248 154.4971 C 307.91838 154.4662 307.80493 154.45111 307.68477 154.45111 z M 241.93116 154.55911 L 243.48146 160.31587 L 245.17024 160.31587 L 245.63378 158.32322 C 245.64751 158.26143 245.66486 158.17573 245.68546 158.06588 C 245.70949 157.95602 245.73499 157.83389 245.76245 157.70001 C 245.78992 157.56269 245.81767 157.41679 245.84514 157.26231 C 245.87603 157.10782 245.905 156.95499 245.93247 156.80394 C 245.99769 156.44691 246.07003 156.06421 246.14899 155.65569 L 246.17948 155.65569 C 246.26187 156.06421 246.33768 156.44517 246.40634 156.79877 C 246.43724 156.94982 246.46621 157.10266 246.49367 157.25714 C 246.52457 157.40819 246.55406 157.55235 246.58152 157.68967 C 246.60899 157.82356 246.63276 157.94569 246.65335 158.05554 C 246.67739 158.16196 246.69647 158.24419 246.7102 158.30255 L 247.15307 160.31587 L 248.86252 160.31587 L 250.43297 154.55911 L 248.89353 154.55911 L 248.29098 157.10779 C 248.26008 157.24168 248.22591 157.40492 248.18814 157.59717 C 248.15382 157.78942 248.12086 157.98337 248.08996 158.17905 C 248.05906 158.37129 248.03009 158.55137 248.00263 158.71958 C 247.9786 158.8878 247.96125 159.01513 247.95095 159.10095 L 247.91994 159.10095 C 247.91651 159.00483 247.90489 158.8723 247.88429 158.70408 C 247.86369 158.53243 247.83767 158.35756 247.80677 158.17905 C 247.77931 157.9971 247.75207 157.82743 247.72461 157.66952 C 247.69714 157.5116 247.67459 157.39468 247.65743 157.31915 L 247.05488 154.55911 L 245.32475 154.55911 L 244.69637 157.31915 C 244.68607 157.35348 244.67271 157.41368 244.65554 157.4995 C 244.64181 157.58189 244.62447 157.678 244.60387 157.78786 C 244.5867 157.89771 244.56814 158.01585 244.54754 158.14287 C 244.53038 158.26646 244.51303 158.38859 244.49586 158.50874 C 244.4787 158.6289 244.46309 158.74183 244.44935 158.84826 C 244.43906 158.95125 244.43212 159.03573 244.42868 159.10095 L 244.3982 159.10095 C 244.38446 159.0014 244.36538 158.86713 244.34135 158.69891 C 244.31732 158.52726 244.28957 158.34719 244.25867 158.15838 C 244.23121 157.96613 244.2005 157.77738 244.16617 157.592 C 244.13527 157.40319 244.10456 157.24168 244.07367 157.10779 L 243.49179 154.55911 L 241.93116 154.55911 z M 268.18331 154.55911 L 268.18331 160.31587 L 269.75375 160.31587 L 269.75375 154.55911 L 268.18331 154.55911 z M 279.92936 155.43451 C 280.17997 155.43451 280.35831 155.52542 280.46473 155.70736 C 280.57458 155.88931 280.62958 156.13479 280.62958 156.44375 C 280.62958 156.75615 280.57458 156.99816 280.46473 157.16981 C 280.35487 157.34145 280.17653 157.42715 279.92936 157.42715 C 279.69248 157.42715 279.51536 157.34145 279.39864 157.16981 C 279.28192 156.99816 279.22398 156.75615 279.22398 156.44375 C 279.22398 155.77089 279.45904 155.43451 279.92936 155.43451 z M 232.34312 155.56835 C 232.5079 155.56835 232.65206 155.59906 232.77565 155.66085 C 232.89924 155.72265 233.00228 155.80835 233.08467 155.9182 C 233.16707 156.02463 233.229 156.15196 233.27019 156.29958 C 233.31139 156.44719 233.33342 156.6087 233.33685 156.78378 L 231.33388 156.78378 C 231.36134 156.36496 231.46612 156.05756 231.64807 155.86188 C 231.83345 155.6662 232.06505 155.56835 232.34312 155.56835 z M 253.58471 155.56835 C 253.7495 155.56835 253.89366 155.59906 254.01725 155.66085 C 254.14083 155.72265 254.24388 155.80835 254.32627 155.9182 C 254.40866 156.02463 254.47008 156.15196 254.51127 156.29958 C 254.55247 156.44719 254.57502 156.6087 254.57845 156.78378 L 252.57547 156.78378 C 252.60294 156.36496 252.70772 156.05756 252.88967 155.86188 C 253.07505 155.6662 253.30664 155.56835 253.58471 155.56835 z M 298.83312 155.56835 C 298.9979 155.56835 299.14206 155.59906 299.26565 155.66085 C 299.38923 155.72265 299.49228 155.80835 299.57467 155.9182 C 299.65706 156.02463 299.71848 156.15196 299.75967 156.29958 C 299.80087 156.44719 299.82342 156.6087 299.82685 156.78378 L 297.82387 156.78378 C 297.85134 156.36496 297.9556 156.05756 298.13755 155.86188 C 298.32293 155.6662 298.55504 155.56835 298.83312 155.56835 z M 216.90478 157.64885 L 216.90478 158.1222 C 216.90478 158.30758 216.87928 158.47256 216.82779 158.61675 C 216.77629 158.7575 216.70395 158.87789 216.61126 158.97745 C 216.522 159.07357 216.416 159.14713 216.29242 159.19862 C 216.16883 159.24668 216.03456 159.27097 215.89037 159.27097 C 215.70156 159.27097 215.54873 159.22118 215.432 159.12163 C 215.31528 159.01864 215.25734 158.84672 215.25734 158.60641 C 215.25734 158.46909 215.2759 158.34575 215.31367 158.23589 C 215.35486 158.1226 215.41853 158.0265 215.50435 157.94754 C 215.59361 157.86515 215.71053 157.79974 215.85472 157.75168 C 215.9989 157.70362 216.17551 157.67638 216.38492 157.66952 L 216.90478 157.64885 z M 307.68477 158.70408 C 307.55775 158.70408 307.43961 158.71969 307.32975 158.75059 C 307.2199 158.78149 307.12379 158.83127 307.0414 158.89993 C 306.95901 158.96859 306.89361 159.0595 306.84555 159.17278 C 306.80092 159.28264 306.77837 159.41813 306.77837 159.57948 C 306.77837 159.73396 306.80092 159.8665 306.84555 159.97635 C 306.89361 160.08621 306.95901 160.17711 307.0414 160.2492 C 307.12379 160.3213 307.2199 160.37282 307.32975 160.40372 C 307.43961 160.43805 307.55775 160.45539 307.68477 160.45539 C 307.80493 160.45539 307.91838 160.43805 308.0248 160.40372 C 308.13466 160.37282 308.23077 160.3213 308.31316 160.2492 C 308.39555 160.17711 308.46095 160.08621 308.50901 159.97635 C 308.55707 159.8665 308.58084 159.73396 308.58084 159.57948 C 308.58084 159.41813 308.55707 159.28264 308.50901 159.17278 C 308.46095 159.0595 308.39555 158.96859 308.31316 158.89993 C 308.23077 158.83127 308.13466 158.78149 308.0248 158.75059 C 307.91838 158.71969 307.80493 158.70408 307.68477 158.70408 z M 279.56349 160.41922 L 280.28954 160.41922 C 280.64314 160.41922 280.90423 160.45513 281.07244 160.52722 C 281.24066 160.59932 281.32462 160.74348 281.32462 160.95976 C 281.32462 161.2138 281.18913 161.41642 280.91793 161.56747 C 280.64673 161.71852 280.24321 161.79381 279.70767 161.79381 C 279.51199 161.79381 279.34753 161.77525 279.21364 161.73749 C 279.07976 161.70316 278.9715 161.6551 278.88911 161.59331 C 278.80672 161.53152 278.74653 161.45918 278.70876 161.37678 C 278.67443 161.29783 278.65709 161.2156 278.65709 161.12977 C 278.65709 160.99245 278.68658 160.87726 278.74494 160.78457 C 278.80673 160.69532 278.88202 160.62349 278.97128 160.56857 C 279.06054 160.51364 279.15838 160.47426 279.2648 160.45023 C 279.37122 160.42963 279.4708 160.41922 279.56349 160.41922 z " /><rect
       style="opacity:0;fill:#e13201;fill-opacity:1;stroke:none;stroke-width:0.551941;stroke-linecap:round;stroke-linejoin:round;stroke-dasharray:none"
       id="rect11336"
       width="447.1958"
       height="63.294273"
       x="28.202606"
       y="149.07521" /><g
       id="g11282"
       transform="matrix(0.67103089,0,0,0.67103089,-106.11094,60.083872)"><path
         id="path337"
         style="fill:#242570;fill-opacity:1;stroke-width:0.26848"
         d="m 257.99405,159.80055 c -4.59354,0.003 -9.20423,0.17812 -11.46231,0.52384 -1.69813,0.25999 -3.51037,0.53043 -4.02719,0.60146 -2.33044,0.32021 -10.02942,2.14469 -10.80738,2.56104 -0.48323,0.25865 -0.48493,0.30129 -0.0399,0.98059 0.25596,0.39063 0.99012,1.35429 1.63133,2.14154 0.64122,0.78724 1.47928,2.05985 1.86259,2.82795 0.38331,0.76811 1.13743,1.85535 1.6759,2.41632 l 0.97901,1.02044 -0.096,2.4567 c -0.0564,1.4411 -0.24493,2.68456 -0.45568,3.00728 -0.34064,0.52157 -0.30474,0.55111 0.69113,0.56318 0.75977,0.009 1.33175,0.24018 2.06656,0.83533 l 1.01571,0.82274 0.075,-3.46244 c 0.0852,-3.93454 -0.11423,-4.94626 -1.34241,-6.81582 -0.98835,-1.50451 -3.85314,-4.4893 -5.41836,-5.64543 l -1.04717,-0.77397 1.18141,-0.34294 c 9.03395,-2.62275 23.48283,-3.61318 33.26528,-2.27999 11.62433,1.58421 20.5424,4.69638 28.4961,9.94425 2.09371,1.38144 2.93664,1.80528 3.15517,1.58675 0.61377,-0.61377 0.22873,-1.0568 -2.39797,-2.76135 -7.64853,-4.96337 -15.90088,-7.85868 -27.64242,-9.69831 -2.18856,-0.34288 -6.76495,-0.51209 -11.35848,-0.50916 z m -27.35035,2.8505 c -0.49044,0.003 -1.4141,0.24255 -2.05239,0.53223 -0.90701,0.41161 -1.12638,0.63482 -1.00366,1.02149 0.13251,0.41746 -0.25246,0.65549 -2.46403,1.52487 -3.78677,1.48862 -10.54099,4.94649 -10.54099,5.39635 0,0.50516 -0.0131,0.50877 1.79231,-0.51179 4.39207,-2.48254 11.78179,-5.51052 12.26618,-5.02614 0.39016,0.39022 1.58559,0.34719 2.16724,-0.0781 0.3986,-0.29146 0.43267,-0.46025 0.18563,-0.92186 -0.40298,-0.75297 -0.38191,-1.01973 0.11957,-1.52121 0.38354,-0.38352 0.34082,-0.4209 -0.46986,-0.41582 z m -16.65203,7.25576 c -0.68841,0.0118 -2.36232,1.17506 -2.36232,1.75719 0,0.4426 2.89942,2.37357 5.10112,3.39742 1.34391,0.62495 4.20369,1.55197 5.91286,1.91659 0.49638,0.1059 0.875,0.54798 1.41739,1.65388 1.04276,2.12617 2.55838,4.0933 4.34495,5.64016 3.03539,2.62811 3.32398,2.96211 3.6376,4.2076 0.37893,1.50493 1.89847,3.06023 4.13206,4.22907 0.87512,0.45796 1.76847,0.79782 1.98476,0.7551 0.46436,-0.0917 0.89458,-1.40929 1.79966,-5.51012 0.80529,-3.64874 0.81623,-4.01486 0.12637,-4.23381 -0.39656,-0.12586 -0.9191,0.15374 -1.97531,1.0561 -2.21237,1.89007 -2.71462,1.78661 -5.4404,-1.1164 -2.16707,-2.30799 -2.20149,-2.33099 -2.29098,-1.54376 -0.15649,1.37697 -1.01153,1.18183 -2.66698,-0.60932 -1.54121,-1.66755 -2.75649,-3.84874 -3.06706,-5.50488 -0.1724,-0.91934 -0.13647,-1.0068 0.4111,-1.0068 0.52748,0 0.55534,-0.0534 0.23125,-0.44415 -0.66577,-0.80281 -2.06367,-1.16923 -5.93539,-1.55687 -2.11304,-0.21156 -3.86147,-0.51001 -3.91393,-0.66753 -0.0522,-0.1566 -0.31187,-0.28473 -0.57681,-0.28473 -0.79635,0 -1.25128,-0.7451 -0.84845,-1.39012 0.18595,-0.29773 0.27852,-0.60086 0.20556,-0.67382 -0.0503,-0.0503 -0.12871,-0.0724 -0.22705,-0.0709 z m 17.78731,1.33035 c -2.07594,0.002 -3.86721,1.62488 -4.20863,3.81377 -0.12602,0.80796 0.0349,1.06162 1.88041,2.96429 l 2.01831,2.08072 h 1.62504 c 1.7086,0 1.92208,-0.12543 1.15993,-0.68274 -0.44011,-0.32178 -0.43944,-0.39253 0.0116,-1.3382 0.58601,-1.22891 0.43437,-1.43605 -0.50866,-0.69427 -1.0544,0.8294 -2.11645,0.73973 -2.84053,-0.23964 -0.41238,-0.55782 -0.74645,-0.75928 -1.08178,-0.65285 -0.57132,0.18133 -0.65155,-0.4128 -0.17567,-1.30201 0.17036,-0.31833 0.29472,-0.97882 0.27635,-1.46774 -0.0275,-0.73047 0.12057,-0.98255 0.83113,-1.41581 1.05724,-0.64463 1.74211,-0.66901 2.38748,-0.085 0.40504,0.36657 0.49082,0.37576 0.49082,0.0535 0,-0.69347 -0.61615,-1.03507 -1.86573,-1.03406 z m 1.76137,1.9706 c -0.0963,-0.0162 -0.16413,0.0431 -0.16413,0.16046 0,0.15637 0.12081,0.2842 0.26849,0.2842 0.14766,0 0.26848,-0.0529 0.26848,-0.11798 0,-0.0651 -0.12082,-0.19351 -0.26848,-0.28473 -0.0369,-0.0228 -0.0723,-0.0366 -0.10436,-0.0419 z m 58.59836,0.35027 c -1.66094,8.8e-4 -3.3787,0.40831 -5.02875,1.30728 -5.68502,3.09724 -6.59357,11.60494 -1.71052,16.01649 1.30704,1.18084 1.88743,1.50751 3.8206,2.15204 2.17551,0.72534 5.11026,0.51649 7.31608,-0.52071 3.03335,-1.42631 4.96264,-3.96146 5.57199,-7.32184 1.17164,-6.46115 -4.03749,-11.63741 -9.9694,-11.63326 z m -17.28077,0.098 c -1.71818,-0.005 -3.51532,0.3092 -4.74297,0.89669 -7.87968,3.77083 -7.10934,15.77817 1.18089,18.4045 2.13638,0.67683 4.1641,0.69664 6.45138,0.0624 2.00647,-0.55638 3.95537,-1.70519 3.95537,-2.33138 0,-0.43035 -1.26593,-3.07492 -1.47192,-3.07492 -0.0663,0 -0.68329,0.35727 -1.37178,0.7939 -4.58289,2.90637 -9.51206,0.78367 -9.97255,-4.29463 -0.25113,-2.76958 1.28453,-5.58128 3.50439,-6.41678 0.94683,-0.35636 3.14912,-0.36856 4.05919,-0.0225 0.58181,0.22121 0.68851,0.42952 0.68851,1.3424 0,1.03794 0.0341,1.0802 0.86417,1.0802 0.68149,0 1.16381,-0.29569 2.28208,-1.40007 0.77987,-0.77019 1.41791,-1.54549 1.41791,-1.72258 0,-0.6674 -2.50099,-2.5246 -3.97739,-2.9538 -0.83397,-0.24244 -1.83637,-0.3604 -2.86728,-0.36338 z m -27.99059,0.0104 c -0.26265,-0.0109 -0.33561,2.11734 -0.33561,9.78536 v 9.79952 h 1.87935 1.87937 l 0.0336,-4.96689 c 0.0185,-2.73177 0.0637,-5.08769 0.10066,-5.23535 0.0369,-0.14766 0.0822,-0.33869 0.10066,-0.42474 0.0185,-0.086 2.60092,2.3299 5.73876,5.36907 h 5.3e-4 c 3.13786,3.03917 5.79763,5.49523 5.91076,5.45769 0.11312,-0.0375 0.20991,-4.41676 0.21498,-9.73187 l 0.009,-9.66422 -2.96691,-0.0755 -2.96743,-0.076 v 0.85578 c 0,0.65021 0.25991,1.10277 1.08178,1.88459 l 1.08178,1.02936 -0.075,3.48814 -0.075,3.48866 -5.63808,-5.48495 c -3.10095,-3.01667 -5.7891,-5.49048 -5.97368,-5.4986 z m -14.17386,0.0802 c -0.41362,-0.0299 -1.19662,0.40911 -1.19662,0.72994 0,0.16872 0.1745,0.17916 0.46983,0.0273 0.25842,-0.13288 0.62086,-0.18781 0.80545,-0.12166 0.39488,0.14161 0.45611,-0.35517 0.0729,-0.59202 -0.0407,-0.0252 -0.0924,-0.0393 -0.15154,-0.0435 z m 69.68206,0.17409 v 0.88724 c 0,0.66127 0.23917,1.11858 0.93968,1.79756 l 0.93968,0.91084 v 7.68838 c 0,4.22868 0.0856,7.77391 0.18982,7.8782 0.10429,0.10477 1.04063,0.15494 2.08073,0.11222 l 1.89089,-0.0781 0.0709,-9.59816 0.0703,-9.59815 h -3.09067 z m -68.29929,0.53696 c -0.058,0 -0.17505,0.18123 -0.26008,0.40272 -0.0851,0.22149 -0.0376,0.40272 0.1054,0.40272 0.14303,0 0.26008,-0.18123 0.26008,-0.40272 0,-0.22149 -0.0473,-0.40272 -0.1054,-0.40272 z m 58.17152,2.85156 c 1.99388,0.0116 4.00054,1.06267 5.08539,3.14833 0.43816,0.8424 0.57702,1.57441 0.56789,2.99418 -0.0186,2.91191 -1.08659,4.73927 -3.3775,5.77913 -2.02788,0.92048 -4.57473,0.51102 -6.1698,-0.99211 -1.91511,-1.80474 -2.4049,-5.25001 -1.11429,-7.83993 1.03323,-2.07339 3.01442,-3.10115 5.00831,-3.0896 z m -61.17198,14.24882 -0.4389,0.66963 c -0.71968,1.09833 -1.02481,2.65247 -0.75458,3.84262 0.23643,1.04136 1.1234,2.07755 2.68846,3.14048 l 0.6712,0.45621 -0.67853,0.0141 c -0.37322,0.008 -0.9604,-0.18361 -1.30465,-0.42474 -0.77012,-0.53942 -0.95004,-0.31936 -1.40952,1.71838 -0.23405,1.03778 -0.24439,1.89491 -0.0382,3.22176 l 0.28054,1.8075 -0.87833,0.93969 c -1.2245,1.30946 -1.70787,2.3851 -1.88985,4.20549 l -0.15678,1.56683 1.77395,-1.85525 c 1.84997,-1.9347 3.95355,-4.9216 5.64228,-8.01139 0.54475,-0.99672 1.14568,-1.81224 1.33506,-1.81224 0.18937,0 0.85777,0.18123 1.48555,0.40272 1.81669,0.64098 2.75674,0.53208 3.44514,-0.39905 0.32602,-0.44096 1.04328,-1.0395 1.5941,-1.33034 l 1.00156,-0.52856 -0.95017,-0.0121 c -1.26746,-0.0159 -3.77997,-0.68596 -5.10269,-1.36075 -1.39642,-0.7124 -5.65031,-4.62289 -6.02455,-5.53845 z m 37.6307,6.31138 c -0.65477,0 -1.16934,0.22091 -1.54324,0.66228 -0.37206,0.44138 -0.55794,1.05074 -0.55794,1.8285 0,0.77562 0.18588,1.38397 0.55794,1.82535 0.3739,0.44136 0.88847,0.66229 1.54324,0.66229 0.65659,0 1.17064,-0.22093 1.54271,-0.66229 0.37207,-0.44138 0.55793,-1.04973 0.55793,-1.82535 0,-0.77776 -0.18586,-1.38712 -0.55793,-1.8285 -0.37207,-0.44137 -0.88612,-0.66228 -1.54271,-0.66228 z m 29.946,0 c -0.70402,0 -1.25843,0.22191 -1.66333,0.66543 -0.40489,0.44352 -0.60775,1.05187 -0.60775,1.82535 0,0.7649 0.19914,1.37125 0.59675,1.81905 0.39759,0.44566 0.93634,0.66859 1.61664,0.66859 0.30094,0 0.593,-0.0377 0.8757,-0.11276 0.2827,-0.075 0.5554,-0.18718 0.81803,-0.33716 v -2.30777 h -1.64182 v 0.82903 h 0.64289 v 0.93234 c -0.0748,0.0343 -0.15948,0.06 -0.25433,0.0771 -0.0931,0.015 -0.19417,0.0225 -0.30361,0.0225 -0.40307,0 -0.714,-0.13838 -0.93286,-0.41478 -0.21886,-0.27639 -0.32826,-0.66838 -0.32826,-1.17617 0,-0.51208 0.11311,-0.90506 0.33928,-1.17931 0.22797,-0.2764 0.55164,-0.41478 0.97113,-0.41478 0.22616,0 0.45159,0.0377 0.67592,0.11274 0.22617,0.075 0.45319,0.18818 0.68116,0.34031 v -0.99316 c -0.22069,-0.11784 -0.45593,-0.2064 -0.70581,-0.26639 -0.24804,-0.06 -0.50798,-0.0902 -0.77973,-0.0902 z m -27.04883,0.0871 v 4.79803 h 1.05294 v -1.66488 h 0.69479 c 0.51981,0 0.91835,-0.13486 1.19558,-0.40482 0.27906,-0.27211 0.41898,-0.66008 0.41898,-1.16359 0,-0.50137 -0.13992,-0.88681 -0.41898,-1.15678 -0.27723,-0.27211 -0.67577,-0.40796 -1.19558,-0.40796 z m 4.10637,0 v 4.79803 h 2.90242 v -0.93496 H 276.763 v -3.86307 z m 3.56994,0 v 4.79803 h 2.90295 v -0.93496 h -1.84948 v -1.09962 h 1.6822 v -0.93495 h -1.6822 v -0.89354 h 1.78918 v -0.93496 z m 3.82743,0 v 4.79803 h 1.05347 v -4.79803 z m 2.0849,0 v 4.79803 h 1.11064 c 0.61281,0 1.07216,-0.0513 1.37857,-0.15416 0.30642,-0.10499 0.56928,-0.28161 0.78814,-0.53014 0.19151,-0.21641 0.33382,-0.46599 0.42685,-0.74881 0.0931,-0.28497 0.13948,-0.60852 0.13948,-0.97062 0,-0.35781 -0.0465,-0.67835 -0.13948,-0.96118 -0.0931,-0.28282 -0.23534,-0.53241 -0.42685,-0.74881 -0.21704,-0.24853 -0.47778,-0.42415 -0.78236,-0.527 -0.30277,-0.10498 -0.76425,-0.15731 -1.38435,-0.15731 z m 4.65069,0 v 4.79803 h 1.05346 v -4.79803 z m 2.08491,0 v 4.79803 h 0.99841 v -3.29097 l 1.48555,3.29097 h 1.17618 v -4.79803 h -0.99841 v 3.29097 l -1.48556,-3.29097 z m 9.28773,0 v 4.79803 h 2.90294 v -0.93496 h -1.84947 v -1.09962 h 1.68219 v -0.93495 h -1.68219 v -0.89354 h 1.78916 v -0.93496 z m 3.8274,0 v 4.79803 h 0.99841 v -3.29097 l 1.48557,3.29097 h 1.17668 v -4.79803 h -0.9984 v 3.29097 l -1.48556,-3.29097 z m -36.33654,0.80964 c 0.32282,0 0.57242,0.13938 0.74932,0.41792 0.17692,0.27854 0.26535,0.67052 0.26535,1.17617 0,0.50351 -0.0884,0.8945 -0.26535,1.17303 -0.1769,0.27853 -0.4265,0.41793 -0.74932,0.41793 -0.321,0 -0.57033,-0.1394 -0.74724,-0.41793 -0.17692,-0.27853 -0.26534,-0.66952 -0.26534,-1.17303 0,-0.50565 0.0884,-0.89763 0.26534,-1.17617 0.17691,-0.27854 0.42624,-0.41792 0.74724,-0.41792 z m 3.95011,0.0871 h 0.58311 c 0.20427,0 0.36172,0.0573 0.47299,0.17304 0.11125,0.1157 0.16674,0.28076 0.16674,0.49502 0,0.21425 -0.0555,0.38031 -0.16674,0.49815 -0.11127,0.1157 -0.26872,0.17357 -0.47299,0.17357 h -0.58311 z m 13.58865,0.0382 h 0.37755 c 0.43226,0 0.76177,0.1243 0.98792,0.37284 0.22617,0.24853 0.33927,0.61085 0.33927,1.0865 0,0.4778 -0.11391,0.84159 -0.34188,1.09227 -0.22617,0.25068 -0.55488,0.3765 -0.98531,0.3765 h -0.37755 z m -38.94008,0.53486 c -1.84986,0 -3.71461,1.86928 -5.58615,5.59875 -1.54457,3.07793 -2.83188,4.60349 -3.88405,4.60349 -0.51378,0 -0.78469,-0.18772 -0.96851,-0.6712 -0.28776,-0.75685 -1.09508,-0.88988 -1.61298,-0.26586 -0.23231,0.27991 -0.27262,0.75753 -0.13057,1.54376 0.11313,0.62615 0.22807,1.74251 0.25537,2.48082 0.0844,2.28272 0.127,2.45204 0.80439,3.18296 1.13558,1.22529 1.42088,0.96535 1.52803,-1.39117 0.11371,-2.50098 0.23504,-2.70618 4.09065,-6.92594 2.90547,-3.17991 4.26819,-4.93229 5.35229,-6.88033 0.69165,-1.24292 0.69553,-1.27528 0.15153,-1.27528 z" /><path
         style="fill:#2e3192;fill-opacity:1;stroke-width:0.0460028"
         d="m 430.51652,215.89492 c -0.0759,-0.0503 -0.23116,-0.12291 -0.34502,-0.16137 -0.319,-0.10776 -0.80545,-0.4915 -0.99127,-0.78198 -0.17446,-0.27274 -0.2629,-0.30715 -0.4591,-0.1786 -0.23364,0.1531 -0.95249,-0.44059 -1.30979,-1.08171 -0.29856,-0.53571 -0.55204,-0.64227 -0.55204,-0.23205 0,0.22631 -0.27905,0.0946 -0.59603,-0.2813 -0.10937,-0.12972 -0.38745,-0.37528 -0.61796,-0.54571 -0.60989,-0.45091 -1.05677,-0.95794 -1.24827,-1.41628 -0.0594,-0.14202 -0.0771,-0.15123 -0.29027,-0.15123 -0.33194,0 -0.44363,-0.24817 -0.62614,-1.3911 -0.22949,-1.43725 -0.0551,-1.79301 0.73868,-1.5068 0.14897,0.0537 0.39506,0.13458 0.54687,0.17971 0.1518,0.0452 0.58979,0.20941 0.97329,0.36506 0.38351,0.15565 0.71093,0.283 0.72761,0.283 0.0167,0 0.0962,0.0491 0.17678,0.10905 0.0806,0.06 0.30388,0.19248 0.49631,0.29446 2.10959,1.11794 4.10319,3.21833 5.03134,5.30083 0.11841,0.26567 0.26543,0.59043 0.32671,0.7217 0.24971,0.53486 0.19735,0.56646 -0.93842,0.56607 -0.82619,-4.5e-4 -0.91733,-0.008 -1.04328,-0.0917 z m -83.88601,-4.14019 c -0.0904,-0.0904 -0.092,-0.15334 -0.092,-3.68023 0,-4.22224 -0.0754,-3.77236 0.63253,-3.77196 0.78676,4.5e-4 0.65999,-0.0967 1.85964,1.42583 0.309,0.39217 0.79308,1.00286 1.07575,1.35707 0.28267,0.35423 0.56987,0.72685 0.63823,0.82805 0.2635,0.39014 0.43083,0.51772 0.51032,0.38911 0.0163,-0.0264 0.027,-0.87494 0.0239,-1.88574 -0.007,-2.2652 -0.0708,-2.11458 0.89497,-2.11458 0.99142,0 0.89706,-0.39839 0.89706,3.78711 0,4.18188 0.0854,3.72676 -0.70376,3.74967 -0.67122,0.0195 -0.70852,5.1e-4 -1.184,-0.60269 -0.20407,-0.25889 -0.47224,-0.59491 -0.59592,-0.74672 -0.64582,-0.79267 -1.51623,-1.88903 -1.79508,-2.26107 -0.5373,-0.71685 -0.51224,-0.79082 -0.50707,1.49645 0.005,2.33184 0.0937,2.1217 -0.89342,2.1217 -0.6078,0 -0.67757,-0.009 -0.76114,-0.092 z m 9.07304,0.0354 c -0.16909,-0.0815 -0.17151,-0.13477 -0.17151,-3.77711 0,-3.48868 0,-3.48868 0.12907,-3.59971 0.12908,-0.11104 0.12908,-0.11104 2.33164,-0.11104 2.76613,0 2.64412,-0.0417 2.25378,0.76953 -0.12516,0.26012 -0.24048,0.52438 -0.25626,0.58725 -0.0368,0.14675 -0.31385,0.39082 -0.4461,0.39303 -0.056,8.8e-4 -0.52627,4.5e-4 -1.04495,-8.8e-4 -1.19453,-0.004 -1.15007,-0.026 -1.15007,0.57395 0,0.3306 0.0168,0.448 0.0723,0.50343 0.0832,0.0832 0.0667,0.0822 1.10287,0.0728 1.11857,-0.0101 1.12498,-0.005 1.12498,0.878 0,0.89669 0.0371,0.86961 -1.18961,0.86961 -1.15112,0 -1.11054,-0.0211 -1.11054,0.57503 0,0.61403 -0.10796,0.57504 1.59224,0.57504 1.75725,0 1.60496,-0.083 1.60496,0.87405 0,0.97735 0.29189,0.87475 -2.47775,0.87094 -1.53714,-0.002 -2.29398,-0.0192 -2.36504,-0.0535 z m 7.11352,-0.0313 c -0.16861,-0.13653 -0.17233,-7.16018 -0.004,-7.32873 0.2848,-0.28498 3.45453,-0.15076 4.21407,0.17845 3.11273,1.34913 3.13603,5.51424 0.0387,6.91865 -0.69904,0.31695 -3.92623,0.49289 -4.24888,0.23163 z m 3.22232,-1.73101 c 1.993,-0.46978 2.11365,-3.23795 0.16869,-3.87055 -0.36324,-0.11815 -1.56618,-0.14313 -1.68565,-0.035 -0.12433,0.11251 -0.1399,3.78077 -0.0166,3.9041 0.0989,0.0989 1.11603,0.0999 1.53352,0.002 z m 5.38785,1.72819 c -0.1621,-0.1621 -0.14332,-7.17781 0.0196,-7.34078 0.11291,-0.11291 0.11291,-0.11291 2.3129,-0.11291 2.66905,0 2.59463,-0.0217 2.27105,0.66139 -0.0734,0.15491 -0.19555,0.41935 -0.27148,0.58764 -0.23769,0.52684 -0.15802,0.49907 -1.43192,0.49907 -1.33114,0 -1.24536,-0.041 -1.24536,0.59568 0,0.60793 -0.0539,0.57799 1.00954,0.56059 1.257,-0.0206 1.2446,-0.0295 1.2446,0.88974 0,0.85723 0.007,0.85216 -1.21878,0.85216 -1.08754,0 -1.03536,-0.029 -1.03536,0.57503 0,0.62076 -0.12119,0.57504 1.5244,0.57504 1.48512,0 1.52428,0.006 1.59629,0.24116 0.0794,0.25909 0.0381,1.31207 -0.0551,1.40522 -0.13384,0.13389 -4.58722,0.14425 -4.7205,0.011 z m 7.32769,0.0445 c -0.19857,-0.08 -0.19852,-0.0789 -0.19852,-3.7259 0,-3.722 -0.005,-3.63727 0.23591,-3.72138 0.22391,-0.078 3.04104,-0.0674 3.53865,0.0133 1.56144,0.25347 2.81686,2.05208 2.37031,3.3959 -0.036,0.10841 -0.0895,0.2884 -0.11875,0.39997 -0.10658,0.40595 -0.44285,0.86299 -0.97731,1.32829 -0.26453,0.2303 -0.2544,0.2473 0.72491,1.21567 0.9216,0.9113 0.94757,0.94494 0.8244,1.06812 -0.0854,0.0854 -1.85227,0.10787 -2.06682,0.0263 -0.0666,-0.0252 -0.4855,-0.3998 -0.93105,-0.83222 -0.89951,-0.87305 -0.89456,-0.86989 -1.36498,-0.86989 -0.48196,0 -0.48716,0.009 -0.48716,0.82371 0,0.90661 -0.0177,0.92563 -0.85901,0.92148 -0.32454,-0.002 -0.6353,-0.0211 -0.69058,-0.0434 z m 3.61211,-3.57729 c 0.86439,-0.42826 0.81143,-1.72298 -0.0844,-2.06345 -0.32087,-0.12195 -1.76398,-0.1508 -1.8889,-0.0377 -0.11122,0.10066 -0.14017,2.08397 -0.0317,2.17203 0.17879,0.14515 1.67581,0.0923 2.00502,-0.0709 z m 5.11391,3.59169 c -0.18562,-0.0663 -0.18401,-0.0337 -0.18401,-3.72818 0,-4.25183 -0.10709,-3.78434 0.86686,-3.78434 0.96249,0 0.85589,-0.35869 0.87032,2.92859 0.0111,2.51495 0.0188,2.75772 0.0893,2.81025 0.0578,0.0431 0.42727,0.0575 1.46823,0.0575 1.20321,0 1.40077,0.01 1.4633,0.0723 0.0997,0.0997 0.0905,0.33474 -0.0206,0.52647 -0.051,0.0882 -0.12485,0.23274 -0.16397,0.3213 -0.40075,0.9074 -0.16905,0.82876 -2.42903,0.82442 -1.04027,-0.002 -1.92246,-0.0147 -1.9604,-0.0283 z m 6.38369,-0.0213 c -0.2182,-0.0797 -0.22857,-0.214 -0.20694,-2.67966 0.0222,-2.53154 0.0191,-2.50402 0.35797,-3.15548 1.24098,-2.38558 5.15732,-2.26255 5.90832,0.1856 0.0191,0.0623 0.0881,0.23761 0.15332,0.38943 0.15854,0.36921 0.19564,5.05335 0.0412,5.20802 -0.0721,0.0723 -0.17248,0.0823 -0.82026,0.0823 -0.93125,0 -0.8687,0.0645 -0.8687,-0.89664 0,-0.92042 0.16684,-0.82846 -1.50323,-0.82846 -1.68326,0 -1.55023,-0.0673 -1.5149,0.76631 0.0271,0.6391 -0.0145,0.85244 -0.18098,0.92829 -0.14374,0.0655 -1.18682,0.0658 -1.36586,4.7e-4 z m 4.49551,-3.48864 c 0.11685,-0.097 0.0969,-1.07268 -0.0289,-1.41322 -0.52403,-1.41852 -2.67856,-1.21891 -2.89351,0.26807 -0.0736,0.50886 -0.0566,1.04051 0.0362,1.13328 0.10347,0.10347 2.76267,0.1144 2.88622,0.0118 z m 4.37071,3.47914 c -0.10572,-0.078 -0.19318,-6.95379 -0.0917,-7.20573 0.0887,-0.22004 0.23959,-0.17473 0.68278,0.20497 0.48247,0.41335 0.57115,0.43119 0.86769,0.17455 1.62828,-1.40914 4.24873,-0.80816 4.93304,1.13138 0.0338,0.0956 0.10285,0.26574 0.15359,0.37804 0.15186,0.33611 0.19396,1.01878 0.19396,3.14507 0,2.46982 0.10958,2.21143 -0.93771,2.21143 -1.06557,0 -0.95449,0.24284 -0.94999,-2.07688 0.004,-2.20563 -0.0433,-2.63136 -0.34536,-3.08703 -0.52924,-0.79848 -1.68702,-0.87243 -2.33503,-0.14915 -0.37759,0.42146 -0.3712,0.37486 -0.3988,2.90783 -0.0225,2.06966 -0.0307,2.24734 -0.10643,2.32314 -0.11417,0.11426 -1.52009,0.15001 -1.66608,0.0423 z m 9.22355,-0.0293 c -0.16742,-0.16742 -0.1394,-7.22448 0.0292,-7.35711 0.15654,-0.12313 2.68714,-0.14388 3.375,-0.0277 4.28328,0.72369 4.20863,6.75067 -0.092,7.42894 -0.60906,0.096 -3.20662,0.0615 -3.3122,-0.0441 z m 3.13083,-1.7026 c 2.09439,-0.39719 2.28736,-3.35424 0.25346,-3.884 -0.37337,-0.0973 -1.52955,-0.10609 -1.62323,-0.0125 -0.11332,0.11332 -0.0987,3.8001 0.0154,3.88352 0.0996,0.0729 0.99327,0.0814 1.35434,0.0129 z m 26.79396,-1.3833 c -0.1012,-0.0203 -0.87751,-0.0253 -1.7251,-0.0112 -1.61689,0.0268 -2.76251,-0.021 -3.3582,-0.14022 -0.18977,-0.038 -0.47163,-0.0893 -0.62638,-0.114 -0.34,-0.0544 -1.17675,-0.43871 -1.45964,-0.67051 -0.30536,-0.25022 -0.5384,-0.18548 -0.37692,0.10472 0.4689,0.84268 0.32922,0.95567 -0.59625,0.48232 -0.22514,-0.11516 -0.94194,-0.34565 -1.28807,-0.4142 -0.17711,-0.0351 -0.60149,-0.11575 -0.94306,-0.17926 -1.00406,-0.18673 -1.40484,-0.44636 -1.82322,-1.18113 -0.23702,-0.41627 -0.34161,-0.44359 -0.39788,-0.10389 -0.0728,0.43943 -0.25743,0.44875 -0.51427,0.026 -0.0895,-0.1474 -0.16281,-0.28712 -0.16281,-0.31048 0,-0.0234 -0.0616,-0.13968 -0.13699,-0.2585 -0.22954,-0.36196 -0.43985,-0.26386 -0.42701,0.19917 0.0167,0.59985 -0.86169,0.26413 -1.93421,-0.73933 -1.32104,-1.23597 -1.14342,-1.74716 0.68634,-1.97526 0.40194,-0.0501 0.92747,-0.11605 1.16784,-0.14656 0.76776,-0.0974 3.00473,-0.0684 4.00223,0.052 0.46809,0.0565 1.01667,0.1205 1.21908,0.14227 0.20241,0.0217 0.48188,0.0715 0.62104,0.1105 0.13915,0.039 0.38757,0.0927 0.55203,0.11934 0.16446,0.0267 0.45428,0.097 0.64404,0.15648 0.18976,0.0595 0.42782,0.12962 0.52903,0.15594 2.33973,0.60826 4.67539,2.00977 6.34252,3.80581 0.68613,0.7392 0.68803,1.02665 0.006,0.8901 z m -11.80743,-7.24177 c -0.0126,-0.0127 -0.24781,-0.0325 -0.52253,-0.0438 -0.27472,-0.0115 -0.8112,-0.0521 -1.19219,-0.0902 -0.38098,-0.0382 -0.97268,-0.091 -1.31488,-0.11735 -0.34219,-0.0264 -0.77692,-0.0766 -0.96606,-0.11175 -0.18912,-0.0351 -0.62334,-0.0897 -0.96492,-0.12135 -0.81046,-0.0751 -0.93057,-0.12166 -0.9114,-0.35342 0.0182,-0.21891 0.11933,-0.27189 0.62814,-0.32881 0.48591,-0.0544 0.58357,-0.12018 0.67517,-0.455 0.0397,-0.14533 0.13346,-0.39185 0.20821,-0.54782 0.0748,-0.15597 0.13594,-0.2953 0.13594,-0.30962 0,-0.38586 0.65468,-0.73561 0.76137,-0.40677 0.10294,0.3173 0.22131,0.30106 0.46331,-0.0635 0.45228,-0.68138 1.48711,-1.40161 2.83247,-1.97136 0.76593,-0.32437 1.02127,-0.18079 0.61827,0.34765 -0.43457,0.56984 0.0297,0.72503 0.68389,0.22861 0.32927,-0.24986 0.83072,-0.309 2.25414,-0.26585 0.75505,0.0229 1.83901,-0.36944 2.75692,-0.99788 0.54454,-0.3728 0.76673,-0.26464 0.46447,0.22611 -0.13096,0.21262 -0.14757,0.36914 -0.0434,0.40911 0.11936,0.0458 0.13188,0.0387 0.41557,-0.2381 0.29258,-0.28541 0.76203,-0.56958 1.08404,-0.65621 0.10931,-0.0294 0.25488,-0.0825 0.32351,-0.11794 0.41039,-0.21203 4.01632,-0.50536 4.55389,-0.37044 0.29014,0.0728 0.16579,0.37542 -0.22541,0.54852 -1.10309,0.48809 -1.27026,1.03652 -0.20768,0.68132 0.3,-0.10029 0.70955,-0.2035 0.9101,-0.22935 0.20056,-0.0259 0.43697,-0.0683 0.52536,-0.0944 0.20041,-0.0592 1.38504,-0.0605 1.6334,-0.002 0.1012,0.0239 0.34316,0.0656 0.53766,0.0927 0.45284,0.0631 1.64743,0.48266 1.86598,0.65546 0.16179,0.12793 0.0665,0.25864 -0.34502,0.47301 -0.22139,0.11534 -0.57848,0.31277 -0.79354,0.43873 -0.42707,0.25012 -2.43691,1.25189 -2.62216,1.30697 -0.0632,0.0188 -0.18746,0.0722 -0.27602,0.11864 -0.29297,0.15365 -1.56549,0.62167 -2.06094,0.758 -0.13411,0.0369 -0.30014,0.0962 -0.36895,0.13178 -0.0688,0.0356 -0.24322,0.0866 -0.38756,0.11322 -0.14434,0.0267 -0.32426,0.0805 -0.3998,0.11954 -0.0756,0.0391 -0.27791,0.10114 -0.44968,0.13793 -0.17177,0.0368 -0.43082,0.10913 -0.57567,0.16076 -0.14486,0.0516 -0.30931,0.0939 -0.36546,0.0939 -0.10573,0 -1.09528,0.18851 -1.5793,0.30085 -0.15181,0.0352 -0.47269,0.0866 -0.71305,0.11431 -0.24037,0.0276 -0.58194,0.0785 -0.75905,0.11301 -0.17711,0.0345 -0.50832,0.0752 -0.73604,0.0905 -0.22771,0.0153 -0.74524,0.0573 -1.15007,0.0935 -1.65634,0.14808 -1.93758,0.16265 -3.13202,0.16228 -0.68525,0 -1.25628,-0.0108 -1.26896,-0.0234 z m -59.91011,-0.72456 c -0.11494,-0.0996 -0.19968,-6.98472 -0.0895,-7.27183 0.0589,-0.15358 0.75727,-0.21741 0.95738,-0.0875 0.0568,0.0368 0.66387,0.67651 1.4085,1.48403 1.41793,1.53767 1.39526,1.52284 1.73988,1.13847 0.11838,-0.13203 0.40155,-0.42989 0.62927,-0.66191 0.22771,-0.23203 0.72453,-0.75832 1.10406,-1.16953 0.74787,-0.81033 0.8377,-0.87268 1.25739,-0.87268 0.5585,0 0.51371,-0.32657 0.51371,3.74636 0,4.29113 0.11324,3.7981 -0.87229,3.7981 -0.99709,0 -0.8939,0.23514 -0.92182,-2.10053 -0.0283,-2.36877 0.0628,-2.25431 -0.92095,-1.15698 -1.12616,1.2562 -1.11152,1.24606 -1.36733,0.94713 -0.0698,-0.0815 -0.22001,-0.24333 -0.33387,-0.35953 -0.30806,-0.31441 -0.92926,-1.00953 -1.07403,-1.20183 -0.39389,-0.52321 -0.41906,-0.41751 -0.40343,1.69406 0.0145,1.95762 0.008,2.02797 -0.20888,2.1266 -0.22893,0.10431 -1.28223,0.0653 -1.4181,-0.0524 z m 10.23487,0.0709 c -0.21546,-0.0792 -0.23002,-0.13271 -0.23002,-0.84521 0,-0.84817 0.0157,-0.87026 0.61845,-0.87026 0.59281,0 0.54164,0.19167 0.54061,-2.02476 -8.8e-4,-2.22047 0.0536,-2.02349 -0.56102,-2.02349 -0.57922,0 -0.57001,0.0122 -0.5983,-0.78969 -0.0365,-1.03289 -0.1962,-0.95841 2.05572,-0.95841 2.26284,0 2.10324,-0.0737 2.07704,0.96 -0.0199,0.78438 -0.0413,0.81221 -0.61429,0.79933 -0.62231,-0.014 -0.57555,-0.18343 -0.56039,2.0304 0.015,2.18429 -0.0334,2.00662 0.54611,2.00662 0.60821,0 0.63632,0.0364 0.63632,0.82379 0,0.64322 -0.0366,0.79228 -0.21425,0.87324 -0.11572,0.0527 -3.55606,0.0699 -3.69598,0.0184 z m 6.5045,-0.0749 c -0.14366,-0.12355 -0.24359,-6.88471 -0.10665,-7.21532 0.18328,-0.44244 3.63066,-0.29482 4.60925,0.19738 1.62817,0.8189 2.58124,3.03563 1.9296,4.48802 -0.0814,0.18136 -0.14837,0.35731 -0.1489,0.39102 -0.009,0.55126 -1.48408,1.80532 -2.48319,2.11068 -0.56876,0.17383 -3.6046,0.19638 -3.80011,0.0282 z m 3.53056,-1.78384 c 1.82687,-0.70452 1.71692,-3.21528 -0.16748,-3.82457 -0.17289,-0.0559 -1.54757,-0.0873 -1.62865,-0.0372 -0.0846,0.0523 -0.088,3.83528 -0.004,3.93709 0.12073,0.14547 1.36178,0.0935 1.79964,-0.0754 z m 5.20267,1.84369 c -0.1908,-0.0766 -0.19484,-0.15471 -0.19484,-3.76844 0,-3.36671 0.004,-3.49191 0.088,-3.59672 0.17093,-0.21095 3.31714,-0.15963 3.98362,0.065 3.68115,1.24053 3.48825,6.32422 -0.27456,7.23586 -0.49077,0.1189 -3.33975,0.16978 -3.60223,0.0644 z m 3.34652,-1.79215 c 1.80655,-0.60857 1.95349,-2.91398 0.23972,-3.76098 -0.36593,-0.18085 -1.74697,-0.26993 -1.89469,-0.12221 -0.0393,0.0393 -0.0819,3.30921 -0.0499,3.82689 0.0107,0.17382 1.23594,0.21428 1.70489,0.0563 z m 5.22007,1.72691 c -0.16599,-0.166 -0.18141,-7.17125 -0.0161,-7.32089 0.15292,-0.13845 4.56949,-0.16071 4.73836,-0.0239 0.12571,0.10186 0.14962,0.0103 -0.23577,0.9023 -0.35855,0.82984 -0.24226,0.77139 -1.51736,0.76259 -1.34657,-0.009 -1.28793,-0.0351 -1.28793,0.56543 0,0.6088 -0.0532,0.5811 1.11586,0.5811 1.20404,0 1.13827,-0.0518 1.13827,0.89612 0,0.87956 0.0667,0.82646 -1.05148,0.8373 -0.4717,0.004 -0.90273,0.01 -0.95785,0.0115 -0.19545,0.006 -0.2448,0.11703 -0.2448,0.54972 0,0.62545 -0.12845,0.57644 1.58177,0.60355 1.77449,0.0282 1.60976,-0.0557 1.6304,0.82962 0.0232,0.99751 0.24013,0.91848 -2.52068,0.91848 -2.25976,0 -2.25976,0 -2.37268,-0.11292 z m 7.13015,-4.5e-4 c -0.1132,-0.1132 -0.1132,-0.1132 -0.10141,-3.69172 0.0137,-4.16572 -0.0449,-3.89561 0.7087,-3.26706 0.5677,0.47352 0.56143,0.47274 0.98218,0.12231 1.86961,-1.55713 4.69989,-0.44849 5.11704,2.00437 0.0689,0.40541 0.0992,4.56103 0.0343,4.71761 -0.0805,0.19434 -0.21925,0.22769 -0.94729,0.22769 -1.01108,0 -0.93287,0.19718 -0.93044,-2.34615 0.003,-2.43819 -0.0239,-2.59679 -0.50342,-3.04534 -0.64819,-0.6063 -1.45166,-0.59236 -2.10883,0.0366 -0.45475,0.43522 -0.45282,0.4229 -0.46382,2.9562 -0.008,1.88983 -0.019,2.1932 -0.0816,2.28864 -0.114,0.17399 -1.53091,0.17136 -1.70544,-0.004 z m 11.62727,-3.71406 c -0.14774,-0.14773 -0.0352,-0.24837 0.77732,-0.69475 0.4236,-0.23273 0.43974,-0.25791 0.36928,-0.57634 -0.10776,-0.48697 -0.11141,-0.61627 -0.0299,-1.05981 0.25199,-1.37099 1.25593,-2.83575 2.66758,-3.89205 0.76172,-0.56998 0.89531,-0.49796 0.84208,0.45393 -0.035,0.62571 0.10595,0.76381 0.29841,0.2924 0.70846,-1.73522 2.48788,-3.55313 4.58858,-4.68782 0.24037,-0.12983 0.49198,-0.27452 0.55914,-0.32152 0.31338,-0.21934 0.48791,-0.0732 0.40583,0.33974 -0.0665,0.33438 -0.0256,0.59593 0.17227,1.10254 0.16667,0.42673 0.3345,0.3946 0.33512,-0.0641 0,-0.1092 0.022,-0.32275 0.0487,-0.47456 0.0267,-0.1518 0.0752,-0.48401 0.10815,-0.73824 0.0641,-0.49579 0.0968,-0.58735 0.26423,-0.74012 0.13088,-0.11942 2.00857,-1.36954 2.32189,-1.54586 0.12319,-0.0694 0.36888,-0.21138 0.54599,-0.31567 0.33863,-0.19938 0.91731,-0.5112 1.6101,-0.86757 0.42975,-0.22106 1.57014,-0.71052 1.77111,-0.76017 0.0632,-0.0156 0.20816,-0.0666 0.32202,-0.11313 1.86418,-0.76287 4.29489,-0.95105 5.78547,-0.4479 0.7229,0.24402 0.91079,0.43354 0.71646,0.72264 -1.16831,1.73806 -3.03702,3.47886 -6.24995,5.82218 -0.61754,0.45039 -3.04108,2.03226 -3.78811,2.47253 -0.13581,0.0801 -0.35317,0.20951 -0.48302,0.28772 -0.56956,0.34298 -1.1895,0.70322 -1.8692,1.08616 -0.32966,0.18572 -1.79959,0.95424 -2.66816,1.39498 -0.49392,0.25064 -1.74091,0.84988 -1.76853,0.84988 -0.0142,0 -0.24372,0.10383 -0.51011,0.23073 -0.26639,0.1269 -0.56134,0.25928 -0.65545,0.29419 -0.0941,0.0349 -0.45057,0.18067 -0.79214,0.3239 -0.65013,0.27261 -0.94963,0.38649 -1.39427,0.53014 -0.14696,0.0474 -0.29186,0.1066 -0.32202,0.13138 -0.0302,0.0248 -0.17902,0.0797 -0.33083,0.12202 -0.15181,0.0424 -0.37952,0.11574 -0.50603,0.16313 -0.31268,0.11715 -1.10222,0.3407 -1.6331,0.4624 -0.24036,0.0551 -0.56859,0.13889 -0.72939,0.18622 -0.33278,0.0979 -0.69795,0.11238 -0.7795,0.0309 z m -1.65507,-5.44473 c -0.16216,-0.11359 -0.12362,-0.32123 0.10626,-0.57243 0.0579,-0.0632 0.26162,-0.35307 0.45274,-0.64403 0.19111,-0.29097 0.42069,-0.62998 0.51016,-0.75337 0.1917,-0.26433 0.20603,-0.42765 0.0658,-0.74941 -0.40417,-0.92719 -0.58292,-2.21186 -0.44987,-3.23312 0.21117,-1.62068 0.62084,-2.21049 0.82496,-1.18768 0.12868,0.64483 0.19944,0.52349 0.23435,-0.40181 0.0162,-0.43012 0.0608,-0.92695 0.099,-1.10406 0.0382,-0.17711 0.0837,-0.43588 0.10089,-0.57504 0.0271,-0.21844 0.21343,-0.96394 0.41397,-1.65609 0.0605,-0.20871 0.21736,-0.61705 0.47261,-1.2301 0.18966,-0.45551 0.80083,-1.57137 1.08701,-1.98466 0.12934,-0.18676 0.26559,-0.38342 0.30278,-0.43702 0.77299,-1.11393 1.93395,-2.26743 2.16023,-2.14633 0.10226,0.0547 0.10868,0.0766 0.18361,0.6228 0.10354,0.75497 0.53534,1.64498 0.75682,1.55999 0.11711,-0.045 0.12998,-0.18132 0.0438,-0.46444 -0.1386,-0.45544 -0.12177,-2.73711 0.0246,-3.32668 0.22101,-0.89058 0.51473,-1.78773 0.70635,-2.15749 0.1085,-0.20936 0.24181,-0.46656 0.29627,-0.57156 0.19168,-0.3696 0.52066,-0.55467 0.4038,-0.22716 -0.0339,0.0952 -0.0626,0.2386 -0.0638,0.31873 -8.7e-4,0.0802 -0.045,0.24575 -0.0974,0.36802 -0.20781,0.48417 -0.33309,3.09354 -0.18847,3.92555 0.033,0.18976 0.0659,0.41748 0.0732,0.50603 0.0224,0.27178 0.0253,0.28227 0.07,0.25468 0.0238,-0.0147 0.0413,-0.13497 0.0388,-0.26723 -0.005,-0.29427 0.13836,-2.09688 0.17171,-2.15085 0.0133,-0.0213 0.0445,-0.25233 0.0695,-0.5133 0.098,-1.0214 0.4337,-2.29328 0.83557,-3.16565 0.88911,-1.93009 2.11231,-3.20559 1.67644,-1.7481 -0.10522,0.35184 -0.14694,0.87794 -0.0796,1.00378 0.11454,0.21401 0.41845,0.0367 0.41845,-0.24426 0,-0.10177 0.40114,-1.16418 0.50354,-1.33358 0.0462,-0.0765 0.0994,-0.19074 0.11818,-0.25399 0.1675,-0.56376 1.35806,-2.54893 1.97264,-3.2892 0.10502,-0.12651 0.25214,-0.31282 0.32692,-0.41403 0.69111,-0.93533 3.11617,-2.94009 3.45396,-2.85531 0.3057,0.0767 0.68589,2.02268 0.59544,3.04769 -0.0196,0.22312 -0.043,0.51796 -0.0516,0.65521 -0.009,0.13725 -0.0381,0.40637 -0.0652,0.59803 -0.0271,0.19167 -0.068,0.55551 -0.0909,0.80852 -0.0229,0.25301 -0.0741,0.5517 -0.11389,0.66375 -0.0397,0.11206 -0.0942,0.35011 -0.12098,0.52903 -0.0267,0.17892 -0.0988,0.48682 -0.16015,0.68421 -0.0613,0.19739 -0.1112,0.39405 -0.11088,0.43702 8.8e-4,0.14776 -0.56064,1.99271 -0.83619,2.7463 -0.10176,0.27831 -0.22443,0.61988 -0.27261,0.75904 -0.0481,0.13916 -0.12667,0.32547 -0.17444,0.41402 -0.0478,0.0886 -0.10191,0.21277 -0.12028,0.27602 -0.0184,0.0632 -0.0904,0.24956 -0.16006,0.41403 -0.0696,0.16446 -0.20536,0.48532 -0.30159,0.71304 -0.16126,0.38162 -1.54825,3.1614 -1.62969,3.26619 -0.0196,0.0254 -0.10154,0.16561 -0.18193,0.31179 -0.0804,0.14619 -0.20219,0.35824 -0.27061,0.47123 -0.0684,0.113 -0.28952,0.47988 -0.4913,0.81528 -2.16477,3.59831 -5.72316,7.7654 -8.83368,10.34481 -0.22771,0.18884 -0.60115,0.49869 -0.82986,0.68857 -2.02658,1.68247 -3.5762,2.66404 -3.87518,2.45462 z m -39.82561,-1.63457 c -3.97346,-0.59597 -4.74987,-6.09231 -1.05806,-7.49021 0.15181,-0.0575 0.35703,-0.13476 0.45604,-0.17171 0.24243,-0.0905 1.28491,-0.13229 1.77559,-0.0712 2.08478,0.25949 3.84994,2.83336 3.20822,4.67804 -0.044,0.1265 -0.10731,0.33544 -0.14066,0.46428 -0.19417,0.75009 -1.12166,1.76671 -2.04963,2.24658 -0.48848,0.25261 -1.61873,0.43014 -2.1915,0.34424 z m 1.20709,-1.90288 c 1.47494,-0.45551 1.84729,-2.69281 0.60635,-3.64336 -1.47522,-1.13 -3.48589,-0.0791 -3.38918,1.77134 0.0745,1.42574 1.38134,2.30485 2.78283,1.87202 z m 8.35297,1.90666 c -4.20433,-0.61554 -4.64337,-6.32078 -0.58953,-7.66081 1.17486,-0.38835 3.38641,0.18735 3.89411,1.01371 0.12854,0.20923 0.12139,0.22218 -0.41695,0.75513 -0.6401,0.63371 -0.66293,0.64085 -1.05713,0.33065 -1.60227,-1.26085 -3.8522,0.30945 -3.2889,2.29542 0.42797,1.50886 2.33832,1.96744 3.52212,0.84549 0.386,-0.36582 0.42515,-0.35662 1.02215,0.24039 0.70828,0.70827 0.67717,0.82502 -0.4177,1.56802 -0.67729,0.45963 -1.85844,0.73054 -2.66817,0.612 z m -20.79323,-0.13802 c -0.20326,-0.0819 -0.20242,-0.0662 -0.20083,-3.77475 0.002,-3.69642 0.002,-3.69838 0.20325,-3.74897 0.33525,-0.0842 3.45877,0.009 3.84731,0.11432 2.21706,0.60285 2.90627,3.29131 1.24189,4.84439 -0.47163,0.44008 -0.49417,0.50801 -0.24133,0.72729 0.0949,0.0823 0.49856,0.46581 0.89706,0.85227 1.02999,0.99889 1.01977,1.03191 -0.319,1.03151 -1.19647,-3.6e-4 -1.08854,0.0469 -2.00974,-0.88075 -0.86777,-0.87389 -0.85699,-0.8671 -1.37386,-0.8671 -0.53672,0 -0.54153,0.007 -0.50944,0.70594 0.0322,0.70112 -0.0171,0.92003 -0.22322,0.99189 -0.17034,0.0594 -1.16706,0.0623 -1.31209,0.004 z m 3.55107,-3.56806 c 0.90672,-0.46654 0.9154,-1.61456 0.0157,-2.07049 -0.41007,-0.2078 -1.71548,-0.2905 -1.92373,-0.12187 -0.11985,0.097 -0.16054,2.10522 -0.0455,2.24388 0.11149,0.13434 1.67234,0.0932 1.95353,-0.0515 z"
         id="path1764" /><g
         id="g2591"
         transform="matrix(0.18340574,0,0,0.18340574,303.25962,172.45828)"><path
           id="path2116"
           style="fill:#2768d1;stroke-width:0.264583"
           d="m 1317.5873,60.778202 c -6.7695,-9.86e-4 -13.7443,1.507861 -18.9756,6.002218 -10.8431,9.315537 -10.945,27.877327 -0.3907,37.48867 4.1327,3.76341 9.532,5.30562 14.8844,6.23528 0.832,0.14451 1.6658,0.31192 2.5099,0.31936 7.663,0.0675 15.9389,-1.91147 21.2824,-7.74888 7.5433,-8.240467 8.4963,-21.681197 2.7409,-31.207919 -4.5371,-7.510259 -13.5006,-11.087483 -22.0513,-11.088729 z m 111.2728,0.02532 c -0.4023,-0.0035 -0.7839,0.0052 -1.1405,0.0279 -9.2095,-0.265788 -18.8139,4.250636 -23.4818,12.377022 -3.2675,4.793131 -3.4005,10.742794 -3.1337,16.310633 1.0364,7.463509 5.6826,14.342573 12.4024,17.844383 8.911,4.6437 23.9482,4.00759 33.6103,-1.00459 V 83.39801 h -19.05 v 4.149618 c -0.7728,2.890476 1.3473,3.474978 3.9791,2.806547 5.5044,-1.418726 5.1745,4.594679 4.9077,8.210868 -1.2313,4.287157 -7.4085,3.151017 -10.9259,3.169317 -5.6485,0.23552 -10.1897,-4.223611 -12.144,-9.177736 -1.3171,-4.564419 -1.4947,-9.812151 0.2749,-14.308687 2.3401,-5.988274 8.9893,-8.380396 15.2384,-8.479586 4.3249,-0.06865 11.5471,2.316655 11.5471,2.316655 l 4.6085,-8.408789 c 0,0 -10.6582,-2.819599 -16.6925,-2.872693 z m -309.0359,0.03979 c -14.8574,-0.120885 -26.3349,7.401189 -26.7741,24.388692 -0.4389,16.979376 13.0097,27.909246 30.5041,25.045506 4.4427,-0.72726 7.3735,-1.27492 10.8179,-4.03438 -0.2883,-1.62915 -2.6736,-5.81456 -3.9558,-7.532362 l -0.3917,-0.149862 c -2.3868,1.661284 -4.2552,2.341214 -6.7335,2.603464 -6.5764,0.69591 -18.4011,-1.05474 -18.5218,-17.502813 -0.072,-9.78503 13.8101,-18.544869 24.1721,-11.508858 h 0.2057 0.2057 c 1.5783,-2.573307 3.0312,-5.214089 4.5806,-7.805209 -3.424,-2.646256 -10.1779,-3.472188 -14.1092,-3.504178 z m 245.6408,0.246496 c -3.2662,-0.0065 -6.5172,0.07126 -9.5447,0.0801 l -0.9172,1.059883 c 0,0 -0.3043,31.874217 -0.1158,47.382639 v 0 l 0.1101,0.11007 h 11.005 l 0.1111,-13.728361 c -2e-4,-5.92551 2.805,-5.42706 4.7863,-4.480347 4.2109,4.669777 12.0282,18.160138 12.0282,18.160138 l 11.8783,0.0811 -13.2571,-21.167188 c 6.8971,-2.813481 9.7858,-5.44602 9.9974,-13.750582 0.1189,-4.668531 -2.4802,-8.885597 -6.5252,-10.85205 -5.111,-2.459181 -12.3698,-2.881122 -19.5554,-2.895431 z m -83.9778,0.465088 -17.198,0.07286 -17.1979,0.07286 -0.076,3.704166 -0.076,3.704167 0.1468,0.595312 0.1477,0.595313 h 9.9958 9.9963 l 0.3178,0.31781 0.3173,0.317293 v 0.572575 l -20.8923,29.616278 -0.7865,1.05834 -0.022,3.57187 -0.022,3.57188 0.014,0.19843 v 0 l 0.014,0.19844 h 18.373 18.373 l 0.082,-0.19844 0.082,-0.19843 -0.1323,-4.0442 -0.1323,-4.04368 -11.1125,-0.0574 -11.1125,-0.0568 20.1305,-29.990415 1.0806,-1.499133 0.3385,-0.63252 0.339,-0.63252 0.036,-3.279386 0.036,-3.279903 -0.5292,-0.127641 z m -337.64714,5.17e-4 -4.74286,0.07235 -4.74286,0.07235 -0.14625,15.08125 -0.14572,15.08125 c 0,6.353869 -3.1329,9.817757 -10.61848,9.850557 -6.20474,0.17683 -10.88254,-2.812952 -10.88254,-8.146785 l -0.23823,-1.968355 -0.0501,-0.661459 -0.0506,-0.661458 -0.12558,-14.353646 -0.12557,-14.353646 h -5.35833 -5.35833 l -0.25115,0.251148 -0.25115,0.251147 0.15607,15.425415 0.15606,15.425415 c 0,11.280934 6.59373,17.739484 22.04465,17.739484 15.19492,0 21.15426,-6.22199 21.15426,-18.295522 l 0.0191,-15.174268 0.0191,-15.173751 -0.23099,-0.230993 z m 211.83824,0.0021 -5.4901,0.07183 -5.4901,0.07131 -0.1323,23.900866 -0.1323,23.900871 0.1101,0.11007 0.11,0.11007 h 5.5124 5.5118 v -9.789586 -9.789583 l 0.5384,-0.537952 0.538,-0.537951 10.3332,0.07493 10.3338,0.07493 0.5147,0.63562 0.5141,0.635621 -0.028,9.550831 -0.028,9.55084 h 5.5092 5.5093 l 0.068,-23.795959 0.068,-23.795963 -0.3323,-0.21084 -0.3323,-0.21084 -5.0772,-0.0041 -5.0777,-0.0041 -0.1618,0.261999 -0.1617,0.261483 0.02,8.542114 0.02,8.542631 -0.3819,0.522449 -0.3819,0.522449 -10.5776,0.07493 -10.5772,0.07493 -0.4242,-0.424781 -0.4243,-0.424263 V 70.53988 Z m -102.7534,0.0067 -0.2181,0.218074 -0.2186,0.218075 v 23.728784 23.728784 0.13229 0.13229 h 15.5949 15.5949 l 0.082,-0.19844 0.082,-0.19843 -0.1323,-4.04834 -0.1323,-4.04833 -9.585,0.0196 -9.5849,0.0196 -0.5354,-0.53537 -0.5354,-0.53537 v -5.129916 -5.130436 l 0.4631,-0.559139 0.463,-0.559656 8.4667,-0.06511 8.4666,-0.06511 V 84.98396 81.279793 l -8.6749,-0.132291 -8.6749,-0.132292 -0.2507,-0.396875 -0.2506,-0.396875 v -4.505151 -4.505152 l 0.4119,-0.588078 0.4118,-0.588077 9.3116,-0.0041 9.3116,-0.0041 0.338,-0.214457 0.3384,-0.214457 -0.073,-3.948596 -0.074,-3.948596 -15.1981,-0.06821 z m -100.19546,10e-4 0.0724,4.37286 0.0729,4.37286 6.93601,0.06046 6.93602,0.06046 0.47232,0.472839 0.47232,0.472323 0.0636,19.106844 0.0636,19.106331 0.003,0.0662 h -5.2e-4 l 0.003,0.0661 h 5.42396 5.42396 l 0.004,-19.116148 0.004,-19.116146 0.19482,-0.290938 0.1943,-0.290939 0.59273,-0.312125 0.59273,-0.312126 6.52467,0.02532 6.52466,0.02481 0.22428,-0.347782 0.22479,-0.348299 -0.0661,-3.96875 -0.0656,-3.96875 -20.44578,-0.0677 z m 245.28476,0.0031 v 4.431771 4.431771 h 7.0022 7.0016 l 0.4728,0.472322 0.4724,0.47284 0.063,19.106327 0.063,19.106846 v 0.0713 l 0.01,5.2e-4 v 0.0713 l 5.5635,-0.0713 5.5634,-0.0718 -0.011,-18.862417 -0.011,-18.862414 0.3075,-0.584461 0.3075,-0.58446 0.2914,-0.198438 0.291,-0.198954 6.5753,0.01757 6.5758,0.01705 0.093,-0.0925 0.093,-0.09302 0.038,-4.009058 0.038,-4.009057 -0.1736,-0.28112 -0.1731,-0.280603 h -20.2252 z m -195.2873,0.132292 0.01,23.944791 0.01,23.944794 v 0.0662 0 0.0661 h 5.424 5.4239 v -9.24129 -9.241303 l 0.4155,-0.415995 0.416,-0.415996 h 1.0258 1.0263 c 1.8769,0.890665 3.3582,2.273457 4.5413,4.101042 3.1477,4.862422 6.32,9.728262 9.4728,14.568622 l 0.5612,0.64492 h 5.9547 5.9546 v -0.20567 -0.20567 l -0.5033,-0.4315 -0.5038,-0.43098 c -5.046,-6.99664 -9.867,-13.900254 -13.2804,-19.115633 v -0.783932 l 1.4387,-0.658358 c 9.4581,-1.92865 14.3877,-24.426308 -4.4808,-26.12657 l -11.451,-0.03152 z m 314.417,7.680151 c 1.315,0.0089 2.625,0.156817 3.8819,0.420646 7.0354,1.476694 10.3182,9.197831 10.4087,15.874483 0.09,6.638353 -3.3101,13.941038 -10.079,15.735475 -1.4018,0.37163 -2.8546,0.32583 -4.2886,0.44545 -5.895,0.49177 -11.6921,-3.301022 -13.4679,-8.842871 -2.0257,-6.321458 -1.7831,-14.062308 2.8866,-19.351274 2.7247,-3.086044 6.7133,-4.308661 10.6583,-4.281909 z m 53.8014,0.257865 c 2.4773,0.02297 5.2923,0.25116 6.6435,1.070736 4.8577,2.65088 4.1729,11.17835 -1.3979,12.095903 -2.4784,0.876987 -6.875,1.280786 -9.9394,0.559139 l 0.077,-13.566614 c 0,0 2.1394,-0.182137 4.6168,-0.159164 z m -356.5168,0.131775 h 4.4612 4.4613 c 7.5989,1.128815 6.9189,13.514421 -0.9328,13.514421 l -3.4184,0.05581 -3.4184,0.05581 -0.5932,-0.08423 -0.5928,-0.08423 -0.3994,-0.569991 -0.399,-0.569991 v -5.742802 -5.743319 l 0.4155,-0.415478 z" /><path
           style="fill:#8ab2e8;fill-opacity:1;stroke-width:0.264583"
           d="m 1523.0053,158.88166 97.8447,-97.844643 -97.7711,0.71232 z"
           id="path2287"
           sodipodi:nodetypes="cccc" /><path
           d="m 1498.7612,109.72465 -24.0263,-0.13439 48.2586,-48.352597 48.2587,-48.35262 0.1093,2.7e-4 0.1093,2.6e-4 0.099,48.55068 0.099,48.550657 -24.4403,-0.064 -24.4403,-0.0641 -24.0262,-0.13439 z"
           style="fill:#2768d1;stroke-width:0.264583"
           id="path2148" /><path
           style="fill:#2e3192;fill-opacity:1;stroke-width:0.264583"
           d="m 1620.8672,61.356189 h -96.4396"
           id="path2231" /></g><g
         id="g9394"
         transform="matrix(0.75112538,0,0,0.75112538,303.24767,-64.98446)"><path
           id="path3407"
           style="color:#000000;fill:#e13201;fill-opacity:1;stroke-width:0.785181;stroke-linejoin:round;-inkscape-stroke:none"
           d="m 421.88071,319.66214 c -0.27302,8.5e-4 -0.46185,0.27319 -0.3669,0.52917 l 12.02148,32.05851 c 0.0573,0.15411 0.20455,0.2562 0.36897,0.2558 h 7.15616 c 0.16385,-2.5e-4 0.31032,-0.10222 0.36742,-0.2558 l 12.02148,-32.05851 c 0.095,-0.25618 -0.0942,-0.52867 -0.36741,-0.52917 h -5.58209 c -0.16314,1.4e-4 -0.3092,0.10114 -0.36691,0.25373 l -9.65264,25.91987 -9.65005,-25.91987 c -0.0578,-0.15276 -0.20409,-0.25381 -0.36742,-0.25373 z m 73.60946,0 c -0.27302,8.5e-4 -0.46185,0.27319 -0.3669,0.52917 l 12.02149,32.05851 c 0.057,0.1534 0.20324,0.25533 0.3669,0.2558 h 7.15615 c 0.16385,-2.5e-4 0.31032,-0.10222 0.36742,-0.2558 l 12.02355,-32.05851 c 0.0953,-0.25701 -0.0954,-0.53012 -0.36948,-0.52917 h -5.58002 c -0.16389,-7.2e-4 -0.31099,0.10043 -0.36897,0.25373 l -9.65058,25.91987 -9.65005,-25.91987 c -0.0578,-0.15276 -0.20409,-0.25381 -0.36742,-0.25373 z"
           sodipodi:nodetypes="cccccccccccccccccccccccccccc" /><path
           d="m 547.90301,318.88855 c -2.28857,0 -4.33632,0.4913 -6.11694,1.48053 -6.9e-4,0 -10e-4,0 -0.002,0 -1.45977,0.82009 -2.71683,2.06765 -3.85144,3.56464 v -3.87884 c 6e-5,-0.21693 -0.17581,-0.3928 -0.39274,-0.39274 h -5.29477 c -0.21693,-6e-5 -0.3928,0.17581 -0.39274,0.39274 v 32.05851 c 2.2e-4,0.21673 0.17601,0.39229 0.39274,0.39223 h 5.29477 c 0.21673,6e-5 0.39252,-0.1755 0.39274,-0.39223 v -18.11931 c 0,-3.06096 0.79541,-5.42095 2.36109,-7.15046 1.56543,-1.72925 3.67594,-2.58951 6.43579,-2.58951 2.28287,0 3.91106,0.70345 5.01571,2.11098 1.10415,1.40691 1.6893,3.58752 1.6893,6.57066 v 19.17764 c 2.2e-4,0.21673 0.17601,0.39229 0.39274,0.39223 h 5.26738 c 0.21673,6e-5 0.39252,-0.1755 0.39274,-0.39223 v -19.34972 c 0,-4.48224 -0.95511,-7.9298 -2.92385,-10.29705 -1.9689,-2.38655 -4.89612,-3.57807 -8.66045,-3.57807 z"
           style="color:#000000;fill:#5d3297;fill-opacity:1;stroke-width:0.785181;stroke-linejoin:round;-inkscape-stroke:none"
           id="path3422" /><path
           id="path7101"
           style="color:#000000;fill:#5d3297;fill-opacity:1;stroke:none;stroke-width:0.5;stroke-linecap:round;stroke-linejoin:round;stroke-dasharray:none"
           d="m 464.24763,314.05887 c -0.24031,-0.001 -0.48479,0.004 -0.7338,0.015 -5.90138,0.39658 -8.56109,8.52756 -4.59662,12.96304 1.39992,1.94336 5.00232,3.37854 2.70217,4.49852 -4.47924,3.18142 -5.53008,8.19505 -5.58107,11.64054 0,10.51474 7.12745,16.81348 17.55707,16.9385 4.56198,0 9.76597,-0.96116 13.29738,-3.74757 6.68042,-5.27107 7.83687,-15.94971 3.05821,-22.89628 -1.43606,-2.03276 -3.11092,-2.91972 -3.11092,-2.91972 -0.88349,-0.44489 -1.96068,-0.0903 -2.40657,0.79272 -0.44621,0.88397 -0.0908,1.9622 0.79323,2.40812 0,0 0.68836,0.84023 1.70584,2.28048 2.27568,5.35118 1.41359,12.54783 -3.17293,16.18868 -2.7532,2.18553 -6.09768,3.33571 -10.07897,3.33571 -7.84998,-0.60424 -12.96246,-6.08459 -13.04365,-12.6106 0.25451,-3.87995 0.65181,-6.0713 4.76715,-9.73687 2.69942,-1.6011 1.00041,-3.8139 0.13281,-4.87981 -1.02985,-1.23832 -2.15756,-2.6667 -2.83394,-3.283 -3.19208,-2.90852 -0.21912,-6.72008 2.51199,-6.55051 2.29628,0.14258 4.78674,1.77709 6.13555,3.16105 1.1387,1.17476 1.09066,0.66979 1.10536,-0.27388 0.0176,-0.64345 0.0202,-1.41265 -0.0274,-2.10943 -0.23101,-2.58256 -3.29455,-5.18693 -8.1809,-5.21467 z"
           sodipodi:nodetypes="scccccscccccsccccsscccss" /><path
           style="fill:#5d3297;fill-opacity:1;stroke:none;stroke-width:0.499999;stroke-linecap:round;stroke-linejoin:round;stroke-dasharray:none"
           d="m 477.4484,322.46424 9.83207,-2.79688"
           id="path7723" /><path
           style="fill:#e13201;fill-opacity:1;stroke:none;stroke-width:0.499999;stroke-linecap:round;stroke-linejoin:round;stroke-dasharray:none"
           d="m 478.08147,321.65711 c 1.34881,-1.38396 3.8393,-3.01867 6.13558,-3.16125 2.73112,-0.16958 5.60763,3.54409 2.41554,6.45261 -3.19207,2.90851 -13.76482,12.91423 -14.62479,13.86289 -0.86,0.94869 -0.33118,1.62822 0.15237,2.0977 0.48355,0.46945 1.20415,1.29556 1.7345,1.69619 0.53039,0.40063 1.21267,0.60772 1.97943,-0.23069 0.76679,-0.83839 13.27485,-13.68664 14.64111,-15.33793 3.79235,-4.58351 1.30459,-12.56633 -4.59679,-12.96291 -5.31225,-0.24338 -8.67221,2.49008 -8.91458,5.19965 -0.0476,0.69679 -0.0453,1.46604 -0.0277,2.10949 0.0147,0.94367 -0.0334,1.44901 1.1053,0.27425 z"
           id="path7779"
           sodipodi:nodetypes="csssssssccccc" /></g><g
         id="g11198"
         transform="matrix(0.44044431,0,0,0.44044431,370.81621,89.264513)"><g
           id="g11263"><path
             style="fill:#c0c60e;stroke-width:0.264583"
             d="m 1029.3533,237.81654 -0.7035,-0.40046 -0.5231,-0.86412 -0.5232,-0.86412 -0.1963,-0.66146 -0.1962,-0.66145 -1.3467,-1.21541 -1.3467,-1.2154 0.4545,-0.69352 0.4544,-0.69351 v -1.46452 -1.46452 h -0.215 -0.2149 l -2.3648,0.80755 -2.3647,0.80755 -2.9104,0.75084 -2.9104,0.75085 -2.7792,0.18242 -2.7792,0.18242 -4.4968,-0.4469 -4.49693,-0.4469 -2.24896,0.16053 -2.24896,0.16053 -2.11667,0.13289 -2.11666,0.13291 0.97691,-0.33058 0.97691,-0.33057 1.63988,-1.45521 1.63989,-1.4552 0.69049,-0.37848 0.6905,-0.37848 0.92604,0.0583 0.92604,0.0583 2.24892,-0.39874 2.249,-0.39874 2.5135,-0.8255 2.5136,-0.8255 3.7042,-0.75609 3.7041,-0.75608 4.3656,-2.23778 4.3657,-2.23778 1.0957,-0.32361 1.0957,-0.3236 0.6944,-0.56206 0.6944,-0.56205 0.6566,-1.82292 0.6566,-1.82291 0.9143,-1.88125 0.9143,-1.88125 1.1223,-1.7198 1.1222,-1.71979 1.999,-1.98499 1.9991,-1.98499 4.6714,-3.11666 4.6714,-3.11666 0.3891,-0.58689 0.389,-0.58689 1.6374,-1.64647 1.6374,-1.64647 1.1575,-0.78118 1.1575,-0.78118 0.7903,-0.58429 0.7903,-0.5843 0.8628,-1.22139 0.8629,-1.22139 1.4487,-1.98437 1.4487,-1.98438 2.4042,-2.40692 2.4043,-2.40693 0.926,-0.49719 0.9261,-0.49719 2.1166,-0.006 2.1167,-0.006 1.2637,0.62228 1.2637,0.62229 2.1759,1.74876 2.1759,1.74875 3.4099,2.98993 3.41,2.98992 1.5592,1.01877 1.5591,1.01876 4.2913,1.8038 4.2913,1.80379 1.2263,0.75011 1.2263,0.75011 0.3321,0.80173 0.3321,0.80172 -0.3122,0.68514 -0.3122,0.68514 -1.3404,-0.15875 -1.3403,-0.15875 -0.359,-0.29792 -0.359,-0.29793 -1.6177,-0.14669 -1.6178,-0.14669 -1.8146,0.34238 -1.8145,0.34238 -0.7832,-0.32441 -0.7832,-0.32441 -0.8215,-1.02219 -0.8214,-1.0222 v -0.1605 -0.16049 l -0.7276,-0.64047 -0.7276,-0.64047 -1.1644,-0.55757 -1.1644,-0.55757 -2.5782,-0.49129 -2.5783,-0.49128 -1.6813,-0.84595 -1.6813,-0.84595 -1.1871,-0.82547 -1.1871,-0.82548 -0.3532,-0.33073 -0.3532,-0.33073 -0.4441,0.01 -0.4441,0.01 -0.7929,1.11444 -0.7929,1.11444 -0.5937,1.19062 -0.5938,1.19063 v 0.24051 0.24052 l -2.6314,5.33626 -2.6313,5.33627 -1.1066,1.10651 -1.1065,1.10651 -1.6577,0.79119 -1.6578,0.79118 -0.6237,0.003 -0.6236,0.003 -1.3539,0.6304 -1.3538,0.6304 -0.6552,0.88837 -0.6552,0.88836 -1.2657,2.38125 -1.2657,2.38125 -1.7523,2.64335 -1.7524,2.64334 -1.5493,1.52863 -1.5493,1.52864 -1.8346,1.08992 -1.8346,1.08992 -0.3864,0.5517 -0.3864,0.5517 1.0262,0.93328 1.0263,0.93327 0.5613,1.37197 0.5612,1.37196 v 1.35056 1.35055 l -0.5633,1.10428 -0.5634,1.10427 -0.8257,1.11763 -0.8257,1.11763 -1.2911,0.71315 -1.291,0.71314 -2.2808,0.10493 -2.2809,0.10493 -0.7034,-0.40046 z m -41.91945,-10.82944 -0.16659,-0.43412 0.34106,-0.41095 0.34106,-0.41095 0.73373,-0.37943 0.73374,-0.37943 0.74074,0.004 0.74074,0.004 0.56942,0.15276 0.56941,0.15277 -1.0346,0.9347 -1.0346,0.9347 -1.18376,0.13343 -1.18376,0.13342 -0.16659,-0.43412 z"
             id="path11202" /><path
             id="path11200"
             style="fill:#5b356b;stroke-width:0.264583"
             d="m 891.35361,174.39814 -0.89555,0.0853 -0.89504,0.0858 -0.0868,0.75964 -0.0868,0.75965 0.14211,0.56585 0.14211,0.56638 1.73995,1.14411 1.74046,1.14412 2.46445,1.15187 2.46496,1.15186 1.51102,1.3808 1.51102,1.38131 1.1312,1.4795 1.1312,1.47949 1.53995,2.64584 1.54048,2.64583 1.00924,1.85208 1.00924,1.85209 0.007,0.42736 0.007,0.42736 0.92449,1.84847 0.9245,1.84795 2.06654,1.9575 2.06602,1.95802 1.5074,1.32292 1.50689,1.32292 2.41484,2.73781 2.41484,2.73834 2.66081,1.98076 2.66134,1.98024 3.45664,1.66139 3.45715,1.66192 2.91042,1.06763 2.91041,1.06764 1.85209,0.48989 1.85208,0.48938 3.70417,-0.0176 3.70416,-0.0181 1.7198,-0.56689 1.71979,-0.56689 1.11466,-0.40308 1.11518,-0.40256 0.47232,0.17209 0.47284,0.17208 1.05833,0.71468 1.05833,0.7152 2.38125,1.18443 2.38125,1.18442 3.04271,1.21905 3.04271,1.21956 3.04271,0.53072 3.04271,0.53072 3.30729,0.28939 3.30729,0.28938 1.98438,0.37517 1.98437,0.37466 1.19063,0.0935 1.19062,0.0935 0.52917,0.0258 0.52916,0.0258 0.97669,-0.31057 0.9772,-0.31006 1.63969,-1.45521 1.6397,-1.45521 0.62476,-0.33951 0.62426,-0.339 v -0.21342 -0.21394 l -0.67386,-0.30696 -0.67387,-0.30696 h -2.29029 -2.28979 l -0.85007,0.82372 -0.85008,0.82373 -1.22835,0.13849 -1.22887,0.13849 -0.13539,-0.51935 -0.13591,-0.51883 -0.97307,-0.33589 -0.97358,-0.3359 -4.49792,-2.06551 -4.49791,-2.06499 -3.04271,-0.9555 -3.04271,-0.95601 -2.23811,-1.51774 -2.23862,-1.51825 0.0439,-0.26458 0.0439,-0.26459 0.95033,-0.15916 0.95033,-0.15865 0.91157,-0.88315 0.91106,-0.88366 0.14676,-0.46251 0.14676,-0.46199 0.58291,-0.0832 0.58291,-0.0827 0.0749,-1.5875 0.0754,-1.5875 0.55552,-1.35702 0.55552,-1.35702 -0.18965,-1.02423 -0.19017,-1.02423 -1.36684,-1.27796 -1.36684,-1.27847 -0.92604,-0.47594 -0.92605,-0.47594 -1.08107,-0.18035 -1.08107,-0.17983 -1.77353,0.41134 -1.77405,0.41186 -0.76895,0.39739 -0.76895,0.39791 -0.62011,0.59583 -0.62064,0.59583 -0.74672,1.78645 -0.74673,1.78646 0.14367,0.72709 0.14314,0.72708 0.0847,0.52917 0.0853,0.52917 -3.96875,0.2129 -3.96875,0.21291 -4.32686,-0.12971 -4.32687,-0.12971 -1.07487,-0.74465 -1.07487,-0.74466 -2.29702,-2.14871 -2.29702,-2.1487 -1.56011,-0.58395 -1.56011,-0.58342 -1.81487,0.18241 -1.8154,0.18191 -2.97708,-2.00763 -2.97708,-2.00815 -2.41432,-2.1332 -2.41484,-2.13372 -0.94723,-2.03967 -0.94671,-2.03967 -0.28164,-0.52917 -0.28215,-0.52916 -0.9586,-1.2852 -0.9586,-1.28467 -2.46083,-1.9358 -2.46083,-1.93528 -0.8723,-1.14515 -0.87281,-1.14515 -0.56948,-1.29036 -0.56895,-1.29036 -0.0129,-0.69402 -0.0129,-0.69401 -0.4501,-0.91881 -0.45011,-0.91881 -0.66145,-0.34571 -0.66146,-0.34624 -1.19063,0.14728 -1.19062,0.14676 -2.2717,0.15038 -2.27169,0.14986 -2.12494,-0.57309 z m 66.04248,76.25995 -2.82825,0.0977 -2.82773,0.0977 -0.0388,2.58744 -0.0388,2.58744 0.10697,0.2806 0.10749,0.28112 2.84169,-0.0811 2.8422,-0.0806 -0.0827,-2.8851 z m 9.80302,0.22479 0.076,16.61914 0.0754,16.61966 c 0.68244,2.54689 3.38386,5.13663 6.08542,5.13663 l 2.24896,-0.062 2.24896,-0.0625 0.076,-2.27996 0.076,-2.27945 -2.01487,-0.12919 -2.01435,-0.12971 c -0.64319,-0.14571 -0.98199,-0.56918 -1.1498,-1.14928 l -0.13229,-16.0662 -0.13229,-16.06621 -2.7218,-0.0754 z m -50.78088,0.001 v 0.30076 0.30024 l 0.75706,2.28771 0.75758,2.28824 2.26498,6.87916 2.26497,6.87917 2.80604,8.59896 2.80603,8.59896 0.41134,1.12448 0.41083,1.12447 h 2.0624 2.06241 l 0.25942,-0.33072 0.25941,-0.33073 5.35471,-16.27188 5.35472,-16.27187 0.76842,-2.20349 0.76843,-2.204 v -0.37568 -0.37621 l -2.97656,10e-4 -2.97656,0.001 -2.07016,6.5474 -2.06964,6.54741 -0.47904,1.5875 -0.47904,1.5875 -1.79317,5.62343 -1.79318,5.62394 -0.12092,-0.1204 -0.12041,-0.12041 -4.28914,-13.57333 -4.28966,-13.57282 -2.95538,-0.0749 z m 77.91308,10.67584 c -3.28956,0.0286 -6.90396,0.80697 -9.43405,3.49229 -0.1635,0.22438 -0.25731,0.48173 -0.22221,0.79943 l 2.5616,2.32906 c 0.49836,0.64957 1.0017,0.7722 1.51257,-0.016 2.50944,-2.78328 9.17763,-2.71553 10.8815,1.17977 0.52498,1.20013 0.53898,2.88643 0.26355,3.91449 -3.21158,0.0841 -6.0884,0.25218 -9.63507,0.25218 -3.88716,0 -6.7728,3.61971 -6.8063,6.91379 -0.52212,4.15192 2.16468,8.82561 8.81703,8.84081 1.35245,0.003 2.98286,-0.0106 4.17184,-0.38447 1.0965,-0.34482 1.79599,-0.51225 2.63137,-1.34049 1.13476,-1.60997 1.02506,0.67159 1.08006,1.59422 1.7198,0.0505 3.4395,0.10091 5.1593,0.15141 v -19.6448 c 0,-5.451 -5.65029,-8.12797 -10.98119,-8.08167 z m 59.58859,0.0181 c -0.131,9.9e-4 -0.2634,0.003 -0.3979,0.006 -1.9519,0.0463 -3.9939,0.26 -5.7242,1.26608 -1.9203,0.96715 -3.5806,2.63143 -4.224,4.7134 -0.2621,1.33473 -0.2135,2.72817 -0.1039,4.07934 0.3929,2.13841 1.9211,4.08639 3.9419,4.92011 3.1753,1.4476 6.784,0.64056 10.0666,1.60559 1.8295,0.54539 2.2824,2.94892 1.466,4.48293 -0.8867,1.31887 -2.5869,1.85272 -4.0618,2.19418 -4.1622,0.12129 -5.3313,-0.32985 -8.7891,-2.5461 -0.5037,-0.32284 -0.9135,-0.0283 -1.1963,0.15038 -0.9942,0.62794 -2.0572,1.76856 -2.7414,2.70423 -0.1239,0.36609 -0.028,0.72671 0.1953,1.04231 h 5e-4 c 2.8166,3.40376 8.8912,2.92224 12.5962,2.92024 3.2582,-0.007 6.6475,-1.09736 8.7715,-4.08451 0.9754,-1.37228 0.9307,-3.07221 0.9307,-4.65449 0,-3.20526 -1.7714,-5.36344 -4.331,-6.26732 -2.2291,-1.06346 -4.7262,-0.9976 -7.1236,-1.24747 -3.1972,-0.54994 -4.4793,-1.69463 -4.4793,-3.6127 0,-1.95977 2.1625,-2.98135 3.8856,-3.12125 2.157,0.0551 4.926,0.0656 6.782,1.68361 0.2763,0.30914 0.7921,0.15027 1.1493,0.0331 0.5922,-0.52118 2.1329,-1.8753 2.7042,-3.00757 0.1106,-0.2197 0,-0.45147 -0.096,-0.601 -2.7389,-1.66875 -5.1595,-2.68985 -9.2212,-2.65927 z m -26.9136,0.0171 c -2.6929,-0.039 -5.4315,0.90932 -7.3696,2.80034 h -0.1478 -0.1478 v -1.19062 -1.19063 h -2.6458 -2.6458 v 13.63534 13.63535 l 2.712,-0.0754 2.7119,-0.0754 0.1323,-9.525 0.1323,-9.525 0.4377,-0.79375 c 1.7024,-2.83225 8.2919,-3.66083 10.1457,0.79375 l 0.1322,9.525 0.1323,9.525 h 2.6459 2.6458 v -10.45104 -10.45104 c -1.0974,-4.41367 -4.9355,-6.57975 -8.8713,-6.6368 z m -75.1339,0.41909 v 13.44931 13.44982 l 0.185,0.18552 0.18552,0.185 2.52646,-0.0749 2.52698,-0.0749 0.0682,-13.55989 0.0687,-13.5599 h -2.78071 z m 47.78365,15.02957 c 0.43365,1.61829 0.31061,2.29518 0.17104,3.58997 -0.42727,3.96383 -4.0648,4.02554 -6.93497,4.11654 -1.29254,0.0582 -2.67029,-0.32687 -3.46232,-1.3317 -0.89979,-1.26064 -1.08292,-3.20123 -0.20464,-4.36201 1.55606,-2.05659 7.70838,-1.87734 10.43089,-2.0128 z" /></g></g></g></g></svg>
