<?xml version="1.0" encoding="UTF-8" standalone="no"?>
<!-- Created with Inkscape (http://www.inkscape.org/) -->

<svg
   xmlns:dc="http://purl.org/dc/elements/1.1/"
   xmlns:cc="http://creativecommons.org/ns#"
   xmlns:rdf="http://www.w3.org/1999/02/22-rdf-syntax-ns#"
   xmlns:svg="http://www.w3.org/2000/svg"
   xmlns="http://www.w3.org/2000/svg"
   xmlns:xlink="http://www.w3.org/1999/xlink"
   xmlns:sodipodi="http://sodipodi.sourceforge.net/DTD/sodipodi-0.dtd"
   xmlns:inkscape="http://www.inkscape.org/namespaces/inkscape"
   width="2048"
   height="2048"
   viewBox="0 0 541.86665 541.86668"
   version="1.1"
   id="svg8"
   inkscape:version="0.92.1 r15371"
   sodipodi:docname="Achievements.svg"
   inkscape:export-filename="C:\projects\care-up\care-up\Assets\Resources\Sprites\achivements.png"
   inkscape:export-xdpi="96"
   inkscape:export-ydpi="96">
  <defs
     id="defs2">
    <linearGradient
       inkscape:collect="always"
       id="linearGradient4839">
      <stop
         style="stop-color:#173a71;stop-opacity:1"
         offset="0"
         id="stop4835" />
      <stop
         style="stop-color:#6f98cb;stop-opacity:1"
         offset="1"
         id="stop4837" />
    </linearGradient>
    <linearGradient
       inkscape:collect="always"
       id="linearGradient4806">
      <stop
         style="stop-color:#ffffff;stop-opacity:1;"
         offset="0"
         id="stop4802" />
      <stop
         style="stop-color:#ffffff;stop-opacity:0;"
         offset="1"
         id="stop4804" />
    </linearGradient>
    <linearGradient
       inkscape:collect="always"
       id="linearGradient4780">
      <stop
         style="stop-color:#fbc07e;stop-opacity:1"
         offset="0"
         id="stop4776" />
      <stop
         style="stop-color:#f6711b;stop-opacity:1"
         offset="1"
         id="stop4778" />
    </linearGradient>
    <radialGradient
       inkscape:collect="always"
       xlink:href="#linearGradient4780"
       id="radialGradient4782"
       cx="264.52884"
       cy="75.505951"
       fx="300.16083"
       fy="74.75"
       r="83.883575"
       gradientUnits="userSpaceOnUse"
       gradientTransform="matrix(-7.0695366e-8,-1.446111,1.1254414,-6.3923365e-8,175.81425,448.79727)" />
    <clipPath
       clipPathUnits="userSpaceOnUse"
       id="clipPath4786">
      <circle
         style="opacity:1;fill:#808080;fill-opacity:1;stroke:none;stroke-width:1.51886535;stroke-linecap:round;stroke-miterlimit:4;stroke-dasharray:none;stroke-opacity:1"
         id="circle4788"
         cx="261.55954"
         cy="77.773811"
         r="83.883575" />
    </clipPath>
    <linearGradient
       inkscape:collect="always"
       xlink:href="#linearGradient4806"
       id="linearGradient4808"
       x1="243.81012"
       y1="-11.636271"
       x2="258.9628"
       y2="63.370541"
       gradientUnits="userSpaceOnUse"
       gradientTransform="matrix(0.94463098,0,0,0.94463098,16.469783,-7.3851902)" />
    <linearGradient
       inkscape:collect="always"
       xlink:href="#linearGradient4839"
       id="linearGradient4841"
       x1="233.59357"
       y1="107.77318"
       x2="233.59357"
       y2="50.577496"
       gradientUnits="userSpaceOnUse"
       gradientTransform="matrix(1.1307271,0,0,1.1307271,-34.61877,-17.079585)" />
    <clipPath
       clipPathUnits="userSpaceOnUse"
       id="clipPath4887">
      <path
         inkscape:connector-curvature="0"
         id="path4889"
         d="m 326.97351,70.791858 -7.00786,-7.007844 -29.44765,5.29e-4 -29.44764,5.3e-4 -1.20905,-2.047698 c -3.83918,-6.50227 -8.57532,-11.076112 -14.53864,-14.040411 -2.04211,-1.015108 -6.33268,-2.480601 -8.61487,-2.942503 -5.54598,-1.122465 -12.18862,-0.657614 -17.51669,1.225812 -8.50126,3.005122 -15.09773,8.800079 -19.09625,16.77593 -5.55627,11.083102 -4.55653,24.128299 2.65142,34.597708 1.6773,2.436231 5.94003,6.622599 8.44418,8.292859 10.28498,6.86013 23.06203,7.71476 34.06341,2.27846 2.54208,-1.25616 4.16366,-2.31464 6.60919,-4.31414 3.03327,-2.48005 6.45897,-6.733122 8.54748,-10.611813 l 0.63847,-1.185754 12.58109,0.0013 12.58112,0.0013 4.21984,-4.21985 4.21987,-4.219859 4.2559,4.255903 4.2559,4.25591 4.18254,-4.182528 4.1825,-4.182528 4.18254,4.182528 4.18253,4.182528 7.04427,-7.044259 7.04424,-7.044253 z M 222.51585,87.876742 c -3.59431,2.337023 -8.20973,2.469926 -12.12441,0.349142 -1.37426,-0.744506 -3.52968,-2.82484 -4.39824,-4.244988 -2.16346,-3.537495 -2.32011,-7.77892 -0.42904,-11.617399 0.86865,-1.76316 3.303,-4.209458 5.12385,-5.14903 3.50479,-1.808419 7.67011,-1.784448 11.12701,0.06404 0.47334,0.253103 1.46761,0.986665 2.20951,1.630135 3.62004,3.139736 5.0072,8.095625 3.53577,12.632044 -0.74517,2.297348 -2.79736,4.874953 -5.04447,6.336035 z"
         style="fill:#ffffff;fill-opacity:1;stroke-width:0.20754342" />
    </clipPath>
    <clipPath
       clipPathUnits="userSpaceOnUse"
       id="clipPath5449">
      <ellipse
         ry="121.42514"
         rx="122.53876"
         style="opacity:1;fill:#808000;fill-opacity:1;stroke:none;stroke-width:12.37938595;stroke-linecap:round;stroke-miterlimit:4;stroke-dasharray:none;stroke-opacity:1"
         id="ellipse5451"
         cx="640.00006"
         cy="-248.77806" />
    </clipPath>
    <clipPath
       clipPathUnits="userSpaceOnUse"
       id="clipPath5651">
      <circle
         r="12.0934"
         cy="-333.34409"
         cx="189.65527"
         id="circle5653"
         style="opacity:1;fill:#00d4ff;fill-opacity:1;stroke:none;stroke-width:1.81700003;stroke-linecap:round;stroke-linejoin:round;stroke-miterlimit:4;stroke-dasharray:none;stroke-opacity:1" />
    </clipPath>
    <clipPath
       clipPathUnits="userSpaceOnUse"
       id="clipPath5784">
      <path
         id="path5786"
         d="m 717.41992,-363.36328 c -1.33342,1.9321 -3.55204,3.60447 -6.6543,5.01953 -3.04782,1.38785 -6.35309,2.08203 -9.91796,2.08203 -0.35377,0 -0.69494,-0.0138 -1.02149,-0.041 v 12.57226 c 0.54426,0.0816 1.22463,0.12305 2.04102,0.12305 2.558,0 4.57152,-0.19129 6.04101,-0.57227 v 25.67578 h -8.08203 v 13.0625 h 33.96289 v -13.0625 h -7.83789 v -44.85937 z"
         style="font-style:normal;font-weight:normal;font-size:22.11853027px;line-height:1.25;font-family:sans-serif;letter-spacing:0px;word-spacing:0px;fill:#0fa4e4;fill-opacity:1;stroke:none;stroke-width:2.08993959"
         inkscape:connector-curvature="0" />
    </clipPath>
  </defs>
  <sodipodi:namedview
     id="base"
     pagecolor="#6a6a6a"
     bordercolor="#020202"
     borderopacity="1"
     inkscape:pageopacity="0"
     inkscape:pageshadow="2"
     inkscape:zoom="0.24748737"
     inkscape:cx="802.48941"
     inkscape:cy="1493.7528"
     inkscape:document-units="mm"
     inkscape:current-layer="layer1"
     showgrid="true"
     inkscape:pagecheckerboard="false"
     showborder="true"
     inkscape:window-width="1920"
     inkscape:window-height="1017"
     inkscape:window-x="-8"
     inkscape:window-y="-8"
     inkscape:window-maximized="1"
     inkscape:showpageshadow="false"
     units="px"
     showguides="true"
     inkscape:snap-page="true"
     inkscape:snap-object-midpoints="true"
     inkscape:snap-center="true"
     inkscape:object-nodes="false"
     inkscape:snap-global="true"
     inkscape:snap-others="true"
     inkscape:snap-nodes="false">
    <inkscape:grid
       type="xygrid"
       id="grid4985"
       spacingx="33.866667"
       spacingy="33.866667"
       color="#3f3fff"
       opacity="0.59215686" />
  </sodipodi:namedview>
  <metadata
     id="metadata5">
    <rdf:RDF>
      <cc:Work
         rdf:about="">
        <dc:format>image/svg+xml</dc:format>
        <dc:type
           rdf:resource="http://purl.org/dc/dcmitype/StillImage" />
        <dc:title></dc:title>
      </cc:Work>
    </rdf:RDF>
  </metadata>
  <g
     inkscape:label="Layer 1"
     inkscape:groupmode="layer"
     id="layer1"
     transform="translate(0,244.86668)">
    <rect
       style="opacity:1;fill:#ffffff;fill-opacity:0.06764706;stroke:none;stroke-width:3.38224149;stroke-linecap:round;stroke-miterlimit:4;stroke-dasharray:none;stroke-opacity:1"
       id="rect5274"
       width="541.86658"
       height="472.45312"
       x="4.742579e-005"
       y="-174.55597"
       ry="0" />
    <g
       id="g4616"
       transform="matrix(2.5554879,0,0,2.5554879,-19.333152,212.98313)">
      <g
         id="g1594"
         style="display:inline"
         transform="translate(213.31353,-209.02943)">
        <circle
           style="opacity:1;vector-effect:none;fill:#1a1a1a;fill-opacity:1;stroke:#ffffff;stroke-width:0.87866759;stroke-linecap:butt;stroke-linejoin:round;stroke-miterlimit:4;stroke-dasharray:none;stroke-dashoffset:0;stroke-opacity:1"
           id="path1334"
           cx="-166.27409"
           cy="43.118587"
           r="11.710429" />
        <path
           style="fill:#ffffff;fill-opacity:1;stroke-width:0.02991542"
           d="m -157.05434,42.111354 -1.01474,-1.005515 -4.26401,7.7e-5 -4.26402,7.3e-5 -0.17507,-0.293802 c -0.55591,-0.932982 -1.24171,-1.589244 -2.1052,-2.014583 -0.29569,-0.145653 -0.91697,-0.355924 -1.24744,-0.422202 -0.80305,-0.16105 -1.7649,-0.09439 -2.5364,0.175882 -1.23099,0.431197 -2.18616,1.262674 -2.76514,2.407077 -0.80456,1.590257 -0.65978,3.462032 0.38392,4.964222 0.24287,0.349574 0.86012,0.950237 1.22272,1.189896 1.48927,0.984315 3.33938,1.106954 4.93238,0.326926 0.36809,-0.180246 0.6029,-0.332117 0.95701,-0.619012 0.43922,-0.355845 0.93526,-0.966095 1.23767,-1.522625 l 0.0925,-0.170138 1.82174,1.91e-4 1.82175,1.93e-4 0.61103,-0.605486 0.61103,-0.605477 0.61626,0.61065 0.61626,0.610655 0.60562,-0.600125 0.60563,-0.600122 0.60564,0.600122 0.60563,0.600125 1.02,-1.01074 1.02001,-1.010734 z m -15.12546,2.45141 c -0.52045,0.335322 -1.18878,0.354396 -1.75561,0.05009 -0.19899,-0.106837 -0.51111,-0.405311 -0.63687,-0.609084 -0.31328,-0.507576 -0.33596,-1.116151 -0.0622,-1.66691 0.12572,-0.25299 0.47827,-0.604 0.74194,-0.738804 0.50748,-0.259476 1.11063,-0.256045 1.61119,0.0096 0.0685,0.03636 0.21251,0.141575 0.31993,0.233898 0.52419,0.450503 0.72505,1.161596 0.51198,1.812497 -0.10784,0.329633 -0.40506,0.699483 -0.73044,0.909129 z"
           id="path4833-4"
           inkscape:connector-curvature="0" />
      </g>
    </g>
    <g
       style="display:inline"
       id="g1941"
       transform="matrix(2.5554819,0,0,2.5554819,802.63595,-395.67739)">
      <circle
         r="11.710429"
         cy="72.222755"
         cx="-248.03035"
         id="circle1923"
         style="opacity:1;vector-effect:none;fill:#1a1a1a;fill-opacity:1;stroke:#ffffff;stroke-width:0.87866759;stroke-linecap:butt;stroke-linejoin:round;stroke-miterlimit:4;stroke-dasharray:none;stroke-dashoffset:0;stroke-opacity:1" />
      <g
         transform="matrix(0.24513048,0,0,0.24513048,-189.3236,44.275571)"
         id="g1915">
        <ellipse
           style="opacity:1;vector-effect:none;fill:#ffffff;fill-opacity:1;stroke:none;stroke-width:0.34155592;stroke-linecap:butt;stroke-linejoin:round;stroke-miterlimit:4;stroke-dasharray:none;stroke-dashoffset:0;stroke-opacity:1"
           id="path1906"
           cx="-239.49197"
           cy="103.7374"
           rx="12.534941"
           ry="13.844562" />
        <path
           inkscape:connector-curvature="0"
           style="opacity:1;vector-effect:none;fill:#ffffff;fill-opacity:1;stroke:none;stroke-width:3.47361088;stroke-linecap:butt;stroke-linejoin:round;stroke-miterlimit:4;stroke-dasharray:none;stroke-dashoffset:0;stroke-opacity:1"
           d="m -905.16602,454.30469 a 131.52186,136.47161 0 0 0 -105.68948,55.50781 131.52186,136.47161 0 0 0 105.68948,55.50781 131.52186,136.47161 0 0 0 105.68946,-55.50976 131.52186,136.47161 0 0 0 -105.68946,-55.50586 z"
           transform="scale(0.26458333)"
           id="circle1908" />
      </g>
    </g>
    <g
       transform="matrix(2.5554819,0,0,2.5554819,458.7771,-473.36834)"
       style="display:inline"
       id="g4649">
      <circle
         r="11.710429"
         cy="102.66882"
         cx="-166.27409"
         id="circle1653"
         style="opacity:1;vector-effect:none;fill:#1a1a1a;fill-opacity:1;stroke:#ffffff;stroke-width:0.87866759;stroke-linecap:butt;stroke-linejoin:round;stroke-miterlimit:4;stroke-dasharray:none;stroke-dashoffset:0;stroke-opacity:1" />
      <path
         sodipodi:nodetypes="scscscscccs"
         inkscape:connector-curvature="0"
         id="path1639"
         d="m -166.27871,94.046443 c -1.01253,-0.02139 -1.92027,3.398549 -2.40455,5.440267 -1.07893,-0.02783 -5.83864,-0.454031 -6.21465,0.70315 -0.33797,1.04009 3.15412,2.70732 4.80507,3.85523 -0.82816,2.17909 -2.3513,5.64565 -1.21577,5.88344 1.74956,0.36637 3.78212,-2.00267 5.14783,-2.99347 1.27885,0.9921 3.64185,3.33847 4.92121,2.99347 1.06158,-0.28628 -0.3876,-3.70435 -1.21577,-5.88344 1.65096,-1.14791 5.14304,-2.81514 4.80507,-3.85523 -0.376,-1.157176 -5.13573,-0.730975 -6.21465,-0.70315 -0.50074,-1.916137 -1.19149,-5.414441 -2.41379,-5.440267 z"
         style="opacity:1;vector-effect:none;fill:#1a1a1a;fill-opacity:1;stroke:#ffffff;stroke-width:0.68501192;stroke-linecap:butt;stroke-linejoin:round;stroke-miterlimit:4;stroke-dasharray:none;stroke-dashoffset:0;stroke-opacity:1" />
      <path
         style="opacity:1;vector-effect:none;fill:#1a1a1a;fill-opacity:1;stroke:#ffffff;stroke-width:0.32499999;stroke-linecap:butt;stroke-linejoin:round;stroke-miterlimit:4;stroke-dasharray:none;stroke-dashoffset:0;stroke-opacity:1"
         d="m -166.27745,96.220478 c -0.73602,-0.01555 -1.39586,2.470429 -1.74788,3.954572 -0.78429,-0.0203 -4.24415,-0.330042 -4.51748,0.51112 -0.24567,0.75605 2.29276,1.96797 3.49284,2.80239 -0.60199,1.584 -1.70917,4.10387 -0.88375,4.27672 1.27176,0.26632 2.74925,-1.45575 3.74199,-2.17598 0.92961,0.72117 2.6473,2.42677 3.57727,2.17598 0.77167,-0.2081 -0.28175,-2.69272 -0.88375,-4.27672 1.20009,-0.83442 3.73851,-2.04634 3.49284,-2.80239 -0.27332,-0.841158 -3.7332,-0.53135 -4.51748,-0.51112 -0.36399,-1.392857 -0.8661,-3.935799 -1.7546,-3.954572 z"
         id="path1655"
         inkscape:connector-curvature="0"
         sodipodi:nodetypes="scscscscccs" />
    </g>
    <g
       id="g4650"
       style="display:inline"
       transform="matrix(2.5554819,0,0,2.5554819,661.97711,-473.36834)">
      <circle
         style="opacity:1;vector-effect:none;fill:#1a1a1a;fill-opacity:1;stroke:#ffffff;stroke-width:0.87866759;stroke-linecap:butt;stroke-linejoin:round;stroke-miterlimit:4;stroke-dasharray:none;stroke-dashoffset:0;stroke-opacity:1"
         id="circle4644"
         cx="-166.27409"
         cy="102.66882"
         r="11.710429" />
      <path
         style="opacity:1;vector-effect:none;fill:#1a1a1a;fill-opacity:1;stroke:#ffffff;stroke-width:0.68501192;stroke-linecap:butt;stroke-linejoin:round;stroke-miterlimit:4;stroke-dasharray:none;stroke-dashoffset:0;stroke-opacity:1"
         d="m -166.27871,94.046443 c -1.01253,-0.02139 -1.92027,3.398549 -2.40455,5.440267 -1.07893,-0.02783 -5.83864,-0.454031 -6.21465,0.70315 -0.33797,1.04009 3.15412,2.70732 4.80507,3.85523 -0.82816,2.17909 -2.3513,5.64565 -1.21577,5.88344 1.74956,0.36637 3.78212,-2.00267 5.14783,-2.99347 1.27885,0.9921 3.64185,3.33847 4.92121,2.99347 1.06158,-0.28628 -0.3876,-3.70435 -1.21577,-5.88344 1.65096,-1.14791 5.14304,-2.81514 4.80507,-3.85523 -0.376,-1.157176 -5.13573,-0.730975 -6.21465,-0.70315 -0.50074,-1.916137 -1.19149,-5.414441 -2.41379,-5.440267 z"
         id="path4646"
         inkscape:connector-curvature="0"
         sodipodi:nodetypes="scscscscccs" />
      <path
         sodipodi:nodetypes="scscscscccs"
         inkscape:connector-curvature="0"
         id="path4648"
         d="m -166.27745,96.220478 c -0.73602,-0.01555 -1.39586,2.470429 -1.74788,3.954572 -0.78429,-0.0203 -4.24415,-0.330042 -4.51748,0.51112 -0.24567,0.75605 2.29276,1.96797 3.49284,2.80239 -0.60199,1.584 -1.70917,4.10387 -0.88375,4.27672 1.27176,0.26632 2.74925,-1.45575 3.74199,-2.17598 0.92961,0.72117 2.6473,2.42677 3.57727,2.17598 0.77167,-0.2081 -0.28175,-2.69272 -0.88375,-4.27672 1.20009,-0.83442 3.73851,-2.04634 3.49284,-2.80239 -0.27332,-0.841158 -3.7332,-0.53135 -4.51748,-0.51112 -0.36399,-1.392857 -0.8661,-3.935799 -1.7546,-3.954572 z"
         style="opacity:1;vector-effect:none;fill:#1a1a1a;fill-opacity:1;stroke:#ffffff;stroke-width:0.32499999;stroke-linecap:butt;stroke-linejoin:round;stroke-miterlimit:4;stroke-dasharray:none;stroke-dashoffset:0;stroke-opacity:1" />
    </g>
    <g
       transform="matrix(2.5554819,0,0,2.5554819,729.71044,-473.36834)"
       style="display:inline"
       id="g4658">
      <circle
         r="11.710429"
         cy="102.66882"
         cx="-166.27409"
         id="circle4652"
         style="opacity:1;vector-effect:none;fill:#1a1a1a;fill-opacity:1;stroke:#ffffff;stroke-width:0.87866759;stroke-linecap:butt;stroke-linejoin:round;stroke-miterlimit:4;stroke-dasharray:none;stroke-dashoffset:0;stroke-opacity:1" />
      <path
         sodipodi:nodetypes="scscscscccs"
         inkscape:connector-curvature="0"
         id="path4654"
         d="m -166.27871,94.046443 c -1.01253,-0.02139 -1.92027,3.398549 -2.40455,5.440267 -1.07893,-0.02783 -5.83864,-0.454031 -6.21465,0.70315 -0.33797,1.04009 3.15412,2.70732 4.80507,3.85523 -0.82816,2.17909 -2.3513,5.64565 -1.21577,5.88344 1.74956,0.36637 3.78212,-2.00267 5.14783,-2.99347 1.27885,0.9921 3.64185,3.33847 4.92121,2.99347 1.06158,-0.28628 -0.3876,-3.70435 -1.21577,-5.88344 1.65096,-1.14791 5.14304,-2.81514 4.80507,-3.85523 -0.376,-1.157176 -5.13573,-0.730975 -6.21465,-0.70315 -0.50074,-1.916137 -1.19149,-5.414441 -2.41379,-5.440267 z"
         style="opacity:1;vector-effect:none;fill:#1a1a1a;fill-opacity:1;stroke:#ffffff;stroke-width:0.68501192;stroke-linecap:butt;stroke-linejoin:round;stroke-miterlimit:4;stroke-dasharray:none;stroke-dashoffset:0;stroke-opacity:1" />
      <path
         style="opacity:1;vector-effect:none;fill:#1a1a1a;fill-opacity:1;stroke:#ffffff;stroke-width:0.32499999;stroke-linecap:butt;stroke-linejoin:round;stroke-miterlimit:4;stroke-dasharray:none;stroke-dashoffset:0;stroke-opacity:1"
         d="m -166.27745,96.220478 c -0.73602,-0.01555 -1.39586,2.470429 -1.74788,3.954572 -0.78429,-0.0203 -4.24415,-0.330042 -4.51748,0.51112 -0.24567,0.75605 2.29276,1.96797 3.49284,2.80239 -0.60199,1.584 -1.70917,4.10387 -0.88375,4.27672 1.27176,0.26632 2.74925,-1.45575 3.74199,-2.17598 0.92961,0.72117 2.6473,2.42677 3.57727,2.17598 0.77167,-0.2081 -0.28175,-2.69272 -0.88375,-4.27672 1.20009,-0.83442 3.73851,-2.04634 3.49284,-2.80239 -0.27332,-0.841158 -3.7332,-0.53135 -4.51748,-0.51112 -0.36399,-1.392857 -0.8661,-3.935799 -1.7546,-3.954572 z"
         id="path4656"
         inkscape:connector-curvature="0"
         sodipodi:nodetypes="scscscscccs" />
    </g>
    <g
       id="g4666"
       style="display:inline"
       transform="matrix(2.5554819,0,0,2.5554819,797.44377,-473.36834)">
      <circle
         style="opacity:1;vector-effect:none;fill:#1a1a1a;fill-opacity:1;stroke:#ffffff;stroke-width:0.87866759;stroke-linecap:butt;stroke-linejoin:round;stroke-miterlimit:4;stroke-dasharray:none;stroke-dashoffset:0;stroke-opacity:1"
         id="circle4660"
         cx="-166.27409"
         cy="102.66882"
         r="11.710429" />
      <path
         style="opacity:1;vector-effect:none;fill:#1a1a1a;fill-opacity:1;stroke:#ffffff;stroke-width:0.68501192;stroke-linecap:butt;stroke-linejoin:round;stroke-miterlimit:4;stroke-dasharray:none;stroke-dashoffset:0;stroke-opacity:1"
         d="m -166.27871,94.046443 c -1.01253,-0.02139 -1.92027,3.398549 -2.40455,5.440267 -1.07893,-0.02783 -5.83864,-0.454031 -6.21465,0.70315 -0.33797,1.04009 3.15412,2.70732 4.80507,3.85523 -0.82816,2.17909 -2.3513,5.64565 -1.21577,5.88344 1.74956,0.36637 3.78212,-2.00267 5.14783,-2.99347 1.27885,0.9921 3.64185,3.33847 4.92121,2.99347 1.06158,-0.28628 -0.3876,-3.70435 -1.21577,-5.88344 1.65096,-1.14791 5.14304,-2.81514 4.80507,-3.85523 -0.376,-1.157176 -5.13573,-0.730975 -6.21465,-0.70315 -0.50074,-1.916137 -1.19149,-5.414441 -2.41379,-5.440267 z"
         id="path4662"
         inkscape:connector-curvature="0"
         sodipodi:nodetypes="scscscscccs" />
      <path
         sodipodi:nodetypes="scscscscccs"
         inkscape:connector-curvature="0"
         id="path4664"
         d="m -166.27745,96.220478 c -0.73602,-0.01555 -1.39586,2.470429 -1.74788,3.954572 -0.78429,-0.0203 -4.24415,-0.330042 -4.51748,0.51112 -0.24567,0.75605 2.29276,1.96797 3.49284,2.80239 -0.60199,1.584 -1.70917,4.10387 -0.88375,4.27672 1.27176,0.26632 2.74925,-1.45575 3.74199,-2.17598 0.92961,0.72117 2.6473,2.42677 3.57727,2.17598 0.77167,-0.2081 -0.28175,-2.69272 -0.88375,-4.27672 1.20009,-0.83442 3.73851,-2.04634 3.49284,-2.80239 -0.27332,-0.841158 -3.7332,-0.53135 -4.51748,-0.51112 -0.36399,-1.392857 -0.8661,-3.935799 -1.7546,-3.954572 z"
         style="opacity:1;vector-effect:none;fill:#1a1a1a;fill-opacity:1;stroke:#ffffff;stroke-width:0.32499999;stroke-linecap:butt;stroke-linejoin:round;stroke-miterlimit:4;stroke-dasharray:none;stroke-dashoffset:0;stroke-opacity:1" />
    </g>
    <g
       transform="matrix(2.5554819,0,0,2.5554819,865.17711,-473.36834)"
       style="display:inline"
       id="g4674">
      <circle
         r="11.710429"
         cy="102.66882"
         cx="-166.27409"
         id="circle4668"
         style="opacity:1;vector-effect:none;fill:#1a1a1a;fill-opacity:1;stroke:#ffffff;stroke-width:0.87866759;stroke-linecap:butt;stroke-linejoin:round;stroke-miterlimit:4;stroke-dasharray:none;stroke-dashoffset:0;stroke-opacity:1" />
      <path
         sodipodi:nodetypes="scscscscccs"
         inkscape:connector-curvature="0"
         id="path4670"
         d="m -166.27871,94.046443 c -1.01253,-0.02139 -1.92027,3.398549 -2.40455,5.440267 -1.07893,-0.02783 -5.83864,-0.454031 -6.21465,0.70315 -0.33797,1.04009 3.15412,2.70732 4.80507,3.85523 -0.82816,2.17909 -2.3513,5.64565 -1.21577,5.88344 1.74956,0.36637 3.78212,-2.00267 5.14783,-2.99347 1.27885,0.9921 3.64185,3.33847 4.92121,2.99347 1.06158,-0.28628 -0.3876,-3.70435 -1.21577,-5.88344 1.65096,-1.14791 5.14304,-2.81514 4.80507,-3.85523 -0.376,-1.157176 -5.13573,-0.730975 -6.21465,-0.70315 -0.50074,-1.916137 -1.19149,-5.414441 -2.41379,-5.440267 z"
         style="opacity:1;vector-effect:none;fill:#1a1a1a;fill-opacity:1;stroke:#ffffff;stroke-width:0.68501192;stroke-linecap:butt;stroke-linejoin:round;stroke-miterlimit:4;stroke-dasharray:none;stroke-dashoffset:0;stroke-opacity:1" />
      <path
         style="opacity:1;vector-effect:none;fill:#1a1a1a;fill-opacity:1;stroke:#ffffff;stroke-width:0.32499999;stroke-linecap:butt;stroke-linejoin:round;stroke-miterlimit:4;stroke-dasharray:none;stroke-dashoffset:0;stroke-opacity:1"
         d="m -166.27745,96.220478 c -0.73602,-0.01555 -1.39586,2.470429 -1.74788,3.954572 -0.78429,-0.0203 -4.24415,-0.330042 -4.51748,0.51112 -0.24567,0.75605 2.29276,1.96797 3.49284,2.80239 -0.60199,1.584 -1.70917,4.10387 -0.88375,4.27672 1.27176,0.26632 2.74925,-1.45575 3.74199,-2.17598 0.92961,0.72117 2.6473,2.42677 3.57727,2.17598 0.77167,-0.2081 -0.28175,-2.69272 -0.88375,-4.27672 1.20009,-0.83442 3.73851,-2.04634 3.49284,-2.80239 -0.27332,-0.841158 -3.7332,-0.53135 -4.51748,-0.51112 -0.36399,-1.392857 -0.8661,-3.935799 -1.7546,-3.954572 z"
         id="path4672"
         inkscape:connector-curvature="0"
         sodipodi:nodetypes="scscscscccs" />
    </g>
    <g
       id="g4682"
       style="display:inline"
       transform="matrix(2.5554819,0,0,2.5554819,932.91044,-473.36834)">
      <circle
         style="opacity:1;vector-effect:none;fill:#1a1a1a;fill-opacity:1;stroke:#ffffff;stroke-width:0.87866759;stroke-linecap:butt;stroke-linejoin:round;stroke-miterlimit:4;stroke-dasharray:none;stroke-dashoffset:0;stroke-opacity:1"
         id="circle4676"
         cx="-166.27409"
         cy="102.66882"
         r="11.710429" />
      <path
         style="opacity:1;vector-effect:none;fill:#1a1a1a;fill-opacity:1;stroke:#ffffff;stroke-width:0.68501192;stroke-linecap:butt;stroke-linejoin:round;stroke-miterlimit:4;stroke-dasharray:none;stroke-dashoffset:0;stroke-opacity:1"
         d="m -166.27871,94.046443 c -1.01253,-0.02139 -1.92027,3.398549 -2.40455,5.440267 -1.07893,-0.02783 -5.83864,-0.454031 -6.21465,0.70315 -0.33797,1.04009 3.15412,2.70732 4.80507,3.85523 -0.82816,2.17909 -2.3513,5.64565 -1.21577,5.88344 1.74956,0.36637 3.78212,-2.00267 5.14783,-2.99347 1.27885,0.9921 3.64185,3.33847 4.92121,2.99347 1.06158,-0.28628 -0.3876,-3.70435 -1.21577,-5.88344 1.65096,-1.14791 5.14304,-2.81514 4.80507,-3.85523 -0.376,-1.157176 -5.13573,-0.730975 -6.21465,-0.70315 -0.50074,-1.916137 -1.19149,-5.414441 -2.41379,-5.440267 z"
         id="path4678"
         inkscape:connector-curvature="0"
         sodipodi:nodetypes="scscscscccs" />
      <path
         sodipodi:nodetypes="scscscscccs"
         inkscape:connector-curvature="0"
         id="path4680"
         d="m -166.27745,96.220478 c -0.73602,-0.01555 -1.39586,2.470429 -1.74788,3.954572 -0.78429,-0.0203 -4.24415,-0.330042 -4.51748,0.51112 -0.24567,0.75605 2.29276,1.96797 3.49284,2.80239 -0.60199,1.584 -1.70917,4.10387 -0.88375,4.27672 1.27176,0.26632 2.74925,-1.45575 3.74199,-2.17598 0.92961,0.72117 2.6473,2.42677 3.57727,2.17598 0.77167,-0.2081 -0.28175,-2.69272 -0.88375,-4.27672 1.20009,-0.83442 3.73851,-2.04634 3.49284,-2.80239 -0.27332,-0.841158 -3.7332,-0.53135 -4.51748,-0.51112 -0.36399,-1.392857 -0.8661,-3.935799 -1.7546,-3.954572 z"
         style="opacity:1;vector-effect:none;fill:#1a1a1a;fill-opacity:1;stroke:#ffffff;stroke-width:0.32499999;stroke-linecap:butt;stroke-linejoin:round;stroke-miterlimit:4;stroke-dasharray:none;stroke-dashoffset:0;stroke-opacity:1" />
    </g>
  </g>
</svg>
