<?xml version="1.0" encoding="UTF-8" standalone="no"?>
<!-- Created with Inkscape (http://www.inkscape.org/) -->

<svg
   xmlns:dc="http://purl.org/dc/elements/1.1/"
   xmlns:cc="http://creativecommons.org/ns#"
   xmlns:rdf="http://www.w3.org/1999/02/22-rdf-syntax-ns#"
   xmlns:svg="http://www.w3.org/2000/svg"
   xmlns="http://www.w3.org/2000/svg"
   xmlns:xlink="http://www.w3.org/1999/xlink"
   xmlns:sodipodi="http://sodipodi.sourceforge.net/DTD/sodipodi-0.dtd"
   xmlns:inkscape="http://www.inkscape.org/namespaces/inkscape"
   width="2048"
   height="2048"
   viewBox="0 0 541.86665 541.86668"
   version="1.1"
   id="svg8"
   inkscape:version="0.92.3 (unknown)"
   sodipodi:docname="Achievements.svg"
   inkscape:export-filename="/home/vit/ProjectG70/care-up/care-up/Assets/Resources/Sprites/achivements.png"
   inkscape:export-xdpi="96"
   inkscape:export-ydpi="96">
  <defs
     id="defs2">
    <linearGradient
       inkscape:collect="always"
       id="linearGradient4839">
      <stop
         style="stop-color:#173a71;stop-opacity:1"
         offset="0"
         id="stop4835" />
      <stop
         style="stop-color:#6f98cb;stop-opacity:1"
         offset="1"
         id="stop4837" />
    </linearGradient>
    <linearGradient
       inkscape:collect="always"
       id="linearGradient4806">
      <stop
         style="stop-color:#ffffff;stop-opacity:1;"
         offset="0"
         id="stop4802" />
      <stop
         style="stop-color:#ffffff;stop-opacity:0;"
         offset="1"
         id="stop4804" />
    </linearGradient>
    <linearGradient
       inkscape:collect="always"
       id="linearGradient4780">
      <stop
         style="stop-color:#fbc07e;stop-opacity:1"
         offset="0"
         id="stop4776" />
      <stop
         style="stop-color:#f6711b;stop-opacity:1"
         offset="1"
         id="stop4778" />
    </linearGradient>
    <radialGradient
       inkscape:collect="always"
       xlink:href="#linearGradient4780"
       id="radialGradient4782"
       cx="264.52884"
       cy="75.505951"
       fx="300.16083"
       fy="74.75"
       r="83.883575"
       gradientUnits="userSpaceOnUse"
       gradientTransform="matrix(-7.0695366e-8,-1.446111,1.1254414,-6.3923365e-8,175.81425,448.79727)" />
    <clipPath
       clipPathUnits="userSpaceOnUse"
       id="clipPath4786">
      <circle
         style="opacity:1;fill:#808080;fill-opacity:1;stroke:none;stroke-width:1.51886535;stroke-linecap:round;stroke-miterlimit:4;stroke-dasharray:none;stroke-opacity:1"
         id="circle4788"
         cx="261.55954"
         cy="77.773811"
         r="83.883575" />
    </clipPath>
    <linearGradient
       inkscape:collect="always"
       xlink:href="#linearGradient4806"
       id="linearGradient4808"
       x1="243.81012"
       y1="-11.636271"
       x2="258.9628"
       y2="63.370541"
       gradientUnits="userSpaceOnUse"
       gradientTransform="matrix(0.94463098,0,0,0.94463098,16.469783,-7.3851902)" />
    <linearGradient
       inkscape:collect="always"
       xlink:href="#linearGradient4839"
       id="linearGradient4841"
       x1="233.59357"
       y1="107.77318"
       x2="233.59357"
       y2="50.577496"
       gradientUnits="userSpaceOnUse"
       gradientTransform="matrix(1.1307271,0,0,1.1307271,-34.61877,-17.079585)" />
    <clipPath
       clipPathUnits="userSpaceOnUse"
       id="clipPath4887">
      <path
         inkscape:connector-curvature="0"
         id="path4889"
         d="m 326.97351,70.791858 -7.00786,-7.007844 -29.44765,5.29e-4 -29.44764,5.3e-4 -1.20905,-2.047698 c -3.83918,-6.50227 -8.57532,-11.076112 -14.53864,-14.040411 -2.04211,-1.015108 -6.33268,-2.480601 -8.61487,-2.942503 -5.54598,-1.122465 -12.18862,-0.657614 -17.51669,1.225812 -8.50126,3.005122 -15.09773,8.800079 -19.09625,16.77593 -5.55627,11.083102 -4.55653,24.128299 2.65142,34.597708 1.6773,2.436231 5.94003,6.622599 8.44418,8.292859 10.28498,6.86013 23.06203,7.71476 34.06341,2.27846 2.54208,-1.25616 4.16366,-2.31464 6.60919,-4.31414 3.03327,-2.48005 6.45897,-6.733122 8.54748,-10.611813 l 0.63847,-1.185754 12.58109,0.0013 12.58112,0.0013 4.21984,-4.21985 4.21987,-4.219859 4.2559,4.255903 4.2559,4.25591 4.18254,-4.182528 4.1825,-4.182528 4.18254,4.182528 4.18253,4.182528 7.04427,-7.044259 7.04424,-7.044253 z M 222.51585,87.876742 c -3.59431,2.337023 -8.20973,2.469926 -12.12441,0.349142 -1.37426,-0.744506 -3.52968,-2.82484 -4.39824,-4.244988 -2.16346,-3.537495 -2.32011,-7.77892 -0.42904,-11.617399 0.86865,-1.76316 3.303,-4.209458 5.12385,-5.14903 3.50479,-1.808419 7.67011,-1.784448 11.12701,0.06404 0.47334,0.253103 1.46761,0.986665 2.20951,1.630135 3.62004,3.139736 5.0072,8.095625 3.53577,12.632044 -0.74517,2.297348 -2.79736,4.874953 -5.04447,6.336035 z"
         style="fill:#ffffff;fill-opacity:1;stroke-width:0.20754342" />
    </clipPath>
    <clipPath
       clipPathUnits="userSpaceOnUse"
       id="clipPath5449">
      <ellipse
         ry="121.42514"
         rx="122.53876"
         style="opacity:1;fill:#808000;fill-opacity:1;stroke:none;stroke-width:12.37938595;stroke-linecap:round;stroke-miterlimit:4;stroke-dasharray:none;stroke-opacity:1"
         id="ellipse5451"
         cx="640.00006"
         cy="-248.77806" />
    </clipPath>
    <clipPath
       clipPathUnits="userSpaceOnUse"
       id="clipPath5651">
      <circle
         r="12.0934"
         cy="-333.34409"
         cx="189.65527"
         id="circle5653"
         style="opacity:1;fill:#00d4ff;fill-opacity:1;stroke:none;stroke-width:1.81700003;stroke-linecap:round;stroke-linejoin:round;stroke-miterlimit:4;stroke-dasharray:none;stroke-opacity:1" />
    </clipPath>
    <clipPath
       clipPathUnits="userSpaceOnUse"
       id="clipPath5784">
      <path
         id="path5786"
         d="m 717.41992,-363.36328 c -1.33342,1.9321 -3.55204,3.60447 -6.6543,5.01953 -3.04782,1.38785 -6.35309,2.08203 -9.91796,2.08203 -0.35377,0 -0.69494,-0.0138 -1.02149,-0.041 v 12.57226 c 0.54426,0.0816 1.22463,0.12305 2.04102,0.12305 2.558,0 4.57152,-0.19129 6.04101,-0.57227 v 25.67578 h -8.08203 v 13.0625 h 33.96289 v -13.0625 h -7.83789 v -44.85937 z"
         style="font-style:normal;font-weight:normal;font-size:22.11853027px;line-height:1.25;font-family:sans-serif;letter-spacing:0px;word-spacing:0px;fill:#0fa4e4;fill-opacity:1;stroke:none;stroke-width:2.08993959"
         inkscape:connector-curvature="0" />
    </clipPath>
  </defs>
  <sodipodi:namedview
     id="base"
     pagecolor="#585858"
     bordercolor="#020202"
     borderopacity="1"
     inkscape:pageopacity="0"
     inkscape:pageshadow="2"
     inkscape:zoom="0.24748737"
     inkscape:cx="1891.0558"
     inkscape:cy="1269.6408"
     inkscape:document-units="mm"
     inkscape:current-layer="layer1"
     showgrid="false"
     inkscape:pagecheckerboard="false"
     showborder="true"
     inkscape:window-width="1920"
     inkscape:window-height="1055"
     inkscape:window-x="0"
     inkscape:window-y="0"
     inkscape:window-maximized="1"
     inkscape:showpageshadow="false"
     units="px"
     showguides="true"
     inkscape:snap-page="true"
     inkscape:snap-object-midpoints="true"
     inkscape:snap-center="true"
     inkscape:object-nodes="false"
     inkscape:snap-global="false"
     inkscape:snap-others="true"
     inkscape:snap-nodes="false"
     inkscape:snap-grids="false">
    <inkscape:grid
       type="xygrid"
       id="grid4985"
       spacingx="33.866667"
       spacingy="33.866667"
       color="#3f3fff"
       opacity="0.59215686" />
  </sodipodi:namedview>
  <metadata
     id="metadata5">
    <rdf:RDF>
      <cc:Work
         rdf:about="">
        <dc:format>image/svg+xml</dc:format>
        <dc:type
           rdf:resource="http://purl.org/dc/dcmitype/StillImage" />
        <dc:title></dc:title>
      </cc:Work>
    </rdf:RDF>
  </metadata>
  <g
     inkscape:label="Layer 1"
     inkscape:groupmode="layer"
     id="layer1"
     transform="translate(0,244.86668)">
    <rect
       style="opacity:1;fill:#ffffff;fill-opacity:0.06764706;stroke:none;stroke-width:3.38224149;stroke-linecap:round;stroke-miterlimit:4;stroke-dasharray:none;stroke-opacity:1"
       id="rect5274"
       width="541.86658"
       height="472.45312"
       x="4.742579e-005"
       y="-174.55597"
       ry="0" />
    <g
       id="g4616"
       transform="matrix(2.5554879,0,0,2.5554879,-19.333152,212.98313)">
      <g
         id="g1594"
         style="display:inline"
         transform="translate(213.31353,-209.02943)">
        <circle
           style="opacity:1;vector-effect:none;fill:#1a1a1a;fill-opacity:1;stroke:#ffffff;stroke-width:0.87866759;stroke-linecap:butt;stroke-linejoin:round;stroke-miterlimit:4;stroke-dasharray:none;stroke-dashoffset:0;stroke-opacity:1"
           id="path1334"
           cx="-166.27409"
           cy="43.118587"
           r="11.710429" />
        <path
           style="fill:#ffffff;fill-opacity:1;stroke-width:0.02991542"
           d="m -157.05434,42.111354 -1.01474,-1.005515 -4.26401,7.7e-5 -4.26402,7.3e-5 -0.17507,-0.293802 c -0.55591,-0.932982 -1.24171,-1.589244 -2.1052,-2.014583 -0.29569,-0.145653 -0.91697,-0.355924 -1.24744,-0.422202 -0.80305,-0.16105 -1.7649,-0.09439 -2.5364,0.175882 -1.23099,0.431197 -2.18616,1.262674 -2.76514,2.407077 -0.80456,1.590257 -0.65978,3.462032 0.38392,4.964222 0.24287,0.349574 0.86012,0.950237 1.22272,1.189896 1.48927,0.984315 3.33938,1.106954 4.93238,0.326926 0.36809,-0.180246 0.6029,-0.332117 0.95701,-0.619012 0.43922,-0.355845 0.93526,-0.966095 1.23767,-1.522625 l 0.0925,-0.170138 1.82174,1.91e-4 1.82175,1.93e-4 0.61103,-0.605486 0.61103,-0.605477 0.61626,0.61065 0.61626,0.610655 0.60562,-0.600125 0.60563,-0.600122 0.60564,0.600122 0.60563,0.600125 1.02,-1.01074 1.02001,-1.010734 z m -15.12546,2.45141 c -0.52045,0.335322 -1.18878,0.354396 -1.75561,0.05009 -0.19899,-0.106837 -0.51111,-0.405311 -0.63687,-0.609084 -0.31328,-0.507576 -0.33596,-1.116151 -0.0622,-1.66691 0.12572,-0.25299 0.47827,-0.604 0.74194,-0.738804 0.50748,-0.259476 1.11063,-0.256045 1.61119,0.0096 0.0685,0.03636 0.21251,0.141575 0.31993,0.233898 0.52419,0.450503 0.72505,1.161596 0.51198,1.812497 -0.10784,0.329633 -0.40506,0.699483 -0.73044,0.909129 z"
           id="path4833-4"
           inkscape:connector-curvature="0" />
      </g>
    </g>
    <g
       style="display:inline"
       id="g1941"
       transform="matrix(2.5554819,0,0,2.5554819,803.1704,-395.56396)">
      <circle
         r="11.710429"
         cy="72.222755"
         cx="-248.03035"
         id="circle1923"
         style="opacity:1;vector-effect:none;fill:#1a1a1a;fill-opacity:1;stroke:#ffffff;stroke-width:0.87866759;stroke-linecap:butt;stroke-linejoin:round;stroke-miterlimit:4;stroke-dasharray:none;stroke-dashoffset:0;stroke-opacity:1" />
      <g
         transform="matrix(0.24513048,0,0,0.24513048,-189.3236,44.275571)"
         id="g1915">
        <ellipse
           style="opacity:1;vector-effect:none;fill:#ffffff;fill-opacity:1;stroke:none;stroke-width:0.34155592;stroke-linecap:butt;stroke-linejoin:round;stroke-miterlimit:4;stroke-dasharray:none;stroke-dashoffset:0;stroke-opacity:1"
           id="path1906"
           cx="-239.49197"
           cy="103.7374"
           rx="12.534941"
           ry="13.844562" />
        <path
           inkscape:connector-curvature="0"
           style="opacity:1;vector-effect:none;fill:#ffffff;fill-opacity:1;stroke:none;stroke-width:3.47361088;stroke-linecap:butt;stroke-linejoin:round;stroke-miterlimit:4;stroke-dasharray:none;stroke-dashoffset:0;stroke-opacity:1"
           d="m -905.16602,454.30469 a 131.52186,136.47161 0 0 0 -105.68948,55.50781 131.52186,136.47161 0 0 0 105.68948,55.50781 131.52186,136.47161 0 0 0 105.68946,-55.50976 131.52186,136.47161 0 0 0 -105.68946,-55.50586 z"
           transform="scale(0.26458333)"
           id="circle1908" />
      </g>
    </g>
    <g
       transform="matrix(2.5554819,0,0,2.5554819,458.7771,-473.36834)"
       style="display:inline"
       id="g4649">
      <circle
         r="11.710429"
         cy="102.66882"
         cx="-166.27409"
         id="circle1653"
         style="opacity:1;vector-effect:none;fill:#1a1a1a;fill-opacity:1;stroke:#ffffff;stroke-width:0.87866759;stroke-linecap:butt;stroke-linejoin:round;stroke-miterlimit:4;stroke-dasharray:none;stroke-dashoffset:0;stroke-opacity:1" />
      <path
         sodipodi:nodetypes="scscscscccs"
         inkscape:connector-curvature="0"
         id="path1639"
         d="m -166.27871,94.046443 c -1.01253,-0.02139 -1.92027,3.398549 -2.40455,5.440267 -1.07893,-0.02783 -5.83864,-0.454031 -6.21465,0.70315 -0.33797,1.04009 3.15412,2.70732 4.80507,3.85523 -0.82816,2.17909 -2.3513,5.64565 -1.21577,5.88344 1.74956,0.36637 3.78212,-2.00267 5.14783,-2.99347 1.27885,0.9921 3.64185,3.33847 4.92121,2.99347 1.06158,-0.28628 -0.3876,-3.70435 -1.21577,-5.88344 1.65096,-1.14791 5.14304,-2.81514 4.80507,-3.85523 -0.376,-1.157176 -5.13573,-0.730975 -6.21465,-0.70315 -0.50074,-1.916137 -1.19149,-5.414441 -2.41379,-5.440267 z"
         style="opacity:1;vector-effect:none;fill:#1a1a1a;fill-opacity:1;stroke:#ffffff;stroke-width:0.68501192;stroke-linecap:butt;stroke-linejoin:round;stroke-miterlimit:4;stroke-dasharray:none;stroke-dashoffset:0;stroke-opacity:1" />
      <path
         style="opacity:1;vector-effect:none;fill:#1a1a1a;fill-opacity:1;stroke:#ffffff;stroke-width:0.32499999;stroke-linecap:butt;stroke-linejoin:round;stroke-miterlimit:4;stroke-dasharray:none;stroke-dashoffset:0;stroke-opacity:1"
         d="m -166.27745,96.220478 c -0.73602,-0.01555 -1.39586,2.470429 -1.74788,3.954572 -0.78429,-0.0203 -4.24415,-0.330042 -4.51748,0.51112 -0.24567,0.75605 2.29276,1.96797 3.49284,2.80239 -0.60199,1.584 -1.70917,4.10387 -0.88375,4.27672 1.27176,0.26632 2.74925,-1.45575 3.74199,-2.17598 0.92961,0.72117 2.6473,2.42677 3.57727,2.17598 0.77167,-0.2081 -0.28175,-2.69272 -0.88375,-4.27672 1.20009,-0.83442 3.73851,-2.04634 3.49284,-2.80239 -0.27332,-0.841158 -3.7332,-0.53135 -4.51748,-0.51112 -0.36399,-1.392857 -0.8661,-3.935799 -1.7546,-3.954572 z"
         id="path1655"
         inkscape:connector-curvature="0"
         sodipodi:nodetypes="scscscscccs" />
    </g>
    <circle
       r="29.925791"
       cy="-211.00002"
       cx="237.06668"
       id="circle4644"
       style="opacity:1;vector-effect:none;fill:#1a1a1a;fill-opacity:1;stroke:#ffffff;stroke-width:2.24541903;stroke-linecap:butt;stroke-linejoin:round;stroke-miterlimit:4;stroke-dasharray:none;stroke-dashoffset:0;stroke-opacity:1" />
    <circle
       style="opacity:1;vector-effect:none;fill:#1a1a1a;fill-opacity:1;stroke:#ffffff;stroke-width:2.24541903;stroke-linecap:butt;stroke-linejoin:round;stroke-miterlimit:4;stroke-dasharray:none;stroke-dashoffset:0;stroke-opacity:1"
       id="circle4652"
       cx="304.80002"
       cy="-211.00002"
       r="29.925791" />
    <circle
       r="29.925791"
       cy="-211.00002"
       cx="372.53333"
       id="circle4660"
       style="opacity:1;vector-effect:none;fill:#1a1a1a;fill-opacity:1;stroke:#ffffff;stroke-width:2.24541903;stroke-linecap:butt;stroke-linejoin:round;stroke-miterlimit:4;stroke-dasharray:none;stroke-dashoffset:0;stroke-opacity:1" />
    <circle
       style="opacity:1;vector-effect:none;fill:#1a1a1a;fill-opacity:1;stroke:#ffffff;stroke-width:2.24541903;stroke-linecap:butt;stroke-linejoin:round;stroke-miterlimit:4;stroke-dasharray:none;stroke-dashoffset:0;stroke-opacity:1"
       id="circle4668"
       cx="440.26666"
       cy="-211.00002"
       r="29.925791" />
    <circle
       r="29.925791"
       cy="-211.00002"
       cx="508"
       id="circle4676"
       style="opacity:1;vector-effect:none;fill:#1a1a1a;fill-opacity:1;stroke:#ffffff;stroke-width:2.24541903;stroke-linecap:butt;stroke-linejoin:round;stroke-miterlimit:4;stroke-dasharray:none;stroke-dashoffset:0;stroke-opacity:1" />
    <path
       inkscape:connector-curvature="0"
       style="font-style:normal;font-variant:normal;font-weight:normal;font-stretch:normal;font-size:34.03951263px;line-height:8.86445522px;font-family:sans-serif;-inkscape-font-specification:sans-serif;font-variant-ligatures:normal;font-variant-position:normal;font-variant-caps:normal;font-variant-numeric:normal;font-variant-alternates:normal;font-feature-settings:normal;text-indent:0;text-align:center;text-decoration:none;text-decoration-line:none;text-decoration-style:solid;text-decoration-color:#000000;letter-spacing:0px;word-spacing:0px;text-transform:none;writing-mode:lr-tb;direction:ltr;text-orientation:mixed;dominant-baseline:auto;baseline-shift:baseline;text-anchor:middle;white-space:normal;shape-padding:0;opacity:1;vector-effect:none;fill:#ffffff;fill-opacity:1;stroke:none;stroke-width:0.12896252;stroke-linecap:butt;stroke-linejoin:miter;stroke-miterlimit:4;stroke-dasharray:none;stroke-dashoffset:0;stroke-opacity:1"
       d="m 242.95762,-197.27986 c -0.2539,0 -0.47141,0.0906 -0.65275,0.27196 -0.18136,0.18135 -0.27216,0.40103 -0.27216,0.65896 0,0.25389 0.0908,0.47356 0.27216,0.65895 0.18538,0.18135 0.40288,0.27196 0.65275,0.27196 0.25792,0 0.47759,-0.0906 0.65895,-0.27196 0.18136,-0.18539 0.27196,-0.40506 0.27196,-0.65895 0,-0.25793 -0.0906,-0.47761 -0.27196,-0.65896 -0.18136,-0.18136 -0.40103,-0.27196 -0.65895,-0.27196 z m -17.68203,0.0785 -0.58622,4.28002 c 0.34658,-0.0726 0.62853,-0.10883 0.84615,-0.10883 0.48361,0 0.85456,0.10271 1.11248,0.30824 0.26195,0.20554 0.39282,0.49777 0.39282,0.87661 0,0.44331 -0.0987,0.78373 -0.29621,1.0215 -0.19748,0.23778 -0.47762,0.35674 -0.84033,0.35674 -0.29016,0 -0.72735,-0.11678 -1.31171,-0.35053 l -0.23569,1.5474 c 0.73347,0.2418 1.32788,0.36275 1.78328,0.36275 0.81407,0 1.46082,-0.25597 1.9404,-0.76778 0.47958,-0.51586 0.71948,-1.20899 0.71948,-2.07949 0,-0.79392 -0.2056,-1.41847 -0.61667,-1.87388 -0.40703,-0.45942 -0.99747,-0.7013 -1.77125,-0.72548 l 0.17536,-1.22713 h 2.07949 l 0.0363,-1.62014 z m 11.37703,2.32739 c -0.51585,0 -1.02361,0.29224 -1.52334,0.87661 v -0.6832 h -1.75321 v 5.56146 h 1.75321 v -3.36714 c 0,-0.22165 0.0462,-0.39692 0.13889,-0.52589 0.0967,-0.12895 0.22381,-0.1934 0.38099,-0.1934 0.1491,0 0.27005,0.0664 0.36273,0.19942 0.0967,0.13299 0.14492,0.30231 0.14492,0.50784 v 3.37917 h 1.75921 v -3.29459 c 0,-0.52793 0.17726,-0.79184 0.53191,-0.79184 0.34658,0 0.51987,0.26805 0.51987,0.80406 v 3.28237 h 1.75921 v -4.03812 c 0,-1.14454 -0.40902,-1.71675 -1.22712,-1.71675 -0.32644,0 -0.61254,0.0765 -0.85837,0.22969 -0.24181,0.15313 -0.50391,0.397 -0.78602,0.73149 -0.18135,-0.64078 -0.58225,-0.96118 -1.20288,-0.96118 z m 11.86044,0.012 c -0.59242,0 -1.09404,0.31246 -1.5051,0.93712 h -0.0303 v -0.75574 h -1.7532 v 5.56146 h 1.7532 v -3.36714 c 0,-0.47151 0.18737,-0.70726 0.56216,-0.70726 0.14106,0 0.25586,0.0604 0.34452,0.18137 0.0887,0.12091 0.13307,0.27615 0.13307,0.46556 v 3.42747 h 1.75903 v -4.31009 c 0,-0.43927 -0.1148,-0.78783 -0.34452,-1.04576 -0.22568,-0.25792 -0.532,-0.38699 -0.91889,-0.38699 z m -6.43205,0.18138 v 5.56146 h 1.75922 v -5.56146 z"
       id="text926" />
    <path
       id="path947"
       d="m 312.0139,-196.7129 c -0.2539,0 -0.47141,0.0906 -0.65275,0.27196 -0.18136,0.18135 -0.27216,0.40103 -0.27216,0.65896 0,0.25389 0.0908,0.47356 0.27216,0.65895 0.18538,0.18135 0.40288,0.27196 0.65275,0.27196 0.25792,0 0.47759,-0.0906 0.65895,-0.27196 0.18136,-0.18539 0.27196,-0.40506 0.27196,-0.65895 0,-0.25793 -0.0906,-0.47761 -0.27196,-0.65896 -0.18136,-0.18136 -0.40103,-0.27196 -0.65895,-0.27196 z m -6.305,2.40589 c -0.51585,0 -1.02361,0.29224 -1.52334,0.87661 v -0.6832 h -1.75321 v 5.56146 h 1.75321 v -3.36714 c 0,-0.22165 0.0462,-0.39692 0.13889,-0.52589 0.0967,-0.12895 0.22381,-0.1934 0.38099,-0.1934 0.1491,0 0.27005,0.0664 0.36273,0.19942 0.0967,0.13299 0.14492,0.30231 0.14492,0.50784 v 3.37917 h 1.75921 v -3.29459 c 0,-0.52793 0.17726,-0.79184 0.53191,-0.79184 0.34658,0 0.51987,0.26805 0.51987,0.80406 v 3.28237 h 1.75921 v -4.03812 c 0,-1.14454 -0.40902,-1.71675 -1.22712,-1.71675 -0.32644,0 -0.61254,0.0765 -0.85837,0.22969 -0.24181,0.15313 -0.50391,0.397 -0.78602,0.73149 -0.18135,-0.64078 -0.58225,-0.96118 -1.20288,-0.96118 z m 11.86044,0.012 c -0.59242,0 -1.09404,0.31246 -1.5051,0.93712 h -0.0303 v -0.75574 h -1.7532 v 5.56146 h 1.7532 v -3.36714 c 0,-0.47151 0.18737,-0.70726 0.56216,-0.70726 0.14106,0 0.25586,0.0604 0.34452,0.18137 0.0887,0.12091 0.13307,0.27615 0.13307,0.46556 v 3.42747 h 1.75903 v -4.31009 c 0,-0.43927 -0.1148,-0.78783 -0.34452,-1.04576 -0.22568,-0.25792 -0.532,-0.38699 -0.91889,-0.38699 z m -6.43205,0.18138 v 5.56146 h 1.75922 v -5.56146 z"
       style="font-style:normal;font-variant:normal;font-weight:normal;font-stretch:normal;font-size:34.03951263px;line-height:8.86445522px;font-family:sans-serif;-inkscape-font-specification:sans-serif;font-variant-ligatures:normal;font-variant-position:normal;font-variant-caps:normal;font-variant-numeric:normal;font-variant-alternates:normal;font-feature-settings:normal;text-indent:0;text-align:center;text-decoration:none;text-decoration-line:none;text-decoration-style:solid;text-decoration-color:#000000;letter-spacing:0px;word-spacing:0px;text-transform:none;writing-mode:lr-tb;direction:ltr;text-orientation:mixed;dominant-baseline:auto;baseline-shift:baseline;text-anchor:middle;white-space:normal;shape-padding:0;opacity:1;vector-effect:none;fill:#ffffff;fill-opacity:1;stroke:none;stroke-width:0.12896252;stroke-linecap:butt;stroke-linejoin:miter;stroke-miterlimit:4;stroke-dasharray:none;stroke-dashoffset:0;stroke-opacity:1"
       inkscape:connector-curvature="0"
       sodipodi:nodetypes="scscscscsscccccscscsccsssccssccscccccccsscsccscccccccc" />
    <text
       xml:space="preserve"
       style="font-style:normal;font-variant:normal;font-weight:normal;font-stretch:normal;font-size:10.21176338px;line-height:2.65931273px;font-family:sans-serif;-inkscape-font-specification:sans-serif;font-variant-ligatures:normal;font-variant-position:normal;font-variant-caps:normal;font-variant-numeric:normal;font-variant-alternates:normal;font-feature-settings:normal;text-indent:0;text-align:center;text-decoration:none;text-decoration-line:none;text-decoration-style:solid;text-decoration-color:#000000;letter-spacing:0px;word-spacing:0px;text-transform:none;writing-mode:lr-tb;direction:ltr;text-orientation:mixed;dominant-baseline:auto;baseline-shift:baseline;text-anchor:middle;white-space:normal;shape-padding:0;opacity:1;vector-effect:none;fill:#ffffff;fill-opacity:1;stroke:none;stroke-width:0.10637252px;stroke-linecap:butt;stroke-linejoin:miter;stroke-miterlimit:4;stroke-dasharray:none;stroke-dashoffset:0;stroke-opacity:1"
       x="337.95102"
       y="-164.73689"
       id="text951"
       transform="scale(0.87277339,1.1457728)"><tspan
         sodipodi:role="line"
         id="tspan949"
         x="337.95102"
         y="-164.73689"
         style="font-style:normal;font-variant:normal;font-weight:normal;font-stretch:normal;font-family:'Farao Black OT';-inkscape-font-specification:'Farao Black OT';letter-spacing:0px;word-spacing:0px;fill:#ffffff;stroke-width:0.10637252px">10</tspan></text>
    <g
       id="g1005"
       transform="translate(1.632e-5,77.485268)">
      <path
         id="path953"
         transform="matrix(0.26458333,0,0,0.26458333,0,-244.86668)"
         d="m 885.07031,-253.4082 c -2.64601,0 -4.77734,2.13137 -4.77734,4.77734 0,2.64601 2.13133,4.77539 4.77734,4.77539 h 3.03125 v 8.93555 c -29.57034,3.88184 -52.48047,29.24807 -52.48047,59.85937 0,33.28778 27.08911,60.37891 60.37696,60.37891 33.28781,0 60.38086,-27.09113 60.38086,-60.37891 0,-14.79764 -5.35676,-28.36637 -14.22852,-38.8789 l 4.79297,-4.40821 1.16016,1.26172 c 1.01272,1.10173 2.71471,1.17285 3.8164,0.16016 1.10166,-1.01269 1.17468,-2.71471 0.16211,-3.81641 l -8.36719,-9.10156 c -1.01276,-1.10169 -2.71475,-1.17281 -3.8164,-0.16016 -1.1017,1.01273 -1.17476,2.71472 -0.16211,3.81641 l 1.16211,1.26172 -5,4.5957 c -8.78234,-7.74939 -19.82543,-12.99122 -32,-14.58984 v -8.93555 h 3.03125 c 2.64601,0 4.77734,-2.12938 4.77734,-4.77539 0,-2.64597 -2.13133,-4.77734 -4.77734,-4.77734 z m 8.87696,28.0957 v 4.74023 h 4.10546 v -4.74023 c 7.75468,0.31089 15.05655,2.37076 21.52539,5.79883 l -2.35546,4.07812 3.55664,2.05469 2.34375,-4.05859 c 6.31725,4.03909 11.67507,9.44189 15.65429,15.80078 l -3.96679,2.28906 2.05468,3.55664 3.94336,-2.27734 c 3.34376,6.46068 5.32856,13.73275 5.58399,21.44726 h -4.39063 v 4.10547 h 4.37305 c -0.36073,7.66879 -2.43549,14.88633 -5.84766,21.28516 l -3.66211,-2.11524 -2.05273,3.55664 3.63086,2.09571 c -4.00794,6.23391 -9.3463,11.52519 -15.62109,15.47461 l -2.04297,-3.53711 -3.55664,2.05273 2.03711,3.52735 c -6.3898,3.32832 -13.5771,5.3306 -21.20508,5.63671 v -4.02734 h -4.10742 v 4.02734 c -7.62871,-0.30585 -14.8167,-2.30811 -21.20704,-5.63671 l 2.03711,-3.52735 -3.55664,-2.05273 -2.04297,3.53711 c -6.27449,-3.94924 -11.61127,-9.24108 -15.61914,-15.47461 l 3.63086,-2.09571 -2.05468,-3.55664 -3.66211,2.11524 c -3.41188,-6.39829 -5.48667,-13.61514 -5.84766,-21.2832 h 4.37305 v -4.10743 h -4.39063 c 0.25543,-7.71451 2.24023,-14.98658 5.58399,-21.44726 l 3.94336,2.27734 2.05468,-3.55664 -3.96679,-2.28906 c 3.97922,-6.35889 9.33704,-11.76169 15.65429,-15.80078 l 2.34375,4.05859 3.55664,-2.05469 -2.35546,-4.07812 c 6.46884,-3.42807 13.77071,-5.48794 21.52539,-5.79883 z"
         style="color:#000000;font-style:normal;font-variant:normal;font-weight:normal;font-stretch:normal;font-size:medium;line-height:normal;font-family:sans-serif;font-variant-ligatures:normal;font-variant-position:normal;font-variant-caps:normal;font-variant-numeric:normal;font-variant-alternates:normal;font-feature-settings:normal;text-indent:0;text-align:start;text-decoration:none;text-decoration-line:none;text-decoration-style:solid;text-decoration-color:#000000;letter-spacing:normal;word-spacing:normal;text-transform:none;writing-mode:lr-tb;direction:ltr;text-orientation:mixed;dominant-baseline:auto;baseline-shift:baseline;text-anchor:start;white-space:normal;shape-padding:0;clip-rule:nonzero;display:inline;overflow:visible;visibility:visible;opacity:1;isolation:auto;mix-blend-mode:normal;color-interpolation:sRGB;color-interpolation-filters:linearRGB;solid-color:#000000;solid-opacity:1;vector-effect:none;fill:#ffffff;fill-opacity:1;fill-rule:nonzero;stroke:none;stroke-width:9.82625008;stroke-linecap:butt;stroke-linejoin:round;stroke-miterlimit:4;stroke-dasharray:none;stroke-dashoffset:0;stroke-opacity:1;color-rendering:auto;image-rendering:auto;shape-rendering:auto;text-rendering:auto;enable-background:accumulate"
         inkscape:connector-curvature="0" />
      <circle
         r="2.1786597"
         cy="-291.05505"
         cx="237.06668"
         id="path957"
         style="opacity:1;vector-effect:none;fill:#ffffff;fill-opacity:1;stroke:none;stroke-width:0.12150773;stroke-linecap:butt;stroke-linejoin:round;stroke-miterlimit:4;stroke-dasharray:none;stroke-dashoffset:0;stroke-opacity:1" />
      <path
         id="circle987"
         transform="matrix(0.26458333,0,0,0.26458333,0,-244.86668)"
         d="m 895.94336,-217.20117 0.0391,28.99219 a 13.639417,13.639417 0 0 1 0.0176,0 13.639417,13.639417 0 0 1 6.8125,1.83789 l 14.50195,-25.11914 a 42.630475,42.630475 0 0 0 -21.37109,-5.71094 z"
         style="opacity:1;vector-effect:none;fill:#ffffff;fill-opacity:1;stroke:none;stroke-width:2.37757754;stroke-linecap:butt;stroke-linejoin:round;stroke-miterlimit:4;stroke-dasharray:none;stroke-dashoffset:0;stroke-opacity:1"
         inkscape:connector-curvature="0" />
    </g>
    <path
       style="color:#000000;font-style:normal;font-variant:normal;font-weight:normal;font-stretch:normal;font-size:medium;line-height:normal;font-family:sans-serif;font-variant-ligatures:normal;font-variant-position:normal;font-variant-caps:normal;font-variant-numeric:normal;font-variant-alternates:normal;font-feature-settings:normal;text-indent:0;text-align:start;text-decoration:none;text-decoration-line:none;text-decoration-style:solid;text-decoration-color:#000000;letter-spacing:normal;word-spacing:normal;text-transform:none;writing-mode:lr-tb;direction:ltr;text-orientation:mixed;dominant-baseline:auto;baseline-shift:baseline;text-anchor:start;white-space:normal;shape-padding:0;clip-rule:nonzero;display:inline;overflow:visible;visibility:visible;opacity:1;isolation:auto;mix-blend-mode:normal;color-interpolation:sRGB;color-interpolation-filters:linearRGB;solid-color:#000000;solid-opacity:1;vector-effect:none;fill:#ffffff;fill-opacity:1;fill-rule:nonzero;stroke:none;stroke-width:2.59986162;stroke-linecap:butt;stroke-linejoin:round;stroke-miterlimit:4;stroke-dasharray:none;stroke-dashoffset:0;stroke-opacity:1;color-rendering:auto;image-rendering:auto;shape-rendering:auto;text-rendering:auto;enable-background:accumulate"
       d="m 301.90821,-234.429 c -0.70009,0 -1.26402,0.56392 -1.26402,1.26401 0,0.70008 0.56393,1.26348 1.26402,1.26348 h 0.802 v 2.3642 c -7.82381,1.02707 -13.88545,7.73855 -13.88545,15.83779 0,8.80739 7.16734,15.97525 15.97473,15.97525 8.8074,0 15.97578,-7.16786 15.97578,-15.97525 0,-3.91521 -1.41732,-7.50527 -3.76462,-10.28671 l 1.26812,-1.16633 0.30697,0.33382 c 0.26794,0.2915 0.71826,0.3103 1.00976,0.0424 0.29146,-0.26794 0.31078,-0.71827 0.0429,-1.00976 l -2.21382,-2.40812 c -0.26797,-0.29149 -0.71826,-0.31029 -1.00975,-0.0424 -0.29149,0.26796 -0.31081,0.71827 -0.0429,1.00976 l 0.30747,0.33383 -1.32292,1.21595 c -2.32365,-2.05036 -5.24547,-3.43727 -8.46666,-3.86023 v -2.3642 h 0.80203 c 0.70009,0 1.26399,-0.5634 1.26399,-1.26348 0,-0.70009 -0.5639,-1.26401 -1.26399,-1.26401 z m 2.34868,7.43365 v 1.25419 h 1.08624 v -1.25419 c 2.05177,0.0822 3.9837,0.62728 5.69526,1.53429 l -0.62322,1.079 0.94104,0.54364 0.62011,-1.07385 c 1.67145,1.06867 3.08903,2.49816 4.14186,4.18062 l -1.04955,0.60565 0.54364,0.94104 1.04336,-0.60256 c 0.88469,1.70939 1.40983,3.63345 1.47741,5.6746 h -1.16168 v 1.08623 h 1.15705 c -0.0954,2.02905 -0.64439,3.93868 -1.54721,5.63171 l -0.96893,-0.55966 -0.54311,0.94103 0.96065,0.55449 c -1.06042,1.64938 -2.47287,3.04937 -4.13308,4.09431 l -0.54052,-0.93585 -0.94104,0.54311 0.53898,0.93329 c -1.69063,0.88061 -3.59227,1.41039 -5.61049,1.49138 v -1.06557 h -1.08677 v 1.06557 c -2.01843,-0.0809 -3.92026,-0.61069 -5.61102,-1.49138 l 0.53898,-0.93329 -0.94102,-0.54311 -0.54054,0.93585 c -1.66013,-1.04491 -3.07216,-2.44502 -4.13257,-4.09431 l 0.96066,-0.55449 -0.54363,-0.94103 -0.96893,0.55966 c -0.90273,-1.69288 -1.45168,-3.60235 -1.54719,-5.63118 h 1.15703 v -1.08676 h -1.16168 c 0.0676,-2.04114 0.59272,-3.9652 1.47743,-5.6746 l 1.04334,0.60256 0.54363,-0.94104 -1.04954,-0.60565 c 1.05285,-1.68246 2.47044,-3.11195 4.14186,-4.18062 l 0.62013,1.07385 0.94102,-0.54364 -0.62323,-1.079 c 1.71157,-0.90701 3.6435,-1.45203 5.69527,-1.53429 z m 0.52813,2.14614 0.0104,7.79435 a 3.4852864,3.4852864 0 0 1 0.005,0 3.4852864,3.4852864 0 0 1 3.01427,1.7446 l 6.75359,-3.899 a 11.279313,11.279313 0 0 0 -9.78286,-5.63995 z m 0.015,9.10073 a 2.1786597,2.1786597 0 0 0 -2.17868,2.17868 2.1786597,2.1786597 0 0 0 2.17868,2.17867 2.1786597,2.1786597 0 0 0 2.17866,-2.17867 2.1786597,2.1786597 0 0 0 -2.17866,-2.17868 z"
       id="path991"
       inkscape:connector-curvature="0" />
    <g
       id="g913"
       transform="matrix(0.66593959,0,0,0.66593959,-63.901957,-187.45249)">
      <path
         sodipodi:nodetypes="cccccccccccscccccsccscccccccccccccccccccsccccccccccccscsccccccccsccccccccccccccccccccccccccscccccccccsccccccccscccssssscccsccccccscccscccccc"
         inkscape:connector-curvature="0"
         id="path891"
         transform="matrix(0.26458333,0,0,0.26458333,0,-244.86668)"
         d="m 2417.9648,666.76562 -0.2011,1.85938 c -0.2661,2.46399 -1.8871,20.47869 -2.5254,28.06836 -0.2782,3.31171 -0.7442,8.41385 -1.0352,11.33594 -0.2914,2.92209 -0.6981,7.38353 -0.8984,9.91601 -0.2022,2.53248 -0.6014,6.91555 -0.8887,9.74024 -0.2865,2.8247 -0.7558,7.92488 -1.0469,11.33398 -0.2895,3.40912 -0.6903,7.87252 -0.8906,9.91797 -0.2011,2.04547 -0.6015,6.50886 -0.8926,9.91797 -0.2895,3.4091 -0.7617,8.58962 -1.0527,11.51172 -0.2899,2.92209 -0.7656,8.10066 -1.0566,11.50976 -0.2911,3.40911 -0.6923,7.87251 -0.8926,9.91797 -0.2003,2.04546 -0.7689,8.34086 -1.2637,13.99024 -0.4947,5.64937 -1.0164,10.9886 -1.1562,11.86523 l -0.2579,1.59375 -20.9765,0.0918 -20.9785,0.0918 v 18.53321 c 0,16.63828 0.069,18.90934 0.6699,22.22265 0.6913,3.80878 2.0317,7.66299 3.4668,9.96875 0.4516,0.72666 0.8223,1.42299 0.8223,1.54688 0,0.44339 2.6738,3.89993 4.5957,5.9414 4.8994,5.20456 11.5335,8.78574 19.08,10.29883 v 0 c 1.6485,0.33057 13.0381,0.43026 50.1406,0.42774 l -10.0644,34.87695 c -1.5217,5.28258 3.2664,10.22193 8.5937,8.86524 l 44.9766,-11.48633 33.5293,16.0625 c 3.7669,1.80397 8.2702,-0.009 9.7363,-3.91993 l 22.252,-59.33203 c 7.1586,-11.67089 9.8338,-27.69731 7.789,-41.42578 0.2123,-2.92907 0.5589,-7.47974 0.8281,-10.81445 0.2914,-3.60392 0.8438,-10.85547 1.2286,-16.11524 0.3851,-5.25975 0.8662,-11.47677 1.0703,-13.81445 0.2026,-2.33767 0.5974,-7.43786 0.8808,-11.33398 0.282,-3.89612 0.8348,-11.22801 1.2305,-16.29297 0.3953,-5.06496 0.957,-12.31651 1.248,-16.11524 0.2907,-3.79872 0.6884,-8.89891 0.8887,-11.33398 0.4018,-4.91811 1.43,-18.37637 2.4766,-32.41016 0.3779,-5.06495 0.8545,-11.19968 1.0586,-13.63476 0.2041,-2.43508 0.6031,-7.69593 0.8828,-11.68946 0.2804,-3.99351 0.6135,-8.25707 0.7383,-9.4746 l 0.2265,-2.2129 h -76.1679 z m 137.459,13.81055 -0.2187,2.56836 c -0.5662,6.65099 -2.6718,33.92672 -3.5899,46.49024 -0.2846,3.89612 -0.8348,11.06734 -1.2207,15.9375 -0.3862,4.87014 -1.1032,14.11436 -1.5957,20.54296 -0.4924,6.4286 -1.2952,16.84407 -1.7832,23.14454 -0.3961,5.11526 -0.8193,10.73983 -1.1445,15.09765 -11.223,-14.87625 -29.0375,-24.52148 -49.043,-24.52148 -26.1384,0 -48.5304,16.4663 -57.3691,39.55468 -15.9612,-0.0418 -21.5449,-0.15106 -21.5449,-0.43164 0,-0.25516 0.3055,-3.56256 0.6797,-7.3496 0.374,-3.78707 0.7795,-8.1603 0.9042,-9.71876 0.1229,-1.55843 0.6165,-7.05834 1.0958,-12.2207 0.4787,-5.16236 1.1113,-12.01617 1.4023,-15.23047 0.2929,-3.2143 0.6962,-7.59736 0.8965,-9.74023 0.4029,-4.32044 1.402,-15.37881 2.4648,-27.27344 0.3829,-4.28573 0.8601,-9.4643 1.0567,-11.50976 0.1988,-2.04547 0.5161,-5.5527 0.705,-7.79297 0.189,-2.24028 0.7511,-8.45728 1.25,-13.81446 0.4989,-5.35716 1.1811,-12.84777 1.5137,-16.64648 l 0.6055,-6.90625 62.4687,-0.0898 z m -99.4648,27.98438 -0.4297,4.33789 c -0.2358,2.38637 -0.5276,5.41553 -0.6523,6.73047 l -0.2286,2.39062 h 34.8848 34.8828 l 0.2422,-4.33984 c 0.133,-2.38638 0.338,-5.41357 0.459,-6.72852 l 0.2187,-2.39062 h -34.6894 z m -2.5156,27.62695 -0.4102,3.98438 c -0.2253,2.19156 -0.512,5.29912 -0.6367,6.90624 l -0.2266,2.92188 34.6739,-0.006 c 19.0702,-0.003 34.849,-0.12249 35.0644,-0.26562 0.223,-0.14809 0.4928,-2.01415 0.6289,-4.33204 0.1293,-2.24027 0.3379,-5.23022 0.4551,-6.64257 l 0.2148,-2.56641 h -34.8808 z m 4.8652,27.62695 c -4.0997,0 -7.4688,0.0392 -7.4688,0.0879 -0.116,0.78874 -1.041,12.04899 -1.041,12.75196 h -0.01 v 0.97265 h 7.3906 7.3907 l 0.4179,-5.75586 c 0.2313,-3.1656 0.4955,-6.27313 0.5938,-6.90625 l 0.1777,-1.15039 z m 20.2949,0 -0.4121,4.33789 c -0.2268,2.38638 -0.5139,5.49391 -0.6387,6.90625 h 0.01 l -0.2265,2.56836 h 14.3574 14.3574 l 0.2227,-1.68164 c 0.2347,-1.78015 0.8984,-9.98446 0.8984,-11.33398 v -0.79688 h -14.2832 z m 18.2246,29.95899 c 26.298,0 48.0378,21.18093 47.4649,47.47265 -0.5931,27.21739 -21.297,47.20582 -47.4649,47.46485 -26.2966,0.26031 -47.4726,-21.16689 -47.4726,-47.46485 0,-26.29796 21.1747,-47.47265 47.4726,-47.47265 z m -121.0605,39.10742 h 55.4297 4.8066 c -0.3755,2.7374 -0.5859,5.52722 -0.5859,8.36523 0,12.00714 3.4866,23.21626 9.4804,32.69336 -0.035,0.10276 -0.067,0.2063 -0.098,0.31055 l -0.1016,0.34961 c -24.797,0.008 -50.0332,-0.0356 -51.0449,-0.16992 -1.8682,-0.24811 -5.6064,-1.57631 -7.6152,-2.70508 -2.5985,-1.45988 -6.2793,-5.26337 -7.7227,-7.98047 -2.304,-4.33522 -2.5488,-6.19818 -2.5488,-19.23047 z m 79.7754,55.48242 c 0.7674,-4.9e-4 1.197,5.5e-4 1.9824,0 10.6621,8.90915 24.3705,14.28516 39.3027,14.28516 10.7413,0 20.8466,-2.78802 29.6446,-7.66406 l -9.5665,25.51367 -28.8554,-13.82032 c -1.5053,-0.72159 -3.2164,-0.89097 -4.834,-0.47851 l -35.4336,9.04297 z"
         style="fill:#ffffff;stroke-width:0.35419288" />
      <text
         id="text899"
         y="-20.92811"
         x="616.98486"
         style="font-style:normal;font-variant:normal;font-weight:normal;font-stretch:normal;font-size:25.72787476px;line-height:6.69996738px;font-family:sans-serif;-inkscape-font-specification:sans-serif;font-variant-ligatures:normal;font-variant-position:normal;font-variant-caps:normal;font-variant-numeric:normal;font-variant-alternates:normal;font-feature-settings:normal;text-indent:0;text-align:center;text-decoration:none;text-decoration-line:none;text-decoration-style:solid;text-decoration-color:#000000;letter-spacing:0px;word-spacing:0px;text-transform:none;writing-mode:lr-tb;direction:ltr;text-orientation:mixed;dominant-baseline:auto;baseline-shift:baseline;text-anchor:middle;white-space:normal;shape-padding:0;opacity:1;vector-effect:none;fill:#ffffff;fill-opacity:1;stroke:none;stroke-width:0.26799873px;stroke-linecap:butt;stroke-linejoin:miter;stroke-miterlimit:4;stroke-dasharray:none;stroke-dashoffset:0;stroke-opacity:1"
         xml:space="preserve"
         transform="scale(1.0715087,0.93326352)"><tspan
           style="font-style:normal;font-variant:normal;font-weight:normal;font-stretch:normal;font-family:'Sebastian Medium';-inkscape-font-specification:'Sebastian Medium, ';fill:#ffffff;stroke-width:0.26799873px"
           y="-20.92811"
           x="616.98486"
           id="tspan897"
           sodipodi:role="line">3</tspan></text>
    </g>
    <path
       sodipodi:nodetypes="cccccccccccscccccsccscccccccccccccccccccsccccccccccccscsccccccccsccccccccccccccccccccccccccscccccccccsccccccccscccssssscccsccccccscccscccccc"
       inkscape:connector-curvature="0"
       id="path925"
       d="m 430.02146,-233.03713 -0.0354,0.32761 c -0.0469,0.43415 -0.3325,3.60828 -0.44497,4.94555 -0.049,0.58351 -0.13112,1.48249 -0.1824,1.99735 -0.0513,0.51486 -0.123,1.30095 -0.15829,1.74717 -0.0356,0.44621 -0.10596,1.21849 -0.15659,1.71619 -0.0505,0.49771 -0.13317,1.39634 -0.18446,1.99701 -0.051,0.60068 -0.12162,1.38711 -0.15692,1.74751 -0.0354,0.36041 -0.10598,1.14684 -0.15727,1.74752 -0.051,0.60067 -0.13421,1.51346 -0.18548,2.02832 -0.0511,0.51486 -0.1349,1.42731 -0.18617,2.02798 -0.0513,0.60067 -0.12198,1.38711 -0.15727,1.74751 -0.0353,0.3604 -0.13548,1.46963 -0.22266,2.46503 -0.0872,0.9954 -0.17909,1.93616 -0.20372,2.09062 l -0.0454,0.28081 -3.69599,0.0162 -3.69634,0.0162 v 3.26548 c 0,2.93161 0.0122,3.33176 0.11804,3.91556 0.1218,0.67109 0.35797,1.35019 0.61083,1.75646 0.0796,0.12803 0.14489,0.25072 0.14489,0.27255 0,0.0781 0.47111,0.68716 0.80975,1.04686 0.86325,0.91702 2.03216,1.54801 3.36183,1.81461 v 0 c 0.29046,0.0583 2.29726,0.0758 8.8346,0.0754 l -1.77332,6.1452 c -0.26812,0.93077 0.57553,1.80107 1.51418,1.56202 l 7.92472,-2.02385 5.90775,2.83016 c 0.66371,0.31785 1.45718,-0.002 1.7155,-0.69068 l 3.92073,-10.4541 c 1.26132,-2.05637 1.73268,-4.88017 1.37239,-7.29908 0.0374,-0.51609 0.0985,-1.3179 0.14591,-1.90546 0.0513,-0.635 0.14867,-1.9127 0.21647,-2.83945 0.0679,-0.92675 0.15262,-2.02217 0.18859,-2.43406 0.0357,-0.41189 0.10526,-1.31053 0.15519,-1.99701 0.0497,-0.68648 0.14709,-1.97833 0.21681,-2.87076 0.0696,-0.89243 0.16862,-2.17013 0.21989,-2.83945 0.0512,-0.66932 0.1213,-1.56796 0.15659,-1.99701 0.0708,-0.86655 0.25196,-3.23785 0.43637,-5.71056 0.0666,-0.89242 0.15056,-1.97334 0.18652,-2.40239 0.036,-0.42906 0.10626,-1.356 0.15555,-2.05965 0.0494,-0.70364 0.10809,-1.45486 0.13008,-1.66939 l 0.0399,-0.3899 h -13.42052 z m 24.2198,2.43337 -0.0385,0.45253 c -0.0998,1.17188 -0.47076,5.97777 -0.63252,8.19142 -0.0501,0.68648 -0.14709,1.95003 -0.21509,2.80813 -0.068,0.8581 -0.19438,2.4869 -0.28115,3.6196 -0.0868,1.1327 -0.22821,2.96787 -0.3142,4.07799 -0.0698,0.90129 -0.14435,1.89232 -0.20165,2.66015 -1.97746,-2.62114 -5.11631,-4.3206 -8.64121,-4.3206 -4.60549,0 -8.55089,2.90131 -10.10823,6.9694 -2.81231,-0.007 -3.79614,-0.0266 -3.79614,-0.0761 0,-0.045 0.0538,-0.62771 0.11976,-1.29497 0.0659,-0.66727 0.13735,-1.43782 0.15932,-1.71241 0.0217,-0.27459 0.10862,-1.24366 0.19307,-2.15325 0.0843,-0.90959 0.19581,-2.1172 0.24708,-2.68355 0.0516,-0.56635 0.12267,-1.33863 0.15796,-1.7162 0.071,-0.76124 0.24703,-2.70969 0.43429,-4.80548 0.0675,-0.75513 0.15155,-1.66758 0.18619,-2.02798 0.035,-0.36041 0.0909,-0.97837 0.12422,-1.37309 0.0333,-0.39473 0.13234,-1.49015 0.22024,-2.43406 0.0879,-0.94392 0.20811,-2.26374 0.26671,-2.93306 l 0.10669,-1.21685 11.00677,-0.0158 z m -17.52535,4.93075 -0.0757,0.76432 c -0.0415,0.42047 -0.093,0.95419 -0.11494,1.18588 l -0.0403,0.42122 h 6.14658 6.14622 l 0.0427,-0.76466 c 0.0234,-0.42048 0.0596,-0.95386 0.0809,-1.18555 l 0.0385,-0.42121 h -6.11216 z m -0.44324,4.86777 -0.0723,0.70203 c -0.0397,0.38615 -0.0902,0.93369 -0.11218,1.21686 l -0.0399,0.51482 6.10942,-0.001 c 3.36011,-5.3e-4 6.14027,-0.0216 6.17823,-0.0468 0.0393,-0.0261 0.0868,-0.35488 0.11081,-0.76329 0.0228,-0.39472 0.0595,-0.92154 0.0802,-1.17039 l 0.0378,-0.4522 h -6.14587 z m 0.85723,4.86777 c -0.72235,0 -1.31598,0.007 -1.31598,0.0155 -0.0204,0.13897 -0.18342,2.12299 -0.18342,2.24685 h -0.002 v 0.17138 h 1.3022 1.30221 l 0.0736,-1.01417 c 0.0408,-0.55776 0.0873,-1.1053 0.10462,-1.21685 l 0.0313,-0.2027 z m 3.57589,0 -0.0726,0.76432 c -0.04,0.42047 -0.0906,0.96801 -0.11254,1.21686 h 0.002 l -0.0399,0.45253 h 2.52972 2.52972 l 0.0392,-0.29629 c 0.0414,-0.31366 0.1583,-1.75923 0.1583,-1.99701 v -0.14041 h -2.51665 z m 3.21111,5.27867 c 4.63362,0 8.46409,3.73201 8.36315,8.36452 -0.1045,4.7956 -3.75246,8.3175 -8.36315,8.36314 -4.63337,0.0459 -8.36451,-3.72954 -8.36451,-8.36314 0,-4.63361 3.73091,-8.36452 8.36451,-8.36452 z m -21.33044,6.89059 h 9.76652 0.84691 c -0.0662,0.48232 -0.10323,0.97388 -0.10323,1.47393 0,2.11561 0.61432,4.09062 1.67041,5.76045 -0.006,0.0181 -0.0118,0.0363 -0.0173,0.0547 l -0.0179,0.0616 c -4.36914,0.001 -8.81567,-0.006 -8.99393,-0.0299 -0.32917,-0.0437 -0.98783,-0.27774 -1.34177,-0.47663 -0.45785,-0.25722 -1.1064,-0.92738 -1.36072,-1.40613 -0.40595,-0.76385 -0.44909,-1.09209 -0.44909,-3.38834 z m 14.05615,9.77581 c 0.13521,-9e-5 0.21091,1e-4 0.34929,0 1.87863,1.56976 4.294,2.51699 6.925,2.51699 1.89258,0 3.6731,-0.49123 5.22328,-1.35038 l -1.68559,4.49542 -5.08422,-2.43509 c -0.26523,-0.12714 -0.56672,-0.15698 -0.85173,-0.0843 l -6.24328,1.59334 z"
       style="fill:#ffffff;stroke-width:0.06240755" />
    <text
       id="text929"
       y="-214.79384"
       x="414.59323"
       style="font-style:normal;font-variant:normal;font-weight:normal;font-stretch:normal;font-size:17.13321114px;line-height:4.4617734px;font-family:sans-serif;-inkscape-font-specification:sans-serif;font-variant-ligatures:normal;font-variant-position:normal;font-variant-caps:normal;font-variant-numeric:normal;font-variant-alternates:normal;font-feature-settings:normal;text-indent:0;text-align:center;text-decoration:none;text-decoration-line:none;text-decoration-style:solid;text-decoration-color:#000000;letter-spacing:0px;word-spacing:0px;text-transform:none;writing-mode:lr-tb;direction:ltr;text-orientation:mixed;dominant-baseline:auto;baseline-shift:baseline;text-anchor:middle;white-space:normal;shape-padding:0;opacity:1;vector-effect:none;fill:#ffffff;fill-opacity:1;stroke:none;stroke-width:0.17847095px;stroke-linecap:butt;stroke-linejoin:miter;stroke-miterlimit:4;stroke-dasharray:none;stroke-dashoffset:0;stroke-opacity:1"
       xml:space="preserve"
       transform="scale(1.0715087,0.93326353)"><tspan
         style="font-style:normal;font-variant:normal;font-weight:normal;font-stretch:normal;font-family:'Sebastian Medium';-inkscape-font-specification:'Sebastian Medium, ';fill:#ffffff;stroke-width:0.17847095px"
         y="-214.79384"
         x="414.59323"
         id="tspan927"
         sodipodi:role="line">5</tspan></text>
    <path
       inkscape:connector-curvature="0"
       id="rect944"
       d="m 507.9999,-225.03345 c -0.63018,0 -1.26034,0.10896 -1.74323,0.32693 l -19.79044,8.93314 c -0.96577,0.43594 -0.96577,1.13788 0,1.57381 l 19.79044,8.93315 c 0.96578,0.43593 2.52088,0.43593 3.48665,0 l 14.60616,-6.59297 v -0.0668 l -17.40436,-2.89303 c -1.1905,-0.17988 -1.07694,-1.931 0.12683,-1.9556 0.0656,-0.001 0.1311,0.004 0.19563,0.0154 l 18.22632,3.02972 c 0.47412,0.079 0.82166,0.48915 0.82178,0.9698 v 0.0128 l 3.21809,-1.45257 c 0.96578,-0.43593 0.96578,-1.13788 0,-1.5738 l -19.79045,-8.93315 c -0.48288,-0.21797 -1.11323,-0.32693 -1.74342,-0.32693 z m 18.31578,12.28645 -1.9662,0.88761 v 7.65969 c -0.48428,0.32867 -0.77456,0.87567 -0.77528,1.46094 7e-5,0.21722 0.0402,0.43256 0.11827,0.63524 -0.63046,0.49157 -1.03636,1.25769 -1.03638,2.11907 -5e-5,1.48368 2.68644,5.67878 2.68644,5.67878 0,0 2.68629,-4.19517 2.68625,-5.67878 -3e-5,-0.86196 -0.4065,-1.62846 -1.03769,-2.11999 0.0784,-0.20231 0.11898,-0.41733 0.11958,-0.63432 -4.8e-4,-0.59394 -0.29911,-1.14797 -0.79499,-1.47488 z m -4.71381,4.55592 -12.91557,5.82978 c -0.3802,0.17161 -0.9924,0.17161 -1.3726,0 l -12.86832,-5.8084 c -0.0681,2.42754 -0.27233,4.88815 0.0492,7.10289 0.3491,2.40401 6.3936,4.76704 13.5393,4.69949 4.79829,-0.0454 13.56792,-1.12984 13.56792,-4.9987 z"
       style="opacity:1;vector-effect:none;fill:#ffffff;fill-opacity:1;stroke:none;stroke-width:2.92226505;stroke-linecap:butt;stroke-linejoin:round;stroke-miterlimit:4;stroke-dasharray:none;stroke-dashoffset:0;stroke-opacity:1"
       sodipodi:nodetypes="csccccccccccccscccccccccccccccccccccccc" />
  </g>
</svg>
