<?xml version="1.0" encoding="UTF-8" standalone="no"?>
<!-- Created with Inkscape (http://www.inkscape.org/) -->

<svg
   xmlns:dc="http://purl.org/dc/elements/1.1/"
   xmlns:cc="http://creativecommons.org/ns#"
   xmlns:rdf="http://www.w3.org/1999/02/22-rdf-syntax-ns#"
   xmlns:svg="http://www.w3.org/2000/svg"
   xmlns="http://www.w3.org/2000/svg"
   xmlns:xlink="http://www.w3.org/1999/xlink"
   xmlns:sodipodi="http://sodipodi.sourceforge.net/DTD/sodipodi-0.dtd"
   xmlns:inkscape="http://www.inkscape.org/namespaces/inkscape"
   width="210mm"
   height="297mm"
   viewBox="0 0 210 297"
   version="1.1"
   id="svg8"
   sodipodi:docname="aLayout.svg"
   inkscape:version="0.92.3 (unknown)">
  <defs
     id="defs2">
    <clipPath
       clipPathUnits="userSpaceOnUse"
       id="clipPath4786">
      <circle
         style="opacity:1;fill:#808080;fill-opacity:1;stroke:none;stroke-width:1.51886535;stroke-linecap:round;stroke-miterlimit:4;stroke-dasharray:none;stroke-opacity:1"
         id="circle4788"
         cx="261.55954"
         cy="77.773811"
         r="83.883575" />
    </clipPath>
    <clipPath
       clipPathUnits="userSpaceOnUse"
       id="clipPath4887">
      <path
         inkscape:connector-curvature="0"
         id="path4889"
         d="m 326.97351,70.791858 -7.00786,-7.007844 -29.44765,5.29e-4 -29.44764,5.3e-4 -1.20905,-2.047698 c -3.83918,-6.50227 -8.57532,-11.076112 -14.53864,-14.040411 -2.04211,-1.015108 -6.33268,-2.480601 -8.61487,-2.942503 -5.54598,-1.122465 -12.18862,-0.657614 -17.51669,1.225812 -8.50126,3.005122 -15.09773,8.800079 -19.09625,16.77593 -5.55627,11.083102 -4.55653,24.128299 2.65142,34.597708 1.6773,2.436231 5.94003,6.622599 8.44418,8.292859 10.28498,6.86013 23.06203,7.71476 34.06341,2.27846 2.54208,-1.25616 4.16366,-2.31464 6.60919,-4.31414 3.03327,-2.48005 6.45897,-6.733122 8.54748,-10.611813 l 0.63847,-1.185754 12.58109,0.0013 12.58112,0.0013 4.21984,-4.21985 4.21987,-4.219859 4.2559,4.255903 4.2559,4.25591 4.18254,-4.182528 4.1825,-4.182528 4.18254,4.182528 4.18253,4.182528 7.04427,-7.044259 7.04424,-7.044253 z M 222.51585,87.876742 c -3.59431,2.337023 -8.20973,2.469926 -12.12441,0.349142 -1.37426,-0.744506 -3.52968,-2.82484 -4.39824,-4.244988 -2.16346,-3.537495 -2.32011,-7.77892 -0.42904,-11.617399 0.86865,-1.76316 3.303,-4.209458 5.12385,-5.14903 3.50479,-1.808419 7.67011,-1.784448 11.12701,0.06404 0.47334,0.253103 1.46761,0.986665 2.20951,1.630135 3.62004,3.139736 5.0072,8.095625 3.53577,12.632044 -0.74517,2.297348 -2.79736,4.874953 -5.04447,6.336035 z"
         style="fill:#ffffff;fill-opacity:1;stroke-width:0.20754342" />
    </clipPath>
    <clipPath
       clipPathUnits="userSpaceOnUse"
       id="clipPath4786-6">
      <circle
         style="opacity:1;fill:#808080;fill-opacity:1;stroke:none;stroke-width:1.51886535;stroke-linecap:round;stroke-miterlimit:4;stroke-dasharray:none;stroke-opacity:1"
         id="circle4788-0"
         cx="261.55954"
         cy="77.773811"
         r="83.883575" />
    </clipPath>
    <clipPath
       clipPathUnits="userSpaceOnUse"
       id="clipPath5651">
      <circle
         r="12.0934"
         cy="-333.34409"
         cx="189.65527"
         id="circle5653"
         style="opacity:1;fill:#00d4ff;fill-opacity:1;stroke:none;stroke-width:1.81700003;stroke-linecap:round;stroke-linejoin:round;stroke-miterlimit:4;stroke-dasharray:none;stroke-opacity:1" />
    </clipPath>
    <clipPath
       clipPathUnits="userSpaceOnUse"
       id="clipPath5784">
      <path
         id="path5786"
         d="m 717.41992,-363.36328 c -1.33342,1.9321 -3.55204,3.60447 -6.6543,5.01953 -3.04782,1.38785 -6.35309,2.08203 -9.91796,2.08203 -0.35377,0 -0.69494,-0.0138 -1.02149,-0.041 v 12.57226 c 0.54426,0.0816 1.22463,0.12305 2.04102,0.12305 2.558,0 4.57152,-0.19129 6.04101,-0.57227 v 25.67578 h -8.08203 v 13.0625 h 33.96289 v -13.0625 h -7.83789 v -44.85937 z"
         style="font-style:normal;font-weight:normal;font-size:22.11853027px;line-height:1.25;font-family:sans-serif;letter-spacing:0px;word-spacing:0px;fill:#0fa4e4;fill-opacity:1;stroke:none;stroke-width:2.08993959"
         inkscape:connector-curvature="0" />
    </clipPath>
    <clipPath
       clipPathUnits="userSpaceOnUse"
       id="clipPath1626">
      <circle
         style="opacity:1;vector-effect:none;fill:#ff0000;fill-opacity:1;stroke:none;stroke-width:10.14559841;stroke-linecap:butt;stroke-linejoin:round;stroke-miterlimit:4;stroke-dasharray:none;stroke-dashoffset:0;stroke-opacity:1"
         id="circle1628"
         cx="656.97296"
         cy="-210.29312"
         r="135.21532" />
    </clipPath>
  </defs>
  <sodipodi:namedview
     id="base"
     pagecolor="#686868"
     bordercolor="#666666"
     borderopacity="1.0"
     inkscape:pageopacity="0"
     inkscape:pageshadow="2"
     inkscape:zoom="0.70710678"
     inkscape:cx="-443.13225"
     inkscape:cy="691.86562"
     inkscape:document-units="mm"
     inkscape:current-layer="layer1"
     showgrid="false"
     showborder="false"
     inkscape:window-width="1920"
     inkscape:window-height="1055"
     inkscape:window-x="0"
     inkscape:window-y="0"
     inkscape:window-maximized="1"
     inkscape:snap-global="false"
     showguides="true" />
  <metadata
     id="metadata5">
    <rdf:RDF>
      <cc:Work
         rdf:about="">
        <dc:format>image/svg+xml</dc:format>
        <dc:type
           rdf:resource="http://purl.org/dc/dcmitype/StillImage" />
        <dc:title></dc:title>
      </cc:Work>
    </rdf:RDF>
  </metadata>
  <g
     inkscape:groupmode="layer"
     id="layer2"
     inkscape:label="b"
     sodipodi:insensitive="true"
     style="display:none">
    <image
       sodipodi:absref="C:\Users\1\Pictures\screen\2018-07-24 13_19_25-.png"
       y="-43.102985"
       x="-180.59703"
       id="image4680"
       xlink:href="file:///C:/Users/1/Pictures/screen/2018-07-24%2013_19_25-.png"
       preserveAspectRatio="none"
       height="271.99167"
       width="504.82504" />
  </g>
  <g
     inkscape:label="Layer 1"
     inkscape:groupmode="layer"
     id="layer1"
     style="display:inline">
    <g
       id="g4508"
       transform="matrix(1.3715086,0,0,1.4900626,67.093341,-14.000532)">
      <rect
         ry="0"
         y="28.569103"
         x="-180.59703"
         height="20.289526"
         width="99.758202"
         id="rect4496"
         style="opacity:1;fill:#2c2c2c;fill-opacity:1;stroke:none;stroke-width:2.21360922;stroke-linecap:round;stroke-miterlimit:4;stroke-dasharray:none;stroke-opacity:1" />
      <rect
         y="28.568867"
         x="-83.674477"
         height="20.290001"
         width="2.8356502"
         id="rect4503"
         style="opacity:1;fill:#00d4ff;fill-opacity:1;stroke:none;stroke-width:2.15153146;stroke-linecap:round;stroke-miterlimit:4;stroke-dasharray:none;stroke-opacity:1" />
      <rect
         y="47.541279"
         x="-180.59703"
         height="1.3173531"
         width="99.758003"
         id="rect4501"
         style="opacity:0.65;fill:#141414;fill-opacity:1;stroke:none;stroke-width:1.3421886;stroke-linecap:round;stroke-miterlimit:4;stroke-dasharray:none;stroke-opacity:1" />
    </g>
    <g
       id="g4516"
       transform="matrix(1.3715086,0,0,1.4900626,67.093341,16.232839)">
      <rect
         style="opacity:1;fill:#252525;fill-opacity:1;stroke:none;stroke-width:2.21360922;stroke-linecap:round;stroke-miterlimit:4;stroke-dasharray:none;stroke-opacity:1"
         id="rect4510"
         width="99.758202"
         height="20.289526"
         x="-180.59703"
         y="28.569103"
         ry="0" />
      <rect
         style="opacity:0.65;fill:#141414;fill-opacity:1;stroke:none;stroke-width:1.3421886;stroke-linecap:round;stroke-miterlimit:4;stroke-dasharray:none;stroke-opacity:1"
         id="rect4512"
         width="99.758003"
         height="1.3173531"
         x="-180.59703"
         y="47.541279" />
    </g>
    <g
       transform="matrix(1.3715086,0,0,1.4900626,67.093341,46.465502)"
       id="g4526">
      <rect
         ry="0"
         y="28.569103"
         x="-180.59703"
         height="20.289526"
         width="99.758202"
         id="rect4522"
         style="opacity:1;fill:#252525;fill-opacity:1;stroke:none;stroke-width:2.21360922;stroke-linecap:round;stroke-miterlimit:4;stroke-dasharray:none;stroke-opacity:1" />
      <rect
         y="47.541279"
         x="-180.59703"
         height="1.3173531"
         width="99.758003"
         id="rect4524"
         style="opacity:0.65;fill:#141414;fill-opacity:1;stroke:none;stroke-width:1.3421886;stroke-linecap:round;stroke-miterlimit:4;stroke-dasharray:none;stroke-opacity:1" />
    </g>
    <g
       id="g1594">
      <circle
         r="11.710429"
         cy="43.118587"
         cx="-166.27409"
         id="path1334"
         style="opacity:1;vector-effect:none;fill:#1a1a1a;fill-opacity:1;stroke:#ffffff;stroke-width:0.87866759;stroke-linecap:butt;stroke-linejoin:round;stroke-miterlimit:4;stroke-dasharray:none;stroke-dashoffset:0;stroke-opacity:1" />
      <path
         inkscape:connector-curvature="0"
         id="path4833"
         d="m -157.05434,42.111354 -1.01474,-1.005515 -4.26401,7.7e-5 -4.26402,7.3e-5 -0.17507,-0.293802 c -0.55591,-0.932982 -1.24171,-1.589244 -2.1052,-2.014583 -0.29569,-0.145653 -0.91697,-0.355924 -1.24744,-0.422202 -0.80305,-0.16105 -1.7649,-0.09439 -2.5364,0.175882 -1.23099,0.431197 -2.18616,1.262674 -2.76514,2.407077 -0.80456,1.590257 -0.65978,3.462032 0.38392,4.964222 0.24287,0.349574 0.86012,0.950237 1.22272,1.189896 1.48927,0.984315 3.33938,1.106954 4.93238,0.326926 0.36809,-0.180246 0.6029,-0.332117 0.95701,-0.619012 0.43922,-0.355845 0.93526,-0.966095 1.23767,-1.522625 l 0.0925,-0.170138 1.82174,1.91e-4 1.82175,1.93e-4 0.61103,-0.605486 0.61103,-0.605477 0.61626,0.61065 0.61626,0.610655 0.60562,-0.600125 0.60563,-0.600122 0.60564,0.600122 0.60563,0.600125 1.02,-1.01074 1.02001,-1.010734 z m -15.12546,2.45141 c -0.52045,0.335322 -1.18878,0.354396 -1.75561,0.05009 -0.19899,-0.106837 -0.51111,-0.405311 -0.63687,-0.609084 -0.31328,-0.507576 -0.33596,-1.116151 -0.0622,-1.66691 0.12572,-0.25299 0.47827,-0.604 0.74194,-0.738804 0.50748,-0.259476 1.11063,-0.256045 1.61119,0.0096 0.0685,0.03636 0.21251,0.141575 0.31993,0.233898 0.52419,0.450503 0.72505,1.161596 0.51198,1.812497 -0.10784,0.329633 -0.40506,0.699483 -0.73044,0.909129 z"
         style="fill:#ffffff;fill-opacity:1;stroke-width:0.02991542" />
    </g>
    <rect
       y="243.01741"
       x="-180.59705"
       height="47.320942"
       width="385.28607"
       id="rect1222"
       style="opacity:1;fill:#252525;fill-opacity:1;stroke:none;stroke-width:2.9450376;stroke-linecap:round;stroke-miterlimit:4;stroke-dasharray:none;stroke-opacity:1" />
    <g
       id="g1669">
      <text
         transform="scale(1.0240891,0.97647754)"
         id="text4636"
         y="39.104095"
         x="-143.47925"
         style="font-style:normal;font-weight:normal;font-size:6.48228407px;line-height:1.25;font-family:sans-serif;letter-spacing:0px;word-spacing:0px;fill:#00d4ff;fill-opacity:1;stroke:none;stroke-width:0.16205713"
         xml:space="preserve"><tspan
           id="tspan4640"
           style="font-weight:bold;line-height:1;text-align:start;text-anchor:start;fill:#00d4ff;fill-opacity:1;stroke-width:0.16205713"
           y="39.104095"
           x="-143.47925"
           sodipodi:role="line">First Login</tspan></text>
      <text
         xml:space="preserve"
         style="font-style:normal;font-weight:normal;font-size:6.06927204px;line-height:1.25;font-family:sans-serif;letter-spacing:0px;word-spacing:0px;opacity:0.48600003;fill:#ffffff;fill-opacity:1;stroke:none;stroke-width:0.15173185"
         x="-143.43872"
         y="46.317268"
         id="text1303"
         transform="scale(1.0240891,0.97647754)"><tspan
           sodipodi:role="line"
           x="-143.43872"
           y="46.317268"
           style="font-weight:normal;line-height:1;text-align:start;text-anchor:start;fill:#ffffff;fill-opacity:1;stroke-width:0.15173185"
           id="tspan1301">Injecteren intramusculair </tspan><tspan
           id="tspan1657"
           sodipodi:role="line"
           x="-143.43872"
           y="53.903858"
           style="font-weight:normal;line-height:1;text-align:start;text-anchor:start;fill:#ffffff;fill-opacity:1;stroke-width:0.15173185">(loodrechttechniek)</tspan></text>
    </g>
    <circle
       style="opacity:1;vector-effect:none;fill:#1a1a1a;fill-opacity:1;stroke:#ffffff;stroke-width:0.87866759;stroke-linecap:butt;stroke-linejoin:round;stroke-miterlimit:4;stroke-dasharray:none;stroke-dashoffset:0;stroke-opacity:1"
       id="circle1653"
       cx="-166.27409"
       cy="102.66882"
       r="11.710429" />
    <path
       style="opacity:1;vector-effect:none;fill:#1a1a1a;fill-opacity:1;stroke:#ffffff;stroke-width:0.68501192;stroke-linecap:butt;stroke-linejoin:round;stroke-miterlimit:4;stroke-dasharray:none;stroke-dashoffset:0;stroke-opacity:1"
       d="m -166.27871,94.046443 c -1.01253,-0.02139 -1.92027,3.398549 -2.40455,5.440267 -1.07893,-0.02783 -5.83864,-0.454031 -6.21465,0.70315 -0.33797,1.04009 3.15412,2.70732 4.80507,3.85523 -0.82816,2.17909 -2.3513,5.64565 -1.21577,5.88344 1.74956,0.36637 3.78212,-2.00267 5.14783,-2.99347 1.27885,0.9921 3.64185,3.33847 4.92121,2.99347 1.06158,-0.28628 -0.3876,-3.70435 -1.21577,-5.88344 1.65096,-1.14791 5.14304,-2.81514 4.80507,-3.85523 -0.376,-1.157176 -5.13573,-0.730975 -6.21465,-0.70315 -0.50074,-1.916137 -1.19149,-5.414441 -2.41379,-5.440267 z"
       id="path1639"
       inkscape:connector-curvature="0"
       sodipodi:nodetypes="scscscscccs" />
    <path
       sodipodi:nodetypes="scscscscccs"
       inkscape:connector-curvature="0"
       id="path1655"
       d="m -166.27745,96.220478 c -0.73602,-0.01555 -1.39586,2.470429 -1.74788,3.954572 -0.78429,-0.0203 -4.24415,-0.330042 -4.51748,0.51112 -0.24567,0.75605 2.29276,1.96797 3.49284,2.80239 -0.60199,1.584 -1.70917,4.10387 -0.88375,4.27672 1.27176,0.26632 2.74925,-1.45575 3.74199,-2.17598 0.92961,0.72117 2.6473,2.42677 3.57727,2.17598 0.77167,-0.2081 -0.28175,-2.69272 -0.88375,-4.27672 1.20009,-0.83442 3.73851,-2.04634 3.49284,-2.80239 -0.27332,-0.841158 -3.7332,-0.53135 -4.51748,-0.51112 -0.36399,-1.392857 -0.8661,-3.935799 -1.7546,-3.954572 z"
       style="opacity:1;vector-effect:none;fill:#1a1a1a;fill-opacity:1;stroke:#ffffff;stroke-width:0.325;stroke-linecap:butt;stroke-linejoin:round;stroke-miterlimit:4;stroke-dasharray:none;stroke-dashoffset:0;stroke-opacity:1" />
    <g
       id="g1681"
       transform="translate(0,28.826587)">
      <text
         xml:space="preserve"
         style="font-style:normal;font-weight:normal;font-size:6.48228407px;line-height:1.25;font-family:sans-serif;letter-spacing:0px;word-spacing:0px;fill:#00d4ff;fill-opacity:1;stroke:none;stroke-width:0.16205713"
         x="-143.47925"
         y="39.104095"
         id="text1673"
         transform="scale(1.0240891,0.97647754)"><tspan
           sodipodi:role="line"
           x="-143.47925"
           y="39.104095"
           style="font-weight:bold;line-height:1;text-align:start;text-anchor:start;fill:#00d4ff;fill-opacity:1;stroke-width:0.16205713"
           id="tspan1671">Create Account</tspan></text>
      <text
         transform="scale(1.0240891,0.97647754)"
         id="text1679"
         y="46.317268"
         x="-143.43872"
         style="font-style:normal;font-weight:normal;font-size:6.06927204px;line-height:1.25;font-family:sans-serif;letter-spacing:0px;word-spacing:0px;opacity:0.48600003;fill:#ffffff;fill-opacity:1;stroke:none;stroke-width:0.15173185"
         xml:space="preserve"><tspan
           id="tspan1675"
           style="font-weight:normal;line-height:1;text-align:start;text-anchor:start;fill:#ffffff;fill-opacity:1;stroke-width:0.15173185"
           y="46.317268"
           x="-143.43872"
           sodipodi:role="line">Injecteren intramusculair </tspan><tspan
           style="font-weight:normal;line-height:1;text-align:start;text-anchor:start;fill:#ffffff;fill-opacity:1;stroke-width:0.15173185"
           y="53.903858"
           x="-143.43872"
           sodipodi:role="line"
           id="tspan1677">(loodrechttechniek)</tspan></text>
    </g>
    <g
       transform="translate(0,59.217022)"
       id="g1693">
      <text
         transform="scale(1.0240891,0.97647754)"
         id="text1685"
         y="39.104095"
         x="-143.47925"
         style="font-style:normal;font-weight:normal;font-size:6.48228407px;line-height:1.25;font-family:sans-serif;letter-spacing:0px;word-spacing:0px;fill:#00d4ff;fill-opacity:1;stroke:none;stroke-width:0.16205713"
         xml:space="preserve"><tspan
           id="tspan1683"
           style="font-weight:bold;line-height:1;text-align:start;text-anchor:start;fill:#00d4ff;fill-opacity:1;stroke-width:0.16205713"
           y="39.104095"
           x="-143.47925"
           sodipodi:role="line">Finish Protocol</tspan></text>
      <text
         xml:space="preserve"
         style="font-style:normal;font-weight:normal;font-size:6.06927204px;line-height:1.25;font-family:sans-serif;letter-spacing:0px;word-spacing:0px;opacity:0.48600003;fill:#ffffff;fill-opacity:1;stroke:none;stroke-width:0.15173185"
         x="-143.43872"
         y="46.317268"
         id="text1691"
         transform="scale(1.0240891,0.97647754)"><tspan
           sodipodi:role="line"
           x="-143.43872"
           y="46.317268"
           style="font-weight:normal;line-height:1;text-align:start;text-anchor:start;fill:#ffffff;fill-opacity:1;stroke-width:0.15173185"
           id="tspan1687">Injecteren intramusculair </tspan><tspan
           id="tspan1689"
           sodipodi:role="line"
           x="-143.43872"
           y="53.903858"
           style="font-weight:normal;line-height:1;text-align:start;text-anchor:start;fill:#ffffff;fill-opacity:1;stroke-width:0.15173185">(loodrechttechniek)</tspan></text>
      <text
         xml:space="preserve"
         style="font-style:normal;font-variant:normal;font-weight:normal;font-stretch:normal;font-size:25.39999962px;line-height:6.61458254px;font-family:sans-serif;-inkscape-font-specification:sans-serif;font-variant-ligatures:normal;font-variant-position:normal;font-variant-caps:normal;font-variant-numeric:normal;font-variant-alternates:normal;font-feature-settings:normal;text-indent:0;text-align:center;text-decoration:none;text-decoration-line:none;text-decoration-style:solid;text-decoration-color:#000000;letter-spacing:0px;word-spacing:0px;text-transform:none;writing-mode:lr-tb;direction:ltr;text-orientation:mixed;dominant-baseline:auto;baseline-shift:baseline;text-anchor:middle;white-space:normal;shape-padding:0;opacity:1;vector-effect:none;fill:#000000;fill-opacity:1;stroke:none;stroke-width:0.26458332px;stroke-linecap:butt;stroke-linejoin:miter;stroke-miterlimit:4;stroke-dasharray:none;stroke-dashoffset:0;stroke-opacity:1"
         x="-124.35416"
         y="35.641312"
         id="text1697"><tspan
           sodipodi:role="line"
           id="tspan1695"
           x="-124.35416"
           y="45.54665"
           style="stroke-width:0.26458332px"></tspan></text>
    </g>
    <g
       id="g1742">
      <g
         transform="matrix(1.3715086,0,0,1.4900626,67.093341,76.69817)"
         id="g4532">
        <rect
           ry="0"
           y="28.569103"
           x="-180.59703"
           height="20.289526"
           width="99.758202"
           id="rect4528"
           style="opacity:1;fill:#252525;fill-opacity:1;stroke:none;stroke-width:2.21360922;stroke-linecap:round;stroke-miterlimit:4;stroke-dasharray:none;stroke-opacity:1" />
        <rect
           y="47.541279"
           x="-180.59703"
           height="1.3173531"
           width="99.758003"
           id="rect4530"
           style="opacity:0.65;fill:#141414;fill-opacity:1;stroke:none;stroke-width:1.3421886;stroke-linecap:round;stroke-miterlimit:4;stroke-dasharray:none;stroke-opacity:1" />
      </g>
      <g
         style="opacity:0.173"
         id="g1724">
        <circle
           r="11.710429"
           cy="133.36049"
           cx="-166.27409"
           id="circle1699"
           style="opacity:1;vector-effect:none;fill:#1a1a1a;fill-opacity:1;stroke:#ffffff;stroke-width:0.87866759;stroke-linecap:butt;stroke-linejoin:round;stroke-miterlimit:4;stroke-dasharray:none;stroke-dashoffset:0;stroke-opacity:1" />
        <path
           sodipodi:nodetypes="scscscscccs"
           inkscape:connector-curvature="0"
           id="path1701"
           d="m -166.27871,124.73811 c -1.01253,-0.0214 -1.92027,3.39855 -2.40455,5.44027 -1.07893,-0.0278 -5.83864,-0.45403 -6.21465,0.70315 -0.33797,1.04009 3.15412,2.70732 4.80507,3.85523 -0.82816,2.17909 -2.3513,5.64565 -1.21577,5.88344 1.74956,0.36637 3.78212,-2.00267 5.14783,-2.99347 1.27885,0.9921 3.64185,3.33847 4.92121,2.99347 1.06158,-0.28628 -0.3876,-3.70435 -1.21577,-5.88344 1.65096,-1.14791 5.14304,-2.81514 4.80507,-3.85523 -0.376,-1.15718 -5.13573,-0.73098 -6.21465,-0.70315 -0.50074,-1.91614 -1.19149,-5.41444 -2.41379,-5.44027 z"
           style="opacity:1;vector-effect:none;fill:#1a1a1a;fill-opacity:1;stroke:#ffffff;stroke-width:0.68501192;stroke-linecap:butt;stroke-linejoin:round;stroke-miterlimit:4;stroke-dasharray:none;stroke-dashoffset:0;stroke-opacity:1" />
        <path
           style="opacity:1;vector-effect:none;fill:#1a1a1a;fill-opacity:1;stroke:#ffffff;stroke-width:0.32499999;stroke-linecap:butt;stroke-linejoin:round;stroke-miterlimit:4;stroke-dasharray:none;stroke-dashoffset:0;stroke-opacity:1"
           d="m -166.27745,126.91215 c -0.73602,-0.0156 -1.39586,2.47043 -1.74788,3.95457 -0.78429,-0.0203 -4.24415,-0.33004 -4.51748,0.51112 -0.24567,0.75605 2.29276,1.96797 3.49284,2.80239 -0.60199,1.584 -1.70917,4.10387 -0.88375,4.27672 1.27176,0.26632 2.74925,-1.45575 3.74199,-2.17598 0.92961,0.72117 2.6473,2.42677 3.57727,2.17598 0.77167,-0.2081 -0.28175,-2.69272 -0.88375,-4.27672 1.20009,-0.83442 3.73851,-2.04634 3.49284,-2.80239 -0.27332,-0.84116 -3.7332,-0.53135 -4.51748,-0.51112 -0.36399,-1.39286 -0.8661,-3.9358 -1.7546,-3.95457 z"
           id="path1703"
           inkscape:connector-curvature="0"
           sodipodi:nodetypes="scscscscccs" />
      </g>
      <g
         style="opacity:0.173"
         transform="translate(0,89.908689)"
         id="g1719">
        <text
           transform="scale(1.0240891,0.97647754)"
           id="text1707"
           y="39.104095"
           x="-143.47925"
           style="font-style:normal;font-weight:normal;font-size:6.48228407px;line-height:1.25;font-family:sans-serif;letter-spacing:0px;word-spacing:0px;fill:#00d4ff;fill-opacity:1;stroke:none;stroke-width:0.16205713"
           xml:space="preserve"><tspan
             id="tspan1705"
             style="font-weight:bold;line-height:1;text-align:start;text-anchor:start;fill:#00d4ff;fill-opacity:1;stroke-width:0.16205713"
             y="39.104095"
             x="-143.47925"
             sodipodi:role="line">Finish Protocol 5 min</tspan></text>
        <text
           xml:space="preserve"
           style="font-style:normal;font-weight:normal;font-size:6.06927204px;line-height:1.25;font-family:sans-serif;letter-spacing:0px;word-spacing:0px;opacity:0.48600003;fill:#ffffff;fill-opacity:1;stroke:none;stroke-width:0.15173185"
           x="-143.43872"
           y="46.317268"
           id="text1713"
           transform="scale(1.0240891,0.97647754)"><tspan
             sodipodi:role="line"
             x="-143.43872"
             y="46.317268"
             style="font-weight:normal;line-height:1;text-align:start;text-anchor:start;fill:#ffffff;fill-opacity:1;stroke-width:0.15173185"
             id="tspan1709">Injecteren intramusculair </tspan><tspan
             id="tspan1711"
             sodipodi:role="line"
             x="-143.43872"
             y="53.903858"
             style="font-weight:normal;line-height:1;text-align:start;text-anchor:start;fill:#ffffff;fill-opacity:1;stroke-width:0.15173185">(loodrechttechniek)</tspan></text>
        <text
           xml:space="preserve"
           style="font-style:normal;font-variant:normal;font-weight:normal;font-stretch:normal;font-size:25.39999962px;line-height:6.61458254px;font-family:sans-serif;-inkscape-font-specification:sans-serif;font-variant-ligatures:normal;font-variant-position:normal;font-variant-caps:normal;font-variant-numeric:normal;font-variant-alternates:normal;font-feature-settings:normal;text-indent:0;text-align:center;text-decoration:none;text-decoration-line:none;text-decoration-style:solid;text-decoration-color:#000000;letter-spacing:0px;word-spacing:0px;text-transform:none;writing-mode:lr-tb;direction:ltr;text-orientation:mixed;dominant-baseline:auto;baseline-shift:baseline;text-anchor:middle;white-space:normal;shape-padding:0;opacity:1;vector-effect:none;fill:#000000;fill-opacity:1;stroke:none;stroke-width:0.26458332px;stroke-linecap:butt;stroke-linejoin:miter;stroke-miterlimit:4;stroke-dasharray:none;stroke-dashoffset:0;stroke-opacity:1"
           x="-124.35416"
           y="35.641312"
           id="text1717"><tspan
             sodipodi:role="line"
             id="tspan1715"
             x="-124.35416"
             y="45.54665"
             style="stroke-width:0.26458332px"></tspan></text>
      </g>
    </g>
    <g
       id="g1774"
       transform="translate(0,30.232668)">
      <g
         id="g1748"
         transform="matrix(1.3715086,0,0,1.4900626,67.093341,76.69817)">
        <rect
           style="opacity:1;fill:#252525;fill-opacity:1;stroke:none;stroke-width:2.21360922;stroke-linecap:round;stroke-miterlimit:4;stroke-dasharray:none;stroke-opacity:1"
           id="rect1744"
           width="99.758202"
           height="20.289526"
           x="-180.59703"
           y="28.569103"
           ry="0" />
        <rect
           style="opacity:0.65;fill:#141414;fill-opacity:1;stroke:none;stroke-width:1.3421886;stroke-linecap:round;stroke-miterlimit:4;stroke-dasharray:none;stroke-opacity:1"
           id="rect1746"
           width="99.758003"
           height="1.3173531"
           x="-180.59703"
           y="47.541279" />
      </g>
      <g
         id="g1756"
         style="opacity:0.17300002">
        <circle
           style="opacity:1;vector-effect:none;fill:#1a1a1a;fill-opacity:1;stroke:#ffffff;stroke-width:0.87866759;stroke-linecap:butt;stroke-linejoin:round;stroke-miterlimit:4;stroke-dasharray:none;stroke-dashoffset:0;stroke-opacity:1"
           id="circle1750"
           cx="-166.27409"
           cy="133.36049"
           r="11.710429" />
        <path
           style="opacity:1;vector-effect:none;fill:#1a1a1a;fill-opacity:1;stroke:#ffffff;stroke-width:0.68501192;stroke-linecap:butt;stroke-linejoin:round;stroke-miterlimit:4;stroke-dasharray:none;stroke-dashoffset:0;stroke-opacity:1"
           d="m -166.27871,124.73811 c -1.01253,-0.0214 -1.92027,3.39855 -2.40455,5.44027 -1.07893,-0.0278 -5.83864,-0.45403 -6.21465,0.70315 -0.33797,1.04009 3.15412,2.70732 4.80507,3.85523 -0.82816,2.17909 -2.3513,5.64565 -1.21577,5.88344 1.74956,0.36637 3.78212,-2.00267 5.14783,-2.99347 1.27885,0.9921 3.64185,3.33847 4.92121,2.99347 1.06158,-0.28628 -0.3876,-3.70435 -1.21577,-5.88344 1.65096,-1.14791 5.14304,-2.81514 4.80507,-3.85523 -0.376,-1.15718 -5.13573,-0.73098 -6.21465,-0.70315 -0.50074,-1.91614 -1.19149,-5.41444 -2.41379,-5.44027 z"
           id="path1752"
           inkscape:connector-curvature="0"
           sodipodi:nodetypes="scscscscccs" />
        <path
           sodipodi:nodetypes="scscscscccs"
           inkscape:connector-curvature="0"
           id="path1754"
           d="m -166.27745,126.91215 c -0.73602,-0.0156 -1.39586,2.47043 -1.74788,3.95457 -0.78429,-0.0203 -4.24415,-0.33004 -4.51748,0.51112 -0.24567,0.75605 2.29276,1.96797 3.49284,2.80239 -0.60199,1.584 -1.70917,4.10387 -0.88375,4.27672 1.27176,0.26632 2.74925,-1.45575 3.74199,-2.17598 0.92961,0.72117 2.6473,2.42677 3.57727,2.17598 0.77167,-0.2081 -0.28175,-2.69272 -0.88375,-4.27672 1.20009,-0.83442 3.73851,-2.04634 3.49284,-2.80239 -0.27332,-0.84116 -3.7332,-0.53135 -4.51748,-0.51112 -0.36399,-1.39286 -0.8661,-3.9358 -1.7546,-3.95457 z"
           style="opacity:1;vector-effect:none;fill:#1a1a1a;fill-opacity:1;stroke:#ffffff;stroke-width:0.32499999;stroke-linecap:butt;stroke-linejoin:round;stroke-miterlimit:4;stroke-dasharray:none;stroke-dashoffset:0;stroke-opacity:1" />
      </g>
      <g
         id="g1772"
         transform="translate(0,89.908689)"
         style="opacity:0.17300002">
        <text
           xml:space="preserve"
           style="font-style:normal;font-weight:normal;font-size:6.48228407px;line-height:1.25;font-family:sans-serif;letter-spacing:0px;word-spacing:0px;fill:#00d4ff;fill-opacity:1;stroke:none;stroke-width:0.16205713"
           x="-143.47925"
           y="39.104095"
           id="text1760"
           transform="scale(1.0240891,0.97647754)"><tspan
             sodipodi:role="line"
             x="-143.47925"
             y="39.104095"
             style="font-weight:bold;line-height:1;text-align:start;text-anchor:start;fill:#00d4ff;fill-opacity:1;stroke-width:0.16205713"
             id="tspan1758">Finish Protocol 10 min</tspan></text>
        <text
           transform="scale(1.0240891,0.97647754)"
           id="text1766"
           y="46.317268"
           x="-143.43872"
           style="font-style:normal;font-weight:normal;font-size:6.06927204px;line-height:1.25;font-family:sans-serif;letter-spacing:0px;word-spacing:0px;opacity:0.48600003;fill:#ffffff;fill-opacity:1;stroke:none;stroke-width:0.15173185"
           xml:space="preserve"><tspan
             id="tspan1762"
             style="font-weight:normal;line-height:1;text-align:start;text-anchor:start;fill:#ffffff;fill-opacity:1;stroke-width:0.15173185"
             y="46.317268"
             x="-143.43872"
             sodipodi:role="line">Injecteren intramusculair </tspan><tspan
             style="font-weight:normal;line-height:1;text-align:start;text-anchor:start;fill:#ffffff;fill-opacity:1;stroke-width:0.15173185"
             y="53.903858"
             x="-143.43872"
             sodipodi:role="line"
             id="tspan1764">(loodrechttechniek)</tspan></text>
        <text
           id="text1770"
           y="35.641312"
           x="-124.35416"
           style="font-style:normal;font-variant:normal;font-weight:normal;font-stretch:normal;font-size:25.39999962px;line-height:6.61458254px;font-family:sans-serif;-inkscape-font-specification:sans-serif;font-variant-ligatures:normal;font-variant-position:normal;font-variant-caps:normal;font-variant-numeric:normal;font-variant-alternates:normal;font-feature-settings:normal;text-indent:0;text-align:center;text-decoration:none;text-decoration-line:none;text-decoration-style:solid;text-decoration-color:#000000;letter-spacing:0px;word-spacing:0px;text-transform:none;writing-mode:lr-tb;direction:ltr;text-orientation:mixed;dominant-baseline:auto;baseline-shift:baseline;text-anchor:middle;white-space:normal;shape-padding:0;opacity:1;vector-effect:none;fill:#000000;fill-opacity:1;stroke:none;stroke-width:0.26458332px;stroke-linecap:butt;stroke-linejoin:miter;stroke-miterlimit:4;stroke-dasharray:none;stroke-dashoffset:0;stroke-opacity:1"
           xml:space="preserve"><tspan
             style="stroke-width:0.26458332px"
             y="45.54665"
             x="-124.35416"
             id="tspan1768"
             sodipodi:role="line"></tspan></text>
      </g>
    </g>
    <g
       transform="translate(0,60.465336)"
       id="g1806">
      <g
         transform="matrix(1.3715086,0,0,1.4900626,67.093341,76.69817)"
         id="g1780">
        <rect
           ry="0"
           y="28.569103"
           x="-180.59703"
           height="20.289526"
           width="99.758202"
           id="rect1776"
           style="opacity:1;fill:#252525;fill-opacity:1;stroke:none;stroke-width:2.21360922;stroke-linecap:round;stroke-miterlimit:4;stroke-dasharray:none;stroke-opacity:1" />
        <rect
           y="47.541279"
           x="-180.59703"
           height="1.3173531"
           width="99.758003"
           id="rect1778"
           style="opacity:0.65;fill:#141414;fill-opacity:1;stroke:none;stroke-width:1.3421886;stroke-linecap:round;stroke-miterlimit:4;stroke-dasharray:none;stroke-opacity:1" />
      </g>
      <g
         style="opacity:0.17300002"
         id="g1788">
        <circle
           r="11.710429"
           cy="133.36049"
           cx="-166.27409"
           id="circle1782"
           style="opacity:1;vector-effect:none;fill:#1a1a1a;fill-opacity:1;stroke:#ffffff;stroke-width:0.87866759;stroke-linecap:butt;stroke-linejoin:round;stroke-miterlimit:4;stroke-dasharray:none;stroke-dashoffset:0;stroke-opacity:1" />
        <path
           sodipodi:nodetypes="scscscscccs"
           inkscape:connector-curvature="0"
           id="path1784"
           d="m -166.27871,124.73811 c -1.01253,-0.0214 -1.92027,3.39855 -2.40455,5.44027 -1.07893,-0.0278 -5.83864,-0.45403 -6.21465,0.70315 -0.33797,1.04009 3.15412,2.70732 4.80507,3.85523 -0.82816,2.17909 -2.3513,5.64565 -1.21577,5.88344 1.74956,0.36637 3.78212,-2.00267 5.14783,-2.99347 1.27885,0.9921 3.64185,3.33847 4.92121,2.99347 1.06158,-0.28628 -0.3876,-3.70435 -1.21577,-5.88344 1.65096,-1.14791 5.14304,-2.81514 4.80507,-3.85523 -0.376,-1.15718 -5.13573,-0.73098 -6.21465,-0.70315 -0.50074,-1.91614 -1.19149,-5.41444 -2.41379,-5.44027 z"
           style="opacity:1;vector-effect:none;fill:#1a1a1a;fill-opacity:1;stroke:#ffffff;stroke-width:0.68501192;stroke-linecap:butt;stroke-linejoin:round;stroke-miterlimit:4;stroke-dasharray:none;stroke-dashoffset:0;stroke-opacity:1" />
        <path
           style="opacity:1;vector-effect:none;fill:#1a1a1a;fill-opacity:1;stroke:#ffffff;stroke-width:0.32499999;stroke-linecap:butt;stroke-linejoin:round;stroke-miterlimit:4;stroke-dasharray:none;stroke-dashoffset:0;stroke-opacity:1"
           d="m -166.27745,126.91215 c -0.73602,-0.0156 -1.39586,2.47043 -1.74788,3.95457 -0.78429,-0.0203 -4.24415,-0.33004 -4.51748,0.51112 -0.24567,0.75605 2.29276,1.96797 3.49284,2.80239 -0.60199,1.584 -1.70917,4.10387 -0.88375,4.27672 1.27176,0.26632 2.74925,-1.45575 3.74199,-2.17598 0.92961,0.72117 2.6473,2.42677 3.57727,2.17598 0.77167,-0.2081 -0.28175,-2.69272 -0.88375,-4.27672 1.20009,-0.83442 3.73851,-2.04634 3.49284,-2.80239 -0.27332,-0.84116 -3.7332,-0.53135 -4.51748,-0.51112 -0.36399,-1.39286 -0.8661,-3.9358 -1.7546,-3.95457 z"
           id="path1786"
           inkscape:connector-curvature="0"
           sodipodi:nodetypes="scscscscccs" />
      </g>
      <g
         style="opacity:0.17300002"
         transform="translate(0,89.908689)"
         id="g1804">
        <text
           transform="scale(1.0240891,0.97647754)"
           id="text1792"
           y="39.104095"
           x="-143.47925"
           style="font-style:normal;font-weight:normal;font-size:6.48228407px;line-height:1.25;font-family:sans-serif;letter-spacing:0px;word-spacing:0px;fill:#00d4ff;fill-opacity:1;stroke:none;stroke-width:0.16205713"
           xml:space="preserve"><tspan
             id="tspan1790"
             style="font-weight:bold;line-height:1;text-align:start;text-anchor:start;fill:#00d4ff;fill-opacity:1;stroke-width:0.16205713"
             y="39.104095"
             x="-143.47925"
             sodipodi:role="line">Finish 3 Protocols</tspan></text>
        <text
           xml:space="preserve"
           style="font-style:normal;font-weight:normal;font-size:6.06927204px;line-height:1.25;font-family:sans-serif;letter-spacing:0px;word-spacing:0px;opacity:0.48600003;fill:#ffffff;fill-opacity:1;stroke:none;stroke-width:0.15173185"
           x="-143.43872"
           y="46.317268"
           id="text1798"
           transform="scale(1.0240891,0.97647754)"><tspan
             sodipodi:role="line"
             x="-143.43872"
             y="46.317268"
             style="font-weight:normal;line-height:1;text-align:start;text-anchor:start;fill:#ffffff;fill-opacity:1;stroke-width:0.15173185"
             id="tspan1794">Injecteren intramusculair </tspan><tspan
             id="tspan1796"
             sodipodi:role="line"
             x="-143.43872"
             y="53.903858"
             style="font-weight:normal;line-height:1;text-align:start;text-anchor:start;fill:#ffffff;fill-opacity:1;stroke-width:0.15173185">(loodrechttechniek)</tspan></text>
        <text
           xml:space="preserve"
           style="font-style:normal;font-variant:normal;font-weight:normal;font-stretch:normal;font-size:25.39999962px;line-height:6.61458254px;font-family:sans-serif;-inkscape-font-specification:sans-serif;font-variant-ligatures:normal;font-variant-position:normal;font-variant-caps:normal;font-variant-numeric:normal;font-variant-alternates:normal;font-feature-settings:normal;text-indent:0;text-align:center;text-decoration:none;text-decoration-line:none;text-decoration-style:solid;text-decoration-color:#000000;letter-spacing:0px;word-spacing:0px;text-transform:none;writing-mode:lr-tb;direction:ltr;text-orientation:mixed;dominant-baseline:auto;baseline-shift:baseline;text-anchor:middle;white-space:normal;shape-padding:0;opacity:1;vector-effect:none;fill:#000000;fill-opacity:1;stroke:none;stroke-width:0.26458332px;stroke-linecap:butt;stroke-linejoin:miter;stroke-miterlimit:4;stroke-dasharray:none;stroke-dashoffset:0;stroke-opacity:1"
           x="-124.35416"
           y="35.641312"
           id="text1802"><tspan
             sodipodi:role="line"
             id="tspan1800"
             x="-124.35416"
             y="45.54665"
             style="stroke-width:0.26458332px"></tspan></text>
        <text
           xml:space="preserve"
           style="font-style:normal;font-variant:normal;font-weight:normal;font-stretch:normal;font-size:25.39999962px;line-height:6.61458254px;font-family:sans-serif;-inkscape-font-specification:sans-serif;font-variant-ligatures:normal;font-variant-position:normal;font-variant-caps:normal;font-variant-numeric:normal;font-variant-alternates:normal;font-feature-settings:normal;text-indent:0;text-align:center;text-decoration:none;text-decoration-line:none;text-decoration-style:solid;text-decoration-color:#000000;letter-spacing:0px;word-spacing:0px;text-transform:none;writing-mode:lr-tb;direction:ltr;text-orientation:mixed;dominant-baseline:auto;baseline-shift:baseline;text-anchor:middle;white-space:normal;shape-padding:0;opacity:1;vector-effect:none;fill:#000000;fill-opacity:1;stroke:none;stroke-width:0.26458332px;stroke-linecap:butt;stroke-linejoin:miter;stroke-miterlimit:4;stroke-dasharray:none;stroke-dashoffset:0;stroke-opacity:1"
           x="-117.475"
           y="36.030151"
           id="text1891"><tspan
             sodipodi:role="line"
             id="tspan1889"
             x="-117.475"
             y="45.93549"
             style="stroke-width:0.26458332px"></tspan></text>
      </g>
    </g>
    <g
       id="g1838"
       transform="translate(0,90.698004)">
      <g
         id="g1812"
         transform="matrix(1.3715086,0,0,1.4900626,67.093341,76.69817)">
        <rect
           style="opacity:1;fill:#252525;fill-opacity:1;stroke:none;stroke-width:2.21360922;stroke-linecap:round;stroke-miterlimit:4;stroke-dasharray:none;stroke-opacity:1"
           id="rect1808"
           width="99.758202"
           height="20.289526"
           x="-180.59703"
           y="28.569103"
           ry="0" />
        <rect
           style="opacity:0.65;fill:#141414;fill-opacity:1;stroke:none;stroke-width:1.3421886;stroke-linecap:round;stroke-miterlimit:4;stroke-dasharray:none;stroke-opacity:1"
           id="rect1810"
           width="99.758003"
           height="1.3173531"
           x="-180.59703"
           y="47.541279" />
      </g>
      <g
         id="g1820"
         style="opacity:0.17300002">
        <circle
           style="opacity:1;vector-effect:none;fill:#1a1a1a;fill-opacity:1;stroke:#ffffff;stroke-width:0.87866759;stroke-linecap:butt;stroke-linejoin:round;stroke-miterlimit:4;stroke-dasharray:none;stroke-dashoffset:0;stroke-opacity:1"
           id="circle1814"
           cx="-166.27409"
           cy="133.36049"
           r="11.710429" />
        <path
           style="opacity:1;vector-effect:none;fill:#1a1a1a;fill-opacity:1;stroke:#ffffff;stroke-width:0.68501192;stroke-linecap:butt;stroke-linejoin:round;stroke-miterlimit:4;stroke-dasharray:none;stroke-dashoffset:0;stroke-opacity:1"
           d="m -166.27871,124.73811 c -1.01253,-0.0214 -1.92027,3.39855 -2.40455,5.44027 -1.07893,-0.0278 -5.83864,-0.45403 -6.21465,0.70315 -0.33797,1.04009 3.15412,2.70732 4.80507,3.85523 -0.82816,2.17909 -2.3513,5.64565 -1.21577,5.88344 1.74956,0.36637 3.78212,-2.00267 5.14783,-2.99347 1.27885,0.9921 3.64185,3.33847 4.92121,2.99347 1.06158,-0.28628 -0.3876,-3.70435 -1.21577,-5.88344 1.65096,-1.14791 5.14304,-2.81514 4.80507,-3.85523 -0.376,-1.15718 -5.13573,-0.73098 -6.21465,-0.70315 -0.50074,-1.91614 -1.19149,-5.41444 -2.41379,-5.44027 z"
           id="path1816"
           inkscape:connector-curvature="0"
           sodipodi:nodetypes="scscscscccs" />
        <path
           sodipodi:nodetypes="scscscscccs"
           inkscape:connector-curvature="0"
           id="path1818"
           d="m -166.27745,126.91215 c -0.73602,-0.0156 -1.39586,2.47043 -1.74788,3.95457 -0.78429,-0.0203 -4.24415,-0.33004 -4.51748,0.51112 -0.24567,0.75605 2.29276,1.96797 3.49284,2.80239 -0.60199,1.584 -1.70917,4.10387 -0.88375,4.27672 1.27176,0.26632 2.74925,-1.45575 3.74199,-2.17598 0.92961,0.72117 2.6473,2.42677 3.57727,2.17598 0.77167,-0.2081 -0.28175,-2.69272 -0.88375,-4.27672 1.20009,-0.83442 3.73851,-2.04634 3.49284,-2.80239 -0.27332,-0.84116 -3.7332,-0.53135 -4.51748,-0.51112 -0.36399,-1.39286 -0.8661,-3.9358 -1.7546,-3.95457 z"
           style="opacity:1;vector-effect:none;fill:#1a1a1a;fill-opacity:1;stroke:#ffffff;stroke-width:0.32499999;stroke-linecap:butt;stroke-linejoin:round;stroke-miterlimit:4;stroke-dasharray:none;stroke-dashoffset:0;stroke-opacity:1" />
      </g>
      <g
         id="g1836"
         transform="translate(0,89.908689)"
         style="opacity:0.17300002">
        <text
           xml:space="preserve"
           style="font-style:normal;font-weight:normal;font-size:6.48228407px;line-height:1.25;font-family:sans-serif;letter-spacing:0px;word-spacing:0px;fill:#00d4ff;fill-opacity:1;stroke:none;stroke-width:0.16205713"
           x="-143.47925"
           y="39.104095"
           id="text1824"
           transform="scale(1.0240891,0.97647754)"><tspan
             sodipodi:role="line"
             x="-143.47925"
             y="39.104095"
             style="font-weight:bold;line-height:1;text-align:start;text-anchor:start;fill:#00d4ff;fill-opacity:1;stroke-width:0.16205713"
             id="tspan1822">Finish 5 Protocols</tspan></text>
        <text
           transform="scale(1.0240891,0.97647754)"
           id="text1830"
           y="46.317268"
           x="-143.43872"
           style="font-style:normal;font-weight:normal;font-size:6.06927204px;line-height:1.25;font-family:sans-serif;letter-spacing:0px;word-spacing:0px;opacity:0.48600003;fill:#ffffff;fill-opacity:1;stroke:none;stroke-width:0.15173185"
           xml:space="preserve"><tspan
             id="tspan1826"
             style="font-weight:normal;line-height:1;text-align:start;text-anchor:start;fill:#ffffff;fill-opacity:1;stroke-width:0.15173185"
             y="46.317268"
             x="-143.43872"
             sodipodi:role="line">Injecteren intramusculair </tspan><tspan
             style="font-weight:normal;line-height:1;text-align:start;text-anchor:start;fill:#ffffff;fill-opacity:1;stroke-width:0.15173185"
             y="53.903858"
             x="-143.43872"
             sodipodi:role="line"
             id="tspan1828">(loodrechttechniek)</tspan></text>
        <text
           id="text1834"
           y="35.641312"
           x="-124.35416"
           style="font-style:normal;font-variant:normal;font-weight:normal;font-stretch:normal;font-size:25.39999962px;line-height:6.61458254px;font-family:sans-serif;-inkscape-font-specification:sans-serif;font-variant-ligatures:normal;font-variant-position:normal;font-variant-caps:normal;font-variant-numeric:normal;font-variant-alternates:normal;font-feature-settings:normal;text-indent:0;text-align:center;text-decoration:none;text-decoration-line:none;text-decoration-style:solid;text-decoration-color:#000000;letter-spacing:0px;word-spacing:0px;text-transform:none;writing-mode:lr-tb;direction:ltr;text-orientation:mixed;dominant-baseline:auto;baseline-shift:baseline;text-anchor:middle;white-space:normal;shape-padding:0;opacity:1;vector-effect:none;fill:#000000;fill-opacity:1;stroke:none;stroke-width:0.26458332px;stroke-linecap:butt;stroke-linejoin:miter;stroke-miterlimit:4;stroke-dasharray:none;stroke-dashoffset:0;stroke-opacity:1"
           xml:space="preserve"><tspan
             style="stroke-width:0.26458332px"
             y="45.54665"
             x="-124.35416"
             id="tspan1832"
             sodipodi:role="line"></tspan></text>
      </g>
    </g>
    <rect
       y="288.37543"
       x="-180.59705"
       height="1.9629387"
       width="385.28601"
       id="rect1842"
       style="opacity:0.65;fill:#1a1a1a;fill-opacity:1;stroke:none;stroke-width:3.21983433;stroke-linecap:round;stroke-miterlimit:4;stroke-dasharray:none;stroke-opacity:1" />
    <rect
       style="opacity:0.207;fill:#ffffff;fill-opacity:1;stroke:none;stroke-width:2.29815936;stroke-linecap:round;stroke-miterlimit:4;stroke-dasharray:none;stroke-opacity:1"
       id="rect1893"
       width="385.28601"
       height="1"
       x="-180.59705"
       y="243.01741" />
    <g
       id="g1941"
       transform="translate(81.756256)">
      <circle
         r="11.710429"
         cy="72.222755"
         cx="-248.03035"
         id="circle1923"
         style="opacity:1;vector-effect:none;fill:#1a1a1a;fill-opacity:1;stroke:#ffffff;stroke-width:0.87866759;stroke-linecap:butt;stroke-linejoin:round;stroke-miterlimit:4;stroke-dasharray:none;stroke-dashoffset:0;stroke-opacity:1" />
      <g
         transform="matrix(0.24513048,0,0,0.24513048,-189.3236,44.275571)"
         id="g1915">
        <ellipse
           style="opacity:1;vector-effect:none;fill:#ffffff;fill-opacity:1;stroke:none;stroke-width:0.34155592;stroke-linecap:butt;stroke-linejoin:round;stroke-miterlimit:4;stroke-dasharray:none;stroke-dashoffset:0;stroke-opacity:1"
           id="path1906"
           cx="-239.49197"
           cy="103.7374"
           rx="12.534941"
           ry="13.844562" />
        <path
           inkscape:connector-curvature="0"
           style="opacity:1;vector-effect:none;fill:#ffffff;fill-opacity:1;stroke:none;stroke-width:3.47361088;stroke-linecap:butt;stroke-linejoin:round;stroke-miterlimit:4;stroke-dasharray:none;stroke-dashoffset:0;stroke-opacity:1"
           d="m -905.16602,454.30469 a 131.52186,136.47161 0 0 0 -105.68948,55.50781 131.52186,136.47161 0 0 0 105.68948,55.50781 131.52186,136.47161 0 0 0 105.68946,-55.50976 131.52186,136.47161 0 0 0 -105.68946,-55.50586 z"
           transform="scale(0.26458333)"
           id="circle1908" />
      </g>
    </g>
    <g
       id="g1951"
       transform="translate(-85.68661,28.0633)">
      <circle
         r="11.710429"
         cy="72.222755"
         cx="-166.27409"
         id="circle1943"
         style="opacity:1;vector-effect:none;fill:#1a1a1a;fill-opacity:1;stroke:#ffffff;stroke-width:0.87866759;stroke-linecap:butt;stroke-linejoin:round;stroke-miterlimit:4;stroke-dasharray:none;stroke-dashoffset:0;stroke-opacity:1" />
      <circle
         style="opacity:1;fill:#1a1a1a;fill-opacity:1;stroke:#ffffff;stroke-width:0.66478908;stroke-linecap:round;stroke-linejoin:round;stroke-miterlimit:4;stroke-dasharray:none;stroke-opacity:1"
         id="circle1945"
         cx="-158.88136"
         cy="79.615486"
         r="4.424634" />
      <path
         style="opacity:1;fill:#ffffff;fill-opacity:1;stroke:none;stroke-width:11.5178175;stroke-linecap:round;stroke-miterlimit:4;stroke-dasharray:none;stroke-opacity:1"
         d="m 629.76367,-301.20703 v 20.16601 h -115.8351 v 50 h 115.8351 v 19.67774 l 89.60352,-44.92188 z"
         id="path1947"
         inkscape:connector-curvature="0"
         sodipodi:nodetypes="cccccccc"
         transform="matrix(0.08660579,0,0,0.08660579,-223.17175,90.435358)"
         clip-path="url(#clipPath1626)" />
      <path
         style="font-style:normal;font-variant:normal;font-weight:normal;font-stretch:normal;font-size:8.3679409px;line-height:2.17915106px;font-family:sans-serif;-inkscape-font-specification:sans-serif;font-variant-ligatures:normal;font-variant-position:normal;font-variant-caps:normal;font-variant-numeric:normal;font-variant-alternates:normal;font-feature-settings:normal;text-indent:0;text-align:center;text-decoration:none;text-decoration-line:none;text-decoration-style:solid;text-decoration-color:#000000;letter-spacing:0px;word-spacing:0px;text-transform:none;writing-mode:lr-tb;direction:ltr;text-orientation:mixed;dominant-baseline:auto;baseline-shift:baseline;text-anchor:middle;white-space:normal;shape-padding:0;opacity:1;vector-effect:none;fill:#ffffff;fill-opacity:1;stroke:none;stroke-width:0.32944652px;stroke-linecap:butt;stroke-linejoin:miter;stroke-miterlimit:4;stroke-dasharray:none;stroke-dashoffset:0;stroke-opacity:1"
         d="m -603.40625,298.37695 h 1.51758 v 11.79883 h 4.30273 v -18.5332 z"
         transform="scale(0.26458333)"
         id="path1949"
         inkscape:connector-curvature="0"
         sodipodi:nodetypes="cccccc" />
    </g>
  </g>
</svg>
