<?xml version="1.0" encoding="UTF-8" standalone="no"?>
<!-- Created with Inkscape (http://www.inkscape.org/) -->

<svg
   xmlns:dc="http://purl.org/dc/elements/1.1/"
   xmlns:cc="http://creativecommons.org/ns#"
   xmlns:rdf="http://www.w3.org/1999/02/22-rdf-syntax-ns#"
   xmlns:svg="http://www.w3.org/2000/svg"
   xmlns="http://www.w3.org/2000/svg"
   xmlns:sodipodi="http://sodipodi.sourceforge.net/DTD/sodipodi-0.dtd"
   xmlns:inkscape="http://www.inkscape.org/namespaces/inkscape"
   width="69.760849mm"
   height="69.760849mm"
   viewBox="0 0 69.760849 69.760849"
   version="1.1"
   id="svg8"
   inkscape:version="0.92.4 (5da689c313, 2019-01-14)"
   sodipodi:docname="care_up_logo_w.svg">
  <defs
     id="defs2" />
  <sodipodi:namedview
     id="base"
     pagecolor="#353535"
     bordercolor="#666666"
     borderopacity="1.0"
     inkscape:pageopacity="0"
     inkscape:pageshadow="2"
     inkscape:zoom="0.98994949"
     inkscape:cx="7.3215813"
     inkscape:cy="138.61543"
     inkscape:document-units="mm"
     inkscape:current-layer="layer1"
     showgrid="false"
     inkscape:snap-bbox="true"
     inkscape:bbox-paths="true"
     inkscape:bbox-nodes="true"
     inkscape:object-paths="true"
     inkscape:snap-page="true"
     showguides="true"
     inkscape:guide-bbox="true"
     inkscape:snap-bbox-edge-midpoints="true"
     inkscape:snap-bbox-midpoints="true"
     inkscape:snap-smooth-nodes="true"
     inkscape:snap-intersection-paths="true"
     inkscape:snap-global="false"
     inkscape:window-width="1920"
     inkscape:window-height="1017"
     inkscape:window-x="-8"
     inkscape:window-y="-8"
     inkscape:window-maximized="1"
     fit-margin-top="0"
     fit-margin-left="0"
     fit-margin-right="0"
     fit-margin-bottom="0" />
  <metadata
     id="metadata5">
    <rdf:RDF>
      <cc:Work
         rdf:about="">
        <dc:format>image/svg+xml</dc:format>
        <dc:type
           rdf:resource="http://purl.org/dc/dcmitype/StillImage" />
        <dc:title></dc:title>
      </cc:Work>
    </rdf:RDF>
  </metadata>
  <g
     inkscape:label="Layer 1"
     inkscape:groupmode="layer"
     id="layer1"
     transform="translate(260.97526,-115.17548)">
    <path
       style="fill:#ffffff;stroke-width:1.00000012"
       d="m -856.23828,435.47461 c -1.41405,0.0402 -2.8613,0.27927 -4.83008,0.68359 -3.24574,0.6666 -9.09571,2.47059 -13,4.00977 -3.00066,1.18294 -9.29478,3.44533 -15.54687,5.60547 l -2.44922,2.58984 c 12.83451,3.09686 25.39759,5.31226 38.2207,9.95703 13.32692,-4.33581 24.64572,-7.03017 38.22461,-9.95703 l -2.73242,-2.89062 c -5.04949,-1.8088 -11.5728,-3.7303 -22.77149,-6.75977 -1.73816,-0.51361 -3.36687,-0.95817 -4.89453,-1.32617 -0.43502,-0.11613 -0.70043,-0.19125 -1.14844,-0.31055 -4.44822,-1.1845 -6.71552,-1.66853 -9.07226,-1.60156 z m -50.65234,16.38477 c -8.5303,3.24364 -16.77967,6.85753 -27.5918,12.03906 -8.0403,3.85315 -11.9382,8.26039 -19.42578,21.97656 -2.0573,3.76865 -6.19319,10.90163 -9.19336,15.85156 1.7424,-0.91621 7.11469,-3.7323 14.47656,-7.35156 7.75812,-3.81407 16.54113,-7.94654 22.75781,-10.12695 7.40155,-11.78411 14.30942,-21.044 22.81446,-31.93164 z m 105.01953,0.1289 -2.75977,0.32813 c 7.82859,10.54456 15.97605,20.2257 22.81445,31.93359 13.22522,5.23985 23.82826,10.45853 36.35157,17.01758 -0.02,-0.0504 -0.069,-0.14607 -0.0859,-0.19141 -1.3107,-3.50109 -18.5645,-29.56029 -21.96094,-33.16797 -3.7965,-4.0326 -7.96911,-6.3948 -16.28906,-9.22461 -4.91272,-1.67093 -11.2509,-4.03373 -18.07031,-6.69531 z m -93.5633,4.36877 -0.33868,0.35961 c -7.41165,9.6449 -14.11878,18.15359 -20.8543,28.414 0.65132,-0.0412 1.31723,-0.0664 1.99789,-0.0743 1.61905,-0.0166 3.31706,0.063 5.06517,0.21693 4.66165,0.41025 9.6907,1.34815 14.61894,2.42222 4.37625,0.9538 8.51601,2.02658 12.12631,3.08628 2.06599,-3.08896 4.51945,-6.51588 7.2286,-10.00283 4.74878,-6.11229 9.89954,-12.13285 15.04137,-15.84814 -11.86229,-3.4578 -22.34165,-5.94017 -34.58656,-8.5377 z m 83.18508,0 -0.31586,0.0381 c -11.98469,2.68217 -22.70656,4.93827 -34.57514,8.53771 5.14275,3.71603 10.2975,9.73534 15.04517,15.84623 2.70915,3.48696 5.16412,6.91237 7.2305,10.00092 3.60796,-1.05925 7.74437,-2.13097 12.11871,-3.08437 4.92824,-1.0741 9.96299,-2.01196 14.62465,-2.42222 1.7481,-0.15389 3.44363,-0.23534 5.06136,-0.21692 0.68018,0.008 1.34701,0.0323 1.99789,0.0743 -6.82679,-10.15591 -13.21433,-18.71295 -20.88664,-28.45586 z m -41.59835,7.91443 c -0.004,0.004 -0.01,0.006 -0.0137,0.008 -9.03782,4.4275 -19.03907,25.14413 -25.70898,35.31445 -11.76304,-3.4254 -24.63887,-11.37668 -38.16407,-11.33398 -1.72942,0.0564 -3.18853,0.23727 -4.28906,0.55664 -0.0238,0.0461 -0.0593,0.10499 -0.082,0.15039 -4.64842,9.79468 1.7076,31.83215 3.05274,43.37304 -12.61116,5.36862 -28.83086,8.0044 -39.45508,18.83008 -0.36847,0.56247 -0.76586,1.21194 -1.18164,1.92578 3.65649,11.51697 22.26298,23.11053 30.70898,31.1836 -5.62628,11.68909 -16.14657,23.36326 -16.97851,37.82031 0.0858,0.69192 0.20901,1.47316 0.36132,2.32227 9.71295,6.17293 30.22437,3.46998 41.73828,4.3125 3.21794,12.75285 2.89624,28.52563 11.66797,40.30273 0.38019,0.35134 0.84687,0.74563 1.3125,1.14062 0.68036,-0.003 1.3436,-0.0108 1.91211,-0.041 10.61078,-0.88508 25.88032,-16.62393 35.12305,-23.32422 10.7159,7.68054 20.79145,19.92148 35.125,23.32422 0.56795,0.028 1.2306,0.039 1.91016,0.043 0.4665,-0.39568 0.93366,-0.79071 1.31445,-1.14258 7.56923,-7.45349 8.96621,-29.52896 11.66602,-40.30273 13.03072,-0.94566 28.56422,1.92716 41.74023,-4.32032 0.15231,-0.84707 0.27593,-1.62592 0.36133,-2.3164 0.94968,-10.36926 -12.10575,-27.89593 -16.97852,-37.82032 9.87914,-9.31164 24.37271,-17.45958 30.70313,-31.18945 -0.4139,-0.71059 -0.80879,-1.35765 -1.17578,-1.91797 -6.32567,-9.01759 -28.76904,-14.24018 -39.46094,-18.83203 1.40995,-13.39445 7.43908,-29.00834 3.05273,-43.37109 -0.0234,-0.0457 -0.0613,-0.10389 -0.084,-0.15039 -1.09977,-0.31813 -2.55665,-0.50034 -4.2832,-0.55664 -12.44722,-0.29911 -26.95356,7.94039 -38.16407,11.33398 -7.60292,-11.40667 -12.95106,-25.97084 -25.71484,-35.31445 -0.004,-0.004 -0.0116,-0.006 -0.0156,-0.008 z m -73.087,29.38165 c -5.06597,2.11403 -11.27043,5.02247 -16.82995,7.75567 -8.31225,4.08652 -15.15207,7.71126 -15.24306,7.75948 l -1.64017,1.06174 -0.0495,0.89431 c 0.57597,12.14506 0.9583,22.97904 2.46028,35.15357 4.5108,-4.89049 12.05716,-9.3085 19.63653,-13.23563 3.9811,-2.06276 7.8588,-3.88268 11.31955,-5.3734 -0.41416,-3.658 -0.75205,-7.80587 -0.93616,-12.15868 -0.32848,-7.76666 -0.28246,-15.71785 1.28246,-21.85706 z m 146.18371,0 c 1.56526,6.13931 1.61091,14.09007 1.28247,21.85706 -0.18411,4.3535 -0.52189,8.50211 -0.93616,12.16058 3.45791,1.4905 7.33195,3.30932 11.31194,5.3715 7.57678,3.9258 15.12733,8.34142 19.64034,13.22993 1.36464,-12.11898 2.02092,-22.73477 2.45837,-35.08319 l -0.0533,-0.9704 -1.60212,-1.037 c -10.94288,-5.59686 -20.6501,-10.72137 -32.10156,-15.52848 z m -72.91507,13.02656 c 2.32283,0 4.62837,0.1088 6.67188,0.31445 3.32633,0.73867 6.59246,1.88707 7.9375,2.91211 0.26446,0.34231 0.5011,0.73936 0.70898,1.20703 0.37277,2.31431 0.65945,9.91374 0.66602,18.43164 0.009,10.11146 0.43722,18.2159 1.01367,19.61914 0.0629,0.15305 0.1909,0.42121 0.48052,0.76365 1.07954,1.27643 4.16318,1.30079 19.40039,1.30079 15.06085,0 19.53131,-0.12806 21.4375,3.25195 0.26607,0.58402 0.51545,1.27747 0.76172,1.98437 0.38099,1.37919 0.65931,3.10291 1.03125,5.30664 0.91328,5.41062 0.90094,8.25536 -0.0566,12.79688 -1.34699,6.38816 -1.82113,8.54239 -8.26563,9.27539 l -14.81054,0.38281 c -0.31926,3e-5 -0.54008,0.002 -0.86914,0.002 -10.01625,0 -14.82362,0.20988 -17.23618,0.38592 -1.30291,0.0951 -2.02916,0.487 -2.26401,1.19615 -0.29295,0.88458 -0.60743,9.80093 -0.60743,19.8457 0,21.0834 0.21641,20.56224 -9.41796,22.42773 -1.32016,0.25554 -2.35573,0.44559 -3.28907,0.59961 -2.80751,0.16358 -5.74385,0.0927 -8.46679,-0.19726 h -0.002 c -0.68831,-0.12376 -1.45185,-0.26874 -2.3164,-0.4336 -8.55485,-1.63135 -8.50782,-1.50737 -8.50782,-22.39648 0,-10.04477 -0.12526,-19.04832 -0.60742,-19.8457 -0.65129,-1.0771 -0.88268,-1.10065 -2.23651,-1.25116 -2.39147,-0.26587 -7.19459,-0.33091 -17.15234,-0.33091 -0.3777,0 -0.63506,-0.004 -1,-0.004 -2.32463,-0.0599 -3.617,-0.1071 -5.41797,-0.1582 -5.57863,-0.17576 -9.58667,-0.36598 -11.85937,-0.63868 -4.09892,-0.97899 -4.65575,-3.15426 -5.64453,-7.99804 -0.27378,-1.34075 -0.47709,-2.51448 -0.64063,-3.625 -0.23448,-2.97099 -0.22568,-6.18624 0.0195,-9.17578 0.16202,-1.04113 0.36032,-2.13105 0.625,-3.36524 1.74595,-8.14125 1.44138,-8.16425 22.94922,-8.03515 4.35968,0.0262 18.10584,2.03603 19.9668,-2.06446 0.62934,-1.38671 0.99804,-9.53572 0.99804,-19.79883 0,-14.58323 0.28056,-18.27466 1.48438,-19.47851 1.08848,-1.08848 4.77187,-2.26373 8.72656,-2.98047 1.81345,-0.15075 3.80031,-0.22656 5.78906,-0.22656 z m -115.34375,5.29101 -0.0293,0.0176 c -1.172,2.04254 -2.63182,4.83539 -4.21485,8.00195 -6.11349,11.73987 -11.54005,23.42462 -12.39062,27.23829 -0.0992,0.44458 -0.17534,0.86407 -0.25195,1.2871 -0.16669,0.5385 -0.29124,0.99801 -0.33985,1.31055 -0.34585,2.22373 0.0278,6.9831 0.97071,12.67774 0.47084,3.38133 1.11459,7.60523 1.99414,13.22461 0.70458,4.50159 1.2489,7.87905 1.79687,11.25 5.13134,-11.88587 9.52864,-23.17129 15.87305,-34.75586 -2.13645,-14.17319 -2.86617,-26.02988 -3.40821,-40.25196 z m 230.25782,1.70118 c -0.86972,12.79936 -0.8523,25.43392 -3.33789,38.54101 6.03726,11.63435 10.4938,21.67761 15.46679,33.77344 0.84223,-3.43591 1.91155,-12.81192 3.59961,-31.55469 0.0322,-0.17885 0.0631,-0.36037 0.0899,-0.54102 10e-4,-0.009 0.002,-0.0203 0.004,-0.0293 0.0591,-0.40336 0.11035,-0.80985 0.14258,-1.22266 0.0806,-0.91446 0.10263,-1.90035 0.0762,-2.86328 0.19208,-7.58233 -2.33359,-12.6004 -16.04101,-36.10351 z m -8.65874,46.34589 c -2.84839,5.5047 -7.78188,11.3686 -12.86079,16.88132 -3.13742,3.40538 -6.26112,6.53391 -9.07238,9.16372 1.41232,2.90313 2.87651,6.13265 4.28502,9.51954 3.27042,7.86403 6.19828,16.09117 6.46559,22.72472 8.89089,-8.41006 16.27793,-16.12449 24.62178,-25.29916 l 0.61459,-0.81249 -0.57843,-1.89134 c -4.47756,-10.6766 -8.3403,-19.98835 -13.47538,-30.28631 z m -212.86802,0.008 c -5.02153,10.25487 -9.08337,19.5242 -13.47158,30.28059 l -0.58033,1.89707 0.60888,0.80487 c 8.30691,8.91797 15.60881,16.95649 24.62939,25.30676 0.26444,-6.63492 3.18851,-14.86602 6.45989,-22.73232 1.40827,-3.38626 2.87104,-6.61521 4.28312,-9.51763 -2.81167,-2.62982 -5.93497,-5.75836 -9.07239,-9.16373 -5.07713,-5.51073 -10.00816,-11.37264 -12.85698,-16.87561 z m -19.16074,38.7832 -0.01,0.0312 c 1.37406,7.47894 2.77771,13.90863 5.27734,24.80078 0.56077,2.44356 1.05973,4.51516 1.56836,6.38086 0.11636,0.82984 0.42401,1.82998 0.87891,2.93555 2.75822,8.2485 6.94864,12.07881 22.56641,25.27149 1.99373,1.68413 4.33079,3.70276 6.64453,5.7207 l 2.28711,0.5293 c -3.80613,-12.4666 -7.77544,-23.94109 -10.46094,-36.96485 -10.83266,-9.50449 -19.09026,-18.14351 -28.75195,-28.70508 z m 249.96289,1.32618 c -8.95715,9.2455 -17.137,18.93217 -27.52149,27.3789 -3.0219,13.14887 -6.26103,24.10398 -10.46484,36.96289 l 1.38867,-0.32226 c 1.91124,-1.58275 4.68049,-4.09466 7.7793,-7.03516 1.63693,-1.49104 3.27906,-2.98904 4.78125,-4.39062 16.42904,-15.3289 17.994,-17.91861 20.85937,-34.54883 1.34646,-7.81468 2.33535,-13.40439 3.17774,-18.04492 z m -212.24258,30.03414 c 2.79519,11.01221 5.68643,20.66378 9.27978,31.65249 l 0.84484,1.95985 1.00466,0.23214 c 11.49488,1.48308 21.46456,2.80426 32.93875,3.55056 -3.86293,-5.26282 -6.81702,-13.11873 -9.31022,-20.90949 -1.18976,-3.71782 -2.21274,-7.33374 -3.04062,-10.61933 -3.36085,-0.23827 -7.07169,-0.60844 -10.90285,-1.11502 -7.47125,-0.98787 -15.06022,-2.34383 -20.81434,-4.7512 z m 175.75078,0.002 c -5.75383,2.40679 -13.34218,3.76159 -20.81244,4.7493 -3.83191,0.50669 -7.54396,0.8768 -10.90664,1.11502 -0.82929,3.28559 -1.85464,6.90151 -3.04444,10.61933 -2.49354,7.79182 -5.44838,15.64663 -9.31213,20.90949 11.37347,-0.81856 21.43483,-1.96324 32.93305,-3.55056 l 1.01798,-0.23594 0.8182,-1.89896 c 3.49299,-11.00808 6.56139,-20.57288 9.30642,-31.70768 z m -87.87539,26.15731 c -2.74377,1.96983 -5.84391,4.06586 -9.12946,6.1326 -7.01774,4.41449 -14.4329,8.57584 -20.83908,10.11701 9.29527,6.65939 18.0265,9.81167 27.71972,15.82157 l 2.24882,1.13 2.25068,-1.13 c 9.61268,-6.07961 18.3995,-9.04075 27.71786,-15.81967 -6.40573,-1.54001 -13.81733,-5.70305 -20.83717,-10.11891 -3.28602,-2.06707 -6.3873,-4.16213 -9.13137,-6.1326 z m -77.20703,15.70704 1.43164,3.32031 c 2.77879,2.34401 5.64383,4.60918 7.45312,5.83203 2.74999,1.8587 7.70002,5.49235 11,8.07422 7.44341,5.82349 11.84839,8.15647 17,9.00195 3.13397,0.5144 17.28687,0.72965 32.54493,0.69141 l 1.70703,-0.85547 c -11.30771,-7.36351 -22.17672,-13.73532 -33.00977,-22.39844 -13.50111,-0.59878 -24.76269,-1.84183 -38.12695,-3.66601 z m 154.41406,0 c -12.8429,1.50905 -24.9431,3.39408 -38.13281,3.66601 -11.16723,8.47486 -21.05613,14.99286 -33.00586,22.39649 l 1.61719,0.81054 c 0.40252,-0.002 0.84652,0.005 1.24023,0.002 0.49933,0.0306 0.96911,0.0563 1.25195,0.0586 1.10442,0.0104 1.64204,-0.006 1.57227,-0.10937 1.92578,-0.0426 3.63213,-0.10067 4.75,-0.19727 4.80882,-0.11814 9.25882,-0.2597 12.54492,-0.44531 18.1395,-1.02456 21.32952,-2.21609 32.77344,-12.23633 3.63265,-3.18073 9.9419,-8.45874 14.67383,-12.28906 z"
       id="path874"
       transform="scale(0.26458333)"
       inkscape:connector-curvature="0"
       sodipodi:nodetypes="ccccccccccccccccscccccccccsccccccccccccccccccccccccsccccccccccccccccccccccccccccccccscccccccccccccccccscccccccssscccsccccssccsccccsscccsccsccsccccccccccccccccccccccccccccccccccccscccscccscccccccccsccccccccccccccccccccccccccccccccccccccccccccccscccccccscc"
       inkscape:export-filename="C:\projects\care-up\care-up\Assets\Resources\Sprites\care_up_logow.png"
       inkscape:export-xdpi="93.266342"
       inkscape:export-ydpi="93.266342" />
  </g>
</svg>
