<?xml version="1.0" encoding="UTF-8" standalone="no"?>
<!-- Created with Inkscape (http://www.inkscape.org/) -->

<svg
   xmlns:dc="http://purl.org/dc/elements/1.1/"
   xmlns:cc="http://creativecommons.org/ns#"
   xmlns:rdf="http://www.w3.org/1999/02/22-rdf-syntax-ns#"
   xmlns:svg="http://www.w3.org/2000/svg"
   xmlns="http://www.w3.org/2000/svg"
   xmlns:xlink="http://www.w3.org/1999/xlink"
   xmlns:sodipodi="http://sodipodi.sourceforge.net/DTD/sodipodi-0.dtd"
   xmlns:inkscape="http://www.inkscape.org/namespaces/inkscape"
   width="25.782524mm"
   height="19.170975mm"
   viewBox="0 0 25.782524 19.170975"
   version="1.1"
   id="svg8"
   inkscape:version="0.92.4 (unknown)"
   sodipodi:docname="finger_icon.svg">
  <defs
     id="defs2">
    <linearGradient
       inkscape:collect="always"
       id="linearGradient899">
      <stop
         style="stop-color:#ffffff;stop-opacity:1;"
         offset="0"
         id="stop895" />
      <stop
         style="stop-color:#ffffff;stop-opacity:0;"
         offset="1"
         id="stop897" />
    </linearGradient>
    <linearGradient
       inkscape:collect="always"
       xlink:href="#linearGradient899"
       id="linearGradient901"
       x1="117.33726"
       y1="244.69737"
       x2="137.15547"
       y2="256.13943"
       gradientUnits="userSpaceOnUse" />
  </defs>
  <sodipodi:namedview
     id="base"
     pagecolor="#707070"
     bordercolor="#666666"
     borderopacity="1.0"
     inkscape:pageopacity="0"
     inkscape:pageshadow="2"
     inkscape:zoom="3.959798"
     inkscape:cx="27.723232"
     inkscape:cy="14.623294"
     inkscape:document-units="mm"
     inkscape:current-layer="layer1"
     showgrid="false"
     inkscape:snap-global="false"
     fit-margin-top="0"
     fit-margin-left="0"
     fit-margin-right="0"
     fit-margin-bottom="0"
     inkscape:window-width="1920"
     inkscape:window-height="1055"
     inkscape:window-x="0"
     inkscape:window-y="0"
     inkscape:window-maximized="1" />
  <metadata
     id="metadata5">
    <rdf:RDF>
      <cc:Work
         rdf:about="">
        <dc:format>image/svg+xml</dc:format>
        <dc:type
           rdf:resource="http://purl.org/dc/dcmitype/StillImage" />
        <dc:title></dc:title>
      </cc:Work>
    </rdf:RDF>
  </metadata>
  <g
     inkscape:label="Layer 1"
     inkscape:groupmode="layer"
     id="layer1"
     transform="translate(-247.81293,-227.17778)">
    <g
       id="g905"
       transform="translate(268.87314)"
       inkscape:export-filename="/home/vit/ProjectG70/care-up/care-up/Assets/Resources/Sprites/finger_icon.png"
       inkscape:export-xdpi="125.86736"
       inkscape:export-ydpi="125.86736">
      <path
         transform="translate(-137.77232,-12.095238)"
         d="m 134.01953,240.29688 a 0.32928648,0.32928648 0 0 0 -0.0312,0.002 l -0.40234,0.041 a 0.32928648,0.32928648 0 0 0 -0.002,0 c -0.26363,0.028 -0.4811,0.0723 -0.67773,0.19141 -0.19663,0.11914 -0.33399,0.29419 -0.4707,0.50977 -0.10879,0.17153 -0.20384,0.34208 -0.23633,0.55078 -0.0325,0.20869 0.0141,0.43291 0.11914,0.64453 0.21004,0.42323 0.62933,0.88105 1.38867,1.69336 0.4349,0.46524 0.71435,0.79747 0.86133,1.01953 0.14698,0.22206 0.13276,0.29229 0.13672,0.2793 -0.032,0.10489 -0.0512,0.11668 -0.0606,0.12304 -0.009,0.006 -0.0556,0.0273 -0.18945,0.0273 -0.17947,0 -0.18699,0.0142 -0.45703,-0.19532 -0.27004,-0.20953 -0.72488,-0.64234 -1.54688,-1.44531 -0.38129,-0.37247 -0.75541,-0.72218 -1.05664,-0.99219 -0.15062,-0.135 -0.28269,-0.24911 -0.39062,-0.33789 -0.10794,-0.0888 -0.16638,-0.14359 -0.27539,-0.19922 -0.13369,-0.0682 -0.25452,-0.12664 -0.4043,-0.14257 -0.14979,-0.0159 -0.27589,0.0134 -0.43164,0.0508 -0.93153,0.22348 -1.42478,1.25729 -0.99024,2.10351 0.0374,0.0729 0.0484,0.0756 0.0723,0.10547 0.0239,0.0298 0.0532,0.0653 0.0879,0.10547 0.0693,0.0804 0.16235,0.18429 0.27344,0.30664 0.22217,0.24471 0.51721,0.56122 0.83398,0.89453 0.66378,0.69844 1.02477,1.08367 1.20313,1.30078 0.0892,0.10856 0.12893,0.17468 0.14062,0.19922 0.0117,0.0246 0.006,0.002 0.006,0.0293 0,-0.0618 -0.0351,0.0719 -0.12891,0.16016 -0.0938,0.0882 -0.23237,0.1289 -0.19921,0.1289 0.007,0 -0.12226,-0.0276 -0.49024,-0.34375 -0.36797,-0.31617 -0.95371,-0.8784 -1.90234,-1.81445 l -1.57813,-1.55664 a 0.32928648,0.32928648 0 0 0 -0.27539,-0.0918 l -0.44922,0.0625 a 0.32928648,0.32928648 0 0 0 -0.002,0 c -0.39793,0.0564 -0.72564,0.15422 -0.95508,0.4082 -0.22944,0.25399 -0.30082,0.5865 -0.33984,1.00782 a 0.32928648,0.32928648 0 0 0 0,0.002 l -0.041,0.45508 a 0.32928648,0.32928648 0 0 0 0.0899,0.25586 l 1.05273,1.10351 c 0.56704,0.59309 1.01189,1.07069 1.32617,1.42383 0.31428,0.35314 0.51082,0.61925 0.52539,0.64649 -0.002,-0.003 0.007,0.0474 -0.0488,0.12304 -0.0502,0.0683 -0.12726,0.10302 -0.17969,0.11133 -0.0352,-0.021 -0.0866,-0.0568 -0.16406,-0.11719 -0.16897,-0.13167 -0.42789,-0.35908 -0.79688,-0.70117 -0.73798,-0.68418 -1.92321,-1.8349 -3.80078,-3.68359 l -3.00586,-2.95703 a 0.32928648,0.32928648 0 0 0 -0.25586,-0.0937 l -0.4043,0.0312 c -0.43861,0.0352 -0.81023,0.14885 -1.07226,0.41211 -0.26203,0.26325 -0.36887,0.63522 -0.39063,1.0664 l -0.0234,0.48047 a 0.32928648,0.32928648 0 0 0 0.0937,0.24805 l 5.25,5.29687 c 1.44334,1.4563 2.75402,2.781 3.70117,3.74414 0.43067,0.43795 0.75858,0.77535 1.01758,1.04102 -0.0252,7.7e-4 -0.0362,0.001 -0.0625,0.002 -0.48548,0.0145 -1.15404,0.0304 -1.88672,0.0469 -0.86496,0.0194 -1.55136,0.0412 -2.04102,0.0644 -0.24483,0.0116 -0.43849,0.0243 -0.58594,0.0371 -0.0737,0.006 -0.13636,0.0139 -0.18945,0.0215 -0.0531,0.008 -0.0869,0.008 -0.16211,0.0371 -0.36371,0.14095 -0.67188,0.43764 -0.85742,0.78907 -0.12674,0.24001 -0.15291,0.51036 -0.14453,0.78906 0.008,0.2787 0.0567,0.55842 0.18164,0.80078 0.12461,0.24178 0.29105,0.46477 0.55078,0.57812 0.25973,0.11336 0.54795,0.13246 1,0.15625 2.03722,0.10719 8.37551,0.0253 10.21289,-0.13476 0.80583,-0.0702 1.27924,-0.22504 2.01758,-0.65625 1.27202,-0.7429 2.9674,-2.25707 3.85156,-3.44141 0.50601,-0.67778 1.01351,-1.62846 1.2207,-2.30859 0.22084,-0.72517 0.23418,-1.76756 0.006,-2.44531 -0.19371,-0.57504 -0.48684,-1.09805 -1.19336,-1.93946 -0.70651,-0.8414 -1.83539,-2.0258 -3.76171,-3.99609 l -1.97071,-2.01563 a 0.32928648,0.32928648 0 0 0 -0.23828,-0.0996 z"
         id="path893"
         style="opacity:1;vector-effect:none;fill:url(#linearGradient901);fill-opacity:1;stroke:none;stroke-width:2.59617162;stroke-linecap:round;stroke-linejoin:round;stroke-miterlimit:4;stroke-dasharray:none;stroke-dashoffset:90.48194885;stroke-opacity:1"
         xlink:href="#path891"
         inkscape:original="M 134.02148 240.62695 L 133.61914 240.66797 C 133.12764 240.72014 132.96529 240.8188 132.71289 241.2168 C 132.31401 241.84576 132.43376 242.08601 133.94727 243.70508 C 134.82673 244.64589 135.10013 245.05984 135.01953 245.32422 C 134.93213 245.61084 134.78758 245.70898 134.45508 245.70898 C 134.03057 245.70898 133.86634 245.58216 132.2207 243.97461 C 131.46439 243.2358 130.73412 242.58155 130.57812 242.50195 C 130.32514 242.37285 130.26614 242.3662 129.96875 242.4375 C 129.22805 242.6152 128.85383 243.40532 129.19531 244.07031 C 129.23207 244.1419 129.77771 244.74284 130.4082 245.40625 C 131.7367 246.80412 131.84961 246.94032 131.84961 247.16211 C 131.84961 247.40358 131.44808 247.78125 131.19141 247.78125 C 130.90978 247.78125 130.46797 247.40176 128.56836 245.52734 L 126.99023 243.9707 L 126.54102 244.0332 C 125.80112 244.13799 125.60084 244.36072 125.52734 245.1543 L 125.48633 245.60938 L 126.53906 246.71289 C 127.67628 247.90234 128.32234 248.62739 128.44336 248.85352 C 128.59759 249.14169 128.27107 249.58594 127.9043 249.58594 C 127.66957 249.58594 126.68795 248.67511 122.93164 244.97656 L 119.92578 242.01953 L 119.52148 242.05078 C 118.72658 242.11458 118.40043 242.44181 118.36133 243.2168 L 118.33789 243.69727 L 123.58789 248.99414 C 126.47508 251.90725 128.82731 254.29965 128.81641 254.31055 C 128.80556 254.32135 127.59762 254.35772 126.13086 254.39062 C 124.40412 254.42942 123.39346 254.47704 123.26367 254.52734 C 123.01492 254.62374 122.71774 254.89961 122.57812 255.16406 C 122.41971 255.46405 122.43846 256.10242 122.61719 256.44922 C 122.84411 256.88951 123.00352 256.95906 123.89258 257.00586 C 125.88359 257.11061 132.27886 257.02616 134.05859 256.87109 C 134.83882 256.8031 135.22028 256.67783 135.93945 256.25781 C 137.15016 255.55072 138.85164 254.03179 139.69336 252.9043 C 140.17217 252.26294 140.67653 251.31028 140.86328 250.69727 C 141.0544 250.06967 141.05855 249.00959 140.87109 248.45312 C 140.5068 247.37175 139.84266 246.58093 135.99219 242.64258 L 134.02148 240.62695 z "
         inkscape:radius="0.32925355"
         sodipodi:type="inkscape:offset"
         inkscape:href="#path891" />
      <path
         sodipodi:nodetypes="ccsccccscssccccscccccsccccccccccccccsccscscccccccccccccccccc"
         inkscape:connector-curvature="0"
         id="path837"
         d="m 0.15124843,244.69795 c -0.61132,0.45068 -1.62784003,0.9678 -2.40541003,1.22369 -1.06018,0.34888 -2.95253,0.44572 -8.2911404,0.4243 -5.04141,-0.0202 -5.22423,-0.0562 -5.88825,-1.15735 -0.73233,-1.21448 -0.61436,-2.37654 0.33885,-3.33786 0.6856,-0.69125 1.00635,-0.79515 2.53006,-0.81864 l 1.35356,-0.0208 -4.10344,-4.10343 c -4.49427,-4.49427 -4.76591,-4.82705 -4.74467,-5.81308 0.0235,-1.09026 0.73755,-2.10802 1.69729,-2.41913 1.2608,-0.40872 1.73809,-0.16684 3.86215,1.95721 l 1.69303,1.69303 0.14874,-0.27105 c 0.69765,-1.27133 1.74216,-1.71458 3.17643,-1.34794 0.23421,0.0599 0.26609,0.0284 0.4860204,-0.48039 0.38449,-0.88933 1.06937,-1.30816 2.13196,-1.30377 0.47548,0.002 0.93241,0.0383 1.01541,0.0807 0.11516,0.0589 0.21591,-0.0566 0.42547,-0.48788 0.5401,-1.11156 1.74118,-1.60202 2.93154,-1.19708 0.62386,0.2122 0.80023,0.35343 2.53693003,2.03123 2.20054997,2.12593 4.38249997,4.59321 4.88866997,5.52794 1.08818,2.00955 1.05107,3.76414 -0.12333,5.83073 -0.39852,0.70126 -2.90366997,3.43214 -3.65985997,3.98963 z m 2.13700997,-4.34204 c 0.66931,-1.02929 0.98962,-1.90513 1.00459,-2.74701 0.0299,-1.67893 -0.47489,-2.42729 -4.17699997,-6.19272 l -2.85619003,-2.90506 -0.49891,0.0375 c -0.39829,0.0299 -0.55431,0.11438 -0.77363,0.41866 -0.53085,0.73651 -0.43286,0.98386 0.97449,2.46019 0.97895,1.02691 1.25324,1.37823 1.26591,1.62132 0.0211,0.40452 -0.14873,0.56129 -0.60791,0.5613 -0.34462,0 -0.49996,-0.12635 -2.03195,-1.65286 -1.73366,-1.72732 -1.87047,-1.81667 -2.49439,-1.62638 -0.56984,0.17379 -0.87149,0.60642 -0.82218,1.17917 0.0445,0.51621 0.0775,0.56048 1.41899,1.902 0.94389,0.94387 1.37349,1.4435 1.37348,1.59736 0,0.35477 -0.4789,0.75092 -0.79284,0.65586 -0.16444,-0.0498 -1.03437,-0.84122 -2.14058,-1.94744 l -1.8635704,-1.86357 -0.52852,0.0455 c -0.68672,0.0592 -0.97004,0.35954 -1.01038,1.0713 l -0.0327,0.57664 1.49227,1.55236 c 0.8626704,0.89744 1.5007504,1.64351 1.5123604,1.76842 0.0262,0.28192 -0.33949,0.64248 -0.62473,0.61599 -0.1513704,-0.014 -1.4637204,-1.24333 -4.0440204,-3.78797 l -3.81994,-3.76712 -0.50791,8e-5 c -0.69493,1.1e-4 -1.17106,0.47627 -1.17113,1.17121 l -5e-5,0.50793 5.25991,5.31111 5.2599104,5.3111 -2.6447804,0.0113 c -1.45463,0.006 -2.80752,0.0843 -3.00641,0.17371 -0.9232,0.41458 -1.02459,1.85608 -0.1713,2.43549 0.38781,0.26333 11.0004504,0.13763 11.8577804,-0.14045 1.57953,-0.51234 4.04483,-2.57649 5.20131,-4.35495 z"
         style="fill:#002b5e;fill-opacity:1;stroke-width:0.13192676" />
    </g>
  </g>
</svg>
