<?xml version="1.0" encoding="UTF-8" standalone="no"?>
<!-- Created with Inkscape (http://www.inkscape.org/) -->

<svg
   xmlns:dc="http://purl.org/dc/elements/1.1/"
   xmlns:cc="http://creativecommons.org/ns#"
   xmlns:rdf="http://www.w3.org/1999/02/22-rdf-syntax-ns#"
   xmlns:svg="http://www.w3.org/2000/svg"
   xmlns="http://www.w3.org/2000/svg"
   xmlns:xlink="http://www.w3.org/1999/xlink"
   xmlns:sodipodi="http://sodipodi.sourceforge.net/DTD/sodipodi-0.dtd"
   xmlns:inkscape="http://www.inkscape.org/namespaces/inkscape"
   width="79.703133mm"
   height="79.703133mm"
   viewBox="0 0 79.703133 79.703133"
   version="1.1"
   id="svg8"
   inkscape:version="0.92.3 (unknown)"
   sodipodi:docname="FullScreenIcon.svg"
   inkscape:export-filename="/home/vit/ProjectG70/care-up/care-up/Assets/Resources/Sprites/UI_Record.png"
   inkscape:export-xdpi="81.582741"
   inkscape:export-ydpi="81.582741">
  <defs
     id="defs2">
    <filter
       inkscape:collect="always"
       style="color-interpolation-filters:sRGB"
       id="filter994"
       x="-0.064800002"
       width="1.1296"
       y="-0.064800002"
       height="1.1296">
      <feGaussianBlur
         inkscape:collect="always"
         stdDeviation="1.1248344"
         id="feGaussianBlur996" />
    </filter>
    <clipPath
       clipPathUnits="userSpaceOnUse"
       id="clipPath863">
      <rect
         style="opacity:0.90700001;vector-effect:none;fill:#ffd5d5;fill-opacity:0.99799595;stroke:#ffffff;stroke-width:3.60600019;stroke-linecap:round;stroke-linejoin:bevel;stroke-miterlimit:4;stroke-dasharray:none;stroke-dashoffset:0;stroke-opacity:1"
         id="rect865"
         width="84.189903"
         height="76.706345"
         x="402.8136"
         y="-155.99344"
         ry="11.225318" />
    </clipPath>
    <clipPath
       clipPathUnits="userSpaceOnUse"
       id="clipPath863-6">
      <rect
         style="opacity:0.90700001;vector-effect:none;fill:#ffd5d5;fill-opacity:0.99799595;stroke:#ffffff;stroke-width:3.60600019;stroke-linecap:round;stroke-linejoin:bevel;stroke-miterlimit:4;stroke-dasharray:none;stroke-dashoffset:0;stroke-opacity:1"
         id="rect865-7"
         width="84.189903"
         height="76.706345"
         x="402.8136"
         y="-155.99344"
         ry="11.225318" />
    </clipPath>
    <filter
       inkscape:collect="always"
       style="color-interpolation-filters:sRGB"
       id="filter1038"
       x="-0.06153162"
       width="1.1230632"
       y="-0.058542777"
       height="1.1170856">
      <feGaussianBlur
         inkscape:collect="always"
         stdDeviation="1.4164257"
         id="feGaussianBlur1040" />
    </filter>
    <filter
       inkscape:collect="always"
       style="color-interpolation-filters:sRGB"
       id="filter1053"
       x="-0.06830185"
       width="1.1366037"
       y="-0.053497559"
       height="1.1069951">
      <feGaussianBlur
         inkscape:collect="always"
         stdDeviation="4.4581299"
         id="feGaussianBlur1055" />
    </filter>
    <filter
       inkscape:collect="always"
       style="color-interpolation-filters:sRGB"
       id="filter1141"
       x="-0.062870028"
       width="1.1257401"
       y="-0.057380567"
       height="1.1147611">
      <feGaussianBlur
         inkscape:collect="always"
         stdDeviation="4.7817139"
         id="feGaussianBlur1143" />
    </filter>
  </defs>
  <sodipodi:namedview
     id="base"
     pagecolor="#424242"
     bordercolor="#666666"
     borderopacity="1.0"
     inkscape:pageopacity="0"
     inkscape:pageshadow="2"
     inkscape:zoom="1.4"
     inkscape:cx="169.52141"
     inkscape:cy="144.30491"
     inkscape:document-units="mm"
     inkscape:current-layer="layer4"
     showgrid="false"
     showborder="true"
     inkscape:window-width="1920"
     inkscape:window-height="1055"
     inkscape:window-x="0"
     inkscape:window-y="0"
     inkscape:window-maximized="1"
     fit-margin-top="0"
     fit-margin-left="0"
     fit-margin-right="0"
     fit-margin-bottom="0"
     showguides="true"
     inkscape:guide-bbox="true"
     inkscape:snap-global="false">
    <sodipodi:guide
       position="175.86336,-34.74504"
       orientation="1,0"
       id="guide888"
       inkscape:locked="false" />
  </sodipodi:namedview>
  <metadata
     id="metadata5">
    <rdf:RDF>
      <cc:Work
         rdf:about="">
        <dc:format>image/svg+xml</dc:format>
        <dc:type
           rdf:resource="http://purl.org/dc/dcmitype/StillImage" />
        <dc:title></dc:title>
      </cc:Work>
    </rdf:RDF>
  </metadata>
  <g
     inkscape:label="Layer 1"
     inkscape:groupmode="layer"
     id="layer1"
     transform="translate(6.6433145,41.658898)"
     style="display:none">
    <rect
       style="opacity:1;vector-effect:none;fill:#ededec;fill-opacity:1;stroke:none;stroke-width:14.68532562;stroke-linecap:round;stroke-linejoin:round;stroke-miterlimit:4;stroke-dasharray:none;stroke-dashoffset:0;stroke-opacity:1"
       id="rect826"
       width="67.73333"
       height="67.73333"
       x="-0.65841305"
       y="-35.673996"
       ry="13.546667"
       inkscape:export-filename="/home/vit/ProjectG70/care-up/care-up/Assets/Resources/Sprites/FullScreenIcon.png"
       inkscape:export-xdpi="96"
       inkscape:export-ydpi="96" />
    <g
       transform="matrix(0.80333798,0.80333798,-0.80333798,0.80333798,4.5090669,-29.372774)"
       id="g876"
       style="opacity:0.29500002;fill:#000000;filter:url(#filter994)">
      <path
         style="opacity:1;vector-effect:none;fill:#000000;fill-opacity:1;stroke:none;stroke-width:14.16143227;stroke-linecap:round;stroke-linejoin:round;stroke-miterlimit:4;stroke-dasharray:none;stroke-dashoffset:0;stroke-opacity:1"
         d="m 34.947704,-29.975213 -14.574824,14.457515 10.488767,-1e-6 V -5.0759598 H 39.1769 l -1e-6,-10.4417392 h 10.488766 z"
         id="path872"
         inkscape:connector-curvature="0" />
      <path
         inkscape:connector-curvature="0"
         id="path874"
         d="M 34.947704,28.563921 20.37288,14.106406 l 10.488767,1e-6 V 3.664668 H 39.1769 l -1e-6,10.441739 h 10.488766 z"
         style="opacity:1;vector-effect:none;fill:#000000;fill-opacity:1;stroke:none;stroke-width:14.16143227;stroke-linecap:round;stroke-linejoin:round;stroke-miterlimit:4;stroke-dasharray:none;stroke-dashoffset:0;stroke-opacity:1" />
    </g>
    <g
       id="g870"
       transform="matrix(0.80333798,0.80333798,-0.80333798,0.80333798,4.5090669,-29.372774)">
      <path
         inkscape:connector-curvature="0"
         id="rect839"
         d="m 34.947704,-29.975213 -14.574824,14.457515 10.488767,-1e-6 V -5.0759598 H 39.1769 l -1e-6,-10.4417392 h 10.488766 z"
         style="opacity:1;vector-effect:none;fill:#73cbed;fill-opacity:1;stroke:none;stroke-width:14.16143227;stroke-linecap:round;stroke-linejoin:round;stroke-miterlimit:4;stroke-dasharray:none;stroke-dashoffset:0;stroke-opacity:1" />
      <path
         style="opacity:1;vector-effect:none;fill:#73cbed;fill-opacity:1;stroke:none;stroke-width:14.16143227;stroke-linecap:round;stroke-linejoin:round;stroke-miterlimit:4;stroke-dasharray:none;stroke-dashoffset:0;stroke-opacity:1"
         d="M 34.947704,28.563921 20.37288,14.106406 l 10.488767,1e-6 V 3.664668 H 39.1769 l -1e-6,10.441739 h 10.488766 z"
         id="path866"
         inkscape:connector-curvature="0" />
    </g>
    <image
       sodipodi:absref="/home/vit/ProjectG70/care-up/care-up/Assets/Resources/Sprites/UI_Sprites_2.png"
       y="-310.80438"
       x="774.83673"
       id="image829"
       xlink:href="file:///home/vit/ProjectG70/care-up/care-up/Assets/Resources/Sprites/UI_Sprites_2.png"
       preserveAspectRatio="none"
       height="722.84167"
       width="722.84167" />
  </g>
  <g
     inkscape:groupmode="layer"
     id="layer2"
     inkscape:label="Layer 2"
     style="display:none">
    <rect
       style="opacity:1;vector-effect:none;fill:#ededec;fill-opacity:1;stroke:none;stroke-width:14.68532562;stroke-linecap:round;stroke-linejoin:round;stroke-miterlimit:4;stroke-dasharray:none;stroke-dashoffset:0;stroke-opacity:1"
       id="rect826-3"
       width="67.73333"
       height="67.73333"
       x="5.9849014"
       y="5.9849033"
       ry="13.546667"
       inkscape:export-filename="/home/vit/ProjectG70/care-up/care-up/Assets/Resources/Sprites/FullScreenIcon.png"
       inkscape:export-xdpi="96"
       inkscape:export-ydpi="96" />
    <image
       width="722.84167"
       height="722.84167"
       preserveAspectRatio="none"
       xlink:href="file:///home/vit/ProjectG70/care-up/care-up/Assets/Resources/Sprites/UI_Sprites_2.png"
       id="image859"
       x="97.503395"
       y="-266.95914"
       sodipodi:absref="/home/vit/ProjectG70/care-up/care-up/Assets/Resources/Sprites/UI_Sprites_2.png"
       clip-path="url(#clipPath863-6)"
       transform="rotate(-9.2045762,1725.7868,1575.2526)" />
    <g
       transform="translate(-1.6036172)"
       id="g1020"
       style="opacity:0.28000004;fill:#000000;filter:url(#filter1038)">
      <path
         inkscape:connector-curvature="0"
         style="opacity:1;vector-effect:none;fill:#000000;fill-opacity:1;stroke:none;stroke-width:16.18788528;stroke-linecap:round;stroke-linejoin:bevel;stroke-miterlimit:4;stroke-dasharray:none;stroke-dashoffset:0;stroke-opacity:1"
         d="m 82.832031,66.353516 -8.46289,1.136718 C 65.031857,68.745516 58.584162,77.264571 59.912109,86.591797 L 81.148438,235.75195 c 0.27166,1.90809 0.860226,3.68921 1.683593,5.31836 z"
         transform="scale(0.26458333)"
         id="path1014" />
      <path
         inkscape:connector-curvature="0"
         style="opacity:1;vector-effect:none;fill:#000000;fill-opacity:1;stroke:none;stroke-width:17.15655708;stroke-linecap:round;stroke-linejoin:bevel;stroke-miterlimit:4;stroke-dasharray:none;stroke-dashoffset:0;stroke-opacity:1"
         d="m 95.763672,50.619141 c -10.203076,0 -18.417969,8.214893 -18.417969,18.417968 V 232.20312 c 0,10.20308 8.214893,18.41602 18.417969,18.41602 h 43.730468 c -4.29741,-12.01372 -1.6581,-25.9962 7.92969,-35.58398 l 64.64258,-64.64454 c 6.08308,-6.08305 13.93369,-9.36019 21.92968,-9.85351 V 69.037109 c 0,-10.203075 -8.21489,-18.417968 -18.41797,-18.417968 z M 109.95703,79.8125 h 91.42774 c 5.73785,0 10.35742,4.617612 10.35742,10.355469 0,5.737856 -4.61957,10.357421 -10.35742,10.357421 h -91.42774 c -5.73786,0 -10.357421,-4.619565 -10.357421,-10.357421 0,-5.737857 4.619561,-10.355469 10.357421,-10.355469 z m 0,35.78711 h 91.42774 c 5.73785,0 10.35742,4.61956 10.35742,10.35742 0,5.73786 -4.61957,10.35547 -10.35742,10.35547 h -91.42774 c -5.73786,0 -10.357421,-4.61761 -10.357421,-10.35547 0,-5.73786 4.619561,-10.35742 10.357421,-10.35742 z m 0,35.61328 h 50 c 5.83392,0 10.5293,4.69733 10.5293,10.53125 0,5.83392 -4.69538,10.5293 -10.5293,10.5293 h -50 c -5.83392,0 -10.531249,-4.69538 -10.531249,-10.5293 0,-5.83392 4.697329,-10.53125 10.531249,-10.53125 z"
         transform="scale(0.26458333)"
         id="path1016" />
      <path
         style="color:#000000;font-style:normal;font-variant:normal;font-weight:normal;font-stretch:normal;font-size:medium;line-height:normal;font-family:sans-serif;font-variant-ligatures:normal;font-variant-position:normal;font-variant-caps:normal;font-variant-numeric:normal;font-variant-alternates:normal;font-feature-settings:normal;text-indent:0;text-align:start;text-decoration:none;text-decoration-line:none;text-decoration-style:solid;text-decoration-color:#000000;letter-spacing:normal;word-spacing:normal;text-transform:none;writing-mode:lr-tb;direction:ltr;text-orientation:mixed;dominant-baseline:auto;baseline-shift:baseline;text-anchor:start;white-space:normal;shape-padding:0;clip-rule:nonzero;display:inline;overflow:visible;visibility:visible;opacity:1;isolation:auto;mix-blend-mode:normal;color-interpolation:sRGB;color-interpolation-filters:linearRGB;solid-color:#000000;solid-opacity:1;vector-effect:none;fill:#000000;fill-opacity:1;fill-rule:nonzero;stroke:none;stroke-width:2.15900636;stroke-linecap:round;stroke-linejoin:bevel;stroke-miterlimit:4;stroke-dasharray:none;stroke-dashoffset:0;stroke-opacity:1;color-rendering:auto;image-rendering:auto;shape-rendering:auto;text-rendering:auto;enable-background:accumulate"
         d="m 68.735261,40.838697 c -3.089722,-3.089722 -8.111869,-3.08972 -11.20159,-1e-6 l -17.10253,17.10253 c -3.089721,3.089721 -3.089906,8.112053 -1.85e-4,11.201776 3.089722,3.089721 8.112241,3.089721 11.201962,10e-7 l 17.10253,-17.10253 c 3.08972,-3.08972 3.089538,-8.112058 -1.87e-4,-11.201776 z m -1.526609,1.52661 c 2.270365,2.270365 2.270551,5.878193 1.87e-4,8.148558 l -7.121257,7.121257 -1.161259,-1.161259 c 5.151839,-4.766037 8.113818,-8.393898 7.115483,-15.014949 0.415355,0.245482 0.807806,0.547353 1.166846,0.906393 z m -16.606204,8.457831 4.07549,4.07549 4.073069,4.073069 -8.644697,8.644697 c -2.270365,2.270364 -5.878379,2.270364 -8.148744,-2e-6 -2.270367,-2.270365 -2.27018,-5.878194 1.85e-4,-8.148557 z"
         id="path1018"
         inkscape:connector-curvature="0" />
    </g>
    <g
       id="g946"
       transform="translate(-1.6036172)">
      <path
         id="rect892"
         transform="scale(0.26458333)"
         d="m 82.832031,66.353516 -8.46289,1.136718 C 65.031857,68.745516 58.584162,77.264571 59.912109,86.591797 L 81.148438,235.75195 c 0.27166,1.90809 0.860226,3.68921 1.683593,5.31836 z"
         style="opacity:1;vector-effect:none;fill:#32b5ed;fill-opacity:1;stroke:none;stroke-width:16.18788528;stroke-linecap:round;stroke-linejoin:bevel;stroke-miterlimit:4;stroke-dasharray:none;stroke-dashoffset:0;stroke-opacity:1"
         inkscape:connector-curvature="0" />
      <path
         id="rect890"
         transform="scale(0.26458333)"
         d="m 95.763672,50.619141 c -10.203076,0 -18.417969,8.214893 -18.417969,18.417968 V 232.20312 c 0,10.20308 8.214893,18.41602 18.417969,18.41602 h 43.730468 c -4.29741,-12.01372 -1.6581,-25.9962 7.92969,-35.58398 l 64.64258,-64.64454 c 6.08308,-6.08305 13.93369,-9.36019 21.92968,-9.85351 V 69.037109 c 0,-10.203075 -8.21489,-18.417968 -18.41797,-18.417968 z M 109.95703,79.8125 h 91.42774 c 5.73785,0 10.35742,4.617612 10.35742,10.355469 0,5.737856 -4.61957,10.357421 -10.35742,10.357421 h -91.42774 c -5.73786,0 -10.357421,-4.619565 -10.357421,-10.357421 0,-5.737857 4.619561,-10.355469 10.357421,-10.355469 z m 0,35.78711 h 91.42774 c 5.73785,0 10.35742,4.61956 10.35742,10.35742 0,5.73786 -4.61957,10.35547 -10.35742,10.35547 h -91.42774 c -5.73786,0 -10.357421,-4.61761 -10.357421,-10.35547 0,-5.73786 4.619561,-10.35742 10.357421,-10.35742 z m 0,35.61328 h 50 c 5.83392,0 10.5293,4.69733 10.5293,10.53125 0,5.83392 -4.69538,10.5293 -10.5293,10.5293 h -50 c -5.83392,0 -10.531249,-4.69538 -10.531249,-10.5293 0,-5.83392 4.697329,-10.53125 10.531249,-10.53125 z"
         style="opacity:1;vector-effect:none;fill:#58c3f0;fill-opacity:1;stroke:none;stroke-width:17.15655708;stroke-linecap:round;stroke-linejoin:bevel;stroke-miterlimit:4;stroke-dasharray:none;stroke-dashoffset:0;stroke-opacity:1"
         inkscape:connector-curvature="0" />
      <path
         inkscape:connector-curvature="0"
         id="rect894"
         d="m 68.735261,40.838697 c -3.089722,-3.089722 -8.111869,-3.08972 -11.20159,-1e-6 l -17.10253,17.10253 c -3.089721,3.089721 -3.089906,8.112053 -1.85e-4,11.201776 3.089722,3.089721 8.112241,3.089721 11.201962,10e-7 l 17.10253,-17.10253 c 3.08972,-3.08972 3.089538,-8.112058 -1.87e-4,-11.201776 z m -1.526609,1.52661 c 2.270365,2.270365 2.270551,5.878193 1.87e-4,8.148558 l -7.121257,7.121257 -1.161259,-1.161259 c 5.151839,-4.766037 8.113818,-8.393898 7.115483,-15.014949 0.415355,0.245482 0.807806,0.547353 1.166846,0.906393 z m -16.606204,8.457831 4.07549,4.07549 4.073069,4.073069 -8.644697,8.644697 c -2.270365,2.270364 -5.878379,2.270364 -8.148744,-2e-6 -2.270367,-2.270365 -2.27018,-5.878194 1.85e-4,-8.148557 z"
         style="color:#000000;font-style:normal;font-variant:normal;font-weight:normal;font-stretch:normal;font-size:medium;line-height:normal;font-family:sans-serif;font-variant-ligatures:normal;font-variant-position:normal;font-variant-caps:normal;font-variant-numeric:normal;font-variant-alternates:normal;font-feature-settings:normal;text-indent:0;text-align:start;text-decoration:none;text-decoration-line:none;text-decoration-style:solid;text-decoration-color:#000000;letter-spacing:normal;word-spacing:normal;text-transform:none;writing-mode:lr-tb;direction:ltr;text-orientation:mixed;dominant-baseline:auto;baseline-shift:baseline;text-anchor:start;white-space:normal;shape-padding:0;clip-rule:nonzero;display:inline;overflow:visible;visibility:visible;opacity:1;isolation:auto;mix-blend-mode:normal;color-interpolation:sRGB;color-interpolation-filters:linearRGB;solid-color:#000000;solid-opacity:1;vector-effect:none;fill:#58c3f0;fill-opacity:1;fill-rule:nonzero;stroke:none;stroke-width:2.15900636;stroke-linecap:round;stroke-linejoin:bevel;stroke-miterlimit:4;stroke-dasharray:none;stroke-dashoffset:0;stroke-opacity:1;color-rendering:auto;image-rendering:auto;shape-rendering:auto;text-rendering:auto;enable-background:accumulate" />
    </g>
  </g>
  <g
     inkscape:groupmode="layer"
     id="layer3"
     inkscape:label="Layer 3"
     style="display:none">
    <rect
       style="opacity:1;vector-effect:none;fill:#ededec;fill-opacity:1;stroke:none;stroke-width:14.68532562;stroke-linecap:round;stroke-linejoin:round;stroke-miterlimit:4;stroke-dasharray:none;stroke-dashoffset:0;stroke-opacity:1"
       id="rect826-3-5"
       width="67.73333"
       height="67.73333"
       x="5.9849014"
       y="5.9849033"
       ry="13.546667"
       inkscape:export-filename="/home/vit/ProjectG70/care-up/care-up/Assets/Resources/Sprites/FullScreenIcon.png"
       inkscape:export-xdpi="96"
       inkscape:export-ydpi="96" />
    <path
       id="path1043"
       transform="scale(0.26458333)"
       d="m 89.703125,50.619141 c -10.203077,0 -18.417969,8.214901 -18.417969,18.417968 v 91.664061 71.5 0.002 c 6.6e-5,0.63702 0.03311,1.26672 0.0957,1.88672 v 0.002 c 0.06266,0.61997 0.155195,1.23015 0.277344,1.83008 v 0.002 c 0.122211,0.5999 0.274456,1.18881 0.453125,1.76562 v 0.002 c 0.178729,0.5768 0.385032,1.14073 0.617188,1.6914 v 0.002 c 0.232214,0.55066 0.490826,1.08786 0.773437,1.60937 v 0.002 c 0.28267,0.52151 0.589887,1.02632 0.919922,1.51563 v 0.002 c 0.330095,0.48931 0.684163,0.96195 1.058594,1.41602 1.873954,2.27263 4.284336,4.08415 7.041015,5.24609 1.102477,0.46469 2.259846,0.82581 3.460938,1.07031 1.201092,0.2445 2.445318,0.37305 3.720703,0.37305 h 43.730468 76.08399 c 10.20307,0 18.41797,-8.2149 18.41797,-18.41797 v -91.66406 -71.500001 -0.002 c 0,-0.637035 -0.0332,-1.266718 -0.0957,-1.886718 v -0.002 c -0.0626,-0.619978 -0.15525,-1.230161 -0.27734,-1.830078 v -0.002 c -0.12215,-0.599897 -0.27455,-1.188822 -0.45312,-1.765625 v -0.002 c -0.17868,-0.576788 -0.38509,-1.140746 -0.61719,-1.691406 v -0.002 c -0.23217,-0.55065 -0.49088,-1.087888 -0.77344,-1.609375 v -0.002 c -0.28262,-0.521481 -0.58993,-1.026343 -0.91992,-1.515626 v -0.002 c -0.33006,-0.489279 -0.6842,-0.961971 -1.0586,-1.416015 v -0.002 c -0.37476,-0.454414 -0.77136,-0.88861 -1.1875,-1.304688 -1.66455,-1.664554 -3.64856,-3.009884 -5.85351,-3.939453 -1.10248,-0.464693 -2.25985,-0.825816 -3.46094,-1.070312 -1.20109,-0.244501 -2.44532,-0.373047 -3.7207,-0.373047 h -43.73047 z m 7.021484,15.759765 h 41.916011 c 5.73784,0 10.35743,4.619589 10.35743,10.357422 v 40.400392 c 0,5.73783 -4.61959,10.35742 -10.35743,10.35742 H 96.724609 c -5.737833,0 -10.357421,-4.61959 -10.357421,-10.35742 V 76.736328 c 0,-5.737833 4.619588,-10.357422 10.357421,-10.357422 z m 20.958981,9.533203 a 11.933812,11.933812 0 0 0 -11.93554,11.933594 11.933812,11.933812 0 0 0 11.93554,11.933594 11.933812,11.933812 0 0 0 11.9336,-11.933594 11.933812,11.933812 0 0 0 -11.9336,-11.933594 z m 47.85157,1.75586 h 40.4414 c 3.4625,0 6.25,2.7875 6.25,6.25 0,3.4625 -2.7875,6.25 -6.25,6.25 h -40.4414 c -3.4625,0 -6.25,-2.7875 -6.25,-6.25 0,-3.4625 2.7875,-6.25 6.25,-6.25 z m 0,21.429687 h 40.4414 c 3.4625,0 6.25,2.787504 6.25,6.250004 0,3.4625 -2.7875,6.25 -6.25,6.25 h -40.4414 c -3.4625,0 -6.25,-2.7875 -6.25,-6.25 0,-3.4625 2.7875,-6.250004 6.25,-6.250004 z m -47.85157,3.900394 a 20.45559,20.45559 0 0 0 -20.355465,18.43554 h 40.689455 a 20.45559,20.45559 0 0 0 -20.33399,-18.43554 z m 47.85157,17.52734 h 40.4414 c 3.4625,0 6.25,2.7875 6.25,6.25 0,3.4625 -2.7875,6.25 -6.25,6.25 h -40.4414 c -3.4625,0 -6.25,-2.7875 -6.25,-6.25 0,-3.4625 2.7875,-6.25 6.25,-6.25 z M 92.677734,141.95508 H 205.97656 c 3.4625,0 6.25,2.7875 6.25,6.25 0,3.4625 -2.7875,6.25 -6.25,6.25 H 92.677734 c -3.4625,0 -6.25,-2.7875 -6.25,-6.25 0,-3.4625 2.7875,-6.25 6.25,-6.25 z m 0,21.42773 H 205.97656 c 3.4625,0 6.25,2.7875 6.25,6.25 0,3.4625 -2.7875,6.25 -6.25,6.25 H 92.677734 c -3.4625,0 -6.25,-2.7875 -6.25,-6.25 0,-3.4625 2.7875,-6.25 6.25,-6.25 z m 0,21.42969 H 205.97656 c 3.4625,0 6.25,2.7875 6.25,6.25 0,3.4625 -2.7875,6.25 -6.25,6.25 H 92.677734 c -3.4625,0 -6.25,-2.7875 -6.25,-6.25 0,-3.4625 2.7875,-6.25 6.25,-6.25 z"
       style="opacity:0.25;vector-effect:none;fill:#000000;fill-opacity:1;stroke:none;stroke-width:17.15655708;stroke-linecap:round;stroke-linejoin:bevel;stroke-miterlimit:4;stroke-dasharray:none;stroke-dashoffset:0;stroke-opacity:1;filter:url(#filter1053)"
       inkscape:connector-curvature="0" />
    <path
       style="opacity:1;vector-effect:none;fill:#58c3f0;fill-opacity:1;stroke:none;stroke-width:17.15655708;stroke-linecap:round;stroke-linejoin:bevel;stroke-miterlimit:4;stroke-dasharray:none;stroke-dashoffset:0;stroke-opacity:1"
       d="m 89.703125,50.619141 c -10.203077,0 -18.417969,8.214901 -18.417969,18.417968 v 91.664061 71.5 0.002 c 6.6e-5,0.63702 0.03311,1.26672 0.0957,1.88672 v 0.002 c 0.06266,0.61997 0.155195,1.23015 0.277344,1.83008 v 0.002 c 0.122211,0.5999 0.274456,1.18881 0.453125,1.76562 v 0.002 c 0.178729,0.5768 0.385032,1.14073 0.617188,1.6914 v 0.002 c 0.232214,0.55066 0.490826,1.08786 0.773437,1.60937 v 0.002 c 0.28267,0.52151 0.589887,1.02632 0.919922,1.51563 v 0.002 c 0.330095,0.48931 0.684163,0.96195 1.058594,1.41602 1.873954,2.27263 4.284336,4.08415 7.041015,5.24609 1.102477,0.46469 2.259846,0.82581 3.460938,1.07031 1.201092,0.2445 2.445318,0.37305 3.720703,0.37305 h 43.730468 76.08399 c 10.20307,0 18.41797,-8.2149 18.41797,-18.41797 v -91.66406 -71.500001 -0.002 c 0,-0.637035 -0.0332,-1.266718 -0.0957,-1.886718 v -0.002 c -0.0626,-0.619978 -0.15525,-1.230161 -0.27734,-1.830078 v -0.002 c -0.12215,-0.599897 -0.27455,-1.188822 -0.45312,-1.765625 v -0.002 c -0.17868,-0.576788 -0.38509,-1.140746 -0.61719,-1.691406 v -0.002 c -0.23217,-0.55065 -0.49088,-1.087888 -0.77344,-1.609375 v -0.002 c -0.28262,-0.521481 -0.58993,-1.026343 -0.91992,-1.515626 v -0.002 c -0.33006,-0.489279 -0.6842,-0.961971 -1.0586,-1.416015 v -0.002 c -0.37476,-0.454414 -0.77136,-0.88861 -1.1875,-1.304688 -1.66455,-1.664554 -3.64856,-3.009884 -5.85351,-3.939453 -1.10248,-0.464693 -2.25985,-0.825816 -3.46094,-1.070312 -1.20109,-0.244501 -2.44532,-0.373047 -3.7207,-0.373047 h -43.73047 z m 7.021484,15.759765 h 41.916011 c 5.73784,0 10.35743,4.619589 10.35743,10.357422 v 40.400392 c 0,5.73783 -4.61959,10.35742 -10.35743,10.35742 H 96.724609 c -5.737833,0 -10.357421,-4.61959 -10.357421,-10.35742 V 76.736328 c 0,-5.737833 4.619588,-10.357422 10.357421,-10.357422 z m 20.958981,9.533203 a 11.933812,11.933812 0 0 0 -11.93554,11.933594 11.933812,11.933812 0 0 0 11.93554,11.933594 11.933812,11.933812 0 0 0 11.9336,-11.933594 11.933812,11.933812 0 0 0 -11.9336,-11.933594 z m 47.85157,1.75586 h 40.4414 c 3.4625,0 6.25,2.7875 6.25,6.25 0,3.4625 -2.7875,6.25 -6.25,6.25 h -40.4414 c -3.4625,0 -6.25,-2.7875 -6.25,-6.25 0,-3.4625 2.7875,-6.25 6.25,-6.25 z m 0,21.429687 h 40.4414 c 3.4625,0 6.25,2.787504 6.25,6.250004 0,3.4625 -2.7875,6.25 -6.25,6.25 h -40.4414 c -3.4625,0 -6.25,-2.7875 -6.25,-6.25 0,-3.4625 2.7875,-6.250004 6.25,-6.250004 z m -47.85157,3.900394 a 20.45559,20.45559 0 0 0 -20.355465,18.43554 h 40.689455 a 20.45559,20.45559 0 0 0 -20.33399,-18.43554 z m 47.85157,17.52734 h 40.4414 c 3.4625,0 6.25,2.7875 6.25,6.25 0,3.4625 -2.7875,6.25 -6.25,6.25 h -40.4414 c -3.4625,0 -6.25,-2.7875 -6.25,-6.25 0,-3.4625 2.7875,-6.25 6.25,-6.25 z M 92.677734,141.95508 H 205.97656 c 3.4625,0 6.25,2.7875 6.25,6.25 0,3.4625 -2.7875,6.25 -6.25,6.25 H 92.677734 c -3.4625,0 -6.25,-2.7875 -6.25,-6.25 0,-3.4625 2.7875,-6.25 6.25,-6.25 z m 0,21.42773 H 205.97656 c 3.4625,0 6.25,2.7875 6.25,6.25 0,3.4625 -2.7875,6.25 -6.25,6.25 H 92.677734 c -3.4625,0 -6.25,-2.7875 -6.25,-6.25 0,-3.4625 2.7875,-6.25 6.25,-6.25 z m 0,21.42969 H 205.97656 c 3.4625,0 6.25,2.7875 6.25,6.25 0,3.4625 -2.7875,6.25 -6.25,6.25 H 92.677734 c -3.4625,0 -6.25,-2.7875 -6.25,-6.25 0,-3.4625 2.7875,-6.25 6.25,-6.25 z"
       transform="scale(0.26458333)"
       id="rect890-6"
       inkscape:connector-curvature="0" />
  </g>
  <g
     inkscape:groupmode="layer"
     id="layer4"
     inkscape:label="Layer 4">
    <rect
       style="display:inline;opacity:1;vector-effect:none;fill:#ededec;fill-opacity:1;stroke:none;stroke-width:14.68532562;stroke-linecap:round;stroke-linejoin:round;stroke-miterlimit:4;stroke-dasharray:none;stroke-dashoffset:0;stroke-opacity:1"
       id="rect826-3-5-2"
       width="67.73333"
       height="67.73333"
       x="5.9849014"
       y="5.9849033"
       ry="13.546667"
       inkscape:export-filename="/home/vit/ProjectG70/care-up/care-up/Assets/Resources/Sprites/FullScreenIcon.png"
       inkscape:export-xdpi="96"
       inkscape:export-ydpi="96" />
    <path
       style="display:inline;opacity:0.25;vector-effect:none;fill:#000000;fill-opacity:1;stroke:none;stroke-width:17.15655708;stroke-linecap:round;stroke-linejoin:bevel;stroke-miterlimit:4;stroke-dasharray:none;stroke-dashoffset:0;stroke-opacity:1;filter:url(#filter1141)"
       d="M 89.703125 50.619141 C 79.500048 50.619141 71.285156 58.834048 71.285156 69.037109 L 71.285156 160.70117 L 71.285156 232.20117 L 71.285156 232.20312 C 71.285221 232.84014 71.318429 233.46985 71.380859 234.08984 L 71.380859 234.0918 C 71.443519 234.71177 71.536049 235.32195 71.658203 235.92188 L 71.658203 235.92383 C 71.780395 236.52373 71.932674 237.11264 72.111328 237.68945 L 72.111328 237.69141 C 72.290062 238.26821 72.496358 238.83214 72.728516 239.38281 L 72.728516 239.38477 C 72.96073 239.93543 73.219343 240.47263 73.501953 240.99414 L 73.501953 240.99609 C 73.784624 241.5176 74.091839 242.02241 74.421875 242.51172 L 74.421875 242.51367 C 74.751979 243.00298 75.106039 243.47562 75.480469 243.92969 C 77.354423 246.20232 79.764807 248.01384 82.521484 249.17578 C 83.623961 249.64047 84.78133 250.0016 85.982422 250.24609 C 87.18351 250.49059 88.427739 250.61914 89.703125 250.61914 L 133.43359 250.61914 L 209.51758 250.61914 C 219.72065 250.61914 227.93555 242.40424 227.93555 232.20117 L 227.93555 153.61328 C 227.83875 153.71787 227.55598 153.91213 226.62891 154.38086 C 223.05022 156.19018 219.52692 155.51331 216.84961 154.11523 C 214.99659 153.1476 213.26032 151.67298 212.12109 149.60352 C 210.93094 152.91365 207.78092 155.27344 204.05078 155.27344 L 199.36719 155.27344 C 190.98571 162.98605 182.33264 170.74143 173.55859 178.14258 C 173.54689 178.15258 173.53524 178.16218 173.52344 178.17188 C 158.1939 190.91912 145.31568 200.96536 134.83789 207.98242 L 158.72461 208.2793 L 170.03516 198.67578 C 171.32358 197.58279 172.95887 196.98392 174.64844 196.98633 C 176.32621 196.98704 177.94977 197.58057 179.23242 198.66211 L 189.33789 207.1875 L 207.32812 198.72852 C 210.87682 197.10275 215.07236 198.63905 216.73242 202.17188 C 218.39248 205.70465 216.8974 209.91518 213.38086 211.60938 L 191.26562 222.00977 C 188.74803 223.19327 185.7716 222.8011 183.64648 221.00586 L 174.65625 213.41797 L 165.9082 220.85156 C 164.59834 221.96302 162.93062 222.5631 161.21289 222.54102 L 111.69531 221.92969 C 105.28625 221.92969 101.72894 214.89562 101.97656 209.46094 C 102.04246 207.65743 102.38254 205.92121 103.0625 204.11523 C 105.61605 197.3339 111.05763 188.772 119.07812 177.70703 C 123.9492 170.98701 129.77539 163.44566 136.4043 155.27344 L 101.01562 155.27344 C 96.258832 155.27344 92.429686 151.44431 92.429688 146.6875 C 92.429688 141.93069 96.258832 138.09961 101.01562 138.09961 L 150.74414 138.09961 C 155.18407 132.95971 159.53656 128.56632 164.0332 123.95898 L 101.01562 123.95898 C 96.258832 123.95898 92.429686 120.12986 92.429688 115.37305 C 92.429688 110.61624 96.258832 106.78516 101.01562 106.78516 L 179.90039 106.78516 C 184.82084 101.46641 189.35659 96.759429 193.55664 92.644531 L 101.01562 92.644531 C 96.258832 92.644531 92.429686 88.813449 92.429688 84.056641 C 92.429688 79.299832 96.258832 75.470703 101.01562 75.470703 L 204.05078 75.470703 C 206.47208 75.470703 208.64911 76.46677 210.20703 78.068359 C 216.58553 73.309287 222.22091 70.29373 227.93555 69.359375 L 227.93555 69.037109 L 227.93555 69.035156 C 227.93555 68.398121 227.90224 67.768435 227.83984 67.148438 L 227.83984 67.146484 C 227.77724 66.526506 227.68458 65.916323 227.5625 65.316406 L 227.5625 65.314453 C 227.44035 64.714555 227.28791 64.125633 227.10938 63.548828 L 227.10938 63.546875 C 226.93072 62.970085 226.72429 62.406131 226.49219 61.855469 L 226.49219 61.853516 C 226.26001 61.302865 226.00131 60.765628 225.71875 60.244141 L 225.71875 60.242188 C 225.43612 59.720707 225.12882 59.215845 224.79883 58.726562 L 224.79883 58.724609 C 224.46876 58.235327 224.11463 57.762636 223.74023 57.308594 L 223.74023 57.306641 C 223.36546 56.852228 222.96888 56.41803 222.55273 56.001953 C 220.88819 54.337396 218.90417 52.992071 216.69922 52.0625 C 215.59674 51.597807 214.43937 51.236681 213.23828 50.992188 C 212.03719 50.74769 210.79296 50.619141 209.51758 50.619141 L 165.78711 50.619141 L 89.703125 50.619141 z M 241.18945 67.173828 L 237 71.328125 L 232.80859 75.484375 L 230.53516 75.648438 C 220.42953 76.377009 205.61766 88.22187 181.10938 115.17383 C 173.76002 123.25598 171.5957 125.71921 171.5957 126.00195 C 171.5957 126.13824 176.8689 131.52179 183.3125 137.9668 C 189.7561 144.4118 195.10081 149.68555 195.19141 149.68555 C 195.68066 149.68555 212.31095 134.46064 219.67383 127.27148 C 224.22922 122.82357 230.96073 115.67466 232.99219 113.12891 C 233.51559 112.47301 234.07082 111.93019 234.22461 111.92188 C 234.58411 111.90302 240.90234 118.19541 240.90234 118.57227 C 240.90234 118.72855 235.67162 124.10007 229.27734 130.50781 C 216.7368 143.07478 216.97971 142.77069 217.44922 145.27344 C 217.93359 147.85526 221.39953 149.66543 223.66602 148.51953 C 224.00724 148.34701 230.45702 142.05283 237.99805 134.53125 C 252.69921 119.86798 252.5309 120.06825 252.10156 117.6543 C 251.94082 116.75056 251.01436 115.6883 245.85352 110.48633 L 239.79492 104.38086 L 240.79688 102.81836 C 243.67781 98.325427 245.37279 93.897564 245.63672 90.177734 L 245.79688 87.90625 L 249.81055 83.855469 L 253.82227 79.806641 L 247.50586 73.490234 L 241.18945 67.173828 z M 160.78906 136.61914 C 160.70226 136.61914 158.20072 139.46343 155.23047 142.93945 C 130.27112 172.14883 113.30269 195.55821 109.20898 206.42969 C 108.39667 208.5872 108.30245 211.16003 109.00781 211.93945 C 109.70164 212.70611 112.31749 212.6359 114.56641 211.78906 C 124.26978 208.13521 143.82155 194.3298 169.32422 173.12305 C 174.66002 168.68604 182.85355 161.72206 184.08789 160.57617 C 184.45218 160.23794 182.9392 158.61525 172.72852 148.40234 C 166.249 141.92142 160.87573 136.61914 160.78906 136.61914 z "
       transform="scale(0.26458333)"
       id="path1128" />
    <path
       style="display:inline;opacity:1;vector-effect:none;fill:#58c3f0;fill-opacity:1;stroke:none;stroke-width:17.15655708;stroke-linecap:round;stroke-linejoin:bevel;stroke-miterlimit:4;stroke-dasharray:none;stroke-dashoffset:0;stroke-opacity:1"
       d="m 89.703125,50.619141 c -10.203077,0 -18.417969,8.214906 -18.417969,18.417968 v 91.664061 71.5 0.002 c 6.5e-5,0.63702 0.03327,1.26673 0.0957,1.88672 v 0.002 c 0.06266,0.61997 0.15519,1.23015 0.277344,1.83008 v 0.002 c 0.122192,0.5999 0.274471,1.18881 0.453125,1.76562 v 0.002 c 0.178734,0.5768 0.38503,1.14073 0.617188,1.6914 v 0.002 c 0.232214,0.55066 0.490827,1.08786 0.773437,1.60937 v 0.002 c 0.282671,0.52151 0.589886,1.02632 0.919922,1.51563 v 0.002 c 0.330104,0.48931 0.684164,0.96195 1.058594,1.41602 1.873954,2.27263 4.284338,4.08415 7.041015,5.24609 1.102477,0.46469 2.259846,0.82582 3.460938,1.07031 1.201088,0.2445 2.445317,0.37305 3.720703,0.37305 h 43.730465 76.08399 c 10.20307,0 18.41797,-8.2149 18.41797,-18.41797 v -78.58789 c -0.0968,0.10459 -0.37957,0.29885 -1.30664,0.76758 -3.57869,1.80932 -7.10199,1.13245 -9.7793,-0.26563 -1.85302,-0.96763 -3.58929,-2.44225 -4.72852,-4.51171 -1.19015,3.31013 -4.34017,5.66992 -8.07031,5.66992 h -4.68359 c -8.38148,7.71261 -17.03455,15.46799 -25.8086,22.86914 -0.0117,0.01 -0.0234,0.0196 -0.0352,0.0293 -15.32954,12.74725 -28.20776,22.79348 -38.68555,29.81054 l 23.88672,0.29688 11.31055,-9.60352 c 1.28842,-1.09299 2.92371,-1.69186 4.61328,-1.68945 1.67777,7.1e-4 3.30133,0.59424 4.58398,1.67578 l 10.10547,8.52539 17.99023,-8.45898 c 3.5487,-1.62577 7.74466,-0.0896 9.40472,3.44323 1.66006,3.53278 0.16456,7.74343 -3.35198,9.43763 l -22.11524,10.40039 c -2.5176,1.1835 -5.49402,0.79133 -7.61914,-1.00391 l -8.99023,-7.58789 -8.74805,7.43359 c -1.30986,1.11146 -2.97758,1.71154 -4.69531,1.68946 l -49.51758,-0.61133 c -6.40906,0 -9.96637,-7.03407 -9.71875,-12.46875 0.0659,-1.80351 0.40598,-3.53973 1.08594,-5.34571 2.55355,-6.78133 7.99512,-15.34323 16.01562,-26.4082 4.87108,-6.72002 10.69727,-14.26137 17.32618,-22.43359 h -35.38868 c -4.756793,0 -8.585933,-3.82913 -8.585932,-8.58594 0,-4.75681 3.829139,-8.58789 8.585932,-8.58789 h 49.72852 c 4.43993,-5.1399 8.79242,-9.53329 13.28906,-14.14063 h -63.01758 c -4.756793,0 -8.585933,-3.82912 -8.585932,-8.58593 0,-4.75681 3.829139,-8.58789 8.585932,-8.58789 h 78.88477 c 4.92045,-5.31875 9.4562,-10.025731 13.65625,-14.140629 h -92.54102 c -4.756793,0 -8.585933,-3.831082 -8.585932,-8.58789 0,-4.756809 3.829139,-8.585938 8.585932,-8.585938 h 103.03516 c 2.4213,0 4.59833,0.996067 6.15625,2.597656 6.3785,-4.759072 12.01388,-7.774629 17.72852,-8.708984 v -0.322266 -0.002 c 0,-0.637035 -0.0333,-1.26672 -0.0957,-1.886718 v -0.002 c -0.0626,-0.619978 -0.15526,-1.230161 -0.27734,-1.830078 v -0.002 c -0.12215,-0.599898 -0.27458,-1.18882 -0.45312,-1.765625 v -0.002 c -0.17866,-0.57679 -0.38509,-1.140744 -0.61719,-1.691406 v -0.002 c -0.23218,-0.550651 -0.49088,-1.087888 -0.77344,-1.609375 v -0.002 c -0.28263,-0.521481 -0.58993,-1.026343 -0.91992,-1.515626 v -0.002 c -0.33007,-0.489282 -0.6842,-0.961973 -1.0586,-1.416015 v -0.002 c -0.37477,-0.454413 -0.77135,-0.888611 -1.1875,-1.304688 -1.66454,-1.664557 -3.64856,-3.009882 -5.85351,-3.939453 -1.10248,-0.464693 -2.25985,-0.825818 -3.46094,-1.070312 -1.20109,-0.244498 -2.44532,-0.373047 -3.7207,-0.373047 h -43.73047 z"
       transform="scale(0.26458333)"
       id="rect890-6-0"
       inkscape:connector-curvature="0"
       sodipodi:nodetypes="ssccccccccccccccccccscssccccsccccccccccscccccccccccsssccsssccsssscccscccccccccccccccccscs" />
    <path
       style="fill:#139bd5;stroke-width:0.07515395;fill-opacity:1"
       d="m 28.841643,56.075855 c -0.186626,-0.206222 -0.161814,-0.887027 0.05311,-1.457868 1.083125,-2.876413 5.572845,-9.07031 12.176673,-16.798625 0.785879,-0.919697 1.447662,-1.672176 1.470629,-1.672176 0.02293,0 1.444429,1.402973 3.1588,3.117717 2.701576,2.702164 3.102209,3.131478 3.005823,3.220969 -0.326585,0.303182 -2.494732,2.145545 -3.906495,3.319502 -6.74758,5.610954 -11.920292,9.263651 -14.487642,10.2304 -0.595027,0.224058 -1.287356,0.242924 -1.47093,0.04008 z m 19.65956,-19.572023 c -1.70487,-1.705241 -3.099761,-3.12994 -3.099761,-3.165999 0,-0.07481 0.572458,-0.726367 2.516976,-2.864771 6.484483,-7.131039 10.403694,-10.265214 13.077474,-10.457982 l 0.601227,-0.04335 1.108886,-1.099269 1.108886,-1.099271 1.671221,1.671219 1.671222,1.671219 -1.061675,1.071326 -1.061667,1.071324 -0.04268,0.601232 c -0.06983,0.984205 -0.518418,2.155596 -1.280666,3.344351 l -0.265037,0.413347 1.603044,1.615809 c 1.365474,1.376355 1.610441,1.657411 1.65297,1.896524 0.113595,0.638692 0.158236,0.585278 -3.731447,4.464934 -1.995229,1.990085 -3.701557,3.655685 -3.791839,3.701331 -0.599675,0.303185 -1.516762,-0.175536 -1.644918,-0.858642 -0.124225,-0.662185 -0.188471,-0.581983 3.129548,-3.906994 1.691818,-1.695382 3.076026,-3.116343 3.076026,-3.157692 0,-0.09971 -1.67217,-1.7648 -1.767289,-1.759812 -0.04069,0.0022 -0.187282,0.145865 -0.325766,0.319404 -0.537489,0.673563 -2.318797,2.564884 -3.524078,3.741729 -1.948096,1.902131 -6.347921,5.930464 -6.47737,5.930464 -0.02397,0 -1.438429,-1.395196 -3.143299,-3.100436 z"
       id="path1099"
       inkscape:connector-curvature="0" />
  </g>
</svg>
