<?xml version="1.0" encoding="UTF-8" standalone="no"?>
<!-- Created with Inkscape (http://www.inkscape.org/) -->

<svg
   xmlns:dc="http://purl.org/dc/elements/1.1/"
   xmlns:cc="http://creativecommons.org/ns#"
   xmlns:rdf="http://www.w3.org/1999/02/22-rdf-syntax-ns#"
   xmlns:svg="http://www.w3.org/2000/svg"
   xmlns="http://www.w3.org/2000/svg"
   xmlns:xlink="http://www.w3.org/1999/xlink"
   xmlns:sodipodi="http://sodipodi.sourceforge.net/DTD/sodipodi-0.dtd"
   xmlns:inkscape="http://www.inkscape.org/namespaces/inkscape"
   width="79.703133mm"
   height="79.703133mm"
   viewBox="0 0 79.703133 79.703133"
   version="1.1"
   id="svg8"
   inkscape:version="0.92.1 r15371"
   sodipodi:docname="FullScreenIcon.svg"
   inkscape:export-filename="C:\projects\care-up\care-up\Assets\Resources\Sprites\UI_GenerealTab.png"
   inkscape:export-xdpi="81.582741"
   inkscape:export-ydpi="81.582741">
  <defs
     id="defs2">
    <filter
       inkscape:collect="always"
       style="color-interpolation-filters:sRGB"
       id="filter994"
       x="-0.064800002"
       width="1.1296"
       y="-0.064800002"
       height="1.1296">
      <feGaussianBlur
         inkscape:collect="always"
         stdDeviation="1.1248344"
         id="feGaussianBlur996" />
    </filter>
    <clipPath
       clipPathUnits="userSpaceOnUse"
       id="clipPath863">
      <rect
         style="opacity:0.90700001;vector-effect:none;fill:#ffd5d5;fill-opacity:0.99799595;stroke:#ffffff;stroke-width:3.60600019;stroke-linecap:round;stroke-linejoin:bevel;stroke-miterlimit:4;stroke-dasharray:none;stroke-dashoffset:0;stroke-opacity:1"
         id="rect865"
         width="84.189903"
         height="76.706345"
         x="402.8136"
         y="-155.99344"
         ry="11.225318" />
    </clipPath>
    <clipPath
       clipPathUnits="userSpaceOnUse"
       id="clipPath863-6">
      <rect
         style="opacity:0.90700001;vector-effect:none;fill:#ffd5d5;fill-opacity:0.99799595;stroke:#ffffff;stroke-width:3.60600019;stroke-linecap:round;stroke-linejoin:bevel;stroke-miterlimit:4;stroke-dasharray:none;stroke-dashoffset:0;stroke-opacity:1"
         id="rect865-7"
         width="84.189903"
         height="76.706345"
         x="402.8136"
         y="-155.99344"
         ry="11.225318" />
    </clipPath>
    <filter
       inkscape:collect="always"
       style="color-interpolation-filters:sRGB"
       id="filter1038"
       x="-0.06153162"
       width="1.1230632"
       y="-0.058542777"
       height="1.1170856">
      <feGaussianBlur
         inkscape:collect="always"
         stdDeviation="1.4164257"
         id="feGaussianBlur1040" />
    </filter>
    <filter
       inkscape:collect="always"
       style="color-interpolation-filters:sRGB"
       id="filter1053"
       x="-0.06830185"
       width="1.1366037"
       y="-0.053497559"
       height="1.1069951">
      <feGaussianBlur
         inkscape:collect="always"
         stdDeviation="4.4581299"
         id="feGaussianBlur1055" />
    </filter>
    <filter
       inkscape:collect="always"
       style="color-interpolation-filters:sRGB"
       id="filter1141"
       x="-0.062870028"
       width="1.1257401"
       y="-0.057380567"
       height="1.1147611">
      <feGaussianBlur
         inkscape:collect="always"
         stdDeviation="4.7817139"
         id="feGaussianBlur1143" />
    </filter>
    <filter
       inkscape:collect="always"
       style="color-interpolation-filters:sRGB"
       id="filter1053-7"
       x="-0.068301849"
       width="1.1366037"
       y="-0.05349756"
       height="1.1069951">
      <feGaussianBlur
         inkscape:collect="always"
         stdDeviation="4.4581299"
         id="feGaussianBlur1055-7" />
    </filter>
  </defs>
  <sodipodi:namedview
     id="base"
     pagecolor="#424242"
     bordercolor="#666666"
     borderopacity="1.0"
     inkscape:pageopacity="0"
     inkscape:pageshadow="2"
     inkscape:zoom="1.4"
     inkscape:cx="68.422616"
     inkscape:cy="137.06267"
     inkscape:document-units="mm"
     inkscape:current-layer="layer5"
     showgrid="false"
     showborder="true"
     inkscape:window-width="1920"
     inkscape:window-height="1017"
     inkscape:window-x="-8"
     inkscape:window-y="-8"
     inkscape:window-maximized="1"
     fit-margin-top="0"
     fit-margin-left="0"
     fit-margin-right="0"
     fit-margin-bottom="0"
     showguides="true"
     inkscape:guide-bbox="true"
     inkscape:snap-global="false">
    <sodipodi:guide
       position="175.86336,-34.74504"
       orientation="1,0"
       id="guide888"
       inkscape:locked="false" />
  </sodipodi:namedview>
  <metadata
     id="metadata5">
    <rdf:RDF>
      <cc:Work
         rdf:about="">
        <dc:format>image/svg+xml</dc:format>
        <dc:type
           rdf:resource="http://purl.org/dc/dcmitype/StillImage" />
        <dc:title />
      </cc:Work>
    </rdf:RDF>
  </metadata>
  <g
     inkscape:label="full screen"
     inkscape:groupmode="layer"
     id="layer1"
     transform="translate(6.6433145,41.658898)"
     style="display:none" />
  <g
     inkscape:groupmode="layer"
     id="layer2"
     inkscape:label="prescription"
     style="display:none">
    <image
       sodipodi:absref="C:\projects\care-up\images\../care-up/Assets/Resources/Sprites/UI_Sprites_2.png"
       xlink:href="../care-up/Assets/Resources/Sprites/UI_Sprites_2.png"
       transform="rotate(-9.2045762,1725.7868,1575.2526)"
       clip-path="url(#clipPath863-6)"
       y="-266.95914"
       x="97.503395"
       id="image859"
       preserveAspectRatio="none"
       height="722.84167"
       width="722.84167" />
    <g
       id="g4618">
      <rect
         inkscape:export-ydpi="96"
         inkscape:export-xdpi="96"
         inkscape:export-filename="/home/vit/ProjectG70/care-up/care-up/Assets/Resources/Sprites/FullScreenIcon.png"
         ry="13.546667"
         y="-35.673996"
         x="-0.65841305"
         height="67.73333"
         width="67.73333"
         id="rect826"
         style="display:inline;opacity:1;vector-effect:none;fill:#ededec;fill-opacity:1;stroke:none;stroke-width:14.68532562;stroke-linecap:round;stroke-linejoin:round;stroke-miterlimit:4;stroke-dasharray:none;stroke-dashoffset:0;stroke-opacity:1"
         transform="translate(6.6433144,41.658897)" />
      <g
         style="display:inline;opacity:0.29500002;fill:#000000;filter:url(#filter994)"
         id="g876"
         transform="matrix(0.80333797,0.80333797,-0.80333797,0.80333797,11.152381,12.286124)">
        <path
           inkscape:connector-curvature="0"
           id="path872"
           d="m 34.947704,-29.975213 -14.574824,14.457515 10.488767,-1e-6 V -5.0759598 H 39.1769 l -1e-6,-10.4417392 h 10.488766 z"
           style="opacity:1;vector-effect:none;fill:#000000;fill-opacity:1;stroke:none;stroke-width:14.16143227;stroke-linecap:round;stroke-linejoin:round;stroke-miterlimit:4;stroke-dasharray:none;stroke-dashoffset:0;stroke-opacity:1" />
        <path
           style="opacity:1;vector-effect:none;fill:#000000;fill-opacity:1;stroke:none;stroke-width:14.16143227;stroke-linecap:round;stroke-linejoin:round;stroke-miterlimit:4;stroke-dasharray:none;stroke-dashoffset:0;stroke-opacity:1"
           d="M 34.947704,28.563921 20.37288,14.106406 l 10.488767,1e-6 V 3.664668 H 39.1769 l -1e-6,10.441739 h 10.488766 z"
           id="path874"
           inkscape:connector-curvature="0" />
      </g>
      <g
         transform="matrix(0.80333797,0.80333797,-0.80333797,0.80333797,11.152381,12.286124)"
         id="g870"
         style="display:inline">
        <path
           style="opacity:1;vector-effect:none;fill:#73cbed;fill-opacity:1;stroke:none;stroke-width:14.16143227;stroke-linecap:round;stroke-linejoin:round;stroke-miterlimit:4;stroke-dasharray:none;stroke-dashoffset:0;stroke-opacity:1"
           d="m 34.947704,-29.975213 -14.574824,14.457515 10.488767,-1e-6 V -5.0759598 H 39.1769 l -1e-6,-10.4417392 h 10.488766 z"
           id="rect839"
           inkscape:connector-curvature="0" />
        <path
           inkscape:connector-curvature="0"
           id="path866"
           d="M 34.947704,28.563921 20.37288,14.106406 l 10.488767,1e-6 V 3.664668 H 39.1769 l -1e-6,10.441739 h 10.488766 z"
           style="opacity:1;vector-effect:none;fill:#73cbed;fill-opacity:1;stroke:none;stroke-width:14.16143227;stroke-linecap:round;stroke-linejoin:round;stroke-miterlimit:4;stroke-dasharray:none;stroke-dashoffset:0;stroke-opacity:1" />
      </g>
      <rect
         inkscape:export-ydpi="96"
         inkscape:export-xdpi="96"
         inkscape:export-filename="/home/vit/ProjectG70/care-up/care-up/Assets/Resources/Sprites/FullScreenIcon.png"
         ry="13.546667"
         y="5.9849033"
         x="5.9849014"
         height="67.73333"
         width="67.73333"
         id="rect826-3"
         style="opacity:1;vector-effect:none;fill:#ededec;fill-opacity:1;stroke:none;stroke-width:14.68532562;stroke-linecap:round;stroke-linejoin:round;stroke-miterlimit:4;stroke-dasharray:none;stroke-dashoffset:0;stroke-opacity:1" />
      <g
         style="opacity:0.28000004;fill:#000000;filter:url(#filter1038)"
         id="g1020"
         transform="translate(-1.6036172)">
        <path
           id="path1014"
           transform="scale(0.26458333)"
           d="m 82.832031,66.353516 -8.46289,1.136718 C 65.031857,68.745516 58.584162,77.264571 59.912109,86.591797 L 81.148438,235.75195 c 0.27166,1.90809 0.860226,3.68921 1.683593,5.31836 z"
           style="opacity:1;vector-effect:none;fill:#000000;fill-opacity:1;stroke:none;stroke-width:16.18788528;stroke-linecap:round;stroke-linejoin:bevel;stroke-miterlimit:4;stroke-dasharray:none;stroke-dashoffset:0;stroke-opacity:1"
           inkscape:connector-curvature="0" />
        <path
           id="path1016"
           transform="scale(0.26458333)"
           d="m 95.763672,50.619141 c -10.203076,0 -18.417969,8.214893 -18.417969,18.417968 V 232.20312 c 0,10.20308 8.214893,18.41602 18.417969,18.41602 h 43.730468 c -4.29741,-12.01372 -1.6581,-25.9962 7.92969,-35.58398 l 64.64258,-64.64454 c 6.08308,-6.08305 13.93369,-9.36019 21.92968,-9.85351 V 69.037109 c 0,-10.203075 -8.21489,-18.417968 -18.41797,-18.417968 z M 109.95703,79.8125 h 91.42774 c 5.73785,0 10.35742,4.617612 10.35742,10.355469 0,5.737856 -4.61957,10.357421 -10.35742,10.357421 h -91.42774 c -5.73786,0 -10.357421,-4.619565 -10.357421,-10.357421 0,-5.737857 4.619561,-10.355469 10.357421,-10.355469 z m 0,35.78711 h 91.42774 c 5.73785,0 10.35742,4.61956 10.35742,10.35742 0,5.73786 -4.61957,10.35547 -10.35742,10.35547 h -91.42774 c -5.73786,0 -10.357421,-4.61761 -10.357421,-10.35547 0,-5.73786 4.619561,-10.35742 10.357421,-10.35742 z m 0,35.61328 h 50 c 5.83392,0 10.5293,4.69733 10.5293,10.53125 0,5.83392 -4.69538,10.5293 -10.5293,10.5293 h -50 c -5.83392,0 -10.531249,-4.69538 -10.531249,-10.5293 0,-5.83392 4.697329,-10.53125 10.531249,-10.53125 z"
           style="opacity:1;vector-effect:none;fill:#000000;fill-opacity:1;stroke:none;stroke-width:17.15655708;stroke-linecap:round;stroke-linejoin:bevel;stroke-miterlimit:4;stroke-dasharray:none;stroke-dashoffset:0;stroke-opacity:1"
           inkscape:connector-curvature="0" />
        <path
           inkscape:connector-curvature="0"
           id="path1018"
           d="m 68.735261,40.838697 c -3.089722,-3.089722 -8.111869,-3.08972 -11.20159,-1e-6 l -17.10253,17.10253 c -3.089721,3.089721 -3.089906,8.112053 -1.85e-4,11.201776 3.089722,3.089721 8.112241,3.089721 11.201962,10e-7 l 17.10253,-17.10253 c 3.08972,-3.08972 3.089538,-8.112058 -1.87e-4,-11.201776 z m -1.526609,1.52661 c 2.270365,2.270365 2.270551,5.878193 1.87e-4,8.148558 l -7.121257,7.121257 -1.161259,-1.161259 c 5.151839,-4.766037 8.113818,-8.393898 7.115483,-15.014949 0.415355,0.245482 0.807806,0.547353 1.166846,0.906393 z m -16.606204,8.457831 4.07549,4.07549 4.073069,4.073069 -8.644697,8.644697 c -2.270365,2.270364 -5.878379,2.270364 -8.148744,-2e-6 -2.270367,-2.270365 -2.27018,-5.878194 1.85e-4,-8.148557 z"
           style="color:#000000;font-style:normal;font-variant:normal;font-weight:normal;font-stretch:normal;font-size:medium;line-height:normal;font-family:sans-serif;font-variant-ligatures:normal;font-variant-position:normal;font-variant-caps:normal;font-variant-numeric:normal;font-variant-alternates:normal;font-feature-settings:normal;text-indent:0;text-align:start;text-decoration:none;text-decoration-line:none;text-decoration-style:solid;text-decoration-color:#000000;letter-spacing:normal;word-spacing:normal;text-transform:none;writing-mode:lr-tb;direction:ltr;text-orientation:mixed;dominant-baseline:auto;baseline-shift:baseline;text-anchor:start;white-space:normal;shape-padding:0;clip-rule:nonzero;display:inline;overflow:visible;visibility:visible;opacity:1;isolation:auto;mix-blend-mode:normal;color-interpolation:sRGB;color-interpolation-filters:linearRGB;solid-color:#000000;solid-opacity:1;vector-effect:none;fill:#000000;fill-opacity:1;fill-rule:nonzero;stroke:none;stroke-width:2.15900636;stroke-linecap:round;stroke-linejoin:bevel;stroke-miterlimit:4;stroke-dasharray:none;stroke-dashoffset:0;stroke-opacity:1;color-rendering:auto;image-rendering:auto;shape-rendering:auto;text-rendering:auto;enable-background:accumulate" />
      </g>
      <path
         id="rect892"
         d="m 20.312357,17.556034 -2.239139,0.300757 c -2.47049,0.332127 -4.176443,2.586126 -3.82509,5.053955 l 5.618779,39.46529 c 0.07188,0.504849 0.227601,0.976103 0.44545,1.407149 z"
         style="opacity:1;vector-effect:none;fill:#32b5ed;fill-opacity:1;stroke:none;stroke-width:4.28304482;stroke-linecap:round;stroke-linejoin:bevel;stroke-miterlimit:4;stroke-dasharray:none;stroke-dashoffset:0;stroke-opacity:1"
         inkscape:connector-curvature="0" />
      <path
         id="rect890"
         d="m 23.733854,13.392981 c -2.699564,0 -4.873088,2.173524 -4.873088,4.873087 v 43.171007 c 0,2.699565 2.173524,4.872572 4.873088,4.872572 h 11.570353 c -1.137023,-3.17863 -0.438706,-6.878162 2.098064,-9.414928 L 54.50562,39.790851 c 1.609481,-1.609474 3.686622,-2.47655 5.802227,-2.607074 V 18.266068 c 0,-2.699563 -2.173522,-4.873087 -4.873087,-4.873087 z m 3.755326,7.724076 h 24.190256 c 1.518139,0 2.740401,1.221743 2.740401,2.739884 0,1.518142 -1.222262,2.740401 -2.740401,2.740401 H 27.48918 c -1.518142,0 -2.740401,-1.222259 -2.740401,-2.740401 0,-1.518141 1.222259,-2.739884 2.740401,-2.739884 z m 0,9.468673 h 24.190256 c 1.518139,0 2.740401,1.222258 2.740401,2.7404 0,1.518143 -1.222262,2.739885 -2.740401,2.739885 H 27.48918 c -1.518142,0 -2.740401,-1.221742 -2.740401,-2.739885 0,-1.518142 1.222259,-2.7404 2.740401,-2.7404 z m 0,9.42268 h 13.229166 c 1.543558,0 2.785878,1.242835 2.785878,2.786393 0,1.543558 -1.24232,2.785877 -2.785878,2.785877 H 27.48918 c -1.543558,0 -2.786393,-1.242319 -2.786393,-2.785877 0,-1.543558 1.242835,-2.786393 2.786393,-2.786393 z"
         style="opacity:1;vector-effect:none;fill:#58c3f0;fill-opacity:1;stroke:none;stroke-width:4.53933907;stroke-linecap:round;stroke-linejoin:bevel;stroke-miterlimit:4;stroke-dasharray:none;stroke-dashoffset:0;stroke-opacity:1"
         inkscape:connector-curvature="0" />
      <path
         inkscape:connector-curvature="0"
         id="rect894"
         d="m 67.131644,40.838697 c -3.089722,-3.089722 -8.111869,-3.08972 -11.20159,-1e-6 l -17.10253,17.10253 c -3.089721,3.089721 -3.089906,8.112053 -1.85e-4,11.201776 3.089722,3.089721 8.112241,3.089721 11.201962,10e-7 l 17.10253,-17.10253 c 3.08972,-3.08972 3.089538,-8.112058 -1.87e-4,-11.201776 z m -1.526609,1.52661 c 2.270365,2.270365 2.270551,5.878193 1.87e-4,8.148558 l -7.121257,7.121257 -1.161259,-1.161259 c 5.151839,-4.766037 8.113818,-8.393898 7.115483,-15.014949 0.415355,0.245482 0.807806,0.547353 1.166846,0.906393 z m -16.606204,8.457831 4.07549,4.07549 4.073069,4.073069 -8.644697,8.644697 c -2.270365,2.270364 -5.878379,2.270364 -8.148744,-2e-6 -2.270367,-2.270365 -2.27018,-5.878194 1.85e-4,-8.148557 z"
         style="color:#000000;font-style:normal;font-variant:normal;font-weight:normal;font-stretch:normal;font-size:medium;line-height:normal;font-family:sans-serif;font-variant-ligatures:normal;font-variant-position:normal;font-variant-caps:normal;font-variant-numeric:normal;font-variant-alternates:normal;font-feature-settings:normal;text-indent:0;text-align:start;text-decoration:none;text-decoration-line:none;text-decoration-style:solid;text-decoration-color:#000000;letter-spacing:normal;word-spacing:normal;text-transform:none;writing-mode:lr-tb;direction:ltr;text-orientation:mixed;dominant-baseline:auto;baseline-shift:baseline;text-anchor:start;white-space:normal;shape-padding:0;clip-rule:nonzero;display:inline;overflow:visible;visibility:visible;opacity:1;isolation:auto;mix-blend-mode:normal;color-interpolation:sRGB;color-interpolation-filters:linearRGB;solid-color:#000000;solid-opacity:1;vector-effect:none;fill:#58c3f0;fill-opacity:1;fill-rule:nonzero;stroke:none;stroke-width:2.15900636;stroke-linecap:round;stroke-linejoin:bevel;stroke-miterlimit:4;stroke-dasharray:none;stroke-dashoffset:0;stroke-opacity:1;color-rendering:auto;image-rendering:auto;shape-rendering:auto;text-rendering:auto;enable-background:accumulate" />
    </g>
  </g>
  <g
     inkscape:groupmode="layer"
     id="layer3"
     inkscape:label="patient records"
     style="display:none">
    <rect
       style="opacity:1;vector-effect:none;fill:#ededec;fill-opacity:1;stroke:none;stroke-width:14.68532562;stroke-linecap:round;stroke-linejoin:round;stroke-miterlimit:4;stroke-dasharray:none;stroke-dashoffset:0;stroke-opacity:1"
       id="rect826-3-5"
       width="67.73333"
       height="67.73333"
       x="5.9849014"
       y="5.9849033"
       ry="13.546667"
       inkscape:export-filename="/home/vit/ProjectG70/care-up/care-up/Assets/Resources/Sprites/FullScreenIcon.png"
       inkscape:export-xdpi="96"
       inkscape:export-ydpi="96" />
    <path
       id="path1043"
       transform="scale(0.26458333)"
       d="m 89.703125,50.619141 c -10.203077,0 -18.417969,8.214901 -18.417969,18.417968 v 91.664061 71.5 0.002 c 6.6e-5,0.63702 0.03311,1.26672 0.0957,1.88672 v 0.002 c 0.06266,0.61997 0.155195,1.23015 0.277344,1.83008 v 0.002 c 0.122211,0.5999 0.274456,1.18881 0.453125,1.76562 v 0.002 c 0.178729,0.5768 0.385032,1.14073 0.617188,1.6914 v 0.002 c 0.232214,0.55066 0.490826,1.08786 0.773437,1.60937 v 0.002 c 0.28267,0.52151 0.589887,1.02632 0.919922,1.51563 v 0.002 c 0.330095,0.48931 0.684163,0.96195 1.058594,1.41602 1.873954,2.27263 4.284336,4.08415 7.041015,5.24609 1.102477,0.46469 2.259846,0.82581 3.460938,1.07031 1.201092,0.2445 2.445318,0.37305 3.720703,0.37305 h 43.730468 76.08399 c 10.20307,0 18.41797,-8.2149 18.41797,-18.41797 v -91.66406 -71.500001 -0.002 c 0,-0.637035 -0.0332,-1.266718 -0.0957,-1.886718 v -0.002 c -0.0626,-0.619978 -0.15525,-1.230161 -0.27734,-1.830078 v -0.002 c -0.12215,-0.599897 -0.27455,-1.188822 -0.45312,-1.765625 v -0.002 c -0.17868,-0.576788 -0.38509,-1.140746 -0.61719,-1.691406 v -0.002 c -0.23217,-0.55065 -0.49088,-1.087888 -0.77344,-1.609375 v -0.002 c -0.28262,-0.521481 -0.58993,-1.026343 -0.91992,-1.515626 v -0.002 c -0.33006,-0.489279 -0.6842,-0.961971 -1.0586,-1.416015 v -0.002 c -0.37476,-0.454414 -0.77136,-0.88861 -1.1875,-1.304688 -1.66455,-1.664554 -3.64856,-3.009884 -5.85351,-3.939453 -1.10248,-0.464693 -2.25985,-0.825816 -3.46094,-1.070312 -1.20109,-0.244501 -2.44532,-0.373047 -3.7207,-0.373047 h -43.73047 z m 7.021484,15.759765 h 41.916011 c 5.73784,0 10.35743,4.619589 10.35743,10.357422 v 40.400392 c 0,5.73783 -4.61959,10.35742 -10.35743,10.35742 H 96.724609 c -5.737833,0 -10.357421,-4.61959 -10.357421,-10.35742 V 76.736328 c 0,-5.737833 4.619588,-10.357422 10.357421,-10.357422 z m 20.958981,9.533203 a 11.933812,11.933812 0 0 0 -11.93554,11.933594 11.933812,11.933812 0 0 0 11.93554,11.933594 11.933812,11.933812 0 0 0 11.9336,-11.933594 11.933812,11.933812 0 0 0 -11.9336,-11.933594 z m 47.85157,1.75586 h 40.4414 c 3.4625,0 6.25,2.7875 6.25,6.25 0,3.4625 -2.7875,6.25 -6.25,6.25 h -40.4414 c -3.4625,0 -6.25,-2.7875 -6.25,-6.25 0,-3.4625 2.7875,-6.25 6.25,-6.25 z m 0,21.429687 h 40.4414 c 3.4625,0 6.25,2.787504 6.25,6.250004 0,3.4625 -2.7875,6.25 -6.25,6.25 h -40.4414 c -3.4625,0 -6.25,-2.7875 -6.25,-6.25 0,-3.4625 2.7875,-6.250004 6.25,-6.250004 z m -47.85157,3.900394 a 20.45559,20.45559 0 0 0 -20.355465,18.43554 h 40.689455 a 20.45559,20.45559 0 0 0 -20.33399,-18.43554 z m 47.85157,17.52734 h 40.4414 c 3.4625,0 6.25,2.7875 6.25,6.25 0,3.4625 -2.7875,6.25 -6.25,6.25 h -40.4414 c -3.4625,0 -6.25,-2.7875 -6.25,-6.25 0,-3.4625 2.7875,-6.25 6.25,-6.25 z M 92.677734,141.95508 H 205.97656 c 3.4625,0 6.25,2.7875 6.25,6.25 0,3.4625 -2.7875,6.25 -6.25,6.25 H 92.677734 c -3.4625,0 -6.25,-2.7875 -6.25,-6.25 0,-3.4625 2.7875,-6.25 6.25,-6.25 z m 0,21.42773 H 205.97656 c 3.4625,0 6.25,2.7875 6.25,6.25 0,3.4625 -2.7875,6.25 -6.25,6.25 H 92.677734 c -3.4625,0 -6.25,-2.7875 -6.25,-6.25 0,-3.4625 2.7875,-6.25 6.25,-6.25 z m 0,21.42969 H 205.97656 c 3.4625,0 6.25,2.7875 6.25,6.25 0,3.4625 -2.7875,6.25 -6.25,6.25 H 92.677734 c -3.4625,0 -6.25,-2.7875 -6.25,-6.25 0,-3.4625 2.7875,-6.25 6.25,-6.25 z"
       style="opacity:0.25;vector-effect:none;fill:#000000;fill-opacity:1;stroke:none;stroke-width:17.15655708;stroke-linecap:round;stroke-linejoin:bevel;stroke-miterlimit:4;stroke-dasharray:none;stroke-dashoffset:0;stroke-opacity:1;filter:url(#filter1053)"
       inkscape:connector-curvature="0" />
    <path
       style="opacity:1;vector-effect:none;fill:#58c3f0;fill-opacity:1;stroke:none;stroke-width:17.15655708;stroke-linecap:round;stroke-linejoin:bevel;stroke-miterlimit:4;stroke-dasharray:none;stroke-dashoffset:0;stroke-opacity:1"
       d="m 89.703125,50.619141 c -10.203077,0 -18.417969,8.214901 -18.417969,18.417968 v 91.664061 71.5 0.002 c 6.6e-5,0.63702 0.03311,1.26672 0.0957,1.88672 v 0.002 c 0.06266,0.61997 0.155195,1.23015 0.277344,1.83008 v 0.002 c 0.122211,0.5999 0.274456,1.18881 0.453125,1.76562 v 0.002 c 0.178729,0.5768 0.385032,1.14073 0.617188,1.6914 v 0.002 c 0.232214,0.55066 0.490826,1.08786 0.773437,1.60937 v 0.002 c 0.28267,0.52151 0.589887,1.02632 0.919922,1.51563 v 0.002 c 0.330095,0.48931 0.684163,0.96195 1.058594,1.41602 1.873954,2.27263 4.284336,4.08415 7.041015,5.24609 1.102477,0.46469 2.259846,0.82581 3.460938,1.07031 1.201092,0.2445 2.445318,0.37305 3.720703,0.37305 h 43.730468 76.08399 c 10.20307,0 18.41797,-8.2149 18.41797,-18.41797 v -91.66406 -71.500001 -0.002 c 0,-0.637035 -0.0332,-1.266718 -0.0957,-1.886718 v -0.002 c -0.0626,-0.619978 -0.15525,-1.230161 -0.27734,-1.830078 v -0.002 c -0.12215,-0.599897 -0.27455,-1.188822 -0.45312,-1.765625 v -0.002 c -0.17868,-0.576788 -0.38509,-1.140746 -0.61719,-1.691406 v -0.002 c -0.23217,-0.55065 -0.49088,-1.087888 -0.77344,-1.609375 v -0.002 c -0.28262,-0.521481 -0.58993,-1.026343 -0.91992,-1.515626 v -0.002 c -0.33006,-0.489279 -0.6842,-0.961971 -1.0586,-1.416015 v -0.002 c -0.37476,-0.454414 -0.77136,-0.88861 -1.1875,-1.304688 -1.66455,-1.664554 -3.64856,-3.009884 -5.85351,-3.939453 -1.10248,-0.464693 -2.25985,-0.825816 -3.46094,-1.070312 -1.20109,-0.244501 -2.44532,-0.373047 -3.7207,-0.373047 h -43.73047 z m 7.021484,15.759765 h 41.916011 c 5.73784,0 10.35743,4.619589 10.35743,10.357422 v 40.400392 c 0,5.73783 -4.61959,10.35742 -10.35743,10.35742 H 96.724609 c -5.737833,0 -10.357421,-4.61959 -10.357421,-10.35742 V 76.736328 c 0,-5.737833 4.619588,-10.357422 10.357421,-10.357422 z m 20.958981,9.533203 a 11.933812,11.933812 0 0 0 -11.93554,11.933594 11.933812,11.933812 0 0 0 11.93554,11.933594 11.933812,11.933812 0 0 0 11.9336,-11.933594 11.933812,11.933812 0 0 0 -11.9336,-11.933594 z m 47.85157,1.75586 h 40.4414 c 3.4625,0 6.25,2.7875 6.25,6.25 0,3.4625 -2.7875,6.25 -6.25,6.25 h -40.4414 c -3.4625,0 -6.25,-2.7875 -6.25,-6.25 0,-3.4625 2.7875,-6.25 6.25,-6.25 z m 0,21.429687 h 40.4414 c 3.4625,0 6.25,2.787504 6.25,6.250004 0,3.4625 -2.7875,6.25 -6.25,6.25 h -40.4414 c -3.4625,0 -6.25,-2.7875 -6.25,-6.25 0,-3.4625 2.7875,-6.250004 6.25,-6.250004 z m -47.85157,3.900394 a 20.45559,20.45559 0 0 0 -20.355465,18.43554 h 40.689455 a 20.45559,20.45559 0 0 0 -20.33399,-18.43554 z m 47.85157,17.52734 h 40.4414 c 3.4625,0 6.25,2.7875 6.25,6.25 0,3.4625 -2.7875,6.25 -6.25,6.25 h -40.4414 c -3.4625,0 -6.25,-2.7875 -6.25,-6.25 0,-3.4625 2.7875,-6.25 6.25,-6.25 z M 92.677734,141.95508 H 205.97656 c 3.4625,0 6.25,2.7875 6.25,6.25 0,3.4625 -2.7875,6.25 -6.25,6.25 H 92.677734 c -3.4625,0 -6.25,-2.7875 -6.25,-6.25 0,-3.4625 2.7875,-6.25 6.25,-6.25 z m 0,21.42773 H 205.97656 c 3.4625,0 6.25,2.7875 6.25,6.25 0,3.4625 -2.7875,6.25 -6.25,6.25 H 92.677734 c -3.4625,0 -6.25,-2.7875 -6.25,-6.25 0,-3.4625 2.7875,-6.25 6.25,-6.25 z m 0,21.42969 H 205.97656 c 3.4625,0 6.25,2.7875 6.25,6.25 0,3.4625 -2.7875,6.25 -6.25,6.25 H 92.677734 c -3.4625,0 -6.25,-2.7875 -6.25,-6.25 0,-3.4625 2.7875,-6.25 6.25,-6.25 z"
       transform="scale(0.26458333)"
       id="rect890-6"
       inkscape:connector-curvature="0" />
  </g>
  <g
     inkscape:groupmode="layer"
     id="layer4"
     inkscape:label="record"
     style="display:none">
    <rect
       style="display:inline;opacity:1;vector-effect:none;fill:#ededec;fill-opacity:1;stroke:none;stroke-width:14.68532562;stroke-linecap:round;stroke-linejoin:round;stroke-miterlimit:4;stroke-dasharray:none;stroke-dashoffset:0;stroke-opacity:1"
       id="rect826-3-5-2"
       width="67.73333"
       height="67.73333"
       x="5.9849014"
       y="5.9849033"
       ry="13.546667"
       inkscape:export-filename="/home/vit/ProjectG70/care-up/care-up/Assets/Resources/Sprites/FullScreenIcon.png"
       inkscape:export-xdpi="96"
       inkscape:export-ydpi="96" />
    <path
       style="display:inline;opacity:0.25;vector-effect:none;fill:#000000;fill-opacity:1;stroke:none;stroke-width:17.15655708;stroke-linecap:round;stroke-linejoin:bevel;stroke-miterlimit:4;stroke-dasharray:none;stroke-dashoffset:0;stroke-opacity:1;filter:url(#filter1141)"
       d="m 89.703125,50.619141 c -10.203077,0 -18.417969,8.214907 -18.417969,18.417968 v 91.664061 71.5 0.002 c 6.5e-5,0.63702 0.03327,1.26673 0.0957,1.88672 v 0.002 c 0.06266,0.61997 0.15519,1.23015 0.277344,1.83008 v 0.002 c 0.122192,0.5999 0.274471,1.18881 0.453125,1.76562 v 0.002 c 0.178734,0.5768 0.38503,1.14073 0.617188,1.6914 v 0.002 c 0.232214,0.55066 0.490827,1.08786 0.773437,1.60937 v 0.002 c 0.282671,0.52151 0.589886,1.02632 0.919922,1.51563 v 0.002 c 0.330104,0.48931 0.684164,0.96195 1.058594,1.41602 1.873954,2.27263 4.284338,4.08415 7.041015,5.24609 1.102477,0.46469 2.259846,0.82582 3.460938,1.07031 1.201088,0.2445 2.445317,0.37305 3.720703,0.37305 h 43.730468 76.08399 c 10.20307,0 18.41797,-8.2149 18.41797,-18.41797 V 153.6136 c -0.0968,0.10459 -0.37957,0.29885 -1.30664,0.76758 -3.57869,1.80932 -7.10199,1.13245 -9.7793,-0.26563 -1.85302,-0.96763 -3.58929,-2.44225 -4.72852,-4.51171 -1.19015,3.31013 -4.34017,5.66992 -8.07031,5.66992 h -4.68359 c -8.38148,7.71261 -17.03455,15.46799 -25.8086,22.86914 -0.0117,0.01 -0.0234,0.0196 -0.0352,0.0293 -15.32954,12.74724 -28.20776,22.79348 -38.68555,29.81054 l 23.88672,0.29688 11.31055,-9.60352 c 1.28842,-1.09299 2.92371,-1.69186 4.61328,-1.68945 1.67777,7.1e-4 3.30133,0.59424 4.58398,1.67578 l 10.10547,8.52539 17.99023,-8.45898 c 3.5487,-1.62577 7.74424,-0.0895 9.4043,3.44336 1.66006,3.53277 0.16498,7.7433 -3.35156,9.4375 l -22.11524,10.40039 c -2.51759,1.1835 -5.49402,0.79133 -7.61914,-1.00391 l -8.99023,-7.58789 -8.74805,7.43359 c -1.30986,1.11146 -2.97758,1.71154 -4.69531,1.68946 l -49.51758,-0.61133 c -6.40906,0 -9.96637,-7.03407 -9.71875,-12.46875 0.0659,-1.80351 0.40598,-3.53973 1.08594,-5.34571 2.55355,-6.78133 7.99513,-15.34323 16.01562,-26.4082 4.87108,-6.72002 10.69727,-14.26137 17.32618,-22.43359 h -35.38868 c -4.756791,0 -8.585937,-3.82913 -8.585935,-8.58594 0,-4.75681 3.829144,-8.58789 8.585935,-8.58789 h 49.72852 c 4.43993,-5.1399 8.79242,-9.53329 13.28906,-14.14063 h -63.01758 c -4.756791,0 -8.585937,-3.82912 -8.585935,-8.58593 0,-4.75681 3.829144,-8.58789 8.585935,-8.58789 h 78.88477 c 4.92045,-5.31875 9.4562,-10.025731 13.65625,-14.140629 h -92.54102 c -4.756791,0 -8.585937,-3.831082 -8.585935,-8.58789 0,-4.756809 3.829144,-8.585938 8.585935,-8.585938 h 103.03516 c 2.4213,0 4.59833,0.996067 6.15625,2.597656 6.3785,-4.759072 12.01388,-7.774629 17.72852,-8.708984 v -0.322266 -0.002 c 0,-0.637035 -0.0333,-1.266721 -0.0957,-1.886718 v -0.002 c -0.0626,-0.619978 -0.15526,-1.230161 -0.27734,-1.830078 v -0.002 c -0.12215,-0.599898 -0.27459,-1.18882 -0.45312,-1.765625 v -0.002 c -0.17866,-0.57679 -0.38509,-1.140744 -0.61719,-1.691406 v -0.002 c -0.23218,-0.550651 -0.49088,-1.087888 -0.77344,-1.609375 v -0.002 c -0.28263,-0.521481 -0.58993,-1.026343 -0.91992,-1.515626 v -0.002 c -0.33007,-0.489282 -0.6842,-0.961973 -1.0586,-1.416015 v -0.002 c -0.37477,-0.454413 -0.77135,-0.888611 -1.1875,-1.304688 -1.66454,-1.664557 -3.64856,-3.009882 -5.85351,-3.939453 -1.10248,-0.464693 -2.25985,-0.825819 -3.46094,-1.070312 -1.20109,-0.244498 -2.44532,-0.373047 -3.7207,-0.373047 H 165.78711 Z M 241.18945,67.173828 237,71.328125 l -4.19141,4.15625 -2.27343,0.164063 c -10.10563,0.728571 -24.9175,12.573432 -49.42578,39.525392 -7.34936,8.08215 -9.51368,10.54538 -9.51368,10.82812 0,0.13629 5.2732,5.51984 11.7168,11.96485 6.4436,6.445 11.78831,11.71875 11.87891,11.71875 0.48925,0 17.11954,-15.22491 24.48242,-22.41407 4.55539,-4.44791 11.2869,-11.59682 13.31836,-14.14257 0.5234,-0.6559 1.07863,-1.19872 1.23242,-1.20703 0.3595,-0.0189 6.67773,6.27353 6.67773,6.65039 0,0.15628 -5.23072,5.5278 -11.625,11.93554 -12.54054,12.56697 -12.29763,12.26288 -11.82812,14.76563 0.48437,2.58182 3.95031,4.39199 6.2168,3.24609 0.34122,-0.17252 6.791,-6.4667 14.33203,-13.98828 14.70116,-14.66327 14.53285,-14.463 14.10351,-16.87695 -0.16074,-0.90374 -1.0872,-1.966 -6.24804,-7.16797 l -6.0586,-6.10547 1.00196,-1.5625 c 2.88093,-4.492933 4.57591,-8.920796 4.83984,-12.640626 l 0.16016,-2.271484 4.01367,-4.050781 4.01172,-4.048828 -6.31641,-6.316407 z m -80.40039,69.445312 c -0.0868,0 -2.58834,2.84429 -5.55859,6.32031 -24.95935,29.20938 -41.92778,52.61876 -46.02149,63.49024 -0.81231,2.15751 -0.90653,4.73034 -0.20117,5.50976 0.69383,0.76666 3.30968,0.69645 5.5586,-0.15039 9.70337,-3.65385 29.25514,-17.45926 54.75781,-38.66601 5.3358,-4.43701 13.52933,-11.40099 14.76367,-12.54688 0.36429,-0.33823 -1.14869,-1.96092 -11.35937,-12.17383 -6.47952,-6.48092 -11.85279,-11.7832 -11.93946,-11.7832 z"
       transform="scale(0.26458333)"
       id="path1128"
       inkscape:connector-curvature="0" />
    <path
       style="display:inline;opacity:1;vector-effect:none;fill:#58c3f0;fill-opacity:1;stroke:none;stroke-width:17.15655708;stroke-linecap:round;stroke-linejoin:bevel;stroke-miterlimit:4;stroke-dasharray:none;stroke-dashoffset:0;stroke-opacity:1"
       d="m 89.703125,50.619141 c -10.203077,0 -18.417969,8.214906 -18.417969,18.417968 v 91.664061 71.5 0.002 c 6.5e-5,0.63702 0.03327,1.26673 0.0957,1.88672 v 0.002 c 0.06266,0.61997 0.15519,1.23015 0.277344,1.83008 v 0.002 c 0.122192,0.5999 0.274471,1.18881 0.453125,1.76562 v 0.002 c 0.178734,0.5768 0.38503,1.14073 0.617188,1.6914 v 0.002 c 0.232214,0.55066 0.490827,1.08786 0.773437,1.60937 v 0.002 c 0.282671,0.52151 0.589886,1.02632 0.919922,1.51563 v 0.002 c 0.330104,0.48931 0.684164,0.96195 1.058594,1.41602 1.873954,2.27263 4.284338,4.08415 7.041015,5.24609 1.102477,0.46469 2.259846,0.82582 3.460938,1.07031 1.201088,0.2445 2.445317,0.37305 3.720703,0.37305 h 43.730468 76.08399 c 10.20307,0 18.41797,-8.2149 18.41797,-18.41797 V 153.6136 c -0.0968,0.10459 -0.37957,0.29885 -1.30664,0.76758 -3.57869,1.80932 -7.10199,1.13245 -9.7793,-0.26563 -1.85302,-0.96763 -3.58929,-2.44225 -4.72852,-4.51171 -1.19015,3.31013 -4.34017,5.66992 -8.07031,5.66992 h -4.68359 c -8.38148,7.71261 -17.03455,15.46799 -25.8086,22.86914 -0.0117,0.01 -0.0234,0.0196 -0.0352,0.0293 -15.32954,12.74725 -28.20776,22.79348 -38.68555,29.81054 l 23.88672,0.29688 11.31055,-9.60352 c 1.28842,-1.09299 2.92371,-1.69186 4.61328,-1.68945 1.67777,7.1e-4 3.30133,0.59424 4.58398,1.67578 l 10.10547,8.52539 17.99023,-8.45898 c 3.5487,-1.62577 7.74466,-0.0896 9.40472,3.44323 1.66006,3.53278 0.16456,7.74343 -3.35198,9.43763 l -22.11524,10.40039 c -2.5176,1.1835 -5.49402,0.79133 -7.61914,-1.00391 l -8.99023,-7.58789 -8.74805,7.43359 c -1.30986,1.11146 -2.97758,1.71154 -4.69531,1.68946 l -49.51758,-0.61133 c -6.40906,0 -9.96637,-7.03407 -9.71875,-12.46875 0.0659,-1.80351 0.40598,-3.53973 1.08594,-5.34571 2.55355,-6.78133 7.99512,-15.34323 16.01562,-26.4082 4.87108,-6.72002 10.69727,-14.26137 17.32618,-22.43359 h -35.38868 c -4.756796,0 -8.585936,-3.82913 -8.585935,-8.58594 0,-4.75681 3.829139,-8.58789 8.585935,-8.58789 h 49.72852 c 4.43993,-5.1399 8.79242,-9.53329 13.28906,-14.14063 h -63.01758 c -4.756796,0 -8.585936,-3.82912 -8.585935,-8.58593 0,-4.75681 3.829139,-8.58789 8.585935,-8.58789 h 78.88477 c 4.92045,-5.31875 9.4562,-10.025731 13.65625,-14.140629 h -92.54102 c -4.756796,0 -8.585936,-3.831082 -8.585935,-8.58789 0,-4.756809 3.829139,-8.585938 8.585935,-8.585938 h 103.03516 c 2.4213,0 4.59833,0.996067 6.15625,2.597656 6.3785,-4.759072 12.01388,-7.774629 17.72852,-8.708984 v -0.322266 -0.002 c 0,-0.637035 -0.0333,-1.26672 -0.0957,-1.886718 v -0.002 c -0.0626,-0.619978 -0.15526,-1.230161 -0.27734,-1.830078 v -0.002 c -0.12215,-0.599898 -0.27458,-1.18882 -0.45312,-1.765625 v -0.002 c -0.17866,-0.57679 -0.38509,-1.140744 -0.61719,-1.691406 v -0.002 c -0.23218,-0.550651 -0.49088,-1.087888 -0.77344,-1.609375 v -0.002 c -0.28263,-0.521481 -0.58993,-1.026343 -0.91992,-1.515626 v -0.002 c -0.33007,-0.489282 -0.6842,-0.961973 -1.0586,-1.416015 v -0.002 c -0.37477,-0.454413 -0.77135,-0.888611 -1.1875,-1.304688 -1.66454,-1.664557 -3.64856,-3.009882 -5.85351,-3.939453 -1.10248,-0.464693 -2.25985,-0.825818 -3.46094,-1.070312 -1.20109,-0.244498 -2.44532,-0.373047 -3.7207,-0.373047 h -43.73047 z"
       transform="scale(0.26458333)"
       id="rect890-6-0"
       inkscape:connector-curvature="0"
       sodipodi:nodetypes="ssccccccccccccccccccscssccccsccccccccccscccccccccccsssccsssccsssscccscccccccccccccccccscs" />
    <path
       style="fill:#139bd5;fill-opacity:1;stroke-width:0.07515395"
       d="m 28.841643,56.075855 c -0.186626,-0.206222 -0.161814,-0.887027 0.05311,-1.457868 1.083125,-2.876413 5.572845,-9.07031 12.176673,-16.798625 0.785879,-0.919697 1.447662,-1.672176 1.470629,-1.672176 0.02293,0 1.444429,1.402973 3.1588,3.117717 2.701576,2.702164 3.102209,3.131478 3.005823,3.220969 -0.326585,0.303182 -2.494732,2.145545 -3.906495,3.319502 -6.74758,5.610954 -11.920292,9.263651 -14.487642,10.2304 -0.595027,0.224058 -1.287356,0.242924 -1.47093,0.04008 z m 19.65956,-19.572023 c -1.70487,-1.705241 -3.099761,-3.12994 -3.099761,-3.165999 0,-0.07481 0.572458,-0.726367 2.516976,-2.864771 6.484483,-7.131039 10.403694,-10.265214 13.077474,-10.457982 l 0.601227,-0.04335 1.108886,-1.099269 1.108886,-1.099271 1.671221,1.671219 1.671222,1.671219 -1.061675,1.071326 -1.061667,1.071324 -0.04268,0.601232 c -0.06983,0.984205 -0.518418,2.155596 -1.280666,3.344351 l -0.265037,0.413347 1.603044,1.615809 c 1.365474,1.376355 1.610441,1.657411 1.65297,1.896524 0.113595,0.638692 0.158236,0.585278 -3.731447,4.464934 -1.995229,1.990085 -3.701557,3.655685 -3.791839,3.701331 -0.599675,0.303185 -1.516762,-0.175536 -1.644918,-0.858642 -0.124225,-0.662185 -0.188471,-0.581983 3.129548,-3.906994 1.691818,-1.695382 3.076026,-3.116343 3.076026,-3.157692 0,-0.09971 -1.67217,-1.7648 -1.767289,-1.759812 -0.04069,0.0022 -0.187282,0.145865 -0.325766,0.319404 -0.537489,0.673563 -2.318797,2.564884 -3.524078,3.741729 -1.948096,1.902131 -6.347921,5.930464 -6.47737,5.930464 -0.02397,0 -1.438429,-1.395196 -3.143299,-3.100436 z"
       id="path1099"
       inkscape:connector-curvature="0" />
  </g>
  <g
     inkscape:groupmode="layer"
     id="layer5"
     inkscape:label="general tab"
     style="display:inline">
    <rect
       style="display:inline;opacity:1;vector-effect:none;fill:#ededec;fill-opacity:1;stroke:none;stroke-width:14.68532562;stroke-linecap:round;stroke-linejoin:round;stroke-miterlimit:4;stroke-dasharray:none;stroke-dashoffset:0;stroke-opacity:1"
       id="rect4748"
       width="67.73333"
       height="67.73333"
       x="5.9849014"
       y="5.9849014"
       ry="13.546667"
       inkscape:export-filename="C:\projects\care-up\care-up\Assets\Resources\Sprites\UI_GenerealTab.png"
       inkscape:export-xdpi="96"
       inkscape:export-ydpi="96" />
    <path
       inkscape:connector-curvature="0"
       style="display:inline;opacity:0.25;vector-effect:none;fill:#000000;fill-opacity:1;stroke:none;stroke-width:17.15655708;stroke-linecap:round;stroke-linejoin:bevel;stroke-miterlimit:4;stroke-dasharray:none;stroke-dashoffset:0;stroke-opacity:1;filter:url(#filter1053-7)"
       d="m -700.5625,50.619141 c -0.61664,0 -1.22359,0.03313 -1.82422,0.0918 -0.18746,0.01827 -0.36895,0.05432 -0.55469,0.07812 -0.41064,0.05272 -0.82114,0.106404 -1.22265,0.185547 -0.21868,0.04305 -0.43071,0.101677 -0.64649,0.152344 -0.35672,0.08388 -0.71231,0.169236 -1.06054,0.273438 -0.23878,0.07134 -0.47054,0.155711 -0.70508,0.236328 -0.30942,0.106503 -0.61833,0.213685 -0.91992,0.335937 -0.25225,0.1021 -0.49766,0.21534 -0.74414,0.328125 -0.27042,0.123921 -0.53965,0.248322 -0.80274,0.384766 -0.26486,0.137129 -0.52221,0.284181 -0.7793,0.433594 -0.22492,0.130934 -0.44734,0.264217 -0.66601,0.404297 -0.2661,0.170169 -0.52675,0.346034 -0.7832,0.529296 -0.19852,0.142114 -0.39347,0.287771 -0.58594,0.4375 -0.26496,0.205719 -0.52429,0.417088 -0.77735,0.636719 -0.1595,0.138695 -0.31416,0.281727 -0.46875,0.425781 -0.26493,0.246402 -0.52543,0.49627 -0.77539,0.757813 -0.12125,0.127139 -0.23591,0.260037 -0.35351,0.390625 -0.26589,0.294635 -0.52687,0.592751 -0.77344,0.904297 -0.0798,0.101049 -0.1547,0.205834 -0.23242,0.308593 -0.26619,0.351231 -0.52476,0.70769 -0.76563,1.078126 -0.0288,0.04438 -0.0556,0.09012 -0.084,0.134765 -1.45148,2.27504 -2.41414,4.887977 -2.74805,7.705078 l -4.90625,0.658203 c -9.33728,1.255284 -15.78498,9.774335 -14.45703,19.101563 l 19.21875,134.988284 v 10.62109 0.002 c 8e-5,0.63703 0.0341,1.26673 0.0957,1.88672 v 0.002 c 0.0627,0.61996 0.15527,1.23014 0.27735,1.83008 v 0.002 c 0.12208,0.5999 0.27439,1.18881 0.45312,1.76562 v 0.002 c 0.17877,0.57679 0.38505,1.14073 0.61719,1.6914 v 0.002 c 0.23206,0.55064 0.49081,1.08786 0.77344,1.60937 v 0.002 c 0.28271,0.52151 0.58989,1.02632 0.91992,1.51563 v 0.002 c 0.32995,0.48931 0.68416,0.96195 1.05859,1.41602 0.4685,0.56815 0.97134,1.10766 1.50391,1.61523 1.06514,1.01515 2.25128,1.90315 3.53711,2.64063 0,0 0.002,0 0.002,0 0.32098,0.18405 0.64759,0.36047 0.98047,0.52539 0,0 0.002,0 0.002,0 0.33289,0.16488 0.67159,0.31983 1.01563,0.46484 1.10245,0.46469 2.25984,0.82582 3.46094,1.07031 0.60054,0.12225 1.21141,0.2166 1.83203,0.2793 0,0 0.002,0 0.002,0 0.61999,0.0626 1.24968,0.0937 1.88672,0.0937 h 43.73047 21.66406 A 68.571434,68.571434 0 0 0 -590,267.66797 a 68.571434,68.571434 0 0 0 68.57227,-68.57031 68.571434,68.571434 0 0 0 -40.65235,-62.57032 19.089229,19.089229 0 0 0 0.74414,-5.11523 19.089229,19.089229 0 0 0 -0.99414,-6.03125 v -38.53711 -17.806641 -0.002 c 0,-0.637032 -0.0341,-1.266727 -0.0957,-1.886718 v -0.002 c -0.0627,-0.619971 -0.15529,-1.230161 -0.27734,-1.830078 v -0.002 c -0.12208,-0.599898 -0.2744,-1.18882 -0.45313,-1.765625 v -0.002 c -0.17877,-0.57679 -0.38509,-1.140744 -0.61719,-1.691406 v -0.002 c -0.23206,-0.550651 -0.49084,-1.087888 -0.77344,-1.609375 v -0.002 c -0.28268,-0.521481 -0.58993,-1.026343 -0.91992,-1.515626 v -0.002 c -0.32995,-0.489275 -0.68419,-0.961969 -1.05859,-1.416015 v -0.002 c -0.37493,-0.454413 -0.77137,-0.888611 -1.1875,-1.304688 -0.83229,-0.832302 -1.74293,-1.585483 -2.72266,-2.246094 0,0 -0.002,0 -0.002,0 -0.48977,-0.330346 -0.99555,-0.637034 -1.51758,-0.919921 -0.52208,-0.282854 -1.06009,-0.541046 -1.61133,-0.773438 -1.10248,-0.464693 -2.25984,-0.825817 -3.46093,-1.070312 -1.2011,-0.244498 -2.44531,-0.373047 -3.72071,-0.373047 h -35.66015 -8.07032 z m 7.02148,15.759765 h 41.91602 c 2.86892,0 5.45795,1.155218 7.33008,3.027344 0.23401,0.234016 0.45722,0.478801 0.66797,0.734375 0.63224,0.766723 1.15677,1.626664 1.54883,2.556641 0.26135,0.619984 0.46403,1.27182 0.60156,1.947265 0.13752,0.675446 0.20898,1.374568 0.20898,2.091797 v 40.400392 c 0,0.71723 -0.0715,1.41635 -0.20898,2.0918 -0.13753,0.67544 -0.34021,1.32728 -0.60156,1.94726 -0.39206,0.92998 -0.91659,1.78992 -1.54883,2.55664 -0.21075,0.25558 -0.43396,0.50036 -0.66797,0.73438 -1.87213,1.87212 -4.46116,3.02734 -7.33008,3.02734 h -41.91602 c -0.35795,0 -0.71214,-0.0176 -1.06054,-0.0527 0,0 -0.002,0 -0.002,0 -1.39547,-0.14088 -2.707,-0.55751 -3.88086,-1.19336 0,0 -0.002,0 -0.002,0 -1.17425,-0.63633 -2.20974,-1.49333 -3.05273,-2.51563 -0.84299,-1.0223 -1.49222,-2.21091 -1.89453,-3.50976 -0.30174,-0.97414 -0.46485,-2.0101 -0.46485,-3.08594 V 76.736328 c 0,-1.075844 0.16311,-2.1118 0.46485,-3.085937 0.40231,-1.29885 1.05154,-2.487468 1.89453,-3.509766 1.89673,-2.300169 4.77053,-3.761719 7.99804,-3.761719 z m 18.12891,5.28711 c -3.24235,0 -5.85352,2.609215 -5.85351,5.851562 v 10.744141 h -10.74415 c -3.24234,0 -5.85156,2.611168 -5.85156,5.853515 v 5.552735 c 0,3.242351 2.60922,5.851561 5.85156,5.851561 h 10.74415 v 10.74414 c 0,3.24235 2.61116,5.85352 5.85351,5.85352 h 5.55273 c 3.24235,0 5.85157,-2.61117 5.85157,-5.85352 v -10.74414 h 10.74414 c 3.24234,0 5.85351,-2.60921 5.85351,-5.851561 v -5.552735 c 0,-3.242347 -2.61117,-5.853515 -5.85351,-5.853515 h -10.74414 V 77.517578 c 0,-3.242347 -2.60922,-5.851562 -5.85157,-5.851562 z m -22.17578,70.289064 h 69.75781 a 68.571434,68.571434 0 0 0 -14.17969,12.5 h -55.57812 c -0.64856,0 -1.27402,-0.0976 -1.86133,-0.2793 0,0 -0.002,0 -0.002,0 -0.39132,-0.1212 -0.76531,-0.28104 -1.11914,-0.47266 0,0 -0.002,0 -0.002,0 -0.17665,-0.0957 -0.3479,-0.20075 -0.51367,-0.3125 0,0 -0.002,0 -0.002,0 -0.16577,-0.11179 -0.32467,-0.23257 -0.47852,-0.35937 0,0 -0.002,0 -0.002,0 -0.15385,-0.12686 -0.3005,-0.26151 -0.44141,-0.40234 -0.14121,-0.14121 -0.27712,-0.28914 -0.40429,-0.44336 -0.38151,-0.46266 -0.69702,-0.98179 -0.9336,-1.54297 -0.15771,-0.37412 -0.28029,-0.76819 -0.36328,-1.17578 -0.083,-0.4076 -0.12695,-0.82891 -0.12695,-1.26172 0,-0.43281 0.044,-0.85413 0.12695,-1.26172 0.083,-0.40759 0.20557,-0.80166 0.36328,-1.17578 0.23658,-0.56118 0.55209,-1.08031 0.9336,-1.54297 0.12717,-0.15422 0.26308,-0.30215 0.40429,-0.44336 1.12961,-1.12909 2.69115,-1.82617 4.42188,-1.82617 z m 0,21.42773 h 49.15234 a 68.571434,68.571434 0 0 0 -5.99609,12.5 h -43.15625 c -0.64856,0 -1.27402,-0.0976 -1.86133,-0.27929 0,0 -0.002,0 -0.002,0 -0.39132,-0.12121 -0.76531,-0.28105 -1.11914,-0.47266 0,0 -0.002,0 -0.002,0 -0.17665,-0.0957 -0.3479,-0.20076 -0.51367,-0.3125 0,0 -0.002,0 -0.002,0 -0.16577,-0.11181 -0.32467,-0.23258 -0.47852,-0.35938 0,0 -0.002,0 -0.002,0 -0.15385,-0.12686 -0.3005,-0.2615 -0.44141,-0.40234 -0.14121,-0.14121 -0.27712,-0.28914 -0.40429,-0.44336 -0.38151,-0.46266 -0.69702,-0.98179 -0.9336,-1.54297 -0.15771,-0.37412 -0.28029,-0.76819 -0.36328,-1.17578 -0.083,-0.40759 -0.12695,-0.82891 -0.12695,-1.26172 0,-0.43281 0.044,-0.85412 0.12695,-1.26172 0.083,-0.40759 0.20557,-0.80166 0.36328,-1.17578 0.23658,-0.56118 0.55209,-1.0803 0.9336,-1.54297 0.12717,-0.15422 0.26308,-0.30214 0.40429,-0.44336 1.12961,-1.12908 2.69115,-1.82617 4.42188,-1.82617 z m 0,21.42969 h 40.55273 a 68.571434,68.571434 0 0 0 -1.44726,12.5 h -39.10547 c -0.64856,0 -1.27402,-0.0976 -1.86133,-0.2793 0,0 -0.002,0 -0.002,0 -0.39132,-0.1212 -0.76531,-0.28104 -1.11914,-0.47265 0,0 -0.002,0 -0.002,0 -0.17665,-0.0957 -0.3479,-0.20076 -0.51367,-0.3125 0,0 -0.002,0 -0.002,0 -0.16577,-0.11181 -0.32467,-0.23258 -0.47852,-0.35938 0,0 -0.002,0 -0.002,0 -0.15385,-0.12686 -0.3005,-0.2615 -0.44141,-0.40234 -0.14121,-0.14121 -0.27712,-0.28914 -0.40429,-0.44336 -0.38151,-0.46266 -0.69702,-0.98179 -0.9336,-1.54297 -0.15771,-0.37412 -0.28029,-0.76819 -0.36328,-1.17578 -0.083,-0.40759 -0.12695,-0.82891 -0.12695,-1.26172 0,-0.43281 0.044,-0.85413 0.12695,-1.26172 0.083,-0.40759 0.20557,-0.80166 0.36328,-1.17578 0.23658,-0.56118 0.55209,-1.08031 0.9336,-1.54297 0.12717,-0.15422 0.26308,-0.30215 0.40429,-0.44336 1.12961,-1.12908 2.69115,-1.82617 4.42188,-1.82617 z"
       transform="matrix(0.26458333,0,0,0.26458333,209.09108,2.6817388e-6)"
       id="path4750" />
    <path
       inkscape:connector-curvature="0"
       style="display:inline;opacity:1;vector-effect:none;fill:#32b5ed;fill-opacity:1;stroke:none;stroke-width:4.28304482;stroke-linecap:round;stroke-linejoin:bevel;stroke-miterlimit:4;stroke-dasharray:none;stroke-dashoffset:0;stroke-opacity:1"
       d="m 19.83988,17.556038 -2.23914,0.300757 c -2.47049,0.332127 -4.17644,2.586126 -3.82509,5.053955 l 5.61878,39.465289 c 0.0719,0.504852 0.2276,0.976104 0.44545,1.40715 z"
       id="path4752" />
    <path
       style="display:inline;opacity:1;vector-effect:none;fill:#58c3f0;fill-opacity:1;stroke:none;stroke-width:4.53933907;stroke-linecap:round;stroke-linejoin:bevel;stroke-miterlimit:4;stroke-dasharray:none;stroke-dashoffset:0;stroke-opacity:1"
       d="m 23.733921,13.392984 c -2.69957,0 -4.873088,2.173527 -4.873088,4.873087 v 24.252782 18.917708 5.3e-4 c 2.1e-5,0.168547 0.009,0.335155 0.02532,0.499194 v 5.29e-4 c 0.01659,0.164032 0.04108,0.325475 0.07338,0.484209 v 5.29e-4 c 0.0323,0.158724 0.0726,0.31454 0.119888,0.467154 v 5.29e-4 c 0.0473,0.152609 0.101878,0.301818 0.163298,0.447516 v 5.29e-4 c 0.0614,0.145691 0.12986,0.28783 0.204639,0.425813 v 5.29e-4 c 0.0748,0.137983 0.156075,0.271547 0.243396,0.401011 v 5.29e-4 c 0.0873,0.129463 0.181017,0.254516 0.280085,0.374655 0.495821,0.6013 1.133557,1.080598 1.862937,1.388028 0.29169,0.122949 0.597916,0.218498 0.915707,0.283186 0.317788,0.06469 0.646985,0.0987 0.984435,0.0987 h 11.570353 7.986075 2.400371 9.744107 c 0.33745,0 0.666647,-0.03401 0.984438,-0.0987 0.317788,-0.06469 0.624014,-0.160237 0.915704,-0.283186 0.729382,-0.30743 1.367116,-0.786728 1.862937,-1.388028 0.09907,-0.120139 0.192786,-0.245192 0.280085,-0.374655 v -5.29e-4 c 0.08732,-0.129464 0.1686,-0.263028 0.243396,-0.401011 v -5.29e-4 c 0.07478,-0.137983 0.14324,-0.280122 0.204639,-0.425813 v -5.29e-4 c 0.06142,-0.145698 0.115999,-0.294907 0.163298,-0.447516 v -5.29e-4 c 0.04729,-0.152614 0.08759,-0.30843 0.119891,-0.467154 v -5.29e-4 c 0.03229,-0.158734 0.05678,-0.320177 0.07338,-0.484209 v -5.29e-4 c 0.0163,-0.164039 0.02529,-0.330647 0.02532,-0.499194 v -5.3e-4 -18.917708 -19.541442 -4.71134 -5.29e-4 c 0,-0.168548 -0.009,-0.335155 -0.02532,-0.499194 v -5.3e-4 c -0.01659,-0.164034 -0.04108,-0.32548 -0.07338,-0.484208 v -5.29e-4 c -0.0323,-0.158723 -0.0726,-0.314542 -0.119891,-0.467155 v -5.29e-4 c -0.0473,-0.152609 -0.101888,-0.301822 -0.163298,-0.447518 v -5.29e-4 c -0.0614,-0.145693 -0.129868,-0.287837 -0.204639,-0.425814 v -5.29e-4 c -0.0748,-0.137975 -0.156086,-0.271553 -0.243396,-0.401009 v -5.29e-4 c -0.0873,-0.129455 -0.181025,-0.254521 -0.280085,-0.374654 v -5.3e-4 c -0.0992,-0.12023 -0.204092,-0.235111 -0.314193,-0.345198 -0.220308,-0.220311 -0.461536,-0.419437 -0.720886,-0.594279 -0.129585,-0.0874 -0.263406,-0.168548 -0.401527,-0.243396 -0.138133,-0.07484 -0.280482,-0.143152 -0.426331,-0.204639 -0.291698,-0.12295 -0.597916,-0.218497 -0.915704,-0.283187 -0.317791,-0.06469 -0.646988,-0.0987 -0.984438,-0.0987 h -9.435081 -2.135272 z m 1.857766,4.169771 h 11.090281 c 1.518139,0 2.7404,1.222266 2.7404,2.740401 v 10.68927 c 0,1.518134 -1.222261,2.740401 -2.7404,2.740401 H 25.591687 c -1.518128,0 -2.7404,-1.222267 -2.7404,-2.740401 v -10.68927 c 0,-1.518135 1.222272,-2.740401 2.7404,-2.740401 z M 24.520953,37.55895 h 26.575268 c 0.91612,0 1.653646,0.737526 1.653646,1.653646 0,0.91612 -0.737526,1.653646 -1.653646,1.653646 H 24.520953 c -0.91612,0 -1.653646,-0.737526 -1.653646,-1.653646 0,-0.91612 0.737526,-1.653646 1.653646,-1.653646 z m 0,5.669421 h 26.575268 c 0.91612,0 1.653646,0.737528 1.653646,1.653645 0,0.91612 -0.737526,1.653646 -1.653646,1.653646 H 24.520953 c -0.91612,0 -1.653646,-0.737526 -1.653646,-1.653646 0,-0.916117 0.737526,-1.653645 1.653646,-1.653645 z m 0,5.669938 h 26.575268 c 0.91612,0 1.653646,0.737526 1.653646,1.653646 0,0.91612 -0.737526,1.653646 -1.653646,1.653646 H 24.520953 c -0.91612,0 -1.653646,-0.737526 -1.653646,-1.653646 0,-0.91612 0.737526,-1.653646 1.653646,-1.653646 z"
       id="path4754"
       inkscape:connector-curvature="0"
       sodipodi:nodetypes="ssccccccccccccccccccscccsccccccccccccccccccccsccccccccccccccccccssccsssssssssssssssssssssssssssssss" />
    <path
       id="path4758"
       d="m 30.38847,18.961636 c -0.85787,0 -1.54874,0.690355 -1.54874,1.548226 v 2.842721 h -2.84272 c -0.85787,0 -1.54823,0.690871 -1.54823,1.548742 v 1.469161 c 0,0.857872 0.69036,1.548226 1.54823,1.548226 h 2.84272 v 2.84272 c 0,0.857872 0.69087,1.548744 1.54874,1.548744 h 1.46916 c 0.85787,0 1.54823,-0.690872 1.54823,-1.548744 v -2.84272 h 2.84272 c 0.85787,0 1.54874,-0.690354 1.54874,-1.548226 v -1.469161 c 0,-0.857871 -0.69087,-1.548742 -1.54874,-1.548742 h -2.84272 v -2.842721 c 0,-0.857871 -0.69036,-1.548226 -1.54823,-1.548226 z"
       style="opacity:1;fill:#58c3f0;fill-opacity:1;stroke:none;stroke-width:0.65923947;stroke-linecap:round;stroke-miterlimit:4;stroke-dasharray:none"
       inkscape:connector-curvature="0" />
    <circle
       style="opacity:1;fill:#ededec;fill-opacity:1;stroke:#58c3f0;stroke-width:2.14899993;stroke-linecap:round;stroke-miterlimit:4;stroke-dasharray:none;stroke-opacity:1"
       id="path4760"
       cx="52.986923"
       cy="52.677837"
       r="17.386906" />
    <path
       style="opacity:1;fill:#58c3f0;fill-opacity:1;stroke:none;stroke-width:0.87711579;stroke-linecap:round;stroke-miterlimit:4;stroke-dasharray:none"
       d="m 52.98693,38.271094 c -2.49854,3.9e-5 -4.52399,2.025494 -4.52404,4.524034 5e-5,2.498539 2.0255,4.523994 4.52404,4.524032 2.49854,-3.8e-5 4.52399,-2.025493 4.52404,-4.524032 -5e-5,-2.49854 -2.0255,-4.523995 -4.52404,-4.524034 z m 0,11.117875 c -2.57479,0 -4.64769,2.072489 -4.64769,4.647276 v 8.40065 c 0,2.574786 2.0729,4.647684 4.64769,4.647684 2.57478,0 4.64768,-2.072898 4.64768,-4.647684 v -8.40065 c 0,-2.574787 -2.0729,-4.647276 -4.64768,-4.647276 z"
       id="path4756"
       inkscape:connector-curvature="0"
       sodipodi:nodetypes="cccccsssssss" />
  </g>
</svg>
