<?xml version="1.0" encoding="UTF-8" standalone="no"?>
<!-- Created with Inkscape (http://www.inkscape.org/) -->

<svg
   xmlns:dc="http://purl.org/dc/elements/1.1/"
   xmlns:cc="http://creativecommons.org/ns#"
   xmlns:rdf="http://www.w3.org/1999/02/22-rdf-syntax-ns#"
   xmlns:svg="http://www.w3.org/2000/svg"
   xmlns="http://www.w3.org/2000/svg"
   xmlns:xlink="http://www.w3.org/1999/xlink"
   xmlns:sodipodi="http://sodipodi.sourceforge.net/DTD/sodipodi-0.dtd"
   xmlns:inkscape="http://www.inkscape.org/namespaces/inkscape"
   width="1024"
   height="1024"
   viewBox="0 0 270.93333 270.93334"
   version="1.1"
   id="svg8"
   inkscape:version="0.92.3 (unknown)"
   sodipodi:docname="gloves.svg"
   inkscape:export-filename="/home/vit/ProjectG70/care-up/blend/gloveBox/g_0.png"
   inkscape:export-xdpi="96"
   inkscape:export-ydpi="96">
  <defs
     id="defs2" />
  <sodipodi:namedview
     id="base"
     pagecolor="#303030"
     bordercolor="#666666"
     borderopacity="1.0"
     inkscape:pageopacity="0"
     inkscape:pageshadow="2"
     inkscape:zoom="0.49497475"
     inkscape:cx="481.03647"
     inkscape:cy="442.05532"
     inkscape:document-units="mm"
     inkscape:current-layer="layer1"
     showgrid="false"
     inkscape:window-width="1920"
     inkscape:window-height="1055"
     inkscape:window-x="0"
     inkscape:window-y="200"
     inkscape:window-maximized="1"
     showguides="true"
     inkscape:guide-bbox="true"
     units="px" />
  <metadata
     id="metadata5">
    <rdf:RDF>
      <cc:Work
         rdf:about="">
        <dc:format>image/svg+xml</dc:format>
        <dc:type
           rdf:resource="http://purl.org/dc/dcmitype/StillImage" />
        <dc:title></dc:title>
      </cc:Work>
    </rdf:RDF>
  </metadata>
  <g
     inkscape:label="Layer 1"
     inkscape:groupmode="layer"
     id="layer1"
     transform="translate(0,-26.06665)">
    <image
       sodipodi:absref="/home/vit/Картинки/work/ggg00.jpg"
       y="-979.27588"
       x="-190.16386"
       id="image842"
       xlink:href="file:///home/vit/%D0%9A%D0%B0%D1%80%D1%82%D0%B8%D0%BD%D0%BA%D0%B8/work/ggg00.jpg"
       preserveAspectRatio="none"
       height="313.94455"
       width="389.0509"
       transform="rotate(103.06772)" />
    <g
       id="g914"
       transform="translate(-2.2678559)">
      <g
         transform="matrix(1.1263525,0,0,1.1263525,8.2563851,-51.024881)"
         style="stroke:#1e1c2f;stroke-opacity:1"
         id="g860">
        <path
           style="opacity:1;vector-effect:none;fill:none;fill-opacity:1;fill-rule:evenodd;stroke:#1e1c2f;stroke-width:1.66499996;stroke-linecap:round;stroke-linejoin:round;stroke-miterlimit:4;stroke-dasharray:none;stroke-dashoffset:0;stroke-opacity:1"
           d="m 24.190476,209.30952 v -63.78233 c 0,-11.71726 0.504315,-19.23486 7.370534,-19.23486 6.484158,0 6.614584,6.8265 6.614584,13.0631 0,6.23661 -0.188987,39.52701 -0.188987,39.52701 0,0 0.188989,-27.97024 0.566965,-38.74256 0.337923,-9.6308 2.054599,-14.10533 7.126194,-14.10533 4.779064,0 6.669935,4.84492 6.669935,10.32557 v 42.33333 -37.79762 c 0,0 -0.755952,-11.24479 6.047621,-11.24479 6.80357,0 7.305683,7.27604 7.305683,10.67783 0,3.40178 0.377978,38.36458 0.377978,38.36458 v -31.93899 c 0,0 -1.239776,-9.69916 5.828987,-9.63839 3.826707,0.0329 6.520088,1.51191 6.520088,8.69346 v 63.16984"
           id="path847"
           inkscape:connector-curvature="0"
           sodipodi:nodetypes="cssscsssccssccssc" />
        <path
           style="opacity:1;vector-effect:none;fill:none;fill-opacity:1;fill-rule:evenodd;stroke:#1e1c2f;stroke-width:1.22795689;stroke-linecap:round;stroke-linejoin:round;stroke-miterlimit:4;stroke-dasharray:none;stroke-dashoffset:0;stroke-opacity:1"
           d="m 20.695158,209.45083 h 60.43935 c 0,0 0.60412,0.46845 0.60412,2.12193 0,1.65347 -1.400961,12.1436 -1.211861,19.44055 0.189104,7.29696 1.891022,11.43916 1.134614,16.01771 -0.756407,4.57853 -1.512817,4.57853 -3.782043,4.57853 H 24.930752 c 0,0 -5.483961,0.22678 -4.727552,-5.29044 0.756408,-5.51721 1.323715,-14.77188 0.94551,-18.15339 -0.378204,-3.38151 -2.041716,-14.64906 -0.453552,-18.71489 z"
           id="path849"
           inkscape:connector-curvature="0"
           sodipodi:nodetypes="ccsssscssc" />
        <path
           style="opacity:1;vector-effect:none;fill:none;fill-opacity:1;fill-rule:evenodd;stroke:#1e1c2f;stroke-width:1.56500006;stroke-linecap:round;stroke-linejoin:round;stroke-miterlimit:4;stroke-dasharray:none;stroke-dashoffset:0;stroke-opacity:1"
           d="m 24.190476,197.49777 c 0,0 15.686013,-6.80358 20.127232,-8.22099 4.441219,-1.41741 9.543899,-1.70089 11.339285,2.64584 1.795388,4.34672 -0.566963,8.22098 -4.157737,10.67782 -3.590774,2.45685 -12.473215,6.70908 -12.473215,6.70908"
           id="path851"
           inkscape:connector-curvature="0" />
      </g>
      <text
         id="text855"
         y="218.79015"
         x="64.586884"
         style="font-style:normal;font-variant:normal;font-weight:normal;font-stretch:normal;font-size:28.60935211px;line-height:7.45035124px;font-family:sans-serif;-inkscape-font-specification:sans-serif;font-variant-ligatures:normal;font-variant-position:normal;font-variant-caps:normal;font-variant-numeric:normal;font-variant-alternates:normal;font-feature-settings:normal;text-indent:0;text-align:center;text-decoration:none;text-decoration-line:none;text-decoration-style:solid;text-decoration-color:#000000;letter-spacing:0px;word-spacing:0px;text-transform:none;writing-mode:lr-tb;direction:ltr;text-orientation:mixed;dominant-baseline:auto;baseline-shift:baseline;text-anchor:middle;white-space:normal;shape-padding:0;opacity:1;vector-effect:none;fill:#25233a;fill-opacity:1;stroke:none;stroke-width:0.29801404px;stroke-linecap:butt;stroke-linejoin:miter;stroke-miterlimit:4;stroke-dasharray:none;stroke-dashoffset:0;stroke-opacity:1"
         xml:space="preserve"><tspan
           style="font-weight:bold;fill:#25233a;fill-opacity:1;stroke-width:0.29801404px"
           y="218.79015"
           x="64.586884"
           id="tspan853"
           sodipodi:role="line">L</tspan></text>
      <g
         transform="matrix(-1.1263525,0,0,1.1263525,267.21266,-51.024881)"
         id="g870"
         style="stroke:#1e1c2f;stroke-opacity:1">
        <path
           sodipodi:nodetypes="cssscsssccssccssc"
           inkscape:connector-curvature="0"
           id="path864"
           d="m 24.190476,209.30952 v -63.78233 c 0,-11.71726 0.504315,-19.23486 7.370534,-19.23486 6.484158,0 6.614584,6.8265 6.614584,13.0631 0,6.23661 -0.188987,39.52701 -0.188987,39.52701 0,0 0.188989,-27.97024 0.566965,-38.74256 0.337923,-9.6308 2.054599,-14.10533 7.126194,-14.10533 4.779064,0 6.669935,4.84492 6.669935,10.32557 v 42.33333 -37.79762 c 0,0 -0.755952,-11.24479 6.047621,-11.24479 6.80357,0 7.305683,7.27604 7.305683,10.67783 0,3.40178 0.377978,38.36458 0.377978,38.36458 v -31.93899 c 0,0 -1.239776,-9.69916 5.828987,-9.63839 3.826707,0.0329 6.520088,1.51191 6.520088,8.69346 v 63.16984"
           style="opacity:1;vector-effect:none;fill:none;fill-opacity:1;fill-rule:evenodd;stroke:#1e1c2f;stroke-width:1.66499996;stroke-linecap:round;stroke-linejoin:round;stroke-miterlimit:4;stroke-dasharray:none;stroke-dashoffset:0;stroke-opacity:1" />
        <path
           sodipodi:nodetypes="ccsssscssc"
           inkscape:connector-curvature="0"
           id="path866"
           d="m 20.695158,209.45083 h 60.43935 c 0,0 0.60412,0.46845 0.60412,2.12193 0,1.65347 -1.400961,12.1436 -1.211861,19.44055 0.189104,7.29696 1.891022,11.43916 1.134614,16.01771 -0.756407,4.57853 -1.512817,4.57853 -3.782043,4.57853 H 24.930752 c 0,0 -5.483961,0.22678 -4.727552,-5.29044 0.756408,-5.51721 1.323715,-14.77188 0.94551,-18.15339 -0.378204,-3.38151 -2.041716,-14.64906 -0.453552,-18.71489 z"
           style="opacity:1;vector-effect:none;fill:none;fill-opacity:1;fill-rule:evenodd;stroke:#1e1c2f;stroke-width:1.22795689;stroke-linecap:round;stroke-linejoin:round;stroke-miterlimit:4;stroke-dasharray:none;stroke-dashoffset:0;stroke-opacity:1" />
        <path
           inkscape:connector-curvature="0"
           id="path868"
           d="m 24.190476,197.49777 c 0,0 15.686013,-6.80358 20.127232,-8.22099 4.441219,-1.41741 9.543899,-1.70089 11.339285,2.64584 1.795388,4.34672 -0.566963,8.22098 -4.157737,10.67782 -3.590774,2.45685 -12.473215,6.70908 -12.473215,6.70908"
           style="opacity:1;vector-effect:none;fill:none;fill-opacity:1;fill-rule:evenodd;stroke:#1e1c2f;stroke-width:1.56500006;stroke-linecap:round;stroke-linejoin:round;stroke-miterlimit:4;stroke-dasharray:none;stroke-dashoffset:0;stroke-opacity:1" />
      </g>
      <text
         xml:space="preserve"
         style="font-style:normal;font-variant:normal;font-weight:normal;font-stretch:normal;font-size:28.60935211px;line-height:7.45035124px;font-family:sans-serif;-inkscape-font-specification:sans-serif;font-variant-ligatures:normal;font-variant-position:normal;font-variant-caps:normal;font-variant-numeric:normal;font-variant-alternates:normal;font-feature-settings:normal;text-indent:0;text-align:center;text-decoration:none;text-decoration-line:none;text-decoration-style:solid;text-decoration-color:#000000;letter-spacing:0px;word-spacing:0px;text-transform:none;writing-mode:lr-tb;direction:ltr;text-orientation:mixed;dominant-baseline:auto;baseline-shift:baseline;text-anchor:middle;white-space:normal;shape-padding:0;opacity:1;vector-effect:none;fill:#25233a;fill-opacity:1;stroke:none;stroke-width:0.29801404px;stroke-linecap:butt;stroke-linejoin:miter;stroke-miterlimit:4;stroke-dasharray:none;stroke-dashoffset:0;stroke-opacity:1"
         x="209.23074"
         y="218.79015"
         id="text874"><tspan
           sodipodi:role="line"
           id="tspan872"
           x="209.23074"
           y="218.79015"
           style="font-weight:bold;fill:#25233a;fill-opacity:1;stroke-width:0.29801404px">R</tspan></text>
    </g>
  </g>
</svg>
