<?xml version="1.0" encoding="UTF-8" standalone="no"?>
<svg
   xmlns:dc="http://purl.org/dc/elements/1.1/"
   xmlns:cc="http://creativecommons.org/ns#"
   xmlns:rdf="http://www.w3.org/1999/02/22-rdf-syntax-ns#"
   xmlns:svg="http://www.w3.org/2000/svg"
   xmlns="http://www.w3.org/2000/svg"
   xmlns:sodipodi="http://sodipodi.sourceforge.net/DTD/sodipodi-0.dtd"
   xmlns:inkscape="http://www.inkscape.org/namespaces/inkscape"
   width="26.458334mm"
   height="21.43125mm"
   viewBox="0 0 26.458334 21.43125"
   version="1.1"
   id="svg8"
   inkscape:version="1.0.1 (3bc2e813f5, 2020-09-07)"
   sodipodi:docname="hat_icon.svg">
  <defs
     id="defs2" />
  <sodipodi:namedview
     id="base"
     pagecolor="#4c4c4c"
     bordercolor="#666666"
     borderopacity="1.0"
     inkscape:pageopacity="0"
     inkscape:pageshadow="2"
     inkscape:zoom="5.6"
     inkscape:cx="66.115731"
     inkscape:cy="40.707378"
     inkscape:document-units="mm"
     inkscape:current-layer="layer1"
     inkscape:document-rotation="0"
     showgrid="false"
     fit-margin-top="0"
     fit-margin-left="0"
     fit-margin-right="0"
     fit-margin-bottom="0"
     inkscape:window-width="1737"
     inkscape:window-height="1040"
     inkscape:window-x="104"
     inkscape:window-y="0"
     inkscape:window-maximized="0" />
  <metadata
     id="metadata5">
    <rdf:RDF>
      <cc:Work
         rdf:about="">
        <dc:format>image/svg+xml</dc:format>
        <dc:type
           rdf:resource="http://purl.org/dc/dcmitype/StillImage" />
        <dc:title></dc:title>
      </cc:Work>
    </rdf:RDF>
  </metadata>
  <g
     inkscape:label="Шар 1"
     inkscape:groupmode="layer"
     id="layer1"
     transform="translate(-110.74702,-202.46295)">
    <path
       id="path877"
       style="fill:#ffffff;stroke:none;stroke-width:0.264583px;stroke-linecap:butt;stroke-linejoin:miter;stroke-opacity:1"
       d="m 111.78645,212.8119 c 0.14174,-1.18117 4.34673,0.18899 4.34673,0.18899 -0.28317,-4.46547 -0.4145,-10.66114 7.843,-10.53608 8.25751,-0.12506 8.12618,6.07061 7.84301,10.53608 0,0 4.20499,-1.37016 4.34673,-0.18899 0.14174,1.18118 -3.59078,4.1105 -12.18974,4.1105 -8.59896,0 -12.33147,-2.92932 -12.18973,-4.1105 z"
       sodipodi:nodetypes="scccscs" />
    <path
       id="path880"
       style="opacity:1;fill:#ffffff;fill-opacity:1;stroke:none;stroke-width:2.965"
       d="m 117.6975,219.26506 c -3.5842,1.40404 -1.32764,5.57737 1.49655,4.43281 0.99691,-0.40402 2.02604,-1.08322 2.83622,-1.74144 1.27043,-1.03215 2.67408,-0.86602 3.72149,-0.0767 0.95005,0.71595 1.88147,1.36218 3.00656,1.81815 2.82419,1.14456 5.08075,-3.02877 1.49655,-4.43281 0.52331,0.6947 0.39594,1.97216 -0.66507,1.68155 -1.32669,-0.36337 -2.58043,-1.05662 -3.93465,-1.28209 -1.09575,0.33202 -2.24522,0.27095 -3.35793,0 -1.35422,0.22547 -2.60795,0.91872 -3.93464,1.28209 -1.06101,0.29061 -1.18839,-0.98685 -0.66508,-1.68155 z"
       sodipodi:nodetypes="csssscccccc" />
  </g>
</svg>
