<?xml version="1.0" encoding="UTF-8" standalone="no"?>
<!-- Created with Inkscape (http://www.inkscape.org/) -->

<svg
   xmlns:dc="http://purl.org/dc/elements/1.1/"
   xmlns:cc="http://creativecommons.org/ns#"
   xmlns:rdf="http://www.w3.org/1999/02/22-rdf-syntax-ns#"
   xmlns:svg="http://www.w3.org/2000/svg"
   xmlns="http://www.w3.org/2000/svg"
   xmlns:xlink="http://www.w3.org/1999/xlink"
   xmlns:sodipodi="http://sodipodi.sourceforge.net/DTD/sodipodi-0.dtd"
   xmlns:inkscape="http://www.inkscape.org/namespaces/inkscape"
   width="512"
   height="512"
   viewBox="0 0 135.46666 135.46667"
   version="1.1"
   id="svg3978"
   inkscape:version="0.92.2 (unknown)"
   sodipodi:docname="icon.svg"
   inkscape:export-filename="/home/vit/ProjectG70/care-up/images/icon.png"
   inkscape:export-xdpi="96"
   inkscape:export-ydpi="96">
  <defs
     id="defs3972">
    <linearGradient
       inkscape:collect="always"
       xlink:href="#linearGradient915"
       id="linearGradient974"
       gradientUnits="userSpaceOnUse"
       x1="97.624725"
       y1="662.18335"
       x2="116.70777"
       y2="806.2149" />
    <linearGradient
       inkscape:collect="always"
       id="linearGradient915">
      <stop
         style="stop-color:#f8f8f8;stop-opacity:1"
         offset="0"
         id="stop911" />
      <stop
         style="stop-color:#9e9e9e;stop-opacity:0.94588238"
         offset="1"
         id="stop913" />
    </linearGradient>
    <linearGradient
       inkscape:collect="always"
       xlink:href="#linearGradient915"
       id="linearGradient976"
       gradientUnits="userSpaceOnUse"
       x1="194.69539"
       y1="663.00372"
       x2="207.89191"
       y2="792.80072" />
    <linearGradient
       inkscape:collect="always"
       xlink:href="#linearGradient915"
       id="linearGradient978"
       gradientUnits="userSpaceOnUse"
       x1="-52.09494"
       y1="595.01257"
       x2="-29.83169"
       y2="804.92603" />
    <clipPath
       clipPathUnits="userSpaceOnUse"
       id="clipPath1152">
      <rect
         ry="42.28825"
         y="629.8183"
         x="1.7077787"
         height="241.17096"
         width="241.17096"
         id="rect1154"
         style="opacity:1;vector-effect:none;fill:#000000;fill-opacity:1;stroke:none;stroke-width:9.69450569;stroke-linecap:round;stroke-linejoin:round;stroke-miterlimit:4;stroke-dasharray:none;stroke-opacity:1" />
    </clipPath>
    <filter
       inkscape:collect="always"
       style="color-interpolation-filters:sRGB"
       id="filter1146"
       x="-0.31200001"
       width="1.624"
       y="-0.31200001"
       height="1.624">
      <feGaussianBlur
         inkscape:collect="always"
         stdDeviation="23.886887"
         id="feGaussianBlur1148" />
    </filter>
  </defs>
  <sodipodi:namedview
     id="base"
     pagecolor="#696969"
     bordercolor="#474747"
     borderopacity="1"
     inkscape:pageopacity="0"
     inkscape:pageshadow="2"
     inkscape:zoom="1.4"
     inkscape:cx="303.66978"
     inkscape:cy="207.57895"
     inkscape:document-units="mm"
     inkscape:current-layer="layer1"
     showgrid="false"
     units="px"
     inkscape:pagecheckerboard="true"
     borderlayer="false"
     inkscape:showpageshadow="false"
     inkscape:window-width="1920"
     inkscape:window-height="1055"
     inkscape:window-x="0"
     inkscape:window-y="0"
     inkscape:window-maximized="1" />
  <metadata
     id="metadata3975">
    <rdf:RDF>
      <cc:Work
         rdf:about="">
        <dc:format>image/svg+xml</dc:format>
        <dc:type
           rdf:resource="http://purl.org/dc/dcmitype/StillImage" />
        <dc:title></dc:title>
      </cc:Work>
    </rdf:RDF>
  </metadata>
  <g
     inkscape:label="Layer 1"
     inkscape:groupmode="layer"
     id="layer1"
     transform="translate(0,-161.53332)">
    <g
       id="g4604"
       transform="matrix(0.46527834,0,0,0.46527834,132.80306,178.65933)">
      <rect
         inkscape:export-ydpi="44.666718"
         inkscape:export-xdpi="44.666718"
         style="opacity:0;vector-effect:none;fill:#000000;fill-opacity:1;stroke:none;stroke-width:11.70362186;stroke-linecap:round;stroke-linejoin:round;stroke-miterlimit:4;stroke-dasharray:none;stroke-opacity:1"
         id="rect982"
         width="291.15189"
         height="291.15189"
         x="-285.42712"
         y="-36.808086"
         ry="0" />
      <rect
         inkscape:export-ydpi="44.666718"
         inkscape:export-xdpi="44.666718"
         ry="44.837948"
         y="-19.088114"
         x="-267.70715"
         height="255.71196"
         width="255.71196"
         id="rect980"
         style="opacity:1;vector-effect:none;fill:#000000;fill-opacity:1;stroke:none;stroke-width:10.27901936;stroke-linecap:round;stroke-linejoin:round;stroke-miterlimit:4;stroke-dasharray:none;stroke-opacity:1" />
      <rect
         inkscape:export-ydpi="44.666718"
         inkscape:export-xdpi="44.666718"
         clip-path="url(#clipPath1152)"
         transform="matrix(1.0602933,0,0,1.0602933,-269.51791,-686.88024)"
         style="opacity:0.447;vector-effect:none;fill:#ffffff;fill-opacity:1;stroke:none;stroke-width:7.38612843;stroke-linecap:round;stroke-linejoin:round;stroke-miterlimit:4;stroke-dasharray:none;stroke-opacity:1;filter:url(#filter1146)"
         id="rect984"
         width="183.74529"
         height="183.74529"
         x="30.420614"
         y="658.53113"
         ry="70.025597" />
      <g
         inkscape:export-ydpi="44.666718"
         inkscape:export-xdpi="44.666718"
         id="g972"
         transform="translate(-210.73968,-622.43224)">
        <path
           style="color:#000000;font-style:normal;font-variant:normal;font-weight:normal;font-stretch:normal;font-size:medium;line-height:normal;font-family:sans-serif;font-variant-ligatures:normal;font-variant-position:normal;font-variant-caps:normal;font-variant-numeric:normal;font-variant-alternates:normal;font-feature-settings:normal;text-indent:0;text-align:start;text-decoration:none;text-decoration-line:none;text-decoration-style:solid;text-decoration-color:#000000;letter-spacing:normal;word-spacing:normal;text-transform:none;writing-mode:lr-tb;direction:ltr;text-orientation:mixed;dominant-baseline:auto;baseline-shift:baseline;text-anchor:start;white-space:normal;shape-padding:0;clip-rule:nonzero;display:inline;overflow:visible;visibility:visible;opacity:1;isolation:auto;mix-blend-mode:normal;color-interpolation:sRGB;color-interpolation-filters:linearRGB;solid-color:#000000;solid-opacity:1;vector-effect:none;fill:#535353;fill-opacity:1;fill-rule:evenodd;stroke:#ffffff;stroke-width:10.09999943;stroke-linecap:butt;stroke-linejoin:round;stroke-miterlimit:4;stroke-dasharray:none;stroke-dashoffset:0;stroke-opacity:1;color-rendering:auto;image-rendering:auto;shape-rendering:auto;text-rendering:auto;enable-background:accumulate"
           d="m 76.298183,628.63583 c -1.49412,-0.008 -2.990201,0.0118 -4.487579,0.0605 -0.02222,10e-4 -0.04446,0.002 -0.06666,0.004 -38.949585,2.25632 -63.9273629,22.00537 -63.9273629,22.00537 -0.027832,0.0217 -0.055226,0.0439 -0.082166,0.0667 -1.9341224,1.65982 -3.2307072,3.70924 -3.3496663,5.97638 -0.1189593,2.26714 0.9373479,4.32256 2.4432617,6.00015 3.7884035,4.22029 7.4161125,6.99725 9.8164545,11.35951 -1.331763,0.59255 -2.507406,1.40323 -3.306775,2.39624 -0.664546,0.82552 -1.12504,1.72059 -1.636593,2.5957 -0.641849,-0.0851 -1.292571,0.0692 -1.8277945,0.43357 -6.2691742,4.28686 -9.63934753,12.87836 -10.6133055,20.4804 -0.0920388,0.71609 0.11403213,1.43855 0.56999104,1.99833 l 0.53898517,0.66197 -1.90789381,5.45342 c -10.7427094,-9.77642 -25.2682164,-10.38083 -35.7440704,-4.04885 0.920773,-6.94149 2.108972,-12.7456 4.360973,-20.34965 0.631838,-2.13346 1.845405,-6.4487 2.710948,-10.63502 0.432771,-2.09317 0.780825,-4.14388 0.916222,-5.95674 0.135398,-1.81285 0.451999,-3.29531 -0.836125,-5.16816 -2.268969,-3.29894 -6.202998,-4.08358 -9.484175,-4.68343 -3.28118,-0.59985 -6.162415,-0.66043 -6.162415,-0.66043 -0.147614,-0.003 -0.295241,0.006 -0.441318,0.0274 -1.704194,0.25037 -2.401318,1.12591 -3.207038,2.00401 -0.80572,0.87809 -1.588614,1.95457 -2.423626,3.23598 -1.67002,2.56284 -3.514711,5.93317 -5.421889,9.69346 -3.81436,7.52058 -7.838834,16.57395 -10.638628,23.27145 -0.08843,0.21138 -0.148884,0.4334 -0.179835,0.66043 -3.035787,22.33214 -0.941541,46.14567 6.101437,69.53529 0.03775,0.12493 0.08473,0.24688 0.14056,0.36483 7.677793,16.23838 14.632591,29.17243 23.980965,43.10539 0.738439,1.09939 2.178601,1.47912 3.363103,0.88675 0,0 4.139015,-2.05251 7.859469,-4.77129 2.227797,-1.628 3.539149,-3.87207 3.982185,-6.09004 0.443035,-2.21798 0.117078,-4.36052 -0.496094,-6.21668 -3.24742,-9.83054 -6.711396,-19.19668 -9.384439,-26.41391 -1.265029,-3.41556 -1.747589,-5.94029 -1.923915,-7.55663 -0.174702,-1.60142 -0.08032,-2.08682 -0.07855,-2.096 l 4.531506,-23.55824 c 0.346175,-1.80012 0.846089,-3.30827 0.916222,-5.09788 0.03317,-0.84638 -0.214812,-1.82026 -0.644921,-2.73058 1.792573,-1.3801 3.496432,-1.53652 5.201233,-1.08781 2.185634,0.57528 4.363482,2.45853 5.463232,4.75578 0.640317,1.33665 2.25729,1.88156 3.576009,1.2051 l 7.4512243,-3.82974 0.9177734,1.49397 -8.0801267,4.66225 c -0.918642,0.52983 -1.429717,1.55911 -1.296562,2.6112 0.62935,4.95966 -0.226833,9.22734 -2.146638,13.05451 -0.402446,0.80135 -0.36934,1.75244 0.08785,2.52386 l 6.206857,10.46655 c -1.939424,5.25163 -2.168547,10.1491 -1.206645,14.84355 l -2.502173,4.55115 c -0.31517,0.57221 -0.406342,1.24118 -0.255798,1.87687 4.372422,18.42445 14.3821132,27.62758 25.7033397,37.33779 0.8115633,0.69607 1.2432343,0.89307 1.6092043,1.10173 l -0.888834,1.68724 c -0.5458048,1.03847 -0.3386549,2.31275 0.507979,3.12486 l 3.339848,3.20705 c 0.885366,0.85037 2.240938,0.97602 3.267501,0.30281 l 0.388606,-0.25577 2.898531,2.76571 c 0.977616,0.93295 2.502818,0.97428 3.529501,0.0956 10.162048,-8.69408 18.327034,-22.50956 22.731945,-29.16412 19.653567,17.67774 40.442324,30.5649 62.842152,31.53555 7.03093,0.30467 14.21217,-3.05559 19.81636,-6.3164 4.60021,-2.67668 7.54964,-4.96522 8.6739,-5.85753 1.74906,0.30692 3.6826,0.63302 5.83943,0.33952 2.31417,-0.31491 4.73536,-1.67196 6.49263,-4.08969 3.67664,-1.00402 6.69956,-3.78204 8.21862,-7.5959 0.19011,-0.47755 0.23628,-1.00031 0.13281,-1.50379 l -0.41393,-2.01176 c 5.7391,-6.80376 10.10572,-12.26841 13.75161,-20.86125 4.03604,5.17075 10.18308,8.20814 14.76603,8.91418 1.11339,0.17148 2.21251,-0.38441 2.7342,-1.38287 11.51781,-22.0358 18.71422,-40.58156 21.19353,-66.52927 2.16616,-22.67023 -4.2541,-40.03551 -14.73088,-59.10544 -0.35296,-0.64293 -0.9581,-1.10947 -1.66967,-1.28726 -3.0105,-0.75284 -6.29901,0.0702 -9.98233,1.2206 -3.68332,1.15038 -7.43317,2.79569 -10.14873,4.84415 -0.34781,0.26259 -0.62499,0.60742 -0.80667,1.00355 -0.67312,1.46517 -0.34224,1.97584 -0.23823,2.78536 0.10401,0.80953 0.28713,1.71515 0.52348,2.75952 0.47269,2.08874 1.16775,4.70789 1.90634,7.58249 1.20506,4.6901 2.34919,9.86347 2.97657,14.33349 -1.4719,-0.0845 -2.88995,-0.0926 -4.24832,-0.002 -7.57883,-44.60601 -51.77447,-72.09006 -98.092205,-72.34955 z"
           id="path946"
           inkscape:connector-curvature="0" />
        <path
           style="color:#000000;clip-rule:nonzero;display:inline;overflow:visible;visibility:visible;opacity:1;isolation:auto;mix-blend-mode:normal;color-interpolation:sRGB;color-interpolation-filters:linearRGB;solid-color:#000000;solid-opacity:1;fill:url(#linearGradient974);fill-opacity:1;fill-rule:evenodd;stroke:none;stroke-width:0.26458332px;stroke-linecap:butt;stroke-linejoin:miter;stroke-miterlimit:4;stroke-dasharray:none;stroke-dashoffset:0;stroke-opacity:1;color-rendering:auto;image-rendering:auto;shape-rendering:auto;text-rendering:auto;enable-background:accumulate"
           d="m 79.599276,630.86102 c -4.072964,-0.0258 -8.242345,0.24698 -12.514482,0.86713 -24.856067,3.60813 -45.569746,12.8291 -51.182406,16.43724 -5.61266,3.60814 -10.6904031,4.94462 -9.7549597,9.0873 0.6681737,0.26726 12.9625167,14.96704 12.9625157,14.96704 0,0 4.944096,4.00899 6.414079,12.96252 1.469983,8.95353 2.539071,68.82155 2.672704,69.75698 0.133636,0.93546 0.133798,22.71816 15.769064,39.15524 15.635269,16.43708 41.827576,35.01234 56.928309,37.01685 15.10072,2.00453 31.13692,-7.21641 31.67145,-7.75094 0.53454,-0.53454 5.74663,-4.54332 5.88026,-5.47873 0.13364,-0.93546 21.24781,-24.05454 25.92503,-37.1507 4.67722,-13.09624 9.88911,-35.14585 9.0873,-53.58744 -0.80181,-18.4416 -0.6685,-27.79587 -5.21208,-39.55572 -4.54359,-11.75986 -16.70407,-30.73604 -35.81384,-41.02592 -15.82527,-8.5213 -33.208672,-15.57657 -52.832944,-15.70085 z"
           id="path948"
           inkscape:connector-curvature="0" />
        <path
           style="color:#000000;clip-rule:nonzero;display:inline;overflow:visible;visibility:visible;opacity:1;isolation:auto;mix-blend-mode:normal;color-interpolation:sRGB;color-interpolation-filters:linearRGB;solid-color:#000000;solid-opacity:1;fill:url(#linearGradient976);fill-opacity:1;fill-rule:evenodd;stroke:none;stroke-width:0.26458332px;stroke-linecap:butt;stroke-linejoin:miter;stroke-miterlimit:4;stroke-dasharray:none;stroke-dashoffset:0;stroke-opacity:1;color-rendering:auto;image-rendering:auto;shape-rendering:auto;text-rendering:auto;enable-background:accumulate"
           d="m 193.42954,669.58992 -4.44159,1.22835 c 0,0 5.19717,12.00089 7.27604,23.34017 2.07886,11.33929 3.68556,21.9227 3.68556,21.9227 l -5.57537,9.73273 1.79524,26.74205 -1.03921,9.16585 c 0,0 -8.7881,21.45014 -8.7881,21.82813 0,0.37796 0.0946,6.51999 0.0946,6.51999 0,0 15.59181,-19.65446 19.56056,-44.60089 3.96875,-24.94645 4.53566,-31.75007 -0.0946,-47.0581 -4.6302,-15.30804 -12.47313,-28.82098 -12.47313,-28.82098 z"
           id="path950"
           inkscape:connector-curvature="0" />
        <path
           style="color:#000000;clip-rule:nonzero;display:inline;overflow:visible;visibility:visible;opacity:1;isolation:auto;mix-blend-mode:normal;color-interpolation:sRGB;color-interpolation-filters:linearRGB;solid-color:#000000;solid-opacity:1;fill:url(#linearGradient978);fill-opacity:1;fill-rule:evenodd;stroke:none;stroke-width:0.26458332px;stroke-linecap:butt;stroke-linejoin:miter;stroke-miterlimit:4;stroke-dasharray:none;stroke-dashoffset:0;stroke-opacity:1;color-rendering:auto;image-rendering:auto;shape-rendering:auto;text-rendering:auto;enable-background:accumulate"
           d="m -47.058108,659.38486 c 0,0 -13.985193,25.13534 -17.292484,36.28564 -3.307292,11.1503 -2.929094,17.57559 -2.362131,28.7259 0.566967,11.1503 4.063391,30.33289 6.80372,40.06577 2.740327,9.73288 23.33966,42.42789 23.33966,42.42789 0,0 9.921875,-5.57522 9.921875,-6.04768 0,-0.47247 2.268078,-4.06331 2.268078,-4.06331 l -13.1346,-38.17546 5.197099,-30.80536 c 0,0 -10.110935,-9.82745 -10.6779,-10.01644 -0.566965,-0.18899 1.512051,-9.44904 1.512051,-9.44904 0,0 10.110571,-40.63251 9.543606,-44.41227 -0.566963,-3.77976 -14.646505,-4.53564 -15.118974,-4.53564 z"
           id="path952"
           inkscape:connector-curvature="0" />
        <path
           style="opacity:1;vector-effect:none;fill:#6a6969;fill-opacity:1;stroke:none;stroke-width:2.36500001;stroke-linecap:round;stroke-linejoin:round;stroke-miterlimit:4;stroke-dasharray:none;stroke-opacity:1"
           d="m -30.602266,712.37697 a 3.6749561,3.6749561 0 0 0 -3.675227,3.67471 3.6749561,3.6749561 0 0 0 3.675227,3.67522 3.6749561,3.6749561 0 0 0 3.67471,-3.67522 3.6749561,3.6749561 0 0 0 -3.67471,-3.67471 z m 12.828674,0.8015 a 3.6749561,3.6749561 0 0 0 -3.674711,3.67524 3.6749561,3.6749561 0 0 0 3.674711,3.67469 3.6749561,3.6749561 0 0 0 3.675228,-3.67469 3.6749561,3.6749561 0 0 0 -3.675228,-3.67524 z m 10.3130655,29.99403 a 4.8064142,4.8064142 0 0 0 -4.8064245,4.80642 4.8064142,4.8064142 0 0 0 4.8064245,4.80645 4.8064142,4.8064142 0 0 0 4.806425,-4.80645 4.8064142,4.8064142 0 0 0 -4.806425,-4.80642 z"
           id="path954"
           inkscape:connector-curvature="0" />
        <path
           sodipodi:nodetypes="cccscccsssccccccscccscscccccscsccscccccccccsccccccssscssccscascccscccsccccscccsssssssssscccccccscssssscccccsssssssssssssssccccc"
           style="color:#000000;font-style:normal;font-variant:normal;font-weight:normal;font-stretch:normal;font-size:medium;line-height:normal;font-family:sans-serif;font-variant-ligatures:normal;font-variant-position:normal;font-variant-caps:normal;font-variant-numeric:normal;font-variant-alternates:normal;font-feature-settings:normal;text-indent:0;text-align:start;text-decoration:none;text-decoration-line:none;text-decoration-style:solid;text-decoration-color:#000000;letter-spacing:normal;word-spacing:normal;text-transform:none;writing-mode:lr-tb;direction:ltr;text-orientation:mixed;dominant-baseline:auto;baseline-shift:baseline;text-anchor:start;white-space:normal;shape-padding:0;clip-rule:nonzero;display:inline;overflow:visible;visibility:visible;opacity:1;isolation:auto;mix-blend-mode:normal;color-interpolation:sRGB;color-interpolation-filters:linearRGB;solid-color:#000000;solid-opacity:1;vector-effect:none;fill:#05fafa;fill-opacity:1;fill-rule:evenodd;stroke:none;stroke-width:3.96499991;stroke-linecap:butt;stroke-linejoin:miter;stroke-miterlimit:4;stroke-dasharray:none;stroke-dashoffset:0;stroke-opacity:1;color-rendering:auto;image-rendering:auto;shape-rendering:auto;text-rendering:auto;enable-background:accumulate"
           d="m 47.246211,635.71964 c -7.664114,2.6359 -15.506395,5.64923 -24.597981,10.37507 -1.274815,0.66265 -5.060703,2.54459 -8.191231,4.78111 -1.565264,1.11825 -2.993164,2.28842 -3.960999,3.75222 -0.483918,0.7319 -0.8778861,1.58379 -0.9043376,2.60553 -0.026453,1.02174 0.4406116,2.12165 1.1839066,2.86494 l -0.02377,-0.0233 c 9.249611,9.55862 13.83864,17.65887 16.246035,26.80663 2.407399,9.14775 2.584559,19.46946 2.640666,33.18765 0.05262,12.86645 -1.445323,25.70866 -0.196887,38.32789 0.745789,7.53843 2.518902,15.00991 6.207374,22.25548 -3.726117,-2.74611 -6.393696,-3.88151 -8.127669,-6.22638 -1.914436,-2.58895 -2.883604,-6.52979 -3.037024,-11.77923 l -2.472717,-84.59174 -4.509655,-0.29008 0.911227,85.36887 c 0.127602,5.60427 1.570132,12.80981 3.756672,16.0174 2.783645,4.08352 8.995734,6.8445 13.69238,5.05976 l 0.55263,-2.11213 c 2.397673,4.3815 5.520619,8.67574 9.575644,12.84676 9.051256,9.31022 20.628475,17.85128 32.617129,24.09569 9.345901,4.86791 22.405346,10.2439 29.966646,10.06864 17.98098,-0.41675 33.25877,-13.72846 44.16164,-29.62299 10.90286,-15.89453 17.57148,-34.47463 18.86759,-46.87517 l 0.002,-0.0119 v -0.0114 c 2.6945,-28.96587 -0.002,-54.5233 -0.002,-54.5233 l -3.12178,-0.49558 c 0,0 3.90855,20.35433 -0.0527,54.53932 -3.64026,31.4148 -28.48117,68.1801 -56.87477,70.78399 -7.79165,0.13724 -19.435839,-2.24857 -30.612497,-8.3631 -23.205969,-12.69554 -43.541242,-31.69398 -45.985423,-57.20157 -2.130711,-24.71188 4.120814,-49.47295 -1.664064,-72.33238 -2.582891,-9.8146 -6.001209,-14.83374 -14.405838,-25.74551 -1.06539,-1.3832 -0.615808,-2.33914 0.957565,-3.55637 9.166903,-6.67562 21.132486,-11.77836 30.991977,-15.18622 z m 9.817528,-1.20184 -9.10801,2.56609 11.622545,8.12664 3.1657,4.01629 -10.205062,4.53564 c 0,0 3.401489,6.2837 3.590478,6.75618 0.188987,0.47246 1.086681,1.08676 14.552083,-1.88981 13.4654,-2.97656 34.159737,-2.92938 43.183927,-1.41748 9.02418,1.51191 24.31273,6.58926 24.31273,6.58926 l -3.10679,-6.58151 c 0,0 -10.02278,-5.44577 -11.19208,-6.51485 -1.16931,-1.06908 -3.67471,-9.02012 -3.67471,-9.02012 l -5.64611,-1.60367 c 0,0 2.50653,5.727 3.90854,8.51906 1.91861,3.82082 5.24564,5.91316 9.62217,7.34973 4.37656,1.43658 4.75865,1.53326 4.94409,3.32435 0.0487,0.47057 -0.36047,0.66219 -0.91877,0.43417 -3.60808,-1.55592 -9.75211,-4.15015 -16.36703,-5.82058 -14.76969,-3.72971 -26.990744,-2.50659 -34.412459,-1.59337 -5.169609,0.6361 -15.543501,3.55197 -17.740487,4.11893 -2.196986,0.56697 -3.070911,0.18424 -3.779616,-0.99694 -0.708705,-1.18117 -0.708853,-1.84226 0.306959,-2.17299 1.015812,-0.33073 1.488502,-0.40198 4.228831,-1.18155 2.740324,-0.77958 3.654038,-1.26601 4.412552,-2.8427 0.538147,-1.11862 0.262978,-2.64175 -0.378049,-3.70477 -2.643571,-4.38385 -6.789065,-7.56682 -11.321432,-10.996 z m -120.464004,59.42464 -0.821137,4.79557 6.6151,2.40657 c 1.757145,0.63925 1.263457,3.41015 1.234551,4.69894 v 0.0119 0.0134 c -0.252175,18.42304 -0.223086,28.87096 3.042708,47.9025 0.252042,1.46878 0.295852,3.26413 -0.871265,4.54649 -2.209059,2.42716 -5.279265,4.81057 -5.279265,4.81057 l 5.411188,12.06938 c 0,0 4.766588,-3.63798 7.325694,-6.44973 4.272655,-3.44074 1.79251,-15.25577 1.263741,-17.07558 -5.055473,-17.39889 -4.832859,-39.86886 -5.457729,-52.93991 0,-2.16537 -2.861333,-2.60362 -4.336579,-3.14007 z m 32.7985,16.77919 c -2.824441,0 -5.140535,2.40179 -5.140535,5.33005 0,2.92826 2.316094,5.33006 5.140535,5.33006 2.824443,0 5.141082,-2.4018 5.141082,-5.33006 0,-2.92826 -2.316639,-5.33005 -5.141082,-5.33005 z m 12.828146,0.81826 c -2.766465,0 -5.028754,2.39217 -5.028754,5.31445 0,2.92231 2.262289,5.31266 5.028754,5.31266 2.766466,0 5.029325,-2.39035 5.029325,-5.31266 0,-2.92228 -2.262859,-5.31445 -5.029325,-5.31445 z m 200.808409,0.97978 c -1.71346,1.8e-4 -3.10245,1.4359 -3.10255,3.20694 -1.9e-4,1.77125 1.38887,3.20732 3.10255,3.2075 1.71391,1.4e-4 3.10332,-1.43601 3.10312,-3.2075 -1e-4,-1.77127 -1.38942,-3.20708 -3.10312,-3.20694 z m -9.14181,0.29777 c 0,0 0.23395,5.6464 0.99557,7.46758 0,0 2.1039,-1.57538 1.90996,-4.01474 -0.25986,-3.26844 -2.90553,-3.45284 -2.90553,-3.45284 z m -204.762,0.26943 c 1.390552,0 2.492356,1.57428 2.492356,2.96482 0,1.39054 -1.101804,2.96481 -2.492356,2.96481 -1.390552,0 -2.493905,-1.57427 -2.493905,-2.96481 0,-1.39054 1.103353,-2.96482 2.493905,-2.96482 z m 213.06513,0.96029 c 0.56446,-2.6e-4 1.02227,0.69371 1.02216,1.54978 -5e-5,0.85589 -0.45782,1.54951 -1.02216,1.54925 -0.56415,-1.6e-4 -1.02158,-0.69365 -1.02164,-1.54925 -1.1e-4,-0.85578 0.45737,-1.54964 1.02164,-1.54978 z m -200.170154,-0.0847 c 1.552684,0 2.793111,1.33919 2.793111,2.89183 0,1.55271 -1.240427,2.8903 -2.793111,2.8903 -1.552683,0 -2.22563,-1.33759 -2.22563,-2.8903 0,-1.55264 0.672947,-2.89183 2.22563,-2.89183 z m 10.5130007,26.73327 c -3.4341957,0 -6.2443587,3.27794 -6.2443587,7.2838 0,4.00585 2.810163,7.2838 6.2443587,7.2838 3.4341951,0 6.2443586,-3.27795 6.2443586,-7.2838 0,-4.00586 -2.8101635,-7.2838 -6.2443586,-7.2838 z m 0,3.6313 c 2.0307295,0 3.6524904,1.62177 3.6524904,3.6525 0,2.03073 -1.6217609,3.65249 -3.6524904,3.65249 -2.0307291,0 -3.1801677,-1.62176 -3.1801677,-3.65249 0,-2.03073 1.1494386,-3.6525 3.1801677,-3.6525 z M 36.196863,783.7083 c -5.185016,12.45531 -13.610018,23.11549 -23.99399,33.3161 l 2.807063,2.4102 c 5.02509,-2.31633 17.809746,-13.67665 25.089114,-29.77536 z"
           id="path956"
           inkscape:connector-curvature="0" />
        <path
           style="color:#000000;clip-rule:nonzero;display:inline;overflow:visible;visibility:visible;opacity:1;isolation:auto;mix-blend-mode:normal;color-interpolation:sRGB;color-interpolation-filters:linearRGB;solid-color:#000000;solid-opacity:1;fill:#00ffff;fill-opacity:1;fill-rule:evenodd;stroke:none;stroke-width:0.26458332px;stroke-linecap:butt;stroke-linejoin:miter;stroke-miterlimit:4;stroke-dasharray:none;stroke-dashoffset:0;stroke-opacity:1;color-rendering:auto;image-rendering:auto;shape-rendering:auto;text-rendering:auto;enable-background:accumulate"
           d="m 153.88356,804.97639 c 0.0835,-1.07058 -0.1526,-2.90001 -0.70872,-3.51992 l 3.54353,-4.51208 c 0.54049,1.1536 0.74511,2.04382 0.8032,3.40178 z"
           id="path958"
           inkscape:connector-curvature="0"
           sodipodi:nodetypes="ccccc" />
        <path
           style="color:#000000;font-style:normal;font-variant:normal;font-weight:normal;font-stretch:normal;font-size:medium;line-height:normal;font-family:sans-serif;font-variant-ligatures:normal;font-variant-position:normal;font-variant-caps:normal;font-variant-numeric:normal;font-variant-alternates:normal;font-feature-settings:normal;text-indent:0;text-align:start;text-decoration:none;text-decoration-line:none;text-decoration-style:solid;text-decoration-color:#000000;letter-spacing:normal;word-spacing:normal;text-transform:none;writing-mode:lr-tb;direction:ltr;text-orientation:mixed;dominant-baseline:auto;baseline-shift:baseline;text-anchor:start;white-space:normal;shape-padding:0;clip-rule:nonzero;display:inline;overflow:visible;visibility:visible;opacity:1;isolation:auto;mix-blend-mode:normal;color-interpolation:sRGB;color-interpolation-filters:linearRGB;solid-color:#000000;solid-opacity:1;vector-effect:none;fill:#000000;fill-opacity:1;fill-rule:evenodd;stroke:none;stroke-width:5.26499987;stroke-linecap:butt;stroke-linejoin:round;stroke-miterlimit:4;stroke-dasharray:none;stroke-dashoffset:0;stroke-opacity:1;color-rendering:auto;image-rendering:auto;shape-rendering:auto;text-rendering:auto;enable-background:accumulate"
           d="m 76.298183,628.63583 c -1.49412,-0.008 -2.990201,0.0118 -4.487579,0.0605 -0.02222,10e-4 -0.04446,0.002 -0.06666,0.004 -38.949585,2.25632 -63.9273629,22.00537 -63.9273629,22.00537 -0.027832,0.0217 -0.055226,0.0439 -0.082166,0.0667 -1.9341224,1.65982 -3.2307072,3.70924 -3.3496663,5.97638 -0.1189593,2.26714 0.9373479,4.32256 2.4432617,6.00015 3.7884045,4.22029 7.4161125,6.99725 9.8164545,11.35951 -1.331763,0.59255 -2.507406,1.40323 -3.306775,2.39624 -0.664546,0.82552 -1.12504,1.72059 -1.636593,2.5957 -0.641849,-0.0851 -1.292571,0.0692 -1.8277945,0.43357 -6.2691745,4.28686 -9.63934752,12.87836 -10.6133055,20.4804 -0.0920388,0.71609 0.11403213,1.43855 0.56999104,1.99833 l 0.53898517,0.66197 -1.90789381,5.45342 c -10.7427094,-9.77642 -25.2682164,-10.38083 -35.7440704,-4.04885 0.920773,-6.94149 2.108972,-12.7456 4.360973,-20.34965 0.631838,-2.13346 1.845405,-6.4487 2.710948,-10.63502 0.432771,-2.09317 0.780825,-4.14388 0.916222,-5.95674 0.135398,-1.81285 0.451999,-3.29531 -0.836125,-5.16816 -2.268969,-3.29894 -6.202998,-4.08358 -9.484175,-4.68343 -3.28118,-0.59985 -6.162415,-0.66043 -6.162415,-0.66043 -0.147614,-0.003 -0.295241,0.006 -0.441318,0.0274 -1.704194,0.25037 -2.401318,1.12591 -3.207038,2.00401 -0.80572,0.87809 -1.588614,1.95457 -2.423626,3.23598 -1.67002,2.56284 -3.514711,5.93317 -5.421889,9.69346 -3.81436,7.52058 -7.838834,16.57395 -10.638628,23.27145 -0.08843,0.21138 -0.148884,0.4334 -0.179835,0.66043 -3.035787,22.33214 -0.941541,46.14567 6.101437,69.53529 0.03775,0.12493 0.08473,0.24688 0.14056,0.36483 7.677793,16.23838 14.632591,29.17243 23.980965,43.10539 0.738439,1.09939 2.178601,1.47912 3.363103,0.88675 0,0 4.139015,-2.05251 7.859469,-4.77129 2.227798,-1.628 3.539149,-3.87207 3.982185,-6.09004 0.443035,-2.21798 0.117078,-4.36052 -0.496094,-6.21668 -3.24742,-9.83054 -6.711396,-19.19668 -9.384439,-26.41391 -1.265029,-3.41556 -1.747589,-5.94029 -1.923915,-7.55663 -0.174702,-1.60142 -0.08032,-2.08682 -0.07855,-2.096 l 4.531506,-23.55824 c 0.346175,-1.80012 0.846089,-3.30827 0.916222,-5.09788 0.03317,-0.84638 -0.214812,-1.82026 -0.644921,-2.73058 1.792573,-1.3801 3.496432,-1.53652 5.201233,-1.08781 2.185634,0.57528 4.363482,2.45853 5.463232,4.75578 0.640317,1.33665 2.25729,1.88156 3.576009,1.2051 l 7.4512243,-3.82974 0.9177734,1.49397 -8.0801267,4.66225 c -0.918642,0.52983 -1.429717,1.55911 -1.296562,2.6112 0.62935,4.95966 -0.226833,9.22734 -2.146638,13.05451 -0.402446,0.80135 -0.369341,1.75244 0.08785,2.52386 l 6.206857,10.46655 c -1.939424,5.25163 -2.168547,10.1491 -1.206645,14.84355 l -2.502173,4.55115 c -0.31517,0.57221 -0.406342,1.24118 -0.255798,1.87687 4.372422,18.42445 14.382113,27.62758 25.7033397,37.33779 0.8115633,0.69607 1.2432343,0.89307 1.6092043,1.10173 l -0.888834,1.68724 c -0.5458051,1.03847 -0.3386549,2.31275 0.507979,3.12486 l 3.339848,3.20705 c 0.885366,0.85037 2.240938,0.97602 3.267501,0.30281 l 0.388606,-0.25577 2.898531,2.76571 c 0.977616,0.93295 2.502818,0.97428 3.529501,0.0956 10.162048,-8.69408 18.327034,-22.50956 22.731945,-29.16412 19.653567,17.67774 40.442324,30.5649 62.842152,31.53555 7.03093,0.30467 14.21217,-3.05556 19.81636,-6.3164 4.60021,-2.67668 7.54964,-4.96522 8.6739,-5.85753 1.74906,0.30692 3.6826,0.63302 5.83943,0.33952 2.31417,-0.31491 4.73536,-1.67196 6.49263,-4.08969 3.67664,-1.00405 6.69956,-3.78204 8.21862,-7.5959 0.19011,-0.47755 0.23628,-1.00031 0.13281,-1.50379 l -0.41393,-2.01176 c 5.7391,-6.80376 10.10572,-12.26841 13.75161,-20.86125 4.03604,5.17075 10.18308,8.20814 14.76603,8.91418 1.11339,0.17148 2.21251,-0.38441 2.7342,-1.38287 11.51781,-22.0358 18.71422,-40.58156 21.19353,-66.52927 2.16616,-22.67023 -4.25429,-40.0354 -14.73088,-59.10544 -0.35315,-0.64282 -0.9581,-1.10947 -1.66967,-1.28726 -3.0105,-0.75284 -6.29901,0.0702 -9.98233,1.2206 -3.68332,1.15038 -7.43317,2.79569 -10.14873,4.84415 -0.34781,0.26259 -0.62499,0.60742 -0.80667,1.00355 -0.67312,1.46517 -0.34224,1.97584 -0.23823,2.78536 0.10401,0.80953 0.28713,1.71515 0.52348,2.75952 0.47269,2.08874 1.16775,4.70789 1.90634,7.58249 1.20506,4.6901 2.34919,9.86347 2.97657,14.33349 -1.4719,-0.0845 -2.88995,-0.0926 -4.24832,-0.002 -7.57883,-44.60605 -51.77447,-72.09006 -98.092205,-72.34955 z m 0.0894,5.26635 c 15.11,0.0962 29.922607,3.20541 43.158607,8.9178 0.84034,2.12981 1.56964,4.28662 2.87631,6.90449 1.86312,3.73272 7.36377,5.0772 10.00404,6.41149 1.39813,0.92815 2.30864,1.77666 2.94866,3.25096 l 1.05161,2.18075 c 0.57025,1.18284 -0.97605,0.7089 -1.47381,0.53072 -30.38662,-10.87729 -43.233826,-10.25346 -72.282925,-2.98018 -2.899232,0.72591 -3.576126,0.44422 -4.844147,-1.28985 -0.756508,-1.03354 -1.298345,-1.83035 -1.653646,-2.45721 -1.052378,-1.85674 -0.469628,-2.22384 1.010274,-2.84427 1.852832,-0.7768 3.078618,-1.01173 4.938715,-1.73375 4.360103,-1.69242 1.925453,-4.03296 0.736907,-5.11545 -4.670912,-4.25414 -7.716602,-5.95929 -12.591478,-8.45426 6.576383,-1.60541 13.859118,-2.80635 21.760428,-3.26544 1.455428,-0.0466 2.909356,-0.065 4.360455,-0.0558 z m -32.82207,5.06242 c 5.372428,2.79126 9.796469,4.86047 14.727572,9.19113 1.159786,1.29019 0.4439,1.37797 -2.178161,2.17454 -1.233447,0.37472 -3.302728,0.87373 -5.10062,1.82428 -3.004624,1.49152 -1.241444,3.01628 -0.115343,4.73237 0.768128,1.17058 2.210985,3.39417 3.194946,4.79154 0.900814,1.27928 2.297789,2.51659 4.093079,2.08659 13.909077,-3.76615 28.877208,-7.30398 42.242384,-6.92717 14.08522,0.4745 25.74309,4.69524 34.9228,8.19691 5.73582,2.18797 7.85039,2.92042 4.54745,-3.18416 -0.862,-1.59317 -2.03895,-3.36186 -3.31143,-4.64364 -2.43694,-2.45474 -5.61337,-2.85361 -8.16414,-4.54856 -2.95839,-1.96582 -3.80298,-4.95965 -5.06104,-8.09799 24.28156,11.68395 42.54826,32.43261 46.28348,59.55554 0.0361,0.26289 0.11169,0.51883 0.22428,0.75912 1.98001,14.08826 1.85836,31.88557 0.31264,45.45768 -3.64401,30.92112 -15.10121,47.23937 -34.06924,66.16547 -0.13955,0.0766 -0.27187,0.16565 -0.39533,0.26614 0,0 -3.73977,3.0833 -8.94725,6.11333 -5.20747,3.03004 -11.86262,5.8274 -16.93954,5.6074 C 91.177437,827.67676 73.301314,817.443 55.520497,802.91999 48.565728,797.23947 42.214659,789.93236 37.788826,782.5131 c -3.849354,-6.45289 -6.11405,-13.19445 -7.388614,-23.11162 -1.982899,-15.42859 -0.231844,-24.70713 -1.056267,-53.15437 -0.395626,-13.65128 -2.12647,-21.10313 -4.041097,-25.95707 -1.596095,-4.0464 -3.197223,-8.04414 -5.603931,-11.44014 -2.770724,-3.90965 -6.21589,-6.56753 -8.952803,-9.61646 -0.9291462,-1.03506 -1.1286224,-1.7264 -1.103292,-2.20916 0.02509,-0.47816 0.2814429,-1.17752 1.497583,-2.23036 0.119279,-0.0942 10.80549,-9.65882 32.425108,-15.82932 z m -88.790141,22.99736 c 0.525357,0.0192 2.209337,0.0533 4.662247,0.50178 2.686103,0.49106 5.283284,1.69709 5.908167,2.37918 -0.0049,0.20051 0.18144,0.93971 0.109553,1.90221 -0.106183,1.42168 -0.416441,3.31852 -0.82269,5.2834 -0.812493,3.92977 -2.00092,8.17209 -2.603458,10.20661 -2.959938,9.99446 -4.434041,16.62315 -5.410004,27.56834 -0.0036,0.0511 -0.0056,0.10227 -0.0062,0.15348 l -1.42162,8.45996 10.418485,9.31725 c -0.105878,0.78861 -0.451877,2.19382 -0.795301,3.97959 l -4.550624,23.66421 c -0.0075,0.0415 -0.0141,0.0832 -0.01963,0.12504 0,0 -0.169804,1.37115 0.05478,3.42976 0.224576,2.05862 0.812866,5.01375 2.220537,8.81447 2.672342,7.21534 6.112486,16.52111 9.322427,26.2382 0.400277,1.21171 0.542996,2.47562 0.331763,3.53311 -0.211233,1.05749 -0.677211,1.95802 -1.923915,2.86906 -1.799076,1.31472 -3.613975,2.39414 -5.033282,3.18947 -6.903371,-10.48004 -12.28979,-20.6104 -18.265669,-32.06887 -3.242524,-6.21739 -5.268833,-12.34623 -6.74873,-18.6722 -3.289638,-14.06192 -4.1998,-28.13691 -4.28862,-41.79797 -0.06743,-10.37154 3.283674,-18.94139 6.899851,-27.49138 1.380326,-3.26361 3.083068,-6.56724 4.610455,-9.57872 1.859166,-3.66563 3.65638,-6.92463 5.138703,-9.19943 0.741164,-1.13739 1.411832,-2.03134 1.890326,-2.55282 0.146135,-0.15926 0.220655,-0.1865 0.322461,-0.25373 z m 237.359148,9.65833 c 9.80609,18.10771 15.4314,33.80258 13.43174,54.7305 -2.23077,23.34649 -8.33088,40.21074 -18.2361,59.83769 l -0.0801,-0.62529 8.54883,-23.14845 c 1.80976,-4.90045 1.9987,-10.24543 1.83451,-15.91788 -0.20625,-7.12592 -0.12783,-20.54204 -0.1475,-20.88645 l 4.23828,-8.68562 -0.0486,-0.45889 c -1.93166,-18.69545 -6.96156,-34.8675 -10.62009,-44.78154 0.41582,-0.0374 0.78039,-0.0573 1.079,-0.0641 z m -3.77341,0.47439 c 3.5663,9.48638 7.54249,25.30267 9.50433,43.91979 l -6.4504,8.46557 0.0253,0.42788 c 0,0 1.13872,9.4009 2.29524,21.90363 0.28103,3.03805 -0.10188,10.3919 -1.35118,13.77481 l -6.92443,22.13103 c -0.91646,2.48158 -0.78446,3.72165 -0.49609,5.97275 -3.37146,-1.28976 -7.45461,-4.14192 -9.79216,-7.35303 -1.49043,-2.04743 -1.43072,-2.50759 -0.28216,-6.40686 l 6.07147,-20.61268 c 1.35182,-4.27019 -0.0214,-7.05205 -0.66611,-9.92809 l -4.39922,-19.63135 c 0.38434,-0.72874 0.8409,-1.55699 1.38751,-2.13423 0.55254,-0.58349 1.05557,-0.90056 1.90842,-0.89247 0.0505,0 1.14417,0.53195 1.94871,1.30845 0.80455,0.77652 1.39888,1.5627 1.39888,1.5627 l 0.57206,0.76171 3.42201,-0.35139 7.13445,-7.73856 -0.13849,-0.81442 c -0.61312,-3.60105 -1.92305,-6.77961 -4.3496,-9.25783 -1.29857,-1.32622 -2.8949,-2.42826 -4.80746,-3.31607 0.001,-0.0595 -7e-5,-0.11891 -0.003,-0.17829 -0.39634,-5.66037 -2.11871,-12.57027 -3.60753,-18.36477 -0.74441,-2.89724 -1.43543,-5.50809 -1.87121,-7.43365 -0.17395,-0.76872 -0.26777,-1.31638 -0.34726,-1.81074 1.95504,-1.23809 4.68334,-2.52967 7.45277,-3.39463 0.82924,-0.25899 1.62197,-0.45456 2.36524,-0.60926 z m -167.644545,6.55877 c 0.425822,0.65286 0.933801,1.58234 1.467094,2.90008 1.606618,3.96987 3.408688,11.40383 3.796667,24.79125 0.819772,28.28668 -0.954053,37.64316 1.082104,53.48615 2.118032,16.48 7.295808,25.15298 16.964855,36.97396 -4.21745,5.95953 -12.590563,20.18085 -21.777481,28.86593 l -2.525427,-2.41019 c -0.88588,-0.84519 -2.237485,-0.96811 -3.261299,-0.2966 l -0.38499,0.25165 -0.398425,-0.38291 0.413928,-0.78496 c 0.08171,-0.15447 0.147834,-0.31666 0.197404,-0.48422 0.257641,-0.87693 0.978055,-2.56461 0.659358,-3.49385 -0.31862,-0.92927 -0.938326,-1.59097 -1.445389,-2.0035 -1.014125,-0.82505 -1.697562,-1.11327 -2.039152,-1.37925 C 2.3630381,806.04184 -5.8630837,796.81075 -9.8887607,785.19755 -3.3220155,782.04644 1.4367508,776.7989 3.8768811,770.83948 10.13561,755.55407 10.698216,720.61885 2.9983078,711.58772 l 2.827657,-8.56522 c 0.3015099,-0.8637 0.1330532,-1.82201 -0.4449339,-2.53111 l -0.6759278,-0.83044 c 0.9553866,-5.72226 3.8074022,-11.90133 7.2832759,-14.92777 1.176835,0.397 2.471059,-0.0824 3.105237,-1.15032 0.964143,-1.62832 1.703415,-2.97774 2.345593,-3.77548 0.574418,-0.71356 0.907174,-0.98194 1.518254,-1.12344 -0.04795,0.0254 0.382876,-0.002 0.786515,0.016 0.229672,0.0102 0.465309,0.0542 0.972551,-0.0465 z M -21.97902,705.026 c 6.834391,0.0314 13.976926,2.93957 19.5729653,9.52396 0.6603937,0.77429 1.70788607,1.09864 2.69027509,0.83303 5.85730401,7.88881 6.92352461,37.13715 0.2174101,53.75251 -1.86162749,4.61245 -5.39421839,8.42901 -10.40128459,10.69936 l 1.381828,-2.51145 c 0.3172939,-0.57746 0.4065394,-1.25289 0.2501138,-1.89291 -1.1131976,-4.56227 -1.0119813,-8.73308 1.2050945,-13.98831 0.3248943,-0.77004 0.2648659,-1.64862 -0.1617475,-2.36731 l -6.1469117,-10.3668 c 1.683818,-3.87006 2.488791,-8.19459 2.181779,-12.87105 l 9.0314902,-5.21105 c 1.28259566,-0.7408 1.70188883,-2.39344 0.927592,-3.65612 l -3.6095989,-5.88129 c -0.7199328,-1.17239 -2.2211617,-1.59276 -3.4452676,-0.9648 l -7.4569087,3.83233 c -1.828457,-2.51582 -4.411478,-4.45386 -7.458976,-5.256 -3.849293,-1.01317 -8.418147,0.13298 -11.843205,3.93465 l -6.137092,-5.48908 c 0.458498,-3.21254 1.114587,-4.07611 2.294948,-5.25601 4.339064,-4.38414 10.487311,-6.89316 16.907496,-6.86366 z m 198.76668,1.06505 c 1.43226,0.004 2.91541,0.12045 4.50928,0.39429 0.22126,0.0369 0.44632,0.0455 0.66973,0.0253 2.06682,0.81024 3.62265,1.83368 4.80849,3.04478 1.69174,1.72778 2.64974,3.97111 3.22306,6.73654 l -5.07618,5.50406 -0.36173,0.0367 c -0.30484,-0.37367 -0.44931,-0.60213 -1.08366,-1.21438 -1.02616,-0.99041 -2.2703,-2.23118 -4.25193,-2.24999 -1.85817,-0.0177 -3.35728,0.88104 -4.33617,1.89394 -0.80576,-4.57482 -0.85853,-9.40817 -1.43506,-13.99088 1.09907,-0.11493 2.20082,-0.18363 3.33417,-0.18035 z m -2.09186,28.69953 2.31613,10.33528 c 0.75313,3.35947 1.78759,4.87313 0.74208,8.17573 l -0.006,0.0156 -4.62349,15.69516 c -1.93348,6.56307 -4.07131,11.51239 -6.66315,16.83567 -3.41361,7.01109 -7.16998,11.66051 -12.93565,18.49499 -0.52027,0.61674 -0.72901,1.43798 -0.56637,2.22829 l 0.45475,2.20504 c -0.8996,1.89172 -2.18675,3.21143 -3.70003,3.84265 0.37503,-1.77276 0.47347,-3.58585 -0.16072,-5.63428 12.80789,-15.12887 21.02351,-31.23824 23.97218,-56.25909 0.66061,-5.60554 1.01627,-10.96227 1.17048,-15.93496 z m -27.14047,74.50553 c 0.40547,4.91789 -2.30478,7.8554 -6.84144,7.34115 2.40101,-2.45435 4.67957,-4.89045 6.84144,-7.34115 z"
           id="path960"
           inkscape:connector-curvature="0"
           sodipodi:nodetypes="sccccsscscccccccsssssccccscccccccsccccccccccccccccccccccccccccccsccccccccccssccccccscccsccccccccccccccsccccccccssccccccccsssssssssccccccscsccccccccsssccssssscccccccssccccccscssccccccccccccccccsccscccccscssccccccccccccsscsccscccscccscccaccccccccccccsccccscccccccccccscccccsccccccccccc" />
        <path
           style="color:#000000;clip-rule:nonzero;display:inline;overflow:visible;visibility:visible;opacity:1;isolation:auto;mix-blend-mode:normal;color-interpolation:sRGB;color-interpolation-filters:linearRGB;solid-color:#000000;solid-opacity:1;fill:#151918;fill-opacity:1;fill-rule:evenodd;stroke:none;stroke-width:0.26458332px;stroke-linecap:butt;stroke-linejoin:miter;stroke-miterlimit:4;stroke-dasharray:none;stroke-dashoffset:0;stroke-opacity:1;color-rendering:auto;image-rendering:auto;shape-rendering:auto;text-rendering:auto;enable-background:accumulate"
           d="m 91.659225,712.11235 c 5.764406,0.42388 12.293475,3.47815 15.119055,12.37871 3.79024,11.93926 4.76506,28.1112 -1.51191,46.1131 -2.42128,6.94405 -5.863862,10.18674 -13.828274,11.75498 -7.321238,1.44159 -15.711697,1.21309 -21.890479,0.24577 -5.291666,-0.85045 -11.383729,-2.44564 -13.985118,-12.85119 -3.401786,-13.60714 -4.972999,-23.31959 -1.039434,-37.9866 4.025832,-15.01104 5.675592,-16.25025 17.386905,-18.47359 8.013604,-1.52135 15.155078,-1.51901 19.749255,-1.18118 z"
           id="path962"
           inkscape:connector-curvature="0"
           sodipodi:nodetypes="sssscssss" />
        <path
           style="color:#000000;clip-rule:nonzero;display:inline;overflow:visible;visibility:visible;opacity:1;isolation:auto;mix-blend-mode:normal;color-interpolation:sRGB;color-interpolation-filters:linearRGB;solid-color:#000000;solid-opacity:1;fill:#151918;fill-opacity:1;fill-rule:evenodd;stroke:none;stroke-width:0.26458332px;stroke-linecap:butt;stroke-linejoin:miter;stroke-miterlimit:4;stroke-dasharray:none;stroke-dashoffset:0;stroke-opacity:1;color-rendering:auto;image-rendering:auto;shape-rendering:auto;text-rendering:auto;enable-background:accumulate"
           d="m 134.843,712.39583 c 7.81783,-0.63505 12.15571,0.23618 16.91444,1.98438 4.99598,1.83535 7.9375,6.61458 9.4494,15.686 1.58857,9.53146 1.89654,22.47533 -0.85044,34.20686 -2.15249,9.19262 -5.19717,11.33929 -10.39435,13.60715 -4.96012,2.16442 -11.92743,3.01241 -16.72544,1.98438 -5.0894,-1.09047 -8.99358,-2.64076 -11.33929,-12.47323 -3.13599,-13.14508 -2.57067,-27.37899 -0.0945,-40.72694 2.32435,-12.52949 7.91286,-13.85209 13.04017,-14.2686 z"
           id="path964"
           inkscape:connector-curvature="0"
           sodipodi:nodetypes="sssssssss" />
        <path
           id="path966"
           d="m 146.2598,724.34988 c -0.70758,0.003 -1.45223,0.0617 -2.23603,0.18706 -10.03269,1.60475 -13.7037,12.03497 -14.08597,16.08535 -0.39455,4.18039 2.29317,3.92472 2.98793,1.59265 0.3918,-1.31508 3.23016,-10.92303 12.0618,-11.43497 9.87224,-0.33396 12.04888,9.45163 12.04888,9.45163 0,0 0.54851,1.52665 1.93683,1.08159 1.38832,-0.44513 1.46018,-2.41594 0.0847,-5.81514 -1.26792,-3.1337 -4.4487,-11.16907 -12.79819,-11.14817 z"
           style="color:#000000;clip-rule:nonzero;display:inline;overflow:visible;visibility:visible;opacity:1;isolation:auto;mix-blend-mode:normal;color-interpolation:sRGB;color-interpolation-filters:linearRGB;solid-color:#000000;solid-opacity:1;fill:#00ffff;fill-opacity:1;fill-rule:evenodd;stroke:none;stroke-width:0.26458332px;stroke-linecap:butt;stroke-linejoin:miter;stroke-miterlimit:4;stroke-dasharray:none;stroke-dashoffset:0;stroke-opacity:1;color-rendering:auto;image-rendering:auto;shape-rendering:auto;text-rendering:auto;enable-background:accumulate"
           inkscape:connector-curvature="0" />
        <path
           id="path968"
           d="m 84.878539,726.70115 c -0.385369,-0.004 -0.778815,0.003 -1.180807,0.0185 -12.863734,0.51115 -17.964054,10.73542 -18.61385,14.82289 -0.670658,4.21865 2.768404,4.25971 3.74809,1.95956 0.552472,-1.2971 4.557832,-10.77693 15.845547,-10.30841 12.60816,0.76674 14.993397,10.99003 14.993397,10.99003 0,0 0.638764,1.61848 2.427764,1.32032 1.789,-0.29816 1.95968,-2.3005 0.34106,-5.92108 -1.56803,-3.50745 -5.614775,-12.77102 -17.561201,-12.88191 z"
           style="color:#000000;clip-rule:nonzero;display:inline;overflow:visible;visibility:visible;opacity:1;isolation:auto;mix-blend-mode:normal;color-interpolation:sRGB;color-interpolation-filters:linearRGB;solid-color:#000000;solid-opacity:1;fill:#00ffff;fill-opacity:1;fill-rule:evenodd;stroke:none;stroke-width:0.26458332px;stroke-linecap:butt;stroke-linejoin:miter;stroke-miterlimit:4;stroke-dasharray:none;stroke-dashoffset:0;stroke-opacity:1;color-rendering:auto;image-rendering:auto;shape-rendering:auto;text-rendering:auto;enable-background:accumulate"
           inkscape:connector-curvature="0" />
        <path
           inkscape:connector-curvature="0"
           id="path970"
           d="m 113.73944,802.55573 c -0.19448,0 -0.39701,0.004 -0.60682,0.01 -4.84087,0.16794 -24.113917,1.44863 -26.022686,1.87956 -5.37314,1.34044 -2.471872,5.34616 0.920489,6.44175 10.318815,3.33255 20.894347,1.605 27.543947,-2.5496 2.94833,-1.84209 4.19373,-5.75093 -1.83493,-5.78163 z"
           style="color:#000000;clip-rule:nonzero;display:inline;overflow:visible;visibility:visible;opacity:1;isolation:auto;mix-blend-mode:normal;color-interpolation:sRGB;color-interpolation-filters:linearRGB;solid-color:#000000;solid-opacity:1;fill:#00ffff;fill-opacity:1;fill-rule:evenodd;stroke:none;stroke-width:0.31308648px;stroke-linecap:butt;stroke-linejoin:miter;stroke-miterlimit:4;stroke-dasharray:none;stroke-dashoffset:0;stroke-opacity:1;color-rendering:auto;image-rendering:auto;shape-rendering:auto;text-rendering:auto;enable-background:accumulate" />
      </g>
    </g>
  </g>
</svg>
