<?xml version="1.0" encoding="UTF-8" standalone="no"?>
<!-- Created with Inkscape (http://www.inkscape.org/) -->

<svg
   xmlns:dc="http://purl.org/dc/elements/1.1/"
   xmlns:cc="http://creativecommons.org/ns#"
   xmlns:rdf="http://www.w3.org/1999/02/22-rdf-syntax-ns#"
   xmlns:svg="http://www.w3.org/2000/svg"
   xmlns="http://www.w3.org/2000/svg"
   xmlns:xlink="http://www.w3.org/1999/xlink"
   xmlns:sodipodi="http://sodipodi.sourceforge.net/DTD/sodipodi-0.dtd"
   xmlns:inkscape="http://www.inkscape.org/namespaces/inkscape"
   width="109.44686mm"
   height="32.298573mm"
   viewBox="0 0 109.44686 32.298573"
   version="1.1"
   id="svg8"
   inkscape:version="0.92.4 (unknown)"
   sodipodi:docname="newFinger.svg">
  <defs
     id="defs2">
    <linearGradient
       inkscape:collect="always"
       id="linearGradient9099">
      <stop
         style="stop-color:#cbd5d7;stop-opacity:1"
         offset="0"
         id="stop9095" />
      <stop
         style="stop-color:#cbd5d7;stop-opacity:1"
         offset="1"
         id="stop9097" />
    </linearGradient>
    <linearGradient
       inkscape:collect="always"
       id="linearGradient9009">
      <stop
         style="stop-color:#4d4d4d;stop-opacity:0.13865547"
         offset="0"
         id="stop9005" />
      <stop
         id="stop9085"
         offset="0.42627224"
         style="stop-color:#393a3a;stop-opacity:0" />
      <stop
         style="stop-color:#0a0c0c;stop-opacity:1"
         offset="1"
         id="stop9007" />
    </linearGradient>
    <linearGradient
       inkscape:collect="always"
       id="linearGradient8999">
      <stop
         style="stop-color:#4d4d4d;stop-opacity:1;"
         offset="0"
         id="stop8995" />
      <stop
         style="stop-color:#4d4d4d;stop-opacity:0;"
         offset="1"
         id="stop8997" />
    </linearGradient>
    <linearGradient
       inkscape:collect="always"
       id="linearGradient8981">
      <stop
         style="stop-color:#535d60;stop-opacity:1"
         offset="0"
         id="stop8977" />
      <stop
         style="stop-color:#cbd5d7;stop-opacity:1"
         offset="1"
         id="stop8979" />
    </linearGradient>
    <linearGradient
       inkscape:collect="always"
       id="linearGradient8935">
      <stop
         style="stop-color:#1a1a1a;stop-opacity:1;"
         offset="0"
         id="stop8931" />
      <stop
         style="stop-color:#1a1a1a;stop-opacity:0;"
         offset="1"
         id="stop8933" />
    </linearGradient>
    <linearGradient
       inkscape:collect="always"
       id="linearGradient35">
      <stop
         style="stop-color:#4f6061;stop-opacity:1;"
         offset="0"
         id="stop31" />
      <stop
         style="stop-color:#4f6061;stop-opacity:0;"
         offset="1"
         id="stop33" />
    </linearGradient>
    <linearGradient
       inkscape:collect="always"
       xlink:href="#linearGradient35"
       id="linearGradient37"
       x1="-94.635788"
       y1="173.26004"
       x2="-92.367935"
       y2="175.24442"
       gradientUnits="userSpaceOnUse" />
    <linearGradient
       inkscape:collect="always"
       xlink:href="#linearGradient8935"
       id="linearGradient8937"
       x1="-111.81889"
       y1="161.49435"
       x2="-111.18412"
       y2="160.92641"
       gradientUnits="userSpaceOnUse"
       gradientTransform="translate(0.33408691)" />
    <filter
       inkscape:collect="always"
       style="color-interpolation-filters:sRGB"
       id="filter8947"
       x="-0.091124341"
       width="1.1822487"
       y="-0.077908881"
       height="1.1558177">
      <feGaussianBlur
         inkscape:collect="always"
         stdDeviation="0.31687976"
         id="feGaussianBlur8949" />
    </filter>
    <radialGradient
       inkscape:collect="always"
       xlink:href="#linearGradient8981"
       id="radialGradient8985"
       cx="-124.17629"
       cy="166.03003"
       fx="-124.17629"
       fy="166.03003"
       r="11.958613"
       gradientTransform="matrix(-0.50571168,-0.67955038,0.69843883,-0.51976822,-275.52112,173.14151)"
       gradientUnits="userSpaceOnUse" />
    <linearGradient
       inkscape:collect="always"
       xlink:href="#linearGradient8999"
       id="linearGradient9001"
       x1="-99.35746"
       y1="173.45467"
       x2="-112.32001"
       y2="165.43658"
       gradientUnits="userSpaceOnUse" />
    <linearGradient
       inkscape:collect="always"
       xlink:href="#linearGradient8981"
       id="linearGradient9003"
       x1="-114.32454"
       y1="160.29164"
       x2="-111.78548"
       y2="158.6212"
       gradientUnits="userSpaceOnUse" />
    <radialGradient
       inkscape:collect="always"
       xlink:href="#linearGradient9009"
       id="radialGradient9011"
       cx="-98.499466"
       cy="171.31535"
       fx="-98.499466"
       fy="171.31535"
       r="5.3223782"
       gradientTransform="matrix(-0.57388883,-0.56975594,1.0669752,-1.0747147,-333.86358,300.31323)"
       gradientUnits="userSpaceOnUse" />
    <radialGradient
       inkscape:collect="always"
       xlink:href="#linearGradient9099"
       id="radialGradient9101"
       cx="-102.43105"
       cy="175.70547"
       fx="-102.43105"
       fy="175.70547"
       r="6.8751054"
       gradientTransform="matrix(1.6133118,-1.3314676,0.63964172,0.77503746,-49.566374,-96.835507)"
       gradientUnits="userSpaceOnUse" />
    <linearGradient
       inkscape:collect="always"
       xlink:href="#linearGradient8981"
       id="linearGradient9115"
       gradientUnits="userSpaceOnUse"
       x1="-114.32454"
       y1="160.29164"
       x2="-111.78548"
       y2="158.6212" />
    <radialGradient
       inkscape:collect="always"
       xlink:href="#linearGradient9009"
       id="radialGradient9117"
       gradientUnits="userSpaceOnUse"
       gradientTransform="matrix(-0.57388883,-0.56975594,1.0669752,-1.0747147,-333.86358,300.31323)"
       cx="-98.499466"
       cy="171.31535"
       fx="-98.499466"
       fy="171.31535"
       r="5.3223782" />
    <radialGradient
       inkscape:collect="always"
       xlink:href="#linearGradient8981"
       id="radialGradient9137"
       gradientUnits="userSpaceOnUse"
       gradientTransform="matrix(-0.66212762,-0.52831812,0.54300299,-0.68053182,-269.24715,218.84196)"
       cx="-124.17629"
       cy="166.03003"
       fx="-124.17629"
       fy="166.03003"
       r="11.958613" />
    <linearGradient
       inkscape:collect="always"
       xlink:href="#linearGradient8999"
       id="linearGradient9139"
       gradientUnits="userSpaceOnUse"
       x1="-99.35746"
       y1="173.45467"
       x2="-112.32001"
       y2="165.43658"
       gradientTransform="rotate(-14.757194,-147.14688,567.26374)" />
    <radialGradient
       inkscape:collect="always"
       xlink:href="#linearGradient9099"
       id="radialGradient9141"
       gradientUnits="userSpaceOnUse"
       gradientTransform="matrix(1.6133118,-1.3314676,0.63964172,0.77503746,-151.99792,-96.835507)"
       cx="-102.43105"
       cy="175.70547"
       fx="-102.43105"
       fy="175.70547"
       r="6.8751054" />
    <linearGradient
       inkscape:collect="always"
       xlink:href="#linearGradient35"
       id="linearGradient9143"
       gradientUnits="userSpaceOnUse"
       x1="-94.635788"
       y1="173.26004"
       x2="-92.367935"
       y2="175.24442"
       gradientTransform="translate(-102.43155)" />
    <linearGradient
       inkscape:collect="always"
       xlink:href="#linearGradient8981"
       id="linearGradient9145"
       gradientUnits="userSpaceOnUse"
       x1="-114.32454"
       y1="160.29164"
       x2="-111.78548"
       y2="158.6212"
       gradientTransform="rotate(-60,-107.33124,166.32631)" />
    <radialGradient
       inkscape:collect="always"
       xlink:href="#linearGradient9009"
       id="radialGradient9147"
       gradientUnits="userSpaceOnUse"
       gradientTransform="matrix(-0.57388883,-0.56975594,1.0669752,-1.0747147,-436.29513,300.31323)"
       cx="-98.499466"
       cy="171.31535"
       fx="-98.499466"
       fy="171.31535"
       r="5.3223782" />
    <radialGradient
       inkscape:collect="always"
       xlink:href="#linearGradient8981"
       id="radialGradient9167"
       gradientUnits="userSpaceOnUse"
       gradientTransform="matrix(-0.31758271,-0.78528609,0.80711353,-0.32641011,-270.10749,128.02409)"
       cx="-124.17629"
       cy="166.03003"
       fx="-124.17629"
       fy="166.03003"
       r="11.958613" />
    <linearGradient
       inkscape:collect="always"
       xlink:href="#linearGradient8999"
       id="linearGradient9169"
       gradientUnits="userSpaceOnUse"
       x1="-99.35746"
       y1="173.45467"
       x2="-112.32001"
       y2="165.43658"
       gradientTransform="rotate(14.636872,-97.164488,171.65901)" />
    <radialGradient
       inkscape:collect="always"
       xlink:href="#linearGradient9099"
       id="radialGradient9171"
       gradientUnits="userSpaceOnUse"
       gradientTransform="matrix(1.6133118,-1.3314676,0.63964172,0.77503746,-49.566374,-96.835507)"
       cx="-102.43105"
       cy="175.70547"
       fx="-102.43105"
       fy="175.70547"
       r="6.8751054" />
    <linearGradient
       inkscape:collect="always"
       xlink:href="#linearGradient35"
       id="linearGradient9173"
       gradientUnits="userSpaceOnUse"
       x1="-94.635788"
       y1="173.26004"
       x2="-92.367935"
       y2="175.24442" />
    <linearGradient
       inkscape:collect="always"
       xlink:href="#linearGradient8981"
       id="linearGradient9175"
       gradientUnits="userSpaceOnUse"
       x1="-114.32454"
       y1="160.29164"
       x2="-111.78548"
       y2="158.6212"
       gradientTransform="rotate(48.185311,-101.30581,162.87102)" />
    <radialGradient
       inkscape:collect="always"
       xlink:href="#linearGradient9009"
       id="radialGradient9177"
       gradientUnits="userSpaceOnUse"
       gradientTransform="matrix(-0.57388883,-0.56975594,1.0669752,-1.0747147,-333.86358,300.31323)"
       cx="-98.499466"
       cy="171.31535"
       fx="-98.499466"
       fy="171.31535"
       r="5.3223782" />
    <linearGradient
       inkscape:collect="always"
       xlink:href="#linearGradient8981"
       id="linearGradient9188"
       gradientUnits="userSpaceOnUse"
       gradientTransform="rotate(-60,-158.54702,255.03463)"
       x1="-114.32454"
       y1="160.29164"
       x2="-111.78548"
       y2="158.6212" />
    <radialGradient
       inkscape:collect="always"
       xlink:href="#linearGradient8981"
       id="radialGradient9195"
       gradientUnits="userSpaceOnUse"
       gradientTransform="matrix(-0.66212762,-0.52831812,0.54300299,-0.68053182,-371.6787,218.84196)"
       cx="-124.17629"
       cy="166.03003"
       fx="-124.17629"
       fy="166.03003"
       r="11.958613" />
    <radialGradient
       inkscape:collect="always"
       xlink:href="#linearGradient8981"
       id="radialGradient9260"
       gradientUnits="userSpaceOnUse"
       gradientTransform="matrix(-0.31758271,-0.78528609,0.80711353,-0.32641011,-270.10749,128.02409)"
       cx="-124.17629"
       cy="166.03003"
       fx="-124.17629"
       fy="166.03003"
       r="11.958613" />
  </defs>
  <sodipodi:namedview
     id="base"
     pagecolor="#545454"
     bordercolor="#666666"
     borderopacity="1.0"
     inkscape:pageopacity="0"
     inkscape:pageshadow="2"
     inkscape:zoom="2.8"
     inkscape:cx="190.95108"
     inkscape:cy="52.07857"
     inkscape:document-units="mm"
     inkscape:current-layer="layer1"
     showgrid="false"
     inkscape:window-width="1920"
     inkscape:window-height="1053"
     inkscape:window-x="0"
     inkscape:window-y="0"
     inkscape:window-maximized="1"
     inkscape:snap-global="true"
     inkscape:snap-bbox="true"
     inkscape:bbox-nodes="true"
     inkscape:bbox-paths="true"
     inkscape:snap-bbox-midpoints="true"
     inkscape:snap-bbox-edge-midpoints="true"
     inkscape:object-paths="true"
     fit-margin-top="0"
     fit-margin-left="0"
     fit-margin-right="0"
     fit-margin-bottom="0" />
  <metadata
     id="metadata5">
    <rdf:RDF>
      <cc:Work
         rdf:about="">
        <dc:format>image/svg+xml</dc:format>
        <dc:type
           rdf:resource="http://purl.org/dc/dcmitype/StillImage" />
        <dc:title></dc:title>
      </cc:Work>
    </rdf:RDF>
  </metadata>
  <g
     inkscape:label="Layer 1"
     inkscape:groupmode="layer"
     id="layer1"
     transform="translate(225.17457,-174.09705)">
    <g
       id="g9113"
       transform="translate(-63.005768,28.061292)">
      <path
         sodipodi:nodetypes="ccsssscccssc"
         inkscape:connector-curvature="0"
         id="path21"
         d="m -108.84551,164.80181 c 0,0 -4.04245,0.33408 -2.97338,3.40768 1.06908,3.0736 6.46433,5.34444 8.8199,5.61267 2.69637,0.30703 5.705234,-0.89339 7.249683,-2.63929 3.0736,-3.47451 4.510172,-7.01583 2.672696,-11.25873 -1.837478,-4.2429 -4.22795,-5.22231 -5.245164,-5.3788 -2.171565,-0.33409 -2.338605,1.03567 -2.338605,1.03567 -1.89192,-1.00385 -5.47303,-1.4298 -6.68174,0.96885 0,0 -3.97564,-2.67269 -4.64381,-3.14042 -0.99891,-0.63308 -2.61122,-0.47174 -3.54132,0.7684 -1.00226,1.33635 -0.93544,3.70837 0.80181,5.14494 2.40049,1.98502 5.87993,5.47903 5.87993,5.47903 z"
         style="opacity:1;vector-effect:none;fill:url(#radialGradient8985);fill-opacity:1;stroke:none;stroke-width:0.26458332px;stroke-linecap:butt;stroke-linejoin:miter;stroke-miterlimit:4;stroke-dasharray:none;stroke-dashoffset:0;stroke-opacity:1" />
      <path
         sodipodi:nodetypes="ccccsccsccc"
         inkscape:connector-curvature="0"
         id="path27"
         d="m -113.81808,154.17225 c 0.15791,0.605 1.53553,1.65364 3.42542,2.88206 1.41741,1.18118 3.47265,2.26786 3.47265,2.26786 2.31748,-1.86481 3.37748,-2.09041 6.89806,-0.94494 0,0 0.511243,-1.29073 1.889882,-1.08668 2.531737,0.37471 4.945256,3.43379 4.535712,8.22098 0,0 0.04725,0.8977 0.425222,0.18899 0.64284,-1.51312 0.612766,-3.03739 0.179295,-4.42929 -1.312129,-4.21332 -6.320547,-7.2137 -7.549831,-5.02017 -2.31761,-0.5977 -5.08406,-1.71857 -6.66182,1.13393 -0.70411,-0.45278 -6.87804,-4.58006 -6.61459,-3.21274 z"
         style="opacity:1;vector-effect:none;fill:#ffffff;fill-opacity:1;stroke:none;stroke-width:0.26458332px;stroke-linecap:butt;stroke-linejoin:miter;stroke-miterlimit:4;stroke-dasharray:none;stroke-dashoffset:0;stroke-opacity:1" />
      <path
         inkscape:connector-curvature="0"
         id="path8973"
         d="m -109.80208,166.0785 c 0,0 -1.11031,0.51971 -0.73233,1.72451 0.37797,1.2048 2.78757,3.47266 5.43341,2.008 2.64583,-1.46466 5.00818,-4.18136 6.307474,-4.77195 1.299294,-0.59059 4.819197,-1.1103 4.91369,0.0945 0.09449,1.20479 -6.260234,5.4334 -7.890254,5.95312 -1.63002,0.51972 -3.89788,1.29929 -5.88225,0.44885 -1.98438,-0.85045 -3.6144,-2.07887 -3.7089,-3.68527 -0.0945,-1.6064 0.68509,-2.05525 1.55916,-1.77176 z"
         style="opacity:1;vector-effect:none;fill:url(#linearGradient9001);fill-opacity:1;fill-rule:evenodd;stroke:none;stroke-width:0.2;stroke-linecap:round;stroke-linejoin:round;stroke-miterlimit:4;stroke-dasharray:none;stroke-dashoffset:0;stroke-opacity:1" />
      <path
         sodipodi:nodetypes="scsss"
         inkscape:connector-curvature="0"
         id="path23"
         d="m -99.491082,166.90655 c 2.958267,-2.79383 7.015827,-3.30745 9.187392,-0.63476 2.171565,2.6727 0.935442,6.44788 -2.037929,9.25421 -2.973375,2.80633 -7.349912,3.94222 -9.588301,1.36975 -2.27825,-2.61828 -0.4439,-7.2667 2.438838,-9.9892 z"
         style="opacity:1;vector-effect:none;fill:url(#radialGradient9101);fill-opacity:1;stroke:none;stroke-width:0.26458332px;stroke-linecap:butt;stroke-linejoin:miter;stroke-miterlimit:4;stroke-dasharray:none;stroke-dashoffset:0;stroke-opacity:1" />
      <path
         inkscape:connector-curvature="0"
         id="path25"
         d="m -97.185881,176.92916 c 0,0 -0.133636,-1.5368 2.271792,-3.842 2.405425,-2.3052 4.276312,-3.00678 4.476763,-2.60588 0.200454,0.40091 -0.133633,1.87089 -2.672694,4.14268 -2.53906,2.27179 -3.708365,2.87315 -4.075861,2.3052 z"
         style="opacity:1;vector-effect:none;fill:url(#linearGradient37);fill-opacity:1;stroke:none;stroke-width:0.26458332px;stroke-linecap:butt;stroke-linejoin:miter;stroke-miterlimit:4;stroke-dasharray:none;stroke-dashoffset:0;stroke-opacity:1" />
      <path
         sodipodi:nodetypes="cssssc"
         inkscape:connector-curvature="0"
         id="path8841"
         d="m -114.18985,155.99931 c 1.33296,2.55439 3.82424,5.09564 5.7752,6.6 1.97731,1.52467 0.81904,2.0856 -0.58956,0.96646 -1.19253,-0.94747 -3.33657,-2.67763 -4.58119,-4.049 -1.07532,-1.18483 -1.704,-2.15667 -1.78383,-3.31295 -0.0782,-1.13216 0.46343,-1.5836 1.17938,-0.20451 z"
         style="opacity:1;vector-effect:none;fill:url(#linearGradient9115);fill-opacity:1;fill-rule:evenodd;stroke:none;stroke-width:0.96499997;stroke-linecap:round;stroke-linejoin:round;stroke-miterlimit:4;stroke-dasharray:none;stroke-dashoffset:0;stroke-opacity:1" />
      <path
         sodipodi:nodetypes="csczc"
         inkscape:connector-curvature="0"
         id="path8975"
         d="m -98.015618,177.33244 c -1.066167,-1.81809 0.219557,-4.5045 2.246804,-6.29188 2.158368,-1.90298 5.121592,-2.80918 5.766535,-1.32293 0.589461,-4.62232 -4.591772,-2.93121 -7.316504,-0.73499 -2.724727,2.19622 -5.431797,8.04576 -0.696835,8.3498 z"
         style="opacity:0.33800001;vector-effect:none;fill:url(#radialGradient9117);fill-opacity:1;fill-rule:evenodd;stroke:none;stroke-width:0.065;stroke-linecap:round;stroke-linejoin:round;stroke-miterlimit:4;stroke-dasharray:none;stroke-dashoffset:0;stroke-opacity:1" />
      <path
         style="opacity:1;vector-effect:none;fill:#ffffff;fill-opacity:1;stroke:none;stroke-width:0.03511748px;stroke-linecap:butt;stroke-linejoin:miter;stroke-miterlimit:4;stroke-dasharray:none;stroke-dashoffset:0;stroke-opacity:1"
         d="m -93.776546,165.55387 c -0.01379,0.33619 -0.91232,0.54153 -1.801147,0.92747 -0.971359,0.42178 -1.940578,0.99693 -1.964342,0.65355 -0.100373,-1.45041 3.810136,-2.66944 3.765489,-1.58102 z"
         id="path9103"
         inkscape:connector-curvature="0"
         sodipodi:nodetypes="ssss" />
    </g>
    <g
       id="g9214"
       transform="translate(3.1742945,27.798597)">
      <path
         style="opacity:1;vector-effect:none;fill:url(#radialGradient9195);fill-opacity:1;stroke:none;stroke-width:0.26458332px;stroke-linecap:butt;stroke-linejoin:miter;stroke-miterlimit:4;stroke-dasharray:none;stroke-dashoffset:0;stroke-opacity:1"
         d="m -212.6103,169.61384 c 0,0 -3.65157,1.76609 -1.54827,4.24925 2.10332,2.48315 7.13836,2.03229 9.48455,1.69165 2.68564,-0.38993 5.28948,-2.31718 6.33826,-4.3989 2.08717,-4.14281 2.5743,-7.93325 -0.28333,-11.56814 -2.85763,-3.6349 -6.85683,-3.54971 -7.86223,-3.32975 -2.14634,0.46961 -1.80939,1.8077 -1.80939,1.8077 -2.1264,-0.25596 -5.62096,0.63502 -5.88575,3.30792 0,0 -8.51988,2.65598 -9.16158,3.15943 -0.896,0.77186 -1.21009,2.36149 -0.2937,3.6118 0.98747,1.34731 3.27657,1.97258 5.15594,0.72768 2.59687,-1.72015 5.8655,0.74136 5.8655,0.74136 z"
         id="path9119"
         inkscape:connector-curvature="0"
         sodipodi:nodetypes="ccsssscccssc"
         inkscape:transform-center-x="12.040153"
         inkscape:transform-center-y="-5.7702955" />
      <path
         style="opacity:1;vector-effect:none;fill:#ffffff;fill-opacity:1;stroke:none;stroke-width:0.26458332px;stroke-linecap:butt;stroke-linejoin:miter;stroke-miterlimit:4;stroke-dasharray:none;stroke-dashoffset:0;stroke-opacity:1"
         d="m -221.8963,165.00367 c -0.48621,1.47087 5.91294,-0.77045 9.85938,-1.90787 0.28431,-2.66148 1.88507,-3.00959 5.54427,-3.57249 0,0 0.92889,-1.04074 2.31403,-1.19459 2.54367,-0.28254 5.65679,2.06085 6.48017,6.79445 0,0 0.27436,0.85606 0.45933,0.0744 0.23621,-1.62695 -0.18114,-3.09328 -0.95486,-4.32885 -2.34208,-3.74011 -8.71299,-5.14382 -8.82261,-2.63171 -2.33842,0.5102 -6.11644,0.66089 -6.2404,3.9183 -2.27367,0.0712 -8.37963,2.06278 -8.63931,2.84836 z"
         id="path9121"
         inkscape:connector-curvature="0"
         sodipodi:nodetypes="sccsccsccs"
         inkscape:transform-center-x="10.313052"
         inkscape:transform-center-y="-10.612353" />
      <path
         style="opacity:1;vector-effect:none;fill:url(#linearGradient9139);fill-opacity:1;fill-rule:evenodd;stroke:none;stroke-width:0.2;stroke-linecap:round;stroke-linejoin:round;stroke-miterlimit:4;stroke-dasharray:none;stroke-dashoffset:0;stroke-opacity:1"
         d="m -212.42199,170.53175 c 0,0 -0.94131,0.78539 -0.2689,1.85416 0.67239,1.06879 2.77698,1.91573 4.96247,-0.17458 2.18547,-2.0903 3.77789,-5.31913 4.88388,-6.2212 1.106,-0.90207 4.37742,-2.30124 4.77568,-1.16025 0.39826,1.14098 -4.66972,6.8488 -6.11359,7.76658 -1.44386,0.91778 -3.32961,2.17274 -5.1959,2.09775 -1.52707,-0.0614 -3.59949,-0.52265 -4.10006,-2.05199 -0.50057,-1.52934 0.13897,-2.16197 1.05642,-2.11047 z"
         id="path9123"
         inkscape:connector-curvature="0"
         inkscape:transform-center-x="7.8891297"
         inkscape:transform-center-y="-2.2784794"
         sodipodi:nodetypes="ccccccasc" />
      <path
         style="opacity:1;vector-effect:none;fill:url(#linearGradient9188);fill-opacity:1;fill-rule:evenodd;stroke:none;stroke-width:0.96499997;stroke-linecap:round;stroke-linejoin:round;stroke-miterlimit:4;stroke-dasharray:none;stroke-dashoffset:0;stroke-opacity:1"
         d="m -222.13555,167.10254 c 1.66582,0.0711 3.52177,-0.19598 5.23146,-0.61527 1.24477,-0.30528 2.94586,0.36494 3.85398,0.86763 1.1176,0.61865 0.97918,1.48177 0.0247,1.13182 -0.92783,-0.34016 -2.22479,-1.12955 -3.84535,-0.88095 -2.03723,0.31252 -4.04846,1.37985 -5.67733,0.6204 -1.01958,-0.49836 -1.13972,-1.19314 0.41258,-1.12363 z"
         id="path9129"
         inkscape:connector-curvature="0"
         sodipodi:nodetypes="cssssccc" />
      <g
         transform="rotate(-6.2544843,-198.51088,171.42553)"
         id="g9201">
        <path
           sodipodi:nodetypes="scsss"
           inkscape:connector-curvature="0"
           id="path9125"
           d="m -201.92263,166.90655 c 2.95827,-2.79383 7.01582,-3.30745 9.18739,-0.63476 2.17157,2.6727 0.93544,6.44788 -2.03793,9.25421 -2.97337,2.80633 -7.34991,3.94222 -9.5883,1.36975 -2.27825,-2.61828 -0.4439,-7.2667 2.43884,-9.9892 z"
           style="opacity:1;vector-effect:none;fill:url(#radialGradient9141);fill-opacity:1;stroke:none;stroke-width:0.26458332px;stroke-linecap:butt;stroke-linejoin:miter;stroke-miterlimit:4;stroke-dasharray:none;stroke-dashoffset:0;stroke-opacity:1" />
        <path
           inkscape:connector-curvature="0"
           id="path9127"
           d="m -199.61743,176.92916 c 0,0 -0.13364,-1.5368 2.27179,-3.842 2.40543,-2.3052 4.27631,-3.00678 4.47676,-2.60588 0.20046,0.40091 -0.13363,1.87089 -2.67269,4.14268 -2.53906,2.27179 -3.70836,2.87315 -4.07586,2.3052 z"
           style="opacity:1;vector-effect:none;fill:url(#linearGradient9143);fill-opacity:1;stroke:none;stroke-width:0.26458332px;stroke-linecap:butt;stroke-linejoin:miter;stroke-miterlimit:4;stroke-dasharray:none;stroke-dashoffset:0;stroke-opacity:1" />
        <path
           sodipodi:nodetypes="csczc"
           inkscape:connector-curvature="0"
           id="path9131"
           d="m -200.44717,177.33244 c -1.06616,-1.81809 0.21956,-4.5045 2.24681,-6.29188 2.15836,-1.90298 5.12159,-2.80918 5.76653,-1.32293 0.58946,-4.62232 -4.59177,-2.93121 -7.3165,-0.73499 -2.72473,2.19622 -5.4318,8.04576 -0.69684,8.3498 z"
           style="opacity:0.33800001;vector-effect:none;fill:url(#radialGradient9147);fill-opacity:1;fill-rule:evenodd;stroke:none;stroke-width:0.065;stroke-linecap:round;stroke-linejoin:round;stroke-miterlimit:4;stroke-dasharray:none;stroke-dashoffset:0;stroke-opacity:1" />
        <path
           style="opacity:1;vector-effect:none;fill:#ffffff;fill-opacity:1;stroke:none;stroke-width:0.03511748px;stroke-linecap:butt;stroke-linejoin:miter;stroke-miterlimit:4;stroke-dasharray:none;stroke-dashoffset:0;stroke-opacity:1"
           d="m -196.2081,165.55387 c -0.0138,0.33619 -0.91232,0.54153 -1.80114,0.92747 -0.97136,0.42178 -1.94058,0.99693 -1.96435,0.65355 -0.10037,-1.45041 3.81014,-2.66944 3.76549,-1.58102 z"
           id="path9133"
           inkscape:connector-curvature="0"
           sodipodi:nodetypes="ssss" />
      </g>
    </g>
    <g
       transform="translate(-26.778378,28.394377)"
       id="g9165">
      <path
         style="opacity:1;vector-effect:none;fill:url(#radialGradient9260);fill-opacity:1;stroke:none;stroke-width:0.26458332px;stroke-linecap:butt;stroke-linejoin:miter;stroke-miterlimit:4;stroke-dasharray:none;stroke-dashoffset:0;stroke-opacity:1"
         d="m -106.73366,162.07265 c -0.94494,-1.0875 -3.99568,-1.19787 -3.73798,2.54574 0.25771,3.244 4.90404,6.80448 7.11539,7.65924 2.53128,0.97841 5.74583,0.57727 7.681332,-0.7217 3.851833,-2.58508 5.817735,-5.61049 5.43095,-10.21798 -0.280476,-3.3411 -1.111869,-4.62956 -1.966796,-5.20254 -1.825107,-1.22323 -2.557113,-0.0535 -2.557113,-0.0535 -1.476872,-2.98694 -4.255877,-3.48706 -6.462283,-1.95532 -0.51478,0.35737 -0.27018,-3.13171 0.10484,-6.01624 0.27236,-2.09493 -1.98156,-2.89612 -3.31911,-2.11255 -1.96267,1.14979 -2.79946,3.44277 -3.26787,5.53287 -0.77176,3.44368 0.97271,10.5415 0.97864,10.54196 z"
         id="path9149"
         inkscape:connector-curvature="0"
         sodipodi:nodetypes="ccsssscsssacc"
         inkscape:transform-center-x="3.1356211"
         inkscape:transform-center-y="-12.355618" />
      <path
         style="opacity:1;vector-effect:none;fill:#ffffff;fill-opacity:1;stroke:none;stroke-width:0.26458332px;stroke-linecap:butt;stroke-linejoin:miter;stroke-miterlimit:4;stroke-dasharray:none;stroke-dashoffset:0;stroke-opacity:1"
         d="m -102.6735,148.31682 c -1.27725,2.64672 -1.27068,5.98389 -0.46604,8.78615 2.5779,-1.12429 4.890978,-1.78163 6.951175,1.29443 0,0 1.199534,-0.69891 2.157384,0.31342 1.759004,1.85903 3.478184,3.37351 1.872246,7.90185 0,0 -0.181125,0.88051 0.363666,0.29031 1.004331,-1.30157 1.360404,-2.78397 1.292723,-4.24024 -0.204874,-4.40815 -2.033662,-6.84521 -4.355606,-5.88018 -1.358365,-2.65799 -5.278858,-2.95173 -6.912088,-1.45606 -0.35996,-1.62132 -0.69744,-4.07082 -0.047,-6.03556 0.39795,-1.20208 -0.0907,-2.56099 -0.85646,-0.97412 z"
         id="path9151"
         inkscape:connector-curvature="0"
         sodipodi:nodetypes="sccsccsccss"
         inkscape:transform-center-x="2.5121117"
         inkscape:transform-center-y="-12.951106" />
      <path
         style="opacity:1;vector-effect:none;fill:url(#linearGradient9169);fill-opacity:1;fill-rule:evenodd;stroke:none;stroke-width:0.2;stroke-linecap:round;stroke-linejoin:round;stroke-miterlimit:4;stroke-dasharray:none;stroke-dashoffset:0;stroke-opacity:1"
         d="m -107.9818,163.06619 c 0,0 -1.2056,0.22227 -1.14433,1.48349 0.0613,1.26121 1.81959,4.06435 4.74967,3.31581 2.93007,-0.74855 5.902245,-2.78013 7.30861,-3.02324 1.406365,-0.2431 4.943362,0.14351 4.730345,1.33309 -0.213017,1.18956 -7.430046,3.67515 -9.138495,3.76611 -1.70845,0.091 -4.0997,0.27217 -5.80477,-1.05211 -1.70508,-1.32429 -2.97179,-2.92473 -2.6573,-4.50288 0.31449,-1.57815 1.1822,-1.81543 1.95627,-1.32027 z"
         id="path9153"
         inkscape:connector-curvature="0"
         inkscape:transform-center-x="3.992743"
         inkscape:transform-center-y="-5.2393322" />
      <path
         style="opacity:1;vector-effect:none;fill:url(#linearGradient9175);fill-opacity:1;fill-rule:evenodd;stroke:none;stroke-width:0.96499997;stroke-linecap:round;stroke-linejoin:round;stroke-miterlimit:4;stroke-dasharray:none;stroke-dashoffset:0;stroke-opacity:1"
         d="m -104.77437,148.68693 c -1.01508,2.69654 -1.2481,6.24761 -1.06856,8.70467 0.18198,2.49023 -1.00833,2.00095 -1.11338,0.20495 -0.0889,-1.52049 -0.22892,-4.27199 -0.0366,-6.11395 0.16612,-1.59138 0.47129,-2.7079 1.27984,-3.5383 0.79167,-0.81313 1.48924,-0.71044 0.93875,0.74263 z"
         id="path9159"
         inkscape:connector-curvature="0"
         sodipodi:nodetypes="cssssc"
         inkscape:transform-center-x="8.6688881"
         inkscape:transform-center-y="-18.389487" />
      <g
         id="g9183"
         transform="rotate(7.5542074,-96.079335,171.42553)">
        <path
           sodipodi:nodetypes="scsss"
           inkscape:connector-curvature="0"
           id="path9155"
           d="m -99.491082,166.90655 c 2.958267,-2.79383 7.015827,-3.30745 9.187392,-0.63476 2.171565,2.6727 0.935442,6.44788 -2.037929,9.25421 -2.973375,2.80633 -7.349912,3.94222 -9.588301,1.36975 -2.27825,-2.61828 -0.4439,-7.2667 2.438838,-9.9892 z"
           style="opacity:1;vector-effect:none;fill:url(#radialGradient9171);fill-opacity:1;stroke:none;stroke-width:0.26458332px;stroke-linecap:butt;stroke-linejoin:miter;stroke-miterlimit:4;stroke-dasharray:none;stroke-dashoffset:0;stroke-opacity:1" />
        <path
           inkscape:connector-curvature="0"
           id="path9157"
           d="m -97.185881,176.92916 c 0,0 -0.133636,-1.5368 2.271792,-3.842 2.405425,-2.3052 4.276312,-3.00678 4.476763,-2.60588 0.200454,0.40091 -0.133633,1.87089 -2.672694,4.14268 -2.53906,2.27179 -3.708365,2.87315 -4.075861,2.3052 z"
           style="opacity:1;vector-effect:none;fill:url(#linearGradient9173);fill-opacity:1;stroke:none;stroke-width:0.26458332px;stroke-linecap:butt;stroke-linejoin:miter;stroke-miterlimit:4;stroke-dasharray:none;stroke-dashoffset:0;stroke-opacity:1" />
        <path
           sodipodi:nodetypes="csczc"
           inkscape:connector-curvature="0"
           id="path9161"
           d="m -98.015618,177.33244 c -1.066167,-1.81809 0.219557,-4.5045 2.246804,-6.29188 2.158368,-1.90298 5.121592,-2.80918 5.766535,-1.32293 0.589461,-4.62232 -4.591772,-2.93121 -7.316504,-0.73499 -2.724727,2.19622 -5.431797,8.04576 -0.696835,8.3498 z"
           style="opacity:0.33800001;vector-effect:none;fill:url(#radialGradient9177);fill-opacity:1;fill-rule:evenodd;stroke:none;stroke-width:0.065;stroke-linecap:round;stroke-linejoin:round;stroke-miterlimit:4;stroke-dasharray:none;stroke-dashoffset:0;stroke-opacity:1" />
        <path
           style="opacity:1;vector-effect:none;fill:#ffffff;fill-opacity:1;stroke:none;stroke-width:0.03511748px;stroke-linecap:butt;stroke-linejoin:miter;stroke-miterlimit:4;stroke-dasharray:none;stroke-dashoffset:0;stroke-opacity:1"
           d="m -93.776546,165.55387 c -0.01379,0.33619 -0.91232,0.54153 -1.801147,0.92747 -0.971359,0.42178 -1.940578,0.99693 -1.964342,0.65355 -0.100373,-1.45041 3.810136,-2.66944 3.765489,-1.58102 z"
           id="path9163"
           inkscape:connector-curvature="0"
           sodipodi:nodetypes="ssss" />
      </g>
    </g>
  </g>
</svg>
