<?xml version="1.0" encoding="UTF-8" standalone="no"?>
<!-- Created with Inkscape (http://www.inkscape.org/) -->

<svg
   xmlns:dc="http://purl.org/dc/elements/1.1/"
   xmlns:cc="http://creativecommons.org/ns#"
   xmlns:rdf="http://www.w3.org/1999/02/22-rdf-syntax-ns#"
   xmlns:svg="http://www.w3.org/2000/svg"
   xmlns="http://www.w3.org/2000/svg"
   xmlns:sodipodi="http://sodipodi.sourceforge.net/DTD/sodipodi-0.dtd"
   xmlns:inkscape="http://www.inkscape.org/namespaces/inkscape"
   width="130.22749mm"
   height="116.07066mm"
   viewBox="0 0 130.22749 116.07066"
   version="1.1"
   id="svg8"
   inkscape:version="0.92.1 r15371"
   sodipodi:docname="noInternet.svg">
  <defs
     id="defs2" />
  <sodipodi:namedview
     id="base"
     pagecolor="#565656"
     bordercolor="#666666"
     borderopacity="1.0"
     inkscape:pageopacity="0"
     inkscape:pageshadow="2"
     inkscape:zoom="1.4"
     inkscape:cx="221.12623"
     inkscape:cy="199.63258"
     inkscape:document-units="mm"
     inkscape:current-layer="layer1"
     showgrid="false"
     fit-margin-top="0"
     fit-margin-left="0"
     fit-margin-right="0"
     fit-margin-bottom="0"
     inkscape:snap-global="false"
     inkscape:window-width="1920"
     inkscape:window-height="1017"
     inkscape:window-x="1912"
     inkscape:window-y="-8"
     inkscape:window-maximized="1" />
  <metadata
     id="metadata5">
    <rdf:RDF>
      <cc:Work
         rdf:about="">
        <dc:format>image/svg+xml</dc:format>
        <dc:type
           rdf:resource="http://purl.org/dc/dcmitype/StillImage" />
        <dc:title></dc:title>
      </cc:Work>
    </rdf:RDF>
  </metadata>
  <g
     inkscape:label="Layer 1"
     inkscape:groupmode="layer"
     id="layer1"
     transform="translate(-40.056344,-91.655301)">
    <path
       inkscape:connector-curvature="0"
       id="path4498"
       d="m 101.64757,207.6462 c -1.20876,-0.22332 -3.822246,-1.23064 -4.808946,-1.85351 -2.4148,-1.5244 -4.16694,-3.71694 -5.1989,-6.50566 -1.51761,-4.10112 -0.74377,-8.82807 2.00731,-12.26164 5.59037,-6.97722 16.332576,-6.27059 20.968916,1.37934 4.16096,6.86555 0.8219,15.99223 -6.81715,18.63334 -1.49444,0.51669 -4.85038,0.84847 -6.15123,0.60813 z m -47.493367,-5.66131 -5.55218,-5.55691 12.50084,-12.50292 12.500851,-12.50293 -4.36189,-4.35588 -4.361891,-4.35588 0.85517,-0.89334 c 1.38254,-1.44425 5.957371,-5.05102 8.528091,-6.72351 6.26083,-4.07325 14.81688,-7.3238 22.13278,-8.40852 l 2.28903,-0.33939 9.586966,-9.58966 c 9.22701,-9.22961 9.5583,-9.59558 8.82347,-9.74722 -4.50157,-0.92896 -15.90784,-1.10695 -21.510376,-0.33566 -4.14891,0.57117 -8.53953,1.51605 -12.53348,2.69726 -10.81949,3.19985 -21.877571,9.48782 -29.777451,16.93237 l -2.46823,2.32597 -5.20469,-5.22333 -5.20469,-5.22333 2.11667,-1.98659 c 15.06044,-14.13496 34.646241,-22.74436 55.645961,-24.4605 4.672716,-0.38186 14.018516,-0.17493 18.569666,0.41117 3.45051,0.44436 10.18783,1.74483 12.24161,2.36292 l 1.19218,0.35879 10.41312,-10.41562 10.41312,-10.415628 5.62518,5.62061 5.62518,5.620618 -51.1315,51.13201 C 82.985384,184.5324 59.915493,207.5418 59.841293,207.5418 c -0.0742,0 -2.63339,-2.50061 -5.68709,-5.55691 z m 79.243367,-30.86042 c -4.10707,-3.58478 -9.4849,-6.66611 -14.34736,-8.2206 -1.26985,-0.40596 -2.31165,-0.79868 -2.3151,-0.87271 -0.003,-0.074 2.5451,-2.68391 5.66346,-5.79974 l 5.66974,-5.66515 2.4662,1.19264 c 4.72996,2.28739 9.66645,5.63888 13.408,9.10298 l 1.93085,1.78767 -5.11087,5.11591 c -2.81098,2.81375 -5.17155,5.11031 -5.24571,5.10347 -0.0742,-0.007 -1.0278,-0.79186 -2.11921,-1.74447 z m 23.94479,-24.87993 c -2.93065,-2.79531 -7.87475,-6.53603 -11.6293,-8.79876 l -2.82286,-1.70122 5.34763,-5.35241 5.34763,-5.35241 1.56545,0.96822 c 3.6202,2.23907 12.12978,9.01679 14.48302,11.53546 l 0.64991,0.69559 -5.14528,5.15035 c -2.8299,2.8327 -5.20595,5.14498 -5.28011,5.13841 -0.0742,-0.007 -1.2064,-1.03402 -2.51609,-2.28323 z"
       style="opacity:0.25600011;fill:#000000;stroke-width:1" />
    <path
       style="fill:#ffffff;stroke-width:1"
       d="m 101.30739,205.26494 c -1.20876,-0.22332 -3.822245,-1.23064 -4.808945,-1.85351 -2.4148,-1.5244 -4.16694,-3.71694 -5.1989,-6.50566 -1.51761,-4.10112 -0.74377,-8.82807 2.00731,-12.26164 5.59037,-6.97722 16.332575,-6.27059 20.968915,1.37934 4.16096,6.86555 0.8219,15.99223 -6.81715,18.63334 -1.49444,0.51669 -4.85038,0.84847 -6.15123,0.60813 z m -47.493366,-5.66131 -5.55218,-5.55691 12.50084,-12.50292 12.500851,-12.50293 -4.36189,-4.35588 -4.361891,-4.35588 0.85517,-0.89334 c 1.38254,-1.44425 5.957371,-5.05102 8.528091,-6.72351 6.26083,-4.07325 14.81688,-7.3238 22.13278,-8.40852 l 2.28903,-0.33939 9.586965,-9.58966 c 9.22701,-9.22961 9.5583,-9.59558 8.82347,-9.74722 -4.50157,-0.92896 -15.90784,-1.10695 -21.510375,-0.33566 -4.14891,0.57117 -8.53953,1.51605 -12.53348,2.69726 -10.81949,3.19985 -21.877571,9.48782 -29.777451,16.93237 l -2.46823,2.32597 -5.20469,-5.22333 -5.20469,-5.22333 2.11667,-1.98659 c 15.06044,-14.13496 34.646241,-22.74436 55.645961,-24.4605 4.672715,-0.38186 14.018515,-0.17493 18.569665,0.41117 3.45051,0.44436 10.18783,1.74483 12.24161,2.36292 l 1.19218,0.35879 10.41312,-10.41562 10.41312,-10.415619 5.62518,5.62061 5.62518,5.620609 -51.1315,51.13201 c -28.122325,28.12261 -51.192216,51.13201 -51.266416,51.13201 -0.0742,0 -2.63339,-2.50061 -5.68709,-5.55691 z m 79.243366,-30.86042 c -4.10707,-3.58478 -9.4849,-6.66611 -14.34736,-8.2206 -1.26985,-0.40596 -2.31165,-0.79868 -2.3151,-0.87271 -0.003,-0.074 2.5451,-2.68391 5.66346,-5.79974 l 5.66974,-5.66515 2.4662,1.19264 c 4.72996,2.28739 9.66645,5.63888 13.408,9.10298 l 1.93085,1.78767 -5.11087,5.11591 c -2.81098,2.81375 -5.17155,5.11031 -5.24571,5.10347 -0.0742,-0.007 -1.0278,-0.79186 -2.11921,-1.74447 z m 23.94479,-24.87993 c -2.93065,-2.79531 -7.87475,-6.53603 -11.6293,-8.79876 l -2.82286,-1.70122 5.34763,-5.35241 5.34763,-5.35241 1.56545,0.96822 c 3.6202,2.23907 12.12978,9.01679 14.48302,11.53546 l 0.64991,0.69559 -5.14528,5.15035 c -2.8299,2.8327 -5.20595,5.14498 -5.28011,5.13841 -0.0742,-0.007 -1.2064,-1.03402 -2.51609,-2.28323 z"
       id="path4496"
       inkscape:connector-curvature="0" />
  </g>
</svg>
