<?xml version="1.0" encoding="UTF-8" standalone="no"?>
<svg
   xmlns:dc="http://purl.org/dc/elements/1.1/"
   xmlns:cc="http://creativecommons.org/ns#"
   xmlns:rdf="http://www.w3.org/1999/02/22-rdf-syntax-ns#"
   xmlns:svg="http://www.w3.org/2000/svg"
   xmlns="http://www.w3.org/2000/svg"
   xmlns:sodipodi="http://sodipodi.sourceforge.net/DTD/sodipodi-0.dtd"
   xmlns:inkscape="http://www.inkscape.org/namespaces/inkscape"
   width="26.458334mm"
   height="21.43125mm"
   viewBox="0 0 26.458334 21.43125"
   version="1.1"
   id="svg8"
   inkscape:version="1.0.1 (3bc2e813f5, 2020-09-07)"
   sodipodi:docname="scene_store_icon.svg"
   inkscape:export-filename="D:\Projects\care-up\care-up\Assets\Resources\Sprites\nUI\hat_icon.png"
   inkscape:export-xdpi="96"
   inkscape:export-ydpi="96">
  <defs
     id="defs2" />
  <sodipodi:namedview
     id="base"
     pagecolor="#4c4c4c"
     bordercolor="#666666"
     borderopacity="1.0"
     inkscape:pageopacity="0"
     inkscape:pageshadow="2"
     inkscape:zoom="7.9195959"
     inkscape:cx="57.527513"
     inkscape:cy="51.520716"
     inkscape:document-units="mm"
     inkscape:current-layer="layer1"
     inkscape:document-rotation="0"
     showgrid="false"
     fit-margin-top="0"
     fit-margin-left="0"
     fit-margin-right="0"
     fit-margin-bottom="0"
     inkscape:window-width="1737"
     inkscape:window-height="1040"
     inkscape:window-x="104"
     inkscape:window-y="0"
     inkscape:window-maximized="0" />
  <metadata
     id="metadata5">
    <rdf:RDF>
      <cc:Work
         rdf:about="">
        <dc:format>image/svg+xml</dc:format>
        <dc:type
           rdf:resource="http://purl.org/dc/dcmitype/StillImage" />
        <dc:title></dc:title>
      </cc:Work>
    </rdf:RDF>
  </metadata>
  <g
     inkscape:label="Шар 1"
     inkscape:groupmode="layer"
     id="layer1"
     transform="translate(-110.74702,-202.46295)">
    <path
       id="path904"
       style="opacity:1;fill:#ffffff;fill-opacity:1;stroke:none;stroke-width:11.2063"
       d="M 6.0585938 0.38867188 L 6.0585938 4.3027344 L 6.0585938 8.2167969 L 10.082031 8.2167969 C 13.990954 8.2167969 14.111995 8.2323488 14.28125 8.765625 C 14.377071 9.0675311 15.191547 10.858435 16.091797 12.744141 C 16.992046 14.629846 18.159034 17.082191 18.685547 18.193359 C 19.212061 19.304526 20.349181 21.690447 21.212891 23.496094 C 22.076601 25.301742 23.183263 27.632108 23.671875 28.673828 C 24.160487 29.715548 25.453022 32.422765 26.542969 34.691406 L 28.523438 38.816406 L 27.679688 40.373047 C 27.215241 41.229565 26.53581 42.471103 26.169922 43.130859 C 25.804035 43.790614 25.207572 44.869541 24.845703 45.529297 C 24.483835 46.189053 23.813807 47.410765 23.355469 48.244141 C 22.897131 49.077517 22.383603 50.393488 22.214844 51.167969 C 21.433993 54.751526 23.658601 58.56826 27.398438 60.0625 C 28.299116 60.422364 31.097757 60.468869 53.220703 60.480469 L 78.033203 60.492188 L 78.033203 56.580078 L 78.033203 52.666016 L 54.357422 52.601562 L 30.681641 52.537109 L 30.601562 51.699219 C 30.557306 51.237976 30.680685 50.613232 30.876953 50.310547 C 31.24184 49.747811 32.212372 48.009942 33.472656 45.664062 L 34.179688 44.347656 L 50.361328 44.275391 C 65.661358 44.207433 66.590003 44.177168 67.425781 43.726562 C 68.84509 42.961345 70.201736 41.799327 70.816406 40.820312 C 71.3444 39.979355 71.6853 39.37484 73.708984 35.681641 C 74.108552 34.952438 75.032276 33.27459 75.763672 31.955078 C 76.495065 30.635566 77.402928 28.989402 77.78125 28.294922 C 78.159575 27.600442 78.753185 26.519572 79.099609 25.894531 C 80.352469 23.634079 81.166202 22.157911 83.515625 17.884766 C 85.482748 14.306947 85.909938 13.338952 85.923828 12.419922 C 85.945567 10.981958 85.238102 9.770802 83.953125 9.0429688 L 82.957031 8.4785156 L 52.759766 8.4746094 L 22.5625 8.4707031 L 20.634766 4.4296875 L 18.707031 0.38867188 L 12.382812 0.38867188 L 6.0585938 0.38867188 z M 70.294922 65.005859 C 69.105681 64.978801 67.914525 65.148099 67.095703 65.523438 C 65.519451 66.245974 63.95665 67.707898 63.195312 69.169922 C 62.609398 70.295068 62.518778 70.769311 62.517578 72.740234 C 62.516561 74.463833 62.629023 75.228149 62.982422 75.898438 C 63.890503 77.620789 65.1363 78.880136 66.708984 79.666016 C 68.013619 80.31795 68.55782 80.443359 70.087891 80.443359 C 71.195791 80.443359 72.294347 80.283449 72.888672 80.035156 C 79.348379 77.336465 79.702403 68.819846 73.486328 65.669922 C 72.672317 65.257431 71.484163 65.032918 70.294922 65.005859 z M 29.802734 65.039062 C 27.458444 65.039062 26.05009 65.601135 24.453125 67.173828 C 20.598327 70.970041 21.728157 77.40243 26.675781 79.826172 C 28.444398 80.692582 31.343072 80.692524 33.052734 79.826172 C 35.588862 78.541019 36.884575 76.941931 37.490234 74.345703 C 38.109487 71.691203 37.246087 68.945331 35.199219 67.058594 C 33.557457 65.54527 32.201197 65.039062 29.802734 65.039062 z "
       transform="matrix(0.26458333,0,0,0.26458333,110.74702,202.46295)" />
  </g>
</svg>
