<?xml version="1.0" encoding="UTF-8" standalone="no"?>
<svg
   xmlns:dc="http://purl.org/dc/elements/1.1/"
   xmlns:cc="http://creativecommons.org/ns#"
   xmlns:rdf="http://www.w3.org/1999/02/22-rdf-syntax-ns#"
   xmlns:svg="http://www.w3.org/2000/svg"
   xmlns="http://www.w3.org/2000/svg"
   xmlns:sodipodi="http://sodipodi.sourceforge.net/DTD/sodipodi-0.dtd"
   xmlns:inkscape="http://www.inkscape.org/namespaces/inkscape"
   width="16.488914mm"
   height="21.883373mm"
   viewBox="0 0 16.488914 21.883373"
   version="1.1"
   id="svg8"
   inkscape:version="1.0.1 (3bc2e813f5, 2020-09-07)"
   sodipodi:docname="store_icons.svg">
  <defs
     id="defs2" />
  <sodipodi:namedview
     id="base"
     pagecolor="#606060"
     bordercolor="#4e4e4e"
     borderopacity="0"
     inkscape:pageopacity="0"
     inkscape:pageshadow="2"
     inkscape:zoom="5.6"
     inkscape:cx="46.705603"
     inkscape:cy="39.796778"
     inkscape:document-units="mm"
     inkscape:current-layer="layer1"
     showgrid="false"
     inkscape:window-width="1920"
     inkscape:window-height="1017"
     inkscape:window-x="-8"
     inkscape:window-y="-8"
     inkscape:window-maximized="1"
     inkscape:document-rotation="0"
     fit-margin-top="0"
     fit-margin-left="0"
     fit-margin-right="0"
     fit-margin-bottom="0" />
  <metadata
     id="metadata5">
    <rdf:RDF>
      <cc:Work
         rdf:about="">
        <dc:format>image/svg+xml</dc:format>
        <dc:type
           rdf:resource="http://purl.org/dc/dcmitype/StillImage" />
        <dc:title></dc:title>
      </cc:Work>
    </rdf:RDF>
  </metadata>
  <g
     inkscape:label="Layer 1"
     inkscape:groupmode="layer"
     id="layer1"
     transform="translate(35.591018,-44.799683)">
    <path
       style="opacity:1;fill:#e6e6e6;fill-opacity:1;fill-rule:evenodd;stroke:none;stroke-width:0.965;stroke-linecap:round;stroke-linejoin:round;stroke-miterlimit:4;stroke-dasharray:none;stroke-opacity:1"
       d="m -27.346558,44.799683 c -3.206419,0 -5.78776,2.823967 -5.78776,6.331397 0,0.111286 0.005,0.221033 0.01033,0.330729 h -0.600995 c -1.033907,0 -1.866035,0.832128 -1.866035,1.866035 0,1.033907 0.832128,1.866553 1.866035,1.866553 h 12.756843 c 1.033907,0 1.866037,-0.832646 1.866037,-1.866553 0,-1.033907 -0.83213,-1.866035 -1.866037,-1.866035 h -0.601512 c 0.0055,-0.109699 0.01085,-0.21944 0.01085,-0.330729 0,-3.50743 -2.581342,-6.331397 -5.787761,-6.331397 z"
       id="rect637"
       inkscape:connector-curvature="0" />
    <path
       style="color:#000000;font-style:normal;font-variant:normal;font-weight:normal;font-stretch:normal;font-size:medium;line-height:normal;font-family:sans-serif;font-variant-ligatures:normal;font-variant-position:normal;font-variant-caps:normal;font-variant-numeric:normal;font-variant-alternates:normal;font-feature-settings:normal;text-indent:0;text-align:start;text-decoration:none;text-decoration-line:none;text-decoration-style:solid;text-decoration-color:#000000;letter-spacing:normal;word-spacing:normal;text-transform:none;writing-mode:lr-tb;direction:ltr;text-orientation:mixed;dominant-baseline:auto;baseline-shift:baseline;text-anchor:start;white-space:normal;shape-padding:0;clip-rule:nonzero;display:inline;overflow:visible;visibility:visible;opacity:1;isolation:auto;mix-blend-mode:normal;color-interpolation:sRGB;color-interpolation-filters:linearRGB;solid-color:#000000;solid-opacity:1;vector-effect:none;fill:#e6e6e6;fill-opacity:1;fill-rule:nonzero;stroke:none;stroke-width:0.565;stroke-linecap:butt;stroke-linejoin:miter;stroke-miterlimit:4;stroke-dasharray:none;stroke-dashoffset:0;stroke-opacity:1;color-rendering:auto;image-rendering:auto;shape-rendering:auto;text-rendering:auto;enable-background:accumulate"
       d="m -30.300304,60.849515 c -0.64902,-0.01995 -1.318622,0.105682 -1.878954,0.281119 -1.035002,0.323938 -1.717313,1.130488 -1.884122,2.091862 h -0.02274 c -0.231354,0 -0.417547,0.18619 -0.417547,0.417547 0,0.231354 0.186193,0.418058 0.417547,0.418063 h 0.0088 c 0.02215,0.167751 0.05744,0.337177 0.110588,0.506944 0.467889,1.493989 1.77451,2.467655 3.268535,1.999877 1.494073,-0.467614 3.306313,-2.448875 2.874759,-3.953764 -0.01478,-0.05152 -0.03226,-0.09947 -0.04909,-0.148309 h 1.450559 c -0.01683,0.04884 -0.03432,0.09679 -0.04909,0.148309 -0.431559,1.504889 1.380686,3.48615 2.874759,3.953764 1.494025,0.467778 2.800646,-0.505888 3.268535,-1.999877 0.05315,-0.169767 0.08844,-0.339193 0.110588,-0.506944 h 0.0088 c 0.231354,-5e-6 0.417547,-0.186709 0.417547,-0.418063 0,-0.231357 -0.186193,-0.417547 -0.417547,-0.417547 h -0.02274 c -0.166812,-0.961374 -0.849119,-1.767924 -1.884122,-2.091862 -0.560332,-0.175437 -1.229934,-0.30108 -1.878954,-0.281119 -0.161073,0.005 -0.319868,0.02264 -0.476457,0.04703 h -5.353163 c -0.156718,-0.02443 -0.315243,-0.04207 -0.476457,-0.04703 z m 1.774053,0.611333 h 2.757455 c -0.14125,0.123224 -0.268216,0.268864 -0.379306,0.4377 h -1.998327 c -0.111111,-0.168868 -0.23854,-0.31446 -0.379822,-0.4377 z m 5.659604,0.336412 c 0.07612,-5.93e-4 0.179924,0.0052 0.291454,0.03101 0.223057,0.05163 0.511302,0.183952 0.765845,0.460955 0.252732,0.275032 0.361505,0.569116 0.398425,0.792715 0.03693,0.223602 0,0.41238 0,0.41238 a 0.38327722,0.38327722 0 1 1 -0.748276,-0.166399 c 0,0 0.01055,-0.02472 -0.0057,-0.122989 -0.01623,-0.09827 -0.06042,-0.236424 -0.209291,-0.398426 -0.147055,-0.160033 -0.278794,-0.209838 -0.374653,-0.232029 -0.09586,-0.02217 -0.121441,-0.01395 -0.121441,-0.01395 a 0.38281766,0.38281766 0 0 1 -0.120922,-0.756026 c 0,0 0.04842,-0.0066 0.124542,-0.0072 z m -9.424749,0.06615 a 0.5492466,0.47247021 0 0 1 0.54932,0.472323 0.5492466,0.47247021 0 0 1 -0.54932,0.47284 0.5492466,0.47247021 0 0 1 -0.54932,-0.47284 0.5492466,0.47247021 0 0 1 0.54932,-0.472323 z"
       id="path1455"
       inkscape:connector-curvature="0" />
  </g>
</svg>
