<?xml version="1.0" encoding="UTF-8" standalone="no"?>
<!-- Created with Inkscape (http://www.inkscape.org/) -->

<svg
   width="210mm"
   height="297mm"
   viewBox="0 0 210 297"
   version="1.1"
   id="svg2735"
   inkscape:version="1.2.2 (b0a8486541, 2022-12-01)"
   sodipodi:docname="VR_tablet_buttons.svg"
   xmlns:inkscape="http://www.inkscape.org/namespaces/inkscape"
   xmlns:sodipodi="http://sodipodi.sourceforge.net/DTD/sodipodi-0.dtd"
   xmlns="http://www.w3.org/2000/svg"
   xmlns:svg="http://www.w3.org/2000/svg">
  <sodipodi:namedview
     id="namedview2737"
     pagecolor="#ffffff"
     bordercolor="#000000"
     borderopacity="0.25"
     inkscape:showpageshadow="2"
     inkscape:pageopacity="0.0"
     inkscape:pagecheckerboard="0"
     inkscape:deskcolor="#d1d1d1"
     inkscape:document-units="mm"
     showgrid="false"
     inkscape:zoom="1.4912879"
     inkscape:cx="1401.4732"
     inkscape:cy="584.39421"
     inkscape:window-width="1920"
     inkscape:window-height="1012"
     inkscape:window-x="0"
     inkscape:window-y="0"
     inkscape:window-maximized="1"
     inkscape:current-layer="layer1" />
  <defs
     id="defs2732">
    <filter
       height="1.1069949"
       y="-0.053497459"
       width="1.1366037"
       x="-0.06830185"
       id="filter1053"
       style="color-interpolation-filters:sRGB"
       inkscape:collect="always">
      <feGaussianBlur
         id="feGaussianBlur1055"
         stdDeviation="4.4581299"
         inkscape:collect="always" />
    </filter>
  </defs>
  <g
     inkscape:label="Layer 1"
     inkscape:groupmode="layer"
     id="layer1">
    <g
       id="g5090"
       inkscape:export-filename="../vr-care-up/Assets/Resources_moved/UI/tablet_prescription_button.png"
       inkscape:export-xdpi="218.59764"
       inkscape:export-ydpi="218.59764">
      <circle
         r="16.666708"
         cy="184.75481"
         cx="374.05643"
         id="circle5075"
         style="display:inline;fill:#3e5489;fill-opacity:1;stroke:#ffffff;stroke-width:1.52515;stroke-linecap:butt;stroke-linejoin:miter;stroke-miterlimit:4;stroke-dasharray:none;stroke-dashoffset:0;stroke-opacity:1" />
      <g
         transform="matrix(1.6468551,0,0,1.6468551,743.21758,213.28514)"
         id="g1428">
        <circle
           r="8.2289867"
           cy="-17.324125"
           cx="-224.16129"
           id="path2351"
           style="display:inline;vector-effect:none;fill:#ffffff;fill-opacity:1;stroke:none;stroke-width:0.133866;stroke-linecap:butt;stroke-linejoin:miter;stroke-miterlimit:4;stroke-dasharray:none;stroke-dashoffset:0;stroke-opacity:1" />
        <g
           id="g1421">
          <path
             id="rect892"
             d="m -227.60797,-21.243468 -0.4045,0.05433 c -0.44629,0.06 -0.75447,0.467179 -0.691,0.912987 l 1.01503,7.129329 c 0.013,0.0912 0.0411,0.176332 0.0805,0.254199 z"
             style="vector-effect:none;fill:#3e5489;fill-opacity:1;stroke:none;stroke-width:0.773725;stroke-linecap:round;stroke-linejoin:bevel;stroke-miterlimit:4;stroke-dasharray:none;stroke-dashoffset:0;stroke-opacity:1"
             inkscape:connector-curvature="0" />
          <path
             id="rect890"
             d="m -226.98989,-21.995516 c -0.48767,0 -0.88031,0.392643 -0.88031,0.880314 v 7.79876 c 0,0.487671 0.39264,0.880221 0.88031,0.880221 h 2.09016 c -0.2054,-0.574214 -0.0793,-1.242527 0.37902,-1.700789 l 3.08968,-3.089781 c 0.29075,-0.290748 0.66598,-0.447384 1.04816,-0.470963 v -3.417448 c 0,-0.487671 -0.39264,-0.880314 -0.88031,-0.880314 z m 0.67839,1.39534 h 4.36993 c 0.27425,0 0.49505,0.220705 0.49505,0.494955 0,0.274249 -0.2208,0.495048 -0.49505,0.495048 h -4.36993 c -0.27424,0 -0.49504,-0.220799 -0.49504,-0.495048 0,-0.27425 0.2208,-0.494955 0.49504,-0.494955 z m 0,1.710498 h 4.36993 c 0.27425,0 0.49505,0.220798 0.49505,0.495048 0,0.274249 -0.2208,0.494955 -0.49505,0.494955 h -4.36993 c -0.27424,0 -0.49504,-0.220706 -0.49504,-0.494955 0,-0.27425 0.2208,-0.495048 0.49504,-0.495048 z m 0,1.702189 h 2.38983 c 0.27884,0 0.50326,0.224515 0.50326,0.503356 0,0.278841 -0.22442,0.503264 -0.50326,0.503264 h -2.38983 c -0.27884,0 -0.50335,-0.224423 -0.50335,-0.503264 0,-0.278841 0.22451,-0.503356 0.50335,-0.503356 z"
             style="vector-effect:none;fill:#3e5489;fill-opacity:1;stroke:none;stroke-width:0.820023;stroke-linecap:round;stroke-linejoin:bevel;stroke-miterlimit:4;stroke-dasharray:none;stroke-dashoffset:0;stroke-opacity:1"
             inkscape:connector-curvature="0" />
          <path
             inkscape:connector-curvature="0"
             id="rect894"
             d="m -219.15016,-17.0375 c -0.55815,-0.558152 -1.46539,-0.558152 -2.02355,0 l -3.08954,3.08954 c -0.55815,0.558152 -0.55818,1.465426 -3e-5,2.023579 0.55815,0.558152 1.46546,0.558152 2.02361,0 l 3.08954,-3.089539 c 0.55816,-0.558152 0.55812,-1.465428 -3e-5,-2.02358 z m -0.27578,0.275779 c 0.41014,0.410138 0.41017,1.061885 3e-5,1.472022 l -1.28644,1.286441 -0.20978,-0.209779 c 0.93067,-0.860975 1.46575,-1.516341 1.2854,-2.712422 0.075,0.04435 0.14593,0.09888 0.21079,0.163738 z m -2.99988,1.527891 0.73623,0.73623 0.73579,0.735792 -1.56164,1.561648 c -0.41014,0.410137 -1.06192,0.410137 -1.47206,0 -0.41014,-0.410137 -0.4101,-1.061885 3e-5,-1.472022 z"
             style="color:#000000;font-style:normal;font-variant:normal;font-weight:normal;font-stretch:normal;font-size:medium;line-height:normal;font-family:sans-serif;font-variant-ligatures:normal;font-variant-position:normal;font-variant-caps:normal;font-variant-numeric:normal;font-variant-alternates:normal;font-feature-settings:normal;text-indent:0;text-align:start;text-decoration:none;text-decoration-line:none;text-decoration-style:solid;text-decoration-color:#000000;letter-spacing:normal;word-spacing:normal;text-transform:none;writing-mode:lr-tb;direction:ltr;text-orientation:mixed;dominant-baseline:auto;baseline-shift:baseline;text-anchor:start;white-space:normal;shape-padding:0;clip-rule:nonzero;display:inline;overflow:visible;visibility:visible;isolation:auto;mix-blend-mode:normal;color-interpolation:sRGB;color-interpolation-filters:linearRGB;solid-color:#000000;solid-opacity:1;vector-effect:none;fill:#3e5489;fill-opacity:1;fill-rule:nonzero;stroke:none;stroke-width:0.39002;stroke-linecap:round;stroke-linejoin:bevel;stroke-miterlimit:4;stroke-dasharray:none;stroke-dashoffset:0;stroke-opacity:1;color-rendering:auto;image-rendering:auto;shape-rendering:auto;text-rendering:auto;enable-background:accumulate" />
        </g>
      </g>
    </g>
    <g
       id="g5081"
       inkscape:export-filename="../vr-care-up/Assets/Resources_moved/UI/tablet_patient_button.png"
       inkscape:export-xdpi="218.59764"
       inkscape:export-ydpi="218.59764">
      <circle
         r="16.666708"
         cy="140.82834"
         cx="374.05643"
         id="circle3046"
         style="display:inline;fill:#3e5489;fill-opacity:1;stroke:#ffffff;stroke-width:1.52515;stroke-linecap:butt;stroke-linejoin:miter;stroke-miterlimit:4;stroke-dasharray:none;stroke-dashoffset:0;stroke-opacity:1" />
      <circle
         r="13.55197"
         cy="140.82834"
         cx="374.05643"
         id="path2351-8"
         style="display:inline;vector-effect:none;fill:#ffffff;fill-opacity:1;stroke:none;stroke-width:0.220458;stroke-linecap:butt;stroke-linejoin:miter;stroke-miterlimit:4;stroke-dasharray:none;stroke-dashoffset:0;stroke-opacity:1" />
      <path
         inkscape:connector-curvature="0"
         style="display:inline;opacity:0.25;vector-effect:none;fill:#000000;fill-opacity:1;stroke:none;stroke-width:17.1566;stroke-linecap:round;stroke-linejoin:bevel;stroke-miterlimit:4;stroke-dasharray:none;stroke-dashoffset:0;stroke-opacity:1;filter:url(#filter1053)"
         d="m 89.703125,50.619141 c -10.203077,0 -18.417969,8.214901 -18.417969,18.417968 v 91.664061 71.5 0.002 c 6.6e-5,0.63702 0.03311,1.26672 0.0957,1.88672 v 0.002 c 0.06266,0.61997 0.155195,1.23015 0.277344,1.83008 v 0.002 c 0.122211,0.5999 0.274456,1.18881 0.453125,1.76562 v 0.002 c 0.178729,0.5768 0.385032,1.14073 0.617188,1.6914 v 0.002 c 0.232214,0.55066 0.490826,1.08786 0.773437,1.60937 v 0.002 c 0.28267,0.52151 0.589887,1.02632 0.919922,1.51563 v 0.002 c 0.330095,0.48931 0.684163,0.96195 1.058594,1.41602 1.873954,2.27263 4.284336,4.08415 7.041015,5.24609 1.102477,0.46469 2.259846,0.82581 3.460938,1.07031 1.201092,0.2445 2.445318,0.37305 3.720703,0.37305 h 43.730468 76.08399 c 10.20307,0 18.41797,-8.2149 18.41797,-18.41797 v -91.66406 -71.500001 -0.002 c 0,-0.637035 -0.0332,-1.266718 -0.0957,-1.886718 v -0.002 c -0.0626,-0.619978 -0.15525,-1.230161 -0.27734,-1.830078 v -0.002 c -0.12215,-0.599897 -0.27455,-1.188822 -0.45312,-1.765625 v -0.002 c -0.17868,-0.576788 -0.38509,-1.140746 -0.61719,-1.691406 v -0.002 c -0.23217,-0.55065 -0.49088,-1.087888 -0.77344,-1.609375 v -0.002 c -0.28262,-0.521481 -0.58993,-1.026343 -0.91992,-1.515626 v -0.002 c -0.33006,-0.489279 -0.6842,-0.961971 -1.0586,-1.416015 v -0.002 c -0.37476,-0.454414 -0.77136,-0.88861 -1.1875,-1.304688 -1.66455,-1.664554 -3.64856,-3.009884 -5.85351,-3.939453 -1.10248,-0.464693 -2.25985,-0.825816 -3.46094,-1.070312 -1.20109,-0.244501 -2.44532,-0.373047 -3.7207,-0.373047 h -43.73047 z m 7.021484,15.759765 h 41.916011 c 5.73784,0 10.35743,4.619589 10.35743,10.357422 v 40.400392 c 0,5.73783 -4.61959,10.35742 -10.35743,10.35742 H 96.724609 c -5.737833,0 -10.357421,-4.61959 -10.357421,-10.35742 V 76.736328 c 0,-5.737833 4.619588,-10.357422 10.357421,-10.357422 z m 20.958981,9.533203 a 11.933812,11.933812 0 0 0 -11.93554,11.933594 11.933812,11.933812 0 0 0 11.93554,11.933594 11.933812,11.933812 0 0 0 11.9336,-11.933594 11.933812,11.933812 0 0 0 -11.9336,-11.933594 z m 47.85157,1.75586 h 40.4414 c 3.4625,0 6.25,2.7875 6.25,6.25 0,3.4625 -2.7875,6.25 -6.25,6.25 h -40.4414 c -3.4625,0 -6.25,-2.7875 -6.25,-6.25 0,-3.4625 2.7875,-6.25 6.25,-6.25 z m 0,21.429687 h 40.4414 c 3.4625,0 6.25,2.787504 6.25,6.250004 0,3.4625 -2.7875,6.25 -6.25,6.25 h -40.4414 c -3.4625,0 -6.25,-2.7875 -6.25,-6.25 0,-3.4625 2.7875,-6.250004 6.25,-6.250004 z m -47.85157,3.900394 a 20.45559,20.45559 0 0 0 -20.355465,18.43554 h 40.689455 a 20.45559,20.45559 0 0 0 -20.33399,-18.43554 z m 47.85157,17.52734 h 40.4414 c 3.4625,0 6.25,2.7875 6.25,6.25 0,3.4625 -2.7875,6.25 -6.25,6.25 h -40.4414 c -3.4625,0 -6.25,-2.7875 -6.25,-6.25 0,-3.4625 2.7875,-6.25 6.25,-6.25 z M 92.677734,141.95508 H 205.97656 c 3.4625,0 6.25,2.7875 6.25,6.25 0,3.4625 -2.7875,6.25 -6.25,6.25 H 92.677734 c -3.4625,0 -6.25,-2.7875 -6.25,-6.25 0,-3.4625 2.7875,-6.25 6.25,-6.25 z m 0,21.42773 H 205.97656 c 3.4625,0 6.25,2.7875 6.25,6.25 0,3.4625 -2.7875,6.25 -6.25,6.25 H 92.677734 c -3.4625,0 -6.25,-2.7875 -6.25,-6.25 0,-3.4625 2.7875,-6.25 6.25,-6.25 z m 0,21.42969 H 205.97656 c 3.4625,0 6.25,2.7875 6.25,6.25 0,3.4625 -2.7875,6.25 -6.25,6.25 H 92.677734 c -3.4625,0 -6.25,-2.7875 -6.25,-6.25 0,-3.4625 2.7875,-6.25 6.25,-6.25 z"
         transform="matrix(0.08160478,0,0,0.07927846,361.74953,128.88739)"
         id="path1043" />
      <path
         inkscape:connector-curvature="0"
         id="rect890-6-3"
         d="m 369.06973,132.9004 c -0.83262,0 -1.50299,0.65126 -1.50299,1.46015 v 7.26698 5.66841 2e-4 c 1e-5,0.0505 0.003,0.10042 0.008,0.14957 v 2e-4 c 0.005,0.0491 0.0127,0.0975 0.0226,0.14508 v 2e-4 c 0.01,0.0476 0.0224,0.0942 0.037,0.13997 v 2e-4 c 0.0146,0.0457 0.0314,0.0904 0.0504,0.13409 v 1.9e-4 c 0.019,0.0437 0.0401,0.0862 0.0631,0.12759 v 2e-4 c 0.0231,0.0413 0.0481,0.0814 0.0751,0.12015 v 2e-4 c 0.0269,0.0388 0.0558,0.0763 0.0864,0.11226 0.15292,0.18017 0.34962,0.32378 0.57458,0.4159 0.09,0.0368 0.18442,0.0655 0.28243,0.0848 0.098,0.0194 0.19955,0.0296 0.30363,0.0296 h 3.56861 6.20882 c 0.83262,0 1.50299,-0.65127 1.50299,-1.46015 v -7.26699 -5.66841 -1.5e-4 c 0,-0.0505 -0.003,-0.10043 -0.008,-0.14958 v -1.5e-4 c -0.005,-0.0492 -0.0127,-0.0975 -0.0226,-0.14509 v -1.6e-4 c -0.01,-0.0476 -0.0224,-0.0942 -0.037,-0.13997 v -1.6e-4 c -0.0146,-0.0457 -0.0314,-0.0904 -0.0504,-0.13409 v -1.5e-4 c -0.0189,-0.0437 -0.0401,-0.0863 -0.0631,-0.12759 v -1.6e-4 c -0.0231,-0.0413 -0.0481,-0.0814 -0.0751,-0.12016 v -1.5e-4 c -0.0269,-0.0388 -0.0558,-0.0763 -0.0864,-0.11226 v -1.6e-4 c -0.0306,-0.036 -0.063,-0.0704 -0.0969,-0.10343 -0.13584,-0.13196 -0.29774,-0.23862 -0.47768,-0.31231 -0.09,-0.0368 -0.18441,-0.0655 -0.28243,-0.0849 -0.098,-0.0194 -0.19955,-0.0296 -0.30362,-0.0296 h -3.56862 z m 0.57299,1.24941 h 3.42055 c 0.46823,0 0.84521,0.36623 0.84521,0.82112 v 3.20288 c 0,0.45489 -0.37698,0.82112 -0.84521,0.82112 h -3.42055 c -0.46823,0 -0.84521,-0.36623 -0.84521,-0.82112 v -3.20288 c 0,-0.45489 0.37698,-0.82112 0.84521,-0.82112 z m 1.71035,0.75578 a 0.97385597,0.9460942 0 0 0 -0.97399,0.94607 0.97385597,0.9460942 0 0 0 0.97399,0.94608 0.97385597,0.9460942 0 0 0 0.97384,-0.94608 0.97385597,0.9460942 0 0 0 -0.97384,-0.94607 z m 3.90492,0.1392 h 3.30021 c 0.28256,0 0.51003,0.22099 0.51003,0.49549 0,0.2745 -0.22747,0.49549 -0.51003,0.49549 h -3.30021 c -0.28256,0 -0.51003,-0.22099 -0.51003,-0.49549 0,-0.2745 0.22747,-0.49549 0.51003,-0.49549 z m 0,1.69891 h 3.30021 c 0.28256,0 0.51003,0.22099 0.51003,0.49549 0,0.2745 -0.22747,0.49549 -0.51003,0.49549 h -3.30021 c -0.28256,0 -0.51003,-0.22099 -0.51003,-0.49549 0,-0.2745 0.22747,-0.49549 0.51003,-0.49549 z m -3.90492,0.30922 a 1.6692738,1.6216877 0 0 0 -1.6611,1.46154 h 3.32045 a 1.6692738,1.6216877 0 0 0 -1.65935,-1.46154 z m 3.90492,1.38954 h 3.30021 c 0.28256,0 0.51003,0.22099 0.51003,0.49549 0,0.2745 -0.22747,0.49549 -0.51003,0.49549 h -3.30021 c -0.28256,0 -0.51003,-0.22099 -0.51003,-0.49549 0,-0.2745 0.22747,-0.49549 0.51003,-0.49549 z m -5.94551,1.69891 h 9.24572 c 0.28256,0 0.51003,0.22099 0.51003,0.49549 0,0.2745 -0.22747,0.49549 -0.51003,0.49549 h -9.24572 c -0.28256,0 -0.51003,-0.22099 -0.51003,-0.49549 0,-0.2745 0.22747,-0.49549 0.51003,-0.49549 z m 0,1.69876 h 9.24572 c 0.28256,0 0.51003,0.22099 0.51003,0.49549 0,0.2745 -0.22747,0.49549 -0.51003,0.49549 h -9.24572 c -0.28256,0 -0.51003,-0.22099 -0.51003,-0.49549 0,-0.2745 0.22747,-0.49549 0.51003,-0.49549 z m 0,1.69891 h 9.24572 c 0.28256,0 0.51003,0.22099 0.51003,0.49549 0,0.2745 -0.22747,0.49549 -0.51003,0.49549 h -9.24572 c -0.28256,0 -0.51003,-0.22099 -0.51003,-0.49549 0,-0.2745 0.22747,-0.49549 0.51003,-0.49549 z"
         style="display:inline;vector-effect:none;fill:#3e5489;fill-opacity:1;stroke:none;stroke-width:1.37996;stroke-linecap:round;stroke-linejoin:bevel;stroke-miterlimit:4;stroke-dasharray:none;stroke-dashoffset:0;stroke-opacity:1" />
    </g>
  </g>
</svg>
