<?xml version="1.0" encoding="UTF-8" standalone="no"?>
<!-- Created with Inkscape (http://www.inkscape.org/) -->

<svg
   xmlns:dc="http://purl.org/dc/elements/1.1/"
   xmlns:cc="http://creativecommons.org/ns#"
   xmlns:rdf="http://www.w3.org/1999/02/22-rdf-syntax-ns#"
   xmlns:svg="http://www.w3.org/2000/svg"
   xmlns="http://www.w3.org/2000/svg"
   xmlns:xlink="http://www.w3.org/1999/xlink"
   xmlns:sodipodi="http://sodipodi.sourceforge.net/DTD/sodipodi-0.dtd"
   xmlns:inkscape="http://www.inkscape.org/namespaces/inkscape"
   width="230.362mm"
   height="147.3577mm"
   viewBox="0 0 230.362 147.3577"
   version="1.1"
   id="svg8"
   inkscape:version="0.92.3 (unknown)"
   sodipodi:docname="id.svg"
   inkscape:export-filename="/home/vit/ProjectG70/care-up/blend/woman/w1/id.png"
   inkscape:export-xdpi="44.1045"
   inkscape:export-ydpi="44.1045">
  <defs
     id="defs2">
    <clipPath
       clipPathUnits="userSpaceOnUse"
       id="clipPath1064">
      <rect
         style="opacity:0.697;vector-effect:none;fill:#892d2d;fill-opacity:0.97619042;stroke:none;stroke-width:0.96458334;stroke-linecap:round;stroke-linejoin:bevel;stroke-miterlimit:4;stroke-dasharray:none;stroke-dashoffset:0;stroke-opacity:1"
         id="rect1066"
         width="82.096764"
         height="89.969055"
         x="-82.539589"
         y="108.10584"
         ry="7.0086179" />
    </clipPath>
  </defs>
  <sodipodi:namedview
     id="base"
     pagecolor="#5d5d5d"
     bordercolor="#666666"
     borderopacity="1.0"
     inkscape:pageopacity="0"
     inkscape:pageshadow="2"
     inkscape:zoom="0.70710678"
     inkscape:cx="457.39509"
     inkscape:cy="270.24473"
     inkscape:document-units="mm"
     inkscape:current-layer="layer1"
     showgrid="false"
     inkscape:window-width="1920"
     inkscape:window-height="1055"
     inkscape:window-x="0"
     inkscape:window-y="0"
     inkscape:window-maximized="1"
     showguides="false"
     inkscape:snap-global="true"
     fit-margin-top="0"
     fit-margin-left="0"
     fit-margin-right="0"
     fit-margin-bottom="0" />
  <metadata
     id="metadata5">
    <rdf:RDF>
      <cc:Work
         rdf:about="">
        <dc:format>image/svg+xml</dc:format>
        <dc:type
           rdf:resource="http://purl.org/dc/dcmitype/StillImage" />
        <dc:title></dc:title>
      </cc:Work>
    </rdf:RDF>
  </metadata>
  <g
     inkscape:label="Layer 1"
     inkscape:groupmode="layer"
     id="layer1"
     transform="translate(223.42224,-60.38554)">
    <rect
       style="opacity:1;vector-effect:none;fill:#eafaff;fill-opacity:1;stroke:none;stroke-width:1.90340722;stroke-linecap:round;stroke-linejoin:bevel;stroke-miterlimit:4;stroke-dasharray:none;stroke-dashoffset:0;stroke-opacity:1"
       id="rect959"
       width="230.36154"
       height="147.3577"
       x="-223.42201"
       y="60.38554"
       ry="8.6006279" />
    <text
       xml:space="preserve"
       style="font-style:normal;font-weight:normal;font-size:14.5275898px;line-height:3.78322649px;font-family:sans-serif;text-align:center;letter-spacing:0px;word-spacing:0px;text-anchor:middle;fill:#000000;fill-opacity:1;stroke:none;stroke-width:0.15132906px;stroke-linecap:butt;stroke-linejoin:miter;stroke-opacity:1"
       x="-172.82509"
       y="111.58279"
       id="text828"
       transform="scale(0.90523871,1.104681)"><tspan
         sodipodi:role="line"
         id="tspan826"
         x="-172.82509"
         y="111.58279"
         style="font-weight:bold;stroke-width:0.15132906px">Dr. Maria Smith</tspan></text>
    <rect
       style="opacity:1;vector-effect:none;fill:#0098ca;fill-opacity:1;stroke:none;stroke-width:1.12627316;stroke-linecap:round;stroke-linejoin:bevel;stroke-miterlimit:4;stroke-dasharray:none;stroke-dashoffset:0;stroke-opacity:1"
       id="rect830"
       width="230.362"
       height="29.860117"
       x="-223.42224"
       y="72.594444" />
    <g
       id="g1060"
       transform="translate(0,0.86571121)">
      <path
         id="rect832"
         transform="scale(0.26458333)"
         d="m -712.1582,277.02148 v 29.73047 l -25.7461,-14.86523 -11.99609,20.77734 25.74609,14.86524 -25.74609,14.86523 11.99609,20.77735 25.7461,-14.86524 v 29.73047 h 23.99218 v -29.73047 l 25.74805,14.86524 11.99414,-20.77735 -25.74609,-14.86523 25.74609,-14.86524 -11.99414,-20.77734 -25.74805,14.86523 v -29.73047 z"
         style="opacity:1;vector-effect:none;fill:#38cfff;fill-opacity:1;stroke:none;stroke-width:3.7341733;stroke-linecap:round;stroke-linejoin:bevel;stroke-miterlimit:4;stroke-dasharray:none;stroke-dashoffset:0;stroke-opacity:1"
         inkscape:connector-curvature="0" />
      <g
         style="opacity:0.697"
         transform="matrix(1.0295586,0,0,1.0295586,5.9082569,-2.5640133)"
         id="g1054">
        <path
           style="color:#000000;font-style:normal;font-variant:normal;font-weight:normal;font-stretch:normal;font-size:medium;line-height:normal;font-family:sans-serif;font-variant-ligatures:normal;font-variant-position:normal;font-variant-caps:normal;font-variant-numeric:normal;font-variant-alternates:normal;font-feature-settings:normal;text-indent:0;text-align:start;text-decoration:none;text-decoration-line:none;text-decoration-style:solid;text-decoration-color:#000000;letter-spacing:normal;word-spacing:normal;text-transform:none;writing-mode:lr-tb;direction:ltr;text-orientation:mixed;dominant-baseline:auto;baseline-shift:baseline;text-anchor:start;white-space:normal;shape-padding:0;clip-rule:nonzero;display:inline;overflow:visible;visibility:visible;opacity:1;isolation:auto;mix-blend-mode:normal;color-interpolation:sRGB;color-interpolation-filters:linearRGB;solid-color:#000000;solid-opacity:1;vector-effect:none;fill:#892d2d;fill-opacity:0.97619042;fill-rule:evenodd;stroke:none;stroke-width:0.99999994px;stroke-linecap:butt;stroke-linejoin:miter;stroke-miterlimit:4;stroke-dasharray:none;stroke-dashoffset:0;stroke-opacity:1;color-rendering:auto;image-rendering:auto;shape-rendering:auto;text-rendering:auto;enable-background:accumulate"
           d="m -185.33959,75.669798 c -0.41762,0.03675 -0.85369,0.405725 -0.85369,1.033528 l 0.0408,1.019578 c 0.43471,0.01945 0.89999,0.11594 1.35186,0.353467 0.003,0.0024 0.005,0.0051 0.008,0.0078 5.3e-4,2.49e-4 0.002,-2.48e-4 0.002,0 0.005,0.0034 0.0106,0.0072 0.0155,0.01138 l 0.002,0.0021 c 5.3e-4,7.94e-4 0.001,0.0013 0.002,0.0021 0.001,7.94e-4 0.003,5.29e-4 0.004,0.0021 0.002,0.0019 0.004,0.0037 0.006,0.0057 2.4e-4,2.65e-4 -1.6e-4,0.0019 0,0.0021 7.9e-4,7.93e-4 0.001,0.0013 0.002,0.0021 0.002,0.0024 0.003,0.0047 0.004,0.0057 2.6e-4,5.29e-4 0.002,0.0021 0.002,0.0021 0.0882,0.06531 0.15721,0.154847 0.17415,0.269232 0.002,0.0105 8e-4,0.02024 0.002,0.03049 l 0.0687,-1.717725 c -5.3e-4,-0.403548 -0.11369,-0.668832 -0.26768,-0.828373 -0.1543,-0.159843 -0.35342,-0.221465 -0.56224,-0.203089 z m 0.76119,2.749187 -0.005,0.117306 c 0.006,-0.0368 0.008,-0.07608 0.005,-0.117306 z m -0.005,0.117306 c -0.01,0.05705 -0.0268,0.108852 -0.046,0.152961 -0.18434,0.422278 -0.65697,0.804167 -1.14257,1.099674 -0.0971,0.05909 -0.19378,0.108363 -0.29094,0.156581 l 0.2558,6.433198 c 0.1244,-0.03362 0.24954,-0.06835 0.36949,-0.101285 0.20844,-0.05723 0.54898,-0.02722 0.55655,-0.210839 0.0363,-0.879578 0.0504,-1.339998 0.0804,-2.090555 z m -0.36432,9.14156 c -0.26446,0.08635 -0.52854,0.168146 -0.76533,0.269235 -0.0119,0.0105 -0.0223,0.02117 -0.0315,0.03152 l 0.14831,3.736205 c 0.18919,-0.08315 0.38615,-0.162246 0.49816,-0.240295 z m -0.21652,5.464784 c -0.11426,0.05993 -0.22113,0.129447 -0.31833,0.205155 l 0.0837,3.212722 c 0.0368,-0.01315 0.0684,-0.02477 0.0997,-0.03721 z"
           id="path1043"
           inkscape:connector-curvature="0"
           sodipodi:nodetypes="cccccccccccccccccccccccccccccsccccccccccccc" />
        <path
           style="color:#000000;font-style:normal;font-variant:normal;font-weight:normal;font-stretch:normal;font-size:medium;line-height:normal;font-family:sans-serif;font-variant-ligatures:normal;font-variant-position:normal;font-variant-caps:normal;font-variant-numeric:normal;font-variant-alternates:normal;font-feature-settings:normal;text-indent:0;text-align:start;text-decoration:none;text-decoration-line:none;text-decoration-style:solid;text-decoration-color:#000000;letter-spacing:normal;word-spacing:normal;text-transform:none;writing-mode:lr-tb;direction:ltr;text-orientation:mixed;dominant-baseline:auto;baseline-shift:baseline;text-anchor:start;white-space:normal;shape-padding:0;clip-rule:nonzero;display:inline;overflow:visible;visibility:visible;opacity:1;isolation:auto;mix-blend-mode:normal;color-interpolation:sRGB;color-interpolation-filters:linearRGB;solid-color:#000000;solid-opacity:1;vector-effect:none;fill:#892d2d;fill-opacity:1;fill-rule:evenodd;stroke:none;stroke-width:0.26458332px;stroke-linecap:butt;stroke-linejoin:miter;stroke-miterlimit:4;stroke-dasharray:none;stroke-dashoffset:0;stroke-opacity:1;color-rendering:auto;image-rendering:auto;shape-rendering:auto;text-rendering:auto;enable-background:accumulate"
           d="m -186.3695,77.983352 c -0.98833,0.02569 -1.71438,0.584255 -1.39785,1.182875 -0.93127,1.71695 -0.0249,3.251179 1.32034,4.140316 0.56092,0.368628 1.15146,0.666388 1.52342,1.054714 0.5251,0.548203 1.03473,1.255967 0.48731,1.750798 -0.50188,0.453665 -1.34079,0.458126 -1.88775,0.743625 -0.87589,0.602334 -0.92848,1.552152 -0.2775,2.306317 0.85883,1.075566 1.94079,0.903068 2.00143,1.797825 0.0505,0.744953 -0.55959,0.850509 -1.07219,1.100696 -0.99991,0.553236 -1.13973,1.435121 -0.16885,2.466888 0.30723,0.373187 0.75305,0.937911 0.84608,1.156028 0.35207,0.825473 0.28913,0.938969 -0.3466,1.15665 -0.66534,0.227817 -0.62586,0.606909 -0.16226,0.966348 0.10445,0.06031 0.36726,-0.09304 0.11937,-0.236162 -0.24313,-0.190452 -0.081,-0.39657 0.12868,-0.420645 1.17512,-0.134935 1.13126,-1.079764 0.82427,-1.723752 -0.2704,-0.507879 -0.69128,-0.933313 -1.08679,-1.368566 -0.32638,-0.544374 -0.28503,-0.909457 0.1646,-1.123352 1.03933,-0.494429 1.62093,-1.019622 1.69162,-1.824789 0.0362,-0.411945 -0.1852,-0.867743 -0.46457,-1.150318 -0.54876,-0.558765 -1.24175,-0.869442 -1.74977,-1.435571 -0.3042,-0.365199 -0.25858,-0.607578 0.008,-0.816488 0.66077,-0.291735 1.42231,-0.419433 1.96887,-0.796848 1.19413,-0.824595 0.92786,-2.236923 -0.37311,-3.261302 -0.52502,-0.413398 -1.12187,-0.803339 -1.64434,-1.146699 -1.13786,-0.666049 -1.56549,-1.826215 -1.11363,-2.679941 0.37753,0.334251 1.88287,-0.641157 2.14664,-1.245401 0.0485,-0.111078 0.0439,-0.198549 -0.0481,-0.251664 -0.48439,-0.254619 -0.98788,-0.353264 -1.43712,-0.341582 z"
           id="path878"
           inkscape:connector-curvature="0"
           sodipodi:nodetypes="cccccccsccsccccccsscccscccccc" />
      </g>
    </g>
    <text
       transform="scale(0.90523871,1.104681)"
       id="text942"
       y="84.770699"
       x="-142.56133"
       style="font-style:normal;font-weight:normal;font-size:16.37671471px;line-height:4.26476955px;font-family:sans-serif;text-align:center;letter-spacing:0px;word-spacing:0px;text-anchor:middle;fill:#ffffff;fill-opacity:1;stroke:none;stroke-width:0.17059077px;stroke-linecap:butt;stroke-linejoin:miter;stroke-opacity:1"
       xml:space="preserve"><tspan
         style="font-weight:bold;fill:#ffffff;stroke-width:0.17059077px"
         y="84.770699"
         x="-142.56133"
         id="tspan940"
         sodipodi:role="line">Care-Up</tspan></text>
    <text
       xml:space="preserve"
       style="font-style:normal;font-weight:normal;font-size:16.37671471px;line-height:4.26476955px;font-family:sans-serif;text-align:center;letter-spacing:0px;word-spacing:0px;text-anchor:middle;fill:#ffffff;fill-opacity:1;stroke:none;stroke-width:0.17059077px;stroke-linecap:butt;stroke-linejoin:miter;stroke-opacity:1"
       x="-61.672108"
       y="84.770699"
       id="text946"
       transform="scale(0.90523871,1.104681)"><tspan
         sodipodi:role="line"
         id="tspan944"
         x="-61.672108"
         y="84.770699"
         style="font-weight:bold;fill:#ffffff;stroke-width:0.17059077px">Hospital</tspan></text>
    <image
       sodipodi:absref="/home/vit/ProjectG70/care-up/blend/woman/w1/face.png"
       xlink:href="face.png"
       clip-path="url(#clipPath1064)"
       width="82.096764"
       height="89.969055"
       preserveAspectRatio="none"
       id="image956"
       x="-82.539589"
       y="108.10584" />
    <g
       id="g1021"
       transform="translate(0.6439034,12.921891)">
      <text
         transform="scale(0.9445484,1.058707)"
         id="text905"
         y="133.63124"
         x="-149.67831"
         style="font-style:normal;font-weight:normal;font-size:8.56382847px;line-height:2.23016357px;font-family:sans-serif;text-align:center;letter-spacing:0px;word-spacing:0px;text-anchor:middle;fill:#000000;fill-opacity:1;stroke:none;stroke-width:0.08920655px;stroke-linecap:butt;stroke-linejoin:miter;stroke-opacity:1"
         xml:space="preserve"><tspan
           style="font-weight:bold;stroke-width:0.08920655px"
           y="133.63124"
           x="-149.67831"
           id="tspan903"
           sodipodi:role="line">ID: 12345</tspan></text>
      <g
         transform="matrix(0.96172275,0,0,0.96172275,-4.8339123,6.3603406)"
         id="g1011">
        <text
           transform="scale(0.9445484,1.058707)"
           id="text909"
           y="142.16113"
           x="-151.63963"
           style="font-style:normal;font-weight:normal;font-size:8.39683247px;line-height:2.18667507px;font-family:sans-serif;text-align:center;letter-spacing:0px;word-spacing:0px;text-anchor:middle;fill:#000000;fill-opacity:1;stroke:none;stroke-width:0.087467px;stroke-linecap:butt;stroke-linejoin:miter;stroke-opacity:1"
           xml:space="preserve"><tspan
             style="font-weight:normal;stroke-width:0.087467px"
             y="142.16113"
             x="-151.63963"
             id="tspan907"
             sodipodi:role="line">Expiration:</tspan></text>
        <text
           xml:space="preserve"
           style="font-style:normal;font-weight:normal;font-size:8.58799839px;line-height:2.23645782px;font-family:sans-serif;text-align:center;letter-spacing:0px;word-spacing:0px;text-anchor:middle;fill:#000000;fill-opacity:1;stroke:none;stroke-width:0.08945831px;stroke-linecap:butt;stroke-linejoin:miter;stroke-opacity:1"
           x="-102.19745"
           y="142.30322"
           id="text919"
           transform="scale(0.9445484,1.058707)"><tspan
             sodipodi:role="line"
             id="tspan917"
             x="-102.19745"
             y="142.30322"
             style="font-weight:normal;stroke-width:0.08945831px">32/13/2099</tspan></text>
      </g>
      <path
         inkscape:connector-curvature="0"
         id="path991"
         d="m -211.93286,173.46116 v -7.73592 h 7.73593 7.73592 v 7.73592 7.73593 h -7.73592 -7.73593 z m 13.26159,0 v -5.52566 h -5.52566 -5.52567 v 5.52566 5.52567 h 5.52567 5.52566 z m -8.84106,0 v -3.3154 h 3.3154 3.3154 v 3.3154 3.3154 h -3.3154 -3.3154 z m 13.2616,5.52567 v -2.21027 h 1.10512 1.10514 v 2.21027 2.21026 h -1.10514 -1.10512 z m 4.42052,-1.10514 v -3.31539 h -2.21026 -2.21026 v -1.10514 c 0,-0.98235 0.1228,-1.10513 1.10512,-1.10513 h 1.10514 v -2.21027 -2.21026 h -1.10514 -1.10512 v -2.21026 -2.21027 h -2.21028 -2.21026 v -1.10513 c 0,-0.98235 -0.1228,-1.10514 -1.10513,-1.10514 -0.98235,0 -1.10513,0.1228 -1.10513,1.10514 v 1.10513 h -2.21027 -2.21026 v -1.10513 c 0,-0.98235 -0.1228,-1.10514 -1.10514,-1.10514 -0.98235,0 -1.10513,0.1228 -1.10513,1.10514 0,0.98235 -0.12279,1.10513 -1.10513,1.10513 h -1.10514 v -2.21027 -2.21026 h 1.10514 1.10513 v -2.21027 -2.21026 h -1.10513 c -0.98235,0 -1.10514,0.1228 -1.10514,1.10513 0,0.98233 -0.1228,1.10513 -1.10512,1.10513 h -1.10514 v -2.21026 -2.21026 h 2.21026 2.21027 v 1.10512 c 0,0.98234 0.1228,1.10514 1.10513,1.10514 0.98235,0 1.10514,-0.1228 1.10514,-1.10514 0,-0.98235 0.12279,-1.10512 1.10513,-1.10512 0.98235,0 1.10513,0.12279 1.10513,1.10512 v 1.10514 h 2.21027 2.21026 v -1.10514 -1.10512 h 2.21026 2.21028 v -4.42054 -4.42053 h 1.10512 c 0.98234,0 1.10514,-0.1228 1.10514,-1.10513 0,-0.98235 -0.1228,-1.10513 -1.10514,-1.10513 h -1.10512 v -2.21027 -2.21027 h 1.10512 c 0.98234,0 1.10514,-0.1228 1.10514,-1.10512 0,-0.98235 0.1228,-1.10514 1.10513,-1.10514 h 1.10513 v 4.42053 4.42053 h -1.10513 -1.10513 v 3.3154 3.31539 h 1.10513 c 0.98233,0 1.10513,-0.12279 1.10513,-1.10512 0,-0.98235 0.1228,-1.10514 1.10514,-1.10514 0.98232,0 1.10513,-0.1228 1.10513,-1.10513 0,-0.98235 0.1228,-1.10513 1.10513,-1.10513 0.98234,0 1.10513,-0.1228 1.10513,-1.10514 0,-0.98234 -0.12279,-1.10513 -1.10513,-1.10513 -0.98235,0 -1.10513,-0.1228 -1.10513,-1.10513 0,-0.98235 0.1228,-1.10513 1.10513,-1.10513 0.98234,0 1.10513,-0.1228 1.10513,-1.10514 0,-0.98234 -0.12279,-1.10513 -1.10513,-1.10513 h -1.10513 v -2.21027 -2.21026 h 2.21026 2.21027 v 1.10514 c 0,0.98234 -0.1228,1.10512 -1.10513,1.10512 -0.98235,0 -1.10514,0.12281 -1.10514,1.10514 0,0.98235 0.1228,1.10513 1.10514,1.10513 0.98235,0 1.10513,0.1228 1.10513,1.10513 0,0.98235 -0.1228,1.10514 -1.10513,1.10514 -0.98235,0 -1.10514,0.12279 -1.10514,1.10513 0,0.98235 0.1228,1.10513 1.10514,1.10513 h 1.10513 v 4.42053 4.42054 h -2.21027 -2.21026 v 1.10512 1.10514 h -2.21027 -2.21026 v -1.10514 c 0,-0.98235 -0.1228,-1.10512 -1.10514,-1.10512 h -1.10512 v 2.21026 2.21026 h 2.21026 2.21026 v 1.10514 1.10513 h 2.21027 2.21026 v -1.10513 -1.10514 h 2.21027 2.21027 v -2.21026 -2.21026 h 3.3154 3.3154 v 1.10512 c 0,0.98234 0.12279,1.10514 1.10512,1.10514 0.98234,0 1.10514,-0.1228 1.10514,-1.10514 v -1.10512 h 2.21026 2.21027 v 1.10512 c 0,0.98234 0.1228,1.10514 1.10513,1.10514 h 1.10513 v 3.3154 3.31539 h -1.10513 c -0.98235,0 -1.10513,0.1228 -1.10513,1.10514 0,0.98235 0.1228,1.10513 1.10513,1.10513 0.98233,0 1.10513,0.12281 1.10513,1.10513 0,0.98235 -0.1228,1.10514 -1.10513,1.10514 -0.98235,0 -1.10513,0.1228 -1.10513,1.10512 0,0.98235 0.1228,1.10514 1.10513,1.10514 h 1.10513 v 4.42053 4.42053 h -1.10513 c -0.98235,0 -1.10513,-0.1228 -1.10513,-1.10513 v -1.10513 h -3.3154 -3.31539 v 2.21026 2.21027 h 1.10512 c 0.98234,0 1.10514,-0.1228 1.10514,-1.10514 0,-0.98234 0.1228,-1.10513 1.10513,-1.10513 0.98233,0 1.10513,0.1228 1.10513,1.10513 0,0.98234 0.1228,1.10514 1.10514,1.10514 0.98232,0 1.10513,0.1228 1.10513,1.10513 v 1.10513 h -4.42053 -4.42054 v -3.3154 -3.31539 h 1.10514 c 0.98233,0 1.10514,-0.1228 1.10514,-1.10514 v -1.10513 h -3.3154 -3.3154 v -1.10513 -1.10514 h -2.21027 -2.21027 v 2.21027 2.21027 h 1.10514 c 0.98235,0 1.10513,0.1228 1.10513,1.10513 v 1.10513 h 2.21027 2.21026 v 1.10513 1.10514 h -2.21026 -2.21027 v 1.10513 1.10513 h -3.3154 -3.3154 z m 6.6308,0 c 0,-0.98234 -0.1228,-1.10513 -1.10513,-1.10513 -0.98235,0 -1.10514,-0.1228 -1.10514,-1.10513 0,-0.98235 -0.12279,-1.10513 -1.10513,-1.10513 h -1.10513 v 2.21026 2.21027 h 2.21026 2.21027 z m 11.05133,-6.63079 v -1.10514 h 2.21026 2.21027 v -1.10512 c 0,-0.98235 -0.12281,-1.10514 -1.10513,-1.10514 -0.98235,0 -1.10514,-0.1228 -1.10514,-1.10514 0,-0.98234 0.1228,-1.10512 1.10514,-1.10512 0.98232,0 1.10513,-0.1228 1.10513,-1.10514 0,-0.98235 -0.12281,-1.10513 -1.10513,-1.10513 -0.98235,0 -1.10514,-0.1228 -1.10514,-1.10513 0,-0.98235 0.1228,-1.10514 1.10514,-1.10514 h 1.10513 v -2.21026 -2.21027 h -2.21027 -2.21026 v 3.3154 3.3154 h -1.10514 c -0.98235,0 -1.10512,0.12281 -1.10512,1.10513 0,0.98235 -0.12281,1.10514 -1.10514,1.10514 -0.98235,0 -1.10514,0.1228 -1.10514,1.10512 0,0.98235 0.1228,1.10514 1.10514,1.10514 0.98233,0 1.10514,-0.1228 1.10514,-1.10514 0,-0.98234 0.12279,-1.10512 1.10512,-1.10512 h 1.10514 v 2.21026 2.21026 h -1.10514 c -0.98235,0 -1.10512,0.1228 -1.10512,1.10514 0,0.98234 0.12279,1.10513 1.10512,1.10513 0.98234,0 1.10514,-0.12279 1.10514,-1.10513 z m -6.6308,-4.42054 v -3.31539 h 1.10514 c 0.98234,0 1.10512,-0.1228 1.10512,-1.10513 0,-0.98235 0.1228,-1.10514 1.10514,-1.10514 h 1.10514 v -3.31539 -3.3154 h -2.21028 -2.21026 v 1.10513 c 0,0.98233 -0.1228,1.10513 -1.10514,1.10513 -0.98234,0 -1.10512,0.12281 -1.10512,1.10514 v 1.10513 h -2.21027 -2.21027 v 1.10513 c 0,0.98234 -0.12279,1.10513 -1.10513,1.10513 -0.98235,0 -1.10513,0.1228 -1.10513,1.10514 0,0.98235 0.1228,1.10513 1.10513,1.10513 0.98234,0 1.10513,0.12281 1.10513,1.10513 0,0.98235 -0.12279,1.10514 -1.10513,1.10514 -0.98235,0 -1.10513,0.1228 -1.10513,1.10512 v 1.10514 h 2.21026 2.21027 v -1.10514 c 0,-0.98234 0.1228,-1.10512 1.10513,-1.10512 h 1.10514 v 2.21026 2.21026 h 1.10512 1.10514 z m -6.6308,-4.42052 c 0,-0.98235 0.1228,-1.10514 1.10514,-1.10514 0.98235,0 1.10513,0.1228 1.10513,1.10514 0,0.98235 -0.1228,1.10513 -1.10513,1.10513 -0.98235,0 -1.10514,-0.1228 -1.10514,-1.10513 z m 4.42054,0 c 0,-0.98235 0.1228,-1.10514 1.10512,-1.10514 0.98235,0 1.10514,0.1228 1.10514,1.10514 0,0.98235 -0.1228,1.10513 -1.10514,1.10513 -0.98234,0 -1.10512,-0.1228 -1.10512,-1.10513 z m -8.84107,2.21026 c 0,-0.98235 -0.1228,-1.10513 -1.10513,-1.10513 -0.98234,0 -1.10513,0.12281 -1.10513,1.10513 0,0.98235 0.1228,1.10514 1.10513,1.10514 0.98233,0 1.10513,-0.1228 1.10513,-1.10514 z m -11.05132,-4.42053 c 0,-0.98235 0.1228,-1.10513 1.10513,-1.10513 0.98233,0 1.10513,0.1228 1.10513,1.10513 v 1.10513 h 4.42054 4.42052 v -1.10513 -1.10513 h -4.42052 -4.42054 v -1.10513 c 0,-0.98235 0.1228,-1.10514 1.10514,-1.10514 0.98233,0 1.10512,-0.1228 1.10512,-1.10513 0,-0.98234 -0.12279,-1.10513 -1.10512,-1.10513 -0.98235,0 -1.10514,0.1228 -1.10514,1.10513 v 1.10513 h -2.21026 -2.21027 v -1.10513 c 0,-0.98234 -0.1228,-1.10513 -1.10513,-1.10513 h -1.10513 v 2.21026 2.21027 h 1.10513 c 0.98235,0 1.10513,0.1228 1.10513,1.10513 0,0.98234 0.1228,1.10513 1.10513,1.10513 0.98235,0 1.10514,-0.12279 1.10514,-1.10513 z m 15.47185,-11.05132 c 0,-0.98235 -0.12279,-1.10514 -1.10513,-1.10514 -0.98235,0 -1.10513,0.1228 -1.10513,1.10514 0,0.98233 0.1228,1.10512 1.10513,1.10512 0.98234,0 1.10513,-0.12279 1.10513,-1.10512 z m -26.52318,-6.6308 v -7.73593 h 7.73593 7.73592 v 7.73593 7.73592 h -7.73592 -7.73593 z m 13.26159,0 v -5.52567 h -5.52566 -5.52567 v 5.52567 5.52566 h 5.52567 5.52566 z m -8.84106,0 v -3.3154 h 3.3154 3.3154 v 3.3154 3.3154 h -3.3154 -3.3154 z m 26.52319,0 v -7.73593 h 7.73592 7.73593 v 7.73593 7.73592 h -7.73593 -7.73592 z m 13.26159,0 v -5.52567 h -5.52567 -5.52566 v 5.52567 5.52566 h 5.52566 5.52567 z m -8.84107,0 v -3.3154 h 3.3154 3.3154 v 3.3154 3.3154 h -3.3154 -3.3154 z"
         style="fill:#000000;stroke-width:0.36837754" />
    </g>
  </g>
</svg>
