<?xml version="1.0" encoding="UTF-8" standalone="no"?>
<!-- Created with Inkscape (http://www.inkscape.org/) -->

<svg
   width="135.46667mm"
   height="135.46667mm"
   viewBox="0 0 135.46668 135.46668"
   version="1.1"
   id="svg8434"
   inkscape:version="1.2.1 (9c6d41e410, 2022-07-14)"
   sodipodi:docname="care_up_logo2022.svg"
   inkscape:export-filename="..\..\care-up\Assets\WebGLTemplates\Better2020\thumbnai2l.png"
   inkscape:export-xdpi="47.999996"
   inkscape:export-ydpi="47.999996"
   xmlns:inkscape="http://www.inkscape.org/namespaces/inkscape"
   xmlns:sodipodi="http://sodipodi.sourceforge.net/DTD/sodipodi-0.dtd"
   xmlns="http://www.w3.org/2000/svg"
   xmlns:svg="http://www.w3.org/2000/svg">
  <sodipodi:namedview
     id="namedview8436"
     pagecolor="#505050"
     bordercolor="#eeeeee"
     borderopacity="1"
     inkscape:pageshadow="0"
     inkscape:pageopacity="0"
     inkscape:pagecheckerboard="0"
     inkscape:document-units="mm"
     showgrid="false"
     inkscape:snap-bbox="true"
     inkscape:bbox-nodes="true"
     inkscape:bbox-paths="true"
     inkscape:snap-bbox-edge-midpoints="true"
     inkscape:snap-bbox-midpoints="true"
     inkscape:snap-smooth-nodes="true"
     inkscape:snap-midpoints="true"
     inkscape:object-paths="true"
     inkscape:snap-intersection-paths="true"
     inkscape:snap-object-midpoints="true"
     inkscape:snap-center="true"
     inkscape:snap-text-baseline="true"
     inkscape:zoom="0.62740848"
     inkscape:cx="208.79539"
     inkscape:cy="158.58887"
     inkscape:window-width="1920"
     inkscape:window-height="1017"
     inkscape:window-x="-8"
     inkscape:window-y="-8"
     inkscape:window-maximized="1"
     inkscape:current-layer="layer1"
     inkscape:snap-global="false"
     fit-margin-top="0"
     fit-margin-left="0"
     fit-margin-right="0"
     fit-margin-bottom="0"
     inkscape:showpageshadow="0"
     inkscape:deskcolor="#505050" />
  <defs
     id="defs8431">
    <clipPath
       clipPathUnits="userSpaceOnUse"
       id="clipPath28501">
      <circle
         style="opacity:0.418651;fill:#0000ff;fill-opacity:0.677262;stroke:none;stroke-width:1.90048;stroke-linecap:round;stroke-linejoin:round;stroke-miterlimit:4;stroke-dasharray:none;paint-order:fill markers stroke;stop-color:#000000"
         id="circle28503"
         cx="127.36563"
         cy="146.46832"
         r="23.535658" />
    </clipPath>
  </defs>
  <g
     inkscape:label="Layer 1"
     inkscape:groupmode="layer"
     id="layer1"
     transform="translate(-103.82997,-122.93267)">
    <g
       id="g27810"
       inkscape:export-filename="D:\Projects\care-up\care-up\Assets\Resources\Sprites\logo-CareUp_New_Onlylogo256.png"
       inkscape:export-xdpi="48.000004"
       inkscape:export-ydpi="48.000004">
      <circle
         style="fill:#65cbf7;fill-opacity:1;stroke:none;stroke-width:2.80504;stroke-linecap:round;stroke-linejoin:round;stroke-miterlimit:4;stroke-dasharray:none;paint-order:fill markers stroke;stop-color:#000000"
         id="circle24945"
         cx="395.37177"
         cy="190.70016"
         r="46.262207" />
      <circle
         style="opacity:0;fill:#ffffff;fill-opacity:0.677262;stroke:#ffffff;stroke-width:2.26385;stroke-linecap:round;stroke-linejoin:round;stroke-miterlimit:4;stroke-dasharray:none;paint-order:fill markers stroke;stop-color:#000000"
         id="circle24937"
         cx="395.20789"
         cy="190.666"
         r="66.60141" />
      <path
         id="path24941"
         style="fill:#ffffff;stroke:none;stroke-width:0.312247;stroke-linecap:round;stroke-linejoin:round;stroke-miterlimit:4;stroke-dasharray:none;paint-order:fill markers stroke;stop-color:#000000"
         d="m 387.88722,159.79937 c -1.5922,0 -2.87379,1.2832 -2.87379,2.87543 0,5.44309 3e-5,9.75836 0,15.3132 0,1.42459 -1.18926,2.35381 -2.38702,2.35381 h -15.28163 c -1.5922,0 -2.87373,1.28317 -2.87373,2.8754 v 14.96751 c 0,1.5922 1.28153,2.87378 2.87373,2.87378 h 15.3023 c 1.59197,0 2.36635,1.37898 2.36635,2.35191 v 15.31675 c 0,1.59219 1.28159,2.87378 2.87379,2.87378 h 14.96912 c 1.5922,0 2.87379,-1.28159 2.87379,-2.87378 v -15.31033 0 c 0,-1.51657 1.34004,-2.35833 2.32773,-2.35833 h 15.34092 c 1.5922,0 2.87379,-1.28158 2.87379,-2.87378 v -14.96751 c 0,-1.59223 -1.28159,-2.8754 -2.87379,-2.8754 h -15.22914 c -1.54564,0 -2.43951,-1.26041 -2.43951,-2.32731 v -15.3397 c 0,-1.59223 -1.28159,-2.87543 -2.87379,-2.87543 z"
         sodipodi:nodetypes="ssccssssccsssscccssssccsss" />
      <path
         id="path24943"
         style="fill:#65cbf7;fill-opacity:1;stroke:none;stroke-width:0.312247;stroke-linecap:round;stroke-linejoin:round;stroke-miterlimit:4;stroke-dasharray:none;paint-order:fill markers stroke;stop-color:#000000"
         d="m 390.6924,180.76457 c -0.79948,-0.0478 -1.27474,0.52666 -1.27474,1.72329 v 1.02787 14.62058 1.02787 c 0,1.74056 1.00387,2.16634 2.55109,1.27307 4.80655,-2.71455 9.49221,-5.69946 14.22204,-8.51321 0.49846,-0.29662 0.73784,-0.69798 0.73093,-1.09239 0.0115,-0.39816 -0.23138,-0.79845 -0.73093,-1.10368 -4.77677,-2.91543 -9.48884,-5.66564 -14.22204,-8.51321 -0.48352,-0.27916 -0.91296,-0.42852 -1.27635,-0.45019 z"
         sodipodi:nodetypes="ssccscscccs" />
    </g>
    <g
       id="g27824"
       transform="matrix(2.8779025,0,0,2.8779025,-193.05304,-230.45353)"
       inkscape:export-filename="..\..\care-up\Assets\WebGLTemplates\Better2020\thumbnail.png"
       inkscape:export-xdpi="26.060038"
       inkscape:export-ydpi="26.060038">
      <path
         style="fill:#65cbf7;fill-opacity:1;stroke:none;stroke-width:0.287066px;stroke-linecap:butt;stroke-linejoin:miter;stroke-opacity:1"
         d="m 109.66872,138.57413 c 2.42649,-5.62137 1.06613,-8.18667 5.31459,-11.72111 4.61321,-3.83788 10.77421,-0.1687 17.09003,1.44896 6.42322,1.64516 11.84779,-0.78577 14.8415,2.78921 3.15814,3.77134 0.25737,8.26438 -0.17157,13.29737 -0.5312,6.23265 1.76648,9.06888 0.85789,11.49578 -1.2166,3.24959 -3.86054,2.43069 -6.26264,4.94719 -2.4021,2.51649 -2.12566,5.51176 -4.8042,6.37703 -2.89722,0.9359 -4.60403,-0.68633 -10.46631,-1.02948 -5.93901,-0.34764 -8.30148,0.74919 -11.98193,-1.60141 -3.09624,-1.97748 -2.57229,-5.9911 -4.28947,-8.43597 -1.93661,-2.75725 -4.70581,-4.64577 -4.77562,-8.0928 -0.064,-3.16238 2.97563,-5.05165 4.64773,-9.47477 z"
         id="path27816"
         sodipodi:nodetypes="csssssssssssc" />
      <path
         id="path27818"
         style="fill:#ffffff;stroke:none;stroke-width:0.108498;stroke-linecap:round;stroke-linejoin:round;stroke-miterlimit:4;stroke-dasharray:none;paint-order:fill markers stroke;stop-color:#000000"
         d="m 124.82188,135.74293 c -0.55325,0 -0.99857,0.44588 -0.99857,0.99914 0,1.89134 10e-6,3.39079 0,5.32096 0,0.49501 -0.41324,0.81789 -0.82943,0.81789 h -5.30999 c -0.55325,0 -0.99855,0.44587 -0.99855,0.99913 v 5.20084 c 0,0.55325 0.4453,0.99857 0.99855,0.99857 h 5.31717 c 0.55317,0 0.82225,0.47916 0.82225,0.81723 v 5.32219 c 0,0.55325 0.44532,0.99857 0.99857,0.99857 h 5.2014 c 0.55325,0 0.99857,-0.44532 0.99857,-0.99857 v -5.31996 0 c 0,-0.52697 0.46563,-0.81946 0.80883,-0.81946 h 5.33059 c 0.55325,0 0.99857,-0.44532 0.99857,-0.99857 v -5.20084 c 0,-0.55326 -0.44532,-0.99913 -0.99857,-0.99913 h -5.29175 c -0.53707,0 -0.84767,-0.43796 -0.84767,-0.80868 v -5.33017 c 0,-0.55326 -0.44532,-0.99914 -0.99857,-0.99914 z"
         sodipodi:nodetypes="ssccssssccsssscccssssccsss" />
      <path
         id="path27820"
         style="fill:#65cbf7;fill-opacity:1;stroke:none;stroke-width:0.108498;stroke-linecap:round;stroke-linejoin:round;stroke-miterlimit:4;stroke-dasharray:none;paint-order:fill markers stroke;stop-color:#000000"
         d="m 125.79661,143.02782 c -0.2778,-0.0166 -0.44294,0.183 -0.44294,0.5988 v 0.35716 5.08029 0.35716 c 0,0.6048 0.34882,0.75275 0.88644,0.44236 1.67016,-0.94324 3.29831,-1.98042 4.94181,-2.95813 0.1732,-0.10307 0.25638,-0.24253 0.25398,-0.37958 0.004,-0.13835 -0.0804,-0.27744 -0.25398,-0.3835 -1.65981,-1.01304 -3.29714,-1.96867 -4.94181,-2.95813 -0.16801,-0.097 -0.31723,-0.1489 -0.4435,-0.15643 z"
         sodipodi:nodetypes="ssccscscccs" />
      <circle
         style="fill:none;stroke:#ffffff;stroke-width:1.01866;stroke-linecap:round;stroke-linejoin:round;stroke-miterlimit:4;stroke-dasharray:none;paint-order:fill markers stroke;stop-color:#000000"
         id="circle27822"
         cx="127.42258"
         cy="146.48019"
         r="16.800276" />
    </g>
  </g>
</svg>
