<?xml version="1.0" encoding="UTF-8" standalone="no"?>
<!-- Created with Inkscape (http://www.inkscape.org/) -->

<svg
   width="1024"
   height="1024"
   viewBox="0 0 270.93335 270.93335"
   version="1.1"
   id="svg8434"
   inkscape:version="1.3 (0e150ed6c4, 2023-07-21)"
   sodipodi:docname="care_up_logo2022_tablet.svg"
   inkscape:export-filename="..\..\care-up\Assets\WebGLTemplates\Better2020\thumbnai2l.png"
   inkscape:export-xdpi="47.999996"
   inkscape:export-ydpi="47.999996"
   xmlns:inkscape="http://www.inkscape.org/namespaces/inkscape"
   xmlns:sodipodi="http://sodipodi.sourceforge.net/DTD/sodipodi-0.dtd"
   xmlns="http://www.w3.org/2000/svg"
   xmlns:svg="http://www.w3.org/2000/svg">
  <sodipodi:namedview
     id="namedview8436"
     pagecolor="#505050"
     bordercolor="#eeeeee"
     borderopacity="1"
     inkscape:pageshadow="0"
     inkscape:pageopacity="0"
     inkscape:pagecheckerboard="0"
     inkscape:document-units="mm"
     showgrid="false"
     inkscape:snap-bbox="true"
     inkscape:bbox-nodes="true"
     inkscape:bbox-paths="true"
     inkscape:snap-bbox-edge-midpoints="true"
     inkscape:snap-bbox-midpoints="true"
     inkscape:snap-smooth-nodes="true"
     inkscape:snap-midpoints="true"
     inkscape:object-paths="true"
     inkscape:snap-intersection-paths="true"
     inkscape:snap-object-midpoints="true"
     inkscape:snap-center="true"
     inkscape:snap-text-baseline="true"
     inkscape:zoom="0.2218224"
     inkscape:cx="1589.1092"
     inkscape:cy="642.40583"
     inkscape:window-width="1920"
     inkscape:window-height="1003"
     inkscape:window-x="0"
     inkscape:window-y="0"
     inkscape:window-maximized="1"
     inkscape:current-layer="layer1"
     inkscape:snap-global="false"
     fit-margin-top="0"
     fit-margin-left="0"
     fit-margin-right="0"
     fit-margin-bottom="0"
     inkscape:showpageshadow="0"
     inkscape:deskcolor="#505050" />
  <defs
     id="defs8431">
    <clipPath
       clipPathUnits="userSpaceOnUse"
       id="clipPath28501">
      <circle
         style="opacity:0.418651;fill:#0000ff;fill-opacity:0.677262;stroke:none;stroke-width:1.90048;stroke-linecap:round;stroke-linejoin:round;stroke-miterlimit:4;stroke-dasharray:none;paint-order:fill markers stroke;stop-color:#000000"
         id="circle28503"
         cx="127.36563"
         cy="146.46832"
         r="23.535658" />
    </clipPath>
    <filter
       inkscape:collect="always"
       style="color-interpolation-filters:sRGB"
       id="filter6"
       x="-0.034702205"
       y="-0.035535251"
       width="1.0694044"
       height="1.0710705">
      <feGaussianBlur
         inkscape:collect="always"
         stdDeviation="1.6133846"
         id="feGaussianBlur6" />
    </filter>
    <filter
       inkscape:collect="always"
       style="color-interpolation-filters:sRGB"
       id="filter7"
       x="-0.070052979"
       y="-0.070052915"
       width="1.140106"
       height="1.1401058">
      <feGaussianBlur
         inkscape:collect="always"
         stdDeviation="1.6133846"
         id="feGaussianBlur7" />
    </filter>
    <filter
       inkscape:collect="always"
       style="color-interpolation-filters:sRGB"
       id="filter8"
       x="-0.11776425"
       y="-0.102408"
       width="1.2355285"
       height="1.204816">
      <feGaussianBlur
         inkscape:collect="always"
         stdDeviation="0.76820021"
         id="feGaussianBlur8" />
    </filter>
    <filter
       inkscape:collect="always"
       style="color-interpolation-filters:sRGB"
       id="filter9"
       x="-0.042357021"
       y="-0.042357021"
       width="1.084714"
       height="1.084714">
      <feGaussianBlur
         inkscape:collect="always"
         stdDeviation="0.98012501"
         id="feGaussianBlur9" />
    </filter>
  </defs>
  <g
     inkscape:label="Layer 1"
     inkscape:groupmode="layer"
     id="layer1"
     transform="translate(-103.82997,-122.93267)">
    <rect
       style="fill:#000000;fill-opacity:1;stroke:none;stroke-width:2.69999;stroke-linecap:round;stroke-linejoin:round;stroke-dasharray:2.69999, 5.39999;paint-order:stroke fill markers"
       id="rect3"
       width="270.93332"
       height="270.93332"
       x="103.82997"
       y="122.93267"
       ry="0"
       inkscape:export-filename="../../blend/vr/tabletMask.png"
       inkscape:export-xdpi="47.999996"
       inkscape:export-ydpi="47.999996" />
    <path
       style="fill:#ececec;fill-opacity:1;stroke:none;stroke-width:0.738892px;stroke-linecap:butt;stroke-linejoin:miter;stroke-opacity:1"
       d="m 195.47147,238.43967 c 6.24566,-14.46911 2.74417,-21.07205 13.67947,-30.16951 11.87416,-9.8785 27.73224,-0.43422 43.98882,3.72955 16.53303,4.23455 30.49558,-2.02253 38.20123,7.17927 8.12888,9.70723 0.66245,21.27207 -0.44162,34.22672 -1.36728,16.04251 4.54683,23.34281 2.20817,29.58952 -3.13147,8.36427 -9.93682,6.25647 -16.1197,12.7338 -6.18288,6.47731 -5.47134,14.18698 -12.36575,16.41413 -7.45729,2.40896 -11.85053,-1.76657 -26.93972,-2.64982 -15.2867,-0.89481 -21.36757,1.92837 -30.84085,-4.12195 -7.96955,-5.08992 -6.62093,-15.42076 -11.04086,-21.71373 -4.98473,-7.09701 -12.11251,-11.95796 -12.29219,-20.83043 -0.16474,-8.1398 7.65911,-13.00268 11.963,-24.38755 z"
       id="path27816"
       sodipodi:nodetypes="csssssssssssc" />
    <path
       id="path27818"
       style="fill:#000000;stroke:none;stroke-width:0.279268;stroke-linecap:round;stroke-linejoin:round;stroke-miterlimit:4;stroke-dasharray:none;paint-order:fill markers stroke;stop-color:#000000"
       d="m 234.47489,231.15231 c -1.42403,0 -2.57026,1.14767 -2.57026,2.57174 0,4.8682 2e-5,8.72771 0,13.69586 0,1.27413 -1.06366,2.10521 -2.13491,2.10521 h -13.66763 c -1.42403,0 -2.57021,1.14764 -2.57021,2.5717 v 13.38669 c 0,1.42403 1.14618,2.57026 2.57021,2.57026 h 13.68611 c 1.42383,0 2.11643,1.23333 2.11643,2.10351 v 13.69903 c 0,1.42403 1.14623,2.57026 2.57026,2.57026 h 13.38813 c 1.42403,0 2.57026,-1.14623 2.57026,-2.57026 v -13.69329 0 c 0,-1.3564 1.19851,-2.10925 2.08189,-2.10925 h 13.72065 c 1.42404,0 2.57027,-1.14623 2.57027,-2.57026 v -13.38669 c 0,-1.42406 -1.14623,-2.5717 -2.57027,-2.5717 h -13.62068 c -1.38239,0 -2.18186,-1.12729 -2.18186,-2.0815 v -13.71957 c 0,-1.42407 -1.14623,-2.57174 -2.57026,-2.57174 z"
       sodipodi:nodetypes="ssccssssccsssscccssssccsss" />
    <path
       id="path27820"
       style="fill:#ececec;fill-opacity:1;stroke:none;stroke-width:0.279268;stroke-linecap:round;stroke-linejoin:round;stroke-miterlimit:4;stroke-dasharray:none;paint-order:fill markers stroke;stop-color:#000000"
       d="m 236.9838,249.90323 c -0.71505,-0.0427 -1.14011,0.47103 -1.14011,1.54128 v 0.91931 13.07639 0.91931 c 0,1.55672 0.89785,1.93754 2.28165,1.13861 4.2989,-2.42785 8.48967,-5.09749 12.71996,-7.61406 0.4458,-0.2653 0.6599,-0.62426 0.65373,-0.97702 0.0103,-0.35611 -0.20695,-0.71412 -0.65373,-0.98711 -4.27227,-2.60751 -8.48667,-5.06725 -12.71996,-7.61407 -0.43245,-0.24967 -0.81653,-0.38326 -1.14154,-0.40264 z"
       sodipodi:nodetypes="ssccscscccs" />
    <circle
       style="fill:none;stroke:#000000;stroke-width:2.62198;stroke-linecap:round;stroke-linejoin:round;stroke-miterlimit:4;stroke-dasharray:none;paint-order:fill markers stroke;stop-color:#000000"
       id="circle27822"
       cx="241.16895"
       cy="258.78946"
       r="43.243008" />
    <g
       id="g9"
       inkscape:export-filename="../../blend/vr/tabletBump.png"
       inkscape:export-xdpi="47.999996"
       inkscape:export-ydpi="47.999996">
      <rect
         style="fill:#000000;fill-opacity:1;stroke:none;stroke-width:2.69999;stroke-linecap:round;stroke-linejoin:round;stroke-dasharray:2.69999, 5.39999;paint-order:stroke fill markers"
         id="rect4"
         width="270.93332"
         height="270.93332"
         x="473.96301"
         y="122.93267"
         ry="0"
         inkscape:export-filename="../../blend/vr/tabletMask.png"
         inkscape:export-xdpi="47.999996"
         inkscape:export-ydpi="47.999996" />
      <path
         style="fill:#ececec;fill-opacity:1;stroke:none;stroke-width:0.738892px;stroke-linecap:butt;stroke-linejoin:miter;stroke-opacity:1;filter:url(#filter6)"
         d="m 565.60452,238.43967 c 6.24566,-14.46911 2.74417,-21.07205 13.67947,-30.16951 11.87416,-9.8785 27.73224,-0.43422 43.98882,3.72955 16.53303,4.23455 30.49558,-2.02253 38.20123,7.17927 8.12888,9.70723 0.66245,21.27207 -0.44162,34.22672 -1.36728,16.04251 4.54683,23.34281 2.20817,29.58952 -3.13147,8.36427 -9.93682,6.25647 -16.1197,12.7338 -6.18288,6.47731 -5.47134,14.18698 -12.36575,16.41413 -7.45729,2.40896 -11.85053,-1.76657 -26.93972,-2.64982 -15.2867,-0.89481 -21.36757,1.92837 -30.84085,-4.12195 -7.96955,-5.08992 -6.62093,-15.42076 -11.04086,-21.71373 -4.98473,-7.09701 -12.11251,-11.95796 -12.29219,-20.83043 -0.16474,-8.1398 7.65911,-13.00268 11.963,-24.38755 z"
         id="path4"
         sodipodi:nodetypes="csssssssssssc" />
      <path
         id="path5"
         style="fill:#000000;stroke:none;stroke-width:0.279268;stroke-linecap:round;stroke-linejoin:round;stroke-miterlimit:4;stroke-dasharray:none;paint-order:fill markers stroke;stop-color:#000000;filter:url(#filter7)"
         d="m 604.60794,231.15231 c -1.42403,0 -2.57026,1.14767 -2.57026,2.57174 0,4.8682 2e-5,8.72771 0,13.69586 0,1.27413 -1.06366,2.10521 -2.13491,2.10521 h -13.66763 c -1.42403,0 -2.57021,1.14764 -2.57021,2.5717 v 13.38669 c 0,1.42403 1.14618,2.57026 2.57021,2.57026 h 13.68611 c 1.42383,0 2.11643,1.23333 2.11643,2.10351 v 13.69903 c 0,1.42403 1.14623,2.57026 2.57026,2.57026 h 13.38813 c 1.42403,0 2.57026,-1.14623 2.57026,-2.57026 v -13.69329 0 c 0,-1.3564 1.19851,-2.10925 2.08189,-2.10925 h 13.72065 c 1.42404,0 2.57027,-1.14623 2.57027,-2.57026 v -13.38669 c 0,-1.42406 -1.14623,-2.5717 -2.57027,-2.5717 h -13.62068 c -1.38239,0 -2.18186,-1.12729 -2.18186,-2.0815 v -13.71957 c 0,-1.42407 -1.14623,-2.57174 -2.57026,-2.57174 z"
         sodipodi:nodetypes="ssccssssccsssscccssssccsss" />
      <path
         id="path6"
         style="fill:#ececec;fill-opacity:1;stroke:none;stroke-width:0.279268;stroke-linecap:round;stroke-linejoin:round;stroke-miterlimit:4;stroke-dasharray:none;paint-order:fill markers stroke;stop-color:#000000;filter:url(#filter8)"
         d="m 607.11685,249.90323 c -0.71505,-0.0427 -1.14011,0.47103 -1.14011,1.54128 v 0.91931 13.07639 0.91931 c 0,1.55672 0.89785,1.93754 2.28165,1.13861 4.2989,-2.42785 8.48967,-5.09749 12.71996,-7.61406 0.4458,-0.2653 0.6599,-0.62426 0.65373,-0.97702 0.0103,-0.35611 -0.20695,-0.71412 -0.65373,-0.98711 -4.27227,-2.60751 -8.48667,-5.06725 -12.71996,-7.61407 -0.43245,-0.24967 -0.81653,-0.38326 -1.14154,-0.40264 z"
         sodipodi:nodetypes="ssccscscccs" />
      <circle
         style="fill:none;stroke:#000000;stroke-width:2.62198;stroke-linecap:round;stroke-linejoin:round;stroke-miterlimit:4;stroke-dasharray:none;paint-order:fill markers stroke;stop-color:#000000;filter:url(#filter9)"
         id="circle6"
         cx="611.302"
         cy="258.78946"
         r="43.243008" />
    </g>
  </g>
</svg>
