<?xml version="1.0" encoding="UTF-8" standalone="no"?>
<!-- Created with Inkscape (http://www.inkscape.org/) -->

<svg
   width="847.16272"
   height="371.52161"
   viewBox="0 0 224.14513 98.298425"
   version="1.1"
   id="svg27"
   xml:space="preserve"
   inkscape:version="1.2.1 (9c6d41e410, 2022-07-14)"
   sodipodi:docname="care_up_logo_webgl.svg"
   xmlns:inkscape="http://www.inkscape.org/namespaces/inkscape"
   xmlns:sodipodi="http://sodipodi.sourceforge.net/DTD/sodipodi-0.dtd"
   xmlns="http://www.w3.org/2000/svg"
   xmlns:svg="http://www.w3.org/2000/svg"><sodipodi:namedview
     id="namedview29"
     pagecolor="#505050"
     bordercolor="#eeeeee"
     borderopacity="1"
     inkscape:showpageshadow="0"
     inkscape:pageopacity="0"
     inkscape:pagecheckerboard="0"
     inkscape:deskcolor="#505050"
     inkscape:document-units="mm"
     showgrid="false"
     inkscape:zoom="0.84096521"
     inkscape:cx="1020.2562"
     inkscape:cy="1598.7582"
     inkscape:window-width="1920"
     inkscape:window-height="1017"
     inkscape:window-x="-8"
     inkscape:window-y="-8"
     inkscape:window-maximized="1"
     inkscape:current-layer="layer1" /><defs
     id="defs24"><filter
       inkscape:collect="always"
       style="color-interpolation-filters:sRGB"
       id="filter4386"
       x="-0.10241667"
       y="-0.28396968"
       width="1.2048333"
       height="1.5679394"><feGaussianBlur
         inkscape:collect="always"
         stdDeviation="8.0547417"
         id="feGaussianBlur4388" /></filter></defs><g
     inkscape:label="Layer 1"
     inkscape:groupmode="layer"
     id="layer1"
     transform="translate(-107.94924,-369.50075)"><rect
       style="opacity:0.213573;mix-blend-mode:normal;fill:#ffffff;fill-opacity:1;stroke:none;stroke-width:5.29367;stroke-linecap:round;stroke-linejoin:round;stroke-opacity:1;paint-order:fill markers stroke;filter:url(#filter4386);stop-color:#000000"
       id="rect4384"
       width="188.75229"
       height="68.075508"
       x="125.64567"
       y="384.61221"
       ry="23.330217"
       transform="matrix(0.98562142,0,0,0.92092954,3.1636054,33.102841)"
       clip-path="none"
       inkscape:export-filename="..\..\care-up\Assets\WebGLTemplates\Better2020\logo.png"
       inkscape:export-xdpi="58.019554"
       inkscape:export-ydpi="58.019554" /><g
       id="g3476"
       transform="translate(-32.104338,360.23835)"><g
         id="g27824"
         transform="matrix(1.5056,0,0,1.5056,2.6314622,-161.90076)"
         inkscape:export-filename="D:\Projects\care-up\care-up\Assets\Resources\Sprites\Care-Up-Logo-No-text-GooglePlay.png"
         inkscape:export-xdpi="48.000004"
         inkscape:export-ydpi="48.000004"><path
           style="fill:#65cbf7;fill-opacity:1;stroke:none;stroke-width:0.287066px;stroke-linecap:butt;stroke-linejoin:miter;stroke-opacity:1"
           d="m 109.66872,138.57413 c 2.42649,-5.62137 1.06613,-8.18667 5.31459,-11.72111 4.61321,-3.83788 10.77421,-0.1687 17.09003,1.44896 6.42322,1.64516 11.84779,-0.78577 14.8415,2.78921 3.15814,3.77134 0.25737,8.26438 -0.17157,13.29737 -0.5312,6.23265 1.76648,9.06888 0.85789,11.49578 -1.2166,3.24959 -3.86054,2.43069 -6.26264,4.94719 -2.4021,2.51649 -2.12566,5.51176 -4.8042,6.37703 -2.89722,0.9359 -4.60403,-0.68633 -10.46631,-1.02948 -5.93901,-0.34764 -8.30148,0.74919 -11.98193,-1.60141 -3.09624,-1.97748 -2.57229,-5.9911 -4.28947,-8.43597 -1.93661,-2.75725 -4.70581,-4.64577 -4.77562,-8.0928 -0.064,-3.16238 2.97563,-5.05165 4.64773,-9.47477 z"
           id="path27816"
           sodipodi:nodetypes="csssssssssssc" /><path
           id="path27818"
           style="fill:#ffffff;stroke:none;stroke-width:0.108498;stroke-linecap:round;stroke-linejoin:round;stroke-miterlimit:4;stroke-dasharray:none;paint-order:fill markers stroke;stop-color:#000000"
           d="m 124.82188,135.74293 c -0.55325,0 -0.99857,0.44588 -0.99857,0.99914 0,1.89134 10e-6,3.39079 0,5.32096 0,0.49501 -0.41324,0.81789 -0.82943,0.81789 h -5.30999 c -0.55325,0 -0.99855,0.44587 -0.99855,0.99913 v 5.20084 c 0,0.55325 0.4453,0.99857 0.99855,0.99857 h 5.31717 c 0.55317,0 0.82225,0.47916 0.82225,0.81723 v 5.32219 c 0,0.55325 0.44532,0.99857 0.99857,0.99857 h 5.2014 c 0.55325,0 0.99857,-0.44532 0.99857,-0.99857 v -5.31996 0 c 0,-0.52697 0.46563,-0.81946 0.80883,-0.81946 h 5.33059 c 0.55325,0 0.99857,-0.44532 0.99857,-0.99857 v -5.20084 c 0,-0.55326 -0.44532,-0.99913 -0.99857,-0.99913 h -5.29175 c -0.53707,0 -0.84767,-0.43796 -0.84767,-0.80868 v -5.33017 c 0,-0.55326 -0.44532,-0.99914 -0.99857,-0.99914 z"
           sodipodi:nodetypes="ssccssssccsssscccssssccsss" /><path
           id="path27820"
           style="fill:#65cbf7;fill-opacity:1;stroke:none;stroke-width:0.108498;stroke-linecap:round;stroke-linejoin:round;stroke-miterlimit:4;stroke-dasharray:none;paint-order:fill markers stroke;stop-color:#000000"
           d="m 125.79661,143.02782 c -0.2778,-0.0166 -0.44294,0.183 -0.44294,0.5988 v 0.35716 5.08029 0.35716 c 0,0.6048 0.34882,0.75275 0.88644,0.44236 1.67016,-0.94324 3.29831,-1.98042 4.94181,-2.95813 0.1732,-0.10307 0.25638,-0.24253 0.25398,-0.37958 0.004,-0.13835 -0.0804,-0.27744 -0.25398,-0.3835 -1.65981,-1.01304 -3.29714,-1.96867 -4.94181,-2.95813 -0.16801,-0.097 -0.31723,-0.1489 -0.4435,-0.15643 z"
           sodipodi:nodetypes="ssccscscccs" /><circle
           style="fill:none;stroke:#ffffff;stroke-width:1.01866;stroke-linecap:round;stroke-linejoin:round;stroke-miterlimit:4;stroke-dasharray:none;paint-order:fill markers stroke;stop-color:#000000"
           id="circle27822"
           cx="127.42258"
           cy="146.48019"
           r="16.800276" /></g><text
         xml:space="preserve"
         style="font-style:normal;font-weight:normal;font-size:25.2771px;line-height:1.25;font-family:sans-serif;fill:#373736;fill-opacity:1;stroke:#373736;stroke-width:0.631928;stroke-opacity:1"
         x="225.49826"
         y="67.225975"
         id="text304"
         transform="scale(1.0252438,0.97537776)"><tspan
           sodipodi:role="line"
           id="tspan302"
           style="font-style:normal;font-variant:normal;font-weight:normal;font-stretch:normal;font-family:'DejaVu Sans';-inkscape-font-specification:'DejaVu Sans';fill:#373736;fill-opacity:1;stroke:#373736;stroke-width:0.631928;stroke-opacity:1"
           x="225.49826"
           y="67.225975">CARE UP</tspan></text><rect
         style="opacity:1;fill:#65cbf7;fill-opacity:1;stroke:none;stroke-width:5.378;stroke-linecap:round;stroke-linejoin:round;paint-order:fill markers stroke;stop-color:#000000"
         id="rect408"
         width="113.1054"
         height="2.2023304"
         x="231.44136"
         y="70.474571"
         ry="0" /></g></g></svg>
