<?xml version="1.0" encoding="UTF-8" standalone="no"?>
<!-- Created with Inkscape (http://www.inkscape.org/) -->

<svg
   width="210mm"
   height="297mm"
   viewBox="0 0 210 297"
   version="1.1"
   id="svg5"
   xml:space="preserve"
   inkscape:version="1.2.2 (732a01da63, 2022-12-09)"
   sodipodi:docname="medivus_logo.svg"
   xmlns:inkscape="http://www.inkscape.org/namespaces/inkscape"
   xmlns:sodipodi="http://sodipodi.sourceforge.net/DTD/sodipodi-0.dtd"
   xmlns:xlink="http://www.w3.org/1999/xlink"
   xmlns="http://www.w3.org/2000/svg"
   xmlns:svg="http://www.w3.org/2000/svg"><sodipodi:namedview
     id="namedview7"
     pagecolor="#505050"
     bordercolor="#eeeeee"
     borderopacity="1"
     inkscape:showpageshadow="0"
     inkscape:pageopacity="0"
     inkscape:pagecheckerboard="0"
     inkscape:deskcolor="#505050"
     inkscape:document-units="mm"
     showgrid="false"
     showguides="true"
     inkscape:zoom="3.3638608"
     inkscape:cx="296.23699"
     inkscape:cy="1315.6014"
     inkscape:window-width="1920"
     inkscape:window-height="1017"
     inkscape:window-x="-8"
     inkscape:window-y="-8"
     inkscape:window-maximized="1"
     inkscape:current-layer="layer1"><sodipodi:guide
       position="57.508229,-50.107223"
       orientation="0,-1"
       id="guide1424"
       inkscape:locked="false" /><sodipodi:guide
       position="56.952057,-40.707909"
       orientation="0,-1"
       id="guide1476"
       inkscape:locked="false" /><sodipodi:guide
       position="57.693193,-45.305081"
       orientation="1,0"
       id="guide2365"
       inkscape:locked="false" /><sodipodi:guide
       position="69.294755,-46.091634"
       orientation="1,0"
       id="guide2477"
       inkscape:locked="false" /></sodipodi:namedview><defs
     id="defs2"><linearGradient
       inkscape:collect="always"
       id="linearGradient14295"><stop
         style="stop-color:#a75fa4;stop-opacity:1"
         offset="0"
         id="stop14291" /><stop
         style="stop-color:#9e6098;stop-opacity:1"
         offset="1"
         id="stop14293" /></linearGradient><linearGradient
       inkscape:collect="always"
       id="linearGradient7714"><stop
         style="stop-color:#6fbcb8;stop-opacity:1"
         offset="0"
         id="stop7710" /><stop
         style="stop-color:#aad4d8;stop-opacity:1"
         offset="1"
         id="stop7712" /></linearGradient><linearGradient
       inkscape:collect="always"
       xlink:href="#linearGradient7714"
       id="linearGradient7716"
       x1="40.656204"
       y1="345.7446"
       x2="40.656204"
       y2="339.20956"
       gradientUnits="userSpaceOnUse" /><linearGradient
       inkscape:collect="always"
       xlink:href="#linearGradient14295"
       id="linearGradient14297"
       x1="48.859749"
       y1="346.63446"
       x2="49.0266"
       y2="338.26407"
       gradientUnits="userSpaceOnUse" /></defs><g
     inkscape:label="Layer 1"
     inkscape:groupmode="layer"
     id="layer1"><g
       id="g27169"><path
         id="path1541"
         style="fill:#a962a5;fill-opacity:1;stroke:none;stroke-width:0.264583px;stroke-linecap:butt;stroke-linejoin:miter;stroke-opacity:1"
         d="m 55.86429,337.70807 v 9.39891 h 1.828829 v -4.60127 l 2.182813,4.60127 h 1.435571 l 2.162659,-4.69946 v 4.69946 h 1.828829 v -9.39891 H 63.72996 l -3.093868,6.85849 -3.15898,-6.85849 z m 11.64115,0 v 9.39891 h 6.48901 V 345.628 h -4.679818 v -2.47737 h 4.522205 v -1.53376 h -4.541842 v -2.43809 h 4.660181 v -1.47071 z m 8.1995,0 v 9.39891 h 4.857068 c 0,0 3.77548,-0.22012 3.77548,-4.80178 0,-4.58161 -4.483447,-4.59713 -4.483447,-4.59713 z m 10.244852,0 v 9.39891 h 2.045354 v -9.39891 z m 3.028239,0 4.365625,9.39891 h 1.730127 l 4.247286,-9.39891 h -2.162658 l -3.008602,6.79958 -3.067513,-6.79958 z m 11.247379,0 v 6.52415 c 0,0.29278 0.0372,2.94446 4.09019,2.87476 4.06973,-0.07 4.09019,-2.75694 4.09019,-2.75694 v -6.64197 h -1.98593 v 5.91437 c 0,0 0.0981,2.06499 -2.14354,2.06499 -2.24166,0 -2.24172,-1.90738 -2.24172,-1.90738 l -0.0196,-6.07198 z m 13.64671,0 c -3.22272,0 -3.97712,1.50232 -3.77548,3.04374 0.39507,3.02013 5.99556,2.25976 5.47563,3.99511 -0.37237,1.24284 -3.62987,0.81413 -5.00331,0.0946 l -0.59014,1.45521 c 1.87431,1.13042 6.29325,1.38169 7.3148,-0.56999 0.83657,-1.59828 0.35113,-3.15949 -1.57303,-3.67729 -2.89572,-0.77925 -3.7981,-1.0836 -3.60237,-1.98696 0.20924,-0.96575 2.1757,-1.35624 4.44314,-0.11938 l 0.25011,0.11783 0.6594,-1.53118 c -0.67212,-0.38805 -2.05539,-0.82169 -3.59875,-0.82169 z m -36.240166,1.526 2.389518,0.004 c 0,0 2.290816,0.23558 2.290816,3.34243 0,3.10678 -2.418973,3.08767 -2.418973,3.08767 h -2.261361 z"
         sodipodi:nodetypes="ccccccccccccccccccccccccccccccsccccccccccccccccssccccscccsssccssscccscscccc" /><path
         style="fill:url(#linearGradient14297);fill-opacity:1;stroke:none;stroke-width:0.264583px;stroke-linecap:butt;stroke-linejoin:miter;stroke-opacity:1"
         d="m 44.577528,342.81634 2.497286,-5.11255 c 0,0 2.831568,0 3.519797,2.163 0.688226,2.16299 0.865201,4.46365 0.452263,5.62379 -0.412938,1.16018 -2.595602,1.69109 -2.595602,1.69109 l -0.688229,-4.85693 -1.730404,3.85409 z"
         id="path6920"
         sodipodi:nodetypes="ccsscccc" /><path
         style="fill:url(#linearGradient7716);stroke:none;stroke-width:0.264583px;stroke-linecap:butt;stroke-linejoin:miter;stroke-opacity:1;fill-opacity:1"
         d="m 43.594345,346.17883 h 2.438294 l -3.401814,-8.51438 c 0,0 -1.67141,-0.2163 -2.615266,0.96353 -0.943856,1.1798 -1.474774,3.63778 -1.592757,5.25021 3.58e-4,1.35607 0.549979,3.21742 2.851232,3.12651 l 0.727554,-4.75862 z"
         id="path6922"
         sodipodi:nodetypes="cccscccc" /></g></g></svg>
