<?xml version="1.0" encoding="UTF-8" standalone="no"?>
<svg
   xmlns:dc="http://purl.org/dc/elements/1.1/"
   xmlns:cc="http://creativecommons.org/ns#"
   xmlns:rdf="http://www.w3.org/1999/02/22-rdf-syntax-ns#"
   xmlns:svg="http://www.w3.org/2000/svg"
   xmlns="http://www.w3.org/2000/svg"
   xmlns:sodipodi="http://sodipodi.sourceforge.net/DTD/sodipodi-0.dtd"
   xmlns:inkscape="http://www.inkscape.org/namespaces/inkscape"
   width="40.576912mm"
   height="37.564697mm"
   viewBox="0 0 40.576912 37.564697"
   version="1.1"
   id="svg8"
   inkscape:version="1.0.1 (3bc2e813f5, 2020-09-07)"
   sodipodi:docname="checkout.svg">
  <defs
     id="defs2" />
  <sodipodi:namedview
     id="base"
     pagecolor="#5e5e5e"
     bordercolor="#666666"
     borderopacity="1.0"
     inkscape:pageopacity="0"
     inkscape:pageshadow="2"
     inkscape:zoom="2.8"
     inkscape:cx="116.68095"
     inkscape:cy="61.815932"
     inkscape:document-units="mm"
     inkscape:current-layer="layer1"
     inkscape:document-rotation="0"
     showgrid="false"
     inkscape:snap-global="false"
     inkscape:window-width="1737"
     inkscape:window-height="1040"
     inkscape:window-x="26"
     inkscape:window-y="0"
     inkscape:window-maximized="0"
     fit-margin-top="0"
     fit-margin-left="0"
     fit-margin-right="0"
     fit-margin-bottom="0" />
  <metadata
     id="metadata5">
    <rdf:RDF>
      <cc:Work
         rdf:about="">
        <dc:format>image/svg+xml</dc:format>
        <dc:type
           rdf:resource="http://purl.org/dc/dcmitype/StillImage" />
        <dc:title></dc:title>
      </cc:Work>
    </rdf:RDF>
  </metadata>
  <g
     inkscape:label="Шар 1"
     inkscape:groupmode="layer"
     id="layer1"
     transform="translate(-28.196727,-96.751648)">
    <path
       id="path858"
       style="color:#000000;font-style:normal;font-variant:normal;font-weight:normal;font-stretch:normal;font-size:medium;line-height:normal;font-family:sans-serif;font-variant-ligatures:normal;font-variant-position:normal;font-variant-caps:normal;font-variant-numeric:normal;font-variant-alternates:normal;font-variant-east-asian:normal;font-feature-settings:normal;font-variation-settings:normal;text-indent:0;text-align:start;text-decoration:none;text-decoration-line:none;text-decoration-style:solid;text-decoration-color:#000000;letter-spacing:normal;word-spacing:normal;text-transform:none;writing-mode:lr-tb;direction:ltr;text-orientation:mixed;dominant-baseline:auto;baseline-shift:baseline;text-anchor:start;white-space:normal;shape-padding:0;shape-margin:0;inline-size:0;clip-rule:nonzero;display:inline;overflow:visible;visibility:visible;opacity:1;isolation:auto;mix-blend-mode:normal;color-interpolation:sRGB;color-interpolation-filters:linearRGB;solid-color:#000000;solid-opacity:1;vector-effect:none;fill:#ffffff;fill-opacity:1;fill-rule:nonzero;stroke:none;stroke-width:0.999999px;stroke-linecap:butt;stroke-linejoin:miter;stroke-miterlimit:4;stroke-dasharray:none;stroke-dashoffset:0;stroke-opacity:1;color-rendering:auto;image-rendering:auto;shape-rendering:auto;text-rendering:auto;enable-background:accumulate;stop-color:#000000;stop-opacity:1"
       d="m 115.27539,365.67578 c -4.82887,0.0731 -8.70512,4.00847 -8.70508,8.83789 -5.6e-4,4.88235 3.9575,8.84041 8.83985,8.83985 1.34006,-5.3e-4 2.66245,-0.30575 3.86718,-0.89258 l 11.72071,8.35937 16.35156,71.73633 0.74609,3.875 h 0.13672 c 0.85781,3.42168 -0.29093,4.93836 -2.18945,7.72852 -0.96783,1.42235 -2.17107,2.99457 -2.99609,5.16796 -0.82505,2.17338 -0.9989,5.13036 0.15429,7.81836 2.25991,5.26772 7.16409,7.50208 10.82227,8.11914 0.88183,0.14877 1.72608,0.22266 2.50586,0.25391 -2.1e-4,0.0289 -0.004,0.057 -0.004,0.0859 -10e-6,6.6045 5.44235,12.04687 12.04688,12.04687 6.50758,0 11.86907,-5.28673 12.02539,-11.75976 h 46.77929 c 0.15652,6.47304 5.52562,11.75976 12.03321,11.75976 6.50758,0 11.86712,-5.28673 12.02343,-11.75976 h 1.42383 c 2.27536,0 4.10742,-1.83207 4.10742,-4.10742 v -0.89258 c 0,-2.27535 -1.83206,-4.10742 -4.10742,-4.10742 h -5.18164 c -0.0375,0 -0.0721,0.0107 -0.10937,0.0117 -2.15274,-1.99922 -5.01736,-3.23829 -8.15625,-3.23829 -3.2487,0 -6.21364,1.32101 -8.39063,3.44532 -0.40172,-0.13049 -0.8232,-0.21875 -1.26953,-0.21875 h -52.6582 c -0.11508,0 -0.22331,0.024 -0.33594,0.0332 -2.15538,-2.01257 -5.03287,-3.25977 -8.18359,-3.25977 -3.39044,0 -6.46715,1.44106 -8.66602,3.73047 -3.90491,0.36745 -7.63075,0.70622 -9.18359,-3.36914 -0.86098,-2.2596 1.14161,-3.76862 2.08203,-5.15234 1.82795,-2.68648 4.31336,-6.9665 3.72656,-12.33594 h 85.8418 c 6.36165,0.21959 6.20508,-0.9253 7.13086,-6.16992 l 10.17773,-57.65039 c 0.95956,-3.94008 -0.84087,-6.85742 -5.39648,-6.85742 l -113.80078,-0.14453 -1.85157,-8.12696 c -0.22382,-0.9783 -0.79936,-1.84022 -1.61719,-2.42187 l -12.875,-9.17969 c 0.0712,-0.45226 0.10708,-0.90937 0.10743,-1.36719 -5.2e-4,-4.88082 -3.95707,-8.83737 -8.83789,-8.83789 -0.0449,-3.4e-4 -0.0898,-3.4e-4 -0.13477,0 z m 98.19727,39.91211 c 0.0993,0 0.19823,0.012 0.29687,0.0195 v -0.002 c 2.23462,0.25614 3.88878,2.19838 3.78711,4.44531 0,0 0.008,13.92215 -0.20117,19.89649 -0.2868,8.18989 -1.69531,22.50195 -1.69531,22.50195 -0.10625,2.36266 -2.10819,4.19164 -4.47071,4.08203 -2.36016,-0.10564 -4.18837,-2.10464 -4.08398,-4.46484 0,0 -0.0314,-15.94123 0.36523,-23.72071 0.32499,-6.37443 1.53907,-18.67382 1.53907,-18.67382 0.10563,-2.36021 2.1027,-4.18944 4.46289,-4.08399 z m -26.41797,0.0176 v 0.002 c 2.24811,0.0716 4.05725,1.87142 4.14062,4.11914 0,0 1.15096,13.87248 1.4336,19.84375 0.38744,8.18578 0.16211,22.56446 0.16211,22.56446 0.0883,2.36337 -1.75758,4.35246 -4.1211,4.4375 -2.36086,0.0888 -4.34755,-1.75248 -4.4375,-4.11329 0,0 -1.3417,-15.88612 -1.58594,-23.67187 -0.20011,-6.37958 -0.002,-18.73828 -0.002,-18.73828 -0.0887,-2.36085 1.75241,-4.34868 4.11328,-4.4375 0.0989,-0.01 0.19789,-0.006 0.29688,-0.006 z m 52.11523,0.23047 c 0.28337,-0.0222 0.57413,-0.0169 0.86719,0.0195 0.099,0.008 0.19523,0.0279 0.29297,0.043 2.20736,0.43207 3.70287,2.49862 3.42383,4.73047 0,0 -1.09435,13.87733 -1.77539,19.8164 -0.93363,8.1416 -3.4668,22.29688 -3.4668,22.29688 -0.29277,2.34686 -2.4348,4.01311 -4.78125,3.71679 -2.34442,-0.29193 -4.00947,-2.42888 -3.71875,-4.77343 0,0 1.23155,-15.89346 2.24219,-23.61719 0.82811,-6.32878 3.00976,-18.49414 3.00976,-18.49414 0.25547,-2.05139 1.92268,-3.58291 3.90625,-3.73828 z m -78.48828,0.0645 c 2.24658,-0.10968 4.195,1.53974 4.45898,3.77344 0,0 2.26482,13.73684 3.02735,19.66601 1.04531,8.12799 1.97656,22.47657 1.97656,22.47657 0.27836,2.34859 -1.40113,4.47762 -3.75,4.7539 -2.34605,0.27855 -4.47396,-1.39631 -4.75391,-3.74219 10e-6,0 -2.61595,-15.72598 -3.48632,-23.46679 -0.71318,-6.34273 -1.50977,-18.67578 -1.50977,-18.67578 -0.27856,-2.34607 1.39629,-4.47385 3.74219,-4.75391 0.0981,-0.0151 0.1962,-0.0237 0.29492,-0.0312 z m 7.89063,85.84375 c 2.18227,0 3.86132,1.67903 3.86132,3.86133 1e-5,2.18226 -1.67904,3.86133 -3.86132,3.86133 -2.18228,0 -3.8672,-1.67907 -3.86719,-3.86133 1e-5,-2.1823 1.68492,-3.86133 3.86719,-3.86133 z m 70.83789,0 c 2.18227,0 3.85936,1.67903 3.85937,3.86133 1e-5,2.18226 -1.6771,3.86133 -3.85937,3.86133 -2.18228,0 -3.86914,-1.67907 -3.86914,-3.86133 1e-5,-2.1823 1.68687,-3.86133 3.86914,-3.86133 z"
       transform="scale(0.26458333)"
       inkscape:export-filename="D:\Projects\care-up\care-up\Assets\Resources\Sprites\nUI\checkout.png"
       inkscape:export-xdpi="96"
       inkscape:export-ydpi="96" />
  </g>
</svg>
